<svg width="300" height="19" viewBox="0 0 300 19" fill="none" xmlns="http://www.w3.org/2000/svg">
<path fill-rule="evenodd" clip-rule="evenodd" d="M246.278 0.136282C246.378 -0.0737185 246.248 -0.0337722 245.938 0.206228C245.498 0.556228 245.188 0.586296 244.678 0.276296C244.168 -0.00370383 243.968 -0.00370383 243.968 0.276296C243.968 0.486296 243.628 0.626233 243.188 0.586233C241.728 0.416233 239.548 2.03621 239.788 3.18621C239.928 3.84621 239.888 3.84625 239.478 3.35625C239.108 2.87625 238.898 2.83624 238.428 3.21624C238.118 3.42624 237.948 3.73623 238.058 3.83623C238.198 3.93623 237.888 4.14631 237.378 4.28631C236.898 4.38631 236.598 4.6362 236.698 4.8062C236.938 5.2562 238.198 5.18626 238.198 4.73626C238.198 4.52626 238.368 4.49619 238.608 4.66619C238.848 4.80619 239.388 4.8762 239.798 4.8062C240.338 4.7762 240.578 4.90628 240.578 5.25628C240.578 5.56628 240.338 5.8062 240.038 5.8062C239.598 5.8062 239.558 5.90631 239.868 6.28631C240.208 6.70631 240.178 6.76623 239.668 6.70623C239.298 6.63623 239.088 6.35629 239.158 6.01629C239.258 5.53629 239.158 5.4663 238.578 5.7763C237.628 6.2963 236.848 6.25628 236.848 5.63628C236.848 4.38628 235.858 5.60629 235.688 7.01629C235.658 7.46629 235.108 7.88628 234.528 7.88628C234.258 7.88628 233.508 7.26628 232.798 6.50628C231.678 5.25628 231.438 5.15626 230.278 5.36626C229.458 5.50626 229.018 5.4363 229.018 5.1563C229.018 4.9463 228.848 4.7763 228.648 4.7763C228.478 4.7763 228.408 4.94622 228.548 5.19622C228.688 5.43622 228.648 5.47623 228.378 5.33623C227.838 4.95623 228.238 4.43621 229.128 4.43621C229.601 4.41621 229.635 4.24286 229.228 3.91619C228.888 3.63619 228.478 3.49621 228.308 3.56621C228.168 3.66621 227.968 3.59629 227.828 3.39629C227.688 3.19629 227.458 3.15628 227.248 3.25628C227.008 3.42628 226.938 3.28622 227.078 2.94622C227.248 2.52622 227.078 2.46621 226.368 2.56621C225.148 2.80621 225.108 2.87621 225.758 3.81621C226.608 5.02621 226.408 5.40629 225.488 4.26629C225.048 3.71629 224.738 3.08622 224.838 2.94622C224.938 2.77622 224.698 2.56624 224.298 2.46624C223.928 2.36624 223.688 2.11622 223.788 1.94622C223.928 1.73622 223.688 1.77625 223.278 1.97625C222.598 2.35625 222.428 2.2562 222.528 1.5562C222.558 1.3862 222.388 1.3863 222.158 1.5263C221.918 1.6963 221.208 1.83627 220.598 1.87627C219.438 1.90627 218.728 2.35625 219.408 2.60625C220.328 2.95625 219.778 3.36625 218.628 3.22625C217.808 3.08625 217.268 3.22622 216.898 3.57622C216.418 4.09622 216.418 4.16626 216.998 4.61626C217.578 5.06626 217.538 5.09627 216.388 4.99627C215.608 4.96627 215.058 5.09624 214.958 5.34624C214.858 5.62624 214.988 5.72627 215.368 5.62627C215.678 5.55627 215.568 5.6563 215.098 5.9063C214.008 6.4563 213.088 7.60627 213.298 8.12627C213.568 8.81627 212.928 8.88622 212.278 8.19622C211.938 7.81622 211.868 7.57622 212.108 7.57622C212.308 7.57622 212.078 7.12631 211.528 6.53631C210.848 5.80631 210.438 5.60624 210.138 5.84624C209.868 6.12624 209.698 6.0562 209.528 5.6762C209.428 5.3662 209.188 5.22622 208.988 5.32622C208.818 5.42622 208.648 5.35621 208.648 5.18621C208.648 4.97621 208.478 4.8062 208.278 4.8062C208.108 4.8062 208.038 5.01625 208.178 5.22625C208.318 5.46625 208.148 5.39623 207.768 5.08623C207.328 4.66623 206.718 4.53628 205.968 4.63628C205.218 4.70628 204.808 4.60628 204.678 4.25628C204.538 3.87628 204.198 3.80625 203.348 3.97625C202.638 4.11625 201.988 4.04629 201.678 3.76629C201.408 3.55629 201.068 3.4562 200.858 3.5562C200.688 3.6962 200.448 3.45622 200.318 3.07622C200.048 2.20622 199.638 2.17625 199.128 2.97625C198.818 3.49625 198.788 3.45626 198.928 2.73626C199.028 2.25626 199.028 2.07621 198.928 2.31621C198.828 2.52621 198.558 2.6263 198.388 2.5263C198.148 2.3863 198.118 2.45619 198.248 2.66619C198.418 2.94619 198.218 3.08623 197.668 3.08623C197.188 3.08623 196.648 3.32625 196.408 3.60625C196.168 3.88625 195.828 4.02619 195.658 3.91619C195.458 3.77619 195.588 4.08625 195.898 4.60625C196.438 5.40625 196.438 5.50624 195.928 5.71624C195.618 5.81624 195.448 6.06622 195.558 6.19622C195.658 6.36622 195.388 6.40629 194.978 6.26629C194.498 6.16629 194.328 6.19625 194.498 6.47625C194.668 6.75625 194.498 6.89629 194.088 6.89629C193.718 6.89629 193.338 7.13619 193.208 7.41619C193.068 7.83619 193.208 7.89625 193.918 7.72625C194.738 7.51625 194.768 7.55631 194.328 8.03631C193.918 8.48631 193.748 8.51625 193.108 8.10625C192.498 7.68625 192.328 7.68625 191.988 8.10625C191.648 8.52625 191.678 8.62627 192.128 8.62627C192.438 8.62627 192.668 8.76625 192.668 8.97625C192.668 9.52625 192.188 9.39627 191.378 8.62627C190.498 7.75627 190.258 7.7563 190.498 8.5263C190.598 8.8763 190.398 8.66625 190.088 8.10625C189.748 7.51625 189.508 6.92631 189.548 6.78631C189.588 6.64631 189.308 6.68628 188.938 6.88628C188.568 7.08628 188.258 7.43629 188.258 7.64629C188.258 7.85629 188.158 7.95621 188.058 7.81621C187.958 7.71621 187.988 7.3963 188.128 7.1563C188.668 6.2863 188.568 5.77622 187.888 5.94622C187.518 6.04622 187.238 5.94626 187.278 5.73626C187.308 5.49626 187.308 5.0762 187.278 4.8062C187.248 4.3562 187.208 4.3562 186.908 4.8062C186.598 5.2562 186.498 5.25623 186.198 4.70623C186.028 4.39623 185.688 4.11626 185.518 4.11626C185.318 4.11626 185.278 4.25624 185.378 4.46624C185.688 4.94624 185.208 4.88622 184.088 4.32622C183.578 4.04622 183.168 3.94626 183.168 4.11626C183.168 4.25626 182.968 4.46621 182.688 4.56621C182.348 4.70621 182.208 4.56623 182.318 4.08623C182.428 3.60623 182.248 3.4262 181.738 3.4262C181.158 3.4262 181.128 3.3263 181.468 2.9063C181.808 2.4863 181.738 2.4262 181.158 2.5562C180.748 2.6262 180.448 2.52621 180.448 2.31621C180.448 2.10621 180.078 2.34623 179.628 2.83623C179.148 3.35623 178.678 3.5962 178.578 3.4262C178.478 3.2162 178.548 3.07622 178.718 3.07622C178.918 3.07622 179.088 2.93625 179.088 2.72625C179.088 2.55625 178.578 2.44626 177.968 2.48626C177.188 2.55626 176.918 2.72629 176.978 3.14629C177.048 3.69629 175.688 4.32629 174.738 4.14629C174.468 4.11629 174.328 4.31622 174.398 4.69622C174.468 5.21622 174.298 5.28624 173.408 5.21624C172.148 5.07624 171.608 5.6963 172.798 5.9063C173.308 6.0063 173.548 5.93626 173.408 5.73626C173.268 5.53626 173.378 5.49619 173.608 5.66619C173.918 5.83619 173.948 6.01631 173.678 6.28631C173.138 6.83631 173.198 7.66624 173.778 7.46624C174.048 7.36624 174.358 7.49627 174.458 7.74627C174.768 8.64627 174.048 8.64627 173.028 7.74627C171.978 6.84627 171.258 6.63625 171.258 7.22625C171.258 7.39625 171.058 7.57622 170.778 7.57622C170.498 7.57622 170.198 7.95622 170.098 8.44622C169.828 9.58622 169.418 9.55626 168.228 8.23626C167.348 7.30626 167.068 7.1963 165.848 7.4063C164.488 7.6163 163.978 7.2362 164.858 6.6762C165.098 6.5062 165.128 6.57628 164.958 6.88628C164.788 7.16628 164.818 7.26624 165.058 7.09624C165.258 6.95624 165.368 6.64626 165.258 6.36626C165.118 6.08626 164.918 5.91629 164.778 6.01629C164.608 6.11629 164.408 5.9863 164.338 5.7763C164.238 5.5363 164.138 5.70622 164.098 6.19622C163.928 8.27622 163.828 8.68631 163.488 9.03631C163.248 9.27631 163.178 8.96621 163.248 8.06621C163.318 7.30621 163.388 6.71624 163.418 6.71624C163.448 6.71624 163.518 6.43627 163.588 6.12627C163.658 5.70627 163.518 5.6063 163.148 5.7763C162.638 5.9463 162.638 5.91629 163.048 5.39629C163.458 4.87629 163.458 4.80629 162.948 5.01629C162.578 5.15629 162.408 5.04619 162.408 4.66619C162.408 4.31619 162.138 4.11629 161.628 4.14629C161.218 4.14629 161.048 4.24621 161.288 4.31621C161.998 4.62621 161.358 5.49627 160.408 5.49627C159.658 5.46627 159.588 5.42626 160.098 5.11626C160.438 4.94626 160.708 4.6663 160.708 4.5263C160.708 4.0763 158.868 4.24626 158.358 4.73626C158.118 4.97626 157.608 5.08625 157.268 4.97625C156.418 4.69625 155.198 5.11621 155.468 5.56621C155.638 5.84621 155.498 5.87626 155.128 5.73626C154.788 5.59626 154.618 5.63623 154.758 5.83623C154.858 6.00623 154.518 6.59626 154.008 7.11626C153.498 7.59626 153.298 7.91626 153.568 7.73626C153.838 7.59626 153.708 7.83631 153.228 8.28631C152.788 8.73631 152.308 9.08619 152.208 9.04619C152.108 9.00619 151.698 9.32626 151.258 9.73626C150.508 10.4263 150.508 10.4962 151.088 10.9462C151.448 11.2262 151.381 11.3429 150.888 11.2962C150.378 11.2262 149.968 11.4363 149.698 11.8863C149.498 12.2663 149.158 12.6862 148.988 12.8162C148.788 12.9862 148.788 13.0962 148.958 13.0962C149.158 13.0962 148.988 13.3363 148.618 13.6463C148.278 13.9263 148.208 14.0662 148.478 13.9262C148.888 13.7162 148.918 13.7562 148.578 14.1662C147.868 15.0662 148.208 16.1362 149.398 16.7962C150.418 17.3462 150.588 17.3463 150.858 16.8963C151.128 16.4463 151.198 16.4762 151.198 16.9662C151.198 17.5162 150.588 17.7663 149.738 17.6263C149.568 17.5963 149.498 17.7663 149.568 18.0063C149.668 18.2463 150.348 18.4563 151.128 18.4863C151.948 18.5163 152.488 18.4562 152.388 18.3462C152.288 18.2362 152.388 17.9662 152.628 17.6862C152.828 17.4462 152.898 17.0963 152.768 16.9963C152.628 16.8563 152.398 16.9663 152.228 17.2363C151.988 17.6563 151.888 17.6162 151.718 17.0662C151.578 16.6862 151.378 16.0263 151.208 15.6163C150.898 14.8863 151.068 14.4762 151.648 14.4762C151.818 14.4762 151.888 14.7163 151.748 14.9963C151.548 15.5863 152.058 15.7262 152.398 15.1662C152.538 14.9562 152.768 14.8863 152.938 15.0263C153.108 15.1263 153.178 15.3762 153.078 15.5462C152.938 15.7162 153.078 15.8563 153.348 15.8563C153.618 15.8563 153.928 15.5463 154.028 15.1263C154.128 14.7063 154.368 14.4662 154.508 14.5762C154.678 14.6762 155.118 14.2962 155.458 13.6762C155.798 13.0562 156.278 12.3962 156.478 12.2262C156.678 12.0162 157.328 11.4263 157.908 10.9063C158.898 9.9763 158.998 9.93625 160.598 10.3563C161.518 10.5663 162.398 10.9063 162.608 11.1163C162.848 11.3563 162.778 11.3562 162.468 11.1862C162.158 11.0162 162.058 11.0463 162.228 11.2863C162.368 11.5263 162.768 11.7062 163.148 11.7062C163.488 11.7062 163.798 11.8462 163.798 12.0562C163.798 12.2262 164.238 12.4063 164.818 12.4063C165.768 12.4063 166.038 12.7863 165.868 13.8963C165.838 14.0663 165.938 14.1363 166.068 14.0363C166.238 13.9663 166.608 14.1762 166.918 14.5562C167.428 15.0762 167.428 15.1762 167.018 15.1762C166.578 15.1762 166.578 15.2762 166.918 15.9362C167.768 17.3862 168.548 18.0162 169.058 17.5962C169.428 17.2862 169.468 17.3562 169.368 17.8362C169.228 18.3862 169.398 18.4963 170.318 18.4963C170.928 18.4963 171.648 18.2562 171.878 17.9462C172.148 17.6662 172.248 17.6362 172.118 17.8462C171.778 18.5362 172.118 18.3663 172.828 17.4963C173.168 17.0763 173.238 16.9463 172.968 17.1463C172.698 17.3863 172.358 17.4563 172.148 17.2863C171.938 17.1163 171.468 16.9063 171.098 16.7663C170.688 16.6663 170.788 16.6262 171.368 16.6962C171.878 16.7662 172.388 16.6663 172.488 16.4863C172.588 16.3463 172.798 16.2763 172.968 16.3863C173.308 16.5963 173.788 15.3163 173.508 14.8663C173.368 14.6963 173.648 14.1062 174.088 13.5462C175.108 12.2662 175.758 10.7063 175.478 10.2563C175.338 10.0163 175.408 9.97626 175.618 10.1163C175.858 10.2563 176.028 10.1463 176.028 9.87627C176.028 9.63627 176.398 9.18622 176.878 8.94622C177.358 8.66622 177.698 8.28622 177.588 8.07622C177.488 7.79622 177.728 7.72623 178.268 7.83623C178.808 7.93623 179.088 7.8363 179.088 7.5263C179.118 7.1463 179.188 7.1462 179.528 7.5562C180.178 8.3862 182.518 8.66621 182.758 7.93621C182.928 7.38621 183.408 7.45622 183.408 8.07622C183.408 8.35622 183.168 8.59627 182.868 8.62627C182.528 8.62627 182.628 8.79619 183.178 9.04619C184.168 9.49619 187.258 12.6163 187.258 13.1263C187.258 13.3363 187.698 13.6462 188.278 13.8162C189.268 14.1962 190.048 15.5463 189.368 15.7863C188.688 15.9963 189.338 16.8262 190.078 16.6862C190.488 16.6162 190.618 16.6163 190.388 16.7563C189.808 17.0363 189.878 17.6862 190.488 17.4462C190.758 17.3462 190.998 17.4162 190.998 17.5862C190.998 17.7562 191.508 17.8263 192.088 17.7563C193.348 17.5863 194.738 16.1963 194.738 15.1263C194.738 14.7763 194.908 14.4662 195.108 14.4662C195.278 14.4662 195.378 14.3263 195.278 14.1563C194.968 13.6363 195.448 12.7062 195.888 12.9762C196.088 13.1162 196.058 12.9463 195.788 12.6263C195.448 12.1763 195.448 12.0363 195.758 12.0363C196.068 12.0363 196.068 11.8962 195.728 11.4462C195.318 10.9262 195.318 10.8962 195.928 11.0662C196.298 11.1662 196.808 11.0363 197.048 10.7563C197.458 10.3363 197.318 10.1663 196.708 10.2763C196.568 10.2763 196.508 9.99626 196.538 9.61626C196.568 8.81626 197.118 8.68622 197.118 9.44622C197.118 10.0662 197.188 10.0662 198.278 9.58623C198.758 9.34623 199.058 9.03629 198.958 8.89629C198.858 8.72629 198.988 8.27625 199.268 7.85625C199.708 7.23625 199.808 7.19621 200.088 7.68621C200.328 8.13621 200.428 8.13629 200.798 7.51629C201.138 6.96629 201.138 6.85631 200.828 7.03631C200.558 7.24631 200.488 7.17629 200.688 6.89629C200.858 6.58629 201.028 6.54622 201.298 6.82622C201.498 7.03622 201.838 7.20623 202.008 7.20623C202.208 7.20623 202.178 7.03631 201.938 6.78631C201.288 6.12631 201.428 5.9862 202.618 6.0562C203.228 6.0862 204.008 6.12627 204.318 6.12627C205.138 6.15627 205.098 6.71623 204.248 6.95623C203.878 7.05623 203.568 6.98631 203.568 6.78631C203.568 6.61631 203.398 6.57624 203.198 6.71624C202.928 6.85624 203.098 7.1363 203.608 7.4063C204.318 7.7863 204.318 7.85628 203.778 7.88628C203.198 7.88628 203.198 7.95622 203.918 8.57622C204.798 9.33622 205.138 9.4462 205.378 8.9262C205.478 8.7162 205.518 8.75627 205.478 8.99627C205.378 9.51627 206.088 10.3162 206.638 10.3162C207.048 10.3162 209.018 12.3962 209.018 12.8062C209.018 12.9762 209.218 13.0862 209.428 13.0862C209.668 13.0862 209.908 13.5063 209.938 13.9863C209.938 14.4663 210.178 15.0562 210.378 15.3062C210.718 15.5862 210.748 15.5863 210.578 15.2763C210.478 15.0663 210.478 14.7962 210.648 14.6862C210.818 14.5862 210.958 14.6862 210.988 14.9262C211.088 16.2462 211.738 17.5963 211.738 16.5163C211.738 15.7163 212.858 15.1662 213.538 15.6862C213.848 15.8962 214.018 16.2062 213.878 16.3062C213.778 16.4462 213.808 16.5462 214.018 16.5462C214.228 16.5462 214.328 16.8262 214.218 17.2062C214.118 17.5562 214.218 17.9662 214.418 18.0762C214.658 18.2162 214.688 18.1062 214.588 17.7962C214.448 17.4462 214.558 17.2463 214.898 17.2463C215.208 17.2463 215.548 17.0762 215.678 16.8262C215.818 16.6162 215.778 16.5463 215.578 16.6563C215.378 16.7963 215.098 16.6562 214.998 16.3462C214.858 15.9262 214.928 15.8262 215.308 15.9662C215.578 16.1062 215.888 16.0363 215.988 15.8663C216.128 15.6563 216.018 15.5163 215.818 15.5163C215.618 15.5163 215.548 15.3462 215.648 15.1662C215.788 14.9562 215.988 14.8863 216.158 14.9963C216.298 15.0963 216.398 14.7863 216.358 14.3763C216.328 13.7163 216.158 13.6162 215.508 13.7162C214.998 13.8162 214.758 13.7463 214.928 13.5063C215.028 13.2963 214.928 13.0562 214.728 12.9562C214.488 12.8162 214.628 12.8163 215.038 12.8863C215.478 12.9563 215.818 12.9162 215.818 12.8162C215.818 12.6762 216.258 12.2963 216.838 11.9863C217.418 11.6363 217.928 10.9862 218.058 10.4262C218.198 9.9062 218.668 9.07627 219.108 8.62627C220.028 7.69627 220.098 7.34625 219.418 7.10625C219.108 6.96625 218.878 7.1363 218.808 7.5263C218.708 8.1163 218.668 8.1162 218.128 7.5562C217.618 7.0762 217.588 6.96621 218.028 6.93621C218.298 6.90621 218.778 6.83619 219.048 6.79619C219.798 6.72619 219.658 6.34629 218.778 5.89629C218.098 5.54629 218.068 5.51629 218.708 5.51629C219.288 5.48629 219.288 5.41628 218.878 5.13628C217.928 4.51628 218.948 4.7862 220.438 5.5562C221.258 5.9762 221.938 6.48629 221.938 6.76629C221.938 7.00629 222.138 7.21624 222.348 7.21624C225.748 7.35624 226.428 7.45627 226.668 7.87627C226.838 8.15627 227.208 8.25623 227.688 8.08623C228.198 7.91623 228.398 8.01621 228.398 8.43621C228.398 8.78621 228.568 8.88627 228.808 8.74627C229.008 8.60627 229.078 8.64628 228.978 8.88628C228.668 9.33628 229.048 10.4062 229.418 10.1662C229.558 10.0662 229.758 10.2363 229.898 10.5163C229.998 10.7963 230.308 11.0363 230.608 11.0363C230.878 11.0363 231.118 11.2062 231.118 11.4162C231.118 11.5862 231.258 11.6562 231.458 11.5562C231.768 11.3462 231.938 11.8363 231.828 12.5263C231.798 12.6663 232.068 12.8763 232.368 13.0063C232.708 13.1463 233.078 13.3862 233.218 13.5962C233.358 13.8062 233.628 13.7663 233.928 13.4963C234.338 13.1863 234.508 13.1863 234.708 13.4963C234.848 13.7363 234.808 13.8062 234.568 13.6662C234.368 13.5662 233.958 13.8062 233.688 14.2162C232.938 15.2862 233.658 16.0462 234.878 15.5662L235.698 15.2162H234.748C234.208 15.1862 233.868 15.0462 233.998 14.8362C234.338 14.2462 234.848 14.4563 235.898 15.4963C236.438 16.0463 236.948 16.3963 237.058 16.2563C237.258 15.8363 236.958 14.4263 236.548 14.0063C236.108 13.5563 236.108 13.0062 236.578 13.1762C236.778 13.2462 236.918 13.4162 236.888 13.5962C236.818 13.9062 237.538 14.4963 238.048 14.4963C238.188 14.4963 238.248 14.1862 238.148 13.8062C238.048 13.4262 238.118 13.1863 238.248 13.2863C238.688 13.5663 239.368 11.1063 239.168 9.99627C239.028 9.33627 239.098 8.95625 239.438 8.85625C239.678 8.75625 240.088 8.2362 240.358 7.6762C240.628 7.0862 241.068 6.70623 241.478 6.70623C241.848 6.70623 242.188 6.42623 242.258 6.08623C242.328 5.77623 242.528 5.60623 242.738 5.70623C242.938 5.84623 243.008 5.67625 242.878 5.22625C242.738 4.80625 242.808 4.42628 243.048 4.25628C243.318 4.08628 243.388 4.18631 243.288 4.53631C243.148 4.81631 243.218 5.26631 243.388 5.53631C243.558 5.81631 243.698 5.8462 243.728 5.6762C243.728 5.4662 243.798 5.05623 243.868 4.70623C243.938 4.39623 243.868 4.11623 243.768 4.08623C243.628 4.08623 243.118 4.01626 242.608 3.98626C242.098 3.95626 241.348 3.56626 240.908 3.11626L240.158 2.28631L241.078 2.45623C241.558 2.55623 241.898 2.48625 241.788 2.35625C241.548 1.93625 241.788 1.97627 242.808 2.49627C243.288 2.77627 243.588 3.0463 243.518 3.1563C243.418 3.2563 243.548 3.5363 243.858 3.7763C244.128 4.0163 244.368 4.39629 244.368 4.64629C244.368 4.89629 244.608 5.1962 244.908 5.3062C245.418 5.5162 245.418 5.44623 245.008 4.95623C244.568 4.40623 244.598 4.40628 245.548 4.88628C246.088 5.16628 246.908 5.3362 247.318 5.3062C247.758 5.3062 248.098 5.37619 248.098 5.54619C248.098 5.71619 248.338 5.75629 248.608 5.64629C248.878 5.50629 249.118 5.57631 249.118 5.78631C249.118 6.26631 251.188 7.06624 252.078 6.96624C252.518 6.89624 252.858 6.99623 252.858 7.20623C252.858 7.41623 253.168 7.58623 253.508 7.58623C253.988 7.58623 254.118 7.7563 253.988 8.2763C253.888 8.6563 253.648 8.96624 253.478 8.96624C252.998 8.96624 254.328 10.6662 254.838 10.6962C255.148 10.6962 255.178 10.8663 254.938 11.2863C254.428 12.2163 255.448 12.8062 256.568 12.2162C257.048 11.9362 257.688 11.7363 257.958 11.7663C258.298 11.7663 258.328 11.8362 258.028 11.9762C257.828 12.0462 257.718 12.3263 257.828 12.4963C257.968 12.7363 257.898 12.7763 257.688 12.6363C257.448 12.4963 257.278 12.5363 257.278 12.7363C257.278 12.9363 257.078 13.0462 256.838 12.9762C256.638 12.9462 256.528 12.9463 256.668 13.0063C256.838 13.1063 256.838 13.5563 256.738 14.0063C256.598 14.5963 256.668 14.8362 257.048 14.8362C257.318 14.8362 257.658 14.5963 257.758 14.2863C257.858 14.0063 258.128 13.8663 258.338 14.0063C258.608 14.1763 258.608 14.3163 258.308 14.4863C258.068 14.6263 258.038 14.8362 258.208 14.9362C258.718 15.2462 259.838 13.6162 259.808 12.5462C259.808 11.8162 259.638 11.5462 259.228 11.5762C258.918 11.6062 258.748 11.5062 258.858 11.3362C258.958 11.1662 259.368 11.0263 259.778 10.9863C260.188 10.9863 260.318 10.8863 260.088 10.7763C259.408 10.4963 259.608 9.9063 260.328 10.1563C260.908 10.3263 260.938 10.2262 260.698 8.94622C260.458 7.59622 260.768 7.04622 261.178 8.07622C261.278 8.35622 261.548 8.5962 261.788 8.5562C262.128 8.5562 262.128 8.48628 261.818 8.38628C261.578 8.28628 261.848 7.79628 262.568 7.13628C263.218 6.58628 263.758 5.88629 263.758 5.64629C263.758 5.40629 263.958 5.1263 264.168 5.0263C264.408 4.9563 264.098 4.81624 263.488 4.71624C262.538 4.57624 262.368 4.68627 262.198 5.37627C262.058 5.82627 261.828 6.1762 261.658 6.1762C261.458 6.1762 261.388 5.96625 261.488 5.72625C261.588 5.44625 261.348 5.24623 260.838 5.20623C260.398 5.17623 260.018 5.30626 260.018 5.48626C260.018 5.69626 260.258 5.83623 260.558 5.83623C260.828 5.83623 260.968 6.00621 260.868 6.18621C260.728 6.39621 260.498 6.42622 260.288 6.32622C260.088 6.18622 260.018 6.25624 260.148 6.46624C260.248 6.67624 260.218 6.9162 260.008 7.0562C259.808 7.1562 259.638 6.91624 259.638 6.46624C259.608 5.84624 259.568 5.80622 259.438 6.32622C259.338 6.67622 259.438 7.12622 259.638 7.32622C259.838 7.53622 260.008 7.94625 260.008 8.22625C260.008 8.50625 259.908 8.60628 259.808 8.50628C259.668 8.40628 259.298 8.43629 258.958 8.64629C258.448 8.88629 258.378 8.85621 258.518 8.43621C258.658 8.15621 258.858 7.91619 259.028 7.91619C259.168 7.91619 259.228 7.67629 259.128 7.39629C258.958 7.01629 258.788 6.94625 258.478 7.22625C258.238 7.43625 257.628 7.50626 257.148 7.36626C256.638 7.26626 256.058 7.33622 255.788 7.57622C255.378 7.88622 255.208 7.81629 254.908 7.26629C254.708 6.84629 254.398 6.53631 254.198 6.53631C253.998 6.53631 253.958 6.70623 254.098 6.95623C254.238 7.20623 254.198 7.23624 253.958 7.09624C253.648 6.92624 253.648 6.64627 253.928 6.12627C254.198 5.60627 254.198 5.3663 253.898 5.1563C253.588 4.9863 253.588 4.8462 253.868 4.6762C254.448 4.2962 254.888 4.74628 254.688 5.50628C254.548 6.02628 254.688 6.19622 255.198 6.19622C256.078 6.19622 256.458 5.64626 255.738 5.36626C255.468 5.26626 255.328 5.01621 255.428 4.81621C255.528 4.64621 255.398 4.46624 255.118 4.46624C254.838 4.46624 254.438 4.1563 254.238 3.7763C254.038 3.3963 253.728 3.15628 253.558 3.25628C253.388 3.35628 253.188 3.28623 253.048 3.08623C252.948 2.91623 252.538 2.73626 252.168 2.73626C251.828 2.73626 251.518 2.56625 251.518 2.35625C251.518 2.18625 251.348 2.11624 251.178 2.21624C250.978 2.31624 250.838 2.24622 250.838 2.07622C250.838 1.86622 250.528 1.69622 250.188 1.69622C249.818 1.69622 249.268 1.45629 248.968 1.14629C248.698 0.836291 247.918 0.596203 247.268 0.556203C246.558 0.526203 246.218 0.386199 246.348 0.176199L246.278 0.136282ZM249.608 2.03631C249.978 2.03631 250.088 2.13627 249.808 2.24627C249.568 2.34627 249.268 2.31624 249.158 2.21624C249.018 2.11624 249.228 2.00619 249.598 2.04619L249.608 2.03631ZM247.908 2.20623C248.448 1.99623 248.518 2.27624 248.078 2.96624C247.838 3.34624 247.768 3.34621 247.598 2.93621C247.498 2.62621 247.628 2.31623 247.908 2.20623ZM246.888 3.5562C246.718 4.0362 246.548 3.97621 245.668 3.31621C244.748 2.62621 244.678 2.5163 245.228 2.2763C246.588 1.7563 247.368 2.3462 246.898 3.5562H246.888ZM220.978 2.00628C221.078 2.00628 221.248 2.14625 221.348 2.35625C221.448 2.52625 221.378 2.70623 221.208 2.70623C221.008 2.70623 220.838 2.53625 220.838 2.35625C220.838 2.14625 220.908 2.00628 220.978 2.00628ZM249.608 3.14629C250.088 2.62629 250.118 2.66627 250.018 3.24627C249.948 3.72627 250.188 3.93626 250.938 4.11626C251.618 4.25626 251.788 4.39631 251.448 4.53631C250.698 4.81631 249.748 4.70626 249.948 4.36626C250.048 4.22626 249.878 4.08623 249.608 4.08623C249.298 4.08623 249.068 3.98627 249.068 3.87627C249.068 3.76627 249.308 3.42629 249.608 3.14629ZM252.228 3.41619C252.568 3.62619 253.078 3.69623 253.348 3.58623C253.618 3.48623 253.828 3.61629 253.828 3.89629C253.828 4.17629 253.518 4.41619 253.118 4.41619C252.748 4.41619 252.538 4.55629 252.638 4.76629C252.738 4.93629 252.668 5.11626 252.468 5.11626C252.228 5.11626 252.158 4.8362 252.298 4.4262C252.468 3.9462 252.368 3.73626 251.988 3.73626C251.678 3.73626 251.448 3.56628 251.448 3.38628C251.448 3.10628 251.708 3.11619 252.228 3.41619ZM250.558 3.03631C250.658 3.03631 250.828 3.17628 250.928 3.38628C251.028 3.55628 250.958 3.73626 250.788 3.73626C250.588 3.73626 250.418 3.56628 250.418 3.38628C250.418 3.17628 250.488 3.03631 250.558 3.03631ZM177.658 3.73626C177.928 3.31626 177.998 3.35625 177.998 3.97625C177.998 4.42625 177.828 4.7763 177.658 4.7763C177.458 4.7763 177.318 4.67627 177.318 4.49627C177.318 4.35627 177.488 4.01626 177.658 3.73626ZM262.668 5.11626C262.838 5.11626 263.008 5.25624 263.008 5.46624C263.008 5.63624 262.838 5.81621 262.668 5.81621C262.468 5.81621 262.328 5.64624 262.328 5.46624C262.328 5.25624 262.468 5.11626 262.668 5.11626ZM224.548 5.60625C224.858 5.95625 224.818 6.12629 224.478 6.26629C224.208 6.36629 224.038 6.16631 223.998 5.78631C223.928 4.98631 224.028 4.95626 224.538 5.61626L224.548 5.60625ZM181.058 5.63628C181.428 6.08628 181.398 6.11622 180.918 5.94622C180.608 5.84622 180.378 5.5962 180.378 5.4262C180.378 4.9762 180.578 5.04628 181.058 5.63628ZM176.808 5.21624C177.078 5.21624 177.218 5.3563 177.118 5.5263C176.948 5.7663 176.298 5.59621 176.298 5.31621C176.298 5.28621 176.538 5.21624 176.808 5.21624ZM231.218 5.46624C231.488 5.46624 231.728 5.60621 231.728 5.81621C231.728 5.98621 231.488 6.05623 231.218 5.95623C230.948 5.81623 230.708 5.67625 230.708 5.60625C230.708 5.53625 230.948 5.46624 231.218 5.46624ZM197.208 5.66619C197.478 5.56619 197.718 5.6362 197.718 5.8062C197.718 6.0162 197.478 6.1563 197.208 6.1563C196.938 6.1563 196.698 6.08629 196.698 6.01629C196.698 5.94629 196.938 5.80619 197.208 5.66619ZM199.118 5.8062C199.598 5.8062 199.488 6.04631 198.878 6.28631C198.608 6.38631 198.468 6.35629 198.568 6.14629C198.668 5.93629 198.908 5.79619 199.108 5.79619L199.118 5.8062ZM161.468 5.91619C161.568 5.77619 161.668 5.98626 161.638 6.36626C161.638 6.74626 161.538 6.84622 161.438 6.57622C161.338 6.33622 161.368 6.02619 161.468 5.91619ZM180.378 6.70623C180.548 6.22623 180.688 6.15624 180.858 6.46624C180.998 6.67624 181.398 6.7762 181.778 6.6762C182.458 6.4362 182.728 7.29624 182.088 7.71624C181.888 7.85624 181.848 7.68619 181.988 7.29619C182.188 6.74619 182.158 6.74627 181.648 7.12627C181.338 7.40627 180.898 7.54625 180.628 7.47625C180.318 7.40625 180.218 7.12624 180.388 6.71624L180.378 6.70623ZM174.898 6.1563C175.068 6.1563 175.268 6.36625 175.378 6.60625C175.478 6.88625 175.348 7.08623 175.068 7.08623C174.788 7.08623 174.588 6.87625 174.588 6.60625C174.588 6.36625 174.728 6.1563 174.898 6.1563ZM160.618 6.46624C160.988 6.70624 160.988 6.77622 160.618 6.94622C160.278 7.08622 160.308 7.1563 160.718 7.1563C161.368 7.1863 161.598 8.22625 160.988 8.22625C160.788 8.22625 160.648 8.05627 160.648 7.87627C160.648 7.66627 160.408 7.5263 160.138 7.5263C159.868 7.5263 159.628 7.42627 159.628 7.24627C159.658 6.62627 160.168 6.20622 160.618 6.44622V6.46624ZM262.158 6.81621C262.258 6.98621 262.228 7.23623 262.058 7.33623C261.888 7.43623 261.748 7.3063 261.748 7.0263C261.748 6.4363 261.848 6.36621 262.158 6.81621ZM236.658 6.56621C237.198 6.56621 237.408 6.63626 237.068 6.73626C236.758 6.80626 236.288 6.80626 236.048 6.73626C235.848 6.63626 236.078 6.56621 236.658 6.56621ZM231.788 6.84624C231.988 6.84624 231.988 7.05626 231.718 7.36626C231.238 7.95626 230.838 7.81625 231.208 7.22625C231.308 7.01625 231.578 6.84624 231.788 6.84624ZM186.768 6.88628C187.278 6.91628 187.278 6.95624 186.738 7.09624C186.428 7.16624 186.228 7.40622 186.328 7.57622C186.598 7.95622 186.128 7.99622 185.548 7.57622C185.178 7.33622 185.208 7.2262 185.648 7.0562C185.958 6.9562 186.468 6.88628 186.768 6.88628ZM257.498 8.16619C257.808 7.85619 257.908 7.92623 257.908 8.58623C257.908 9.24623 257.808 9.31628 257.498 9.00628C257.188 8.69628 257.188 8.4862 257.498 8.1762V8.16619ZM162.318 7.88628C162.488 7.88628 162.758 8.02626 162.858 8.23626C162.958 8.40626 162.928 8.58623 162.718 8.58623C162.548 8.58623 162.278 8.41626 162.178 8.23626C162.078 8.02626 162.108 7.88628 162.318 7.88628ZM159.978 7.88628C160.148 7.88628 160.318 8.05629 160.318 8.26629C160.318 8.43629 160.148 8.5063 159.978 8.4063C159.778 8.3063 159.638 8.1263 159.638 8.0263C159.638 7.9563 159.778 7.88628 159.978 7.88628ZM208.428 9.13628C208.698 9.03628 208.938 9.1063 208.938 9.2763C208.938 9.4863 208.698 9.62627 208.428 9.62627C208.158 9.62627 207.918 9.55626 207.918 9.48626C207.918 9.41626 208.158 9.27628 208.428 9.13628ZM257.188 9.58623C257.498 9.79623 257.428 9.93621 256.918 10.0662C256.508 10.1662 256.208 10.0962 256.208 9.96624C256.208 9.48624 256.718 9.30623 257.198 9.58623H257.188ZM168.818 9.26629C168.988 9.26629 169.158 9.43629 169.158 9.64629C169.158 9.81629 168.988 9.88631 168.818 9.78631C168.618 9.68631 168.478 9.5063 168.478 9.4063C168.478 9.3363 168.618 9.26629 168.818 9.26629ZM211.868 12.0363C211.938 12.0363 212.008 12.1763 212.008 12.3863C212.008 12.5563 211.838 12.7363 211.638 12.7363C211.468 12.7363 211.398 12.5663 211.498 12.3863C211.598 12.1763 211.768 12.0363 211.868 12.0363ZM258.758 12.8362C259.028 12.8362 259.168 12.9763 259.068 13.1463C258.898 13.3863 258.248 13.2162 258.248 12.9362C258.248 12.9062 258.488 12.8362 258.758 12.8362ZM213.358 12.7262C213.528 12.7262 213.698 12.8662 213.698 13.0762C213.698 13.2462 213.528 13.4262 213.358 13.4262C213.158 13.4262 213.018 13.2562 213.018 13.0762C213.018 12.8662 213.158 12.7262 213.358 12.7262ZM235.498 13.0762C235.668 13.0762 235.738 13.2162 235.638 13.4262C235.538 13.5962 235.368 13.7763 235.268 13.7763C235.198 13.7763 235.128 13.6062 235.128 13.4262C235.128 13.2162 235.298 13.0762 235.498 13.0762ZM189.758 13.1163C190.128 13.1163 190.238 13.2162 189.958 13.3262C189.718 13.4262 189.418 13.3962 189.308 13.2962C189.168 13.1962 189.378 13.0863 189.748 13.1263L189.758 13.1163ZM170.308 13.7663C170.408 13.7663 170.578 13.9063 170.678 14.1163C170.778 14.2863 170.708 14.4662 170.538 14.4662C170.338 14.4662 170.168 14.2963 170.168 14.1163C170.168 13.9063 170.238 13.7663 170.308 13.7663ZM236.418 14.6662C236.658 14.9462 236.688 15.1463 236.518 15.1463C236.348 15.1463 236.078 14.9763 235.978 14.7663C235.608 14.2163 235.948 14.1062 236.418 14.6662ZM189.928 14.1163C190.098 14.1163 190.168 14.2562 190.068 14.4662C189.968 14.6362 189.798 14.8162 189.698 14.8162C189.628 14.8162 189.558 14.6462 189.558 14.4662C189.558 14.2562 189.728 14.1163 189.928 14.1163ZM192.958 14.4662C193.128 14.4662 193.198 14.7063 193.098 14.9863C192.958 15.2663 192.828 15.5063 192.758 15.5063C192.688 15.5063 192.618 15.2663 192.618 14.9863C192.618 14.7063 192.758 14.4662 192.958 14.4662ZM190.608 14.8062C190.778 14.8062 190.848 14.9463 190.748 15.1563C190.648 15.3263 190.478 15.5063 190.378 15.5063C190.308 15.5063 190.238 15.3363 190.238 15.1563C190.238 14.9463 190.408 14.8062 190.608 14.8062ZM170.648 15.1563C170.718 15.1563 170.958 15.3962 171.188 15.6762C171.428 15.9862 171.458 16.1962 171.258 16.1962C171.088 16.1962 170.848 15.9562 170.718 15.6762C170.618 15.3962 170.578 15.1563 170.648 15.1563Z" fill="#F6ED36"/>
<path fill-rule="evenodd" clip-rule="evenodd" d="M265.628 2.79632C265.768 3.00632 265.458 3.03642 264.918 2.89642C263.898 2.65642 263.868 2.65634 264.548 3.93634C264.818 4.48634 265.058 4.73639 265.058 4.48639C265.058 4.27639 265.368 4.06634 265.768 4.06634C266.138 4.06634 266.378 4.2064 266.278 4.3764C266.138 4.5464 266.378 4.61642 266.758 4.51642C267.368 4.34642 267.608 4.68633 267.468 5.55633C267.438 5.69633 267.708 5.69639 268.008 5.48639C268.348 5.31639 269.058 5.10634 269.608 5.06634C270.428 4.96634 270.628 5.06643 270.658 5.65643C270.688 6.17643 270.518 6.38634 270.178 6.31634C269.868 6.24634 269.468 6.17633 269.298 6.17633C269.098 6.14633 269.198 5.96632 269.468 5.79632C269.738 5.62632 269.808 5.44635 269.638 5.44635C269.438 5.44635 269.058 5.61632 268.788 5.79632C268.348 6.07632 268.378 6.21632 269.028 6.66632C269.468 6.97632 269.708 7.42636 269.608 7.70636C269.468 7.98636 269.638 8.32634 269.948 8.43634C270.258 8.53634 270.428 8.74641 270.318 8.88641C270.248 9.02641 270.628 9.40641 271.198 9.75641C271.738 10.0664 272.188 10.5864 272.188 10.8664C272.188 11.2864 272.328 11.3864 273.038 11.3464C273.408 11.3164 274.158 12.2164 273.988 12.4564C273.918 12.6264 274.018 12.7364 274.228 12.7364C274.438 12.7364 274.538 12.8763 274.428 13.0463C274.118 13.4963 275.138 14.2263 275.648 13.9163C275.888 13.7763 275.988 13.8163 275.818 13.9463C275.678 14.1163 275.848 14.5663 276.158 14.9463C276.545 15.4063 276.545 15.4863 276.158 15.1863C275.678 14.8063 275.578 14.8063 275.578 15.1863C275.578 15.4663 275.818 15.9864 276.088 16.3264C276.358 16.6764 276.498 17.0864 276.428 17.2264C276.358 17.3664 276.768 17.4664 277.308 17.4664C278.258 17.4664 278.328 17.3664 278.158 16.4964C278.058 15.9464 278.128 15.4263 278.298 15.3163C278.468 15.2163 278.538 14.8964 278.398 14.6264C278.298 14.2764 278.428 14.1064 278.908 14.1064C279.278 14.1064 279.658 13.8664 279.758 13.6264C279.898 13.2764 279.788 13.1763 279.448 13.3163C279.208 13.4163 278.968 13.3164 278.968 13.1064C278.968 12.8964 278.658 12.7264 278.288 12.7264C277.918 12.7264 277.608 12.5863 277.608 12.4163C277.608 12.2063 278.018 12.2063 278.698 12.4163C279.408 12.6263 279.918 12.5864 280.158 12.3464C280.978 11.5164 278.428 11.2064 277.438 12.0364C276.788 12.5864 276.078 12.1364 276.588 11.5164C276.858 11.2064 276.788 10.9264 276.418 10.5164C276.108 10.2064 275.978 9.78636 276.108 9.58636C276.278 9.30636 276.078 9.23637 275.398 9.34637C274.378 9.55637 273.188 8.79642 273.188 7.89642C273.218 7.47642 273.288 7.5164 273.558 7.9964C273.758 8.3064 274.068 8.5164 274.238 8.3764C274.438 8.2764 274.408 7.95639 274.138 7.61639C273.768 7.13639 273.798 7.09633 274.378 7.30633C274.918 7.51633 274.918 7.40635 274.208 6.82635C273.728 6.40635 273.388 6.02636 273.428 5.95636C273.498 5.88636 273.428 5.85641 273.258 5.88641C273.118 5.95641 273.058 6.09639 273.088 6.23639C273.158 6.40639 272.988 6.51642 272.748 6.51642C272.478 6.51642 272.508 6.65639 272.848 6.86639C273.258 7.14639 273.218 7.21637 272.608 7.21637C272.028 7.21637 271.898 7.07637 272.028 6.59637C272.198 6.04637 272.168 6.0464 271.718 6.6264C271.238 7.2164 271.208 7.17638 271.278 6.10638C271.278 5.48638 271.548 4.78632 271.818 4.54632C272.258 4.19632 272.158 4.12637 271.278 4.09637C270.738 4.09637 270.118 4.23643 269.918 4.40643C269.748 4.54643 269.208 4.78633 268.658 4.92633C267.978 5.09633 267.738 5.02642 267.738 4.64642C267.738 4.29642 267.938 4.19632 268.248 4.29632C268.518 4.43632 268.998 4.32636 269.268 4.08636C269.538 3.84636 269.778 3.7764 269.778 3.8764C269.778 4.0164 269.948 4.0164 270.148 3.8764C270.658 3.5664 268.108 2.3564 267.428 2.6264C267.118 2.7264 267.018 2.65632 267.188 2.41632C267.328 2.20632 267.088 1.99634 266.648 1.93634C265.828 1.79634 265.258 2.28633 265.598 2.80633L265.628 2.79632ZM271.648 8.78644C272.228 9.20644 272.228 9.26642 271.788 9.26642C271.478 9.26642 271.108 9.09641 271.008 8.88641C270.638 8.29641 270.938 8.26644 271.658 8.78644H271.648ZM272.598 9.61639C272.908 9.61639 273.278 9.75637 273.378 9.96637C273.648 10.4164 273.208 10.4164 272.528 9.96637C272.088 9.68637 272.088 9.61639 272.598 9.61639ZM277.158 13.0064C277.468 13.1764 277.428 13.3863 277.088 13.6963C276.678 14.0763 276.608 14.0063 276.608 13.4163C276.608 12.6563 276.608 12.6164 277.148 12.9964L277.158 13.0064ZM277.668 14.1164C277.838 14.1164 277.978 14.2564 277.978 14.4664C277.978 14.6364 277.738 14.8163 277.438 14.8163C277.168 14.8163 277.028 14.6464 277.128 14.4664C277.228 14.2564 277.468 14.1164 277.668 14.1164Z" fill="#F6ED36"/>
<path fill-rule="evenodd" clip-rule="evenodd" d="M287.048 2.48669C286.468 2.55669 285.758 2.62673 285.518 2.65673C285.278 2.68673 285.178 2.86668 285.318 3.10668C285.458 3.34668 285.418 3.3867 285.148 3.2467C284.298 2.6967 280.488 5.25662 279.168 7.29662C278.488 8.36662 278.688 9.37673 279.538 9.02673C279.948 8.88673 280.048 8.92665 279.878 9.19665C279.508 9.85665 280.048 9.67669 280.588 8.98669C280.858 8.67669 280.998 8.60664 280.858 8.81664C280.718 9.09664 280.828 9.19663 281.168 9.05663C281.438 8.95663 281.748 8.63669 281.848 8.36669C281.948 8.08669 282.288 7.88671 282.628 7.88671C282.968 7.88671 283.618 7.57668 284.058 7.22668L284.908 6.56664L283.988 6.73669C283.478 6.83669 283.168 7.08671 283.278 7.25671C283.378 7.42671 283.178 7.39669 282.768 7.11669C282.118 6.69669 282.088 6.63674 282.568 6.28674C282.978 5.97674 283.008 5.83665 282.668 5.69665C282.428 5.62665 282.668 5.55667 283.248 5.59667C283.788 5.62667 284.408 5.7367 284.608 5.8767C284.878 6.0467 286.278 6.01663 287.498 5.80663C287.598 5.80663 287.428 5.63666 287.158 5.45666C286.718 5.17666 286.718 5.10668 287.228 5.10668C287.638 5.10668 287.768 4.8967 287.668 4.3767C287.568 3.9567 287.638 3.75668 287.768 3.85668C288.008 4.13668 288.038 4.30669 288.138 5.23669C288.138 5.51669 288.578 5.82667 289.088 5.96667C289.628 6.06667 290.308 6.44668 290.618 6.72668C290.988 7.07668 291.228 7.14672 291.228 6.89672C291.228 6.64672 291.058 6.47668 290.818 6.47668C290.618 6.47668 290.508 6.37672 290.648 6.26672C291.018 5.88672 292.318 6.5067 292.108 6.9967C292.038 7.2367 292.308 7.82664 292.758 8.31664C293.238 8.76664 293.978 9.97672 294.458 11.0167C294.898 12.0567 295.308 12.7167 295.308 12.4667C295.308 12.2167 295.548 12.1167 295.848 12.2567C296.358 12.4267 296.358 12.4967 295.848 12.7767C295.028 13.2267 295.168 13.6767 296.358 14.2667C297.348 14.8167 297.448 15.3066 296.558 15.3066C296.318 15.3066 296.118 15.6566 296.048 16.0666C295.948 16.7266 296.078 16.7967 296.798 16.6567C297.278 16.5867 297.678 16.6266 297.678 16.7966C297.678 16.9366 297.988 17.0767 298.358 17.0767C298.728 17.0767 299.038 16.9366 299.038 16.7966C299.038 16.6566 299.308 16.5167 299.618 16.5167C300.098 16.5167 300.028 16.3466 299.308 15.6866C298.358 14.8866 298.318 14.3366 299.238 14.6866C299.918 14.9266 299.818 14.5867 298.998 13.7867C298.588 13.4067 298.458 13.0566 298.658 12.9166C298.828 12.7766 298.898 12.4367 298.798 12.0867C298.628 11.6367 298.658 11.5667 299.068 11.8467C299.338 12.0167 299.308 11.9467 298.968 11.6067C298.628 11.2967 298.488 10.9866 298.698 10.9166C299.378 10.7066 297.988 9.21665 297.198 9.32665C296.758 9.35665 296.178 9.15667 295.868 8.84667C295.088 8.04667 295.158 7.77662 296.008 8.04662C297.538 8.52662 297.398 6.97671 295.868 6.38671C295.558 6.28671 295.288 5.9367 295.288 5.6267C295.288 5.1067 294.918 4.96665 293.958 5.07665C293.718 5.14665 293.618 5.00662 293.758 4.79662C293.858 4.55662 293.758 4.5167 293.448 4.6267C293.108 4.7667 292.838 4.5967 292.698 4.2467C292.558 3.9367 292.258 3.76669 292.018 3.86669C291.708 3.96669 291.538 3.83669 291.538 3.48669C291.538 3.03669 291.438 3.00664 291.128 3.31664C290.858 3.59664 290.588 3.59671 290.348 3.38671C290.108 3.17671 289.528 3.00667 289.018 2.96667C288.538 2.93667 288.138 2.75669 288.138 2.61669C288.138 2.47669 287.628 2.40668 287.018 2.47668L287.048 2.48669ZM286.168 4.77673C286.338 4.77673 286.408 4.9167 286.308 5.1267C286.208 5.2967 286.038 5.47668 285.938 5.47668C285.868 5.47668 285.798 5.3067 285.798 5.1267C285.798 4.9167 285.968 4.77673 286.168 4.77673ZM294.428 5.11669C294.498 5.11669 294.628 5.35671 294.768 5.63671C294.868 5.91671 294.798 6.15673 294.628 6.15673C294.428 6.15673 294.288 5.91671 294.288 5.63671C294.288 5.35671 294.358 5.11669 294.428 5.11669ZM293.068 5.77673C293.208 5.94673 292.968 6.01662 292.588 5.91662C292.218 5.81662 291.908 5.67668 291.908 5.60668C291.908 5.32668 292.898 5.46673 293.068 5.77673ZM294.288 6.50671C294.458 6.50671 294.628 6.64668 294.628 6.85668C294.628 7.02668 294.458 7.20666 294.288 7.20666C294.088 7.20666 293.948 7.03668 293.948 6.85668C293.948 6.64668 294.088 6.50671 294.288 6.50671ZM296.468 11.0067C297.008 11.1767 297.048 11.2866 296.608 11.4266C296.338 11.5666 295.898 11.5267 295.688 11.3567C295.078 10.9767 295.688 10.6967 296.468 11.0067ZM297.858 13.7667C297.928 13.7667 298.098 13.9067 298.198 14.1167C298.298 14.2867 298.168 14.4667 297.858 14.4667C297.548 14.4667 297.418 14.2967 297.518 14.1167C297.618 13.9067 297.788 13.7667 297.858 13.7667Z" fill="#F6ED36"/>
<path fill-rule="evenodd" clip-rule="evenodd" d="M201.118 2.69568C201.118 2.86568 200.948 3.04565 200.778 3.04565C200.578 3.04565 200.438 2.87568 200.438 2.69568C200.438 2.48568 200.578 2.3457 200.778 2.3457C200.948 2.3457 201.118 2.48568 201.118 2.69568Z" fill="#F6ED36"/>
<path fill-rule="evenodd" clip-rule="evenodd" d="M262.668 3.10596C262.668 3.24596 262.398 3.38589 262.058 3.41589C261.748 3.41589 261.648 3.51594 261.888 3.58594C262.468 3.82594 262.028 4.76599 261.348 4.76599C261.038 4.76599 260.938 4.66596 261.148 4.48596C261.318 4.34596 261.488 4.0359 261.518 3.7959C261.588 2.9259 261.658 2.7959 262.168 2.7959C262.438 2.7959 262.678 2.93596 262.678 3.10596H262.668Z" fill="#F6ED36"/>
<path fill-rule="evenodd" clip-rule="evenodd" d="M263.958 3.90613C264.328 4.35613 264.298 4.42603 263.758 4.42603C263.418 4.42603 263.108 4.18613 263.108 3.90613C263.108 3.24613 263.378 3.24613 263.958 3.90613Z" fill="#F6ED36"/>
<path fill-rule="evenodd" clip-rule="evenodd" d="M264.808 5.49635C264.568 5.73635 264.298 5.84634 264.198 5.73634C264.098 5.62634 264.268 5.4263 264.608 5.3163C265.088 5.1063 265.118 5.14634 264.808 5.48634V5.49635Z" fill="#F6ED36"/>
<path fill-rule="evenodd" clip-rule="evenodd" d="M257.058 6.50623C257.158 6.67623 257.028 6.8562 256.748 6.8562C256.438 6.8562 256.208 6.68623 256.208 6.50623C256.208 6.29623 256.348 6.15625 256.518 6.15625C256.718 6.15625 256.958 6.29623 257.058 6.50623Z" fill="#F6ED36"/>
<path fill-rule="evenodd" clip-rule="evenodd" d="M220.738 6.67638C221.388 7.40638 221.278 7.6064 220.498 7.1964C220.128 6.9864 219.818 6.67646 219.818 6.50646C219.818 6.02646 220.258 6.08638 220.738 6.67638Z" fill="#F6ED36"/>
<path fill-rule="evenodd" clip-rule="evenodd" d="M280.278 10.4862C280.618 10.9062 280.618 11.0062 280.208 11.0062C279.968 11.0062 279.668 10.7662 279.528 10.4862C279.288 9.82621 279.698 9.82621 280.278 10.4862Z" fill="#F6ED36"/>
<path fill-rule="evenodd" clip-rule="evenodd" d="M278.788 10.4858C278.648 10.7658 278.548 11.0059 278.478 11.0059C278.408 11.0059 278.308 10.7658 278.168 10.4858C278.068 10.1758 278.168 9.96582 278.478 9.96582C278.788 9.96582 278.888 10.1758 278.788 10.4858Z" fill="#F6ED36"/>
<path fill-rule="evenodd" clip-rule="evenodd" d="M235.808 16.1959C236.118 16.4059 236.148 16.5458 235.908 16.5458C235.708 16.5458 235.398 16.3759 235.298 16.1959C235.028 15.7759 235.158 15.7759 235.808 16.1959Z" fill="#F6ED36"/>
<path fill-rule="evenodd" clip-rule="evenodd" d="M212.678 16.506C212.338 16.746 212.308 16.886 212.578 16.886C212.818 16.886 213.018 17.0259 213.018 17.1659C213.018 17.3359 212.818 17.476 212.538 17.476C211.928 17.476 212.058 16.436 212.708 16.266C213.078 16.166 213.078 16.236 212.678 16.506Z" fill="#F6ED36"/>
<path fill-rule="evenodd" clip-rule="evenodd" d="M98.0682 0.136282C98.1682 -0.0737185 98.0382 -0.0337722 97.7282 0.206228C97.2882 0.556228 96.9782 0.586296 96.4682 0.276296C95.9582 -0.00370383 95.7582 -0.00370383 95.7582 0.276296C95.7582 0.486296 95.4182 0.626233 94.9782 0.586233C93.5182 0.416233 91.3382 2.03621 91.5782 3.18621C91.7182 3.84621 91.6782 3.84625 91.2682 3.35625C90.8982 2.87625 90.6882 2.83624 90.2182 3.21624C89.9082 3.42624 89.7382 3.73623 89.8482 3.83623C89.9882 3.93623 89.6782 4.14631 89.1682 4.28631C88.6882 4.38631 88.3882 4.6362 88.4882 4.8062C88.7282 5.2562 89.9882 5.18626 89.9882 4.73626C89.9882 4.52626 90.1582 4.49619 90.3982 4.66619C90.6382 4.80619 91.1782 4.8762 91.5882 4.8062C92.1282 4.7762 92.3682 4.90628 92.3682 5.25628C92.3682 5.56628 92.1282 5.8062 91.8282 5.8062C91.3882 5.8062 91.3482 5.90631 91.6582 6.28631C91.9982 6.70631 91.9682 6.76623 91.4582 6.70623C91.0882 6.63623 90.8782 6.35629 90.9482 6.01629C91.0482 5.53629 90.9482 5.4663 90.3682 5.7763C89.4182 6.2963 88.6382 6.25628 88.6382 5.63628C88.6382 4.38628 87.6482 5.60629 87.4782 7.01629C87.4482 7.46629 86.8982 7.88628 86.3182 7.88628C86.0482 7.88628 85.2982 7.26628 84.5882 6.50628C83.4682 5.25628 83.2282 5.15626 82.0682 5.36626C81.2482 5.50626 80.8082 5.4363 80.8082 5.1563C80.8082 4.9463 80.6382 4.7763 80.4382 4.7763C80.2682 4.7763 80.1982 4.94622 80.3382 5.19622C80.4782 5.43622 80.4382 5.47623 80.1682 5.33623C79.6282 4.95623 80.0282 4.43621 80.9182 4.43621C81.3915 4.41621 81.4249 4.24286 81.0182 3.91619C80.6782 3.63619 80.2682 3.49621 80.0982 3.56621C79.9582 3.66621 79.7582 3.59629 79.6182 3.39629C79.4782 3.19629 79.2482 3.15628 79.0382 3.25628C78.7982 3.42628 78.7282 3.28622 78.8682 2.94622C79.0382 2.52622 78.8682 2.46621 78.1582 2.56621C76.9382 2.80621 76.8982 2.87621 77.5482 3.81621C78.3982 5.02621 78.1982 5.40629 77.2782 4.26629C76.8382 3.71629 76.5282 3.08622 76.6282 2.94622C76.7282 2.77622 76.4882 2.56624 76.0882 2.46624C75.7182 2.36624 75.4782 2.11622 75.5782 1.94622C75.7182 1.73622 75.4782 1.77625 75.0682 1.97625C74.3882 2.35625 74.2182 2.2562 74.3182 1.5562C74.3482 1.3862 74.1782 1.3863 73.9482 1.5263C73.7082 1.6963 72.9982 1.83627 72.3882 1.87627C71.2282 1.90627 70.5182 2.35625 71.1982 2.60625C72.1182 2.95625 71.5682 3.36625 70.4182 3.22625C69.5982 3.08625 69.0582 3.22622 68.6882 3.57622C68.2082 4.09622 68.2082 4.16626 68.7882 4.61626C69.3682 5.06626 69.3282 5.09627 68.1782 4.99627C67.3982 4.96627 66.8482 5.09624 66.7482 5.34624C66.6482 5.62624 66.7782 5.72627 67.1582 5.62627C67.4682 5.55627 67.3582 5.6563 66.8882 5.9063C65.7982 6.4563 64.8782 7.60627 65.0882 8.12627C65.3582 8.81627 64.7182 8.88622 64.0682 8.19622C63.7282 7.81622 63.6582 7.57622 63.8982 7.57622C64.0982 7.57622 63.8682 7.12631 63.3182 6.53631C62.6382 5.80631 62.2282 5.60624 61.9282 5.84624C61.6582 6.12624 61.4882 6.0562 61.3182 5.6762C61.2182 5.3662 60.9782 5.22622 60.7782 5.32622C60.6082 5.42622 60.4382 5.35621 60.4382 5.18621C60.4382 4.97621 60.2682 4.8062 60.0682 4.8062C59.8982 4.8062 59.8282 5.01625 59.9682 5.22625C60.1082 5.46625 59.9382 5.39623 59.5582 5.08623C59.1182 4.66623 58.5082 4.53628 57.7582 4.63628C57.0082 4.70628 56.5982 4.60628 56.4682 4.25628C56.3282 3.87628 55.9882 3.80625 55.1382 3.97625C54.4282 4.11625 53.7782 4.04629 53.4682 3.76629C53.1982 3.55629 52.8582 3.4562 52.6482 3.5562C52.4782 3.6962 52.2382 3.45622 52.1082 3.07622C51.8382 2.20622 51.4282 2.17625 50.9182 2.97625C50.6082 3.49625 50.5782 3.45626 50.7182 2.73626C50.8182 2.25626 50.8182 2.07621 50.7182 2.31621C50.6182 2.52621 50.3482 2.6263 50.1782 2.5263C49.9382 2.3863 49.9082 2.45619 50.0382 2.66619C50.2082 2.94619 50.0082 3.08623 49.4582 3.08623C48.9782 3.08623 48.4382 3.32625 48.1982 3.60625C47.9582 3.88625 47.6182 4.02619 47.4482 3.91619C47.2482 3.77619 47.3782 4.08625 47.6882 4.60625C48.2282 5.40625 48.2282 5.50624 47.7182 5.71624C47.4082 5.81624 47.2382 6.06622 47.3482 6.19622C47.4482 6.36622 47.1782 6.40629 46.7682 6.26629C46.2882 6.16629 46.1182 6.19625 46.2882 6.47625C46.4582 6.75625 46.2882 6.89629 45.8782 6.89629C45.5082 6.89629 45.1282 7.13619 44.9982 7.41619C44.8582 7.83619 44.9982 7.89625 45.7082 7.72625C46.5282 7.51625 46.5582 7.55631 46.1182 8.03631C45.7082 8.48631 45.5382 8.51625 44.8982 8.10625C44.2882 7.68625 44.1182 7.68625 43.7782 8.10625C43.4382 8.52625 43.4682 8.62627 43.9182 8.62627C44.2282 8.62627 44.4582 8.76625 44.4582 8.97625C44.4582 9.52625 43.9782 9.39627 43.1682 8.62627C42.2882 7.75627 42.0482 7.7563 42.2882 8.5263C42.3882 8.8763 42.1882 8.66625 41.8782 8.10625C41.5382 7.51625 41.2982 6.92631 41.3382 6.78631C41.3782 6.64631 41.0982 6.68628 40.7282 6.88628C40.3582 7.08628 40.0482 7.43629 40.0482 7.64629C40.0482 7.85629 39.9482 7.95621 39.8482 7.81621C39.7482 7.71621 39.7782 7.3963 39.9182 7.1563C40.4582 6.2863 40.3582 5.77622 39.6782 5.94622C39.3082 6.04622 39.0282 5.94626 39.0682 5.73626C39.0982 5.49626 39.0982 5.0762 39.0682 4.8062C39.0382 4.3562 38.9982 4.3562 38.6982 4.8062C38.3882 5.2562 38.2882 5.25623 37.9882 4.70623C37.8182 4.39623 37.4782 4.11626 37.3082 4.11626C37.1082 4.11626 37.0682 4.25624 37.1682 4.46624C37.4782 4.94624 36.9982 4.88622 35.8782 4.32622C35.3682 4.04622 34.9582 3.94626 34.9582 4.11626C34.9582 4.25626 34.7582 4.46621 34.4782 4.56621C34.1382 4.70621 33.9982 4.56623 34.1082 4.08623C34.2182 3.60623 34.0382 3.4262 33.5282 3.4262C32.9482 3.4262 32.9182 3.3263 33.2582 2.9063C33.5982 2.4863 33.5282 2.4262 32.9482 2.5562C32.5382 2.6262 32.2382 2.52621 32.2382 2.31621C32.2382 2.10621 31.8682 2.34623 31.4182 2.83623C30.9382 3.35623 30.4682 3.5962 30.3682 3.4262C30.2682 3.2162 30.3382 3.07622 30.5082 3.07622C30.7082 3.07622 30.8782 2.93625 30.8782 2.72625C30.8782 2.55625 30.3682 2.44626 29.7582 2.48626C28.9782 2.55626 28.7082 2.72629 28.7682 3.14629C28.8382 3.69629 27.4782 4.32629 26.5282 4.14629C26.2582 4.11629 26.1182 4.31622 26.1882 4.69622C26.2582 5.21622 26.0882 5.28624 25.1982 5.21624C23.9382 5.07624 23.3982 5.6963 24.5882 5.9063C25.0982 6.0063 25.3382 5.93626 25.1982 5.73626C25.0582 5.53626 25.1682 5.49619 25.3982 5.66619C25.7082 5.83619 25.7382 6.01631 25.4682 6.28631C24.9282 6.83631 24.9882 7.66624 25.5682 7.46624C25.8382 7.36624 26.1482 7.49627 26.2482 7.74627C26.5582 8.64627 25.8382 8.64627 24.8182 7.74627C23.7682 6.84627 23.0482 6.63625 23.0482 7.22625C23.0482 7.39625 22.8482 7.57622 22.5682 7.57622C22.2882 7.57622 21.9882 7.95622 21.8882 8.44622C21.6182 9.58622 21.2082 9.55626 20.0182 8.23626C19.1382 7.30626 18.8582 7.1963 17.6382 7.4063C16.2782 7.6163 15.7682 7.2362 16.6482 6.6762C16.8882 6.5062 16.9182 6.57628 16.7482 6.88628C16.5782 7.16628 16.6082 7.26624 16.8482 7.09624C17.0482 6.95624 17.1582 6.64626 17.0482 6.36626C16.9082 6.08626 16.7082 5.91629 16.5682 6.01629C16.3982 6.11629 16.1982 5.9863 16.1282 5.7763C16.0282 5.5363 15.9282 5.70622 15.8882 6.19622C15.7182 8.27622 15.6182 8.68631 15.2782 9.03631C15.0382 9.27631 14.9682 8.96621 15.0382 8.06621C15.1082 7.30621 15.1782 6.71624 15.2082 6.71624C15.2382 6.71624 15.3082 6.43627 15.3782 6.12627C15.4482 5.70627 15.3082 5.6063 14.9382 5.7763C14.4282 5.9463 14.4282 5.91629 14.8382 5.39629C15.2482 4.87629 15.2482 4.80629 14.7382 5.01629C14.3682 5.15629 14.1982 5.04619 14.1982 4.66619C14.1982 4.31619 13.9282 4.11629 13.4182 4.14629C13.0082 4.14629 12.8382 4.24621 13.0782 4.31621C13.7882 4.62621 13.1482 5.49627 12.1982 5.49627C11.4482 5.46627 11.3782 5.42626 11.8882 5.11626C12.2282 4.94626 12.4982 4.6663 12.4982 4.5263C12.4982 4.0763 10.6582 4.24626 10.1482 4.73626C9.9082 4.97626 9.3982 5.08625 9.0582 4.97625C8.2082 4.69625 6.98818 5.11621 7.25818 5.56621C7.42818 5.84621 7.28819 5.87626 6.91819 5.73626C6.57819 5.59626 6.40819 5.63623 6.54819 5.83623C6.64819 6.00623 6.30819 6.59626 5.79819 7.11626C5.28819 7.59626 5.08819 7.91626 5.35819 7.73626C5.62819 7.59626 5.49819 7.83631 5.01819 8.28631C4.57819 8.73631 4.0982 9.08619 3.9982 9.04619C3.8982 9.00619 3.48819 9.32626 3.04819 9.73626C2.29819 10.4263 2.29818 10.4962 2.87818 10.9462C3.23818 11.2262 3.17153 11.3429 2.6782 11.2962C2.1682 11.2262 1.75819 11.4363 1.48819 11.8863C1.28819 12.2663 0.948202 12.6862 0.778202 12.8162C0.578202 12.9862 0.578203 13.0962 0.748203 13.0962C0.948203 13.0962 0.778207 13.3363 0.408207 13.6463C0.0682067 13.9263 -0.00180799 14.0662 0.268192 13.9262C0.678192 13.7162 0.708198 13.7562 0.368198 14.1662C-0.341802 15.0662 -0.00179458 16.1362 1.18821 16.7962C2.20821 17.3462 2.3782 17.3463 2.6482 16.8963C2.9182 16.4463 2.98819 16.4762 2.98819 16.9662C2.98819 17.5162 2.3782 17.7663 1.5282 17.6263C1.3582 17.5963 1.28819 17.7663 1.35819 18.0063C1.45819 18.2463 2.13819 18.4563 2.91819 18.4863C3.73819 18.5163 4.2782 18.4562 4.1782 18.3462C4.0782 18.2362 4.17819 17.9662 4.41819 17.6862C4.61819 17.4462 4.6882 17.0963 4.5582 16.9963C4.4182 16.8563 4.18819 16.9663 4.01819 17.2363C3.77819 17.6563 3.67818 17.6162 3.50818 17.0662C3.36818 16.6862 3.1682 16.0263 2.9982 15.6163C2.6882 14.8863 2.85821 14.4762 3.43821 14.4762C3.60821 14.4762 3.67818 14.7163 3.53818 14.9963C3.33818 15.5863 3.84821 15.7262 4.18821 15.1662C4.32821 14.9562 4.55818 14.8863 4.72818 15.0263C4.89818 15.1263 4.9682 15.3762 4.8682 15.5462C4.7282 15.7162 4.86819 15.8563 5.13819 15.8563C5.40819 15.8563 5.71818 15.5463 5.81818 15.1263C5.91818 14.7063 6.15819 14.4662 6.29819 14.5762C6.46819 14.6762 6.9082 14.2962 7.2482 13.6762C7.5882 13.0562 8.06819 12.3962 8.26819 12.2262C8.46819 12.0162 9.11819 11.4263 9.69818 10.9063C10.6882 9.9763 10.7882 9.93625 12.3882 10.3563C13.3082 10.5663 14.1882 10.9063 14.3982 11.1163C14.6382 11.3563 14.5682 11.3562 14.2582 11.1862C13.9482 11.0162 13.8482 11.0463 14.0182 11.2863C14.1582 11.5263 14.5582 11.7062 14.9382 11.7062C15.2782 11.7062 15.5882 11.8462 15.5882 12.0562C15.5882 12.2262 16.0282 12.4063 16.6082 12.4063C17.5582 12.4063 17.8282 12.7863 17.6582 13.8963C17.6282 14.0663 17.7282 14.1363 17.8582 14.0363C18.0282 13.9663 18.3982 14.1762 18.7082 14.5562C19.2182 15.0762 19.2182 15.1762 18.8082 15.1762C18.3682 15.1762 18.3682 15.2762 18.7082 15.9362C19.5582 17.3862 20.3382 18.0162 20.8482 17.5962C21.2182 17.2862 21.2582 17.3562 21.1582 17.8362C21.0182 18.3862 21.1882 18.4963 22.1082 18.4963C22.7182 18.4963 23.4382 18.2562 23.6682 17.9462C23.9382 17.6662 24.0382 17.6362 23.9082 17.8462C23.5682 18.5362 23.9082 18.3663 24.6182 17.4963C24.9582 17.0763 25.0282 16.9463 24.7582 17.1463C24.4882 17.3863 24.1482 17.4563 23.9382 17.2863C23.7282 17.1163 23.2582 16.9063 22.8882 16.7663C22.4782 16.6663 22.5782 16.6262 23.1582 16.6962C23.6682 16.7662 24.1782 16.6663 24.2782 16.4863C24.3782 16.3463 24.5882 16.2763 24.7582 16.3863C25.0982 16.5963 25.5782 15.3163 25.2982 14.8663C25.1582 14.6963 25.4382 14.1062 25.8782 13.5462C26.8982 12.2662 27.5482 10.7063 27.2682 10.2563C27.1282 10.0163 27.1982 9.97626 27.4082 10.1163C27.6482 10.2563 27.8182 10.1463 27.8182 9.87627C27.8182 9.63627 28.1882 9.18622 28.6682 8.94622C29.1482 8.66622 29.4882 8.28622 29.3782 8.07622C29.2782 7.79622 29.5182 7.72623 30.0582 7.83623C30.5982 7.93623 30.8782 7.8363 30.8782 7.5263C30.9082 7.1463 30.9782 7.1462 31.3182 7.5562C31.9682 8.3862 34.3082 8.66621 34.5482 7.93621C34.7182 7.38621 35.1982 7.45622 35.1982 8.07622C35.1982 8.35622 34.9582 8.59627 34.6582 8.62627C34.3182 8.62627 34.4182 8.79619 34.9682 9.04619C35.9582 9.49619 39.0482 12.6163 39.0482 13.1263C39.0482 13.3363 39.4882 13.6462 40.0682 13.8162C41.0582 14.1962 41.8382 15.5463 41.1582 15.7863C40.4782 15.9963 41.1282 16.8262 41.8682 16.6862C42.2782 16.6162 42.4082 16.6163 42.1782 16.7563C41.5982 17.0363 41.6682 17.6862 42.2782 17.4462C42.5482 17.3462 42.7882 17.4162 42.7882 17.5862C42.7882 17.7562 43.2982 17.8263 43.8782 17.7563C45.1382 17.5863 46.5282 16.1963 46.5282 15.1263C46.5282 14.7763 46.6982 14.4662 46.8982 14.4662C47.0682 14.4662 47.1682 14.3263 47.0682 14.1563C46.7582 13.6363 47.2382 12.7062 47.6782 12.9762C47.8782 13.1162 47.8482 12.9463 47.5782 12.6263C47.2382 12.1763 47.2382 12.0363 47.5482 12.0363C47.8582 12.0363 47.8582 11.8962 47.5182 11.4462C47.1082 10.9262 47.1082 10.8962 47.7182 11.0662C48.0882 11.1662 48.5982 11.0363 48.8382 10.7563C49.2482 10.3363 49.1082 10.1663 48.4982 10.2763C48.3582 10.2763 48.2982 9.99626 48.3282 9.61626C48.3582 8.81626 48.9082 8.68622 48.9082 9.44622C48.9082 10.0662 48.9782 10.0662 50.0682 9.58623C50.5482 9.34623 50.8482 9.03629 50.7482 8.89629C50.6482 8.72629 50.7782 8.27625 51.0582 7.85625C51.4982 7.23625 51.5982 7.19621 51.8782 7.68621C52.1182 8.13621 52.2182 8.13629 52.5882 7.51629C52.9282 6.96629 52.9282 6.85631 52.6182 7.03631C52.3482 7.24631 52.2782 7.17629 52.4782 6.89629C52.6482 6.58629 52.8182 6.54622 53.0882 6.82622C53.2882 7.03622 53.6282 7.20623 53.7982 7.20623C53.9982 7.20623 53.9682 7.03631 53.7282 6.78631C53.0782 6.12631 53.2182 5.9862 54.4082 6.0562C55.0182 6.0862 55.7982 6.12627 56.1082 6.12627C56.9282 6.15627 56.8882 6.71623 56.0382 6.95623C55.6682 7.05623 55.3582 6.98631 55.3582 6.78631C55.3582 6.61631 55.1882 6.57624 54.9882 6.71624C54.7182 6.85624 54.8882 7.1363 55.3982 7.4063C56.1082 7.7863 56.1082 7.85628 55.5682 7.88628C54.9882 7.88628 54.9882 7.95622 55.7082 8.57622C56.5882 9.33622 56.9282 9.4462 57.1682 8.9262C57.2682 8.7162 57.3082 8.75627 57.2682 8.99627C57.1682 9.51627 57.8782 10.3162 58.4282 10.3162C58.8382 10.3162 60.8082 12.3962 60.8082 12.8062C60.8082 12.9762 61.0082 13.0862 61.2182 13.0862C61.4582 13.0862 61.6982 13.5063 61.7282 13.9863C61.7282 14.4663 61.9682 15.0562 62.1682 15.3062C62.5082 15.5862 62.5382 15.5863 62.3682 15.2763C62.2682 15.0663 62.2682 14.7962 62.4382 14.6862C62.6082 14.5862 62.7482 14.6862 62.7782 14.9262C62.8782 16.2462 63.5282 17.5963 63.5282 16.5163C63.5282 15.7163 64.6482 15.1662 65.3282 15.6862C65.6382 15.8962 65.8082 16.2062 65.6682 16.3062C65.5682 16.4462 65.5982 16.5462 65.8082 16.5462C66.0182 16.5462 66.1182 16.8262 66.0082 17.2062C65.9082 17.5562 66.0082 17.9662 66.2082 18.0762C66.4482 18.2162 66.4782 18.1062 66.3782 17.7962C66.2382 17.4462 66.3482 17.2463 66.6882 17.2463C66.9982 17.2463 67.3382 17.0762 67.4682 16.8262C67.6082 16.6162 67.5682 16.5463 67.3682 16.6563C67.1682 16.7963 66.8882 16.6562 66.7882 16.3462C66.6482 15.9262 66.7182 15.8262 67.0982 15.9662C67.3682 16.1062 67.6782 16.0363 67.7782 15.8663C67.9182 15.6563 67.8082 15.5163 67.6082 15.5163C67.4082 15.5163 67.3382 15.3462 67.4382 15.1662C67.5782 14.9562 67.7782 14.8863 67.9482 14.9963C68.0882 15.0963 68.1882 14.7863 68.1482 14.3763C68.1182 13.7163 67.9482 13.6162 67.2982 13.7162C66.7882 13.8162 66.5482 13.7463 66.7182 13.5063C66.8182 13.2963 66.7182 13.0562 66.5182 12.9562C66.2782 12.8162 66.4182 12.8163 66.8282 12.8863C67.2682 12.9563 67.6082 12.9162 67.6082 12.8162C67.6082 12.6762 68.0482 12.2963 68.6282 11.9863C69.2082 11.6363 69.7182 10.9862 69.8482 10.4262C69.9882 9.9062 70.4582 9.07627 70.8982 8.62627C71.8182 7.69627 71.8882 7.34625 71.2082 7.10625C70.8982 6.96625 70.6682 7.1363 70.5982 7.5263C70.4982 8.1163 70.4582 8.1162 69.9182 7.5562C69.4082 7.0762 69.3782 6.96621 69.8182 6.93621C70.0882 6.90621 70.5682 6.83619 70.8382 6.79619C71.5882 6.72619 71.4482 6.34629 70.5682 5.89629C69.8882 5.54629 69.8582 5.51629 70.4982 5.51629C71.0782 5.48629 71.0782 5.41628 70.6682 5.13628C69.7182 4.51628 70.7382 4.7862 72.2282 5.5562C73.0482 5.9762 73.7282 6.48629 73.7282 6.76629C73.7282 7.00629 73.9282 7.21624 74.1382 7.21624C77.5382 7.35624 78.2182 7.45627 78.4582 7.87627C78.6282 8.15627 78.9982 8.25623 79.4782 8.08623C79.9882 7.91623 80.1882 8.01621 80.1882 8.43621C80.1882 8.78621 80.3582 8.88627 80.5982 8.74627C80.7982 8.60627 80.8682 8.64628 80.7682 8.88628C80.4582 9.33628 80.8382 10.4062 81.2082 10.1662C81.3482 10.0662 81.5482 10.2363 81.6882 10.5163C81.7882 10.7963 82.0982 11.0363 82.3982 11.0363C82.6682 11.0363 82.9082 11.2062 82.9082 11.4162C82.9082 11.5862 83.0482 11.6562 83.2482 11.5562C83.5582 11.3462 83.7282 11.8363 83.6182 12.5263C83.5882 12.6663 83.8582 12.8763 84.1582 13.0063C84.4982 13.1463 84.8682 13.3862 85.0082 13.5962C85.1482 13.8062 85.4182 13.7663 85.7182 13.4963C86.1282 13.1863 86.2982 13.1863 86.4982 13.4963C86.6382 13.7363 86.5982 13.8062 86.3582 13.6662C86.1582 13.5662 85.7482 13.8062 85.4782 14.2162C84.7282 15.2862 85.4482 16.0462 86.6682 15.5662L87.4882 15.2162H86.5382C85.9982 15.1862 85.6582 15.0462 85.7882 14.8362C86.1282 14.2462 86.6382 14.4563 87.6882 15.4963C88.2282 16.0463 88.7382 16.3963 88.8482 16.2563C89.0482 15.8363 88.7482 14.4263 88.3382 14.0063C87.8982 13.5563 87.8982 13.0062 88.3682 13.1762C88.5682 13.2462 88.7082 13.4162 88.6782 13.5962C88.6082 13.9062 89.3282 14.4963 89.8382 14.4963C89.9782 14.4963 90.0382 14.1862 89.9382 13.8062C89.8382 13.4262 89.9082 13.1863 90.0382 13.2863C90.4782 13.5663 91.1582 11.1063 90.9582 9.99627C90.8182 9.33627 90.8882 8.95625 91.2282 8.85625C91.4682 8.75625 91.8782 8.2362 92.1482 7.6762C92.4182 7.0862 92.8582 6.70623 93.2682 6.70623C93.6382 6.70623 93.9782 6.42623 94.0482 6.08623C94.1182 5.77623 94.3182 5.60623 94.5282 5.70623C94.7282 5.84623 94.7982 5.67625 94.6682 5.22625C94.5282 4.80625 94.5982 4.42628 94.8382 4.25628C95.1082 4.08628 95.1782 4.18631 95.0782 4.53631C94.9382 4.81631 95.0082 5.26631 95.1782 5.53631C95.3482 5.81631 95.4882 5.8462 95.5182 5.6762C95.5182 5.4662 95.5882 5.05623 95.6582 4.70623C95.7282 4.39623 95.6582 4.11623 95.5582 4.08623C95.4182 4.08623 94.9082 4.01626 94.3982 3.98626C93.8882 3.95626 93.1382 3.56626 92.6982 3.11626L91.9482 2.28631L92.8682 2.45623C93.3482 2.55623 93.6882 2.48625 93.5782 2.35625C93.3382 1.93625 93.5782 1.97627 94.5982 2.49627C95.0782 2.77627 95.3782 3.0463 95.3082 3.1563C95.2082 3.2563 95.3382 3.5363 95.6482 3.7763C95.9182 4.0163 96.1582 4.39629 96.1582 4.64629C96.1582 4.89629 96.3982 5.1962 96.6982 5.3062C97.2082 5.5162 97.2082 5.44623 96.7982 4.95623C96.3582 4.40623 96.3882 4.40628 97.3382 4.88628C97.8782 5.16628 98.6982 5.3362 99.1082 5.3062C99.5482 5.3062 99.8882 5.37619 99.8882 5.54619C99.8882 5.71619 100.128 5.75629 100.398 5.64629C100.668 5.50629 100.908 5.57631 100.908 5.78631C100.908 6.26631 102.978 7.06624 103.868 6.96624C104.308 6.89624 104.648 6.99623 104.648 7.20623C104.648 7.41623 104.958 7.58623 105.298 7.58623C105.778 7.58623 105.908 7.7563 105.778 8.2763C105.678 8.6563 105.438 8.96624 105.268 8.96624C104.788 8.96624 106.118 10.6662 106.628 10.6962C106.938 10.6962 106.968 10.8663 106.728 11.2863C106.218 12.2163 107.238 12.8062 108.358 12.2162C108.838 11.9362 109.478 11.7363 109.748 11.7663C110.088 11.7663 110.118 11.8362 109.818 11.9762C109.618 12.0462 109.508 12.3263 109.618 12.4963C109.758 12.7363 109.688 12.7763 109.478 12.6363C109.238 12.4963 109.068 12.5363 109.068 12.7363C109.068 12.9363 108.868 13.0462 108.628 12.9762C108.428 12.9462 108.318 12.9463 108.458 13.0063C108.628 13.1063 108.628 13.5563 108.528 14.0063C108.388 14.5963 108.458 14.8362 108.838 14.8362C109.108 14.8362 109.448 14.5963 109.548 14.2863C109.648 14.0063 109.918 13.8663 110.128 14.0063C110.398 14.1763 110.398 14.3163 110.098 14.4863C109.858 14.6263 109.828 14.8362 109.998 14.9362C110.508 15.2462 111.628 13.6162 111.598 12.5462C111.598 11.8162 111.428 11.5462 111.018 11.5762C110.708 11.6062 110.538 11.5062 110.648 11.3362C110.748 11.1662 111.158 11.0263 111.568 10.9863C111.978 10.9863 112.108 10.8863 111.878 10.7763C111.198 10.4963 111.398 9.9063 112.118 10.1563C112.698 10.3263 112.728 10.2262 112.488 8.94622C112.248 7.59622 112.558 7.04622 112.968 8.07622C113.068 8.35622 113.338 8.5962 113.578 8.5562C113.918 8.5562 113.918 8.48628 113.608 8.38628C113.368 8.28628 113.638 7.79628 114.358 7.13628C115.008 6.58628 115.548 5.88629 115.548 5.64629C115.548 5.40629 115.748 5.1263 115.958 5.0263C116.198 4.9563 115.888 4.81624 115.278 4.71624C114.328 4.57624 114.158 4.68627 113.988 5.37627C113.848 5.82627 113.618 6.1762 113.448 6.1762C113.248 6.1762 113.178 5.96625 113.278 5.72625C113.378 5.44625 113.138 5.24623 112.628 5.20623C112.188 5.17623 111.808 5.30626 111.808 5.48626C111.808 5.69626 112.048 5.83623 112.348 5.83623C112.618 5.83623 112.758 6.00621 112.658 6.18621C112.518 6.39621 112.288 6.42622 112.078 6.32622C111.878 6.18622 111.808 6.25624 111.938 6.46624C112.038 6.67624 112.008 6.9162 111.798 7.0562C111.598 7.1562 111.428 6.91624 111.428 6.46624C111.398 5.84624 111.358 5.80622 111.228 6.32622C111.128 6.67622 111.228 7.12622 111.428 7.32622C111.628 7.53622 111.798 7.94625 111.798 8.22625C111.798 8.50625 111.698 8.60628 111.598 8.50628C111.458 8.40628 111.088 8.43629 110.748 8.64629C110.238 8.88629 110.168 8.85621 110.308 8.43621C110.448 8.15621 110.648 7.91619 110.818 7.91619C110.958 7.91619 111.018 7.67629 110.918 7.39629C110.748 7.01629 110.578 6.94625 110.268 7.22625C110.028 7.43625 109.418 7.50626 108.938 7.36626C108.428 7.26626 107.848 7.33622 107.578 7.57622C107.168 7.88622 106.998 7.81629 106.698 7.26629C106.498 6.84629 106.188 6.53631 105.988 6.53631C105.788 6.53631 105.748 6.70623 105.888 6.95623C106.028 7.20623 105.988 7.23624 105.748 7.09624C105.438 6.92624 105.438 6.64627 105.718 6.12627C105.988 5.60627 105.988 5.3663 105.688 5.1563C105.378 4.9863 105.378 4.8462 105.658 4.6762C106.238 4.2962 106.678 4.74628 106.478 5.50628C106.338 6.02628 106.478 6.19622 106.988 6.19622C107.868 6.19622 108.248 5.64626 107.528 5.36626C107.258 5.26626 107.118 5.01621 107.218 4.81621C107.318 4.64621 107.188 4.46624 106.908 4.46624C106.628 4.46624 106.228 4.1563 106.028 3.7763C105.828 3.3963 105.518 3.15628 105.348 3.25628C105.178 3.35628 104.978 3.28623 104.838 3.08623C104.738 2.91623 104.328 2.73626 103.958 2.73626C103.618 2.73626 103.308 2.56625 103.308 2.35625C103.308 2.18625 103.138 2.11624 102.968 2.21624C102.768 2.31624 102.628 2.24622 102.628 2.07622C102.628 1.86622 102.318 1.69622 101.978 1.69622C101.608 1.69622 101.058 1.45629 100.758 1.14629C100.488 0.836291 99.7082 0.596203 99.0582 0.556203C98.3482 0.526203 98.0082 0.386199 98.1382 0.176199L98.0682 0.136282ZM101.398 2.03631C101.768 2.03631 101.878 2.13627 101.598 2.24627C101.358 2.34627 101.058 2.31624 100.948 2.21624C100.808 2.11624 101.018 2.00619 101.388 2.04619L101.398 2.03631ZM99.6982 2.20623C100.238 1.99623 100.308 2.27624 99.8682 2.96624C99.6282 3.34624 99.5582 3.34621 99.3882 2.93621C99.2882 2.62621 99.4182 2.31623 99.6982 2.20623ZM98.6782 3.5562C98.5082 4.0362 98.3382 3.97621 97.4582 3.31621C96.5382 2.62621 96.4682 2.5163 97.0182 2.2763C98.3782 1.7563 99.1582 2.3462 98.6882 3.5562H98.6782ZM72.7682 2.00628C72.8682 2.00628 73.0382 2.14625 73.1382 2.35625C73.2382 2.52625 73.1682 2.70623 72.9982 2.70623C72.7982 2.70623 72.6282 2.53625 72.6282 2.35625C72.6282 2.14625 72.6982 2.00628 72.7682 2.00628ZM101.398 3.14629C101.878 2.62629 101.908 2.66627 101.808 3.24627C101.738 3.72627 101.978 3.93626 102.728 4.11626C103.408 4.25626 103.578 4.39631 103.238 4.53631C102.488 4.81631 101.538 4.70626 101.738 4.36626C101.838 4.22626 101.668 4.08623 101.398 4.08623C101.088 4.08623 100.858 3.98627 100.858 3.87627C100.858 3.76627 101.098 3.42629 101.398 3.14629ZM104.018 3.41619C104.358 3.62619 104.868 3.69623 105.138 3.58623C105.408 3.48623 105.618 3.61629 105.618 3.89629C105.618 4.17629 105.308 4.41619 104.908 4.41619C104.538 4.41619 104.328 4.55629 104.428 4.76629C104.528 4.93629 104.458 5.11626 104.258 5.11626C104.018 5.11626 103.948 4.8362 104.088 4.4262C104.258 3.9462 104.158 3.73626 103.778 3.73626C103.468 3.73626 103.238 3.56628 103.238 3.38628C103.238 3.10628 103.498 3.11619 104.018 3.41619ZM102.348 3.03631C102.448 3.03631 102.618 3.17628 102.718 3.38628C102.818 3.55628 102.748 3.73626 102.578 3.73626C102.378 3.73626 102.208 3.56628 102.208 3.38628C102.208 3.17628 102.278 3.03631 102.348 3.03631ZM29.4482 3.73626C29.7182 3.31626 29.7882 3.35625 29.7882 3.97625C29.7882 4.42625 29.6182 4.7763 29.4482 4.7763C29.2482 4.7763 29.1082 4.67627 29.1082 4.49627C29.1082 4.35627 29.2782 4.01626 29.4482 3.73626ZM114.458 5.11626C114.628 5.11626 114.798 5.25624 114.798 5.46624C114.798 5.63624 114.628 5.81621 114.458 5.81621C114.258 5.81621 114.118 5.64624 114.118 5.46624C114.118 5.25624 114.258 5.11626 114.458 5.11626ZM76.3382 5.60625C76.6482 5.95625 76.6082 6.12629 76.2682 6.26629C75.9982 6.36629 75.8282 6.16631 75.7882 5.78631C75.7182 4.98631 75.8182 4.95626 76.3282 5.61626L76.3382 5.60625ZM32.8482 5.63628C33.2182 6.08628 33.1882 6.11622 32.7082 5.94622C32.3982 5.84622 32.1682 5.5962 32.1682 5.4262C32.1682 4.9762 32.3682 5.04628 32.8482 5.63628ZM28.5982 5.21624C28.8682 5.21624 29.0082 5.3563 28.9082 5.5263C28.7382 5.7663 28.0882 5.59621 28.0882 5.31621C28.0882 5.28621 28.3282 5.21624 28.5982 5.21624ZM83.0082 5.46624C83.2782 5.46624 83.5182 5.60621 83.5182 5.81621C83.5182 5.98621 83.2782 6.05623 83.0082 5.95623C82.7382 5.81623 82.4982 5.67625 82.4982 5.60625C82.4982 5.53625 82.7382 5.46624 83.0082 5.46624ZM48.9982 5.66619C49.2682 5.56619 49.5082 5.6362 49.5082 5.8062C49.5082 6.0162 49.2682 6.1563 48.9982 6.1563C48.7282 6.1563 48.4882 6.08629 48.4882 6.01629C48.4882 5.94629 48.7282 5.80619 48.9982 5.66619ZM50.9082 5.8062C51.3882 5.8062 51.2782 6.04631 50.6682 6.28631C50.3982 6.38631 50.2582 6.35629 50.3582 6.14629C50.4582 5.93629 50.6982 5.79619 50.8982 5.79619L50.9082 5.8062ZM13.2582 5.91619C13.3582 5.77619 13.4582 5.98626 13.4282 6.36626C13.4282 6.74626 13.3282 6.84622 13.2282 6.57622C13.1282 6.33622 13.1582 6.02619 13.2582 5.91619ZM32.1682 6.70623C32.3382 6.22623 32.4782 6.15624 32.6482 6.46624C32.7882 6.67624 33.1882 6.7762 33.5682 6.6762C34.2482 6.4362 34.5182 7.29624 33.8782 7.71624C33.6782 7.85624 33.6382 7.68619 33.7782 7.29619C33.9782 6.74619 33.9482 6.74627 33.4382 7.12627C33.1282 7.40627 32.6882 7.54625 32.4182 7.47625C32.1082 7.40625 32.0082 7.12624 32.1782 6.71624L32.1682 6.70623ZM26.6982 6.1563C26.8682 6.1563 27.0682 6.36625 27.1782 6.60625C27.2782 6.88625 27.1482 7.08623 26.8682 7.08623C26.5882 7.08623 26.3882 6.87625 26.3882 6.60625C26.3882 6.36625 26.5282 6.1563 26.6982 6.1563ZM12.4082 6.46624C12.7782 6.70624 12.7782 6.77622 12.4082 6.94622C12.0682 7.08622 12.0982 7.1563 12.5082 7.1563C13.1582 7.1863 13.3882 8.22625 12.7782 8.22625C12.5782 8.22625 12.4382 8.05627 12.4382 7.87627C12.4382 7.66627 12.1982 7.5263 11.9282 7.5263C11.6582 7.5263 11.4182 7.42627 11.4182 7.24627C11.4482 6.62627 11.9582 6.20622 12.4082 6.44622V6.46624ZM113.948 6.81621C114.048 6.98621 114.018 7.23623 113.848 7.33623C113.678 7.43623 113.538 7.3063 113.538 7.0263C113.538 6.4363 113.638 6.36621 113.948 6.81621ZM88.4482 6.56621C88.9882 6.56621 89.1982 6.63626 88.8582 6.73626C88.5482 6.80626 88.0782 6.80626 87.8382 6.73626C87.6382 6.63626 87.8682 6.56621 88.4482 6.56621ZM83.5782 6.84624C83.7782 6.84624 83.7782 7.05626 83.5082 7.36626C83.0282 7.95626 82.6282 7.81625 82.9982 7.22625C83.0982 7.01625 83.3682 6.84624 83.5782 6.84624ZM38.5582 6.88628C39.0682 6.91628 39.0682 6.95624 38.5282 7.09624C38.2182 7.16624 38.0182 7.40622 38.1182 7.57622C38.3882 7.95622 37.9182 7.99622 37.3382 7.57622C36.9682 7.33622 36.9982 7.2262 37.4382 7.0562C37.7482 6.9562 38.2582 6.88628 38.5582 6.88628ZM109.288 8.16619C109.598 7.85619 109.698 7.92623 109.698 8.58623C109.698 9.24623 109.598 9.31628 109.288 9.00628C108.978 8.69628 108.978 8.4862 109.288 8.1762V8.16619ZM14.1082 7.88628C14.2782 7.88628 14.5482 8.02626 14.6482 8.23626C14.7482 8.40626 14.7182 8.58623 14.5082 8.58623C14.3382 8.58623 14.0682 8.41626 13.9682 8.23626C13.8682 8.02626 13.8982 7.88628 14.1082 7.88628ZM11.7682 7.88628C11.9382 7.88628 12.1082 8.05629 12.1082 8.26629C12.1082 8.43629 11.9382 8.5063 11.7682 8.4063C11.5682 8.3063 11.4282 8.1263 11.4282 8.0263C11.4282 7.9563 11.5682 7.88628 11.7682 7.88628ZM60.2182 9.13628C60.4882 9.03628 60.7282 9.1063 60.7282 9.2763C60.7282 9.4863 60.4882 9.62627 60.2182 9.62627C59.9482 9.62627 59.7082 9.55626 59.7082 9.48626C59.7082 9.41626 59.9482 9.27628 60.2182 9.13628ZM108.988 9.58623C109.298 9.79623 109.228 9.93621 108.718 10.0662C108.308 10.1662 108.008 10.0962 108.008 9.96624C108.008 9.48624 108.518 9.30623 108.998 9.58623H108.988ZM20.6082 9.26629C20.7782 9.26629 20.9482 9.43629 20.9482 9.64629C20.9482 9.81629 20.7782 9.88631 20.6082 9.78631C20.4082 9.68631 20.2682 9.5063 20.2682 9.4063C20.2682 9.3363 20.4082 9.26629 20.6082 9.26629ZM63.6582 12.0363C63.7282 12.0363 63.7982 12.1763 63.7982 12.3863C63.7982 12.5563 63.6282 12.7363 63.4282 12.7363C63.2582 12.7363 63.1882 12.5663 63.2882 12.3863C63.3882 12.1763 63.5582 12.0363 63.6582 12.0363ZM110.548 12.8362C110.818 12.8362 110.958 12.9763 110.858 13.1463C110.688 13.3863 110.038 13.2162 110.038 12.9362C110.038 12.9062 110.278 12.8362 110.548 12.8362ZM65.1482 12.7262C65.3182 12.7262 65.4882 12.8662 65.4882 13.0762C65.4882 13.2462 65.3182 13.4262 65.1482 13.4262C64.9482 13.4262 64.8082 13.2562 64.8082 13.0762C64.8082 12.8662 64.9482 12.7262 65.1482 12.7262ZM87.2882 13.0762C87.4582 13.0762 87.5282 13.2162 87.4282 13.4262C87.3282 13.5962 87.1582 13.7763 87.0582 13.7763C86.9882 13.7763 86.9182 13.6062 86.9182 13.4262C86.9182 13.2162 87.0882 13.0762 87.2882 13.0762ZM41.5482 13.1163C41.9182 13.1163 42.0282 13.2162 41.7482 13.3262C41.5082 13.4262 41.2082 13.3962 41.0982 13.2962C40.9582 13.1962 41.1682 13.0863 41.5382 13.1263L41.5482 13.1163ZM22.0982 13.7663C22.1982 13.7663 22.3682 13.9063 22.4682 14.1163C22.5682 14.2863 22.4982 14.4662 22.3282 14.4662C22.1282 14.4662 21.9582 14.2963 21.9582 14.1163C21.9582 13.9063 22.0282 13.7663 22.0982 13.7663ZM88.2082 14.6662C88.4482 14.9462 88.4782 15.1463 88.3082 15.1463C88.1382 15.1463 87.8682 14.9763 87.7682 14.7663C87.3982 14.2163 87.7382 14.1062 88.2082 14.6662ZM41.7182 14.1163C41.8882 14.1163 41.9582 14.2562 41.8582 14.4662C41.7582 14.6362 41.5882 14.8162 41.4882 14.8162C41.4182 14.8162 41.3482 14.6462 41.3482 14.4662C41.3482 14.2562 41.5182 14.1163 41.7182 14.1163ZM44.7482 14.4662C44.9182 14.4662 44.9882 14.7063 44.8882 14.9863C44.7482 15.2663 44.6182 15.5063 44.5482 15.5063C44.4782 15.5063 44.4082 15.2663 44.4082 14.9863C44.4082 14.7063 44.5482 14.4662 44.7482 14.4662ZM42.4082 14.8062C42.5782 14.8062 42.6482 14.9463 42.5482 15.1563C42.4482 15.3263 42.2782 15.5063 42.1782 15.5063C42.1082 15.5063 42.0382 15.3363 42.0382 15.1563C42.0382 14.9463 42.2082 14.8062 42.4082 14.8062ZM22.4382 15.1563C22.5082 15.1563 22.7482 15.3962 22.9782 15.6762C23.2182 15.9862 23.2482 16.1962 23.0482 16.1962C22.8782 16.1962 22.6382 15.9562 22.5082 15.6762C22.4082 15.3962 22.3682 15.1563 22.4382 15.1563Z" fill="#F6ED36"/>
<path fill-rule="evenodd" clip-rule="evenodd" d="M117.418 2.79632C117.558 3.00632 117.248 3.03642 116.708 2.89642C115.688 2.65642 115.658 2.65634 116.338 3.93634C116.608 4.48634 116.848 4.73639 116.848 4.48639C116.848 4.27639 117.158 4.06634 117.558 4.06634C117.928 4.06634 118.168 4.2064 118.068 4.3764C117.928 4.5464 118.168 4.61642 118.548 4.51642C119.158 4.34642 119.398 4.68633 119.258 5.55633C119.228 5.69633 119.498 5.69639 119.798 5.48639C120.138 5.31639 120.848 5.10634 121.398 5.06634C122.218 4.96634 122.418 5.06643 122.448 5.65643C122.478 6.17643 122.308 6.38634 121.968 6.31634C121.658 6.24634 121.258 6.17633 121.088 6.17633C120.888 6.14633 120.988 5.96632 121.258 5.79632C121.528 5.62632 121.598 5.44635 121.428 5.44635C121.228 5.44635 120.848 5.61632 120.578 5.79632C120.138 6.07632 120.168 6.21632 120.818 6.66632C121.258 6.97632 121.498 7.42636 121.398 7.70636C121.258 7.98636 121.428 8.32634 121.738 8.43634C122.048 8.53634 122.218 8.74641 122.108 8.88641C122.038 9.02641 122.418 9.40641 122.988 9.75641C123.528 10.0664 123.978 10.5864 123.978 10.8664C123.978 11.2864 124.118 11.3864 124.828 11.3464C125.198 11.3164 125.948 12.2164 125.778 12.4564C125.708 12.6264 125.808 12.7364 126.018 12.7364C126.228 12.7364 126.328 12.8763 126.218 13.0463C125.908 13.4963 126.928 14.2263 127.438 13.9163C127.678 13.7763 127.778 13.8163 127.608 13.9463C127.468 14.1163 127.638 14.5663 127.948 14.9463C128.335 15.4063 128.335 15.4863 127.948 15.1863C127.468 14.8063 127.368 14.8063 127.368 15.1863C127.368 15.4663 127.608 15.9864 127.878 16.3264C128.148 16.6764 128.288 17.0864 128.218 17.2264C128.148 17.3664 128.558 17.4664 129.098 17.4664C130.048 17.4664 130.118 17.3664 129.948 16.4964C129.848 15.9464 129.918 15.4263 130.088 15.3163C130.258 15.2163 130.328 14.8964 130.188 14.6264C130.088 14.2764 130.218 14.1064 130.698 14.1064C131.068 14.1064 131.448 13.8664 131.548 13.6264C131.688 13.2764 131.578 13.1763 131.238 13.3163C130.998 13.4163 130.758 13.3164 130.758 13.1064C130.758 12.8964 130.448 12.7264 130.078 12.7264C129.708 12.7264 129.398 12.5863 129.398 12.4163C129.398 12.2063 129.808 12.2063 130.488 12.4163C131.198 12.6263 131.708 12.5864 131.948 12.3464C132.768 11.5164 130.218 11.2064 129.228 12.0364C128.578 12.5864 127.868 12.1364 128.378 11.5164C128.648 11.2064 128.578 10.9264 128.208 10.5164C127.898 10.2064 127.768 9.78636 127.898 9.58636C128.068 9.30636 127.868 9.23637 127.188 9.34637C126.168 9.55637 124.978 8.79642 124.978 7.89642C125.008 7.47642 125.078 7.5164 125.348 7.9964C125.548 8.3064 125.858 8.5164 126.028 8.3764C126.228 8.2764 126.198 7.95639 125.928 7.61639C125.558 7.13639 125.588 7.09633 126.168 7.30633C126.708 7.51633 126.708 7.40635 125.998 6.82635C125.518 6.40635 125.178 6.02636 125.218 5.95636C125.288 5.88636 125.218 5.85641 125.048 5.88641C124.908 5.95641 124.848 6.09639 124.878 6.23639C124.948 6.40639 124.778 6.51642 124.538 6.51642C124.268 6.51642 124.298 6.65639 124.638 6.86639C125.048 7.14639 125.008 7.21637 124.398 7.21637C123.818 7.21637 123.688 7.07637 123.818 6.59637C123.988 6.04637 123.958 6.0464 123.508 6.6264C123.028 7.2164 122.998 7.17638 123.068 6.10638C123.068 5.48638 123.338 4.78632 123.608 4.54632C124.048 4.19632 123.948 4.12637 123.068 4.09637C122.528 4.09637 121.908 4.23643 121.708 4.40643C121.538 4.54643 120.998 4.78633 120.448 4.92633C119.768 5.09633 119.528 5.02642 119.528 4.64642C119.528 4.29642 119.728 4.19632 120.038 4.29632C120.308 4.43632 120.788 4.32636 121.058 4.08636C121.328 3.84636 121.568 3.7764 121.568 3.8764C121.568 4.0164 121.738 4.0164 121.938 3.8764C122.448 3.5664 119.898 2.3564 119.218 2.6264C118.908 2.7264 118.808 2.65632 118.978 2.41632C119.118 2.20632 118.878 1.99634 118.438 1.93634C117.618 1.79634 117.048 2.28633 117.388 2.80633L117.418 2.79632ZM123.438 8.78644C124.018 9.20644 124.018 9.26642 123.578 9.26642C123.268 9.26642 122.898 9.09641 122.798 8.88641C122.428 8.29641 122.728 8.26644 123.448 8.78644H123.438ZM124.388 9.61639C124.698 9.61639 125.068 9.75637 125.168 9.96637C125.438 10.4164 124.998 10.4164 124.318 9.96637C123.878 9.68637 123.878 9.61639 124.388 9.61639ZM128.948 13.0064C129.258 13.1764 129.218 13.3863 128.878 13.6963C128.468 14.0763 128.398 14.0063 128.398 13.4163C128.398 12.6563 128.398 12.6164 128.938 12.9964L128.948 13.0064ZM129.458 14.1164C129.628 14.1164 129.768 14.2564 129.768 14.4664C129.768 14.6364 129.528 14.8163 129.228 14.8163C128.958 14.8163 128.818 14.6464 128.918 14.4664C129.018 14.2564 129.258 14.1164 129.458 14.1164Z" fill="#F6ED36"/>
<path fill-rule="evenodd" clip-rule="evenodd" d="M138.838 2.48669C138.258 2.55669 137.548 2.62673 137.308 2.65673C137.068 2.68673 136.968 2.86668 137.108 3.10668C137.248 3.34668 137.208 3.3867 136.938 3.2467C136.088 2.6967 132.278 5.25662 130.958 7.29662C130.278 8.36662 130.478 9.37673 131.328 9.02673C131.738 8.88673 131.838 8.92665 131.668 9.19665C131.298 9.85665 131.838 9.67669 132.378 8.98669C132.648 8.67669 132.788 8.60664 132.648 8.81664C132.508 9.09664 132.618 9.19663 132.958 9.05663C133.228 8.95663 133.538 8.63669 133.638 8.36669C133.738 8.08669 134.078 7.88671 134.418 7.88671C134.758 7.88671 135.408 7.57668 135.848 7.22668L136.698 6.56664L135.778 6.73669C135.268 6.83669 134.958 7.08671 135.068 7.25671C135.168 7.42671 134.968 7.39669 134.558 7.11669C133.908 6.69669 133.878 6.63674 134.358 6.28674C134.768 5.97674 134.798 5.83665 134.458 5.69665C134.218 5.62665 134.458 5.55667 135.038 5.59667C135.578 5.62667 136.198 5.7367 136.398 5.8767C136.668 6.0467 138.068 6.01663 139.288 5.80663C139.388 5.80663 139.218 5.63666 138.948 5.45666C138.508 5.17666 138.508 5.10668 139.018 5.10668C139.428 5.10668 139.558 4.8967 139.458 4.3767C139.358 3.9567 139.428 3.75668 139.558 3.85668C139.798 4.13668 139.828 4.30669 139.928 5.23669C139.928 5.51669 140.368 5.82667 140.878 5.96667C141.418 6.06667 142.098 6.44668 142.408 6.72668C142.778 7.07668 143.018 7.14672 143.018 6.89672C143.018 6.64672 142.848 6.47668 142.608 6.47668C142.408 6.47668 142.298 6.37672 142.438 6.26672C142.808 5.88672 144.108 6.5067 143.898 6.9967C143.828 7.2367 144.098 7.82664 144.548 8.31664C145.028 8.76664 145.768 9.97672 146.248 11.0167C146.688 12.0567 147.098 12.7167 147.098 12.4667C147.098 12.2167 147.338 12.1167 147.638 12.2567C148.148 12.4267 148.148 12.4967 147.638 12.7767C146.818 13.2267 146.958 13.6767 148.148 14.2667C149.138 14.8167 149.238 15.3066 148.348 15.3066C148.108 15.3066 147.908 15.6566 147.838 16.0666C147.738 16.7266 147.868 16.7967 148.588 16.6567C149.068 16.5867 149.468 16.6266 149.468 16.7966C149.468 16.9366 149.778 17.0767 150.148 17.0767C150.518 17.0767 150.828 16.9366 150.828 16.7966C150.828 16.6566 151.098 16.5167 151.408 16.5167C151.888 16.5167 151.818 16.3466 151.098 15.6866C150.148 14.8866 150.108 14.3366 151.028 14.6866C151.708 14.9266 151.608 14.5867 150.788 13.7867C150.378 13.4067 150.248 13.0566 150.448 12.9166C150.618 12.7766 150.688 12.4367 150.588 12.0867C150.418 11.6367 150.448 11.5667 150.858 11.8467C151.128 12.0167 151.098 11.9467 150.758 11.6067C150.418 11.2967 150.278 10.9866 150.488 10.9166C151.168 10.7066 149.778 9.21665 148.988 9.32665C148.548 9.35665 147.968 9.15667 147.658 8.84667C146.878 8.04667 146.948 7.77662 147.798 8.04662C149.328 8.52662 149.188 6.97671 147.658 6.38671C147.348 6.28671 147.078 5.9367 147.078 5.6267C147.078 5.1067 146.708 4.96665 145.748 5.07665C145.508 5.14665 145.408 5.00662 145.548 4.79662C145.648 4.55662 145.548 4.5167 145.238 4.6267C144.898 4.7667 144.628 4.5967 144.488 4.2467C144.348 3.9367 144.048 3.76669 143.808 3.86669C143.498 3.96669 143.328 3.83669 143.328 3.48669C143.328 3.03669 143.228 3.00664 142.918 3.31664C142.648 3.59664 142.378 3.59671 142.138 3.38671C141.898 3.17671 141.318 3.00667 140.808 2.96667C140.328 2.93667 139.928 2.75669 139.928 2.61669C139.928 2.47669 139.418 2.40668 138.808 2.47668L138.838 2.48669ZM137.958 4.77673C138.128 4.77673 138.198 4.9167 138.098 5.1267C137.998 5.2967 137.828 5.47668 137.728 5.47668C137.658 5.47668 137.588 5.3067 137.588 5.1267C137.588 4.9167 137.758 4.77673 137.958 4.77673ZM146.218 5.11669C146.288 5.11669 146.418 5.35671 146.558 5.63671C146.658 5.91671 146.588 6.15673 146.418 6.15673C146.218 6.15673 146.078 5.91671 146.078 5.63671C146.078 5.35671 146.148 5.11669 146.218 5.11669ZM144.858 5.77673C144.998 5.94673 144.758 6.01662 144.378 5.91662C144.008 5.81662 143.698 5.67668 143.698 5.60668C143.698 5.32668 144.688 5.46673 144.858 5.77673ZM146.078 6.50671C146.248 6.50671 146.418 6.64668 146.418 6.85668C146.418 7.02668 146.248 7.20666 146.078 7.20666C145.878 7.20666 145.738 7.03668 145.738 6.85668C145.738 6.64668 145.878 6.50671 146.078 6.50671ZM148.258 11.0067C148.798 11.1767 148.838 11.2866 148.398 11.4266C148.128 11.5666 147.688 11.5267 147.478 11.3567C146.868 10.9767 147.478 10.6967 148.258 11.0067ZM149.648 13.7667C149.718 13.7667 149.888 13.9067 149.988 14.1167C150.088 14.2867 149.958 14.4667 149.648 14.4667C149.338 14.4667 149.208 14.2967 149.308 14.1167C149.408 13.9067 149.578 13.7667 149.648 13.7667Z" fill="#F6ED36"/>
<path fill-rule="evenodd" clip-rule="evenodd" d="M52.9082 2.69568C52.9082 2.86568 52.7382 3.04565 52.5682 3.04565C52.3682 3.04565 52.2282 2.87568 52.2282 2.69568C52.2282 2.48568 52.3682 2.3457 52.5682 2.3457C52.7382 2.3457 52.9082 2.48568 52.9082 2.69568Z" fill="#F6ED36"/>
<path fill-rule="evenodd" clip-rule="evenodd" d="M114.458 3.10596C114.458 3.24596 114.188 3.38589 113.848 3.41589C113.538 3.41589 113.438 3.51594 113.678 3.58594C114.258 3.82594 113.818 4.76599 113.138 4.76599C112.828 4.76599 112.728 4.66596 112.938 4.48596C113.108 4.34596 113.278 4.0359 113.308 3.7959C113.378 2.9259 113.448 2.7959 113.958 2.7959C114.228 2.7959 114.468 2.93596 114.468 3.10596H114.458Z" fill="#F6ED36"/>
<path fill-rule="evenodd" clip-rule="evenodd" d="M115.748 3.90613C116.118 4.35613 116.088 4.42603 115.548 4.42603C115.208 4.42603 114.898 4.18613 114.898 3.90613C114.898 3.24613 115.168 3.24613 115.748 3.90613Z" fill="#F6ED36"/>
<path fill-rule="evenodd" clip-rule="evenodd" d="M116.598 5.49635C116.358 5.73635 116.088 5.84634 115.988 5.73634C115.888 5.62634 116.058 5.4263 116.398 5.3163C116.878 5.1063 116.908 5.14634 116.598 5.48634V5.49635Z" fill="#F6ED36"/>
<path fill-rule="evenodd" clip-rule="evenodd" d="M108.848 6.50623C108.948 6.67623 108.818 6.8562 108.538 6.8562C108.228 6.8562 107.998 6.68623 107.998 6.50623C107.998 6.29623 108.138 6.15625 108.308 6.15625C108.508 6.15625 108.748 6.29623 108.848 6.50623Z" fill="#F6ED36"/>
<path fill-rule="evenodd" clip-rule="evenodd" d="M72.5282 6.67638C73.1782 7.40638 73.0682 7.6064 72.2882 7.1964C71.9182 6.9864 71.6082 6.67646 71.6082 6.50646C71.6082 6.02646 72.0482 6.08638 72.5282 6.67638Z" fill="#F6ED36"/>
<path fill-rule="evenodd" clip-rule="evenodd" d="M132.068 10.4862C132.408 10.9062 132.408 11.0062 131.998 11.0062C131.758 11.0062 131.458 10.7662 131.318 10.4862C131.078 9.82621 131.488 9.82621 132.068 10.4862Z" fill="#F6ED36"/>
<path fill-rule="evenodd" clip-rule="evenodd" d="M130.578 10.4858C130.438 10.7658 130.338 11.0059 130.268 11.0059C130.198 11.0059 130.098 10.7658 129.958 10.4858C129.858 10.1758 129.958 9.96582 130.268 9.96582C130.578 9.96582 130.678 10.1758 130.578 10.4858Z" fill="#F6ED36"/>
<path fill-rule="evenodd" clip-rule="evenodd" d="M87.5982 16.1959C87.9082 16.4059 87.9382 16.5458 87.6982 16.5458C87.4982 16.5458 87.1882 16.3759 87.0882 16.1959C86.8182 15.7759 86.9482 15.7759 87.5982 16.1959Z" fill="#F6ED36"/>
<path fill-rule="evenodd" clip-rule="evenodd" d="M64.4682 16.506C64.1282 16.746 64.0982 16.886 64.3682 16.886C64.6082 16.886 64.8082 17.0259 64.8082 17.1659C64.8082 17.3359 64.6082 17.476 64.3282 17.476C63.7182 17.476 63.8482 16.436 64.4982 16.266C64.8682 16.166 64.8682 16.236 64.4682 16.506Z" fill="#F6ED36"/>
</svg>

