<svg width="61" height="34" viewBox="0 0 61 34" fill="none" xmlns="http://www.w3.org/2000/svg">
<path d="M23.8201 13.3396L19.2001 9.72961L20.67 9.37964L20.8101 7.97961C18.7801 7.90961 13.19 7.93959 4.13 8.07959L3.92004 11.6896L0 10.7096L0.48999 9.40955L0.800049 3.97961C3.91005 3.90961 7.24002 3.8796 10.77 3.8396V2.04956L10.74 1.13965L14.62 1.27954L14.4801 2.18958L14.38 3.79956L24.8401 3.8396L23.8301 13.3296L23.8201 13.3396ZM22.4601 23.8396C21.9401 23.6996 21.4801 23.6296 21.0601 23.6296C19.3501 23.5996 17.6301 23.5996 15.9501 23.5996C16.8601 24.3296 18.0501 25.2796 19.5901 26.5096C19.7601 26.6496 20.2901 26.8596 21.2301 27.1396L18.6801 32.4596C18.3701 31.9996 17.88 31.4096 17.28 30.6396C16.86 30.1096 15.2501 28.3596 12.4501 25.3896C10.8801 28.3996 8.81001 30.9896 6.26001 33.0596L4.13 27.9095C4.55 27.8095 5.11006 27.6996 5.81006 27.5596C7.35006 26.1596 8.49999 24.8596 9.23999 23.6696L3.40002 23.7695C3.19002 23.8095 2.84003 23.8695 2.28003 24.0195L2.03003 19.6396L3.04004 19.7795C4.61004 19.7395 7.13006 19.7096 10.5601 19.7096V18.6595C9.79006 18.6595 8.32009 18.6896 6.22009 18.7596C6.08009 18.7896 5.7701 18.8296 5.3501 18.9296L5.14001 15.3896C5.56001 15.4196 5.87008 15.4596 6.08008 15.4596L10.5601 15.4196V14.2996C8.67006 14.3396 7.03007 14.3695 5.70007 14.3995C5.32007 14.4695 5.00001 14.5396 4.76001 14.6096L4.52002 10.5796L5.67004 10.6495L10.5701 10.6896V9.56958L10.5 8.61963L14.42 8.68958L14.28 9.70959V10.6595L18.76 10.6196C19.21 10.6196 19.6001 10.5895 19.9501 10.5195L19.67 14.4796C19.15 14.3396 18.8001 14.2695 18.5901 14.2695H14.29V15.3896H18.24C18.34 15.3896 18.66 15.3896 19.15 15.3496L18.9401 18.7795C18.4901 18.6795 16.91 18.6096 14.29 18.6096V19.6896H21.5601C21.7001 19.6596 22.12 19.6196 22.75 19.5496L22.4701 23.8196L22.4601 23.8396Z" fill="#58778D"/>
<path d="M40.3201 20.5499V30.5599L35.8101 27.0199L37.1001 25.86L37.24 20.5399H34.02C33.92 20.5399 33.7701 20.54 33.6001 20.58C33.4301 20.61 33.2901 20.6499 33.1801 20.6499L33.0801 16.62C33.5001 16.65 33.78 16.6899 33.88 16.6899H34.4401L36.2201 14.2699C35.2801 13.5699 33.9801 12.6199 32.3401 11.4299C33.6001 9.42993 35.1701 6.83991 37.0601 3.65991L37.3 2.95996L40.38 4.98999L39.9601 5.51001C39.4401 6.35001 38.4901 7.88994 37.2001 10.0599C37.5801 10.3699 38 10.69 38.53 11.01C39.23 9.96001 39.79 9.08 40.17 8.38C40.24 8.28 40.41 7.99992 40.66 7.53992L43.6001 9.28992C43.3201 9.56992 43.08 9.88995 42.87 10.2C40.95 13.18 39.5101 15.3499 38.6001 16.6799H40.87C40.63 15.4899 40.4501 14.6499 40.3101 14.1899L43.0701 13.63C43.1701 14.19 43.3501 15.17 43.5901 16.61L44.01 16.5699L44.0801 20.46L40.3 20.5299L40.3201 20.5499ZM36.27 22.83L34.8 27.0699L32.9801 26.0499L33.4 22.23L33.4401 21.4199L36.55 22.33L36.27 22.8199V22.83ZM44.4501 22.8999L43.02 25.98L40.9601 24.96L41.76 22.34L41.9 21.39L44.7301 22.37L44.4501 22.89V22.8999ZM60.29 13.2699C59.91 13.1299 59.5201 13.0599 59.1001 13.0599C54.2701 12.9599 49.7601 12.99 45.5701 13.13C45.1501 13.2 44.8401 13.27 44.5601 13.34L44.42 9.79993C44.52 9.82993 44.8 9.8699 45.29 9.8999L50.6801 9.82996V8.91992H47.39L46.66 9.08997L46.5601 5.93994L47.4301 6.03992H50.6801V5.13C49.3201 5.17 47.88 5.19995 46.38 5.19995C46.21 5.19995 45.8901 5.27 45.4701 5.37L45.2301 1.54993C45.8201 1.64993 46.17 1.68994 46.28 1.68994L50.7201 1.6499L50.6801 0.839966L50.61 0L54.28 0.0999756L54.14 0.97998V1.60999H58.65C58.86 1.56999 59.2101 1.54001 59.7001 1.51001L59.42 5.26001C59.14 5.19001 58.79 5.15997 58.37 5.08997H54.1001V6.02991H57.25L58.1901 5.92993L57.9801 9.04993L57.2101 8.88L54.1001 8.91992V9.79993C56.0201 9.79993 57.77 9.82996 59.38 9.82996C59.59 9.79996 59.97 9.75994 60.53 9.68994L60.29 13.26V13.2699ZM57.2201 32.6599C56.1401 31.3299 54.6701 29.4399 52.8101 27.0199H51.7301C50.2601 29.7199 48.65 31.71 46.87 32.97L45.16 28.5599C45.65 28.5299 46.0701 28.46 46.3501 28.39C46.9401 27.9 47.4701 27.4399 47.8501 27.0599H46.8401L46.42 14H58.5901L58.52 14.6699L58.24 27.0299L56.8401 26.99L58.4801 28.5299C58.6201 28.6299 58.9301 28.8099 59.4601 29.0199L57.2201 32.6599ZM49.91 16.88V17.8999H55.0901L55.13 16.88H49.92H49.91ZM49.9801 20.0599V21.08H55.02L55.05 20.0599H49.9801ZM50.05 23.25V24.1899H54.91L54.9401 23.25H50.04H50.05Z" fill="#58778D"/>
</svg>

