<svg width="176" height="32" viewBox="0 0 176 32" fill="none" xmlns="http://www.w3.org/2000/svg">
<path d="M11.76 22.9504L9.38 21.3704C9.34 21.8304 9.33997 25.0804 9.33997 31.1704L4.37 27.3904C4.60999 27.2204 5.03 26.8304 5.63 26.2704C5.67 25.1904 5.69998 23.7904 5.72998 22.0004C4.85998 23.1904 3.69997 24.5203 2.33997 25.9603L0 21.0903C0.94 20.8403 1.46995 20.6703 1.56995 20.6003C3.10995 19.1603 4.47003 17.6604 5.66003 16.0104L2.93005 16.0504L1.88 16.2604L1.67004 11.3204L2.71997 11.4603L5.82996 11.4204L5.76001 4.84033C5.72001 4.66033 5.72006 4.35042 5.69006 3.93042L9.43005 4.07043C9.33005 4.74043 9.29004 5.12043 9.29004 5.19043L9.31995 11.3503L11.8 11.3104L12.74 11.2404L12.49 16.0704L11.48 15.9304L9.34998 15.9603V16.6604C10.01 17.0504 10.85 17.4703 11.8 17.8503L13.0601 18.1003L11.73 22.9304L11.76 22.9504ZM1.79004 9.19043C1.48004 6.98043 1.27 5.55041 1.13 4.92041L4.58997 4.61035C4.65997 5.38035 4.73 6.75036 4.87 8.74036L1.79004 9.20044V9.19043ZM13.02 9.33032L10.15 8.59033C10.32 7.65033 10.57 6.32042 10.92 4.56042L14.24 5.30042C14.03 6.07042 13.61 7.40032 13.02 9.33032ZM28.0601 24.2404C27.8101 24.2004 27.36 24.1304 26.7 23.9904C26.25 23.9904 25.62 24.0204 24.78 24.0204C24.74 25.3204 24.68 27.7304 24.61 31.3004L19.99 28.0803C20.55 27.4803 20.8999 27.0603 21.0699 26.7103C21.0699 26.0803 21.1 25.1704 21.14 24.0104L15.3 24.2604C15.12 24.3004 14.78 24.4004 14.25 24.5704L14 19.3904C14.8 19.4204 15.15 19.4204 15.05 19.4204L21.24 19.3204C21.27 16.6204 21.34 11.6204 21.45 4.30042C21.45 4.20042 21.45 3.84035 21.41 3.36035L25.5 3.50037C25.43 3.78037 25.36 4.09043 25.33 4.44043C25.23 8.29043 25.09 13.2303 24.91 19.2103C26.1 19.2103 26.94 19.1804 27.39 19.1404L28.4 19.0404L28.05 24.2203L28.0601 24.2404ZM18.3 18.3904C17.53 17.4804 16.27 16.0104 14.52 13.9404L16.65 11.6704C17.63 12.6104 18.5 13.3804 19.34 14.0204C19.55 14.1904 19.93 14.3704 20.49 14.6204L18.29 18.4004L18.3 18.3904ZM18.62 11.3604C17.82 10.4104 16.56 8.9404 14.84 6.9104L16.9 4.64038C17.88 5.55038 18.79 6.32036 19.63 6.99036C19.8 7.13036 20.19 7.30032 20.78 7.58032L18.61 11.3604H18.62Z" fill="#58778D"/>
<path d="M60.1901 16.61C59.9801 16.36 59.49 15.91 58.79 15.21L58.72 15.14C58.2 14.68 57.11 13.81 55.54 12.51L55.4 14.86C54.95 14.72 54.56 14.65 54.25 14.65L50.9301 14.62L50.89 16.23H55.37C55.55 16.19 55.86 16.16 56.35 16.13L56.04 20.86C55.62 20.76 55.24 20.72 54.92 20.72C53.28 20.68 51.91 20.6801 50.86 20.6801L50.79 26.5601H55.9C56.28 26.4901 56.77 26.46 57.33 26.42L56.98 31.25C56.67 31.18 56.18 31.11 55.58 31.04C53.76 30.97 51.24 30.94 48.1 31L41.87 31.1C41.59 31.14 41.2101 31.24 40.6801 31.38L40.26 26.4401C40.54 26.4401 40.92 26.48 41.41 26.54H47.04L47.0699 20.66C45.2199 20.66 43.57 20.7 42.14 20.76C41.97 20.76 41.69 20.8301 41.23 20.9401L40.92 16.1801C41.44 16.1801 41.76 16.22 41.9 16.22H47.15V14.5701C45.65 14.5701 44.25 14.61 42.92 14.67C42.75 14.67 42.47 14.74 42.08 14.88L41.98 12.4301C40.34 13.8001 38.48 15.16 36.45 16.49L34.84 10.64C35.08 10.64 35.68 10.6 36.55 10.5C38.65 9.24 40.68 7.73002 42.67 6.02002C44.91 4.09002 46.62 2.27002 47.85 0.52002C47.89 0.42002 47.99 0.24 48.16 0L51.45 2.28003C51.31 2.45003 51.14 2.66 50.96 2.87C50.82 3.01 50.68 3.21997 50.54 3.46997C53.16 5.35997 56.45 7.50003 60.4 9.91003C60.75 10.09 61.4499 10.3 62.5699 10.58L60.1901 16.6V16.61ZM41.62 25.78C41.37 23.68 41.24 22.35 41.1 21.75L44.7 21.4401C44.73 22.2101 44.77 23.58 44.84 25.47L41.62 25.78ZM48.09 6.48999C47.04 7.74999 45.8501 8.98007 44.5601 10.2001L52.5699 10.16C51.7299 9.46003 50.26 8.22998 48.09 6.47998V6.48999ZM56.03 25.92L52.85 25.67C52.89 24.69 52.92 23.29 52.99 21.5L56.66 21.67C56.52 22.48 56.31 23.88 56.03 25.91V25.92Z" fill="#58778D"/>
<path d="M85.1901 17.7596C84.6001 18.3196 83.9 18.5996 83.09 18.5996C82.28 18.5996 81.59 18.3196 80.99 17.7596C80.43 17.1696 80.15 16.4997 80.15 15.6597C80.15 14.8197 80.43 14.1597 80.99 13.5597C81.58 12.9597 82.28 12.6797 83.09 12.6797C83.9 12.6797 84.5901 12.9597 85.1901 13.5597C85.7501 14.1597 86.03 14.8497 86.03 15.6597C86.03 16.4697 85.7501 17.1696 85.1901 17.7596Z" fill="#58778D"/>
<path d="M119.67 9.5C119.29 9.43 118.62 9.29006 117.71 9.19006C116.28 9.12006 114.74 9.12 113.09 9.12C111.44 9.12 109.73 9.12006 107.88 9.19006V13.5H117.85C118.1 13.5 118.65 13.43 119.53 13.29L119.29 19.28C118.84 19.18 118.17 19.0701 117.26 18.9301C115.86 18.8901 114.39 18.86 112.82 18.86C111.25 18.86 109.6 18.8901 107.89 18.9301V27.33L108.27 28.84H103.69L103.97 27.4401L103.8 3.70996C107.26 3.63996 112.09 3.64004 118.28 3.67004C118.56 3.67004 119.08 3.59996 119.96 3.45996L119.68 9.52002L119.67 9.5Z" fill="#58778D"/>
<path d="M144.14 29.8402L143.79 28.2603L142.04 23.8103H132.11L130.61 28.7803L130.47 30.3903L125.19 28.2502L126.31 27.1302L133.9 4.76025L133.59 3.57031H139.33L138.98 4.86023L147.79 26.3903L148.66 27.6202L144.15 29.8302L144.14 29.8402ZM136.45 9.57031L133.76 18.2903H139.85L136.46 9.57031H136.45Z" fill="#58778D"/>
<path d="M173.59 29.5303C173.31 29.2503 172.89 28.8602 172.33 28.3802C171.77 27.9902 171.11 27.5403 170.41 27.0103C168.7 28.5103 166.6 29.3203 164.04 29.4303C160.61 29.5303 157.99 28.1703 156.17 25.3003C154.7 22.9503 153.93 19.9403 153.86 16.3003C153.79 12.7003 154.56 9.68021 156.13 7.34021C157.95 4.61021 160.61 3.24023 164.03 3.24023C167.45 3.24023 170.26 4.54032 171.97 7.20032C173.44 9.44032 174.17 12.4203 174.17 16.2003C174.17 18.7603 173.82 21.0003 173.12 22.8903L174.03 23.4802C174.27 23.5902 174.76 23.7602 175.57 23.9702L173.58 29.5403L173.59 29.5303ZM168.9 10.8003C167.82 9.29029 166.21 8.56021 164.04 8.59021C161.94 8.63021 160.33 9.40031 159.21 10.9403C158.23 12.3103 157.74 14.0903 157.74 16.2603C157.77 18.4303 158.26 20.2503 159.24 21.6903C160.39 23.3703 162 24.2102 164.07 24.2102C164.73 24.2102 165.4 24.1102 166.03 23.8602C165.12 23.2302 164 22.3903 162.67 21.4403L164.45 17.5203C164.69 17.7303 166.37 18.7502 169.38 20.6002C169.97 19.3102 170.29 17.8303 170.29 16.1903C170.29 13.9203 169.8 12.1303 168.89 10.8003H168.9Z" fill="#58778D"/>
</svg>

