<svg width="97" height="32" viewBox="0 0 97 32" fill="none" xmlns="http://www.w3.org/2000/svg">
<path d="M11.76 22.9296L9.38 21.3496C9.34 21.8096 9.33997 25.0596 9.33997 31.1496L4.37 27.3696C4.62 27.1996 5.03 26.8096 5.63 26.2496C5.67 25.1696 5.69998 23.7696 5.72998 21.9796C4.85998 23.1696 3.69997 24.4996 2.33997 25.9396L0 21.0696C0.94 20.8196 1.47001 20.6496 1.57001 20.5796C3.11001 19.1396 4.46997 17.6396 5.65997 15.9896L2.92999 16.0296L1.88 16.2396L1.66998 11.2996L2.71997 11.4396L5.82996 11.3996L5.76001 4.81961C5.72001 4.64961 5.72 4.32961 5.69 3.90961L9.42999 4.04962C9.32999 4.71962 9.28998 5.09962 9.28998 5.16962L9.32996 11.3296L11.81 11.2896L12.76 11.2196L12.51 16.0496L11.5 15.9096L9.37 15.9396V16.6396C10.03 17.0296 10.87 17.4496 11.82 17.8296L13.08 18.0796L11.75 22.9096L11.76 22.9296ZM1.79999 9.16962C1.48999 6.95962 1.28001 5.5296 1.14001 4.8996L4.59998 4.57962C4.66998 5.34962 4.74001 6.71959 4.88 8.70959L1.79999 9.16962ZM13.02 9.3096L10.15 8.56961C10.32 7.62961 10.57 6.29961 10.92 4.53961L14.24 5.2796C14.03 6.0496 13.61 7.3796 13.02 9.3096ZM28.06 24.2196C27.81 24.1796 27.36 24.1096 26.69 23.9696C26.24 23.9696 25.61 23.9996 24.77 23.9996C24.73 25.2996 24.67 27.7096 24.6 31.2796L19.98 28.0596C20.54 27.4696 20.89 27.0496 21.06 26.6896C21.06 26.0596 21.09 25.1496 21.13 23.9896L15.29 24.2396C15.11 24.2796 14.76 24.3796 14.24 24.5596L13.99 19.3796C14.79 19.4196 15.14 19.4196 15.04 19.4196L21.23 19.3096C21.27 16.6096 21.34 11.6096 21.44 4.28961C21.44 4.18961 21.44 3.82961 21.4 3.34961L25.49 3.48959C25.42 3.76959 25.35 4.07961 25.32 4.43961C25.21 8.28961 25.08 13.2296 24.9 19.2096C26.09 19.2096 26.93 19.1696 27.38 19.1396L28.39 19.0396L28.04 24.2196H28.06ZM18.31 18.3796C17.54 17.4696 16.28 15.9996 14.53 13.9296L16.66 11.6596C17.64 12.5996 18.51 13.3696 19.35 13.9996C19.56 14.1696 19.94 14.3496 20.5 14.5996L18.3 18.3796H18.31ZM18.62 11.3396C17.82 10.3896 16.56 8.91962 14.84 6.88962L16.9 4.60962C17.88 5.51962 18.79 6.28959 19.63 6.95959C19.81 7.09959 20.19 7.26962 20.78 7.54962L18.61 11.3296L18.62 11.3396Z" fill="#58778D"/>
<path d="M94.4601 16.59C94.2501 16.34 93.7601 15.89 93.0601 15.19L92.9901 15.12C92.4601 14.66 91.3801 13.79 89.8101 12.5L89.6701 14.84C89.2101 14.7 88.8301 14.63 88.5201 14.63L85.2001 14.6L85.1601 16.21H89.6401C89.8101 16.17 90.1301 16.14 90.6201 16.11L90.3101 20.84C89.8901 20.73 89.5101 20.7 89.1901 20.7C87.5501 20.66 86.1801 20.66 85.1301 20.66L85.0601 26.54H90.1701C90.5501 26.47 91.0401 26.44 91.6001 26.4L91.2501 31.23C90.9301 31.16 90.4501 31.09 89.8501 31.02C88.0301 30.95 85.5101 30.92 82.3701 30.98L76.1501 31.09C75.8701 31.13 75.4901 31.23 74.9601 31.37L74.5401 26.43C74.8201 26.43 75.2101 26.47 75.6901 26.53H81.3201L81.3601 20.65C79.5101 20.65 77.8601 20.69 76.4301 20.76C76.2601 20.76 75.9801 20.83 75.5201 20.93L75.2001 16.17C75.7201 16.17 76.0401 16.21 76.1801 16.21H81.4301V14.57C79.9301 14.57 78.5301 14.61 77.2001 14.67C77.0301 14.67 76.7501 14.74 76.3601 14.88L76.2601 12.43C74.6201 13.8 72.7601 15.16 70.7301 16.49L69.1201 10.64C69.3601 10.64 69.9601 10.6 70.8301 10.5C72.9301 9.24 74.9601 7.73002 76.9501 6.02002C79.1901 4.09002 80.9001 2.27002 82.1301 0.52002C82.1701 0.42002 82.2701 0.24 82.4401 0L85.7301 2.28C85.5901 2.45 85.4201 2.66 85.2401 2.87C85.1001 3.01 84.9601 3.21999 84.8201 3.45999C87.4401 5.34999 90.7301 7.48999 94.6801 9.89999C95.0301 10.08 95.7301 10.29 96.8501 10.57L94.4701 16.59H94.4601ZM75.8901 25.76C75.6401 23.66 75.5101 22.33 75.3601 21.73L78.9601 21.41C78.9901 22.18 79.0301 23.55 79.1001 25.44L75.8801 25.76H75.8901ZM82.3601 6.48001C81.3101 7.74001 80.1201 8.97 78.8301 10.19L86.8401 10.15C86.0001 9.44999 84.5301 8.23001 82.3601 6.48001ZM90.3001 25.9L87.1201 25.65C87.1601 24.67 87.1901 23.27 87.2601 21.48L90.9301 21.65C90.7901 22.45 90.5801 23.86 90.3001 25.89V25.9Z" fill="#58778D"/>
</svg>
