<?xml version="1.0" encoding="UTF-8" standalone="no"?>
<!-- Created with Inkscape (http://www.inkscape.org/) -->

<svg
   width="72mm"
   height="10mm"
   viewBox="4 5 73 9"
   version="1.1"
   id="svg22970"
   inkscape:version="1.1.2 (0a00cf5339, 2022-02-04)"
   sodipodi:docname="text_AboutDonati.svg"
   xmlns:inkscape="http://www.inkscape.org/namespaces/inkscape"
   xmlns:sodipodi="http://sodipodi.sourceforge.net/DTD/sodipodi-0.dtd"
   xmlns="http://www.w3.org/2000/svg"
   xmlns:svg="http://www.w3.org/2000/svg">
  <sodipodi:namedview
     id="namedview22972"
     pagecolor="#ffffff"
     bordercolor="#666666"
     borderopacity="1.0"
     inkscape:pageshadow="2"
     inkscape:pageopacity="0.0"
     inkscape:pagecheckerboard="0"
     inkscape:document-units="mm"
     showgrid="false"
     inkscape:zoom="0.64052329"
     inkscape:cx="397.33138"
     inkscape:cy="561.25984"
     inkscape:window-width="1850"
     inkscape:window-height="988"
     inkscape:window-x="282"
     inkscape:window-y="220"
     inkscape:window-maximized="0"
     inkscape:current-layer="layer1" />
  <defs
     id="defs22967" />
  <g
     inkscape:label="Layer 1"
     inkscape:groupmode="layer"
     id="layer1">
    <path
       class="cls-30"
       d="M 10.462456,11.995209 C 9.9782688,12.397375 9.2665396,12.614334 8.3457896,12.646084 H 5.6629151 c -0.103188,0 -0.145521,-0.04233 -0.145521,-0.145521 L 5.8375396,5.658438 C 5.8481226,5.565834 5.8983936,5.5129172 6.0015813,5.5129172 h 2.9104166 c 1.000125,0 1.7118541,0.3518958 2.1563541,1.031875 0.381,0.5767916 0.547688,1.3626041 0.515938,2.341562 -0.05027,1.4763748 -0.433917,2.5082498 -1.12448,3.1062088 z M 8.4092896,6.5686047 H 7.737248 c -0.092604,0 -0.1455209,0.050271 -0.1534584,0.1534583 l -0.2169583,4.714875 c 0,0.0926 0.052917,0.145521 0.1534583,0.153458 0.1640417,0 0.3413125,-0.01058 0.5265209,-0.01058 0.5979583,-0.02117 1.0212916,-0.216959 1.2699999,-0.576792 C 9.5946229,10.611441 9.7507271,9.8997122 9.7904146,8.8784202 9.8512686,7.3517743 9.3988313,6.5871285 8.4066438,6.5659618 Z"
       id="path34034"
       style="fill:#65b7ec;stroke-width:0.264583" />
    <path
       class="cls-30"
       d="m 18.84181,11.635375 c -0.597958,0.764646 -1.486958,1.145646 -2.651125,1.145646 -1.031875,0 -1.807104,-0.259292 -2.312458,-0.754062 -0.537104,-0.537105 -0.804333,-1.383771 -0.804333,-2.5479378 0,-0.134937 0.01058,-0.288396 0.01058,-0.4445 0.08202,-1.4763749 0.505354,-2.5082499 1.259416,-3.0850415 0.537104,-0.4233333 1.309688,-0.6297083 2.323042,-0.6297083 2.010833,0 3.024187,1.1138958 3.024187,3.3443328 0,0.174625 -0.01058,0.359834 -0.02117,0.547688 -0.06085,1.0107078 -0.341312,1.8150418 -0.825499,2.4262288 z M 17.727915,8.3227922 c 0,-0.6614584 -0.08202,-1.1350625 -0.248709,-1.4234584 C 17.304581,6.6003547 17.005602,6.436313 16.571685,6.436313 c -0.49477,-0.010583 -0.846666,0.1534583 -1.053041,0.4841875 -0.238125,0.381 -0.391584,1.0927292 -0.455084,2.1351877 -0.02117,0.227541 -0.02117,0.433916 -0.02117,0.619125 0,0.6614578 0.0926,1.1562288 0.267229,1.4657908 0.185208,0.33073 0.494771,0.494771 0.928687,0.494771 0.484188,0 0.836084,-0.174625 1.053042,-0.547687 0.216958,-0.359834 0.351896,-1.031875 0.41275,-1.9923128 0.01058,-0.288396 0.02117,-0.547687 0.02117,-0.772583 z"
       id="path34036"
       style="fill:#65b7ec;stroke-width:0.264583" />
    <path
       class="cls-30"
       d="m 27.491039,12.492625 c -0.01058,0.103188 -0.06085,0.145521 -0.153458,0.145521 l -1.166813,-0.01058 c -0.103187,0 -0.185208,-0.03175 -0.248708,-0.113771 L 22.773519,8.2725213 c -0.01058,-0.021167 -0.03175,-0.021167 -0.05027,-0.021167 -0.02117,0.010583 -0.04233,0.03175 -0.04233,0.050271 l -0.288396,4.1883537 c 0,0.103188 -0.05292,0.145521 -0.145521,0.145521 h -0.939271 c -0.103187,0 -0.145521,-0.04233 -0.145521,-0.145521 l 0.41275,-6.8527076 c 0.01058,-0.092604 0.06085,-0.1349375 0.153458,-0.1349375 l 1.084792,-0.010583 c 0.103188,0 0.185208,0.042333 0.238125,0.1137709 l 3.259667,4.2915418 c 0.02117,0.02117 0.04233,0.03175 0.06085,0.02117 0.03175,0 0.04233,-0.02117 0.04233,-0.04233 l 0.267229,-4.2412707 c 0.01058,-0.092604 0.06085,-0.1455208 0.164042,-0.1455208 l 0.907521,0.010583 c 0.103187,0 0.145521,0.042333 0.145521,0.1349375 l -0.41275,6.8527088 z"
       id="path34038"
       style="fill:#65b7ec;stroke-width:0.264583" />
    <path
       class="cls-30"
       d="m 36.055602,12.6355 h -1.796521 c -0.103188,0 -0.164042,-0.04233 -0.195792,-0.145521 l -0.248708,-0.814916 c -0.03175,-0.08202 -0.0926,-0.124354 -0.195792,-0.124354 h -2.579687 c -0.0926,0 -0.153459,0.04233 -0.195792,0.124354 l -0.341312,0.8255 c -0.04233,0.0926 -0.103188,0.134937 -0.206375,0.134937 h -1.12448 c -0.103187,0 -0.134937,-0.04233 -0.0926,-0.134937 l 3.053292,-6.873875 c 0.04233,-0.082021 0.113771,-0.1243541 0.206375,-0.1243541 h 1.248833 c 0.0926,0 0.164042,0.042333 0.185209,0.1349375 l 2.383895,6.8527076 c 0.02117,0.103188 -0.01058,0.145521 -0.103187,0.145521 z M 32.586914,7.7036672 c -0.01058,-0.021167 -0.02117,-0.03175 -0.05027,-0.03175 -0.02117,0 -0.04233,0.010583 -0.05027,0.03175 l -1.084792,2.6220208 c -0.04233,0.0926 -0.01058,0.134937 0.08202,0.134937 h 1.807104 c 0.0926,0 0.134937,-0.04233 0.103187,-0.134937 L 32.58956,7.7036672 Z"
       id="path34040"
       style="fill:#65b7ec;stroke-width:0.264583" />
    <path
       class="cls-30"
       d="m 42.855393,6.4760005 c 0,0.1031875 -0.06085,0.1534583 -0.156104,0.1534583 h -1.558396 c -0.0926,0 -0.145521,0.052917 -0.145521,0.1455209 l -0.351895,5.7176453 c 0,0.103188 -0.05027,0.145521 -0.153459,0.145521 h -1.775354 c -0.103187,0 -0.145521,-0.04233 -0.145521,-0.145521 l 0.351896,-5.7176453 c 0.01058,-0.092604 -0.03175,-0.1455209 -0.134937,-0.1455209 h -1.590146 c -0.103188,0 -0.153459,-0.050271 -0.145521,-0.1534583 l 0.05027,-0.8466666 c 0,-0.092604 0.06085,-0.1455209 0.153458,-0.1455209 h 5.511271 c 0.0926,0 0.145521,0.052917 0.134937,0.1455209 l -0.05027,0.8466666 z"
       id="path34042"
       style="fill:#65b7ec;stroke-width:0.264583" />
    <path
       class="cls-30"
       d="m 46.167977,12.482042 c -0.01058,0.103187 -0.06085,0.153458 -0.153459,0.153458 h -1.537229 c -0.103187,0 -0.145521,-0.05292 -0.145521,-0.153458 l 0.381,-6.8315415 c 0,-0.092604 0.05292,-0.1455208 0.153459,-0.1455208 h 1.537229 c 0.0926,0 0.145521,0.050271 0.145521,0.1455208 z"
       id="path34044"
       style="fill:#65b7ec;stroke-width:0.264583" />
    <path
       class="cls-30"
       d="m 55.341081,8.261938 c -1.063625,0.8255002 -1.878542,1.4869582 -2.434167,1.960562 -0.351896,0.288396 -0.515938,0.597959 -0.515938,0.907521 0.01058,0.298979 0.216959,0.463021 0.608542,0.484188 0.330729,0.02117 0.907521,0 1.743604,-0.05027 0.04233,-0.01058 0.08202,0 0.113771,0.03175 0.02117,0.02117 0.04233,0.06085 0.04233,0.103187 l -0.01058,1.248834 c 0,0.103187 -0.05027,0.153458 -0.145521,0.164041 -0.537104,0.03175 -1.113896,0.05027 -1.743604,0.04233 -0.661458,-0.01058 -1.177396,-0.153459 -1.537229,-0.4445 -0.423333,-0.320146 -0.629708,-0.804334 -0.619125,-1.444625 0.01058,-0.619125 0.309562,-1.23825 0.896937,-1.8362088 0.06086,-0.08202 0.09261,-0.164041 0.08202,-0.256646 L 51.253268,5.6848964 c -0.01058,-0.092604 0.03175,-0.1534584 0.124354,-0.1640417 l 1.299104,-0.2169583 c 0.0926,-0.010583 0.153459,0.03175 0.164042,0.1243541 l 0.402167,2.5294167 c 0.01058,0.03175 0.03175,0.060854 0.06085,0.071438 0.03175,0.010583 0.05027,0.010583 0.08202,-0.021167 0.259291,-0.206375 0.619125,-0.4736042 1.074208,-0.8255 0.07144,-0.060854 0.145521,-0.052917 0.206375,0.021167 l 0.690563,0.85725 c 0.07144,0.082021 0.06085,0.1455208 -0.02117,0.206375 z"
       id="path34046"
       style="fill:#65b7ec;stroke-width:0.264583" />
    <path
       class="cls-30"
       d="m 61.41856,11.727979 -2.209271,0.248709 c -0.0926,0.01058 -0.145521,-0.03175 -0.145521,-0.134938 l -0.02117,-0.608541 c -0.01058,-0.423334 0,-1.135063 0.05027,-2.1563548 L 59.196056,7.023688 c 0,-0.1031875 0.05027,-0.1455208 0.145521,-0.1455208 h 1.394354 c 0.103187,0 0.145521,0.042333 0.145521,0.1455208 -0.04233,0.7117292 -0.08202,1.8362082 -0.134938,3.384021 0,0.0926 0.04233,0.134937 0.145521,0.134937 l 0.473604,-0.05027 c 0.0926,-0.01058 0.134938,0.03175 0.145521,0.134938 l 0.04233,0.949854 c 0.01058,0.0926 -0.04233,0.156104 -0.134937,0.156104 z m 6.172729,-3.5083743 c -0.01058,0.1031875 -0.06085,0.1534583 -0.156104,0.1534583 l -0.836084,0.021166 c -0.0926,0 -0.145521,0.05027 -0.145521,0.164042 l -0.04233,1.021292 c -0.01058,0.103187 0.04233,0.153458 0.134938,0.153458 h 0.597958 c 0.103187,0 0.145521,0.05027 0.145521,0.153458 l -0.06085,0.971021 c -0.01058,0.103188 -0.06085,0.153459 -0.153459,0.153459 l -0.619125,-0.01058 c -0.0926,0 -0.145521,0.05292 -0.153458,0.156104 -0.04233,0.608542 -0.216958,1.113896 -0.537104,1.486959 -0.341313,0.402166 -0.814917,0.619125 -1.402292,0.640291 -0.4445,0.01058 -0.846667,-0.11377 -1.195917,-0.381 -0.423333,-0.320145 -0.640291,-0.772583 -0.619125,-1.35202 0.02117,-1.103313 0.690563,-1.703917 1.992313,-1.796521 0.0926,-0.01058 0.145521,-0.06085 0.156104,-0.164042 l 0.04233,-0.989542 c 0,-0.04233 -0.02117,-0.08202 -0.04233,-0.103187 -0.03175,-0.03175 -0.06085,-0.04233 -0.103187,-0.04233 l -1.217084,0.04233 c -0.04233,0 -0.07144,-0.02117 -0.103187,-0.05292 -0.03175,-0.03175 -0.04233,-0.06085 -0.04233,-0.1031874 l 0.02117,-0.8784167 c 0,-0.1031875 0.05292,-0.1534583 0.153458,-0.1534583 l 1.227667,-0.021167 c 0.0926,0 0.145521,-0.050271 0.156104,-0.1455208 l 0.05027,-1.5372291 c 0.01058,-0.092604 0.06085,-0.1349375 0.153458,-0.1349375 h 1.434042 c 0.103188,0 0.145521,0.052917 0.134938,0.1455208 0,0.2592916 -0.02117,0.7434791 -0.04233,1.4657916 -0.01058,0.042333 0,0.071438 0.03175,0.1031875 0.03175,0.021167 0.06085,0.042333 0.103188,0.042333 l 0.8255,-0.03175 c 0.04233,0 0.07144,0.010583 0.103187,0.042333 0.03175,0.03175 0.04233,0.071438 0.04233,0.1031875 l -0.03175,0.8757708 z m -3.013604,2.8363333 c -0.206375,-0.02117 -0.370417,0.01058 -0.505355,0.0926 -0.164041,0.08202 -0.248708,0.216958 -0.248708,0.41275 0,0.238125 0.134938,0.359833 0.381,0.359833 0.277813,-0.01058 0.41275,-0.277812 0.423333,-0.814916 0,-0.04233 -0.02117,-0.05027 -0.05027,-0.05027 z"
       id="path34048"
       style="fill:#65b7ec;stroke-width:0.264583" />
    <path
       class="cls-30"
       d="m 75.960059,8.3624796 c -0.227541,0.2989796 -0.640291,0.6905626 -1.248833,1.1562296 -0.288396,0.227541 -0.494771,0.5979578 -0.619125,1.1138948 -0.02117,0.103188 -0.08202,0.145521 -0.174625,0.145521 H 72.65806 c -0.103188,0 -0.145521,-0.04233 -0.124355,-0.145521 0.0926,-0.7646448 0.402167,-1.4234578 0.918105,-1.9605618 0.309562,-0.3095626 0.619125,-0.619125 0.928687,-0.9286875 C 74.586872,7.4946463 74.69006,7.2168338 74.69006,6.896688 74.70064,6.3807505 74.433414,6.1135213 73.875143,6.1135213 c -0.732896,0 -1.103313,0.41275 -1.113896,1.23825 0,0.1031875 -0.05292,0.1534584 -0.153458,0.1534584 l -1.352021,0.010583 c -0.03175,0 -0.07144,-0.010583 -0.103188,-0.042333 -0.03175,-0.03175 -0.04233,-0.060854 -0.03175,-0.1031875 0.08202,-1.61925 1.021292,-2.4262292 2.817813,-2.4262292 0.85725,0 1.497542,0.1852084 1.918229,0.5688542 0.381,0.3413125 0.568854,0.8043333 0.558271,1.4022916 0,0.5582709 -0.153459,1.031875 -0.455084,1.444625 z m -1.960562,4.5508334 c 0,0.103187 -0.05027,0.145521 -0.153458,0.145521 h -1.341438 c -0.103187,0 -0.145521,-0.04233 -0.134937,-0.145521 L 72.483435,11.7465 c 0,-0.0926 0.05292,-0.134937 0.14552,-0.134937 h 1.259417 c 0.103188,0 0.153458,0.04233 0.145521,0.134937 l -0.03175,1.166813 z"
       id="path34050"
       style="fill:#65b7ec;stroke-width:0.264583" />
  </g>
</svg>
