<svg width="185" height="45" viewBox="0 0 185 45" fill="none" xmlns="http://www.w3.org/2000/svg">
<path d="M81.8617 39.9277C81.3117 39.7877 80.7917 39.7176 80.3817 39.7176C73.4917 39.5476 67.6317 39.5476 62.8117 39.7476C62.5717 39.7776 62.1217 39.8876 61.4317 40.0876L61.1517 34.9876L62.4917 35.1277C62.0417 35.0977 64.5917 35.0577 70.0717 35.0577L70.1017 33.5077C69.0717 33.5077 67.6917 33.5377 65.9017 33.5377C65.6917 33.5377 65.2117 33.6377 64.4517 33.7777L64.2117 29.3977L65.2417 29.5377L70.1317 29.4676V28.0577C69.1017 28.0577 67.2717 28.0877 64.5817 28.1277C64.1317 29.3377 63.3417 30.8476 62.2017 32.7476L58.9617 28.8576C59.1717 28.6476 59.6117 28.3377 60.2017 27.8277C61.2317 25.8677 61.9917 23.9677 62.4717 22.1477C62.4717 22.0077 62.5417 21.7376 62.6117 21.3576L66.2317 22.0077C66.1317 22.4177 65.9917 23.0376 65.7817 23.8676H70.1617V22.7677L70.0917 21.6677L73.9817 21.7677L73.8417 22.7677V23.8376L79.3917 23.8077C79.5317 23.8077 80.0417 23.7376 80.9717 23.5976L80.6317 28.3476C80.2517 28.2476 79.8017 28.1777 79.2917 28.0677L73.8117 28.0377L73.7817 29.4477L75.3317 29.4776C75.8117 29.4776 76.9517 29.4777 78.7417 29.4477C78.9117 29.4177 79.3317 29.3776 80.0117 29.3476L79.7017 33.6877C79.0817 33.5477 78.6017 33.4776 78.2917 33.4776H73.7417V35.0577C76.0517 35.0577 78.3917 35.0576 80.8417 35.0876C80.9817 35.0876 81.2217 35.0577 81.5317 35.0177C81.8417 34.9877 82.0817 34.9477 82.2517 34.9477L81.8417 39.9077L81.8617 39.9277ZM80.1817 9.46762L79.8717 21.1477L63.9217 21.2176L63.3717 8.53768L73.3617 8.43771C75.2217 8.40771 77.5317 8.40762 80.3217 8.46762L80.1817 9.46762ZM67.3917 12.2276L67.4217 13.4676H76.2117V12.2276C73.9417 12.1976 70.9717 12.1976 67.3917 12.2276ZM67.4317 16.4277L67.4617 17.6377H76.1417L76.1717 16.4277H67.4217H67.4317Z" fill="#58778D"/>
<path d="M116.732 21.8378L111.912 18.2878L113.562 17.7378L113.732 16.0178C107.772 15.9478 102.332 15.9878 97.5016 16.1178L97.3616 20.2478L93.4016 19.0078L93.9216 17.6979L94.0217 12.1478C96.1917 12.1178 99.4316 12.1179 103.742 12.0479L103.812 10.1178L103.742 9.25781L107.672 9.46777L107.462 10.2578L107.362 12.0178L117.702 11.9479L116.742 21.8378H116.732ZM114.012 38.9279C113.492 38.7579 113.012 38.6879 112.672 38.6879C106.922 38.5479 102.132 38.5878 98.2316 38.7578C97.9516 38.8278 97.5416 38.9279 96.9616 39.0679L96.6516 34.0378L97.7916 34.1378L103.682 34.1078L103.712 30.9078C102.992 30.9378 101.642 30.9779 99.6816 31.0479C99.4716 31.0479 99.0916 31.1478 98.4716 31.3578L98.1616 26.3279C99.0616 26.3979 99.4017 26.4279 99.2617 26.4279L111.702 26.3279C111.912 26.3279 112.322 26.2579 112.972 26.1879L112.592 31.2178L111.182 30.9379C110.592 30.9379 109.352 30.9378 107.462 30.9078L107.392 34.0779H113.252C113.662 34.0079 114.082 33.9779 114.462 33.9379L114.012 38.9379V38.9279ZM99.4716 25.1178L97.0217 21.5679C97.7117 21.2879 98.1616 21.0878 98.3616 20.8478C99.4316 19.7778 100.292 18.7779 101.012 17.8179L103.772 19.6478C102.702 21.4778 101.252 23.2978 99.4616 25.1278L99.4716 25.1178ZM111.982 24.8079C110.812 23.8079 109.052 22.2279 106.742 20.0579L109.012 17.7878C109.802 18.3378 110.872 19.1679 112.182 20.1979C112.522 20.4379 113.082 20.6778 113.832 20.8478L111.972 24.8079H111.982Z" fill="#58778D"/>
<path d="M150.802 30.4171C150.592 30.3471 150.212 30.2471 149.732 30.1771H147.942L147.802 34.2771H140.702C140.492 36.9971 140.222 39.0971 139.842 40.5771L134.502 35.7871L137.082 35.3771C137.082 35.0671 137.112 34.6871 137.182 34.3071C135.702 34.3071 133.842 34.3071 131.562 34.3771C131.422 34.3771 131.112 34.4471 130.702 34.5471L130.492 30.8971C130.902 30.9271 131.182 30.967 131.392 30.967C132.532 30.967 134.492 30.9671 137.282 30.9371L137.312 30.1771C134.382 30.2071 131.562 30.277 128.802 30.347C128.632 30.347 128.322 30.4171 127.842 30.5171L127.602 26.4871C128.082 26.5571 128.392 26.587 128.562 26.587C130.832 26.557 133.802 26.5571 137.382 26.5171V25.7971C135.492 25.7971 133.592 25.8271 131.702 25.8971C131.532 25.8971 131.292 25.9271 130.982 26.0371L130.812 22.4171L131.882 22.5171C132.502 22.5171 134.362 22.5171 137.432 22.4871V21.4171L131.332 21.4471L130.992 15.8271L130.852 14.9971L137.362 14.9271V13.9271C135.052 13.9571 132.642 13.997 130.162 14.097C129.952 14.127 129.572 14.2371 129.092 14.3771L128.782 9.99707C129.332 10.0671 129.642 10.097 129.712 10.097L137.322 10.0271V9.37708C137.322 9.09708 137.292 8.68703 137.222 8.20703L141.082 8.2771C140.982 8.8971 140.942 9.27714 140.942 9.44714V10.0371H147.762C147.662 10.0371 148.002 9.96709 148.832 9.89709L148.492 14.2371C148.282 14.1671 147.872 14.0671 147.282 13.9971C145.012 13.9671 142.902 13.9271 140.972 13.8971V14.8971H147.382L147.242 15.7971L146.932 21.4171H141.002V22.4471L148.202 22.3771L148.172 22.967L148.032 26.5171C149.552 26.5171 150.582 26.4471 151.062 26.3071L150.782 30.4071L150.802 30.4171ZM137.402 17.707C136.612 17.737 135.712 17.7371 134.712 17.7371L134.782 18.8071H137.402V17.707ZM140.922 29.9371C140.892 30.1771 140.892 30.5271 140.892 30.9371L144.682 30.9071L144.712 29.9071L140.922 29.9371ZM140.982 25.7971V26.7271H144.842L144.872 25.7971C144.462 25.7671 143.182 25.7671 140.982 25.7971ZM141.022 17.6371V18.8071H143.572L143.642 17.6671C142.782 17.6671 141.882 17.6371 141.022 17.6371Z" fill="#58778D"/>
<path d="M184.052 18.1555C183.882 18.1255 183.432 18.0155 182.812 17.9155C182.022 17.9155 180.812 17.9155 179.262 17.8855C179.162 18.1955 179.092 18.5055 178.982 18.8455H181.252C181.562 18.8155 181.972 18.7755 182.462 18.7455L182.252 22.7054C181.912 22.6054 181.352 22.5355 180.632 22.5355L174.742 22.5055V23.3655L179.632 23.3354C179.972 23.3354 180.352 23.3055 180.802 23.2355L180.522 27.1255C179.802 26.9855 179.312 26.9555 179.072 26.9155H174.762V27.9155L181.892 27.8855C182.172 27.8555 182.612 27.8155 183.162 27.7455L182.852 31.9456C182.402 31.8056 181.952 31.7355 181.512 31.7355C179.962 31.7055 178.622 31.7055 177.512 31.7355C177.722 31.8355 178.782 32.5655 180.752 33.8055C180.922 33.9055 181.472 34.0855 182.442 34.2555L180.372 39.5255C179.682 38.8055 177.822 37.0755 174.792 34.3955V40.3555L170.352 38.7755L171.182 37.1255L171.152 34.1255C169.502 36.2955 167.392 38.1554 164.912 39.7054L163.262 34.7054C163.672 34.6354 164.222 34.5355 164.912 34.3955C166.322 33.4955 167.562 32.6756 168.532 31.8156C166.192 31.8856 164.642 31.9154 163.812 31.9554C163.672 32.0254 163.332 32.0956 162.812 32.1956L162.602 27.8555C163.532 27.9555 163.872 27.9955 163.672 27.9955C165.082 27.9955 167.562 27.9955 171.112 27.9655V26.9655C169.182 26.9655 167.562 27.0355 166.182 27.1055C165.972 27.1355 165.632 27.2055 165.182 27.3455L164.972 23.3855C165.212 23.3855 165.562 23.4155 166.002 23.4855C166.172 23.5155 167.862 23.4855 171.102 23.4155L171.072 22.5155C167.872 22.5455 165.632 22.5855 164.352 22.6555C164.182 22.6855 163.832 22.7555 163.322 22.8955L163.082 18.8955C163.322 18.8955 163.672 18.9255 164.112 18.9955C164.282 19.0255 165.352 18.9955 167.352 18.9255C167.282 18.5455 167.212 18.2055 167.142 17.8955L162.452 18.0355C162.282 18.0655 161.932 18.1756 161.522 18.3156L161.282 13.6655C161.492 13.6655 161.802 13.7354 162.212 13.8354C162.112 13.8054 164.042 13.7655 168.002 13.7355L167.792 10.6655L167.652 9.83545L171.542 9.62549V10.4554L171.712 13.6555H174.122L174.152 10.3156L174.122 9.62549L178.012 9.7655L177.872 10.7255L177.772 13.6555L183.142 13.7255C183.312 13.7255 183.692 13.6954 184.352 13.5854L184.012 18.1655L184.052 18.1555ZM163.522 13.4655C163.212 11.2255 163.002 9.77552 162.872 9.15552L166.212 8.67554C166.212 9.05554 166.312 10.5055 166.492 13.0155L163.532 13.4655H163.522ZM170.582 17.8455L170.652 18.8755L175.712 18.8455C175.742 18.6055 175.812 18.2555 175.852 17.8455H170.582ZM181.542 13.5656L178.852 12.8055C179.022 11.8055 179.262 10.3955 179.612 8.60547L182.782 9.36548C182.542 10.1255 182.132 11.5356 181.542 13.5656Z" fill="#58778D"/>
<path d="M22.9217 33.89L33.0617 39.1C33.4717 39.31 33.8117 39.15 33.9717 39.03C34.1317 38.91 34.3917 38.6501 34.3217 38.1901L32.5017 26.9301L40.5917 18.89C40.9217 18.56 40.8717 18.19 40.8017 18C40.7417 17.81 40.5717 17.48 40.1117 17.41L28.8417 15.66L23.7017 5.47998C23.4917 5.05998 23.1217 5 22.9217 5C22.7217 5 22.3517 5.05998 22.1417 5.47998L17.0017 15.66L5.73169 17.41C5.27169 17.48 5.10169 17.81 5.04169 18C4.98169 18.19 4.92171 18.56 5.25171 18.89L13.3417 26.9301L11.5217 38.1901C11.4517 38.6501 11.7117 38.92 11.8717 39.03C12.0317 39.15 12.3717 39.31 12.7817 39.1L22.9217 33.89Z" fill="#65B7EC" stroke="#65B7EC" stroke-width="10" stroke-miterlimit="10"/>
<path d="M22.9217 33.89L33.0617 39.1C33.4717 39.31 33.8117 39.15 33.9717 39.03C34.1317 38.91 34.3917 38.6501 34.3217 38.1901L32.5017 26.9301L40.5917 18.89C40.9217 18.56 40.8717 18.19 40.8017 18C40.7417 17.81 40.5717 17.48 40.1117 17.41L28.8417 15.66L23.7017 5.47998C23.4917 5.05998 23.1217 5 22.9217 5C22.7217 5 22.3517 5.05998 22.1417 5.47998L17.0017 15.66L5.73169 17.41C5.27169 17.48 5.10169 17.81 5.04169 18C4.98169 18.19 4.92171 18.56 5.25171 18.89L13.3417 26.9301L11.5217 38.1901C11.4517 38.6501 11.7117 38.92 11.8717 39.03C12.0317 39.15 12.3717 39.31 12.7817 39.1L22.9217 33.89Z" fill="#F6ED36"/>
</svg>
