<svg width="235" height="30" viewBox="0 0 235 30" fill="none" xmlns="http://www.w3.org/2000/svg">
<path d="M23.3601 9.06873C22.1301 14.9487 19.86 21.3588 16.5 28.2888C16.36 28.5688 16.15 28.6388 15.87 28.4988L11.2101 26.1888C10.9001 26.0488 10.8301 25.8388 10.9701 25.5188C13.7001 19.7788 15.5601 14.9088 16.5701 10.9188C16.6701 10.6088 16.5301 10.4288 16.1801 10.4288H6.62C6.27 10.4288 6.10006 10.6087 6.06006 10.9487L5.68005 16.6188C5.64005 16.9288 5.47002 17.1088 5.15002 17.1088H0.48999C0.13999 17.1088 0 16.9387 0 16.5887L0.700073 6.99878C0.740073 6.64878 0.91001 6.46875 1.26001 6.46875H23.03C23.34 6.46875 23.4901 6.64874 23.4501 6.95874L23.3501 9.05884L23.3601 9.06873Z" fill="#58778D"/>
<path d="M58.8101 15.3694C58.7701 15.6794 58.6 15.8594 58.28 15.8594L35.25 15.8193C34.94 15.8193 34.79 15.6393 34.79 15.3293L34.9601 12.1794C35.0001 11.8694 35.17 11.7294 35.52 11.7294L58.52 11.6895C58.87 11.6895 59.01 11.8294 59.01 12.1794L58.8 15.3694H58.8101Z" fill="#58778D"/>
<path d="M80.6902 29.689C80.5102 29.939 80.2702 29.969 80.0202 29.789L75.9202 27.059C75.6402 26.879 75.5702 26.639 75.7802 26.389C79.1102 21.279 81.5901 16.589 83.2401 12.249C83.3801 11.969 83.2702 11.7889 82.9602 11.7289L78.8302 10.919C78.4802 10.849 78.2302 10.989 78.0602 11.299C77.0102 13.259 75.8903 15.149 74.7303 17.009C74.5903 17.289 74.3402 17.329 74.0602 17.149L70.0702 14.629C69.7902 14.419 69.7202 14.209 69.9302 13.889C72.4102 9.78897 74.8302 5.27901 77.1802 0.309011C77.3202 -0.000988901 77.5302 -0.0711012 77.8502 0.0688988L82.0202 1.74895C82.3302 1.88895 82.4002 2.09896 82.3002 2.37896C81.4202 4.43896 80.7602 5.91899 80.3402 6.78899C80.2402 7.06899 80.3001 7.24901 80.6201 7.30901L90.0702 9.23894C90.3802 9.30894 90.4902 9.51891 90.3802 9.82891C87.8602 17.1089 84.6402 23.729 80.6802 29.679L80.6902 29.689Z" fill="#58778D"/>
<path d="M111.73 17.1889C111.66 17.4689 111.45 17.5688 111.13 17.4688C109.9 17.0088 108.01 16.3889 105.39 15.5389C105.08 15.4389 104.97 15.2289 105.08 14.9089L106.06 11.8589C106.2 11.5489 106.37 11.4389 106.69 11.5489C109.14 12.2789 111.1 12.9189 112.57 13.3689C112.85 13.4689 112.96 13.6789 112.85 13.9989L111.73 17.1889ZM114.11 8.88889C113.97 9.16889 113.76 9.23885 113.44 9.09885C111.62 8.28885 109.87 7.48885 108.19 6.71885C107.88 6.57885 107.81 6.36893 107.94 6.04893L109.38 3.13889C109.52 2.88889 109.73 2.78893 110.01 2.92893L115.37 5.23887C115.65 5.33887 115.72 5.54891 115.58 5.90891L114.11 8.88889ZM111.91 28.6689C111.66 28.8789 111.42 28.8488 111.24 28.5688L108.47 24.7489C108.26 24.4689 108.29 24.2289 108.57 24.0489C114.7 19.6689 119.7 15.2288 123.55 10.7088C123.76 10.4988 123.97 10.4988 124.22 10.7088L127.41 13.8989C127.62 14.1489 127.65 14.3589 127.44 14.6389C123.2 19.5089 118.02 24.1989 111.9 28.6789L111.91 28.6689Z" fill="#58778D"/>
<path d="M156.36 26.5284C156.36 26.8784 156.19 27.0585 155.84 27.0585L142.29 27.0184C141.94 27.0184 141.8 26.8784 141.8 26.5284L141.94 24.0084C141.98 23.6584 142.15 23.4784 142.47 23.4784L150.77 23.5184C151.12 23.5184 151.3 23.3784 151.33 23.0284L151.44 21.1384C151.44 20.7884 151.3 20.6184 150.95 20.6184H143.25C142.93 20.6184 142.76 20.4784 142.79 20.1584L142.93 17.6384C142.93 17.2884 143.11 17.1084 143.42 17.1084H151.16C151.51 17.1084 151.68 16.9384 151.72 16.5884L151.82 14.8384C151.82 14.5184 151.68 14.3484 151.33 14.3484H143.07C142.72 14.3484 142.55 14.1784 142.58 13.8584L142.72 11.3384C142.72 10.9884 142.9 10.8184 143.21 10.8184H156.83C157.18 10.8184 157.32 10.9884 157.32 11.3384L156.37 26.5284H156.36Z" fill="#58778D"/>
<path d="M178.27 18.6886L175.01 18.9685C174.7 18.9685 174.52 18.8285 174.49 18.5085L174.07 12.5586C174.03 12.2086 174.17 12.0385 174.49 11.9985L177.75 11.7485C178.06 11.7185 178.24 11.8486 178.27 12.1686L178.73 18.1185C178.73 18.4685 178.59 18.6486 178.27 18.6786V18.6886ZM184.43 18.0286L181.17 18.2385C180.86 18.2785 180.68 18.1386 180.65 17.7786L180.26 11.6886C180.26 11.3386 180.4 11.1986 180.75 11.1586L183.97 10.9186C184.32 10.8786 184.49 11.0586 184.53 11.4086L184.84 17.4985C184.88 17.8085 184.74 18.0186 184.42 18.0186L184.43 18.0286ZM184.46 29.2986C184.21 29.5386 183.97 29.5785 183.72 29.3685L180.43 26.6385C180.22 26.4285 180.22 26.2185 180.39 25.9685C184.1 21.5185 187.18 16.6886 189.67 11.5486C189.81 11.2386 190.02 11.1586 190.37 11.2986L194.12 13.0486C194.44 13.1886 194.51 13.3985 194.37 13.7185C191.67 19.2885 188.38 24.4686 184.46 29.2986Z" fill="#58778D"/>
<path d="M227.2 9.5188C227.17 9.8288 227.13 10.1488 227.03 10.4288C225.07 16.4888 221.99 22.5788 217.79 28.7688C217.61 29.0488 217.4 29.0788 217.12 28.9088L212.6 25.7188C212.32 25.5088 212.29 25.2688 212.46 24.9888C215.82 19.9788 218.27 15.4688 219.81 11.5488C219.91 11.2388 219.81 11.0887 219.5 11.0887L206.79 11.1288C206.44 11.1288 206.3 10.9488 206.3 10.6088L206.47 7.62878C206.51 7.31878 206.68 7.16882 207.03 7.16882L226.81 7.12878C227.16 7.12878 227.3 7.30877 227.3 7.61877L227.2 9.50879V9.5188ZM230.49 7.87878C229.47 7.87878 228.67 7.59882 228.11 7.03882C227.55 6.47882 227.3 5.67881 227.38 4.65881C227.48 2.51881 228.67 1.46875 230.92 1.46875C231.9 1.46875 232.67 1.74875 233.27 2.34875C233.83 2.90875 234.08 3.67881 234.01 4.65881C233.87 6.82881 232.71 7.87878 230.51 7.87878H230.49ZM230.77 3.53882C230.14 3.53882 229.79 3.91881 229.75 4.65881C229.68 5.45881 229.99 5.84875 230.63 5.84875C231.27 5.84875 231.57 5.45884 231.65 4.68884C231.68 3.91884 231.4 3.53882 230.77 3.53882Z" fill="#58778D"/>
</svg>
