<svg xmlns="http://www.w3.org/2000/svg" width="216.184" height="208.283" viewBox="0 0 216.184 208.283">
  <g id="グループ_148" data-name="グループ 148" transform="translate(-467.35 -5276.199)">
    <path id="パス_2015" data-name="パス 2015" d="M625.287,5484.482a27.467,27.467,0,0,1-12.567-3.056l-37.278-19.148-37.277,19.148a27.459,27.459,0,0,1-39.653-28.81l6.691-41.37-29.73-29.536a27.459,27.459,0,0,1,15.146-46.616l41.413-6.42,18.9-37.4a27.328,27.328,0,0,1,24.507-15.073h0a27.325,27.325,0,0,1,24.506,15.073h0l18.9,37.4,41.414,6.42a27.46,27.46,0,0,1,15.146,46.616l-29.73,29.536,6.691,41.37a27.5,27.5,0,0,1-27.086,31.866Z" fill="#65b7ec"/>
  </g>
</svg>
