<?xml version="1.0" encoding="UTF-8" standalone="no"?>
<!-- Created with Inkscape (http://www.inkscape.org/) -->

<svg
   width="20.523785mm"
   height="31.132303mm"
   viewBox="0 0 20.523785 31.132303"
   version="1.1"
   id="svg7853"
   xmlns="http://www.w3.org/2000/svg"
   xmlns:svg="http://www.w3.org/2000/svg">
  <defs
     id="defs7850">
    <style>
      .cls-23 { fill: #ffffff; fill-rule: evenodd; stroke-width: 0.264583; }
      .cls-25 { fill: #f5e3dd; fill-rule: evenodd; stroke-width: 0.264583; }
      .cls-27 { fill: #f6ed36; fill-rule: evenodd; stroke-width: 0.264583; }
    </style>
  </defs>
  <g
     id="layer1"
     transform="translate(-7.164802,-2.2459623)">
    <path
       class="cls-27"
       d="m 14.663149,5.2624733 c 0.05292,-0.484188 0.357187,-1.016 0.288396,-1.571625 -0.103188,-0.830792 -1.031875,-1.066271 -1.957917,-1.026584 -1.410229,0.05821 -2.965979,0.719667 -3.3707917,2.021417 -0.08731,0.283104 -0.193145,0.735542 -0.161395,1.090083 0.04233,0.439209 0.325437,0.478896 0.5450407,0.801688 -0.2381247,1.624542 -0.2725207,3.5057287 -0.1613957,5.1038117 0.7805207,-0.648229 2.1801667,-1.277937 3.6591877,-1.314979 1.894416,-0.04762 3.638021,0.637646 4.074583,2.246313 0.672042,-1.711855 1.156229,-3.8470417 1.412875,-6.0007497 0.04233,-0.346604 -0.02646,-0.722313 0.0635,-0.994834 0.100542,-0.30427 0.449792,-0.531812 0.545042,-0.899583 0.156104,-0.605896 -0.07673,-1.386417 -0.513292,-1.637771 -0.73025,-0.418041 -2.299229,-0.272521 -3.114146,0.193146 -0.291041,0.166688 -0.492125,0.4445 -0.738187,0.706438 0.07937,0.584729 -0.243417,0.973666 -0.288396,1.412875 -0.0291,0.264583 0.153458,0.597958 0,0.899583 -0.343958,-0.15875 -0.328083,-0.658813 -0.288396,-1.026583"
       id="path2218"
       style="fill:#f6ed36;fill-rule:evenodd;stroke-width:0.264583" />
    <path
       class="cls-27"
       d="m 16.171274,16.525785 c 0.394229,-0.587375 0.960437,-1.225021 1.156229,-2.021417 0.06615,-0.264583 0.145521,-0.645583 0.09525,-0.994833 -0.01587,-0.119062 -0.119063,-0.179917 -0.127,-0.256646 -0.01323,-0.08996 0.07673,-0.201083 0.0635,-0.351896 -0.137583,-1.735666 -2.256896,-2.38125 -4.042833,-2.278062 -2.386542,0.137583 -4.6328537,1.666875 -4.5905207,3.915833 0.02117,1.008063 0.661458,2.111375 1.5716247,2.309813 0.05556,0.177271 0.0291,0.470958 0,0.801687 1.957916,-0.296333 4.209521,-0.108479 5.9055,-0.576791 0.01323,-0.275167 0.0053,-0.328084 -0.03175,-0.545042"
       id="path2220-2"
       style="fill:#f6ed36;fill-rule:evenodd;stroke-width:0.264583" />
    <path
       class="cls-23"
       d="m 20.984045,13.766181 c -0.179917,0.264583 0.148166,0.34925 0.224895,0.545042 0.05027,0.127 0.03704,0.396875 0.03175,0.576791 -0.03175,1.039813 -0.137583,2.751667 -0.0635,3.593042 -0.428625,0.383643 -0.849312,0.777873 -1.058333,1.381123 0.981604,-0.19314 1.434042,0.51594 2.119313,0.60854 1.248833,0.17198 1.500187,-0.94985 2.600854,-1.09008 -0.08467,-0.38629 -0.39423,-0.54504 -0.738188,-0.67469 -0.47625,0.31486 -1.793875,0.26459 -1.508125,-0.513289 -0.449791,0.01323 -0.600604,-0.494771 -0.320146,-0.769937 -0.624416,-0.0053 -0.370416,-0.669396 -0.0635,-0.833438 -0.854604,-0.433917 0.537105,-1.066271 1.18798,-0.994833 -0.02381,-0.505354 0.0344,-0.928688 0.03175,-1.412875 0.124355,-0.153459 0.325438,-0.230188 0.351896,-0.481542 -0.767291,-0.381 -2.06375,0 -2.791354,0.0635"
       id="path2222-6"
       style="fill:#ffffff;fill-rule:evenodd;stroke-width:0.264583" />
    <path
       class="cls-25"
       d="m 24.547982,16.430535 c -0.169333,-0.248708 -0.486833,-0.388937 -0.833438,-0.513292 -0.09525,-0.0079 -0.09789,0.07144 -0.193145,0.0635 -0.447146,-0.214312 -1.127125,0.06085 -1.314979,0.418042 0.394229,0.08731 1.06627,-0.267229 1.187979,0.193146 -0.576792,0.02381 -1.164167,0.203729 -1.251479,0.608542 0.383645,0.164041 1.172104,-0.367771 1.251479,0.193145 -0.486834,0.02646 -0.881063,0.145521 -1.026584,0.513292 0.293688,0.116417 0.899584,-0.378354 1.026584,0.0635 -0.214313,0.179917 -0.574146,0.216958 -0.608542,0.576789 1.322917,0.45509 2.484437,-1.063622 1.764771,-2.11931"
       id="path2224-1"
       style="fill:#f5e3dd;fill-rule:evenodd;stroke-width:0.264583" />
    <path
       class="cls-27"
       d="m 16.49142,16.848577 c 0,0.148166 0.01323,0.314854 -0.03175,0.418041 -0.799042,0.336021 -1.91823,0.34925 -2.95275,0.449792 0.105833,0.418042 0.179916,0.870479 0.193145,1.381129 2.196042,0.082 4.116917,0.4392 6.130396,0.70643 0.156104,-0.66939 0.711729,-1.10331 1.026584,-1.508121 -0.03175,-0.756709 0.07937,-1.375834 0.0635,-2.119313 -1.547813,0.153458 -2.9845,0.415396 -4.429125,0.674688"
       id="path2226-8"
       style="fill:#f6ed36;fill-rule:evenodd;stroke-width:0.264583" />
    <path
       class="cls-27"
       d="m 10.42717,17.90691 c -0.195792,1.023939 -0.5053537,1.934109 -0.7064377,2.952749 -0.224896,0.18521 -0.436562,0.53711 -0.320146,0.96308 1.0239377,0.80434 2.9368747,0.21167 3.8840837,-0.28839 0.134937,-1.07686 0.312208,-2.74638 -0.0635,-3.786189 -1.008063,-0.02381 -1.93675,0.03175 -2.791355,0.161396"
       id="path2228-7"
       style="fill:#f6ed36;fill-rule:evenodd;stroke-width:0.264583" />
    <path
       class="cls-27"
       d="m 13.218524,21.822739 c -0.767292,0.36513 -1.838854,0.73819 -2.88925,0.60855 -0.103188,0.12964 -0.304271,0.20637 -0.4815417,0.32014 -0.150812,0.0979 -0.399521,0.24606 -0.351896,0.35454 1.3943537,-0.15875 2.3971247,0.28046 3.5295417,0.54505 0.545042,-0.81492 1.397,-1.32028 2.246312,-1.82828 -0.635,-0.0873 -1.505479,0 -2.053166,0"
       id="path2230-9"
       style="fill:#f6ed36;fill-rule:evenodd;stroke-width:0.264583" />
    <path
       class="cls-27"
       d="m 19.026128,24.452699 c -0.129646,-0.26193 -0.534458,-1.09537 -0.769938,-1.02658 -0.457729,0.13229 -1.275291,0.30692 -1.603375,0.70644 0.1905,0.31221 0.486834,0.44979 0.769938,0.67468 0.224896,0.17728 0.658812,0.44715 0.706437,0.76994 0.02117,0.15081 -0.08996,0.32279 -0.0635,0.48154 0.05027,0.30957 0.587375,0.73819 0.801688,0.99484 0.296333,0.35189 0.484187,0.75141 0.836083,0.96308 0.150813,-1.33879 -0.246062,-2.7014 -0.674687,-3.56129"
       id="path2232-2"
       style="fill:#f6ed36;fill-rule:evenodd;stroke-width:0.264583" />
    <path
       class="cls-27"
       d="m 11.260607,25.190889 c -0.436562,0.0265 -0.817562,0.381 -1.251479,0.38629 -0.2804577,0 -0.5423957,-0.1905 -0.8334367,-0.22489 -0.492125,-0.0556 -0.854605,0.1217 -1.31498,0.25664 -0.219604,0.635 -0.333375,1.39436 -0.320145,2.15106 0.03175,1.91559 1.082145,3.31523 2.119312,4.23598 0.6879167,0.22225 1.2832287,0.53711 2.0214167,0.70644 -0.03175,-1.48431 0.301625,-2.40771 0.642937,-3.49779 0.206375,-0.6641 0.08202,-1.40229 0.256646,-2.02142 0.127,-0.4445 0.576792,-0.84666 0.674687,-1.34673 -0.738187,-0.11906 -1.222375,-0.68527 -1.989666,-0.64293"
       id="path2234-0"
       style="fill:#f6ed36;fill-rule:evenodd;stroke-width:0.264583" />
    <path
       class="cls-27"
       d="m 19.44417,28.979719 c -0.23548,-0.0106 -0.55298,0.17198 -0.801688,0.25665 -0.145521,0.24871 -0.306917,0.48419 -0.449792,0.73819 -0.185208,0.0503 -0.293687,0.17727 -0.481541,0.22489 -0.751417,0.98161 -1.785938,1.68011 -2.471209,2.72786 0.963084,-0.28575 1.987021,-0.44715 2.664355,-1.05834 0.658812,-0.59795 1.243541,-1.59543 1.539875,-2.50295 0.03704,-0.11378 0.179916,-0.3863 0.03175,-0.3863 z"
       id="path2236-2"
       style="fill:#f6ed36;fill-rule:evenodd;stroke-width:0.264583" />
    <path
       class="cls-27"
       d="m 14.758399,26.442369 c -0.312209,-0.0238 -0.53975,0.0397 -0.833438,0.0318 0.08202,-0.41804 0.119063,-0.99483 -0.127,-1.25148 0.124354,0.0979 0.256646,-0.11642 0.351896,-0.0318 0.338667,0.127 0.08996,0.45773 0.127,0.67469 0.05292,0.29369 0.407458,0.28575 0.481542,0.57679"
       id="path2238-3"
       style="fill:#f6ed36;fill-rule:evenodd;stroke-width:0.264583" />
    <path
       class="cls-27"
       d="m 14.181607,27.984889 c -0.148167,-0.0238 -0.256646,-0.0847 -0.320146,-0.19315 0.0635,-0.508 0.619125,-0.15875 0.320146,0.19315"
       id="path2240-7"
       style="fill:#f6ed36;fill-rule:evenodd;stroke-width:0.264583" />
    <path
       class="cls-27"
       d="m 14.051961,29.429519 c 0.0344,0.24341 0.248709,0.20372 0.288396,0.38364 0.100542,0.45773 -0.629708,0.61913 -0.449792,1.12448 -0.341312,-0.0847 -0.478895,-0.37835 -0.867833,-0.41804 0.05821,-0.16669 0.09525,-0.35454 0.256646,-0.41804 -0.02117,-0.1905 -0.209021,-0.21961 -0.193146,-0.44979 0.156104,0.008 0.455083,-0.008 0.545042,-0.1614 0.06879,-0.10848 -0.111125,-0.19579 -0.161396,-0.2884 0.103187,-0.20637 0.127,-0.49212 0.193146,-0.73818 0.828146,-0.31221 0.767291,0.70114 0.383646,0.96308"
       id="path2242-5"
       style="fill:#f6ed36;fill-rule:evenodd;stroke-width:0.264583" />
    <path
       class="cls-27"
       d="m 13.44342,31.096389 c 0.0053,0.23019 -0.153459,0.29633 -0.256646,0.41804 0.02646,0.12171 0.04233,0.25665 0.03175,0.41804 -0.428625,0.2884 -0.989542,0.0794 -0.931334,-0.38629 0.04762,-0.37041 0.732896,-0.71702 1.15623,-0.44979"
       id="path2244-9"
       style="fill:#f6ed36;fill-rule:evenodd;stroke-width:0.264583" />
    <path
       class="cls-24"
       d="m 17.774649,22.751429 c -0.481542,-0.42333 -1.140354,-0.75935 -1.894417,-0.86519 -0.669396,0.23813 -1.434042,0.71438 -2.021417,1.18798 -0.301625,0.24342 -0.418041,0.61913 -0.738187,0.83344 -1.158875,-0.30692 -2.600854,-0.86783 -4.0428327,-0.48154 -0.465667,0.49742 -0.928688,1.16681 -1.058334,1.89442 0.314855,-0.0767 0.518584,-0.18521 0.833438,-0.19315 0.367771,-0.008 0.701146,0.23283 1.026583,0.2249 0.4921247,-0.0132 0.8810627,-0.40482 1.4128747,-0.3863 0.584729,0.0212 0.994833,0.33867 1.508125,0.5133 0.235479,0.0794 0.523875,0.008 0.706438,0.25664 0.03439,0.67998 -0.58473,1.09802 -0.706438,1.66952 -0.09525,0.44979 -0.0291,0.96044 -0.09525,1.44463 -0.119062,0.84666 -0.632354,1.55046 -0.674687,2.34156 -0.02646,0.49477 0.01852,1.00806 -0.0979,1.53988 0.873125,0.17727 1.931458,0.29897 2.95275,0.22489 0.738187,-1.14564 1.8415,-1.92352 2.696104,-2.95275 0.478896,-0.0873 0.560917,-0.60589 0.867833,-0.86519 0.288396,-0.24606 0.642938,-0.29368 1.156229,-0.35189 0.02381,-0.1905 0.06615,-0.36248 0.0635,-0.57679 -0.531812,-0.254 -0.732895,-0.78846 -1.121833,-1.21973 -0.296333,-0.32809 -0.632354,-0.61648 -0.769937,-1.02659 0.357187,-1.05304 -1.296459,-1.21443 -1.444625,-1.95791 0.457729,-0.39688 1.063625,-0.64823 1.79652,-0.76994 -0.01058,-0.19579 -0.20902,-0.35719 -0.351895,-0.48154 M 15.17644,3.5294523 c 0.256646,-0.124354 0.36248,-0.322792 0.576792,-0.449792 1.005417,-0.595312 3.010958,-0.711729 3.722688,0.03175 0.351895,0.367771 0.600604,1.248834 0.351895,1.894417 -0.124354,0.320146 -0.441854,0.478896 -0.513291,0.801687 -0.0344,0.15875 0.01058,0.343959 0,0.513292 -0.116417,1.867958 -0.574146,3.667125 -1.090084,5.2308117 -0.08202,0.251355 -0.201083,0.502709 -0.288395,0.769938 -0.08467,0.261937 -0.261938,0.529167 -0.288396,0.738187 -0.04498,0.341313 0.05292,0.701146 0.03175,0.994834 -0.07408,1.108604 -0.674688,1.677458 -1.121834,2.502958 1.434042,-0.243417 2.878667,-0.478896 4.365625,-0.674687 0.07144,-0.452438 0.01323,-1.034521 0.03175,-1.539875 -0.325437,-0.29898 -0.370416,-0.64823 0,-0.833438 0.6985,-0.351896 3.021542,-0.428625 3.07975,0.224896 0.0291,0.336021 -0.219604,0.378354 -0.383646,0.576792 0.05556,0.365125 -0.03439,0.836083 0,1.283229 0.664105,0.246062 1.37848,0.806979 1.34673,1.733021 -0.01588,0.492125 -0.251355,0.976312 -0.642938,1.219726 1.169458,0.53182 1.277938,2.50296 0.513292,3.52954 -0.0926,0.12436 -0.312209,0.3175 -0.481542,0.48155 -0.407458,0.39687 -0.783167,0.73025 -1.508125,0.80168 -0.926041,0.09 -2.082271,-0.045 -2.696104,-0.64293 -0.534458,-0.51859 -0.711729,-1.5875 -0.481542,-2.63261 -0.886354,-0.26194 -1.920875,-0.30956 -2.8575,-0.44979 -0.965729,-0.14287 -1.981729,-0.25135 -3.082395,-0.2884 -0.07937,0.69057 -0.07144,1.47109 -0.161396,2.15107 1.815041,-0.11907 3.254375,0.18785 4.204229,0.93133 0.746125,0.58208 1.447271,1.6854 1.796521,2.66435 0.428625,1.19857 0.537104,2.51619 0.256646,3.81794 -0.238125,1.10331 -0.854605,2.11402 -1.571625,2.88925 -0.613834,0.66146 -1.926167,1.23825 -3.048,1.37848 -0.957792,0.11906 -2.121959,0.0106 -3.01625,-0.127 -0.238125,-0.037 -0.515938,-0.0688 -0.769938,-0.12964 -0.179917,-0.0423 -0.343958,-0.1905 -0.545042,-0.25665 -0.174625,-0.0556 -0.343958,-0.0609 -0.513291,-0.127 -0.137584,-0.0556 -0.267229,-0.16404 -0.4180417,-0.2249 -0.407458,-0.16668 -0.791104,-0.32543 -1.090083,-0.64293 -0.254,-0.26723 -0.555625,-0.72761 -0.769938,-1.12448 -0.439208,-0.80434 -0.806979,-1.62454 -0.801687,-2.75961 0.0053,-1.25677 0.3175,-2.62466 0.867833,-3.59568 0.185209,-0.32544 0.497417,-0.5424 0.608542,-0.93134 0.452437,-0.254 0.751417,-0.66146 1.2197287,-0.89958 -0.2698747,-0.15611 -0.5371037,-0.10848 -0.7381867,-0.32015 -0.373063,-0.38893 -0.134938,-1.05304 0.193145,-1.38112 0.211667,-1.13242 0.7117297,-2.11138 0.6085417,-3.370794 -0.7963957,-0.489479 -1.6483537,-1.574271 -1.6377707,-2.759604 0.01058,-1.074208 0.513292,-2.177521 1.251479,-2.664354 -0.256645,-1.309688 -0.248708,-2.9818537 -0.0635,-4.4608747 0.03175,-0.248708 0.124355,-0.568854 0.09525,-0.738188 -0.04762,-0.280458 -0.41275,-0.43127 -0.481541,-0.642937 -0.150813,-0.460375 0.01323,-1.2065 0.193146,-1.637771 0.53975,-1.285875 2.1113737,-1.973792 3.6274367,-1.989667 0.968375,-0.01058 1.931458,0.306917 2.119312,1.12448 m -0.513291,1.743604 c 0.05292,-0.484188 0.357187,-1.016 0.288396,-1.571625 -0.103188,-0.830792 -1.031875,-1.066271 -1.957917,-1.026584 -1.410229,0.05821 -2.965979,0.719667 -3.3707917,2.021417 -0.08731,0.283104 -0.193145,0.735542 -0.161395,1.090083 0.04233,0.439209 0.325437,0.478896 0.5450407,0.801688 -0.2381247,1.624542 -0.2725207,3.5057287 -0.1613957,5.1038117 0.7805207,-0.648229 2.1801667,-1.277937 3.6591877,-1.314979 1.894416,-0.04762 3.638021,0.637646 4.074583,2.246313 0.672042,-1.711855 1.156229,-3.8470417 1.412875,-6.0007497 0.04233,-0.346604 -0.02646,-0.722313 0.0635,-0.994834 0.100542,-0.30427 0.449792,-0.531812 0.545042,-0.899583 0.156104,-0.605896 -0.07673,-1.386417 -0.513292,-1.637771 -0.73025,-0.418041 -2.299229,-0.272521 -3.114146,0.193146 -0.291041,0.166688 -0.492125,0.4445 -0.738187,0.706438 0.07937,0.584729 -0.243417,0.973666 -0.288396,1.412875 -0.0291,0.264583 0.153458,0.597958 0,0.899583 -0.343958,-0.15875 -0.328083,-0.658813 -0.288396,-1.026583 m 1.513417,11.2606657 c 0.394229,-0.587375 0.960437,-1.225021 1.156229,-2.021417 0.06615,-0.264583 0.145521,-0.645583 0.09525,-0.994833 -0.01587,-0.119062 -0.119063,-0.179917 -0.127,-0.256646 -0.01323,-0.08996 0.07673,-0.201083 0.0635,-0.351896 -0.137583,-1.735666 -2.256896,-2.38125 -4.042833,-2.278062 -2.386542,0.137583 -4.6328537,1.666875 -4.5905207,3.915833 0.02117,1.008063 0.661458,2.111375 1.5716247,2.309813 0.05556,0.177271 0.0291,0.470958 0,0.801687 1.957916,-0.296333 4.209521,-0.111125 5.9055,-0.576791 0.01323,-0.275167 0.0053,-0.328084 -0.03175,-0.545042 m 4.812771,-2.76225 c -0.179917,0.264583 0.148166,0.34925 0.224895,0.545042 0.05027,0.127 0.03704,0.396875 0.03175,0.576791 -0.03175,1.039813 -0.137583,2.751667 -0.0635,3.593042 -0.428625,0.383643 -0.849312,0.777873 -1.058333,1.381123 0.981604,-0.19314 1.434042,0.51594 2.119313,0.60854 1.248833,0.17198 1.500187,-0.94985 2.600854,-1.09008 -0.08467,-0.38629 -0.39423,-0.54504 -0.738188,-0.67469 -0.47625,0.31486 -1.793875,0.26459 -1.508125,-0.513289 -0.449791,0.01323 -0.600604,-0.494771 -0.320146,-0.769937 -0.624416,-0.0053 -0.370416,-0.669396 -0.0635,-0.833438 -0.854604,-0.433917 0.537105,-1.066271 1.18798,-0.994833 -0.02381,-0.505354 0.0344,-0.928688 0.03175,-1.412875 0.124355,-0.153459 0.325438,-0.230188 0.351896,-0.481542 -0.767291,-0.381 -2.06375,0 -2.791354,0.0635 m 3.558646,2.667 c -0.169333,-0.248708 -0.486833,-0.388937 -0.833438,-0.513292 -0.09525,-0.0079 -0.09789,0.07144 -0.193145,0.0635 -0.447146,-0.214312 -1.127125,0.06085 -1.314979,0.418042 0.394229,0.08731 1.06627,-0.267229 1.187979,0.193146 -0.576792,0.02381 -1.164167,0.203729 -1.251479,0.608542 0.383645,0.164041 1.172104,-0.367771 1.251479,0.193145 -0.486834,0.02646 -0.881063,0.145521 -1.026584,0.513292 0.293688,0.116417 0.899584,-0.378354 1.026584,0.0635 -0.214313,0.179917 -0.574146,0.216958 -0.608542,0.576789 1.322917,0.45509 2.484437,-1.063622 1.764771,-2.11931 m -8.059208,0.420688 c 0,0.148166 0.01323,0.314854 -0.03175,0.418041 -0.799042,0.336021 -1.91823,0.34925 -2.95275,0.449792 0.105833,0.418042 0.179916,0.870479 0.193145,1.381129 2.196042,0.082 4.116917,0.4392 6.130396,0.70643 0.156104,-0.66939 0.711729,-1.10331 1.026584,-1.508121 -0.03175,-0.756709 0.07937,-1.375834 0.0635,-2.119313 -1.547813,0.153458 -2.9845,0.415396 -4.429125,0.674688 m -6.06425,1.055687 c -0.195792,1.023939 -0.5027087,1.934109 -0.7064377,2.952749 -0.224896,0.18521 -0.436562,0.53711 -0.320146,0.96308 1.0239377,0.80434 2.9368747,0.21167 3.8840837,-0.28839 0.134937,-1.07686 0.312208,-2.74638 -0.0635,-3.786189 -1.008063,-0.02381 -1.93675,0.03175 -2.791355,0.161396 m 2.788709,3.913183 c -0.767292,0.36513 -1.838854,0.73819 -2.88925,0.60855 -0.103188,0.12964 -0.304271,0.20637 -0.4815417,0.32014 -0.150812,0.0979 -0.399521,0.24606 -0.351896,0.3519 1.3943537,-0.15875 2.3971247,0.28046 3.5295417,0.54504 0.545042,-0.81492 1.397,-1.32027 2.246312,-1.82827 -0.635,-0.0873 -1.505479,0 -2.053166,0 m 4.556125,0.93133 c -0.481542,-0.42333 -1.140354,-0.75935 -1.894417,-0.86519 -0.669396,0.23813 -1.434042,0.71438 -2.021417,1.18798 -0.301625,0.24342 -0.418041,0.61913 -0.738187,0.83344 -1.158875,-0.30692 -2.600854,-0.86783 -4.0428327,-0.48154 -0.465667,0.49742 -0.928688,1.16681 -1.058334,1.89442 0.314855,-0.0767 0.518584,-0.18521 0.833438,-0.19315 0.367771,-0.008 0.701146,0.23283 1.026583,0.2249 0.4921247,-0.0132 0.8810627,-0.40482 1.4128747,-0.3863 0.584729,0.0212 0.994833,0.33867 1.508125,0.5133 0.235479,0.0794 0.523875,0.008 0.706438,0.25664 0.03439,0.67998 -0.58473,1.09802 -0.706438,1.66952 -0.09525,0.44979 -0.0291,0.96044 -0.09525,1.44463 -0.119062,0.84666 -0.632354,1.55046 -0.674687,2.34156 -0.02646,0.49477 0.01852,1.00806 -0.0979,1.53988 0.873125,0.17727 1.931458,0.29897 2.95275,0.22489 0.738187,-1.14564 1.8415,-1.92352 2.696104,-2.95275 0.478896,-0.0873 0.560917,-0.60589 0.867833,-0.86519 0.288396,-0.24606 0.642938,-0.29368 1.156229,-0.35189 0.02381,-0.1905 0.06615,-0.36248 0.0635,-0.57679 -0.531812,-0.254 -0.732895,-0.78846 -1.121833,-1.21973 -0.296333,-0.32809 -0.632354,-0.61648 -0.769937,-1.02659 0.357187,-1.05304 -1.296459,-1.21443 -1.444625,-1.95791 0.457729,-0.39688 1.063625,-0.64823 1.79652,-0.76994 -0.01058,-0.19579 -0.20902,-0.35719 -0.351895,-0.48154 m 1.248833,1.69862 c -0.129646,-0.26193 -0.534458,-1.09537 -0.769938,-1.02658 -0.457729,0.13229 -1.275291,0.30692 -1.603375,0.70644 0.1905,0.31221 0.486834,0.45243 0.769938,0.67468 0.224896,0.17728 0.658812,0.44715 0.706437,0.76994 0.02117,0.15081 -0.08996,0.32279 -0.0635,0.48154 0.05027,0.30957 0.587375,0.73819 0.801688,0.99484 0.296333,0.35189 0.484187,0.75141 0.836083,0.96308 0.150813,-1.33879 -0.246062,-2.7014 -0.674687,-3.56129 m -7.768167,0.73554 c -0.436562,0.0265 -0.817562,0.381 -1.251479,0.38629 -0.2804577,0 -0.5423957,-0.1905 -0.8334367,-0.22489 -0.492125,-0.0556 -0.854605,0.1217 -1.31498,0.25664 -0.219604,0.635 -0.333375,1.39436 -0.320145,2.15106 0.03175,1.91559 1.082145,3.31523 2.119312,4.23598 0.6879167,0.22225 1.2832287,0.53711 2.0214167,0.70644 -0.03175,-1.48431 0.301625,-2.40771 0.642937,-3.49779 0.206375,-0.6641 0.08202,-1.40229 0.256646,-2.02142 0.127,-0.4445 0.576792,-0.84666 0.674687,-1.34673 -0.738187,-0.11906 -1.222375,-0.68527 -1.989666,-0.64293 m 8.178271,3.78618 c -0.23548,-0.0106 -0.55298,0.17198 -0.801688,0.25665 -0.145521,0.24871 -0.306917,0.48419 -0.449792,0.73819 -0.185208,0.0503 -0.293687,0.17727 -0.481541,0.22489 -0.751417,0.98161 -1.785938,1.68011 -2.471209,2.72786 0.963084,-0.28575 1.987021,-0.44715 2.664355,-1.05834 0.658812,-0.59795 1.243541,-1.59543 1.539875,-2.50295 0.03704,-0.11378 0.179916,-0.3863 0.03175,-0.3863 z"
       id="path2248"
       style="fill:#65b7ec;fill-rule:evenodd;stroke-width:0.264583" />
    <path
       class="cls-8"
       d="m 17.774649,22.751429 c -0.481542,-0.42333 -1.140354,-0.75935 -1.894417,-0.86519 -0.669396,0.23813 -1.434042,0.71438 -2.021417,1.18798 -0.301625,0.24342 -0.418041,0.61913 -0.738187,0.83344 -1.158875,-0.30692 -2.600854,-0.86783 -4.0428327,-0.48154 -0.465667,0.49742 -0.928688,1.16681 -1.058334,1.89442 0.314855,-0.0767 0.518584,-0.18521 0.833438,-0.19315 0.367771,-0.008 0.701146,0.23283 1.026583,0.2249 0.4921247,-0.0132 0.8810627,-0.40482 1.4128747,-0.3863 0.584729,0.0212 0.994833,0.33867 1.508125,0.5133 0.235479,0.0794 0.523875,0.008 0.706438,0.25664 0.03439,0.67998 -0.58473,1.09802 -0.706438,1.66952 -0.09525,0.44979 -0.0291,0.96044 -0.09525,1.44463 -0.119062,0.84666 -0.632354,1.55046 -0.674687,2.34156 -0.02646,0.49477 0.01852,1.00806 -0.0979,1.53988 0.873125,0.17727 1.931458,0.29897 2.95275,0.22489 0.738187,-1.14564 1.8415,-1.92352 2.696104,-2.95275 0.478896,-0.0873 0.560917,-0.60589 0.867833,-0.86519 0.288396,-0.24606 0.642938,-0.29368 1.156229,-0.35189 0.02381,-0.1905 0.06615,-0.36248 0.0635,-0.57679 -0.531812,-0.254 -0.732895,-0.78846 -1.121833,-1.21973 -0.296333,-0.32809 -0.632354,-0.61648 -0.769937,-1.02659 0.357187,-1.05304 -1.296459,-1.21443 -1.444625,-1.95791 0.457729,-0.39688 1.063625,-0.64823 1.79652,-0.76994 -0.01058,-0.19579 -0.20902,-0.35719 -0.351895,-0.48154 z M 15.17644,3.5294523 c 0.256646,-0.124354 0.36248,-0.322792 0.576792,-0.449792 1.005417,-0.595312 3.010958,-0.711729 3.722688,0.03175 0.351895,0.367771 0.600604,1.248834 0.351895,1.894417 -0.124354,0.320146 -0.441854,0.478896 -0.513291,0.801687 -0.0344,0.15875 0.01058,0.343959 0,0.513292 -0.116417,1.867958 -0.574146,3.667125 -1.090084,5.2308117 -0.08202,0.251355 -0.201083,0.502709 -0.288395,0.769938 -0.08467,0.261937 -0.261938,0.529167 -0.288396,0.738187 -0.04498,0.341313 0.05292,0.701146 0.03175,0.994834 -0.07408,1.108604 -0.674688,1.677458 -1.121834,2.502958 1.434042,-0.243417 2.878667,-0.478896 4.365625,-0.674687 0.07144,-0.452438 0.01323,-1.034521 0.03175,-1.539875 -0.325437,-0.29898 -0.370416,-0.64823 0,-0.833438 0.6985,-0.351896 3.021542,-0.428625 3.07975,0.224896 0.0291,0.336021 -0.219604,0.378354 -0.383646,0.576792 0.05556,0.365125 -0.03439,0.836083 0,1.283229 0.664105,0.246062 1.37848,0.806979 1.34673,1.733021 -0.01588,0.492125 -0.251355,0.976312 -0.642938,1.219726 1.169458,0.53182 1.277938,2.50296 0.513292,3.52954 -0.0926,0.12436 -0.312209,0.3175 -0.481542,0.48155 -0.407458,0.39687 -0.783167,0.73025 -1.508125,0.80168 -0.926041,0.09 -2.082271,-0.045 -2.696104,-0.64293 -0.534458,-0.51859 -0.711729,-1.5875 -0.481542,-2.63261 -0.886354,-0.26194 -1.920875,-0.30956 -2.8575,-0.44979 -0.965729,-0.14287 -1.981729,-0.25135 -3.082395,-0.2884 -0.07937,0.69057 -0.07144,1.47109 -0.161396,2.15107 1.815041,-0.11907 3.254375,0.18785 4.204229,0.93133 0.746125,0.58208 1.447271,1.6854 1.796521,2.66435 0.428625,1.19857 0.537104,2.51619 0.256646,3.81794 -0.238125,1.10331 -0.854605,2.11402 -1.571625,2.88925 -0.613834,0.66146 -1.926167,1.23825 -3.048,1.37848 -0.957792,0.11906 -2.121959,0.0106 -3.01625,-0.127 -0.238125,-0.037 -0.515938,-0.0688 -0.769938,-0.12964 -0.179917,-0.0423 -0.343958,-0.1905 -0.545042,-0.25665 -0.174625,-0.0556 -0.343958,-0.0609 -0.513291,-0.127 -0.137584,-0.0556 -0.267229,-0.16404 -0.4180417,-0.2249 -0.407458,-0.16668 -0.791104,-0.32543 -1.090083,-0.64293 -0.254,-0.26723 -0.555625,-0.72761 -0.769938,-1.12448 -0.439208,-0.80434 -0.806979,-1.62454 -0.801687,-2.75961 0.0053,-1.25677 0.3175,-2.62466 0.867833,-3.59568 0.185209,-0.32544 0.497417,-0.5424 0.608542,-0.93134 0.452437,-0.254 0.751417,-0.66146 1.2197287,-0.89958 -0.2698747,-0.15611 -0.5371037,-0.10848 -0.7381867,-0.32015 -0.373063,-0.38893 -0.134938,-1.05304 0.193145,-1.38112 0.211667,-1.13242 0.7117297,-2.11138 0.6085417,-3.370794 -0.7963957,-0.489479 -1.6483537,-1.574271 -1.6377707,-2.759604 0.01058,-1.074208 0.513292,-2.177521 1.251479,-2.664354 -0.256645,-1.309688 -0.248708,-2.9818537 -0.0635,-4.4608747 0.03175,-0.248708 0.124355,-0.568854 0.09525,-0.738188 -0.04762,-0.280458 -0.41275,-0.43127 -0.481541,-0.642937 -0.150813,-0.460375 0.01323,-1.2065 0.193146,-1.637771 0.53975,-1.285875 2.1113737,-1.973792 3.6274367,-1.989667 0.968375,-0.01058 1.931458,0.306917 2.119312,1.12448 z m -0.513291,1.733021 c 0.05292,-0.484188 0.357187,-1.016 0.288396,-1.571625 -0.103188,-0.830792 -1.031875,-1.066271 -1.957917,-1.026584 -1.410229,0.05821 -2.965979,0.719667 -3.3707917,2.021417 -0.08731,0.283104 -0.193145,0.735542 -0.161395,1.090083 0.04233,0.439209 0.325437,0.478896 0.5450407,0.801688 -0.2381247,1.624542 -0.2725207,3.5057287 -0.1613957,5.1038117 0.7805207,-0.648229 2.1801667,-1.277937 3.6591877,-1.314979 1.894416,-0.04762 3.638021,0.637646 4.074583,2.246313 0.672042,-1.711855 1.156229,-3.8470417 1.412875,-6.0007497 0.04233,-0.346604 -0.02646,-0.722313 0.0635,-0.994834 0.100542,-0.30427 0.449792,-0.531812 0.545042,-0.899583 0.156104,-0.605896 -0.07673,-1.386417 -0.513292,-1.637771 -0.73025,-0.418041 -2.299229,-0.272521 -3.114146,0.193146 -0.291041,0.166688 -0.492125,0.4445 -0.738187,0.706438 0.07937,0.584729 -0.243417,0.973666 -0.288396,1.412875 -0.0291,0.264583 0.153458,0.597958 0,0.899583 -0.343958,-0.15875 -0.328083,-0.658813 -0.288396,-1.026583 z m 1.508125,11.2633117 c 0.394229,-0.587375 0.960437,-1.225021 1.156229,-2.021417 0.06615,-0.264583 0.145521,-0.645583 0.09525,-0.994833 -0.01587,-0.119062 -0.119063,-0.179917 -0.127,-0.256646 -0.01323,-0.08996 0.07673,-0.201083 0.0635,-0.351896 -0.137583,-1.735666 -2.256896,-2.38125 -4.042833,-2.278062 -2.386542,0.137583 -4.6328537,1.666875 -4.5905207,3.915833 0.02117,1.008063 0.661458,2.111375 1.5716247,2.309813 0.05556,0.177271 0.0291,0.470958 0,0.801687 1.957916,-0.296333 4.209521,-0.111125 5.9055,-0.576791 0.01323,-0.275167 0.0053,-0.328084 -0.03175,-0.545042 z m 4.812771,-2.759604 c -0.179917,0.264583 0.148166,0.34925 0.224895,0.545042 0.05027,0.127 0.03704,0.396875 0.03175,0.576791 -0.03175,1.039813 -0.137583,2.751667 -0.0635,3.593042 -0.428625,0.383643 -0.849312,0.777873 -1.058333,1.381123 0.981604,-0.19314 1.434042,0.51594 2.119313,0.60854 1.248833,0.17198 1.500187,-0.94985 2.600854,-1.09008 -0.08467,-0.38629 -0.39423,-0.54504 -0.738188,-0.67469 -0.47625,0.31486 -1.793875,0.26459 -1.508125,-0.513289 -0.449791,0.01323 -0.600604,-0.494771 -0.320146,-0.769937 -0.624416,-0.0053 -0.370416,-0.669396 -0.0635,-0.833438 -0.854604,-0.433917 0.537105,-1.066271 1.18798,-0.994833 -0.02381,-0.505354 0.0344,-0.928688 0.03175,-1.412875 0.124355,-0.153459 0.325438,-0.230188 0.351896,-0.481542 -0.767291,-0.381 -2.06375,0 -2.791354,0.0635 z m 3.563937,2.664354 c -0.169333,-0.248708 -0.486833,-0.388937 -0.833438,-0.513292 -0.09525,-0.0079 -0.09789,0.07144 -0.193145,0.0635 -0.447146,-0.214312 -1.127125,0.06085 -1.314979,0.418042 0.394229,0.08731 1.06627,-0.267229 1.187979,0.193146 -0.576792,0.02381 -1.164167,0.203729 -1.251479,0.608542 0.383645,0.164041 1.172104,-0.367771 1.251479,0.193145 -0.486834,0.02646 -0.881063,0.145521 -1.026584,0.513292 0.293688,0.116417 0.899584,-0.378354 1.026584,0.0635 -0.214313,0.179917 -0.574146,0.216958 -0.608542,0.576789 1.322917,0.45509 2.484437,-1.063622 1.764771,-2.11931 z m -8.056562,0.418042 c 0,0.148166 0.01323,0.314854 -0.03175,0.418041 -0.799042,0.336021 -1.91823,0.34925 -2.95275,0.449792 0.105833,0.418042 0.179916,0.870479 0.193145,1.381129 2.196042,0.082 4.116917,0.4392 6.130396,0.70643 0.156104,-0.66939 0.711729,-1.10331 1.026584,-1.508121 -0.03175,-0.756709 0.07937,-1.375834 0.0635,-2.119313 -1.547813,0.153458 -2.9845,0.415396 -4.429125,0.674688 z m -6.06425,1.058333 c -0.195792,1.023939 -0.5027087,1.934109 -0.7064377,2.952749 -0.224896,0.18521 -0.436562,0.53711 -0.320146,0.96308 1.0239377,0.80434 2.9368747,0.21167 3.8840837,-0.28839 0.134937,-1.07686 0.312208,-2.74638 -0.0635,-3.786189 -1.008063,-0.02381 -1.93675,0.03175 -2.791355,0.161396 z m 2.791354,3.915829 c -0.767292,0.36513 -1.838854,0.73819 -2.88925,0.60855 -0.103188,0.12964 -0.304271,0.20637 -0.4815417,0.32014 -0.150812,0.0979 -0.399521,0.24606 -0.351896,0.3519 1.3943537,-0.15875 2.3971247,0.28046 3.5295417,0.54504 0.545042,-0.81492 1.397,-1.32027 2.246312,-1.82827 -0.635,-0.0873 -1.505479,0 -2.053166,0 z m 4.556125,0.92869 c -0.481542,-0.42333 -1.140354,-0.75935 -1.894417,-0.86519 -0.669396,0.23813 -1.434042,0.71438 -2.021417,1.18798 -0.301625,0.24342 -0.418041,0.61913 -0.738187,0.83344 -1.158875,-0.30692 -2.600854,-0.86783 -4.0428327,-0.48154 -0.465667,0.49742 -0.928688,1.16681 -1.058334,1.89442 0.314855,-0.0767 0.518584,-0.18521 0.833438,-0.19315 0.367771,-0.008 0.701146,0.23283 1.026583,0.2249 0.4921247,-0.0132 0.8810627,-0.40482 1.4128747,-0.3863 0.584729,0.0212 0.994833,0.33867 1.508125,0.5133 0.235479,0.0794 0.523875,0.008 0.706438,0.25664 0.03439,0.67998 -0.58473,1.09802 -0.706438,1.66952 -0.09525,0.44979 -0.0291,0.96044 -0.09525,1.44463 -0.119062,0.84666 -0.632354,1.55046 -0.674687,2.34156 -0.02646,0.49477 0.01852,1.00806 -0.0979,1.53988 0.873125,0.17727 1.931458,0.29897 2.95275,0.22489 0.738187,-1.14564 1.8415,-1.92352 2.696104,-2.95275 0.478896,-0.0873 0.560917,-0.60589 0.867833,-0.86519 0.288396,-0.24606 0.642938,-0.29368 1.156229,-0.35189 0.02381,-0.1905 0.06615,-0.36248 0.0635,-0.57679 -0.531812,-0.254 -0.732895,-0.78846 -1.121833,-1.21973 -0.296333,-0.32809 -0.632354,-0.61648 -0.769937,-1.02659 0.357187,-1.05304 -1.296459,-1.21443 -1.444625,-1.95791 0.457729,-0.39688 1.063625,-0.64823 1.79652,-0.76994 -0.01058,-0.19579 -0.20902,-0.35719 -0.351895,-0.48154 z m 1.251479,1.70127 c -0.129646,-0.26193 -0.534458,-1.09537 -0.769938,-1.02658 -0.457729,0.13229 -1.275291,0.30692 -1.603375,0.70644 0.1905,0.31221 0.486834,0.45243 0.769938,0.67468 0.224896,0.17728 0.658812,0.44715 0.706437,0.76994 0.02117,0.15081 -0.08996,0.32279 -0.0635,0.48154 0.05027,0.30957 0.587375,0.73819 0.801688,0.99484 0.296333,0.35189 0.484187,0.75141 0.836083,0.96308 0.150813,-1.33879 -0.246062,-2.7014 -0.674687,-3.56129 z m -7.765521,0.73819 c -0.436562,0.0265 -0.817562,0.381 -1.251479,0.38629 -0.2804577,0 -0.5423957,-0.1905 -0.8334367,-0.22489 -0.492125,-0.0556 -0.854605,0.1217 -1.31498,0.25664 -0.219604,0.635 -0.333375,1.39436 -0.320145,2.15106 0.03175,1.91559 1.082145,3.31523 2.119312,4.23598 0.6879167,0.22225 1.2832287,0.53711 2.0214167,0.70644 -0.03175,-1.48431 0.301625,-2.40771 0.642937,-3.49779 0.206375,-0.6641 0.08202,-1.40229 0.256646,-2.02142 0.127,-0.4445 0.576792,-0.84666 0.674687,-1.34673 -0.738187,-0.11906 -1.222375,-0.68527 -1.989666,-0.64293 z m 8.183563,3.78883 c -0.23548,-0.0106 -0.55298,0.17198 -0.801688,0.25665 -0.145521,0.24871 -0.306917,0.48419 -0.449792,0.73819 -0.185208,0.0503 -0.293687,0.17727 -0.481541,0.22489 -0.751417,0.98161 -1.785938,1.68011 -2.471209,2.72786 0.963084,-0.28575 1.987021,-0.44715 2.664355,-1.05834 0.658812,-0.59795 1.243541,-1.59543 1.539875,-2.50295 0.03704,-0.11378 0.179916,-0.3863 0.03175,-0.3863 z"
       id="path2250"
       style="fill:none;stroke:#65b7ec;stroke-width:0.296333px;stroke-miterlimit:10" />
    <path
       class="cls-24"
       d="m 13.795315,12.578202 c 0.844021,-0.06085 1.653646,0.288396 2.084917,0.801687 0.854604,1.021292 0.06879,2.346854 -0.801687,2.8575 -0.505355,0.296334 -1.050396,0.243417 -1.669521,0.320146 -0.201084,0.02646 -0.388938,0.140229 -0.576792,0.161396 -0.47625,0.05556 -1.471083,-0.124354 -1.733021,-0.418042 -0.243416,-0.272521 -0.309562,-0.870479 -0.320146,-1.124479 -0.02117,-0.433917 0.0635,-0.894292 0.256646,-1.251479 0.460375,-0.85725 1.653646,-1.267354 2.759604,-1.346729 m -1.412875,0.642937 c 0.07937,0.346604 0.415396,0.439209 0.865188,0.418042 -0.0026,-0.100542 -0.113771,-0.354542 0.0635,-0.351896 0.195792,0.06085 0.161396,0.351896 0.320146,0.449792 0.269875,0.07408 0.568854,0.07673 0.801687,-0.03175 -0.01058,-0.142875 -0.113771,-0.216959 0.03175,-0.288396 0.206375,0.0079 0.211667,0.214312 0.320146,0.320146 0.275167,0.148166 0.682625,0.153458 0.994833,0.03175 -0.452437,-1.095375 -2.365375,-1.172104 -3.402541,-0.545042"
       id="path2252-2"
       style="fill:#65b7ec;fill-rule:evenodd;stroke-width:0.264583" />
    <path
       class="cls-8"
       d="m 13.795315,12.578202 c 0.844021,-0.06085 1.653646,0.288396 2.084917,0.801687 0.854604,1.021292 0.06879,2.346854 -0.801687,2.8575 -0.505355,0.296334 -1.050396,0.243417 -1.669521,0.320146 -0.201084,0.02646 -0.388938,0.140229 -0.576792,0.161396 -0.47625,0.05556 -1.471083,-0.124354 -1.733021,-0.418042 -0.243416,-0.272521 -0.309562,-0.870479 -0.320146,-1.124479 -0.02117,-0.433917 0.0635,-0.894292 0.256646,-1.251479 0.460375,-0.85725 1.653646,-1.267354 2.759604,-1.346729 z m -1.412875,0.642937 c 0.07937,0.346604 0.415396,0.439209 0.865188,0.418042 -0.0026,-0.100542 -0.113771,-0.354542 0.0635,-0.351896 0.195792,0.06085 0.161396,0.351896 0.320146,0.449792 0.269875,0.07408 0.568854,0.07673 0.801687,-0.03175 -0.01058,-0.142875 -0.113771,-0.216959 0.03175,-0.288396 0.206375,0.0079 0.211667,0.214312 0.320146,0.320146 0.275167,0.148166 0.682625,0.153458 0.994833,0.03175 -0.452437,-1.095375 -2.365375,-1.172104 -3.402541,-0.545042 z"
       id="path2254-2"
       style="fill:none;stroke:#65b7ec;stroke-width:0.296333px;stroke-miterlimit:10" />
    <path
       class="cls-23"
       d="m 14.565253,15.147306 c 0.140229,-0.169333 0.156104,-0.500063 0.0635,-0.738188 -0.627063,-0.39952 -0.85725,1.045105 -0.0635,0.738188 m -2.021417,-0.579438 c -0.343958,-0.05821 -0.526521,0.481542 -0.256646,0.769938 0.185209,0.06615 0.386292,0.01852 0.481542,-0.09525 0.0344,-0.272521 0.0053,-0.635 -0.224896,-0.674688 m 0.576792,0.674688 c 0.142875,0.134937 0.232833,0.01058 0.386292,-0.0635 0.07937,0.07144 0.182562,0.116417 0.351895,0.09525 0.03175,-0.468313 -0.706437,-0.365125 -0.738187,-0.03175 m 0,0.481542 c -0.235479,-0.03175 -0.322792,-0.3175 -0.576792,-0.193146 0.0635,0.635 1.505479,0.486833 1.508125,0 -0.288396,-0.09525 -0.560916,0.243416 -0.931333,0.193146"
       id="path2256-8"
       style="fill:#ffffff;fill-rule:evenodd;stroke-width:0.264583" />
    <path
       class="cls-27"
       d="m 24.643232,19.703429 c -0.799042,0.29898 -1.367896,1.31763 -2.502958,1.02659 -0.66675,-0.17198 -1.198563,-0.90223 -2.151063,-0.54505 -0.301625,1.06627 -0.03175,2.21721 0.674688,2.59821 0.751416,0.40746 2.299229,0.49213 3.048,0 1.005416,-0.66146 1.7145,-2.05846 1.251479,-3.11414 -0.150813,-0.0106 -0.254,0.008 -0.320146,0.0318"
       id="path2258-9"
       style="fill:#f6ed36;fill-rule:evenodd;stroke-width:0.264583" />
    <path
       class="cls-8"
       d="m 24.643232,19.703429 c -0.799042,0.29898 -1.367896,1.31763 -2.502958,1.02659 -0.66675,-0.17198 -1.198563,-0.90223 -2.151063,-0.54505 -0.301625,1.06627 -0.03175,2.21721 0.674688,2.59821 0.751416,0.40746 2.299229,0.49213 3.048,0 1.005416,-0.66146 1.7145,-2.05846 1.251479,-3.11414 -0.150813,-0.0106 -0.254,0.008 -0.320146,0.0318 z"
       id="path2260-7"
       style="fill:none;stroke:#65b7ec;stroke-width:0.296333px;stroke-miterlimit:10" />
    <path
       class="cls-27"
       d="m 14.758399,26.442369 c -0.312209,-0.0238 -0.53975,0.0397 -0.833438,0.0318 0.08202,-0.41804 0.119063,-0.99483 -0.127,-1.25148 0.124354,0.0979 0.256646,-0.11642 0.351896,-0.0318 0.338667,0.127 0.08996,0.45773 0.127,0.67469 0.05292,0.29369 0.407458,0.28575 0.481542,0.57679"
       id="path2262-3"
       style="fill:#f6ed36;fill-rule:evenodd;stroke-width:0.264583" />
    <path
       class="cls-27"
       d="m 14.213357,28.241539 c -0.555625,-0.008 -0.664104,-0.88636 -0.161396,-0.93134 0.457729,-0.0423 0.608542,0.71438 0.161396,0.93134"
       id="path2264-6"
       style="fill:#f6ed36;fill-rule:evenodd;stroke-width:0.264583" />
    <path
       class="cls-27"
       d="m 14.051961,29.429519 c 0.0344,0.24341 0.248709,0.20372 0.288396,0.38364 0.100542,0.45773 -0.629708,0.61913 -0.449792,1.12448 -0.341312,-0.0847 -0.478895,-0.37835 -0.867833,-0.41804 0.05821,-0.16669 0.09525,-0.35454 0.256646,-0.41804 -0.02117,-0.1905 -0.209021,-0.21961 -0.193146,-0.44979 0.156104,0.008 0.455083,-0.008 0.545042,-0.1614 0.06879,-0.10848 -0.111125,-0.19579 -0.161396,-0.2884 0.103187,-0.20637 0.127,-0.49212 0.193146,-0.73818 0.828146,-0.31221 0.767291,0.70114 0.383646,0.96308"
       id="path2266-1"
       style="fill:#f6ed36;fill-rule:evenodd;stroke-width:0.264583" />
    <path
       class="cls-25"
       d="m 14.597003,13.864077 c -0.134938,0.08731 -0.325438,0.156104 -0.513292,0.161396 -0.261937,0.0053 -0.47625,-0.166688 -0.642937,-0.193146 -0.198438,-0.0291 -0.410104,0.06085 -0.576792,0.03175 -0.367771,-0.06085 -0.632354,-0.346604 -0.769937,-0.545042 -0.896938,0.3175 -1.344084,1.8415 -0.769938,2.8575 0.431271,0.219604 0.791104,0.370417 1.444625,0.320146 0.465667,-0.291042 1.312333,-0.129646 1.828271,-0.320146 0.870479,-0.322792 1.468437,-1.021292 1.314979,-2.182812 -0.449792,0.150812 -0.98425,0.08467 -1.314979,-0.127"
       id="path2268-2"
       style="fill:#f5e3dd;fill-rule:evenodd;stroke-width:0.264583" />
    <path
       class="cls-8"
       d="m 14.597003,13.864077 c -0.134938,0.08731 -0.325438,0.156104 -0.513292,0.161396 -0.261937,0.0053 -0.47625,-0.166688 -0.642937,-0.193146 -0.198438,-0.0291 -0.410104,0.06085 -0.576792,0.03175 -0.367771,-0.06085 -0.632354,-0.346604 -0.769937,-0.545042 -0.896938,0.3175 -1.344084,1.8415 -0.769938,2.8575 0.431271,0.219604 0.791104,0.370417 1.444625,0.320146 0.465667,-0.291042 1.312333,-0.129646 1.828271,-0.320146 0.870479,-0.322792 1.468437,-1.021292 1.314979,-2.182812 -0.449792,0.150812 -0.98425,0.08467 -1.314979,-0.127 z"
       id="path2270-9"
       style="fill:none;stroke:#65b7ec;stroke-width:0.296333px;stroke-miterlimit:10" />
    <path
       class="cls-24"
       d="m 14.628753,14.409118 c 0.0926,0.238125 0.07673,0.568855 -0.0635,0.738188 -0.791104,0.306917 -0.563563,-1.137708 0.0635,-0.738188"
       id="path2272-3"
       style="fill:#65b7ec;fill-rule:evenodd;stroke-width:0.264583" />
    <path
       class="cls-24"
       d="m 12.768732,15.242556 c -0.09525,0.113771 -0.296333,0.161396 -0.481542,0.09525 -0.269875,-0.288396 -0.08731,-0.828146 0.256646,-0.769938 0.230188,0.03969 0.259292,0.402167 0.224896,0.674688"
       id="path2274-1"
       style="fill:#65b7ec;fill-rule:evenodd;stroke-width:0.264583" />
    <path
       class="cls-24"
       d="m 13.858815,15.274306 c -0.171979,0.02117 -0.275166,-0.02381 -0.351895,-0.09525 -0.150813,0.07408 -0.240771,0.198437 -0.386292,0.0635 0.03175,-0.333375 0.769937,-0.436563 0.738187,0.03175"
       id="path2276-9"
       style="fill:#65b7ec;fill-rule:evenodd;stroke-width:0.264583" />
    <path
       class="cls-24"
       d="m 14.051961,15.530952 c -0.0026,0.486833 -1.444625,0.635 -1.508125,0 0.254,-0.124354 0.341313,0.161396 0.576792,0.193146 0.370417,0.05027 0.640292,-0.288396 0.931333,-0.193146"
       id="path2278-4"
       style="fill:#65b7ec;fill-rule:evenodd;stroke-width:0.264583" />
    <path
       class="cls-27"
       d="m 27.365794,8.8422853 c -0.198437,0.269875 -0.55827,0.214313 -0.8255,0.309563 -0.74877,0.261937 -1.51077,0.743479 -2.264833,1.1059577 -0.124354,-0.05027 -0.209021,-0.129646 -0.254,-0.235479 0.227542,-0.3730627 0.814917,-0.6270627 1.404938,-0.8995837 0.457729,-0.211666 1.198562,-0.637645 1.598083,-0.576791 0.156104,0.02381 0.338667,0.04233 0.343958,0.296333"
       id="path2280-7"
       style="fill:#f6ed36;fill-rule:evenodd;stroke-width:0.264583" />
    <path
       class="cls-27"
       d="m 27.513961,10.080535 c -0.224896,0.201083 -0.555625,0.164042 -0.812271,0.214313 -0.767291,0.150812 -1.481666,0.502708 -2.211916,0.772583 0.01058,-0.134938 -0.134938,-0.153458 -0.153459,-0.267229 0.494771,-0.584729 2.032,-0.9392707 2.836334,-1.0159997 0.119062,-0.01058 0.343958,0.01323 0.343958,0.2963327"
       id="path2282-8"
       style="fill:#f6ed36;fill-rule:evenodd;stroke-width:0.264583" />
    <path
       class="cls-27"
       d="m 22.60594,10.543556 c 0.77523,-0.142875 1.124479,0.243417 1.201209,0.672042 0.24077,1.344083 -1.772709,1.984375 -2.211917,0.960437 -0.402167,-0.936625 0.375708,-1.518708 1.010708,-1.635125"
       id="path2284-4"
       style="fill:#f6ed36;fill-rule:evenodd;stroke-width:0.264583" />
    <path
       class="cls-10"
       d="m 22.60594,10.543556 c 0.77523,-0.142875 1.124479,0.243417 1.201209,0.672042 0.24077,1.344083 -1.772709,1.984375 -2.211917,0.960437 -0.402167,-0.936625 0.375708,-1.518708 1.010708,-1.635125 z"
       id="path2286-5"
       style="fill:none;stroke:#f6ed36;stroke-width:0.4445px;stroke-miterlimit:10" />
    <path
       class="cls-27"
       d="m 27.68594,11.472243 c -0.238125,0.1905 -0.563562,0.03704 -0.883708,0.05556 -0.679979,0.03969 -1.431396,0.198437 -2.050521,0.359833 -0.116417,-0.06879 -0.174625,-0.182562 -0.248708,-0.283104 0.288396,-0.328083 0.994833,-0.370417 1.624541,-0.428625 0.492125,-0.04498 1.531938,-0.280458 1.561042,0.293688"
       id="path2288-0"
       style="fill:#f6ed36;fill-rule:evenodd;stroke-width:0.264583" />
  </g>
</svg>
