<?xml version="1.0" encoding="UTF-8" standalone="no"?>
<!-- Created with Inkscape (http://www.inkscape.org/) -->

<svg
   width="23.256876mm"
   height="9.5859356mm"
   viewBox="0 0 23.256876 9.5859356"
   version="1.1"
   id="svg8958"
   xmlns="http://www.w3.org/2000/svg"
   xmlns:svg="http://www.w3.org/2000/svg">
  <defs
     id="defs8955" />
  <g
     id="layer1"
     transform="translate(-1.4086534,-1.3890239)">
    <g
       id="g9127">
      <path
         class="cls-30"
         d="m 3.0014454,2.2938839 v 0.39952 c 0,0.0873 -0.02911,0.16933 -0.08202,0.23548 l -0.423334,0.55298 c -0.02117,0.0264 -0.04762,0.0397 -0.08202,0.0397 -0.02646,0 -0.05027,-0.0106 -0.07144,-0.0265 l -0.333375,-0.3175 0.423333,-0.55033 c 0.01323,-0.0159 0.02117,-0.0344 0.02117,-0.0582 v -0.27781 h -0.277812 v 0.51329 h -0.515938 v -0.51329 h -0.251356 v -0.40481 h 0.251354 v -0.37836 h 0.455083 c 0.03969,0 0.06086,0.0212 0.06086,0.0662 v 0.31221 h 0.277812 v -0.38629 h 0.547688 v 0.38629 h 0.243416 v 0.40481 h -0.243416 z"
         id="path2194-2"
         style="fill:#65b7ec;stroke-width:0.264583" />
      <path
         class="cls-30"
         d="m 4.8297154,2.1245439 v 1.33086 h -0.62177 v -0.90223 l -0.293688,0.20373 c -0.01588,0.0106 -0.03704,0.0185 -0.05821,0.0185 -0.03969,0 -0.07144,-0.0185 -0.0926,-0.0609 l -0.193146,-0.33866 1.36525,-0.93663 0.243416,0.44186 -0.34925,0.24077 z"
         id="path2196-9"
         style="fill:#65b7ec;stroke-width:0.264583" />
      <path
         class="cls-30"
         d="m 5.7663404,3.3522139 v -0.44185 h 0.502709 v -0.78846 h -0.460375 v -0.43921 h 1.6377711 v 0.43921 H 6.9992994 v 0.78846 h 0.4921251 v 0.44185 H 5.7689864 Z"
         id="path2198-1"
         style="fill:#65b7ec;stroke-width:0.264583" />
      <path
         class="cls-30"
         d="m 7.9147575,2.1510039 v -0.508 h 0.672042 v 0.508 z m 0.640292,1.39436 -0.447146,-0.46567 1.180042,-1.38377 0.36777,0.37571 c 0.02381,0.0238 0.03704,0.0529 0.03704,0.0873 0,0.0344 -0.01058,0.0582 -0.0291,0.0847 z"
         id="path2200-2"
         style="fill:#65b7ec;stroke-width:0.264583" />
      <path
         class="cls-30"
         d="m 11.47605,3.4633339 c -0.02117,0.0238 -0.04762,0.0371 -0.07673,0.0371 -0.03175,0 -0.05821,-0.0106 -0.07937,-0.0344 l -0.386291,-0.42333 -0.373063,0.42333 c -0.02117,0.0238 -0.04763,0.037 -0.07673,0.037 -0.0291,0 -0.05821,-0.0132 -0.07673,-0.037 l -0.338667,-0.37042 0.92075,-1.03187 c 0.01588,-0.0159 0.02117,-0.037 0.02117,-0.0582 v -0.09 h -0.8255 v -0.40216 h 1.407583 v 0.64293 c 0,0.0873 -0.0291,0.16404 -0.08467,0.23019 l -0.174625,0.19579 0.468312,0.50536 -0.325437,0.37041 z"
         id="path2202-7"
         style="fill:#65b7ec;stroke-width:0.264583" />
      <path
         class="cls-30"
         d="m 12.653445,3.3098839 c -0.01588,0.0714 -0.05556,0.10583 -0.119062,0.10583 -0.0079,0 -0.01588,0 -0.02646,0 l -0.473605,-0.11642 0.306917,-1.4896 0.592667,0.14552 -0.275167,1.35731 z m 0.978959,0.0979 c 0,0 -0.02381,0 -0.0344,0 -0.06085,0 -0.0979,-0.0317 -0.119063,-0.0979 l -0.357187,-1.35996 0.423333,-0.13494 c -0.0291,-0.045 -0.03969,-0.0952 -0.03969,-0.14817 0,-0.0767 0.02381,-0.14022 0.07408,-0.19579 0.05027,-0.0556 0.105833,-0.082 0.174625,-0.082 0.06879,0 0.127,0.0265 0.174625,0.082 0.04763,0.0556 0.07408,0.11906 0.07408,0.19579 0,0.0767 -0.02381,0.14288 -0.07408,0.20109 -0.05027,0.0556 -0.108479,0.082 -0.174625,0.0767 v 0 l 0.343958,1.30704 -0.465666,0.15346 z m 0.177271,-1.79387 c -0.01587,-0.0159 -0.03175,-0.0238 -0.05027,-0.0238 -0.01852,0 -0.03704,0.008 -0.05027,0.0238 -0.01588,0.0132 -0.02117,0.0344 -0.02117,0.0556 0,0.0212 0.0053,0.0397 0.02117,0.0556 0.01323,0.0159 0.0291,0.0238 0.05027,0.0238 0.02117,0 0.03704,-0.008 0.05027,-0.0238 0.01323,-0.0132 0.01852,-0.0344 0.01852,-0.0556 0,-0.0212 -0.0053,-0.0397 -0.01852,-0.0556 z"
         id="path2204-0"
         style="fill:#65b7ec;stroke-width:0.264583" />
      <path
         class="cls-30"
         d="m 15.995133,2.5558139 c 0,0.09 -0.0291,0.16405 -0.0926,0.2249 l -0.687917,0.6641 c -0.01852,0.0212 -0.04233,0.0318 -0.07144,0.0318 -0.0344,0 -0.06086,-0.0132 -0.08202,-0.0423 l -0.330729,-0.41804 0.637645,-0.61119 c 0.01587,-0.0159 0.02117,-0.037 0.02117,-0.0582 v -0.32543 h -1.000125 v -0.43921 h 1.603375 v 0.97366 z"
         id="path2206-9"
         style="fill:#65b7ec;stroke-width:0.264583" />
      <path
         class="cls-30"
         d="m 17.712279,2.5029039 v 0.94191 h -0.505354 v -0.39423 l -0.232834,0.25665 c -0.02117,0.0238 -0.04233,0.037 -0.06879,0.037 -0.02646,0 -0.05027,-0.0106 -0.06879,-0.037 l -0.254,-0.28575 0.478896,-0.51594 h -0.436563 v -0.34925 h 0.582084 v -0.29104 h 0.447145 c 0.03969,0 0.05821,0.0212 0.05821,0.0635 v 0.22754 h 0.314854 v 0.34925 h -0.314854 z"
         id="path2208-3"
         style="fill:#65b7ec;stroke-width:0.264583" />
      <path
         class="cls-30"
         d="m 18.57482,2.6934039 v -0.43921 l 1.801813,-0.005 v 0.44185 H 18.57482 Z"
         id="path2210-6"
         style="fill:#65b7ec;stroke-width:0.264583" />
      <path
         class="cls-30"
         d="m 22.540925,2.0716339 -0.640292,0.87048 0.171979,0.26458 -0.367771,0.29898 -0.709083,-1.07686 c 0,0 -0.01058,-0.0238 -0.01058,-0.037 0,-0.0238 0.0079,-0.0423 0.02646,-0.0556 l 0.314854,-0.25929 0.203729,0.30956 0.248709,-0.33337 h -1.076855 v -0.40482 h 1.875896 v 0.29898 c 0,0.0476 -0.01058,0.0873 -0.03704,0.12436 z"
         id="path2212-0"
         style="fill:#65b7ec;stroke-width:0.264583" />
      <path
         class="cls-30"
         d="m 22.863716,2.6934039 v -0.43921 l 1.801813,-0.005 v 0.44185 h -1.801813 z"
         id="path2214-6"
         style="fill:#65b7ec;stroke-width:0.264583" />
    </g>
    <g
       id="g9135">
      <path
         class="cls-30"
         d="m 6.1446954,7.7548839 c -0.653521,0 -1.733021,0.2196 -2.233084,-0.28311 -0.706437,-0.70644 0.187854,-1.37054 0.791104,-1.72244 0.989542,-0.57414 2.12725,-0.79904 3.2358551,-1.03981 0.611187,-0.13229 1.730374,-0.38629 2.2648335,-0.0132 1.592791,1.11125 -0.6032505,4.07459 -1.3467295,5.04032 -0.547688,0.7117201 -1.108604,1.0265801 -2.0002501,1.1218301 -0.629709,0.0661 -0.727604,-0.127 -0.619125,-0.80963 0.06085,-0.3836401 0.28575,-0.7514101 0.468312,-1.0874301 0.0926,-0.16934 0.4841881,-0.61119 0.4894791,-0.82286 0.02117,-0.60589 -0.8784161,-0.53975 -1.1959161,-0.33602"
         id="path2292"
         style="fill:#65b7ec;stroke-width:0.264583" />
      <path
         class="cls-30"
         d="m 15.34955,4.5269639 c -0.80698,0 -1.643063,0.21431 -1.330855,1.27794 0.224896,0.76729 1.49225,1.19062 2.092855,0.68262 0.439208,-0.37041 0.497416,-1.24354 0.08467,-1.61396 -0.304271,-0.27252 -0.732896,-0.25135 -1.084791,-0.34395"
         id="path2294"
         style="fill:#65b7ec;stroke-width:0.264583" />
      <path
         class="cls-30"
         d="m 14.4923,7.0272739 c 0.359833,0.17727 0.682625,0.23813 0.783166,0.59796 0.07673,0.27517 -0.06085,0.73025 -0.216958,0.95779 -0.415396,0.60061 -1.711854,0.80963 -2.214563,0.17198 -0.791104,-1.00277 0.595313,-2.22514 1.584855,-1.70656"
         id="path2296"
         style="fill:#65b7ec;stroke-width:0.264583" />
      <path
         class="cls-30"
         d="m 15.873425,10.969564 c -1.248834,-0.19314 -0.415396,-2.0796201 -0.02381,-2.6987501 0.60325,-0.9525 1.568979,-1.71185 2.651125,-2.04258 1.579563,-0.48154 1.733021,1.2065 1.029229,2.23308 -0.428625,0.62707 -1.037166,1.29117 -1.685396,1.7039201 -0.439208,0.28046 -1.42875,0.88635 -1.971145,0.80169"
         id="path2298"
         style="fill:#65b7ec;stroke-width:0.264583" />
      <path
         class="cls-24"
         d="m 18.736216,4.1909439 c 0.171979,0.0212 0.439209,-0.0556 0.494771,0.0767 -0.09525,0.17462 -0.235479,0.30162 -0.325437,0.48154 0.02381,0.11906 0.0635,0.2249 0.07673,0.35719 -0.03704,0.0238 -0.05027,0.0741 -0.0926,0.0926 -0.193146,-0.0397 -0.29898,-0.16669 -0.465667,-0.23283 -0.206375,0.0635 -0.375708,0.24077 -0.60325,0.23283 0,-0.17198 0.05027,-0.28839 0.108479,-0.40217 -0.05027,-0.19314 -0.171979,-0.3122 -0.216958,-0.51064 0.0979,-0.0318 0.288396,-0.0503 0.402166,-0.0159 0.164042,-0.11112 0.182563,-0.44714 0.418042,-0.43391 0.01852,0.16668 0.145521,0.22489 0.201083,0.35718"
         id="path2300"
         style="fill:#65b7ec;fill-rule:evenodd;stroke-width:0.264583" />
      <path
         class="cls-24"
         d="m 20.474529,4.8735639 c 0.171979,0.0212 0.439208,-0.0556 0.494771,0.0767 -0.09525,0.17463 -0.23548,0.30163 -0.325438,0.48154 0.02381,0.11907 0.0635,0.2249 0.07673,0.35719 -0.03704,0.0238 -0.05027,0.0741 -0.0926,0.0926 -0.193146,-0.0397 -0.298979,-0.16669 -0.465667,-0.23284 -0.206375,0.0635 -0.375708,0.24077 -0.60325,0.23284 0,-0.17198 0.05027,-0.29105 0.10848,-0.40217 -0.05027,-0.19315 -0.17198,-0.31221 -0.216959,-0.51065 0.0979,-0.0318 0.288396,-0.0503 0.402167,-0.0159 0.164042,-0.11113 0.182562,-0.44715 0.418042,-0.43392 0.01852,0.16669 0.14552,0.22754 0.201083,0.35719"
         id="path2302"
         style="fill:#65b7ec;fill-rule:evenodd;stroke-width:0.264583" />
    </g>
  </g>
</svg>
