<svg width="56" height="74" viewBox="0 0 56 74" fill="none" xmlns="http://www.w3.org/2000/svg">
<path d="M11.5444 72.6091C11.5444 72.7391 11.4744 72.8191 11.3344 72.8191H2.17442C2.02442 72.8191 1.9644 72.7491 1.9644 72.6091L2.00444 71.6991C2.01444 71.5491 2.09441 71.4791 2.22441 71.4791H5.3444C5.4944 71.4791 5.56443 71.4191 5.56443 71.2891V70.7491C5.57443 70.6191 5.52438 70.5391 5.38438 70.5391H3.7144C3.5844 70.5391 3.50439 70.4691 3.52439 70.3291L3.58439 69.4191C3.58439 69.2691 3.65442 69.2191 3.80442 69.2191H5.44438C5.59438 69.2191 5.65441 69.1491 5.66441 68.9991V68.5991C5.67441 68.4691 5.62441 68.3991 5.47441 68.3991H3.88438C3.75438 68.3991 3.65441 68.4591 3.60441 68.5891C3.39441 69.0091 3.23441 69.3691 3.10441 69.6391C3.04441 69.7591 2.9544 69.7891 2.8444 69.7291L1.39439 69.0091C1.27439 68.9491 1.24442 68.8591 1.30442 68.7291C1.90442 67.4991 2.32438 66.4891 2.57438 65.6891C2.61438 65.5591 2.70439 65.4991 2.83439 65.5391L4.31443 65.9791C4.44443 66.0191 4.5044 66.0991 4.4644 66.2291L4.25444 66.8591C4.21444 67.0091 4.25438 67.0691 4.38438 67.0691H5.54441C5.67441 67.0691 5.75438 67.0091 5.76438 66.8591L5.80442 65.9791C5.81442 65.8491 5.87439 65.7891 6.02439 65.7891H8.32438C8.47438 65.7891 8.53438 65.8491 8.51438 65.9791L8.47441 66.8591C8.47441 67.0091 8.53443 67.0691 8.68443 67.0691H11.1744C11.3244 67.0691 11.3844 67.1391 11.3844 67.2791L11.3444 68.1991C11.3344 68.3291 11.2544 68.3891 11.1244 68.3891H8.62443C8.49443 68.3991 8.41441 68.4791 8.41441 68.6091V69.0091C8.38441 69.1591 8.4544 69.2291 8.5944 69.2291H10.5144C10.6444 69.2291 10.7044 69.2891 10.7044 69.4291L10.6744 70.3391C10.6744 70.4691 10.6044 70.5491 10.4444 70.5491H8.52439C8.39439 70.5491 8.31443 70.6191 8.31443 70.7591L8.2844 71.2991C8.2744 71.4291 8.34443 71.4891 8.49443 71.4891H11.4244C11.5544 71.4891 11.6144 71.5591 11.5944 71.7091L11.5544 72.6191L11.5444 72.6091ZM11.4844 64.9191C11.4744 65.0491 11.3944 65.1291 11.2644 65.1291H2.67442C2.54442 65.1291 2.4644 65.0591 2.4644 64.9191L2.62443 60.0891C2.62443 59.9391 2.6944 59.8691 2.8444 59.8691H11.4944C11.6244 59.8691 11.6944 59.9391 11.6844 60.0891L11.4844 64.9191ZM8.86442 63.1091H5.23442C5.10442 63.1091 5.02438 63.1791 5.01438 63.3291V63.6791C5.00438 63.8091 5.05439 63.8791 5.20439 63.8791H8.83439C8.96439 63.8791 9.04442 63.8091 9.05442 63.6791V63.3291C9.06442 63.1791 9.01442 63.1091 8.86442 63.1091ZM8.95439 61.1191H5.29441C5.14441 61.1191 5.07438 61.1891 5.07438 61.3391V61.6591C5.07438 61.7891 5.1444 61.8591 5.2844 61.8591H8.92442C9.05442 61.8591 9.13438 61.7891 9.13438 61.6591V61.3391C9.16438 61.1891 9.10439 61.1191 8.95439 61.1191Z" fill="#58778D"/>
<path d="M26.5444 63.97C26.5344 64.1 26.4544 64.16 26.3144 64.16H24.6345C24.5045 64.16 24.4244 64.1 24.4444 63.97L24.5444 62.99C24.5544 62.86 24.4844 62.79 24.3544 62.79H17.7144C17.5844 62.79 17.5145 62.86 17.4945 62.99L17.3644 63.96C17.3344 64.09 17.2644 64.15 17.1344 64.15H15.3944C15.2444 64.15 15.1844 64.08 15.2044 63.94L15.4544 61.66C15.4644 61.53 15.5445 61.47 15.6845 61.47H19.5145C19.6645 61.47 19.7345 61.4 19.7445 61.25L19.8344 60.2C19.8344 60.07 19.9244 60 20.0544 60H22.1644C22.3144 60 22.3644 60.07 22.3644 60.2L22.2645 61.25C22.2545 61.4 22.3244 61.47 22.4544 61.47H26.5944C26.7244 61.47 26.7845 61.53 26.7745 61.66L26.5544 63.97H26.5444ZM24.3344 72.55C24.3344 72.7 24.2645 72.76 24.1245 72.76H17.2445C17.1145 72.76 17.0545 72.7 17.0545 72.55L17.0944 71.64C17.1044 71.49 17.1845 71.42 17.3145 71.42H19.2344C19.3644 71.42 19.4345 71.36 19.4345 71.23L19.5345 69.58C19.5445 69.45 19.4744 69.39 19.3344 69.39H17.6344C17.5044 69.39 17.4344 69.32 17.4444 69.17L17.4844 68.26C17.4844 68.11 17.5545 68.06 17.6845 68.06H24.0944C24.2244 68.06 24.3045 68.12 24.2845 68.26L24.2445 69.17C24.2445 69.32 24.1744 69.39 24.0444 69.39H22.3344C22.1844 69.39 22.1344 69.45 22.1144 69.58L22.0245 71.23C22.0145 71.36 22.0844 71.42 22.2144 71.42H24.1744C24.3044 71.42 24.3844 71.49 24.3644 71.64L24.3244 72.55H24.3344ZM18.4945 66.81C18.3945 66.91 18.3045 66.91 18.1845 66.82L17.1845 65.93C17.0845 65.84 17.0844 65.74 17.1744 65.65C17.7044 65.09 18.1744 64.57 18.5944 64.04C18.6644 63.95 18.7545 63.94 18.8745 64.01L19.9544 64.79C20.0544 64.88 20.0744 64.98 19.9644 65.1C19.3944 65.79 18.9144 66.36 18.4844 66.81H18.4945ZM24.6445 66.62C24.6345 66.77 24.5544 66.84 24.4244 66.84H24.0345C23.1845 66.84 22.5744 66.63 22.1744 66.21C21.8244 65.83 21.6045 65.21 21.5145 64.37C21.5045 64.22 21.5544 64.15 21.7044 64.12L23.0644 63.93C23.2144 63.9 23.2844 63.96 23.2944 64.09C23.3344 64.38 23.3645 64.57 23.3945 64.66C23.4845 64.97 23.6845 65.11 24.0145 65.13H24.4844C24.5444 65.12 24.5845 65.13 24.6345 65.17C24.6745 65.2 24.7044 65.24 24.7044 65.3L24.6445 66.62Z" fill="#58778D"/>
<path d="M40.5644 69.3396C40.5544 69.4696 40.4744 69.5296 40.3444 69.5296H39.4544C39.3244 69.5296 39.2344 69.5996 39.2344 69.7496L39.1445 71.2696C39.1345 71.3996 39.0544 71.4596 38.9244 71.4596H36.0444C35.8944 71.4596 35.8244 71.5296 35.8144 71.6796C35.7844 71.9396 35.7544 72.3396 35.6944 72.8496C35.6944 72.9796 35.6244 73.0496 35.4744 73.0496H33.3344C33.2044 73.0496 33.1344 72.9596 33.1644 72.8196C33.1944 72.4496 33.2345 72.0596 33.2645 71.6596C33.2745 71.5296 33.2244 71.4496 33.0844 71.4496H30.4344C30.2844 71.4496 30.2244 71.3896 30.2244 71.2596L30.2645 70.3396C30.2745 70.2096 30.3544 70.1396 30.4844 70.1396H33.1944C33.3244 70.1396 33.4144 70.0796 33.4144 69.9396V69.7296C33.4444 69.5996 33.3744 69.5196 33.2444 69.5196H29.5544C29.4044 69.5196 29.3344 69.4596 29.3544 69.3296L29.4144 68.4096C29.4144 68.2596 29.4844 68.2096 29.6144 68.2096H33.3344C33.4844 68.2096 33.5544 68.1396 33.5644 67.9996V67.8396C33.5944 67.7096 33.5244 67.6296 33.3744 67.6296H30.6844C30.5344 67.6296 30.4644 67.5696 30.4844 67.4396L30.5245 66.5196C30.5345 66.3896 30.5944 66.3196 30.7444 66.3196H33.4644C33.5944 66.3196 33.6744 66.2496 33.6844 66.1096L33.7144 65.6896C33.7144 65.5596 33.6544 65.4896 33.5044 65.4896H30.7944C30.6444 65.4896 30.5744 65.4196 30.5844 65.2896L30.7044 62.9296C30.7044 62.7796 30.7744 62.7296 30.9144 62.7296H33.6244C33.7744 62.7296 33.8444 62.6596 33.8444 62.5296V62.2696C33.8444 62.1396 33.7745 62.0796 33.6345 62.0796H30.1844C30.0344 62.0796 29.9744 62.0096 29.9944 61.8596L30.0345 60.9496C30.0345 60.8196 30.1044 60.7396 30.2444 60.7396H33.6844C33.8144 60.7396 33.8945 60.6696 33.8945 60.5196C33.8945 60.3296 33.9045 60.1396 33.9045 59.9596C33.9345 59.6996 34.0245 59.5596 34.1545 59.5596H36.1844C36.3144 59.5596 36.3944 59.6196 36.3744 59.7496C36.3744 59.8996 36.3644 60.1596 36.3444 60.5296C36.3444 60.6596 36.4045 60.7296 36.5345 60.7296H39.8544C39.9844 60.7296 40.0644 60.7996 40.0444 60.9396L40.0044 61.8496C40.0044 61.9996 39.9344 62.0696 39.8044 62.0696H36.4944C36.3444 62.0696 36.2845 62.1296 36.2845 62.2596V62.5196C36.2845 62.6496 36.3444 62.7196 36.4744 62.7196H39.1644C39.2944 62.7196 39.3544 62.7796 39.3444 62.9196L39.2244 65.2596C39.2144 65.4096 39.1344 65.4796 39.0044 65.4796H36.3744C36.2444 65.4796 36.1644 65.5496 36.1644 65.6796V66.1196C36.1544 66.2396 36.2044 66.3096 36.3444 66.3096H39.2144C39.3444 66.3096 39.4245 66.3796 39.4045 66.5096L39.3344 67.9896C39.3244 68.1196 39.3745 68.1996 39.5245 68.1996H40.4344C40.5644 68.1996 40.6244 68.2596 40.6144 68.3996L40.5744 69.3196L40.5644 69.3396ZM33.5844 63.7696H32.8044C32.6544 63.7696 32.5844 63.8296 32.5844 63.9796V64.2596C32.5844 64.4096 32.6445 64.4796 32.7645 64.4796H33.5544C33.6844 64.4796 33.7645 64.4096 33.7745 64.2596V63.9996C33.7845 63.8496 33.7344 63.7796 33.5844 63.7796V63.7696ZM36.9744 69.5296H36.1844C36.0544 69.5296 35.9844 69.5996 35.9644 69.7396V69.9496C35.9344 70.0996 36.0045 70.1496 36.1545 70.1496H36.9344C37.0944 70.1496 37.1644 70.0896 37.1644 69.9496V69.7596C37.1644 69.6096 37.1044 69.5396 36.9744 69.5396V69.5296ZM37.0744 67.6396H36.2944C36.1444 67.6396 36.0744 67.7096 36.0744 67.8596V68.0196C36.0444 68.1696 36.1145 68.2396 36.2645 68.2396H37.0444C37.1744 68.2396 37.2445 68.1696 37.2645 68.0196V67.8596C37.2745 67.7096 37.2044 67.6396 37.0744 67.6396ZM37.2044 63.7696H36.4444C36.2944 63.7696 36.2344 63.8396 36.2344 63.9896V64.2396C36.2344 64.3896 36.2944 64.4596 36.4244 64.4596H37.1545C37.3045 64.4596 37.3745 64.3896 37.3845 64.2496V63.9696C37.3945 63.8196 37.3444 63.7596 37.1944 63.7596L37.2044 63.7696Z" fill="#58778D"/>
<path d="M53.8745 63.3993C53.8745 63.5493 53.8045 63.6193 53.6545 63.6193H43.6145C43.4845 63.6193 43.4044 63.5493 43.4244 63.3993L43.4645 62.4893C43.4645 62.3593 43.5344 62.2793 43.6744 62.2793H46.0745C46.2045 62.2793 46.2844 62.2093 46.2944 62.0693L46.3845 60.2793C46.3845 60.1293 46.4545 60.0693 46.5945 60.0693H48.0845C48.2345 60.0693 48.2944 60.1393 48.2944 60.2893L48.2045 62.0593C48.1945 62.1893 48.2645 62.2693 48.3945 62.2693H48.9945C49.1245 62.2693 49.2045 62.1993 49.2145 62.0593L49.3345 60.3193C49.3445 60.1893 49.4044 60.1093 49.5544 60.1093H51.0745C51.2245 60.1193 51.2845 60.1793 51.2845 60.3193L51.1644 62.0593C51.1544 62.1893 51.2245 62.2693 51.3745 62.2693H53.7445C53.8745 62.2693 53.9544 62.3393 53.9344 62.4793L53.8945 63.3893L53.8745 63.3993ZM45.2545 61.8593H44.3345C44.2045 61.8693 44.1245 61.7993 44.1245 61.6593V60.4193C44.1145 60.2893 44.1845 60.2093 44.3145 60.2093H45.2345C45.3645 60.1993 45.4445 60.2693 45.4445 60.3993V61.6593C45.4545 61.7893 45.3845 61.8593 45.2545 61.8593ZM52.5544 65.8893C52.5444 66.0193 52.4645 66.0993 52.3345 66.0993H50.1145C49.9645 66.0993 49.8945 66.1693 49.8945 66.3193V66.4193C49.8945 66.5493 49.9645 66.6193 50.1045 66.6193H51.8345C51.9845 66.6193 52.0444 66.6893 52.0444 66.8293L52.0045 67.7393C51.9945 67.8893 51.9145 67.9593 51.7845 67.9593H50.0544C49.9244 67.9593 49.8445 68.0293 49.8345 68.1693V68.3193C49.8245 68.4693 49.8945 68.5393 50.0245 68.5393H52.3845C52.5145 68.5393 52.5945 68.6093 52.5945 68.7493L52.5645 69.6593C52.5645 69.8093 52.4945 69.8793 52.3445 69.8793H50.7745C50.7745 69.8793 50.7045 69.8893 50.7045 69.9193C50.6945 69.9493 50.7045 69.9893 50.7345 70.0193C51.2145 70.4593 51.7345 70.8693 52.2545 71.2593C52.3845 71.3293 52.4045 71.4393 52.3145 71.5493L51.4545 72.7093C51.3845 72.8093 51.2944 72.8293 51.1744 72.7493C50.7944 72.4693 50.3545 72.1193 49.8745 71.6693C49.8345 71.6293 49.8045 71.6293 49.7545 71.6393C49.7245 71.6493 49.6945 71.6793 49.6945 71.7293L49.6545 72.8093C49.6545 72.9593 49.5844 73.0293 49.4344 73.0293H47.5145C47.3645 73.0293 47.2944 72.9593 47.3044 72.8293L47.3445 71.7493C47.3445 71.7493 47.3345 71.6893 47.2845 71.6793C47.2545 71.6693 47.2245 71.6693 47.1945 71.6893C46.8145 72.0693 46.3945 72.4393 45.9545 72.7893C45.8345 72.8793 45.7345 72.8593 45.6445 72.7593L44.7345 71.6193C44.6645 71.5193 44.6745 71.4093 44.7745 71.3293C45.4945 70.7493 46.0145 70.3193 46.3445 70.0093C46.3745 69.9793 46.3745 69.9493 46.3545 69.9193C46.3345 69.8893 46.3145 69.8793 46.2645 69.8793H44.7545C44.6245 69.8793 44.5645 69.8093 44.5645 69.6593L44.5945 68.7493C44.5945 68.6193 44.6644 68.5393 44.8044 68.5393H47.2645C47.4145 68.5393 47.4845 68.4693 47.4845 68.3193V68.1693C47.4845 68.0393 47.4145 67.9593 47.2745 67.9593H45.5045C45.3545 67.9593 45.2945 67.8893 45.3145 67.7393L45.3445 66.8293C45.3545 66.6993 45.4345 66.6193 45.5645 66.6193H47.3345C47.4845 66.6193 47.5544 66.5493 47.5544 66.4193V66.3193C47.5544 66.1693 47.4945 66.0993 47.3645 66.0993H44.8345C44.7045 66.0993 44.6245 66.0293 44.6445 65.8893L44.6844 64.9793C44.6844 64.8293 44.7545 64.7593 44.8845 64.7593H45.8645C45.9945 64.7593 46.0745 64.6993 46.0745 64.5693V64.0893C46.0845 63.9593 46.1644 63.8793 46.3044 63.8793H47.5444C47.6744 63.8793 47.7445 63.9393 47.7445 64.0693V64.5693C47.7345 64.6993 47.7844 64.7593 47.9244 64.7593H49.4745C49.6045 64.7593 49.6945 64.6993 49.7045 64.5693L49.7944 63.9993C49.8044 63.8693 49.8944 63.7893 50.0444 63.8193L51.2745 63.9793C51.4245 63.9893 51.4644 64.0693 51.4344 64.2093L51.3945 64.5593C51.3645 64.6893 51.4244 64.7493 51.5544 64.7493H52.3845C52.5345 64.7493 52.5945 64.8193 52.5945 64.9693L52.5544 65.8793V65.8893ZM52.9845 61.8593C52.9245 61.9793 52.8345 62.0193 52.7045 61.9593L51.8745 61.5793C51.7445 61.5393 51.7145 61.4293 51.7745 61.3193L52.3044 60.2193C52.3644 60.0893 52.4545 60.0593 52.5945 60.1193L53.4144 60.4993C53.5444 60.5593 53.5745 60.6493 53.5145 60.7793L52.9845 61.8593Z" fill="#58778D"/>
<path d="M27.8247 41.74L40.7347 48.37C41.2647 48.64 41.6847 48.43 41.8947 48.28C42.1047 48.13 42.4347 47.79 42.3347 47.21L40.0147 32.89L50.3047 22.66C50.7247 22.24 50.6547 21.77 50.5747 21.53C50.4947 21.29 50.2747 20.87 49.6947 20.78L35.3547 18.56L28.8047 5.61C28.5347 5.08 28.0747 5 27.8147 5C27.5547 5 27.0947 5.08 26.8247 5.61L20.2748 18.56L5.93473 20.78C5.34473 20.87 5.12472 21.29 5.05472 21.53C4.97472 21.77 4.90468 22.24 5.32468 22.66L15.6147 32.89L13.2947 47.21C13.2047 47.8 13.5347 48.13 13.7347 48.28C13.9447 48.43 14.3647 48.64 14.8947 48.37L27.8047 41.74H27.8247Z" fill="#65B7EC" stroke="#65B7EC" stroke-width="10" stroke-miterlimit="10"/>
<path d="M27.8247 41.74L40.7347 48.37C41.2647 48.64 41.6847 48.43 41.8947 48.28C42.1047 48.13 42.4347 47.79 42.3347 47.21L40.0147 32.89L50.3047 22.66C50.7247 22.24 50.6547 21.77 50.5747 21.53C50.4947 21.29 50.2747 20.87 49.6947 20.78L35.3547 18.56L28.8047 5.61C28.5347 5.08 28.0747 5 27.8147 5C27.5547 5 27.0947 5.08 26.8247 5.61L20.2748 18.56L5.93473 20.78C5.34473 20.87 5.12472 21.29 5.05472 21.53C4.97472 21.77 4.90468 22.24 5.32468 22.66L15.6147 32.89L13.2947 47.21C13.2047 47.8 13.5347 48.13 13.7347 48.28C13.9447 48.43 14.3647 48.64 14.8947 48.37L27.8047 41.74H27.8247Z" fill="#F6ED36"/>
</svg>

