<?xml version="1.0" encoding="UTF-8" standalone="no"?>
<!-- Created with Inkscape (http://www.inkscape.org/) -->

<svg
   width="82mm"
   height="20mm"
   viewBox="0 0 82 20"
   version="1.1"
   id="svg38222"
   inkscape:version="1.1.2 (0a00cf5339, 2022-02-04)"
   sodipodi:docname="icon_detailHere.svg"
   xmlns:inkscape="http://www.inkscape.org/namespaces/inkscape"
   xmlns:sodipodi="http://sodipodi.sourceforge.net/DTD/sodipodi-0.dtd"
   xmlns="http://www.w3.org/2000/svg"
   xmlns:svg="http://www.w3.org/2000/svg">
  <sodipodi:namedview
     id="namedview38224"
     pagecolor="#ffffff"
     bordercolor="#666666"
     borderopacity="1.0"
     inkscape:pageshadow="2"
     inkscape:pageopacity="0.0"
     inkscape:pagecheckerboard="0"
     inkscape:document-units="mm"
     showgrid="false"
     inkscape:zoom="0.64052329"
     inkscape:cx="397.33138"
     inkscape:cy="561.25984"
     inkscape:window-width="1850"
     inkscape:window-height="1136"
     inkscape:window-x="70"
     inkscape:window-y="27"
     inkscape:window-maximized="1"
     inkscape:current-layer="layer1" />
  <defs
     id="defs38219" />
  <g
     inkscape:label="Layer 1"
     inkscape:groupmode="layer"
     id="layer1">
    <g
       id="g38400"
       transform="translate(-6.99,-54.35)">
      <path
         class="cls-30"
         d="m 86.364831,63.613352 c 0,5.093229 -4.7625,9.260416 -10.583334,9.260416 H 17.573165 c -5.820833,0 -10.5833334,-4.167187 -10.5833334,-9.260416 0,-5.093229 4.7625004,-9.260417 10.5833334,-9.260417 h 58.208332 c 5.820834,0 10.583334,4.167188 10.583334,9.260417 z"
         id="path35158"
         style="fill:#65b7ec;stroke-width:0.264583" />
      <path
         class="cls-29"
         d="M 25.362703,62.166454 H 23.121682 V 61.5341 h 2.241021 z m -0.211667,3.468688 h -1.095375 v 0.201083 h -0.682625 v -1.939396 h 1.778 z m -1.756833,-3.299354 h 1.767416 v 0.60325 h -1.767416 z m 0,0.772583 h 1.767416 v 0.60325 h -1.767416 z m 1.756833,-1.735667 h -1.738313 v -0.60325 h 1.738313 z m -1.095375,3.153834 v 0.47625 h 0.402167 v -0.47625 z m 4.394729,0.174625 h -1.17475 v 1.219729 H 26.471307 V 64.701163 H 25.27539 v -0.738188 h 1.195917 v -0.436562 h -0.889 V 62.8041 h 0.889 v -0.418041 h -1.013355 v -0.732896 h 0.436563 c -0.06615,-0.240771 -0.179917,-0.547688 -0.301625,-0.783167 l 0.653521,-0.240771 c 0.166687,0.28575 0.3175,0.653521 0.375708,0.910167 l -0.291042,0.111125 h 1.039813 l -0.256646,-0.08467 c 0.129646,-0.267229 0.28575,-0.677333 0.357188,-0.978958 l 0.79375,0.224896 c -0.156105,0.306916 -0.312209,0.608541 -0.447146,0.838729 h 0.537104 v 0.732896 h -1.0795 v 0.418041 h 0.949854 v 0.722313 H 27.27564 v 0.436562 h 1.17475 v 0.738188 z"
         id="path35160"
         style="fill:#ffffff;stroke-width:0.264583"
         inkscape:transform-center-x="44.499865"
         inkscape:transform-center-y="-7.4717456" />
      <path
         class="cls-29"
         d="m 31.998452,61.758996 c -0.0291,0.587375 -0.06615,1.793875 -0.06615,2.410354 0,0.537104 0.306917,0.703792 0.687917,0.703792 0.867833,0 1.455208,-0.508 1.862667,-1.135063 l 0.613833,0.754063 c -0.346604,0.537104 -1.180042,1.309687 -2.481792,1.309687 -0.978958,0 -1.587499,-0.441854 -1.587499,-1.420812 0,-0.703792 0.05027,-2.203979 0.05027,-2.622021 0,-0.301625 -0.0291,-0.608542 -0.08467,-0.859896 l 1.090083,0.01058 c -0.03969,0.261937 -0.07144,0.60325 -0.08467,0.849312 z"
         id="path35162"
         style="fill:#ffffff;stroke-width:0.264583"
         inkscape:transform-center-x="37.241022"
         inkscape:transform-center-y="-7.3751731" />
      <path
         class="cls-29"
         d="m 39.957119,61.833079 c -0.351896,0.261938 -1.050396,0.799042 -1.402292,1.105959 -0.275166,0.235479 -0.261937,0.28575 0.0053,0.526521 0.370417,0.3175 1.471083,1.17475 2.029354,1.706562 l -0.79375,0.732896 c -0.179917,-0.201083 -0.362479,-0.396875 -0.547687,-0.582083 -0.306917,-0.325438 -1.113896,-1.013355 -1.621896,-1.447271 -0.5715,-0.492125 -0.537104,-0.828146 0.05556,-1.314979 0.447146,-0.36248 1.169459,-0.955146 1.542521,-1.31498 0.1905,-0.185208 0.391583,-0.381 0.492125,-0.531812 l 0.788458,0.6985 c -0.206375,0.150812 -0.396875,0.296333 -0.547687,0.418042 z"
         id="path35164"
         style="fill:#ffffff;stroke-width:0.264583"
         inkscape:transform-center-x="31.382803"
         inkscape:transform-center-y="-7.4161831" />
      <path
         class="cls-29"
         d="m 44.187806,61.613475 c -0.06615,0.291042 -0.261937,1.592792 -0.261937,2.114021 0,0.01588 0,0.105833 0.0053,0.129646 0.06615,-0.161396 0.14023,-0.267229 0.211667,-0.436563 l 0.407458,0.33073 c -0.166687,0.502708 -0.33602,1.068916 -0.402166,1.391708 -0.01587,0.07937 -0.0344,0.206375 -0.0344,0.261937 0,0.06085 0,0.161396 0.0053,0.251355 l -0.767292,0.05556 c -0.116417,-0.381 -0.230188,-1.034521 -0.230188,-1.793875 0,-0.854604 0.156105,-1.907646 0.216959,-2.320396 0.02117,-0.166687 0.05556,-0.425979 0.06085,-0.632354 l 0.933979,0.07937 c -0.05027,0.124354 -0.129646,0.470958 -0.150812,0.5715 z m 2.831042,-0.267229 c -0.0053,0.105833 -0.01058,0.291042 -0.01588,0.526521 0.28575,-0.0344 0.558271,-0.07144 0.809625,-0.129646 v 0.844021 c -0.251354,0.0344 -0.526521,0.06615 -0.817563,0.08467 0.01058,0.513291 0.03969,0.910166 0.05556,1.246187 0.47625,0.195792 0.822854,0.486833 1.074208,0.722313 l -0.457729,0.709083 c -0.206375,-0.195792 -0.407458,-0.362479 -0.597958,-0.508 -0.07144,0.526521 -0.418042,0.849312 -1.150938,0.849312 -0.788458,0 -1.307041,-0.33602 -1.307041,-0.968375 0,-0.632354 0.513291,-1.029229 1.296458,-1.029229 0.09525,0 0.1905,0.0053 0.280458,0.01058 -0.01588,-0.296334 -0.0344,-0.637646 -0.03969,-0.989542 -0.105834,0.0053 -0.211667,0.0053 -0.312209,0.0053 -0.33602,0 -0.672041,-0.01058 -1.000125,-0.0344 l -0.0053,-0.804334 c 0.325437,0.0344 0.658812,0.05027 1.000125,0.05027 0.105833,0 0.206375,0 0.312208,-0.0053 -0.0053,-0.261938 -0.0053,-0.470959 -0.01058,-0.5715 0,-0.08467 -0.02117,-0.26723 -0.04498,-0.386292 h 0.968375 c -0.01588,0.105833 -0.02911,0.251354 -0.0344,0.375708 z m -1.180042,3.545417 c 0.267229,0 0.375709,-0.145521 0.375709,-0.452438 v -0.03969 c -0.121709,-0.0344 -0.246063,-0.05027 -0.375709,-0.05027 -0.261937,0 -0.436562,0.100542 -0.436562,0.280458 0,0.195792 0.195791,0.261938 0.436562,0.261938 z"
         id="path35166"
         style="fill:#ffffff;stroke-width:0.264583"
         inkscape:transform-center-x="24.662728"
         inkscape:transform-center-y="-7.3870811" />
      <path
         class="cls-29"
         d="m 51.275994,61.377996 h 2.852208 c 0.179917,0 0.447146,-0.01058 0.531812,-0.01588 -0.0053,0.134938 -0.01587,0.381 -0.01587,0.563563 v 2.902479 c 0,0.1905 0.01058,0.508 0.0291,0.727604 h -0.98425 c 0,-0.09525 0.0053,-0.1905 0.0053,-0.280458 h -2.455333 c -0.211667,0 -0.563562,0.01588 -0.767292,0.03969 v -0.968375 c 0.216959,0.01587 0.47625,0.0344 0.738188,0.0344 h 2.487083 v -2.124604 h -2.420937 c -0.251354,0 -0.563563,0.01058 -0.738188,0.02117 v -0.93927 c 0.224896,0.02117 0.537104,0.03969 0.738188,0.03969 z"
         id="path35168"
         style="fill:#ffffff;stroke-width:0.264583"
         inkscape:transform-center-x="17.713445"
         inkscape:transform-center-y="-7.2785991" />
      <path
         class="cls-29"
         d="m 59.565389,61.211309 c 0.592667,-0.08996 1.105959,-0.206375 1.391709,-0.346605 l 0.552979,0.74348 c -0.230188,0.05556 -0.396875,0.100541 -0.497417,0.121708 -0.261937,0.06615 -0.547687,0.121708 -0.844021,0.166687 v 0.777875 h 1.336146 c 0.116417,0 0.41275,-0.02117 0.542396,-0.0344 v 0.867833 c -0.166687,-0.01058 -0.362479,-0.02117 -0.526521,-0.02117 h -1.381125 c -0.105833,0.889 -0.508,1.711854 -1.431396,2.275417 l -0.867833,-0.582083 c 0.828146,-0.375709 1.256771,-0.949855 1.391708,-1.693334 h -1.465791 c -0.166688,0 -0.386292,0.01058 -0.537104,0.02117 v -0.867833 c 0.166687,0.01588 0.351895,0.0344 0.531812,0.0344 h 1.510771 v -0.66675 c -0.521229,0.03969 -1.068917,0.06085 -1.420813,0.06615 l -0.211666,-0.777875 c 0.431271,0.0053 1.30175,0.0053 1.923521,-0.08996 z"
         id="path35170"
         style="fill:#ffffff;stroke-width:0.264583"
         inkscape:transform-center-x="10.647751"
         inkscape:transform-center-y="-7.4122186" />
      <path
         class="cls-29"
         d="m 68.587681,63.005184 c -0.185208,0.537104 -0.418042,1.063625 -0.833438,1.526645 -0.552979,0.621771 -1.280583,1.02923 -1.994958,1.235605 l -0.677333,-0.767292 c 0.873125,-0.185208 1.521354,-0.552979 1.923521,-0.955146 0.275166,-0.275167 0.425979,-0.552979 0.521229,-0.809625 H 64.98141 c -0.140229,0 -0.457729,0.0053 -0.709083,0.0291 v -0.873125 c 0.256646,0.02117 0.521229,0.03969 0.709083,0.03969 h 2.661708 c 0.211667,0 0.381,-0.0291 0.468313,-0.06615 l 0.597958,0.375708 c -0.04498,0.08467 -0.100541,0.201084 -0.121708,0.267229 z m -3.164417,-1.944688 h 2.119313 c 0.179916,0 0.497416,-0.01058 0.658812,-0.0344 v 0.873125 c -0.156104,-0.01058 -0.457729,-0.02117 -0.672041,-0.02117 h -2.108729 c -0.1905,0 -0.45773,0.0053 -0.627063,0.02117 v -0.873125 c 0.156104,0.02117 0.431271,0.0344 0.627063,0.0344 z"
         id="path35172"
         style="fill:#ffffff;stroke-width:0.264583"
         inkscape:transform-center-x="3.7950431"
         inkscape:transform-center-y="-7.3288726" />
    </g>
  </g>
</svg>
