<svg role="img" viewBox="0 0 24 24" xmlns="http://www.w3.org/2000/svg"><title>Website</title><path d="M12 0C5.373 0 0 5.373 0 12s5.373 12 12 12 12-5.373 12-12S18.627 0 12 0zm-1.5 2.062c-.324.23-.686.43-1.088.592A9.966 9.966 0 0 0 2.062 10.5h5.876a24.626 24.626 0 0 1 2.562-8.438zM13.5 2.062A24.626 24.626 0 0 1 16.062 10.5h5.876a9.966 9.966 0 0 0-7.35-7.846 7.127 7.127 0 0 1-1.088-.592zM12 2.25c.936 0 1.826 1.32 2.516 3.469A21.03 21.03 0 0 1 15.438 10.5H8.562c.244-1.578.56-3.078.922-4.781C10.174 3.57 11.064 2.25 12 2.25zM2.062 13.5a9.966 9.966 0 0 0 7.35 7.846c.402.162.764.361 1.088.592a24.626 24.626 0 0 1-2.562-8.438H2.062zm8.5 0a21.03 21.03 0 0 0 .922 4.781c-.69 2.148-1.58 3.469-2.516 3.469s-1.826-1.32-2.516-3.469A21.03 21.03 0 0 1 8.562 13.5h1.938zm3 0h1.876c-.244 1.578-.56 3.078-.922 4.781-.69 2.148-1.58 3.469-2.516 3.469s-1.826-1.32-2.516-3.469A21.03 21.03 0 0 1 12.438 13.5zm3.5 0h5.876a9.966 9.966 0 0 1-7.35 7.846 7.127 7.127 0 0 0-1.088.592A24.626 24.626 0 0 0 16.062 13.5z"/></svg>
