<?xml version="1.0" encoding="UTF-8" standalone="no"?>
<!-- Created with Inkscape (http://www.inkscape.org/) -->

<svg
   width="25.354988mm"
   height="24.487495mm"
   viewBox="0 0 25.354988 24.487495"
   version="1.1"
   id="svg6640"
   xmlns="http://www.w3.org/2000/svg"
   xmlns:svg="http://www.w3.org/2000/svg">
  <defs
     id="defs6637" />
  <g
     id="layer1"
     transform="translate(-2.5641111,-2.4256625)">
    <g
       id="g6714">
      <g
         id="g6701">
        <path
           class="cls-39"
           d="M 4.7178194,26.357225 C 4.5061528,26.53185 4.1965903,26.6271 3.7970694,26.640329 H 2.6276111 c -0.044979,0 -0.0635,-0.01852 -0.0635,-0.0635 l 0.1402292,-2.981854 c 0.00529,-0.03969 0.026458,-0.0635 0.071438,-0.0635 h 1.2673541 c 0.4365625,0 0.746125,0.153459 0.9392709,0.449792 0.1666875,0.251354 0.238125,0.592667 0.2248958,1.021292 -0.021167,0.642937 -0.1878542,1.092729 -0.4894797,1.354666 z M 3.8235278,23.99185 H 3.5324861 c -0.039687,0 -0.0635,0.02117 -0.068792,0.06615 l -0.09525,2.055813 c 0,0.03969 0.021167,0.0635 0.066146,0.06614 0.071438,0 0.1481666,-0.0053 0.2301875,-0.0053 0.2619375,-0.0079 0.4445,-0.09525 0.5529791,-0.251354 0.1217084,-0.17198 0.1878542,-0.481542 0.206375,-0.926042 0.026458,-0.66675 -0.1719791,-0.997479 -0.60325,-1.008063 z"
           id="path1980"
           style="fill:#58778d;stroke-width:0.264583" />
        <path
           class="cls-39"
           d="m 8.1441736,26.198475 c -0.2619375,0.333375 -0.6482292,0.500063 -1.1562292,0.500063 -0.4497917,0 -0.7858125,-0.111125 -1.0080625,-0.328084 -0.2328333,-0.232833 -0.3518958,-0.60325 -0.3518958,-1.11125 0,-0.05821 0.00529,-0.127 0.00529,-0.193145 0.037042,-0.642938 0.2196041,-1.09273 0.5476874,-1.344084 0.2328334,-0.185208 0.5715,-0.275166 1.0107084,-0.275166 0.8757708,0 1.317625,0.486833 1.317625,1.457854 0,0.07673 -0.00529,0.15875 -0.00794,0.238125 -0.026458,0.441854 -0.1481667,0.791104 -0.3598334,1.055687 z M 7.6599861,24.756496 c 0,-0.288396 -0.037042,-0.494771 -0.1084792,-0.621771 -0.076729,-0.129646 -0.206375,-0.201083 -0.396875,-0.201083 -0.2169583,-0.0053 -0.3677708,0.06615 -0.4577292,0.211667 -0.1031875,0.166687 -0.1719791,0.47625 -0.1984375,0.931333 -0.00794,0.0979 -0.00794,0.187854 -0.00794,0.269875 0,0.288396 0.039687,0.502708 0.1164167,0.637646 0.082021,0.142875 0.2169583,0.216958 0.4048125,0.216958 0.2116667,0 0.365125,-0.07673 0.4577292,-0.238125 0.09525,-0.156104 0.1534583,-0.449792 0.1799166,-0.867833 0.00529,-0.127 0.00794,-0.238125 0.00794,-0.336021 z"
           id="path1982"
           style="fill:#58778d;stroke-width:0.264583" />
        <path
           class="cls-39"
           d="m 11.68959,26.574184 c -0.0053,0.04498 -0.02646,0.0635 -0.06615,0.0635 l -0.508,-0.0053 c -0.04498,0 -0.08202,-0.01323 -0.108479,-0.05027 l -1.3705414,-1.84943 c 0,0 -0.013229,-0.0079 -0.021167,-0.0079 -0.00794,0.0053 -0.018521,0.01323 -0.018521,0.02117 l -0.127,1.825625 c 0,0.04498 -0.021167,0.0635 -0.0635,0.0635 H 8.9961319 c -0.044979,0 -0.0635,-0.01852 -0.0635,-0.0635 l 0.1799167,-2.987146 c 0.00529,-0.03969 0.026458,-0.05821 0.066146,-0.05821 l 0.4736042,-0.0053 c 0.044979,0 0.082021,0.01852 0.1031875,0.05027 l 1.4208127,1.870604 c 0,0 0.01852,0.01323 0.02646,0.0079 0.01323,0 0.01852,-0.0079 0.01852,-0.01852 l 0.116416,-1.849438 c 0.0053,-0.03969 0.02646,-0.0635 0.07144,-0.0635 l 0.396875,0.0053 c 0.04498,0 0.0635,0.01852 0.0635,0.05821 l -0.179916,2.987146 z"
           id="path1984"
           style="fill:#58778d;stroke-width:0.264583" />
        <path
           class="cls-39"
           d="m 15.197965,26.635038 h -0.783166 c -0.04498,0 -0.07144,-0.01852 -0.08467,-0.0635 L 14.22165,26.216996 c -0.01323,-0.03704 -0.03969,-0.05292 -0.08467,-0.05292 h -1.124479 c -0.03969,0 -0.06615,0.01852 -0.08467,0.05292 l -0.148167,0.359833 c -0.01852,0.03969 -0.04498,0.05821 -0.08996,0.05821 h -0.489479 c -0.04498,0 -0.05821,-0.01852 -0.03969,-0.05821 l 1.330854,-2.995083 c 0.01852,-0.03704 0.05027,-0.05292 0.08996,-0.05292 h 0.545043 c 0.03969,0 0.07144,0.01852 0.08202,0.05821 l 1.039812,2.987146 c 0.0079,0.04498 -0.0053,0.0635 -0.04498,0.0635 z m -1.510771,-2.148417 c 0,0 -0.0079,-0.01323 -0.02117,-0.01323 -0.0079,0 -0.01852,0.0053 -0.02117,0.01323 l -0.473604,1.143 c -0.01852,0.03969 -0.0053,0.05821 0.03704,0.05821 h 0.785813 c 0.03969,0 0.05821,-0.01852 0.04498,-0.05821 z"
           id="path1986"
           style="fill:#58778d;stroke-width:0.264583" />
        <path
           class="cls-39"
           d="m 17.936403,23.952163 c 0,0.04498 -0.02646,0.06615 -0.06615,0.06615 h -0.679979 c -0.03969,0 -0.0635,0.02117 -0.0635,0.0635 l -0.153459,2.492375 c 0,0.04498 -0.02117,0.0635 -0.06879,0.0635 h -0.772583 c -0.04498,0 -0.0635,-0.01852 -0.0635,-0.0635 l 0.153459,-2.492379 c 0.0053,-0.03969 -0.01323,-0.0635 -0.05821,-0.0635 h -0.693209 c -0.04498,0 -0.06615,-0.02117 -0.0635,-0.06615 l 0.02117,-0.367771 c 0,-0.03969 0.02646,-0.0635 0.06615,-0.0635 h 2.402417 c 0.03969,0 0.0635,0.02117 0.05821,0.0635 l -0.02381,0.367771 z"
           id="path1988"
           style="fill:#58778d;stroke-width:0.264583" />
        <path
           class="cls-39"
           d="m 19.156132,26.568892 c -0.0053,0.04498 -0.02646,0.06615 -0.06615,0.06615 H 18.42059 c -0.04498,0 -0.0635,-0.02117 -0.0635,-0.06615 l 0.166688,-2.976563 c 0,-0.03969 0.02117,-0.0635 0.06615,-0.0635 h 0.669396 c 0.03969,0 0.0635,0.02117 0.0635,0.0635 z"
           id="path1990"
           style="fill:#58778d;stroke-width:0.264583" />
        <path
           class="cls-39"
           d="m 22.794153,24.730038 c -0.463021,0.359833 -0.817563,0.648229 -1.060979,0.854604 -0.153459,0.127 -0.224896,0.261937 -0.224896,0.396875 0.0053,0.129646 0.09525,0.203729 0.264583,0.211667 0.142875,0.0079 0.396875,0 0.759354,-0.02117 0.01852,-0.0053 0.03704,0 0.05027,0.01323 0.0079,0.0079 0.01852,0.02646 0.01852,0.04498 l -0.0053,0.545042 c 0,0.04498 -0.02117,0.06879 -0.0635,0.07144 -0.232833,0.01323 -0.486833,0.02117 -0.759354,0.01852 -0.288396,-0.0053 -0.513291,-0.06879 -0.669396,-0.193146 -0.185208,-0.140229 -0.275166,-0.351895 -0.269875,-0.629708 0.0053,-0.269875 0.134938,-0.53975 0.391584,-0.801687 0.02646,-0.03704 0.03969,-0.07144 0.03704,-0.111125 l -0.246062,-1.521355 c -0.0053,-0.03969 0.01323,-0.06615 0.05292,-0.07144 l 0.566208,-0.09525 c 0.03969,-0.0053 0.06615,0.01323 0.07144,0.05292 l 0.174625,1.100666 c 0.0053,0.01323 0.01323,0.02646 0.02646,0.03175 0.01323,0.0053 0.02117,0.0053 0.03704,-0.0079 0.111125,-0.08996 0.269875,-0.206375 0.468313,-0.359834 0.03175,-0.02646 0.0635,-0.02117 0.08996,0.0079 l 0.301625,0.373062 c 0.03175,0.03704 0.02646,0.0635 -0.0079,0.08996 z"
           id="path1992"
           style="fill:#58778d;stroke-width:0.264583" />
        <path
           class="cls-39"
           d="m 25.217736,26.240809 -0.963083,0.108479 c -0.03969,0.0053 -0.0635,-0.01323 -0.0635,-0.05821 l -0.0079,-0.264583 c -0.0053,-0.185208 0,-0.494771 0.02117,-0.939271 l 0.04498,-0.894291 c 0,-0.04498 0.02117,-0.0635 0.0635,-0.0635 h 0.605896 c 0.04498,0 0.0635,0.01852 0.0635,0.0635 -0.01852,0.309562 -0.03704,0.801687 -0.05821,1.476375 0,0.03969 0.01852,0.05821 0.0635,0.05821 l 0.206375,-0.02117 c 0.03969,-0.0053 0.05821,0.01323 0.0635,0.05821 l 0.01852,0.41275 c 0.0053,0.03969 -0.01852,0.06615 -0.05821,0.06615 z m 2.690813,-1.529292 c -0.0053,0.04498 -0.02646,0.06615 -0.06615,0.06615 l -0.365125,0.0079 c -0.03969,0 -0.0635,0.02117 -0.0635,0.07144 l -0.01852,0.4445 c -0.0053,0.04498 0.01852,0.06879 0.05821,0.06879 h 0.261938 c 0.04498,0 0.0635,0.02117 0.0635,0.06615 l -0.02646,0.423334 c -0.0053,0.04498 -0.02646,0.06614 -0.06615,0.06614 l -0.269875,-0.0053 c -0.03969,0 -0.0635,0.02117 -0.06615,0.06615 -0.01852,0.264583 -0.09525,0.486833 -0.232833,0.648229 -0.148167,0.174625 -0.354542,0.269875 -0.611188,0.277812 -0.193146,0.0053 -0.367771,-0.05027 -0.521229,-0.166687 -0.185208,-0.140229 -0.277813,-0.336021 -0.269875,-0.590021 0.0079,-0.481542 0.301625,-0.740833 0.867833,-0.783167 0.03969,-0.0053 0.0635,-0.02646 0.06615,-0.07144 l 0.01852,-0.431271 c 0,-0.01852 -0.0079,-0.03704 -0.01852,-0.04498 -0.01323,-0.01323 -0.02646,-0.01852 -0.04498,-0.01852 l -0.531813,0.01852 c -0.01852,0 -0.03175,-0.0079 -0.04498,-0.02117 -0.01323,-0.01323 -0.01852,-0.02646 -0.01852,-0.04498 l 0.0079,-0.381 c 0,-0.04498 0.02117,-0.06615 0.06615,-0.06615 l 0.534458,-0.0079 c 0.03969,0 0.0635,-0.02117 0.06615,-0.0635 l 0.02117,-0.669396 c 0.0053,-0.03969 0.02646,-0.05821 0.06879,-0.05821 h 0.624417 c 0.04498,0 0.0635,0.02117 0.05821,0.0635 0,0.113771 -0.0079,0.322792 -0.01852,0.637646 -0.0053,0.01852 0,0.03175 0.01323,0.04498 0.01323,0.0079 0.02646,0.01852 0.04498,0.01852 l 0.359833,-0.01323 c 0.01852,0 0.03175,0.0053 0.04498,0.01852 0.01323,0.01323 0.01852,0.03175 0.01852,0.04498 l -0.01323,0.381 z m -1.312334,1.235604 c -0.08996,-0.0079 -0.161395,0.0053 -0.219604,0.03969 -0.07144,0.03704 -0.108479,0.09525 -0.108479,0.179916 0,0.103188 0.05821,0.15875 0.166688,0.15875 0.121708,-0.0053 0.179916,-0.121708 0.185208,-0.354541 0,-0.01852 -0.0079,-0.02117 -0.02117,-0.02117 z"
           id="path1994"
           style="fill:#58778d;stroke-width:0.264583" />
      </g>
      <path
         class="cls-30"
         d="m 19.378382,19.652684 c -0.354542,0 -0.709084,-0.08467 -1.039813,-0.254 l -3.082395,-1.584855 -3.082396,1.584855 C 11.406486,19.792913 10.498965,19.721475 9.8004652,19.216121 9.1046111,18.710767 8.7553611,17.866746 8.8929444,17.014787 L 9.4459236,13.593725 6.9852986,11.151621 C 6.3741111,10.543079 6.1597986,9.6567249 6.4270277,8.8391625 6.6942569,8.0189541 7.3874652,7.4289333 8.2394236,7.2966416 L 11.665778,6.7648291 13.229465,3.67185 c 0.388938,-0.7699375 1.166813,-1.2461875 2.026709,-1.2461875 0,0 0,0 0,0 0.862541,0 1.63777,0.4788958 2.026708,1.2461875 v 0 c 0,0 1.563687,3.0929791 1.563687,3.0929791 l 3.426355,0.5318125 c 0.851958,0.1322917 1.545166,0.7223125 1.812396,1.5425209 0.267229,0.8202082 0.05292,1.7065625 -0.558271,2.3124585 l -2.460625,2.442104 0.552979,3.421062 c 0.137583,0.851959 -0.209021,1.693334 -0.907521,2.201334 -0.396875,0.288396 -0.865187,0.436563 -1.3335,0.436563 z"
         id="path1998"
         style="fill:#65b7ec;stroke-width:0.264583" />
      <path
         class="cls-31"
         d="m 15.256174,15.646892 3.966104,2.037291 c 0.161396,0.08202 0.291042,0.01852 0.354542,-0.02646 0.0635,-0.04498 0.164041,-0.150812 0.134937,-0.330729 l -0.711729,-4.402667 3.161771,-3.1432499 c 0.129646,-0.1296459 0.108479,-0.2725209 0.08467,-0.3466042 -0.02381,-0.074083 -0.0926,-0.2037292 -0.27252,-0.2301875 L 17.568632,8.5216625 15.557799,4.5423291 C 15.475778,4.3809333 15.332903,4.354475 15.253528,4.354475 c -0.07937,0 -0.22225,0.023813 -0.304271,0.1878541 L 12.938424,8.5216625 8.5331111,9.2042874 C 8.3531944,9.2333914 8.2844027,9.3603916 8.2605902,9.4344749 8.2367777,9.5085579 8.215611,9.6540791 8.3452569,9.7810791 l 3.1617711,3.1432499 -0.711729,4.402667 c -0.0291,0.179916 0.07144,0.283104 0.134937,0.330729 0.0635,0.04498 0.193146,0.111125 0.354542,0.02646 l 3.966104,-2.037291 z"
         id="path2000"
         style="fill:#f6ed36;stroke-width:0.264583" />
    </g>
  </g>
</svg>
