<svg role="img" viewBox="0 0 24 24" xmlns="http://www.w3.org/2000/svg"><title>Community</title><path d="M12 0C9.182 0 6.875 2.307 6.875 5.125S9.182 10.25 12 10.25s5.125-2.307 5.125-5.125S14.818 0 12 0zM5.5 12C3.567 12 2 13.567 2 15.5S3.567 19 5.5 19s3.5-1.567 3.5-3.5S7.433 12 5.5 12zm13 0c-1.933 0-3.5 1.567-3.5 3.5s1.567 3.5 3.5 3.5 3.5-1.567 3.5-3.5-1.567-3.5-3.5-3.5zM12 11.5c-3.59 0-6.5 2.91-6.5 6.5v5c0 .552.448 1 1 1h11c.552 0 1-.448 1-1v-5c0-3.59-2.91-6.5-6.5-6.5zM0 20v3c0 .552.448 1 1 1h4v-5.5C5 16.567 3.433 15 1.5 15H1c-.552 0-1 .448-1 1v4zm24 0v-4c0-.552-.448-1-1-1h-.5c-1.933 0-3.5 1.567-3.5 3.5V24h4c.552 0 1-.448 1-1v-3z"/></svg>
