<svg width="45" height="48" viewBox="0 0 45 48" fill="none" xmlns="http://www.w3.org/2000/svg">
<path d="M41.349 42.1899C41.089 42.7199 40.6889 42.8498 40.1689 42.5798L36.2889 40.4099C35.7589 40.1499 35.299 40.28 34.909 40.74C31.229 45.14 26.039 47.2399 19.269 47.1099C12.369 47.0399 7.37894 45.1399 4.28894 41.3899C1.19894 37.7099 -0.181045 31.7299 0.0189546 23.3899C0.348955 14.1899 2.77894 7.74982 7.43894 4.06982C10.7889 1.37982 15.589 0 21.959 0C28.329 0 33.059 1.37996 35.959 4.20996C39.249 7.29996 40.889 12.55 40.889 20.04C40.889 24.57 40.3589 28.58 39.3089 32C39.1789 32.66 39.309 33.0499 39.899 33.3799L43.779 35.48C44.369 35.81 44.4989 36.2 44.2389 36.79L41.349 42.1799V42.1899ZM27.4189 9.59985C26.3689 7.95985 24.3989 7.04002 21.6989 6.77002C18.3489 6.84002 15.9789 7.75985 14.6689 9.59985C12.8989 11.8999 11.839 16.43 11.519 23.27C11.449 24.65 11.3889 25.9599 11.3889 27.1499C11.3889 32.0099 12.0489 35.3598 13.2989 37.3298C14.5489 39.2998 16.6489 40.3499 19.4789 40.3499C22.7689 40.3499 25.1989 39.0399 26.639 36.4099C26.899 35.8199 26.7689 35.4199 26.1789 35.0999L20.459 32.0798C19.929 31.8198 19.7989 31.3598 20.0689 30.8298L22.959 25.51C23.289 24.98 23.679 24.8499 24.269 25.1799L27.9489 27.0898C28.5389 27.4198 28.7989 27.2199 28.8689 26.6299C29.1289 23.7999 29.2589 21.2399 29.2589 18.9399C29.2589 14.4699 28.6689 11.3199 27.4189 9.60986V9.59985Z" fill="#F6ED36"/>
</svg>
