<svg width="77" height="73" viewBox="0 0 77 73" fill="none" xmlns="http://www.w3.org/2000/svg">
<path d="M5.8674 66.11C5.8574 66.26 5.77743 66.31 5.64743 66.31H4.53744C4.38744 66.31 4.31747 66.38 4.31747 66.51V66.76C4.31747 66.89 4.37741 66.99 4.50741 67.04C5.04741 67.23 5.44748 67.38 5.69748 67.48C5.84748 67.54 5.8875 67.64 5.8475 67.77L5.4675 68.75C5.4275 68.88 5.3375 68.93 5.2175 68.87C5.0275 68.78 4.76747 68.68 4.43747 68.55C4.31747 68.49 4.2674 68.54 4.2474 68.68L4.1174 72.16C4.1174 72.31 4.04744 72.37 3.90744 72.37H1.98752C1.92752 72.38 1.88749 72.37 1.83749 72.33C1.80749 72.29 1.77743 72.24 1.77743 72.18L1.87741 69.4C1.87741 69.4 1.86749 69.36 1.83749 69.33C1.80749 69.33 1.79742 69.33 1.76742 69.36C1.64742 69.51 1.47752 69.71 1.23752 69.96C1.14752 70.08 1.04748 70.08 0.947478 69.99L0.0874926 69.24C-0.0125074 69.14 -0.0325367 69.05 0.0574633 68.95C0.917463 67.98 1.54745 67.24 1.91745 66.7C1.97745 66.61 2.00741 66.52 2.00741 66.45C2.00741 66.36 1.96741 66.32 1.87741 66.32H0.647429C0.497429 66.32 0.437468 66.26 0.437468 66.12L0.467498 65.29C0.467498 65.16 0.537468 65.09 0.687468 65.09H1.8475C1.9775 65.09 2.05747 65.03 2.06747 64.88L2.15744 62.6C2.15744 62.45 2.2274 62.4 2.3674 62.4H4.26742C4.39742 62.41 4.4675 62.47 4.4675 62.62L4.39743 64.89C4.39743 65.04 4.45749 65.1 4.58749 65.1H5.69748C5.82748 65.1 5.88742 65.17 5.88742 65.3V66.13L5.8674 66.11ZM1.4974 63.73C1.4974 63.86 1.42743 63.94 1.27743 63.94H0.3674C0.2174 63.94 0.157439 63.87 0.157439 63.73L0.187468 62.33C0.187468 62.18 0.247429 62.11 0.397429 62.11H1.30746C1.45746 62.11 1.52743 62.18 1.52743 62.33L1.4974 63.73ZM6.28744 64.09C6.25744 64.22 6.16743 64.28 6.02743 64.25L5.14743 64.04C4.99743 64.01 4.93752 63.92 4.98752 63.79L5.3674 62.22C5.3974 62.1 5.48741 62.04 5.62741 62.07L6.50741 62.28C6.63741 62.31 6.68744 62.38 6.65744 62.53L6.28744 64.08V64.09ZM13.7275 69.55C13.7275 69.7 13.6574 69.77 13.5174 69.77L12.6374 69.8C12.5074 69.8 12.4174 69.87 12.4174 70L12.3275 72.31C12.3175 72.44 12.2375 72.52 12.1075 72.52H10.1775C10.0475 72.52 9.97752 72.45 9.98752 72.31L10.0775 70.09C10.0775 70.03 10.0674 69.99 10.0174 69.94C9.97742 69.91 9.9274 69.9 9.8674 69.9L7.28744 69.99C7.22744 69.99 7.18742 69.98 7.13742 69.93C7.09742 69.9 7.07748 69.86 7.07748 69.8V68.88C7.07748 68.75 7.14743 68.67 7.27743 68.67L9.90744 68.57C10.0374 68.56 10.1075 68.48 10.1075 68.35L10.3674 61.93C10.3774 61.78 10.4575 61.71 10.5875 61.71H12.5174C12.6474 61.71 12.7275 61.78 12.7075 61.93L12.4575 68.27C12.4575 68.33 12.4674 68.39 12.5174 68.42C12.5474 68.46 12.5874 68.49 12.6474 68.48L13.4775 68.45C13.5375 68.45 13.5774 68.46 13.6274 68.51C13.6674 68.54 13.6975 68.6 13.6975 68.66V69.57L13.7275 69.55ZM8.79745 67.34C8.70745 67.46 8.60752 67.46 8.48752 67.37L7.3475 66.42C7.2475 66.33 7.22747 66.24 7.31747 66.14L7.95749 65.33C8.04749 65.21 8.14742 65.21 8.26742 65.3L9.40744 66.24C9.52744 66.33 9.53748 66.43 9.44748 66.53L8.78744 67.33L8.79745 67.34ZM9.14743 64.61C9.05743 64.71 8.9774 64.73 8.8674 64.64L7.81747 63.81C7.71747 63.72 7.71744 63.62 7.78744 63.52L8.44748 62.71C8.53748 62.61 8.63752 62.61 8.73752 62.68L9.77743 63.51C9.89743 63.6 9.90746 63.7 9.80746 63.82L9.14743 64.61Z" fill="#58778D"/>
<path d="M26.2274 65.7304C26.1574 65.8604 26.0674 65.8904 25.9474 65.8304C23.8974 64.7004 22.2173 63.6104 20.9273 62.5704C20.8073 62.4804 20.7074 62.4804 20.5874 62.5704C19.3274 63.5504 17.7474 64.6204 15.8574 65.7504C15.7274 65.8404 15.6374 65.8104 15.5674 65.6804L14.7873 64.3504C14.7173 64.2304 14.7274 64.1504 14.8474 64.0704C17.8274 62.2004 19.9274 60.6704 21.1074 59.5304C21.2074 59.4104 21.3273 59.4104 21.4273 59.5304L22.4774 60.5404C22.5774 60.6304 22.5774 60.7304 22.4774 60.8304C22.4174 60.9004 22.3774 60.9604 22.3174 60.9904C22.2274 61.0904 22.2274 61.2004 22.3274 61.2804C23.2474 62.0004 24.7573 62.9304 26.8673 64.0604C26.9873 64.1304 27.0174 64.2204 26.9574 64.3504L26.2074 65.7304H26.2274ZM24.5774 68.2604C24.5674 68.4104 24.4874 68.4804 24.3474 68.4804H22.2374C22.0874 68.4804 22.0173 68.5404 22.0173 68.6904L21.9474 71.0204C21.9474 71.1504 22.0173 71.2104 22.1573 71.2104H24.1473C24.2973 71.2104 24.3674 71.2804 24.3574 71.4304L24.2973 72.3504C24.2873 72.4804 24.2074 72.5404 24.0674 72.5404H17.2673C17.1373 72.5404 17.0574 72.4804 17.0774 72.3504L17.1373 71.4304C17.1473 71.2804 17.2074 71.2104 17.3574 71.2104H19.2473C19.3973 71.2104 19.4574 71.1504 19.4674 71.0204L19.5573 68.6904C19.5673 68.5404 19.4974 68.4804 19.3474 68.4804H17.0974C16.9674 68.4804 16.9073 68.4104 16.9073 68.2604L16.9674 67.3504C16.9774 67.2204 17.0573 67.1504 17.1873 67.1504H19.4073C19.5373 67.1504 19.6173 67.0804 19.6273 66.9304L19.6673 66.3004C19.6673 66.1704 19.6074 66.1004 19.4574 66.1004H17.9073C17.7573 66.1004 17.6874 66.0304 17.7074 65.8904L17.7673 64.9804C17.7773 64.8304 17.8574 64.7604 17.9874 64.7604H23.8073C23.9573 64.7604 24.0173 64.8304 24.0173 64.9804L23.9574 65.8904C23.9474 66.0204 23.8674 66.1004 23.7374 66.1004H22.3474C22.2174 66.1004 22.1373 66.1704 22.1373 66.3004L22.1074 66.9304C22.0974 67.0804 22.1673 67.1504 22.2973 67.1504H24.4474C24.5974 67.1504 24.6573 67.2204 24.6573 67.3704L24.5974 68.2604H24.5774ZM18.4273 70.6104H17.5073C17.3773 70.6104 17.3174 70.5504 17.3174 70.4204V69.3504C17.3074 69.2204 17.3573 69.1504 17.5073 69.1504H18.4273C18.5573 69.1504 18.6173 69.2104 18.6173 69.3404V70.4104C18.6173 70.5404 18.5573 70.6204 18.4273 70.6204V70.6104ZM24.1473 70.5504C24.1173 70.7004 24.0473 70.7404 23.9173 70.7104L23.0073 70.5204C22.8773 70.4904 22.8274 70.4004 22.8474 70.2704L23.0974 69.2204C23.1274 69.0904 23.2174 69.0304 23.3474 69.0604L24.2274 69.2604C24.3574 69.2904 24.4173 69.3604 24.3873 69.4904L24.1573 70.5404L24.1473 70.5504Z" fill="#58778D"/>
<path d="M35.4378 66.5701C35.2078 66.8501 34.8978 66.9801 34.4878 66.9801C34.1478 66.9801 33.8878 66.8801 33.6678 66.6601C33.4478 66.4501 33.3577 66.1601 33.3777 65.8001C33.3877 65.4201 33.5378 65.1301 33.7978 64.9101C34.0478 64.7201 34.3077 64.6201 34.6177 64.6201C34.9577 64.6201 35.2378 64.7201 35.4478 64.9401C35.6678 65.1501 35.7578 65.4401 35.7278 65.8001C35.7178 66.1101 35.6278 66.3701 35.4378 66.5801V66.5701Z" fill="#58778D"/>
<path d="M51.3376 70.4203C51.2776 70.5403 51.1876 70.5703 51.0776 70.5103L50.2176 70.0303C50.0976 69.9703 49.9975 70.0003 49.9075 70.1003C49.0875 71.0803 47.9376 71.5503 46.4276 71.5203C44.8876 71.5103 43.7776 71.0803 43.0876 70.2503C42.3976 69.4303 42.0875 68.1003 42.1375 66.2403C42.2075 64.1903 42.7475 62.7603 43.7875 61.9403C44.5375 61.3403 45.5975 61.0303 47.0175 61.0303C48.4375 61.0303 49.4875 61.3403 50.1375 61.9703C50.8675 62.6603 51.2376 63.8303 51.2376 65.5003C51.2376 66.5103 51.1175 67.4003 50.8875 68.1603C50.8575 68.3103 50.8875 68.3903 51.0175 68.4703L51.8775 68.9403C52.0075 69.0103 52.0376 69.1003 51.9776 69.2303L51.3376 70.4303V70.4203ZM48.2276 63.1603C47.9976 62.7903 47.5576 62.5903 46.9576 62.5303C46.2076 62.5403 45.6875 62.7503 45.3875 63.1603C44.9975 63.6703 44.7576 64.6803 44.6876 66.2003C44.6776 66.5103 44.6575 66.8003 44.6575 67.0603C44.6575 68.1403 44.8076 68.8903 45.0776 69.3303C45.3576 69.7703 45.8276 70.0003 46.4576 70.0003C47.1876 70.0003 47.7276 69.7103 48.0476 69.1203C48.1076 68.9903 48.0776 68.9003 47.9476 68.8303L46.6776 68.1603C46.5576 68.1003 46.5276 68.0003 46.5876 67.8803L47.2276 66.6903C47.2976 66.5703 47.3875 66.5403 47.5175 66.6203L48.3376 67.0403C48.4676 67.1103 48.5276 67.0703 48.5476 66.9403C48.6076 66.3103 48.6375 65.7403 48.6375 65.2303C48.6375 64.2303 48.5076 63.5303 48.2276 63.1503V63.1603Z" fill="#58778D"/>
<path d="M62.9272 70.9401C62.8372 71.0601 62.7372 71.0601 62.6472 70.9701C62.5772 70.9101 62.4172 70.7401 62.1472 70.4701C62.0772 70.3801 61.9673 70.3801 61.8573 70.4801C60.9973 71.1701 59.9973 71.5201 58.8473 71.5301C57.7173 71.5301 56.8573 71.2701 56.2273 70.7501C55.6473 70.2701 55.3471 69.6101 55.3671 68.7701C55.3671 67.8501 55.9672 66.9801 57.1772 66.1901C57.2772 66.1001 57.2972 66.0101 57.2172 65.9101C56.5272 65.0501 56.2072 64.2401 56.2172 63.5001C56.2472 62.6701 56.5673 61.9901 57.2273 61.5001C57.7973 61.0601 58.4972 60.8301 59.3372 60.8301C60.3872 60.8301 61.1772 61.1801 61.6972 61.8701C62.0972 62.3701 62.2673 62.9201 62.2273 63.5101C62.1873 64.4501 61.6572 65.3101 60.6472 66.1001C60.5472 66.1901 60.5272 66.2801 60.6372 66.3801C60.8672 66.6301 61.2172 66.9801 61.6872 67.4601C61.7872 67.5601 61.8572 67.5501 61.9372 67.4301C61.9672 67.3401 62.0272 67.2501 62.0672 67.1201C62.1272 67.0001 62.2172 66.9701 62.3272 67.0301L63.4972 67.5901C63.6272 67.6501 63.6671 67.7401 63.6171 67.8701C63.4471 68.2201 63.3072 68.5001 63.2072 68.6901C63.1472 68.8101 63.1672 68.9101 63.2672 69.0101C63.4872 69.2101 63.6872 69.3901 63.8772 69.5501C63.9772 69.6401 63.9772 69.7301 63.8872 69.8401L62.9172 70.9201L62.9272 70.9401ZM60.3573 69.0801C60.0373 68.7301 59.5372 68.2301 58.8772 67.5701C58.7772 67.4701 58.6572 67.4501 58.5372 67.5301C58.0272 67.9101 57.7372 68.3301 57.6872 68.8001C57.6472 69.1501 57.7172 69.4401 57.8972 69.6601C58.1172 69.9101 58.4372 70.0401 58.8872 70.0301C59.4472 70.0301 59.9271 69.8101 60.3671 69.3701C60.4671 69.2801 60.4673 69.1801 60.3573 69.0801ZM60.2772 63.2501C60.2772 62.5801 59.9572 62.2301 59.3272 62.2101C58.5772 62.2001 58.1972 62.5601 58.1972 63.2601C58.1972 63.3801 58.2073 63.4801 58.2273 63.6001C58.2973 64.0201 58.5472 64.4901 58.9572 65.0201C59.0472 65.1201 59.1373 65.1201 59.2373 65.0301C59.8373 64.5501 60.1772 64.0301 60.2472 63.5201C60.2572 63.4201 60.2772 63.3301 60.2772 63.2401V63.2501Z" fill="#58778D"/>
<path d="M76.4678 71.3702H73.9177C73.7677 71.3702 73.6877 71.3102 73.6377 71.1602L73.2877 70.0002C73.2477 69.8802 73.1577 69.8202 73.0077 69.8202H69.3478C69.2178 69.8202 69.1278 69.8802 69.0678 70.0002L68.5878 71.1702C68.5278 71.3002 68.4377 71.3602 68.2977 71.3602H66.6978C66.5478 71.3602 66.5078 71.3002 66.5678 71.1702L70.8977 61.4202C70.9577 61.3002 71.0577 61.2402 71.1877 61.2402H72.9578C73.0878 61.2402 73.1878 61.3002 73.2178 61.4302L76.5978 71.1502C76.6278 71.3002 76.5878 71.3602 76.4478 71.3602L76.4678 71.3702ZM71.5477 64.3702C71.5477 64.3702 71.5178 64.3302 71.4778 64.3302C71.4478 64.3302 71.4177 64.3402 71.4077 64.3702L69.8677 68.0902C69.8077 68.2202 69.8578 68.2802 69.9878 68.2802H72.5477C72.6777 68.2802 72.7378 68.2202 72.6978 68.0902L71.5577 64.3702H71.5477Z" fill="#58778D"/>
<path d="M37.4379 48.16C49.3562 48.16 59.0178 38.4983 59.0178 26.58C59.0178 14.6617 49.3562 5 37.4379 5C25.5196 5 15.8579 14.6617 15.8579 26.58C15.8579 38.4983 25.5196 48.16 37.4379 48.16Z" fill="#F6ED36" stroke="#65B7EC" stroke-width="10" stroke-miterlimit="10"/>
<path d="M37.4379 48.16C49.3562 48.16 59.0178 38.4983 59.0178 26.58C59.0178 14.6617 49.3562 5 37.4379 5C25.5196 5 15.8579 14.6617 15.8579 26.58C15.8579 38.4983 25.5196 48.16 37.4379 48.16Z" fill="#F6ED36"/>
<path d="M44.2476 26.3203C43.5776 27.2503 42.2476 28.4903 40.2776 29.9903C39.2476 30.8203 38.6477 31.6903 38.4777 32.6303C38.4477 32.7603 38.3776 32.8303 38.2476 32.8303H33.8776C33.5476 32.8303 33.4076 32.7003 33.4476 32.3603C33.6176 31.0903 33.9477 30.0603 34.4777 29.2603C34.8777 28.6603 35.4476 28.0603 36.2776 27.3603C37.8176 26.1303 38.8177 25.1603 39.3477 24.4203C39.9477 23.6203 40.2476 22.7203 40.2476 21.6503C40.2776 19.9503 39.4177 19.0803 37.6077 19.0803C36.4777 19.0803 35.6377 19.3503 35.1077 19.9103C34.4777 20.5403 34.1076 21.6103 34.0376 23.0803C34.0376 23.4103 33.8676 23.5803 33.5376 23.5803H29.1976C29.0676 23.5803 28.9676 23.5503 28.8976 23.4503C28.7976 23.3803 28.7676 23.2503 28.7676 23.1203C28.9976 17.9103 32.0376 15.2803 37.7776 15.2803C40.5176 15.2803 42.5877 15.9103 43.9877 17.1503C45.2177 18.2503 45.8576 19.7503 45.8276 21.6603C45.8276 23.4603 45.2976 25.0003 44.2576 26.3303L44.2476 26.3203ZM38.1776 38.6003C38.1476 38.9003 37.9776 39.0703 37.6776 39.0703H33.3076C33.0076 39.0703 32.8376 38.9003 32.9076 38.5703L33.2076 34.8303C33.2376 34.5303 33.4077 34.3603 33.7377 34.3603L37.8076 34.3303C38.1076 34.3303 38.2776 34.5003 38.2776 34.8303L38.1776 38.6003Z" fill="#65B7EC"/>
</svg>

