<svg xmlns="http://www.w3.org/2000/svg" width="216.184" height="208.283" viewBox="0 0 216.184 208.283">
  <g id="グループ_102" data-name="グループ 102" transform="translate(-467.35 -4005.074)">
    <g id="グループ_98" data-name="グループ 98">
      <path id="パス_1785" data-name="パス 1785" d="M625.287,4213.357a27.467,27.467,0,0,1-12.567-3.056l-37.278-19.148L538.165,4210.3a27.459,27.459,0,0,1-39.653-28.81l6.691-41.37-29.73-29.536a27.458,27.458,0,0,1,15.146-46.615l41.413-6.421,18.9-37.4a27.328,27.328,0,0,1,24.507-15.073h0a27.325,27.325,0,0,1,24.506,15.073h0l18.9,37.4,41.414,6.421a27.459,27.459,0,0,1,15.146,46.615l-29.73,29.536,6.691,41.37a27.5,27.5,0,0,1-27.086,31.866Z" fill="#f6ed36"/>
    </g>
    <g id="グループ_100" data-name="グループ 100">
      <g id="グループ_99" data-name="グループ 99">
        <path id="パス_1786" data-name="パス 1786" d="M539.457,4101.662l2.606-3.074a7.644,7.644,0,0,0,4.6,1.9c1.686,0,2.478-.625,2.478-1.625,0-1.074-1.047-1.424-2.682-2.1l-2.427-1a5.466,5.466,0,0,1-3.857-5.1c0-3.125,2.861-5.624,6.9-5.624a8.948,8.948,0,0,1,6.181,2.449l-2.273,2.8a6.261,6.261,0,0,0-3.908-1.425c-1.4,0-2.248.55-2.248,1.525,0,1.049,1.175,1.449,2.861,2.1l2.376.925c2.35.925,3.755,2.475,3.755,5.1,0,3.1-2.657,5.823-7.255,5.823A10.769,10.769,0,0,1,539.457,4101.662Z" fill="#58778d"/>
        <path id="パス_1787" data-name="パス 1787" d="M563.21,4089.09h-5.134v-3.724h14.866v3.724h-5.16v14.9H563.21Z" fill="#58778d"/>
        <path id="パス_1788" data-name="パス 1788" d="M578.431,4085.366h12.056v3.724H583v3.449h6.361v3.749H583v3.949h7.766v3.749H578.431Z" fill="#58778d"/>
        <path id="パス_1789" data-name="パス 1789" d="M597.075,4085.366h6.693c4.163,0,7.611,1.475,7.611,6.073,0,4.424-3.474,6.374-7.509,6.374h-2.223v6.173h-4.572Zm6.565,8.923c2.222,0,3.295-1.025,3.295-2.85,0-1.875-1.226-2.524-3.423-2.524h-1.865v5.374Z" fill="#58778d"/>
      </g>
    </g>
    <g id="グループ_101" data-name="グループ 101">
      <path id="パス_1790" data-name="パス 1790" d="M591.365,4140.787a4.619,4.619,0,0,1-3.492,1.425h-13.04v7.064H592.3v10.37h-34v-22.278a4.772,4.772,0,0,1,1.4-3.418,5.077,5.077,0,0,1,3.551-1.425h13.1v-6.609h-17.93v-10.483h29.456a4.794,4.794,0,0,1,3.492,1.367,4.636,4.636,0,0,1,1.456,3.475v17.093A4.43,4.43,0,0,1,591.365,4140.787Z" fill="#58778d"/>
    </g>
  </g>
</svg>
