<svg xmlns="http://www.w3.org/2000/svg" width="216.184" height="208.283" viewBox="0 0 216.184 208.283">
  <g id="グループ_112" data-name="グループ 112" transform="translate(-467.35 -4259.299)">
    <g id="グループ_108" data-name="グループ 108">
      <path id="パス_1826" data-name="パス 1826" d="M625.287,4467.582a27.473,27.473,0,0,1-12.567-3.056l-37.278-19.148-37.277,19.148a27.459,27.459,0,0,1-39.653-28.81l6.691-41.37-29.73-29.536a27.46,27.46,0,0,1,15.146-46.616l41.413-6.42,18.9-37.4a27.329,27.329,0,0,1,24.507-15.073h0a27.325,27.325,0,0,1,24.506,15.073h0l18.9,37.4,41.414,6.42a27.46,27.46,0,0,1,15.146,46.616l-29.73,29.536,6.691,41.37a27.5,27.5,0,0,1-27.086,31.866Z" fill="#f6ed36"/>
    </g>
    <g id="グループ_110" data-name="グループ 110">
      <g id="グループ_109" data-name="グループ 109">
        <path id="パス_1827" data-name="パス 1827" d="M539.457,4355.888l2.606-3.075a7.64,7.64,0,0,0,4.6,1.9c1.686,0,2.478-.625,2.478-1.625,0-1.074-1.047-1.425-2.682-2.1l-2.427-1a5.464,5.464,0,0,1-3.857-5.1c0-3.125,2.861-5.624,6.9-5.624a8.947,8.947,0,0,1,6.181,2.449l-2.273,2.8a6.26,6.26,0,0,0-3.908-1.425c-1.4,0-2.248.55-2.248,1.524,0,1.05,1.175,1.449,2.861,2.1l2.376.925c2.35.924,3.755,2.474,3.755,5.1,0,3.1-2.657,5.824-7.255,5.824A10.774,10.774,0,0,1,539.457,4355.888Z" fill="#58778d"/>
        <path id="パス_1828" data-name="パス 1828" d="M563.21,4343.315h-5.134v-3.723h14.866v3.723h-5.16v14.9H563.21Z" fill="#58778d"/>
        <path id="パス_1829" data-name="パス 1829" d="M578.431,4339.592h12.056v3.723H583v3.45h6.361v3.749H583v3.949h7.766v3.749H578.431Z" fill="#58778d"/>
        <path id="パス_1830" data-name="パス 1830" d="M597.075,4339.592h6.693c4.163,0,7.611,1.474,7.611,6.073,0,4.424-3.474,6.373-7.509,6.373h-2.223v6.174h-4.572Zm6.565,8.923c2.222,0,3.295-1.026,3.295-2.85,0-1.875-1.226-2.524-3.423-2.524h-1.865v5.374Z" fill="#58778d"/>
      </g>
    </g>
    <g id="グループ_111" data-name="グループ 111">
      <path id="パス_1831" data-name="パス 1831" d="M591.1,4412.5a5.042,5.042,0,0,1-3.493,1.425h-28.7v-10.541h17.114v-6.723H559.145v-10.483h15.717v-6.04H559.028v-10.484h27.36a4.792,4.792,0,0,1,3.492,1.367,4.638,4.638,0,0,1,1.456,3.476v11.681h1.223v22.846A4.957,4.957,0,0,1,591.1,4412.5Z" fill="#58778d"/>
    </g>
  </g>
</svg>
