<svg xmlns="http://www.w3.org/2000/svg" width="216.184" height="208.283" viewBox="0 0 216.184 208.283">
  <g id="グループ_142" data-name="グループ 142" transform="translate(-467.35 -5021.974)">
    <g id="グループ_138" data-name="グループ 138">
      <path id="パス_1985" data-name="パス 1985" d="M625.287,5230.257a27.473,27.473,0,0,1-12.567-3.056l-37.278-19.148L538.165,5227.2a27.459,27.459,0,0,1-39.653-28.81l6.691-41.37-29.73-29.536a27.459,27.459,0,0,1,15.146-46.616l41.413-6.42,18.9-37.4a27.328,27.328,0,0,1,24.507-15.073h0a27.325,27.325,0,0,1,24.506,15.073h0l18.9,37.4,41.414,6.42a27.46,27.46,0,0,1,15.146,46.616l-29.73,29.536,6.691,41.37a27.5,27.5,0,0,1-27.086,31.866Z" fill="#f6ed36"/>
    </g>
    <g id="グループ_140" data-name="グループ 140">
      <g id="グループ_139" data-name="グループ 139">
        <path id="パス_1986" data-name="パス 1986" d="M539.457,5118.563l2.606-3.075a7.646,7.646,0,0,0,4.6,1.9c1.686,0,2.478-.625,2.478-1.625,0-1.075-1.047-1.425-2.682-2.1l-2.427-1a5.464,5.464,0,0,1-3.857-5.1c0-3.125,2.861-5.624,6.9-5.624a8.949,8.949,0,0,1,6.181,2.45l-2.273,2.8a6.267,6.267,0,0,0-3.908-1.424c-1.4,0-2.248.549-2.248,1.524,0,1.05,1.175,1.449,2.861,2.1l2.376.924c2.35.925,3.755,2.475,3.755,5.1,0,3.1-2.657,5.823-7.255,5.823A10.773,10.773,0,0,1,539.457,5118.563Z" fill="#58778d"/>
        <path id="パス_1987" data-name="パス 1987" d="M563.21,5105.99h-5.134v-3.723h14.866v3.723h-5.16v14.9H563.21Z" fill="#58778d"/>
        <path id="パス_1988" data-name="パス 1988" d="M578.431,5102.267h12.056v3.723H583v3.449h6.361v3.749H583v3.95h7.766v3.749H578.431Z" fill="#58778d"/>
        <path id="パス_1989" data-name="パス 1989" d="M597.075,5102.267h6.693c4.163,0,7.611,1.474,7.611,6.073,0,4.424-3.474,6.373-7.509,6.373h-2.223v6.174h-4.572Zm6.565,8.922c2.222,0,3.295-1.025,3.295-2.849,0-1.875-1.226-2.525-3.423-2.525h-1.865v5.374Z" fill="#58778d"/>
      </g>
    </g>
    <g id="グループ_141" data-name="グループ 141">
      <path id="パス_1990" data-name="パス 1990" d="M573,5142.873v5.754h14.669a4.839,4.839,0,0,1,3.551,1.426,4.582,4.582,0,0,1,1.4,3.418v18.4a4.772,4.772,0,0,1-1.4,3.42,4.837,4.837,0,0,1-3.551,1.424H563.1a4.915,4.915,0,0,1-4.948-4.844v-34.641a4.634,4.634,0,0,1,1.455-3.474,4.8,4.8,0,0,1,3.493-1.369h29.514v10.484Zm4.773,15.441H573v8.717h4.773Z" fill="#58778d"/>
    </g>
  </g>
</svg>
