<svg width="46" height="45" viewBox="0 0 46 45" fill="none" xmlns="http://www.w3.org/2000/svg">
<path d="M22.9217 33.89L33.0617 39.1C33.4717 39.31 33.8117 39.15 33.9717 39.03C34.1317 38.91 34.3917 38.6501 34.3217 38.1901L32.5017 26.9301L40.5917 18.89C40.9217 18.56 40.8717 18.19 40.8017 18C40.7417 17.81 40.5717 17.48 40.1117 17.41L28.8417 15.66L23.7017 5.47998C23.4917 5.05998 23.1217 5 22.9217 5C22.7217 5 22.3517 5.05998 22.1417 5.47998L17.0017 15.66L5.73169 17.41C5.27169 17.48 5.10169 17.81 5.04169 18C4.98169 18.19 4.92171 18.56 5.25171 18.89L13.3417 26.9301L11.5217 38.1901C11.4517 38.6501 11.7117 38.92 11.8717 39.03C12.0317 39.15 12.3717 39.31 12.7817 39.1L22.9217 33.89Z" fill="#65B7EC" stroke="#65B7EC" stroke-width="10" stroke-miterlimit="10"/>
<path d="M22.9217 33.89L33.0617 39.1C33.4717 39.31 33.8117 39.15 33.9717 39.03C34.1317 38.91 34.3917 38.6501 34.3217 38.1901L32.5017 26.9301L40.5917 18.89C40.9217 18.56 40.8717 18.19 40.8017 18C40.7417 17.81 40.5717 17.48 40.1117 17.41L28.8417 15.66L23.7017 5.47998C23.4917 5.05998 23.1217 5 22.9217 5C22.7217 5 22.3517 5.05998 22.1417 5.47998L17.0017 15.66L5.73169 17.41C5.27169 17.48 5.10169 17.81 5.04169 18C4.98169 18.19 4.92171 18.56 5.25171 18.89L13.3417 26.9301L11.5217 38.1901C11.4517 38.6501 11.7117 38.92 11.8717 39.03C12.0317 39.15 12.3717 39.31 12.7817 39.1L22.9217 33.89Z" fill="#F6ED36"/>
</svg>
