<svg width="41" height="57" viewBox="0 0 41 57" fill="none" xmlns="http://www.w3.org/2000/svg">
<path d="M16.24 4.25V20.84L15.04 21.25C8.59001 23.45 4.26001 29.5099 4.26001 36.3199C4.26001 45.0999 11.4 52.24 20.18 52.24C28.96 52.24 36.1 45.0999 36.1 36.3199C36.1 29.4999 31.77 23.45 25.32 21.25L24.12 20.84V4.25H16.23H16.24Z" fill="#F6ED36"/>
<path d="M20.18 56.1411C9.25999 56.1411 0.369995 47.2511 0.369995 36.3311C0.369995 28.3811 5.05998 21.2611 12.35 18.1311V0.731079C12.35 0.531079 12.51 0.371094 12.71 0.371094H27.66C27.86 0.371094 28.02 0.531079 28.02 0.731079V18.1311C35.3 21.2611 40 28.3811 40 36.3311C40 47.2511 31.11 56.1411 20.19 56.1411H20.18ZM16.6 20.8411C16.6 20.9911 16.5 21.131 16.35 21.181L15.15 21.5911C8.84996 23.7411 4.62 29.661 4.62 36.321C4.62 44.901 11.6 51.8811 20.18 51.8811C28.76 51.8811 35.74 44.901 35.74 36.321C35.74 29.661 31.51 23.7411 25.2 21.5911L24 21.181C23.85 21.131 23.75 20.9911 23.75 20.8411V4.61108H16.59V20.8411H16.6Z" fill="#65B7EC"/>
<path d="M27.65 0.719971V18.36C34.86 21.36 39.63 28.4199 39.63 36.3199C39.63 47.0399 30.9 55.77 20.18 55.77C9.46002 55.77 0.730011 47.0399 0.730011 36.3199C0.730011 28.4199 5.48999 21.36 12.71 18.36V0.719971H27.66M20.18 52.24C28.96 52.24 36.1 45.0999 36.1 36.3199C36.1 29.4999 31.77 23.45 25.32 21.25L24.12 20.84V4.25H16.23V20.84L15.03 21.25C8.58 23.45 4.25 29.5099 4.25 36.3199C4.25 45.0999 11.39 52.24 20.17 52.24M27.65 0H12.7C12.3 0 11.98 0.319971 11.98 0.719971V17.89C4.69001 21.13 0 28.31 0 36.33C0 47.45 9.05001 56.5 20.17 56.5C31.29 56.5 40.34 47.45 40.34 36.33C40.34 28.31 35.66 21.13 28.36 17.89V0.719971C28.36 0.319971 28.04 0 27.64 0H27.65ZM16.96 4.96997H23.4V20.84C23.4 21.15 23.6 21.43 23.89 21.53L25.09 21.9399C31.24 24.0399 35.38 29.82 35.38 36.33C35.38 44.71 28.56 51.53 20.18 51.53C11.8 51.53 4.98001 44.71 4.98001 36.33C4.98001 29.82 9.11999 24.0399 15.27 21.9399L16.47 21.53C16.76 21.43 16.96 21.15 16.96 20.84V4.96997Z" fill="#65B7EC"/>
<path d="M33.38 33.2994L33.2 32.5195H7.16L6.98001 33.2994C6.75001 34.3094 6.63 35.3395 6.63 36.3795C6.63 43.8495 12.71 49.9294 20.18 49.9294C27.65 49.9294 33.73 43.8495 33.73 36.3795C33.73 35.3395 33.61 34.2994 33.38 33.2994ZM17.86 45.7195C17 45.7195 16.3 45.0194 16.3 44.1594C16.3 43.2994 17 42.5995 17.86 42.5995C18.72 42.5995 19.42 43.2994 19.42 44.1594C19.42 45.0194 18.72 45.7195 17.86 45.7195ZM23.54 40.7695C22.22 40.7695 21.16 39.6995 21.16 38.3895C21.16 37.0795 22.23 36.0095 23.54 36.0095C24.85 36.0095 25.92 37.0795 25.92 38.3895C25.92 39.6995 24.85 40.7695 23.54 40.7695Z" fill="#65B7EC"/>
</svg>
