<svg width="195" height="66" viewBox="0 0 195 66" fill="none" xmlns="http://www.w3.org/2000/svg">
<path d="M50.4097 26.49C50.1997 26.74 49.9497 26.77 49.7097 26.56L45.9997 23.41C45.7497 23.2 45.7197 22.99 45.9297 22.71C47.6797 20.57 48.5897 18.86 48.6597 17.6C48.6997 16.69 48.4497 15.99 47.9297 15.54C47.4397 15.15 46.7397 14.98 45.7897 14.98C44.8397 14.98 43.2297 15.4 40.8197 16.31C40.5097 16.41 40.3297 16.62 40.2997 16.94L39.9097 26.85C39.9097 27.16 39.7397 27.34 39.4197 27.34H34.6897C34.3397 27.34 34.1997 27.2 34.1997 26.88L34.5097 19.28C34.5097 19.14 34.4797 19.07 34.3697 19C34.2597 18.93 34.1597 18.93 34.0497 18.96C33.5597 19.17 32.8597 19.48 31.9097 19.87C31.5997 20.01 31.4197 19.94 31.2797 19.62L30.0197 16.5C29.9197 16.19 29.9897 15.98 30.2697 15.83L31.9497 15.06C32.2597 14.88 32.5097 14.71 32.6797 14.5L34.4697 12.36C34.7097 12.11 34.8197 11.84 34.8197 11.48L34.8597 10.25C34.8597 10.11 34.8197 9.99996 34.7197 9.89996C34.6197 9.82996 34.5097 9.79999 34.3697 9.79999L31.9197 10.0099C31.5697 10.0399 31.3997 9.86999 31.3597 9.54999L31.2197 6.60999C31.2197 6.29999 31.3597 6.08997 31.7097 6.08997L34.5497 5.81C34.8597 5.78 35.0397 5.6 35.0697 5.25L35.2497 0.48999C35.2497 0.13999 35.4197 0 35.7397 0H40.4697C40.8197 0 40.9597 0.179958 40.9597 0.519958L40.7797 4.75995C40.7797 4.89995 40.8197 4.99995 40.9197 5.06995C40.9897 5.16995 41.1297 5.20998 41.2697 5.16998L43.1197 4.98999C43.4397 4.98999 43.6097 5.12998 43.6497 5.47998L43.7497 8.38995C43.7497 8.69995 43.5697 8.87995 43.2597 8.94995H42.9497C42.6397 8.98995 42.3897 9.13 42.1797 9.37L40.5997 11.23C40.5597 11.3 40.5297 11.37 40.5297 11.48C40.5297 11.51 40.5697 11.55 40.5997 11.58C42.7697 10.88 44.5597 10.53 45.9597 10.53C48.3797 10.49 50.3397 11.09 51.8397 12.28C53.5497 13.61 54.3597 15.43 54.2897 17.78C54.1497 20.79 52.8897 23.66 50.3997 26.46L50.4097 26.49Z" fill="#58778D"/>
<path d="M75.6102 15.3991C75.3602 15.6491 75.3602 15.8591 75.6102 16.0991C77.8202 18.1991 80.3002 20.4091 83.0702 22.7191C83.3202 22.9591 83.3502 23.209 83.1402 23.449L80.3002 26.9191C80.0902 27.1991 79.8402 27.1991 79.6002 26.9891C74.9402 22.9991 70.9202 19.359 67.5602 16.069C67.3502 15.859 67.3502 15.6491 67.5902 15.3691C70.7102 12.0091 74.4502 8.01906 78.7602 3.46906C78.9702 3.22906 79.2202 3.22906 79.4602 3.46906L83.2702 6.72907C83.4802 6.93907 83.4802 7.18908 83.2702 7.42908L75.6002 15.4091L75.6102 15.3991Z" fill="#58778D"/>
<path d="M120.41 26.49C120.2 26.74 119.95 26.77 119.71 26.56L116 23.41C115.75 23.2 115.72 22.99 115.93 22.71C117.68 20.57 118.59 18.86 118.66 17.6C118.7 16.69 118.45 15.99 117.93 15.54C117.44 15.15 116.74 14.98 115.79 14.98C114.84 14.98 113.23 15.4 110.82 16.31C110.51 16.41 110.33 16.62 110.3 16.94L109.91 26.85C109.91 27.16 109.74 27.34 109.42 27.34H104.69C104.34 27.34 104.2 27.2 104.2 26.88L104.51 19.28C104.51 19.14 104.48 19.07 104.37 19C104.26 18.93 104.16 18.93 104.05 18.96C103.56 19.17 102.86 19.48 101.91 19.87C101.6 20.01 101.42 19.94 101.28 19.62L100.02 16.5C99.9197 16.19 99.9897 15.98 100.27 15.83L101.95 15.06C102.26 14.88 102.51 14.71 102.68 14.5L104.47 12.36C104.71 12.11 104.82 11.84 104.82 11.48L104.86 10.25C104.86 10.11 104.82 9.99996 104.72 9.89996C104.62 9.82996 104.51 9.79999 104.37 9.79999L101.92 10.0099C101.57 10.0399 101.4 9.86999 101.36 9.54999L101.22 6.60999C101.22 6.29999 101.36 6.08997 101.71 6.08997L104.55 5.81C104.86 5.78 105.04 5.6 105.07 5.25L105.25 0.48999C105.25 0.13999 105.42 0 105.74 0H110.47C110.82 0 110.96 0.179958 110.96 0.519958L110.78 4.75995C110.78 4.89995 110.82 4.99995 110.92 5.06995C110.99 5.16995 111.13 5.20998 111.27 5.16998L113.12 4.98999C113.44 4.98999 113.61 5.12998 113.65 5.47998L113.75 8.38995C113.75 8.69995 113.57 8.87995 113.26 8.94995H112.95C112.64 8.98995 112.39 9.13 112.18 9.37L110.6 11.23C110.56 11.3 110.53 11.37 110.53 11.48C110.53 11.51 110.57 11.55 110.6 11.58C112.77 10.88 114.56 10.53 115.96 10.53C118.38 10.49 120.34 11.09 121.84 12.28C123.55 13.61 124.36 15.43 124.29 17.78C124.15 20.79 122.89 23.66 120.4 26.46L120.41 26.49Z" fill="#58778D"/>
<path d="M145.61 15.3991C145.36 15.6491 145.36 15.8591 145.61 16.0991C147.82 18.1991 150.3 20.4091 153.07 22.7191C153.32 22.9591 153.35 23.209 153.14 23.449L150.3 26.9191C150.09 27.1991 149.84 27.1991 149.6 26.9891C144.94 22.9991 140.92 19.359 137.56 16.069C137.35 15.859 137.35 15.6491 137.59 15.3691C140.71 12.0091 144.45 8.01906 148.76 3.46906C148.97 3.22906 149.22 3.22906 149.46 3.46906L153.27 6.72907C153.48 6.93907 153.48 7.18908 153.27 7.42908L145.6 15.4091L145.61 15.3991Z" fill="#58778D"/>
<path d="M13.84 49.9612C13.84 50.3112 13.66 50.4812 13.35 50.4812H10.8601C10.5501 50.4812 10.4 50.6512 10.4 50.9712L10.37 51.9112C10.33 52.2612 10.72 52.6112 11.49 52.8912C12.05 53.0712 12.57 53.2113 13.1 53.3813C13.45 53.4813 13.56 53.6913 13.45 54.0513L12.54 56.5412C12.44 56.8512 12.23 56.9612 11.98 56.8512L10.72 56.3613C10.37 56.2513 10.23 56.3613 10.23 56.6713L10.02 63.5712C10.02 63.9212 9.84004 64.0912 9.53004 64.0912L5.19001 64.0613C4.88001 64.0613 4.73005 63.8812 4.73005 63.5412L4.87 57.9712C4.87 57.8712 4.83003 57.8313 4.77003 57.8013C4.66003 57.7613 4.59 57.8013 4.56 57.8713C4.21 58.2913 3.68002 58.8913 2.95002 59.6913C2.74002 59.9013 2.49001 59.9013 2.25001 59.6913L0.18 57.6913C-0.06 57.4813 -0.06 57.2712 0.18 57.0212C1.9 55.1612 3.44004 53.2713 4.91004 51.2413C5.01004 51.1013 5.04999 50.9313 5.04999 50.7513C5.04999 50.5713 4.97999 50.4712 4.79999 50.4712H1.72004C1.41004 50.4712 1.23002 50.3012 1.26002 49.9512L1.36005 47.3613C1.40005 47.0513 1.53001 46.8713 1.88001 46.8713H4.68C4.96 46.8713 5.14002 46.7313 5.14002 46.3813L5.21003 44.7012C5.21003 44.6012 5.18001 44.4913 5.07001 44.4213C5.00001 44.3513 4.89005 44.3513 4.79005 44.3813C4.48005 44.5213 4.02005 44.7312 3.42005 44.9812C3.07005 45.1212 2.86004 45.0212 2.72004 44.7012L1.49 41.8613C1.35 41.5513 1.45003 41.3413 1.77003 41.1913C5.03003 39.8213 8.14 38.3512 11.05 36.8512C11.36 36.7112 11.58 36.7813 11.75 37.0613L13.33 39.7912C13.5 40.1112 13.43 40.3213 13.12 40.4913L11.05 41.5412C10.77 41.6812 10.63 41.9212 10.63 42.2712L10.49 46.3713C10.46 46.7213 10.63 46.8613 10.95 46.8613H13.47C13.78 46.8613 13.96 47.0412 13.93 47.3512L13.83 49.9413L13.84 49.9612ZM31.97 57.8713C31.97 58.2213 31.79 58.3912 31.44 58.3912L29.69 58.4313C29.38 58.4313 29.2 58.5713 29.2 58.9213L28.99 63.7513C28.96 64.0613 28.78 64.2413 28.47 64.2413L23.78 64.2812C23.64 64.2812 23.5 64.2112 23.43 64.1412C23.33 64.0412 23.29 63.9312 23.29 63.7912L23.5 59.0312C23.5 58.8912 23.4301 58.7813 23.3601 58.6813C23.2501 58.5813 23.15 58.5013 23.01 58.5013L16.95 58.6412C16.81 58.6412 16.7 58.6113 16.6 58.5013C16.5 58.4013 16.46 58.2912 16.46 58.1512L16.53 55.9812C16.53 55.6312 16.67 55.4913 17.02 55.4913L23.15 55.3912C23.47 55.3912 23.64 55.2213 23.68 54.8713L24.27 39.0812C24.31 38.7312 24.48 38.5613 24.8 38.5613L29.53 38.5912C29.84 38.5912 30.0201 38.7712 29.98 39.0812L29.39 54.7612C29.39 54.9012 29.43 55.0113 29.53 55.1113C29.6 55.1813 29.7 55.2513 29.84 55.2513L31.49 55.2112C31.63 55.2112 31.77 55.2512 31.88 55.3512C31.95 55.4512 32.02 55.5612 32.02 55.7012L31.99 57.8713H31.97ZM20.31 53.0812C20.1 53.3612 19.85 53.3912 19.57 53.1512L16.84 50.9112C16.59 50.7012 16.56 50.4512 16.77 50.2112L18.35 48.2812C18.56 48.0012 18.81 48.0012 19.05 48.2112L21.82 50.4512C22.1 50.6612 22.1 50.9113 21.89 51.1913L20.31 53.0812ZM21.22 46.2513C21.01 46.5013 20.8 46.5312 20.55 46.3212L18.03 44.3212C17.78 44.1112 17.75 43.9013 17.99 43.6213L19.53 41.6913C19.74 41.4513 19.99 41.4113 20.23 41.6213L22.72 43.6512C22.97 43.8612 23 44.0712 22.79 44.3212L21.21 46.2513H21.22Z" fill="#58778D"/>
<path d="M64.1304 45.5097C64.0904 45.8597 63.8804 45.9998 63.5704 45.9998H59.5405C59.1905 45.9998 59.0504 45.8297 59.0804 45.4797L59.3304 43.3397C59.3604 43.0297 59.2304 42.8497 58.8704 42.8497H43.2205C42.9005 42.8497 42.7304 43.0297 42.6904 43.3397L42.4105 45.7197C42.3405 46.0297 42.1605 46.2097 41.8505 46.2097H37.6505C37.3405 46.2097 37.1904 46.0397 37.1904 45.7197L37.7205 40.1497C37.7505 39.8397 37.9305 39.6597 38.2805 39.6597H64.2905C64.6405 39.6597 64.7804 39.8297 64.7104 40.1497L64.1105 45.5097H64.1304ZM60.3904 59.0997C60.3904 59.4497 60.2205 59.6198 59.9005 59.6198H54.4705C54.1605 59.6198 53.9505 59.7597 53.9105 60.0797C53.7705 61.0597 53.4504 62.6697 52.9304 64.8397C52.8604 65.1497 52.6504 65.3297 52.3304 65.3297L47.5305 65.3597C47.3905 65.3597 47.2805 65.2898 47.2205 65.1898C47.1805 65.0898 47.1504 64.9798 47.1804 64.8798C47.7104 63.1998 48.0905 61.5897 48.3405 60.0797C48.3805 59.7697 48.2405 59.6198 47.9205 59.6198H41.2704C40.9204 59.6198 40.7804 59.4497 40.8104 59.0997L40.9504 56.9298C40.9504 56.5798 41.1204 56.4398 41.4404 56.4398H48.1304C48.4804 56.4398 48.6205 56.2597 48.5905 55.9197C48.4905 55.2497 48.3404 54.5897 48.1304 53.9197C48.0304 53.5697 48.0904 53.2897 48.3004 53.0397C49.1104 52.1597 49.9804 51.1497 51.0004 49.9197C51.0704 49.8497 51.0705 49.7497 51.0405 49.6697C51.0005 49.5997 50.9005 49.5697 50.7905 49.5697H44.3505C44.0305 49.5697 43.8604 49.3998 43.8904 49.0498L43.9904 46.6298C43.9904 46.2798 44.1605 46.1097 44.4805 46.1097H57.3304C57.6404 46.1097 57.8205 46.2898 57.7905 46.6298L57.6505 48.1397C57.6505 48.4897 57.5504 48.8098 57.3704 49.0498C56.9504 49.6098 55.8305 51.0097 53.9705 53.3197C53.7205 53.5997 53.6504 53.8797 53.7604 54.1997C53.9004 54.7197 54.0105 55.2797 54.1505 55.9197C54.1905 56.2697 54.3605 56.4398 54.6705 56.4398H60.1005C60.4105 56.4398 60.5604 56.5798 60.5204 56.9298L60.3804 59.0997H60.3904ZM45.0604 37.6697C45.0604 38.0197 44.8905 38.1597 44.5405 38.1597L41.7004 38.1997C41.3904 38.1997 41.2404 38.0597 41.2404 37.7097V34.7998C41.2404 34.4898 41.3805 34.3098 41.7305 34.3098L44.5704 34.2797C44.8804 34.2797 45.0604 34.4497 45.0604 34.7697V37.6798V37.6697ZM53.1804 37.7097C53.1804 38.0197 53.0004 38.1697 52.6904 38.1697L49.8605 38.1298C49.5105 38.1298 49.3304 37.9897 49.3704 37.6397L49.5104 34.5598C49.5404 34.2098 49.6805 34.0397 50.0305 34.0397L52.8704 34.1097C53.1804 34.1097 53.3604 34.2897 53.3304 34.5997L53.1904 37.7197L53.1804 37.7097ZM60.7704 38.5097C60.6304 38.8197 60.3805 38.9297 60.1005 38.7897L57.4404 37.6397C57.1604 37.4997 57.0905 37.2897 57.2305 36.9697L58.5905 34.1697C58.7305 33.8897 58.9405 33.7797 59.2205 33.8897L61.8405 35.0797C62.1605 35.1797 62.2305 35.4297 62.0905 35.7097L60.7604 38.5097H60.7704Z" fill="#58778D"/>
<path d="M99.1004 42.8918C99.0704 43.2418 98.8504 43.4119 98.5104 43.4119L94.4104 43.3819C94.1004 43.3819 93.9504 43.2018 93.9904 42.8918L94.2404 40.9619C94.3104 40.6119 94.1404 40.4719 93.8204 40.4719H77.8204C77.5104 40.4719 77.3304 40.6119 77.3004 40.9619L77.0904 42.9919C77.0504 43.3019 76.8804 43.4819 76.5304 43.4819H72.6104C72.3004 43.4819 72.1504 43.3019 72.1504 42.9919L72.7104 37.5619C72.7504 37.2519 72.9204 37.0718 73.2704 37.0718H82.4404C82.7504 37.0718 82.9304 36.8918 82.9604 36.5818L83.2104 34.1319C83.2104 33.8219 83.4204 33.6719 83.7404 33.6719H89.1304C89.4504 33.6719 89.5904 33.8119 89.5504 34.1619L89.3404 36.5818C89.3004 36.8918 89.4404 37.0718 89.7604 37.0718H99.3904C99.7004 37.0718 99.8504 37.2419 99.7704 37.5619L99.1004 42.8819V42.8918ZM95.6704 56.4719C95.6704 56.8219 95.4904 56.9919 95.1804 56.9919L89.3304 56.9518C89.2204 56.9518 89.1504 56.9919 89.1204 57.0919C89.0504 57.1919 89.0904 57.2619 89.1604 57.3419C89.6204 57.9419 91.0104 59.3419 93.3604 61.4719C93.6004 61.7219 93.6004 61.9618 93.3904 62.2018L90.4104 65.4219C90.1604 65.6619 89.9504 65.6618 89.6704 65.4518C88.8704 64.6818 87.5704 63.3519 85.8204 61.4919C85.6104 61.2419 85.4304 61.2418 85.2204 61.5219C84.5904 62.5718 83.5704 63.9419 82.1704 65.6519C82.0004 65.9019 81.7504 65.9019 81.5004 65.7219L77.9304 62.8519C77.6804 62.6419 77.6804 62.4019 77.8904 62.1219C79.4004 60.3019 80.5504 58.7219 81.2904 57.3619C81.3304 57.2919 81.3304 57.1918 81.2904 57.0818C81.2204 56.9818 81.1504 56.9419 81.0404 56.9419H75.7904C75.4804 56.9419 75.3004 56.7718 75.3004 56.4518L75.3704 54.4518C75.4104 54.1018 75.5804 53.9619 75.8904 53.9619H81.8804C82.1904 53.9619 82.4004 53.7819 82.4004 53.4719L82.4404 52.7719C82.4704 52.4619 82.3004 52.2819 81.9804 52.2819H78.3404C77.9904 52.2819 77.8504 52.1019 77.8504 51.7919L77.9904 49.7919C78.0304 49.4819 78.2004 49.3019 78.5204 49.3019H82.1604C82.5104 49.3019 82.6904 49.1319 82.7204 48.8119L82.7604 48.1819C82.8004 47.8319 82.6604 47.6619 82.3004 47.6619H77.8504C77.5304 47.6619 77.3604 47.4919 77.3904 47.1719L77.4904 45.2119C77.4904 44.8619 77.6604 44.6919 77.9804 44.6919H82.5004C82.8104 44.6919 82.9904 44.5118 83.0204 44.2018L83.1204 42.6219C83.1204 42.3119 83.3304 42.1619 83.6504 42.1619H88.5504C88.8604 42.1619 89.0104 42.3019 89.0104 42.6219L88.9404 44.2018C88.9004 44.5118 89.0404 44.6919 89.4004 44.6919H93.8504C94.2004 44.6919 94.3704 44.8619 94.3404 45.2119L94.2404 47.1719C94.2404 47.4919 94.0704 47.6619 93.7504 47.6619H89.2004C88.8904 47.6619 88.7104 47.8419 88.6804 48.1819L88.6104 48.8119C88.5704 49.1219 88.7504 49.3019 89.1004 49.3019H93.0204C93.3404 49.3019 93.4804 49.4819 93.4804 49.7919L93.3404 51.7919C93.3004 52.1019 93.1304 52.2819 92.8104 52.2819H88.8904C88.5404 52.2819 88.3704 52.4519 88.3304 52.7719L88.3004 53.4719C88.3004 53.7819 88.4404 53.9619 88.7504 53.9619H95.2604C95.5804 53.9619 95.7504 54.1018 95.7204 54.4518L95.6504 56.4518L95.6704 56.4719Z" fill="#58778D"/>
<path d="M105.64 62.7703C105.57 63.0903 105.4 63.1903 105.08 63.1203L103.96 62.8703C103.61 62.8403 103.5 62.6303 103.58 62.3103L104.07 59.8603C104.14 59.5103 104.351 59.4003 104.671 59.4803L105.791 59.7303C106.101 59.8003 106.25 59.9703 106.18 60.2903L105.65 62.7703H105.64ZM119.19 63.7903C119.16 64.1003 118.95 64.2803 118.63 64.2803L115.09 64.2403C114.74 64.2403 114.6 64.0703 114.63 63.7503C114.73 63.1903 114.94 61.3303 115.33 58.2203C115.37 57.9103 115.23 57.7303 114.84 57.7303H105.84C105.53 57.7303 105.39 57.5603 105.39 57.2403L105.88 38.0203C105.88 37.6703 106.06 37.5303 106.37 37.5303H119.46C119.81 37.5303 119.95 37.6703 119.95 38.0203L119.85 40.1903C119.81 40.5003 119.64 40.6803 119.32 40.6803H116.97C116.66 40.6803 116.48 40.8503 116.45 41.1703L116.38 42.6803C116.35 43.0303 116.52 43.2003 116.87 43.2003H118.52C118.84 43.2003 119.011 43.3803 118.981 43.6903L118.88 45.7503C118.88 46.0603 118.71 46.2403 118.39 46.2403H116.78C116.39 46.2403 116.22 46.4103 116.22 46.7603L116.18 48.4103C116.18 48.7603 116.361 48.9403 116.671 48.9403H118.28C118.63 48.9403 118.77 49.1103 118.74 49.4303L118.671 51.6003C118.631 51.9503 118.46 52.1203 118.15 52.1203H116.541C116.191 52.1203 116.02 52.2603 116.02 52.6103L115.981 54.0803C115.981 54.3903 116.16 54.5703 116.44 54.5703H119.63C119.94 54.5703 120.09 54.7403 120.09 55.0903C119.95 57.4003 119.63 60.3103 119.21 63.7703L119.19 63.7903ZM108.93 62.3503C108.93 62.7003 108.76 62.8403 108.44 62.8403L107.25 62.7703C106.94 62.7403 106.761 62.5603 106.791 62.2503L106.89 60.1103C106.89 59.8003 107.07 59.6503 107.38 59.6503L108.5 59.6903C108.85 59.6903 108.99 59.8603 108.99 60.1803L108.921 62.3503H108.93ZM111.63 61.9003C111.63 62.2503 111.491 62.4303 111.171 62.4303H109.981C109.661 62.4303 109.52 62.2503 109.52 61.9003V59.9403C109.52 59.6203 109.69 59.4803 110.01 59.4803H111.171C111.481 59.4803 111.66 59.6503 111.66 59.9703L111.62 61.9003H111.63ZM111.171 52.1303H110.361C110.011 52.1303 109.87 52.2703 109.87 52.6203L109.83 54.0903C109.83 54.4003 109.971 54.5803 110.291 54.5803H111.06C111.41 54.5803 111.58 54.4003 111.58 54.0903L111.62 52.6203C111.62 52.2703 111.48 52.1303 111.16 52.1303H111.171ZM111.35 46.2503H110.55C110.2 46.2503 110.02 46.4203 110.02 46.7703L109.99 48.4203C109.99 48.7703 110.161 48.9503 110.481 48.9503H111.32C111.63 48.9503 111.81 48.7703 111.81 48.4203L111.85 46.7703C111.85 46.4203 111.711 46.2503 111.361 46.2503H111.35ZM111.59 40.6803H110.71C110.36 40.6803 110.19 40.8503 110.19 41.1703L110.15 42.6803C110.15 43.0303 110.32 43.2003 110.64 43.2003H111.481C111.831 43.2003 111.97 43.0303 112.01 42.6803L112.08 41.1703C112.12 40.8603 111.94 40.6803 111.59 40.6803ZM114.43 61.7603C114.43 62.0803 114.29 62.2503 113.94 62.2503H112.82C112.47 62.2503 112.3 62.0803 112.3 61.7303L112.34 59.6303C112.34 59.3203 112.48 59.1403 112.83 59.1403H113.99C114.3 59.1403 114.45 59.3103 114.45 59.6603V61.7603H114.43ZM136.231 45.6903C136.061 45.9703 135.85 46.0003 135.56 45.8303C133.5 44.4603 131.08 42.8203 128.31 40.8603C128.06 40.6503 127.85 40.6503 127.57 40.9003C125.99 42.3403 124.14 43.9403 122 45.6603C121.75 45.8703 121.54 45.8403 121.33 45.5603L119.3 43.0403C119.09 42.7603 119.13 42.5103 119.37 42.3403C123.26 39.0503 126.23 36.2803 128.26 34.0103C128.47 33.7603 128.75 33.7303 129 33.9403L131.59 35.9403C131.84 36.1103 131.84 36.3603 131.66 36.6403C131.59 36.7403 131.45 36.8903 131.27 37.1003C131.03 37.3503 131.06 37.5903 131.34 37.8003C132.32 38.5703 134.49 40.0403 137.85 42.2103C138.13 42.3903 138.16 42.6003 137.99 42.8803L136.2 45.7203L136.231 45.6903ZM135.32 57.0703C135.32 57.4203 135.15 57.5603 134.8 57.5603H130.421C130.321 57.5603 130.25 57.6303 130.25 57.7303C130.21 57.8303 130.25 57.9403 130.32 58.0503C131.09 59.0703 132.391 60.3603 134.171 61.9003C134.421 62.1503 134.45 62.3903 134.24 62.6403L132.03 65.3003C131.82 65.5803 131.57 65.5803 131.33 65.3703C130.52 64.6703 129.651 63.7903 128.671 62.7503C128.421 62.4703 128.25 62.5003 128.07 62.8203C127.65 63.5203 127.05 64.4003 126.28 65.4503C126.07 65.7303 125.861 65.7603 125.611 65.5903L122.56 63.3503C122.31 63.1803 122.28 62.9303 122.46 62.6803C123.58 61.0303 124.531 59.4903 125.231 58.0603C125.411 57.7403 125.301 57.5703 124.921 57.5703H121.7C121.39 57.5703 121.24 57.4303 121.24 57.0803L121.41 50.2503C121.41 49.9003 121.55 49.7603 121.9 49.7603H125.65C125.96 49.7603 126.171 49.5803 126.171 49.2703L126.21 48.3203C126.24 48.0103 126.07 47.8703 125.75 47.8703H123.44C123.09 47.8703 122.951 47.6903 122.981 47.3403L123.02 45.3103C123.02 44.9603 123.201 44.8203 123.541 44.8203L133.41 44.8503C133.72 44.8503 133.9 44.9903 133.9 45.3403L133.83 47.3403C133.8 47.6903 133.66 47.8703 133.31 47.8703H131.46C131.15 47.8703 130.97 48.0103 130.93 48.3203L130.861 49.2703C130.821 49.5803 131 49.7603 131.35 49.7603H134.99C135.3 49.7603 135.481 49.9003 135.481 50.2503L135.3 57.0803L135.32 57.0703ZM125.7 52.3403H125.35C125 52.3403 124.83 52.4803 124.83 52.7903L124.791 54.3003C124.791 54.6103 124.97 54.7903 125.28 54.7903H125.63C125.94 54.7903 126.12 54.6103 126.12 54.3003L126.15 52.8303C126.15 52.5203 126.01 52.3403 125.69 52.3403H125.7ZM131.51 52.4103H131.16C130.81 52.4103 130.63 52.5803 130.6 52.9003L130.53 54.3403C130.53 54.6903 130.67 54.8603 131.02 54.8603H131.44C131.79 54.8603 131.93 54.6903 131.93 54.3403L131.96 52.9003C131.96 52.5903 131.82 52.4103 131.5 52.4103H131.51Z" fill="#58778D"/>
<path d="M169.31 42.1896C169.24 42.4996 169.07 42.6796 168.75 42.6796L164.72 42.6395C164.37 42.6395 164.23 42.4996 164.26 42.1796L164.51 40.1796C164.55 39.8296 164.41 39.6595 164.05 39.6595H148.37C148.06 39.6595 147.88 39.8296 147.81 40.1796L147.56 42.2795C147.49 42.5895 147.32 42.7396 147 42.7396H142.87C142.52 42.7396 142.38 42.5995 142.41 42.2795L143.01 36.9896C143.05 36.6396 143.22 36.4996 143.53 36.4996H153.05C153.37 36.4996 153.54 36.3195 153.58 36.0095L153.72 33.9796C153.75 33.6696 153.93 33.5195 154.24 33.5195L159.21 33.5596C159.53 33.5596 159.67 33.6995 159.63 34.0195L159.45 36.0195C159.45 36.3295 159.59 36.5095 159.91 36.5095H169.54C169.85 36.5095 170 36.6496 169.93 36.9996L169.3 42.1796L169.31 42.1896ZM164.55 64.4896C164.51 64.8396 164.34 65.0095 163.99 65.0095H147.29C146.94 65.0095 146.8 64.8396 146.8 64.4896L146.9 62.3195C146.94 62.0095 147.11 61.8295 147.46 61.8295H152.22C152.57 61.8295 152.71 61.6495 152.74 61.3395L152.81 60.3195C152.84 60.0095 152.67 59.8596 152.32 59.8596H148.64C148.29 59.8596 148.15 59.6895 148.15 59.3395L148.25 57.1296C148.29 56.8196 148.46 56.6696 148.81 56.6696H152.52C152.83 56.6696 153.01 56.4895 153.04 56.1395L153.14 54.6395C153.14 54.2895 153.32 54.1196 153.63 54.1196H158.6C158.95 54.1196 159.09 54.2895 159.09 54.6395L158.99 56.1395C158.96 56.4895 159.13 56.6696 159.45 56.6696H163.41C163.76 56.6696 163.9 56.8096 163.87 57.1296L163.8 59.3395C163.76 59.6895 163.59 59.8596 163.27 59.8596H159.28C158.97 59.8596 158.79 59.9995 158.75 60.3195L158.68 61.3395C158.64 61.6495 158.82 61.8295 159.17 61.8295H164.14C164.49 61.8295 164.67 61.9995 164.63 62.3195L164.53 64.4896H164.55ZM164.51 45.6196C164.48 45.9296 164.34 46.1096 163.99 46.1096H156.22C155.91 46.1096 155.7 46.2896 155.63 46.6296C155.59 46.8396 155.45 47.4695 155.24 48.5195C155.17 48.8695 155.31 49.0396 155.63 49.0396H159.59C159.94 49.0396 160.08 48.8596 160.12 48.4796L160.15 47.7795C160.19 47.4295 160.33 47.2595 160.64 47.2595L163.58 47.2896C163.89 47.2896 164.04 47.4695 164.04 47.7795C164.04 48.3795 164 50.0195 163.94 52.6495C163.94 52.9995 163.8 53.1696 163.45 53.1696L160.58 53.1296C160.26 53.1296 160.12 52.9895 160.09 52.6395C160.05 52.3295 159.95 52.1796 159.74 52.1796H148.82C148.47 52.1796 148.33 51.9996 148.36 51.6896L148.46 49.5195C148.49 49.2095 148.67 49.0295 148.98 49.0295H149.5C149.81 49.0295 150.03 48.8496 150.1 48.5396L150.49 46.6096C150.56 46.2596 150.42 46.0895 150.1 46.0895H148.31C148.03 46.0895 147.85 45.9195 147.85 45.5995L147.92 43.6395C147.96 43.2895 148.13 43.1196 148.48 43.1196H164.13C164.48 43.1196 164.65 43.2895 164.62 43.6395L164.52 45.5995L164.51 45.6196Z" fill="#58778D"/>
<path d="M193.42 62.7413C193.42 63.0513 193.24 63.2012 192.93 63.2012H188.2C187.85 63.2012 187.71 63.0613 187.74 62.7413L188.16 58.5413C188.16 58.2313 188.37 58.0812 188.69 58.0812H193C193.32 58.0812 193.49 58.2213 193.46 58.5413L193.43 62.7413H193.42ZM193.46 55.1813C193.46 55.5313 193.25 55.6713 192.94 55.6713H188.95C188.63 55.6713 188.49 55.5313 188.49 55.1813L189.05 36.5212C189.05 36.1712 189.22 36.0312 189.57 36.0312H194.47C194.78 36.0312 194.93 36.1712 194.89 36.5212L193.45 55.1813H193.46Z" fill="#58778D"/>
</svg>
