<?xml version="1.0" encoding="UTF-8" standalone="no"?>
<!-- Created with Inkscape (http://www.inkscape.org/) -->

<svg
   width="44.296539mm"
   height="7.5908957mm"
   viewBox="0 0 44.296539 7.5908957"
   version="1.1"
   id="svg13221"
   xmlns="http://www.w3.org/2000/svg"
   xmlns:svg="http://www.w3.org/2000/svg">
  <defs
     id="defs13218" />
  <g
     id="layer1"
     transform="translate(-6.2565962,-5.0235827)">
    <g
       id="g2322"
       transform="matrix(0.26458333,0,0,0.26458333,-225.43638,-309.83058)"
       style="fill:#008080">
      <path
         class="cls-39"
         d="m 898.07,1203.12 c -0.19,-0.03 -0.84,-0.13 -1.93,-0.29 h -2.8 c -0.58,5.82 -2.67,11.1 -6.18,15.86 l -3.31,-5.18 c 0.39,-0.13 1.06,-0.42 1.99,-0.87 1.67,-2.77 2.77,-6.01 3.31,-9.81 -1.51,0 -2.99,0 -4.54,0.03 l -0.03,6.88 -4.7,-1.48 0.64,-1.64 v -3.67 c -0.58,0 -1.58,0.03 -3.02,0.1 -0.23,0 -0.74,0.1 -1.58,0.29 l -0.23,-5.66 c 0.23,0.03 0.84,0.1 1.8,0.16 l 3.06,-0.03 v -3.54 l -0.13,-1.19 4.37,0.06 -0.16,1.25 -0.03,3.35 4.99,-0.03 c 0.13,-1.99 0.13,-3.31 0.06,-3.96 l -0.13,-1.29 4.28,0.06 c -0.03,0.29 -0.1,0.71 -0.16,1.22 0,0.9 0,2.19 -0.03,3.96 h 2.73 c 0.19,0 0.87,-0.1 2.03,-0.23 l -0.32,5.63 z"
         id="path2310"
         style="fill:#008080" />
      <path
         class="cls-39"
         d="m 926.6,1206.44 c -0.39,-0.06 -0.93,-0.13 -1.64,-0.23 -6.43,-0.13 -12.42,-0.1 -17.88,0.1 -0.32,0.03 -0.8,0.1 -1.42,0.26 l -0.16,-5.31 c 0.45,0.06 0.9,0.13 1.42,0.19 5.98,-0.13 12.03,-0.13 18.17,-0.06 0.39,0 1,-0.06 1.83,-0.13 z"
         id="path2312"
         style="fill:#008080" />
      <path
         class="cls-39"
         d="m 951.84,1216.57 c -0.51,-0.06 -1.25,-0.13 -2.22,-0.19 -1.45,-0.03 -5.4,-0.1 -11.9,-0.23 l -0.84,-3.12 -0.23,-19.11 4.54,0.06 -0.16,1.38 v 3.57 c 3.02,-0.68 5.82,-1.32 8.4,-1.99 0.13,-0.03 0.58,-0.23 1.38,-0.55 l 1.25,5.37 c -0.29,0.03 -0.68,0.1 -1.22,0.16 -2.03,0.55 -5.31,1.38 -9.78,2.48 l 0.03,6.4 c 3.8,0 6.56,-0.03 8.36,-0.1 0.51,-0.29 1.42,-0.8 2.67,-1.48 l -0.29,7.33 z m 1.84,-17.72 c -0.77,-1.13 -1.51,-2.35 -2.22,-3.63 l 1.93,-1.29 c 0.48,0.71 1.25,1.67 2.32,2.86 z m 3.12,-1.84 c -0.77,-1.13 -1.51,-2.32 -2.19,-3.57 l 1.93,-1.32 c 0.45,0.71 1.22,1.64 2.32,2.86 z"
         id="path2314"
         style="fill:#008080" />
      <path
         class="cls-39"
         d="m 981.34,1216.86 c -1.35,-1.7 -3.6,-4.15 -6.72,-7.3 -2.28,3.22 -4.86,5.92 -7.72,8.14 l -2.32,-5.92 c 0.35,-0.06 1.03,-0.19 2.06,-0.45 2.54,-2.32 4.6,-4.63 6.14,-6.88 1,-1.48 1.96,-3.25 2.86,-5.37 -2.7,0.03 -5.34,0.1 -7.88,0.16 l -1.45,0.32 -0.19,-6.01 1.61,0.13 12.8,-0.13 -0.1,3.99 c -0.58,2.48 -1.7,5.18 -3.35,8.14 1.29,1.06 3.09,2.57 5.44,4.47 0.13,0.06 0.77,0.39 1.96,1 l -3.15,5.73 z"
         id="path2316"
         style="fill:#008080" />
      <path
         class="cls-39"
         d="m 1013.79,1197.56 -0.1,20.26 -6.27,-3.86 c 0.55,-0.23 1.45,-0.55 2.67,-1 l 0.1,-12.38 -5.5,-0.03 c -0.1,0.55 -0.19,1.09 -0.32,1.64 l 3.76,3.57 c 0.1,0.1 0.61,0.39 1.54,0.9 l -2.51,3.96 c -0.32,-0.45 -1.67,-2.03 -4.02,-4.66 -0.8,1.74 -1.83,3.41 -3.15,4.99 l -2.6,-4.18 c 0.39,-0.16 0.84,-0.42 1.35,-0.77 1.19,-1.74 1.93,-3.54 2.32,-5.44 l -3.89,0.06 c -0.03,3.44 -0.16,6.18 -0.35,8.23 -0.29,2.64 -0.77,5.53 -1.51,8.72 l -4.28,-3.54 c 0.42,-0.32 0.84,-0.77 1.29,-1.32 0.61,-2.99 1,-7.24 1.16,-12.71 0.03,-1.25 0.03,-2.12 0,-2.54 l -0.13,-1.45 8.07,-0.1 c 0.06,-1.19 0.06,-2.22 0.03,-3.12 0,-0.42 -0.03,-0.87 -0.13,-1.38 l 3.89,0.1 c 0,-0.39 -0.03,0.06 -0.13,1.32 -0.03,0.32 -0.03,1.35 -0.03,3.09 h 8.88 c -0.1,0.51 -0.13,1.06 -0.13,1.64 z"
         id="path2318"
         style="fill:#008080" />
      <path
         class="cls-39"
         d="m 1042.22,1200.97 -4.25,-2.9 1.32,-0.42 0.16,-1.32 c -1.96,-0.06 -3.92,-0.06 -5.79,-0.06 -3.38,0 -6.53,0.06 -9.49,0.16 l -0.1,3.09 -3.67,-0.93 0.45,-1.19 0.29,-4.89 c 2.77,-0.06 5.82,-0.1 9.17,-0.13 l 0.06,-1.48 -0.03,-0.9 3.7,0.1 -0.19,0.84 -0.1,1.45 9.36,-0.03 -0.9,8.62 z m -1.23,11.68 c -0.13,-0.13 -0.58,-0.51 -1.38,-1.16 -0.03,-0.03 -0.96,-0.68 -2.77,-1.9 l -0.48,8.69 -8.46,0.06 -0.51,-8.68 c -1.61,1.58 -3.06,2.86 -4.31,3.83 l -1.8,-4.76 c 0.58,-0.06 1.13,-0.19 1.71,-0.39 1.06,-0.68 2.48,-1.83 4.21,-3.51 1.87,-1.77 3.18,-3.25 3.96,-4.41 l 2.51,1.58 c -0.1,0.19 -0.29,0.45 -0.51,0.8 1.61,0.93 4.25,2.44 7.91,4.54 0.1,0.06 0.64,0.23 1.71,0.51 l -1.77,4.79 z m -11.8,-12.52 c -1,1.32 -2.38,2.77 -4.15,4.31 l -1.77,-3.7 c 0.35,-0.1 0.77,-0.26 1.19,-0.42 0.48,-0.35 1.32,-1.13 2.44,-2.32 0.06,-0.06 0.16,-0.23 0.35,-0.42 l 2.44,1.93 c -0.16,0.16 -0.32,0.35 -0.51,0.61 z m 1.99,5.5 c -0.42,0.51 -1.29,1.48 -2.61,2.86 1.99,-0.03 4.25,-0.03 6.72,-0.03 -1.93,-1.29 -3.31,-2.25 -4.12,-2.83 z m -0.51,6.79 0.06,2.32 h 2.86 l 0.1,-2.35 c -1.25,-0.03 -2.25,-0.03 -3.02,0.03 z m 7.52,-8.46 c -1,-0.84 -2.51,-2.03 -4.5,-3.6 l 1.9,-2.51 c 0.19,0.19 0.35,0.32 0.48,0.39 0.58,0.39 1.48,0.93 2.73,1.71 0.13,0.06 0.48,0.23 1.09,0.42 l -1.71,3.6 z"
         id="path2320"
         style="fill:#008080" />
    </g>
  </g>
</svg>
