<svg width="230" height="31" viewBox="0 0 230 31" fill="none" xmlns="http://www.w3.org/2000/svg">
<path d="M12.5299 13.5299C12.1499 13.4599 11.79 13.39 11.51 13.39H9.27002V14.37C9.83002 14.68 10.5 14.9999 11.27 15.3199L12.6699 15.74L11.45 20.5C10.85 20.04 10.08 19.4799 9.14001 18.8199L9.02991 29.1499L4.23999 25.72C4.51999 25.37 4.90999 24.91 5.35999 24.39C5.39999 23.41 5.45991 21.87 5.52991 19.84C4.57991 21.07 3.46 22.3299 2.13 23.6599L0 18.86C0.17 18.79 0.629917 18.6499 1.28992 18.4399C2.51992 17.3899 3.95001 15.74 5.63 13.47V13.4399C4.54 13.4399 3.39 13.47 2.13 13.51L1.32996 13.6899L1.12 8.85999L1.95996 8.92993C2.06996 8.92993 3.24998 8.92999 5.59998 8.85999C5.59998 7.97999 5.55994 7.06997 5.55994 6.08997C4.92994 6.29997 3.80991 6.64999 2.15991 7.10999L1.59998 2.44995H3C3.21 2.44995 4.22996 2.16999 6.07996 1.60999C8.13996 1.01999 9.74998 0.49 10.98 0L12.2 3.56995C11.99 3.66995 10.9799 4.05998 9.18994 4.72998C9.18994 5.66998 9.23001 7.03996 9.26001 8.82996H11.4C11.78 8.82996 12.2799 8.83001 12.7999 8.76001L12.52 13.5599L12.5299 13.5299ZM13.09 24L12.99 19.52L13.73 19.59L14.46 19.5499C14.95 15.3499 15.34 11.53 15.62 8.14001L15.58 7.02002L19.99 7.37L19.74 8.55994C19.46 12.3799 19.07 16.02 18.65 19.48L22.5699 19.4099C22.4599 18.2899 22.2899 16.15 22.0399 13L21.87 12.2L25.9 11.8099V12.7899C25.9 13.1399 26.07 15.3099 26.46 19.2999L27.47 19.23L27.5399 23.61L13.08 23.99L13.09 24Z" fill="#58778D"/>
<path d="M57.5399 10.6296C56.9099 10.4896 56.25 10.3496 55.51 10.2096C52.11 10.1796 48.5799 10.2095 44.9399 10.2795L43.47 28.9396L38.1799 25.8896L39.51 23.8896L40.63 10.4496L38.6 10.5197C38.42 10.5497 37.9 10.6595 37.02 10.8995L36.8099 4.69958C37.6499 4.79958 38.18 4.8396 38.46 4.8396C38.36 4.8396 39.2699 4.80965 41.1599 4.76965L41.37 2.27954V0.80957L45.9199 1.15955L45.5699 2.55957L45.4 4.65955C47.64 4.61955 51.18 4.5896 56.01 4.5896C56.08 4.5896 56.75 4.55956 57.97 4.41956L57.5499 10.6196L57.5399 10.6296ZM58.4099 27.2496C54.6999 27.2496 51.06 26.8696 47.52 26.0996L48.4 21.1595C51.31 21.7895 54.28 22.0696 57.36 21.9996C57.57 21.9996 57.99 21.9296 58.62 21.7496L58.4099 27.2496ZM57.85 16.0896L57.15 20.8196L53.65 19.9396L54.0699 17.8696C52.6699 17.8296 50.92 17.8696 48.89 17.9696C48.61 18.0396 48.26 18.1496 47.73 18.2496L47.5599 12.9996C47.9099 12.9996 48.29 13.0396 48.75 13.0696C51.1 13.0296 54.18 12.9996 57.96 12.9696L57.86 16.0896H57.85Z" fill="#58778D"/>
<path d="M90.65 10.4496C90.06 10.2796 89.49 10.1696 88.9 10.1396C87.19 10.0696 84.9799 10.0396 82.2799 10.0696L82.1699 13.1096C86.6499 13.4296 88.8199 15.7396 88.6799 20.0796C88.5399 22.9496 86.47 26.4496 82.38 30.5096L79.26 24.3496C79.72 24.2496 80.42 24.0996 81.33 23.8896C82.98 22.4896 83.7799 21.2296 83.7799 20.1396C83.7799 18.6296 82.7 17.8596 80.52 17.8596C80.42 17.8596 79.51 17.9596 77.76 18.2096L78.11 10.1595L74.71 10.2996C74.15 10.3996 73.6299 10.5095 73.1699 10.6495L72.96 4.55957C73.38 4.58957 73.94 4.65961 74.71 4.72961L78.3199 4.65955L78.46 1.67957L78.35 0.389648L82.83 0.55957L82.58 2.02954L82.48 4.54956C83.56 4.54956 85.88 4.54964 89.45 4.50964C89.91 4.46964 90.39 4.4096 90.99 4.3396L90.64 10.4296L90.65 10.4496Z" fill="#58778D"/>
<path d="M106.64 26.5497C106.53 25.7797 106.36 24.6997 106.15 23.3297C105.98 22.0997 105.87 19.9297 105.87 16.9197C105.87 15.7297 105.98 11.8397 106.19 5.29968L106.09 3.96973L110.6 4.0697L110.35 5.64966C110.28 9.49966 110.25 12.7198 110.25 15.3798C110.25 17.6198 110.29 19.4097 110.32 20.8097L112.81 20.2797L113.05 25.6398C112.38 25.7798 110.25 26.0997 106.64 26.5497ZM126.25 23.5098C124.95 23.6098 123.83 23.6497 122.85 23.6497C120.33 23.6497 117.95 23.4097 115.74 22.9197C115.43 22.8497 115.04 22.7497 114.59 22.6697L115.5 17.3497C115.75 17.4197 116.2 17.5597 116.83 17.7297C118.68 18.1497 120.79 18.3597 123.13 18.3597C124.11 18.3597 125.2 18.3197 126.32 18.2197C126.39 18.2197 126.81 18.1197 127.61 17.9397L127.72 23.4397C127.37 23.4397 126.92 23.4798 126.25 23.5098ZM127.37 11.6797L126.07 16.4397L122.08 14.7897L122.82 13.1097C121.14 13.0797 119.04 13.1097 116.55 13.1797C116.27 13.2497 115.78 13.3197 115.08 13.4597L114.98 7.88977C115.68 7.95977 116.14 7.98975 116.31 7.98975C122.05 7.91975 125.76 7.91971 127.51 7.94971L127.37 11.6597V11.6797Z" fill="#58778D"/>
<path d="M159.28 20.6404C157.28 23.3004 154.28 25.5403 150.32 27.2903L148.74 20.6703C149.2 20.6303 149.97 20.5703 151.05 20.4603C155.08 18.3603 157.04 16.2203 157 14.0903C156.96 12.2703 155.71 11.4304 153.25 11.5004C152.45 11.5004 151.64 11.5703 150.73 11.7103C148.63 12.0203 145.62 12.6603 141.73 13.5603C141.24 13.7703 140.65 14.0203 139.98 14.3303L139.14 7.82031C139.7 7.82031 140.37 7.82027 141.14 7.78027C147.16 6.62027 151.29 6.03027 153.43 6.03027C155.78 6.03027 157.74 6.66037 159.31 7.88037C161.06 9.25037 161.9 11.0703 161.9 13.3103C161.87 15.9003 160.99 18.3204 159.28 20.6304V20.6404Z" fill="#58778D"/>
<path d="M183.26 23.2998C182.56 23.5098 179.86 23.9698 175.17 24.6998L174.44 20.9198L174.37 7.08984L178.99 7.12988L178.82 8.45984C178.75 11.1198 178.75 13.3999 178.75 15.2499C178.75 16.6499 178.75 17.8098 178.79 18.7198C180.3 18.4398 181.84 18.1298 183.41 17.7098L183.27 23.3098L183.26 23.2998ZM192.32 22.1798C192 21.1998 191.69 20.3198 191.37 19.5498C190.67 17.8698 189.24 14.7199 187.03 10.1299L191.16 7.98987C191.96 9.38987 193.5 12.0899 195.78 16.0099C196.06 16.3899 196.55 17.0298 197.25 17.8298L192.31 22.1698L192.32 22.1798Z" fill="#58778D"/>
<path d="M229.53 10.7704C229.15 10.6704 228.48 10.5303 227.6 10.3203L224.1 10.2504C221.48 14.0704 220.11 16.7603 219.97 18.3003C219.87 19.6303 220.78 20.7503 222.77 21.7303C223.3 21.9703 224.06 22.1503 225.05 22.2903L222.63 28.5204C220.39 27.2304 218.74 25.9303 217.66 24.5603C216.33 22.8503 215.66 20.8804 215.66 18.6404C215.66 16.7104 216.74 13.9503 218.91 10.3103C218.28 10.3403 215.62 10.4803 210.93 10.7303C210.58 10.8303 209.98 11.0103 209.14 11.1903L208.93 4.50037L210.85 4.71033C219.67 4.53033 225.41 4.46033 228.11 4.46033C228.22 4.46033 228.53 4.46038 229.06 4.39038C229.59 4.36038 229.86 4.32031 229.94 4.32031L229.52 10.7604L229.53 10.7704Z" fill="#58778D"/>
</svg>

