<?xml version="1.0" encoding="UTF-8" standalone="no"?>
<!-- Created with Inkscape (http://www.inkscape.org/) -->

<svg
   width="37.287727mm"
   height="7.8951664mm"
   viewBox="0 0 37.287727 7.8951664"
   version="1.1"
   id="svg13309"
   xmlns="http://www.w3.org/2000/svg"
   xmlns:svg="http://www.w3.org/2000/svg">
  <defs
     id="defs13306" />
  <g
     id="layer1"
     transform="translate(-5.0442475,-4.917221)">
    <g
       id="g2394"
       transform="matrix(0.26458333,0,0,0.26458333,-322.52579,-310.6619)"
       style="fill:#008080">
      <path
         class="cls-39"
         d="m 1244.99,1203.1 c 0.26,0.8 0.42,1.61 0.45,2.35 0.19,5.41 0.23,10.21 0.06,14.42 l -4.28,-2.25 c 0.19,-0.29 0.45,-0.74 0.77,-1.42 0.22,-0.64 0.35,-2.06 0.42,-4.25 0,-0.45 -0.03,-2.48 -0.1,-6.02 0,-0.42 -0.03,-0.8 -0.13,-1.16 -0.84,0.48 -1.61,0.93 -2.35,1.32 -0.13,0.06 -0.35,0.16 -0.64,0.29 l -1.13,-4.99 c 0.68,-0.03 1.13,-0.06 1.32,-0.1 1.8,-0.61 3.93,-1.61 6.34,-3.06 l 1.38,3.32 c -0.55,0.45 -1.26,0.97 -2.12,1.55 z m 11.4,16.58 c -0.55,0.13 -2.29,0.42 -5.25,0.87 l -0.68,-2.32 c -0.06,-0.58 -0.13,-2.64 -0.22,-6.12 -0.74,0.93 -1.45,1.77 -2.12,2.45 l -2.22,-4.31 c 0.16,-0.03 0.61,-0.16 1.29,-0.39 1.93,-2.03 3.38,-3.99 4.35,-5.89 l 3.03,1.42 c -0.84,1.61 -1.8,3.19 -2.87,4.77 l 1.9,-0.06 c 0.03,1.42 0.1,3.48 0.23,6.08 0.71,-0.1 1.61,-0.26 2.77,-0.52 -0.03,0.84 -0.1,2.19 -0.19,4.02 z m 6.57,-16.55 c -0.51,-0.16 -0.97,-0.26 -1.38,-0.26 -4.99,0 -8.98,0.06 -12.04,0.23 -0.32,0.06 -0.64,0.13 -0.97,0.26 l -0.39,-5.18 c 0.68,0.1 1.03,0.13 1.09,0.13 l 4.57,-0.1 0.06,-3.64 -0.06,-0.8 3.8,0.16 -0.16,0.81 -0.16,3.44 c 0.97,0.03 2.58,0.03 4.8,0 0.23,-0.03 0.61,-0.1 1.16,-0.13 l -0.32,5.09 z m 0.29,15.58 -0.61,-0.87 c -1.13,-1.22 -2.83,-3.19 -5.18,-5.86 -0.32,0.35 -0.61,0.68 -0.93,1 l -1.77,-2.83 c 1.48,-1.74 2.96,-3.77 4.48,-6.02 l 3.09,2.22 c -0.35,0.29 -0.64,0.58 -0.8,0.81 -0.39,0.45 -0.93,1.09 -1.61,1.93 1.06,0.9 2.51,2.09 4.31,3.57 l 1.71,0.74 -2.67,5.31 z"
         id="path2384"
         style="fill:#008080" />
      <path
         class="cls-39"
         d="m 1279.76,1200.75 c -0.61,-0.13 -1.06,-0.19 -1.29,-0.19 h -2.74 v 1.32 c 0.35,0 1.77,0 4.22,0.03 l -0.13,0.74 -0.42,8.37 -3.73,0.03 1.9,1.48 c 0.77,0.58 1.45,0.93 2.09,1.09 l -1.74,4.22 c -0.8,-0.84 -1.58,-1.61 -2.29,-2.32 l 0.03,6.31 -3.93,-2.58 c 0.16,-0.23 0.48,-0.64 0.87,-1.19 0.03,-0.71 0.03,-1.77 0.06,-3.22 -0.61,0.87 -1.87,2.32 -3.77,4.28 l -1.8,-4.6 c 0.55,-0.1 1.03,-0.23 1.42,-0.39 1.16,-1.03 2.16,-2.06 2.99,-3.09 l -2.64,0.03 -0.61,-9.14 4.35,-0.06 v -1.32 c -0.77,0 -1.96,0 -3.51,0.06 -0.19,0.03 -0.51,0.13 -1.06,0.26 l -0.29,-4.57 c 0.58,0.06 0.97,0.13 1.16,0.13 l 3.67,-0.03 v -1.29 c 0,0.13 -0.03,-0.29 -0.13,-1.26 l 3.41,0.06 c -0.1,0.58 -0.13,1 -0.13,1.19 v 1.29 h 2.9 c 0.19,0 0.68,-0.06 1.45,-0.13 l -0.32,4.48 z m -7.11,4.79 -1.22,0.03 0.06,2.22 h 1.19 z m 3.05,0.04 v 2.25 h 1.19 l 0.1,-2.25 z m 17.55,-7.76 c -0.45,-0.16 -0.9,-0.23 -1.32,-0.23 l -2.99,-0.03 -0.06,1.42 c 2,0 3.32,0 3.96,0.03 l -0.1,0.8 -0.26,16.48 -1.13,0.03 1.09,1.26 c 0.32,0.29 0.68,0.52 1.03,0.68 l -2.32,3.51 c -0.87,-1.22 -2.19,-3.03 -3.9,-5.44 h -0.77 c -1,2.45 -2.45,4.54 -4.38,6.25 l -2.09,-3.86 c 0.32,-0.06 0.74,-0.19 1.22,-0.39 0.68,-0.58 1.22,-1.26 1.71,-1.96 h -1.19 l -0.48,-17.32 c 0.87,0 2.22,-0.03 4.09,-0.03 l 0.1,-1.42 c -0.84,0.03 -2.03,0.03 -3.48,0.1 -0.06,0 -0.35,0.1 -0.9,0.29 l -0.32,-4.73 1.22,0.1 c 1.29,0.1 4.7,0.06 10.21,-0.1 0.19,0 0.64,-0.03 1.35,-0.1 l -0.29,4.67 z m -8.43,4.83 v 1.22 h 4.57 v -1.26 c -1.93,0 -3.48,0 -4.57,0.03 z m 0.06,4.38 v 1.26 l 4.41,-0.03 0.03,-1.22 h -4.44 z m 0.06,4.41 v 1.29 h 4.28 v -1.29 z"
         id="path2386"
         style="fill:#008080" />
      <path
         class="cls-39"
         d="m 1312.98,1220.32 -2.83,-5.57 c 0.48,-0.13 1.16,-0.32 1.96,-0.58 1.54,-1.8 2.32,-3.77 2.38,-5.83 0.1,-2.54 -0.97,-4.19 -3.19,-4.89 -0.48,2.58 -1.48,5.25 -3.03,8.02 -1.38,2.45 -2.8,4.28 -4.25,5.51 -3.03,-2.42 -4.57,-5.31 -4.6,-8.63 -0.06,-2.99 0.84,-5.38 2.74,-7.21 1.93,-1.8 4.38,-2.7 7.37,-2.7 2.9,0.03 5.18,0.9 6.83,2.67 1.67,1.74 2.51,4.06 2.51,6.95 0,4.25 -1.96,8.34 -5.89,12.27 z m -8.5,-15.64 c -0.9,0.9 -1.32,2 -1.29,3.28 0,1.06 0.35,2.03 1.06,2.83 1.74,-2.51 2.9,-5.09 3.45,-7.66 -1.26,0.13 -2.35,0.64 -3.22,1.55 z"
         id="path2388"
         style="fill:#008080" />
      <path
         class="cls-39"
         d="m 1331.07,1208.35 c -1.22,-0.03 -2.8,-0.13 -4.83,-0.23 l -0.06,-4.28 c 2.29,0.32 4.06,0.52 5.28,0.64 l -0.39,3.86 z m -2.28,9.85 -2.54,-3.93 c 1.42,-0.84 3.09,-2.06 4.96,-3.73 l 1.77,3.96 c -1.64,1.67 -3.06,2.9 -4.19,3.7 z m 2.73,-16.26 c -1.03,-0.42 -2.38,-0.9 -4.12,-1.51 l 0.93,-4.15 c 1.26,0.55 2.83,1.26 4.77,2.12 z m 7.54,9.08 c -0.8,4.31 -2.12,7.76 -3.96,10.33 l -2.87,-3.99 c 0.52,-0.26 0.93,-0.48 1.22,-0.68 1.03,-1.51 1.83,-3.61 2.35,-6.25 0.06,-0.29 0.1,-0.58 0.1,-0.77 l 3.32,0.48 c -0.06,0.23 -0.1,0.52 -0.16,0.87 z m 11.04,-10.11 c -0.42,-0.06 -0.97,-0.16 -1.64,-0.26 l -6.63,0.03 -0.71,3.51 3.35,-0.03 c -0.1,-0.55 -0.23,-1.38 -0.39,-2.51 l 3.19,-0.48 c 0.03,0.26 0.16,1.22 0.42,2.93 0.23,0 0.55,0 1,-0.03 l 0.03,4.12 c -1.67,0 -3.83,0.03 -6.44,0.06 l -5.83,0.1 -0.84,0.16 -0.16,-4.31 0.87,0.03 h 1.26 l 0.71,-3.51 -2.96,0.03 c -0.13,0.03 -0.55,0.13 -1.19,0.29 l -0.16,-5.02 1.29,0.13 h 4.77 l 0.03,-2.54 -0.1,-0.87 3.73,0.1 -0.19,0.9 -0.06,2.38 h 5.34 l 1.61,-0.16 -0.29,4.96 z m -6.86,9.88 c 0.03,-0.29 0.03,3.16 0.03,10.37 l -4.28,-2.48 c 0.23,-0.26 0.51,-0.68 0.87,-1.19 0.06,-2.77 0.1,-4.99 0.1,-6.7 0,-0.13 -0.03,-0.42 -0.1,-0.9 l 3.51,0.1 c -0.03,0.23 -0.06,0.52 -0.13,0.81 z m 7.86,8.18 h -5.51 l -1.06,-2.35 v -5.92 l -0.06,-0.87 3.41,0.06 -0.19,0.97 v 3.64 c 0.64,0 1.32,0 2.12,-0.06 0.58,-0.42 1.09,-0.81 1.51,-1.09 l -0.23,5.63 z"
         id="path2390"
         style="fill:#008080" />
      <path
         class="cls-39"
         d="m 1377.5,1219.29 c -2.19,-1 -3.74,-2.19 -4.64,-3.61 -0.87,-1.42 -1.32,-3.32 -1.32,-5.7 0,-0.61 0.03,-1.32 0.1,-2.09 -1.64,0.97 -3.77,2.25 -6.38,3.9 l -0.03,9.56 -4.67,-1.83 1,-2.03 v -3.38 l -2.64,1.64 c -0.29,0.26 -0.55,0.48 -0.77,0.71 l -2.06,-4.73 c 0.19,-0.06 0.52,-0.23 1,-0.48 0.55,-0.35 1.42,-0.93 2.61,-1.67 l 1.9,-5.25 v -0.74 c -0.87,0.06 -1.71,0.1 -2.48,0.1 -0.19,0.06 -0.58,0.13 -1.22,0.26 l -0.26,-5.31 c 0.29,0.03 0.74,0.1 1.35,0.13 l 2.64,-0.1 v -2.41 l -0.13,-1.45 3.99,0.1 -0.16,1.19 v 2.51 c 0.64,0 1.16,0 1.45,-0.03 l 1.38,-0.1 -0.06,4.96 c -0.16,-0.06 -0.58,-0.06 -1.32,-0.06 -0.39,0 -0.71,0.03 -1,0.03 l -0.48,1.38 v 1.32 c 1.96,-1.19 4.25,-2.51 6.86,-3.99 l 0.06,-0.68 3.96,0.42 -0.1,0.58 c -0.42,3.67 -0.64,6.02 -0.64,7.02 0,1.06 0.13,1.9 0.42,2.45 0.29,0.71 0.87,1.29 1.71,1.77 0.42,0.06 0.9,0.06 1.42,0.06 l -1.48,5.57 z"
         id="path2392"
         style="fill:#008080" />
    </g>
  </g>
</svg>
