<svg width="201" height="68" viewBox="0 0 201 68" fill="none" xmlns="http://www.w3.org/2000/svg">
<path d="M20.4332 28.6326C20.2232 28.8826 19.9732 28.9126 19.7332 28.7026L16.0231 25.5526C15.7731 25.3426 15.7431 25.1325 15.9531 24.8525C17.7031 22.7125 18.6132 21.0026 18.6832 19.7426C18.7232 18.8326 18.4731 18.1326 17.9531 17.6826C17.4631 17.2926 16.7632 17.1226 15.8132 17.1226C14.8632 17.1226 13.2531 17.5426 10.8431 18.4526C10.5331 18.5526 10.3532 18.7626 10.3232 19.0826L9.93316 28.9926C9.93316 29.3026 9.76317 29.4825 9.44317 29.4825H4.71313C4.36313 29.4825 4.22314 29.3426 4.22314 29.0226L4.53314 21.4226C4.53314 21.2826 4.50313 21.2126 4.39313 21.1426C4.28312 21.0726 4.18318 21.0725 4.07318 21.1025C3.58318 21.3125 2.88316 21.6226 1.93316 22.0126C1.62316 22.1526 1.44316 22.0826 1.30316 21.7626L0.0431494 18.6426C-0.0568506 18.3326 0.0131494 18.1225 0.293149 17.9725L1.97314 17.2026C2.28314 17.0226 2.53312 16.8526 2.70312 16.6426L4.49316 14.5026C4.73316 14.2526 4.84314 13.9826 4.84314 13.6226L4.88318 12.3926C4.88318 12.2526 4.84316 12.1426 4.74316 12.0426C4.64316 11.9726 4.53312 11.9426 4.39313 11.9426L1.94317 12.1526C1.59317 12.1826 1.42318 12.0126 1.38318 11.6926L1.24316 8.75256C1.24316 8.44256 1.38315 8.23254 1.73315 8.23254L4.57318 7.95264C4.88318 7.92264 5.06314 7.74258 5.09314 7.39258L5.27313 2.63257C5.27313 2.28257 5.44318 2.14258 5.76318 2.14258H10.4932C10.8432 2.14258 10.9832 2.3226 10.9832 2.6626L10.8032 6.90259C10.8032 7.04259 10.8432 7.14252 10.9432 7.21252C11.0132 7.31252 11.1531 7.35262 11.2931 7.31262L13.1431 7.13257C13.4631 7.13257 13.6332 7.27256 13.6732 7.62256L13.7731 10.5326C13.7731 10.8426 13.5931 11.0225 13.2831 11.0925H12.9731C12.6631 11.1325 12.4131 11.2726 12.2031 11.5126L10.6232 13.3726C10.5832 13.4426 10.5532 13.5126 10.5532 13.6226C10.5532 13.6526 10.5932 13.6925 10.6232 13.7225C12.7932 13.0225 14.5832 12.6726 15.9832 12.6726C18.4032 12.6326 20.3632 13.2326 21.8632 14.4226C23.5732 15.7526 24.3832 17.5726 24.3132 19.9226C24.1732 22.9326 22.9132 25.8025 20.4232 28.6025L20.4332 28.6326Z" fill="#58778D"/>
<path d="M45.6332 17.5417C45.3832 17.7917 45.3832 18.0016 45.6332 18.2416C47.8432 20.3416 50.3231 22.5516 53.0931 24.8616C53.3431 25.1016 53.3731 25.3516 53.1631 25.5916L50.3232 29.0617C50.1132 29.3417 49.8632 29.3417 49.6232 29.1317C44.9632 25.1417 40.9431 21.5016 37.5831 18.2116C37.3731 18.0016 37.3732 17.7917 37.6132 17.5117C40.7332 14.1517 44.4731 10.1616 48.7831 5.61164C48.9931 5.37164 49.2431 5.37164 49.4831 5.61164L53.2931 8.87165C53.5031 9.08165 53.5031 9.33172 53.2931 9.57172L45.6232 17.5517L45.6332 17.5417Z" fill="#58778D"/>
<path d="M90.4332 28.6326C90.2232 28.8826 89.9732 28.9126 89.7332 28.7026L86.0231 25.5526C85.7731 25.3426 85.7431 25.1325 85.9531 24.8525C87.7031 22.7125 88.6132 21.0026 88.6832 19.7426C88.7232 18.8326 88.4731 18.1326 87.9531 17.6826C87.4631 17.2926 86.7632 17.1226 85.8132 17.1226C84.8632 17.1226 83.2531 17.5426 80.8431 18.4526C80.5331 18.5526 80.3532 18.7626 80.3232 19.0826L79.9332 28.9926C79.9332 29.3026 79.7632 29.4825 79.4432 29.4825H74.7131C74.3631 29.4825 74.2231 29.3426 74.2231 29.0226L74.5331 21.4226C74.5331 21.2826 74.5031 21.2126 74.3931 21.1426C74.2831 21.0726 74.1832 21.0725 74.0732 21.1025C73.5832 21.3125 72.8832 21.6226 71.9332 22.0126C71.6232 22.1526 71.4432 22.0826 71.3032 21.7626L70.0431 18.6426C69.9431 18.3326 70.0131 18.1225 70.2931 17.9725L71.9731 17.2026C72.2831 17.0226 72.5331 16.8526 72.7031 16.6426L74.4932 14.5026C74.7332 14.2526 74.8431 13.9826 74.8431 13.6226L74.8832 12.3926C74.8832 12.2526 74.8432 12.1426 74.7432 12.0426C74.6432 11.9726 74.5331 11.9426 74.3931 11.9426L71.9432 12.1526C71.5932 12.1826 71.4232 12.0126 71.3832 11.6926L71.2432 8.75256C71.2432 8.44256 71.3832 8.23254 71.7332 8.23254L74.5732 7.95264C74.8832 7.92264 75.0631 7.74258 75.0931 7.39258L75.2731 2.63257C75.2731 2.28257 75.4432 2.14258 75.7632 2.14258H80.4932C80.8432 2.14258 80.9832 2.3226 80.9832 2.6626L80.8032 6.90259C80.8032 7.04259 80.8432 7.14252 80.9432 7.21252C81.0132 7.31252 81.1531 7.35262 81.2931 7.31262L83.1431 7.13257C83.4631 7.13257 83.6332 7.27256 83.6732 7.62256L83.7731 10.5326C83.7731 10.8426 83.5931 11.0225 83.2831 11.0925H82.9731C82.6631 11.1325 82.4131 11.2726 82.2031 11.5126L80.6232 13.3726C80.5832 13.4426 80.5532 13.5126 80.5532 13.6226C80.5532 13.6526 80.5932 13.6925 80.6232 13.7225C82.7932 13.0225 84.5832 12.6726 85.9832 12.6726C88.4032 12.6326 90.3632 13.2326 91.8632 14.4226C93.5732 15.7526 94.3832 17.5726 94.3132 19.9226C94.1732 22.9326 92.9132 25.8025 90.4232 28.6025L90.4332 28.6326Z" fill="#58778D"/>
<path d="M115.633 17.5417C115.383 17.7917 115.383 18.0016 115.633 18.2416C117.843 20.3416 120.323 22.5516 123.093 24.8616C123.343 25.1016 123.373 25.3516 123.163 25.5916L120.323 29.0617C120.113 29.3417 119.863 29.3417 119.623 29.1317C114.963 25.1417 110.943 21.5016 107.583 18.2116C107.373 18.0016 107.373 17.7917 107.613 17.5117C110.733 14.1517 114.473 10.1616 118.783 5.61164C118.993 5.37164 119.243 5.37164 119.483 5.61164L123.293 8.87165C123.503 9.08165 123.503 9.33172 123.293 9.57172L115.623 17.5517L115.633 17.5417Z" fill="#58778D"/>
<path d="M150.113 16.1018C150.113 16.4518 149.933 16.6219 149.623 16.6219H147.133C146.823 16.6219 146.673 16.7918 146.673 17.1118L146.643 18.0519C146.603 18.4019 146.993 18.7519 147.763 19.0319C148.323 19.2119 148.843 19.3519 149.373 19.5219C149.723 19.6219 149.833 19.8319 149.723 20.1919L148.813 22.6819C148.713 22.9919 148.503 23.1019 148.253 22.9919L146.993 22.5019C146.643 22.3919 146.503 22.5019 146.503 22.8119L146.293 29.7118C146.293 30.0618 146.113 30.2318 145.803 30.2318L141.463 30.2019C141.153 30.2019 141.003 30.0219 141.003 29.6819L141.143 24.1118C141.143 24.0118 141.103 23.9719 141.043 23.9419C140.933 23.9019 140.863 23.9419 140.833 24.0119C140.483 24.4319 139.953 25.0319 139.223 25.8319C139.013 26.0419 138.763 26.0419 138.523 25.8319L136.453 23.8319C136.213 23.6219 136.213 23.4119 136.453 23.1619C138.173 21.3019 139.713 19.4119 141.183 17.3819C141.283 17.2419 141.323 17.0719 141.323 16.8919C141.323 16.7119 141.253 16.6118 141.073 16.6118H137.993C137.683 16.6118 137.503 16.4418 137.533 16.0918L137.633 13.5019C137.673 13.1919 137.803 13.0119 138.153 13.0119H140.953C141.233 13.0119 141.413 12.8719 141.413 12.5219L141.483 10.8418C141.483 10.7418 141.453 10.6319 141.343 10.5619C141.273 10.4919 141.163 10.4919 141.063 10.5219C140.753 10.6619 140.293 10.8719 139.693 11.1219C139.343 11.2619 139.133 11.1618 138.993 10.8418L137.763 8.00186C137.623 7.69186 137.723 7.48194 138.043 7.33194C141.303 5.96194 144.413 4.49185 147.323 2.99185C147.633 2.85185 147.853 2.92194 148.023 3.20194L149.603 5.93192C149.773 6.25192 149.703 6.46187 149.393 6.63187L147.323 7.68192C147.043 7.82192 146.903 8.0619 146.903 8.4119L146.763 12.5119C146.733 12.8619 146.903 13.0019 147.223 13.0019H149.743C150.053 13.0019 150.233 13.1819 150.203 13.4919L150.103 16.0819L150.113 16.1018ZM168.243 24.0119C168.243 24.3619 168.063 24.5319 167.713 24.5319L165.963 24.5719C165.653 24.5719 165.473 24.7119 165.473 25.0619L165.263 29.8919C165.233 30.2019 165.053 30.3819 164.743 30.3819L160.053 30.4219C159.913 30.4219 159.773 30.3519 159.703 30.2819C159.603 30.1819 159.563 30.0719 159.563 29.9319L159.773 25.1719C159.773 25.0319 159.703 24.9219 159.633 24.8219C159.523 24.7219 159.423 24.6419 159.283 24.6419L153.223 24.7819C153.083 24.7819 152.973 24.7519 152.873 24.6419C152.773 24.5419 152.733 24.4319 152.733 24.2919L152.803 22.1219C152.803 21.7719 152.943 21.6319 153.293 21.6319L159.423 21.5319C159.743 21.5319 159.913 21.3619 159.953 21.0119L160.543 5.22183C160.583 4.87183 160.753 4.70194 161.073 4.70194L165.803 4.73184C166.113 4.73184 166.293 4.91183 166.253 5.22183L165.663 20.9019C165.663 21.0419 165.703 21.1519 165.803 21.2519C165.873 21.3219 165.973 21.3919 166.113 21.3919L167.763 21.3518C167.903 21.3518 168.043 21.3919 168.153 21.4919C168.223 21.5919 168.293 21.7018 168.293 21.8418L168.263 24.0119H168.243ZM156.583 19.2218C156.373 19.5018 156.123 19.5319 155.843 19.2919L153.113 17.0519C152.863 16.8419 152.833 16.5918 153.043 16.3518L154.623 14.4219C154.833 14.1419 155.083 14.1418 155.323 14.3518L158.093 16.5918C158.373 16.8018 158.373 17.0519 158.163 17.3319L156.583 19.2218ZM157.493 12.3919C157.283 12.6419 157.073 12.6718 156.823 12.4618L154.303 10.4618C154.053 10.2518 154.023 10.0419 154.263 9.76187L155.803 7.83194C156.013 7.59194 156.263 7.55187 156.503 7.76187L158.993 9.7919C159.243 10.0019 159.273 10.2118 159.063 10.4618L157.483 12.3919H157.493Z" fill="#58778D"/>
<path d="M200.403 11.6621C200.363 12.0121 200.153 12.152 199.843 12.152H195.813C195.463 12.152 195.323 11.982 195.353 11.632L195.603 9.49201C195.633 9.18201 195.503 9.00202 195.143 9.00202H179.493C179.173 9.00202 179.003 9.18201 178.963 9.49201L178.683 11.872C178.613 12.182 178.433 12.362 178.123 12.362H173.923C173.613 12.362 173.463 12.192 173.463 11.872L173.993 6.30207C174.023 5.99207 174.203 5.81208 174.553 5.81208H200.563C200.913 5.81208 201.053 5.98207 200.983 6.30207L200.383 11.6621H200.403ZM196.663 25.242C196.663 25.592 196.493 25.762 196.173 25.762H190.743C190.433 25.762 190.223 25.902 190.183 26.222C190.043 27.202 189.723 28.812 189.203 30.982C189.133 31.292 188.923 31.472 188.603 31.472L183.803 31.502C183.663 31.502 183.553 31.4321 183.493 31.3321C183.453 31.2321 183.423 31.122 183.453 31.022C183.983 29.342 184.363 27.732 184.613 26.222C184.653 25.912 184.513 25.762 184.193 25.762H177.543C177.193 25.762 177.053 25.592 177.083 25.242L177.223 23.0721C177.223 22.7221 177.393 22.5821 177.713 22.5821H184.403C184.753 22.5821 184.893 22.4021 184.863 22.0621C184.763 21.3921 184.613 20.7321 184.403 20.0621C184.303 19.7121 184.363 19.4321 184.573 19.1821C185.383 18.3021 186.253 17.2921 187.273 16.0621C187.343 15.9921 187.343 15.8921 187.313 15.8121C187.273 15.7421 187.173 15.712 187.063 15.712H180.623C180.303 15.712 180.133 15.5421 180.163 15.1921L180.263 12.772C180.263 12.422 180.433 12.252 180.753 12.252H193.603C193.913 12.252 194.093 12.432 194.063 12.772L193.923 14.2821C193.923 14.6321 193.823 14.9521 193.643 15.1921C193.223 15.7521 192.103 17.152 190.243 19.462C189.993 19.742 189.923 20.022 190.033 20.342C190.173 20.862 190.283 21.4221 190.423 22.0621C190.463 22.4121 190.633 22.5821 190.943 22.5821H196.373C196.683 22.5821 196.833 22.7221 196.793 23.0721L196.653 25.242H196.663ZM181.323 3.82209C181.323 4.17209 181.153 4.31208 180.803 4.31208L177.963 4.352C177.653 4.352 177.503 4.21201 177.503 3.86201V0.952096C177.503 0.642096 177.643 0.461984 177.993 0.461984L180.833 0.432076C181.143 0.432076 181.323 0.602067 181.323 0.922067V3.8321V3.82209ZM189.453 3.852C189.453 4.162 189.273 4.31208 188.963 4.31208L186.133 4.27204C185.783 4.27204 185.603 4.13205 185.643 3.78205L185.783 0.702096C185.813 0.352096 185.953 0.182076 186.303 0.182076L189.143 0.252023C189.453 0.252023 189.633 0.432013 189.603 0.742013L189.463 3.86201L189.453 3.852ZM197.043 4.66206C196.903 4.97206 196.653 5.08209 196.373 4.94209L193.713 3.79206C193.433 3.65206 193.363 3.44202 193.503 3.12202L194.863 0.322091C195.003 0.042091 195.213 -0.0679383 195.493 0.0420617L198.113 1.232C198.433 1.332 198.503 1.58201 198.363 1.86201L197.033 4.66206H197.043Z" fill="#58778D"/>
<path d="M60.3734 45.0325C60.3434 45.3825 60.1233 45.5525 59.7833 45.5525L55.6833 45.5225C55.3734 45.5225 55.2234 45.3425 55.2634 45.0325L55.5134 43.1024C55.5834 42.7524 55.4133 42.6124 55.0933 42.6124H39.0933C38.7833 42.6124 38.6034 42.7524 38.5734 43.1024L38.3633 45.1324C38.3233 45.4424 38.1533 45.6224 37.8033 45.6224H33.8834C33.5734 45.6224 33.4233 45.4424 33.4233 45.1324L33.9833 39.7025C34.0233 39.3925 34.1933 39.2124 34.5433 39.2124H43.7133C44.0233 39.2124 44.2033 39.0324 44.2333 38.7224L44.4833 36.2725C44.4833 35.9625 44.6934 35.8125 45.0134 35.8125H50.4033C50.7233 35.8125 50.8634 35.9525 50.8234 36.3025L50.6133 38.7224C50.5733 39.0324 50.7133 39.2124 51.0333 39.2124H60.6633C60.9733 39.2124 61.1233 39.3825 61.0433 39.7025L60.3734 45.0225V45.0325ZM56.9434 58.6124C56.9434 58.9624 56.7633 59.1324 56.4533 59.1324L50.6033 59.0924C50.4933 59.0924 50.4233 59.1324 50.3933 59.2324C50.3233 59.3324 50.3633 59.4024 50.4333 59.4824C50.8933 60.0824 52.2834 61.4824 54.6334 63.6124C54.8734 63.8624 54.8733 64.1024 54.6633 64.3424L51.6833 67.5625C51.4333 67.8025 51.2234 67.8024 50.9434 67.5924C50.1434 66.8224 48.8433 65.4924 47.0933 63.6324C46.8833 63.3824 46.7033 63.3825 46.4933 63.6625C45.8633 64.7125 44.8434 66.0825 43.4434 67.7925C43.2734 68.0425 43.0233 68.0424 42.7733 67.8624L39.2033 64.9924C38.9533 64.7824 38.9533 64.5425 39.1633 64.2625C40.6733 62.4425 41.8234 60.8624 42.5634 59.5024C42.6034 59.4324 42.6034 59.3324 42.5634 59.2224C42.4934 59.1224 42.4234 59.0825 42.3134 59.0825H37.0634C36.7534 59.0825 36.5734 58.9124 36.5734 58.5924L36.6433 56.5924C36.6833 56.2424 36.8533 56.1024 37.1633 56.1024H43.1533C43.4633 56.1024 43.6733 55.9224 43.6733 55.6124L43.7133 54.9125C43.7433 54.6025 43.5734 54.4225 43.2534 54.4225H39.6133C39.2633 54.4225 39.1234 54.2425 39.1234 53.9325L39.2634 51.9325C39.3034 51.6225 39.4733 51.4425 39.7933 51.4425H43.4333C43.7833 51.4425 43.9633 51.2725 43.9933 50.9525L44.0333 50.3225C44.0733 49.9725 43.9334 49.8025 43.5734 49.8025H39.1234C38.8034 49.8025 38.6333 49.6325 38.6633 49.3125L38.7634 47.3524C38.7634 47.0024 38.9334 46.8325 39.2534 46.8325H43.7733C44.0833 46.8325 44.2633 46.6524 44.2933 46.3424L44.3933 44.7625C44.3933 44.4525 44.6033 44.3025 44.9233 44.3025H49.8234C50.1334 44.3025 50.2833 44.4425 50.2833 44.7625L50.2133 46.3424C50.1733 46.6524 50.3133 46.8325 50.6733 46.8325H55.1234C55.4734 46.8325 55.6433 47.0024 55.6133 47.3524L55.5134 49.3125C55.5134 49.6325 55.3433 49.8025 55.0233 49.8025H50.4733C50.1633 49.8025 49.9833 49.9825 49.9533 50.3225L49.8834 50.9525C49.8434 51.2625 50.0234 51.4425 50.3734 51.4425H54.2933C54.6133 51.4425 54.7534 51.6225 54.7534 51.9325L54.6133 53.9325C54.5733 54.2425 54.4033 54.4225 54.0833 54.4225H50.1633C49.8133 54.4225 49.6433 54.5925 49.6033 54.9125L49.5734 55.6124C49.5734 55.9224 49.7133 56.1024 50.0233 56.1024H56.5333C56.8533 56.1024 57.0233 56.2424 56.9933 56.5924L56.9233 58.5924L56.9434 58.6124Z" fill="#58778D"/>
<path d="M66.9129 64.9119C66.8429 65.2319 66.6729 65.3319 66.3529 65.2619L65.2329 65.0119C64.8829 64.9819 64.7729 64.7719 64.8529 64.4519L65.3429 62.0019C65.4129 61.6519 65.623 61.5419 65.943 61.6219L67.063 61.8719C67.373 61.9419 67.5229 62.1119 67.4529 62.4319L66.9229 64.9119H66.9129ZM80.4629 65.9319C80.4329 66.2419 80.2229 66.4219 79.9029 66.4219L76.3629 66.3819C76.0129 66.3819 75.8729 66.2119 75.9029 65.8919C76.0029 65.3319 76.2129 63.4718 76.6029 60.3618C76.6429 60.0518 76.5029 59.8719 76.1129 59.8719H67.1129C66.8029 59.8719 66.6629 59.7019 66.6629 59.3819L67.1529 40.1619C67.1529 39.8119 67.3329 39.6719 67.6429 39.6719H80.7329C81.0829 39.6719 81.2229 39.8119 81.2229 40.1619L81.123 42.3319C81.083 42.6419 80.9129 42.8219 80.5929 42.8219H78.243C77.933 42.8219 77.7529 42.9919 77.7229 43.3119L77.6529 44.8219C77.6229 45.1719 77.7929 45.3418 78.1429 45.3418H79.7929C80.1129 45.3418 80.283 45.5219 80.253 45.8319L80.1529 47.8919C80.1529 48.2019 79.9829 48.3819 79.6629 48.3819H78.053C77.663 48.3819 77.493 48.5519 77.493 48.9019L77.4529 50.5519C77.4529 50.9019 77.633 51.0819 77.943 51.0819H79.553C79.903 51.0819 80.043 51.2519 80.013 51.5719L79.943 53.7419C79.903 54.0919 79.7329 54.2619 79.4229 54.2619H77.813C77.463 54.2619 77.2929 54.4019 77.2929 54.7519L77.253 56.2218C77.253 56.5318 77.4329 56.7118 77.7129 56.7118H80.9029C81.2129 56.7118 81.3629 56.8818 81.3629 57.2318C81.2229 59.5418 80.9029 62.4519 80.4829 65.9119L80.4629 65.9319ZM70.2029 64.4919C70.2029 64.8419 70.0329 64.9818 69.7129 64.9818L68.5229 64.9119C68.2129 64.8819 68.033 64.7019 68.063 64.3919L68.1629 62.2519C68.1629 61.9419 68.3429 61.7919 68.6529 61.7919L69.7729 61.8319C70.1229 61.8319 70.263 62.0019 70.263 62.3219L70.193 64.4919H70.2029ZM72.8929 64.0419C72.8929 64.3919 72.753 64.5719 72.433 64.5719H71.243C70.923 64.5719 70.7829 64.3919 70.7829 64.0419V62.0819C70.7829 61.7619 70.9529 61.6219 71.2729 61.6219H72.433C72.743 61.6219 72.9229 61.7918 72.9229 62.1118L72.883 64.0419H72.8929ZM72.443 54.2719H71.633C71.283 54.2719 71.1429 54.4119 71.1429 54.7619L71.1029 56.2318C71.1029 56.5418 71.243 56.7218 71.563 56.7218H72.3329C72.6829 56.7218 72.8529 56.5418 72.8529 56.2318L72.8929 54.7619C72.8929 54.4119 72.753 54.2719 72.433 54.2719H72.443ZM72.6129 48.3919H71.813C71.463 48.3919 71.2829 48.5619 71.2829 48.9119L71.253 50.5619C71.253 50.9119 71.423 51.0918 71.743 51.0918H72.5829C72.8929 51.0918 73.073 50.9119 73.073 50.5619L73.1129 48.9119C73.1129 48.5619 72.973 48.3919 72.623 48.3919H72.6129ZM72.8629 42.8319H71.9829C71.6329 42.8319 71.4629 43.0019 71.4629 43.3219L71.4229 44.8319C71.4229 45.1819 71.5929 45.3518 71.9129 45.3518H72.753C73.103 45.3518 73.2429 45.1819 73.2829 44.8319L73.3529 43.3219C73.3929 43.0119 73.2129 42.8319 72.8629 42.8319ZM75.693 63.9019C75.693 64.2219 75.5529 64.3919 75.2029 64.3919H74.0829C73.7329 64.3919 73.563 64.2219 73.563 63.8719L73.6029 61.7719C73.6029 61.4619 73.7429 61.2819 74.0929 61.2819H75.253C75.563 61.2819 75.7129 61.4519 75.7129 61.8019V63.9019H75.693ZM97.503 47.8319C97.333 48.1119 97.1229 48.1418 96.8329 47.9718C94.7729 46.6018 92.3529 44.9619 89.5829 43.0019C89.3329 42.7919 89.1229 42.7919 88.8429 43.0419C87.2629 44.4819 85.4129 46.0819 83.2729 47.8019C83.0229 48.0119 82.8129 47.9819 82.6029 47.7019L80.573 45.1819C80.363 44.9019 80.4029 44.6518 80.6429 44.4818C84.5329 41.1918 87.5029 38.4219 89.5329 36.1519C89.7429 35.9019 90.0229 35.8719 90.2729 36.0819L92.8629 38.0819C93.1129 38.2519 93.113 38.5019 92.933 38.7819C92.863 38.8819 92.7229 39.0319 92.5429 39.2419C92.3029 39.4919 92.3329 39.7319 92.6129 39.9419C93.5929 40.7119 95.763 42.1818 99.123 44.3518C99.403 44.5318 99.433 44.7419 99.263 45.0219L97.4729 47.8618L97.503 47.8319ZM96.5929 59.2118C96.5929 59.5618 96.423 59.7019 96.073 59.7019H91.693C91.593 59.7019 91.5229 59.7719 91.5229 59.8719C91.4829 59.9719 91.5229 60.0819 91.5929 60.1919C92.3629 61.2119 93.663 62.5019 95.443 64.0419C95.693 64.2919 95.723 64.5319 95.513 64.7819L93.303 67.4419C93.093 67.7219 92.8429 67.7219 92.6029 67.5119C91.7929 66.8119 90.923 65.9319 89.943 64.8919C89.693 64.6119 89.5229 64.6418 89.3429 64.9618C88.9229 65.6618 88.323 66.5418 87.553 67.5918C87.343 67.8718 87.133 67.9018 86.883 67.7318L83.8329 65.4919C83.5829 65.3219 83.5529 65.0719 83.7329 64.8219C84.8529 63.1719 85.803 61.6319 86.503 60.2019C86.683 59.8819 86.573 59.7118 86.193 59.7118H82.9729C82.6629 59.7118 82.513 59.5718 82.513 59.2218L82.683 52.3919C82.683 52.0419 82.8229 51.9019 83.1729 51.9019H86.9229C87.2329 51.9019 87.443 51.7219 87.443 51.4119L87.4829 50.4618C87.5129 50.1518 87.3429 50.0119 87.0229 50.0119H84.7129C84.3629 50.0119 84.223 49.8318 84.253 49.4818L84.2929 47.4519C84.2929 47.1019 84.473 46.9618 84.813 46.9618L94.683 46.9919C94.993 46.9919 95.1729 47.1318 95.1729 47.4818L95.1029 49.4818C95.0729 49.8318 94.9329 50.0119 94.5829 50.0119H92.7329C92.4229 50.0119 92.2429 50.1518 92.2029 50.4618L92.133 51.4119C92.093 51.7219 92.273 51.9019 92.623 51.9019H96.263C96.573 51.9019 96.753 52.0419 96.753 52.3919L96.573 59.2218L96.5929 59.2118ZM86.9729 54.4818H86.623C86.273 54.4818 86.1029 54.6219 86.1029 54.9319L86.063 56.4419C86.063 56.7519 86.243 56.9319 86.553 56.9319H86.9029C87.2129 56.9319 87.3929 56.7519 87.3929 56.4419L87.4229 54.9718C87.4229 54.6618 87.2829 54.4818 86.9629 54.4818H86.9729ZM92.7829 54.5519H92.433C92.083 54.5519 91.903 54.7219 91.873 55.0419L91.803 56.4818C91.803 56.8318 91.9429 57.0019 92.2929 57.0019H92.7129C93.0629 57.0019 93.2029 56.8318 93.2029 56.4818L93.2329 55.0419C93.2329 54.7319 93.0929 54.5519 92.7729 54.5519H92.7829Z" fill="#58778D"/>
<path d="M130.583 44.3322C130.513 44.6422 130.343 44.8221 130.023 44.8221L125.993 44.7821C125.643 44.7821 125.503 44.6421 125.533 44.3221L125.783 42.3221C125.823 41.9721 125.683 41.8021 125.323 41.8021H109.643C109.333 41.8021 109.153 41.9721 109.083 42.3221L108.833 44.4221C108.763 44.7321 108.593 44.8821 108.273 44.8821H104.143C103.793 44.8821 103.653 44.7421 103.683 44.4221L104.283 39.1321C104.323 38.7821 104.493 38.6421 104.803 38.6421H114.323C114.643 38.6421 114.813 38.4621 114.853 38.1521L114.993 36.1221C115.023 35.8121 115.203 35.6621 115.513 35.6621L120.483 35.7021C120.803 35.7021 120.943 35.8421 120.903 36.1621L120.723 38.1621C120.723 38.4721 120.863 38.6521 121.183 38.6521H130.813C131.123 38.6521 131.273 38.7921 131.203 39.1421L130.573 44.3221L130.583 44.3322ZM125.823 66.6321C125.783 66.9821 125.613 67.1521 125.263 67.1521H108.563C108.213 67.1521 108.073 66.9821 108.073 66.6321L108.173 64.462C108.213 64.152 108.383 63.972 108.733 63.972H113.493C113.843 63.972 113.983 63.7921 114.013 63.4821L114.083 62.462C114.113 62.152 113.943 62.0021 113.593 62.0021H109.913C109.563 62.0021 109.423 61.8321 109.423 61.4821L109.523 59.2721C109.563 58.9621 109.733 58.8121 110.083 58.8121H113.793C114.103 58.8121 114.283 58.6321 114.313 58.2821L114.413 56.7821C114.413 56.4321 114.593 56.2621 114.903 56.2621H119.873C120.223 56.2621 120.363 56.4321 120.363 56.7821L120.263 58.2821C120.233 58.6321 120.403 58.8121 120.723 58.8121H124.683C125.033 58.8121 125.173 58.9521 125.143 59.2721L125.073 61.4821C125.033 61.8321 124.863 62.0021 124.543 62.0021H120.553C120.243 62.0021 120.063 62.142 120.023 62.462L119.953 63.4821C119.913 63.7921 120.093 63.972 120.443 63.972H125.413C125.763 63.972 125.943 64.142 125.903 64.462L125.803 66.6321H125.823ZM125.783 47.7621C125.753 48.0721 125.613 48.2521 125.263 48.2521H117.493C117.183 48.2521 116.973 48.4321 116.903 48.7721C116.863 48.9821 116.723 49.6121 116.513 50.6621C116.443 51.0121 116.583 51.1821 116.903 51.1821H120.863C121.213 51.1821 121.353 51.0021 121.393 50.6221L121.423 49.9221C121.463 49.5721 121.603 49.4021 121.913 49.4021L124.853 49.4321C125.163 49.4321 125.313 49.6121 125.313 49.9221C125.313 50.5221 125.273 52.1621 125.213 54.7921C125.213 55.1421 125.073 55.3121 124.723 55.3121L121.853 55.2721C121.533 55.2721 121.393 55.1321 121.363 54.7821C121.323 54.4721 121.223 54.3221 121.013 54.3221H110.093C109.743 54.3221 109.603 54.1422 109.633 53.8322L109.733 51.6621C109.763 51.3521 109.943 51.1721 110.253 51.1721H110.773C111.083 51.1721 111.303 50.9921 111.373 50.6821L111.763 48.7521C111.833 48.4021 111.693 48.2321 111.373 48.2321H109.583C109.303 48.2321 109.123 48.0621 109.123 47.7421L109.193 45.7821C109.233 45.4321 109.403 45.2621 109.753 45.2621H125.403C125.753 45.2621 125.923 45.4321 125.893 45.7821L125.793 47.7421L125.783 47.7621Z" fill="#58778D"/>
<path d="M154.693 64.8818C154.693 65.1918 154.513 65.3418 154.203 65.3418H149.473C149.123 65.3418 148.983 65.2018 149.013 64.8818L149.433 60.6819C149.433 60.3719 149.643 60.2218 149.963 60.2218H154.273C154.593 60.2218 154.763 60.3619 154.733 60.6819L154.703 64.8818H154.693ZM154.733 57.3219C154.733 57.6719 154.523 57.8119 154.213 57.8119H150.223C149.903 57.8119 149.763 57.6719 149.763 57.3219L150.323 38.6619C150.323 38.3119 150.493 38.1719 150.843 38.1719H155.743C156.053 38.1719 156.203 38.3119 156.163 38.6619L154.723 57.3219H154.733Z" fill="#58778D"/>
</svg>
