<?xml version="1.0" encoding="UTF-8" standalone="no"?>
<!-- Created with Inkscape (http://www.inkscape.org/) -->

<svg
   width="43.728752mm"
   height="8.1888542mm"
   viewBox="0 0 43.728752 8.1888542"
   version="1.1"
   id="svg13610"
   xmlns="http://www.w3.org/2000/svg"
   xmlns:svg="http://www.w3.org/2000/svg">
  <defs
     id="defs13607" />
  <g
     id="layer1"
     transform="translate(-4.100979,-3.3736956)">
    <g
       id="g2470"
       transform="matrix(0.26458333,0,0,0.26458333,-321.01795,-342.47905)"
       style="fill:#65b7ec">
      <path
         class="cls-39"
         d="m 1243.45,1333.7 c -0.61,-0.55 -1.16,-0.9 -1.58,-1.16 -0.68,-0.39 -1.67,-0.87 -2.96,-1.45 -0.06,3.77 -1.77,5.63 -5.12,5.54 -1.38,0 -2.54,-0.51 -3.48,-1.54 -0.97,-1.03 -1.48,-2.22 -1.51,-3.61 -0.06,-1.8 0.55,-3.25 1.8,-4.35 1.19,-1 2.7,-1.45 4.51,-1.42 0.06,-3.64 0.06,-8.24 0,-13.75 0,-0.23 -0.03,-0.68 -0.06,-1.29 l 4.02,0.1 c -0.06,0.97 -0.1,1.38 -0.1,1.29 0.03,1.03 0.03,2.12 0,3.25 h 4.22 l 1.55,-0.16 -0.26,5.22 -1.32,-0.26 -4.18,-0.03 -0.06,6.08 c 0.51,0.19 2,0.71 4.41,1.55 0.13,0.03 0.68,0.19 1.71,0.45 l -1.58,5.54 z m -8.5,-3.51 c -0.26,0 -0.45,-0.03 -0.64,-0.03 -1.26,0 -1.9,0.48 -1.9,1.38 0,0.8 0.45,1.22 1.29,1.26 0.87,0.06 1.29,-0.55 1.29,-1.77 -0.03,-0.23 -0.03,-0.48 -0.03,-0.84 z"
         id="path2458"
         style="fill:#65b7ec" />
      <path
         class="cls-39"
         d="m 1267.88,1336.11 c -0.26,-0.48 -0.58,-1.16 -1.03,-2 -1,-1.51 -3.45,-4.93 -7.34,-10.17 l -0.42,-2.32 c 1.8,-2.29 4.25,-5.57 7.34,-9.79 0.26,-0.39 0.58,-0.93 0.9,-1.64 l 3.96,2.93 c -0.39,0.39 -0.74,0.77 -1.03,1.09 -1,1.38 -2.16,2.83 -3.41,4.35 -1.45,1.77 -2.45,2.99 -2.96,3.67 1,1.35 3.12,3.93 6.31,7.79 0.35,0.45 0.87,0.87 1.51,1.25 l -3.83,4.83 z"
         id="path2460"
         style="fill:#65b7ec" />
      <path
         class="cls-39"
         d="m 1300.75,1337.08 -3.57,-4.7 c 0.52,-0.19 1.03,-0.42 1.58,-0.71 0.8,-1.03 1.22,-2.32 1.22,-3.83 0,-0.45 -0.1,-0.93 -0.32,-1.48 -1.58,1.55 -3.28,2.93 -5.18,4.12 v 3.09 h -3.57 v -1.16 c -1.29,0.61 -2.7,1.19 -4.19,1.74 l -1.25,-3.61 c -0.13,-0.64 -0.19,-1.29 -0.19,-1.93 0,-1.9 0.51,-3.64 1.51,-5.18 1,-1.55 2.35,-2.67 4.09,-3.41 l 0.03,-2.06 -3.35,0.1 c -0.42,0.06 -0.87,0.16 -1.32,0.26 l -0.13,-5.25 c 0.45,0.1 0.93,0.13 1.42,0.16 0.71,-0.03 1.87,-0.03 3.48,-0.03 v -1.45 c 0,-0.1 -0.03,-0.48 -0.1,-1.19 l 3.8,0.1 c -0.06,0.39 -0.13,0.84 -0.19,1.32 0,0.19 -0.03,0.61 -0.03,1.19 0.74,0.03 3.25,0.03 7.57,-0.03 0.26,0 0.8,-0.03 1.64,-0.13 l -0.39,5.25 -1.38,-0.29 c -3.19,-0.1 -5.67,-0.13 -7.47,-0.1 v 1.32 c 1.93,-0.13 3.8,0.29 5.57,1.22 l 0.87,-1.32 2.93,2.06 c -0.26,0.32 -0.64,0.84 -1.16,1.48 1.03,1.38 1.58,2.87 1.61,4.38 0.13,3.61 -1.03,6.99 -3.51,10.08 z m -9.92,-12.46 c -1.19,1.03 -1.8,2.25 -1.8,3.64 0,0.19 0.03,0.42 0.03,0.64 0.61,-0.26 1.19,-0.55 1.77,-0.87 z m 4.19,-1.38 c -0.16,0 -0.35,0.03 -0.58,0.03 v 2.58 c 1.03,-0.68 1.93,-1.38 2.67,-2.12 -0.58,-0.32 -1.29,-0.48 -2.09,-0.48 z"
         id="path2462"
         style="fill:#65b7ec" />
      <path
         class="cls-39"
         d="m 1329.69,1333.44 c -1.38,1.71 -3.06,2.58 -5.02,2.58 -1.61,0 -2.96,-0.42 -4.06,-1.19 -1.26,-0.9 -1.9,-2.12 -1.93,-3.67 -0.03,-1.29 0.35,-2.35 1.19,-3.22 0.81,-0.87 1.87,-1.32 3.19,-1.35 1.83,-0.06 3.28,0.84 4.28,2.7 0.32,-0.55 0.45,-1.16 0.42,-1.8 0,-1.16 -0.45,-2.06 -1.32,-2.67 -0.74,-0.52 -1.74,-0.81 -2.96,-0.81 -0.68,0 -1.48,0.13 -2.38,0.39 l -3.61,5.12 -2.67,-4.06 1.42,-0.9 5.76,-8.21 -3.19,0.13 c -0.26,0.06 -0.71,0.16 -1.35,0.29 l -0.23,-5.44 c 0.51,0.06 1,0.1 1.48,0.1 1.42,0.03 2.9,0.03 4.41,0 2.16,-0.03 3.74,-0.06 4.7,-0.06 0.29,0 0.77,-0.03 1.45,-0.1 l -0.35,5.28 -1.19,-0.23 h -0.84 l -2.77,3.86 c 2.35,0.06 4.19,0.8 5.51,2.19 1.32,1.42 1.96,3.28 1.96,5.63 0,2 -0.64,3.83 -1.9,5.44 z m -6.44,-3.22 c -0.71,0 -1.06,0.29 -1.06,0.87 0,0.81 0.52,1.22 1.55,1.22 0.35,0 0.71,-0.06 1.09,-0.16 -0.23,-1.29 -0.77,-1.93 -1.58,-1.93 z"
         id="path2464"
         style="fill:#65b7ec" />
      <path
         class="cls-39"
         d="m 1352.09,1316.38 -0.71,-0.06 h -1.67 v 1.93 l -3.57,-0.1 0.13,-0.61 v -1.22 h -1.42 c -0.16,1.54 -0.48,2.9 -0.9,4.06 l -3.64,-2.42 c 0.61,-0.48 0.93,-0.93 1.03,-1.35 0.22,-1.16 0.35,-2.35 0.35,-3.57 0,-0.8 -0.03,-1.77 -0.16,-2.9 1.64,-0.8 3.12,-1.64 4.44,-2.51 l 0.45,-0.35 1.96,2.9 -0.42,0.26 c -0.13,0.06 -1.13,0.64 -2.96,1.8 v 0.42 h 6.41 l 0.84,-0.1 -0.16,3.83 z m 12.37,0.09 -0.71,-0.1 h -1.29 v 1.87 l -3.61,-0.03 0.13,-0.71 v -1.13 h -2.16 c -0.13,0.8 -0.35,1.67 -0.68,2.64 h 3.45 l -0.16,1.32 -0.23,11.69 h -1 l 1.09,1 c 0.13,0.1 0.52,0.29 1.09,0.61 l -2.22,3.9 c -1.03,-1.29 -2.51,-3.12 -4.44,-5.5 h -2.09 c -1.19,2.32 -2.87,4.35 -5.02,6.08 l -2,-4.35 c 0.35,-0.06 0.81,-0.16 1.35,-0.29 0.58,-0.48 1.09,-0.97 1.55,-1.42 h -0.97 l -0.35,-13.04 h 9.79 l -3.35,-2.19 c 0.51,-0.58 0.84,-1.13 0.9,-1.61 0.16,-1.58 0.23,-3.25 0.1,-5.09 1.03,-0.52 2.41,-1.35 4.22,-2.51 l 0.48,-0.45 2.09,3.09 -0.35,0.16 c -0.64,0.39 -1.61,0.97 -2.96,1.71 v 0.61 h 6.67 l 0.87,-0.1 -0.19,3.83 z m -14.49,5.45 v 1.06 h 5.76 l 0.03,-1.06 h -5.8 z m 0.06,3.21 0.03,1.03 5.57,-0.03 0.03,-1 z m 0.07,3.22 0.03,1.09 h 5.41 l 0.03,-1.09 z"
         id="path2466"
         style="fill:#65b7ec" />
      <path
         class="cls-39"
         d="m 1379.29,1310.13 -0.45,11.08 c -0.64,0.03 -1.9,0.06 -3.73,0.13 l -1.74,0.03 c 0,3.32 -0.1,8.27 -0.26,14.81 -0.77,-0.58 -2.22,-1.74 -4.38,-3.48 0.29,-0.26 0.68,-0.64 1.13,-1.16 0.42,-4.41 0.55,-11.37 0.42,-20.86 -0.03,-0.22 -0.06,-0.68 -0.06,-1.32 2.06,0 5.12,-0.03 9.18,-0.03 l -0.1,0.8 z m -5.95,2.42 v 1.22 h 2.54 v -1.22 z m 0.06,3.99 v 1.48 c 0.45,0 1.22,-0.03 2.35,-0.1 l 0.03,-1.38 z m 13.01,7.98 -0.39,8.89 -8.11,0.03 -0.58,-9.63 c 2.58,-0.1 4.73,-0.13 6.44,-0.13 1.09,0 2.03,0.03 2.77,0.06 l -0.13,0.77 z m -4.67,2.8 c -0.48,0 -0.9,0.03 -1.29,0.06 l 0.13,2.51 h 2.64 l 0.1,-2.51 c -0.58,-0.03 -1.09,-0.06 -1.58,-0.06 z m 12.3,-17.7 -0.06,0.61 c 0,2.61 -0.1,7.34 -0.29,14.23 -0.19,7.63 -0.39,12.11 -0.58,13.36 l -5.41,-4.19 c 0.55,-0.13 1.35,-0.32 2.35,-0.61 0.23,-3.12 0.35,-7.08 0.35,-11.91 -0.84,-0.03 -2.61,-0.03 -5.31,-0.03 l -0.39,-12.01 c 2.67,-0.06 5.79,-0.06 9.37,-0.03 0,0.1 0,0.29 -0.03,0.58 z m -6.15,2.6 v 1.35 h 2.61 v -1.35 z m 0.03,4.19 v 1.35 c 0.48,0.03 1.32,0.03 2.45,0.03 l 0.03,-1.38 z"
         id="path2468"
         style="fill:#65b7ec" />
    </g>
  </g>
</svg>
