<svg width="267" height="63" viewBox="0 0 267 63" fill="none" xmlns="http://www.w3.org/2000/svg">
<path d="M82.712 11.51C82.712 11.86 82.542 12.04 82.222 12.04H78.162C77.852 12.04 77.672 12.18 77.602 12.53C76.792 17.01 75.5319 21.5601 73.7819 26.2201C73.6819 26.5001 73.472 26.61 73.152 26.5L68.632 24.8201C68.322 24.6801 68.212 24.47 68.352 24.15C69.822 20.55 70.942 16.66 71.712 12.49C71.782 12.17 71.642 12.03 71.292 12.03H67.232C66.912 12.03 66.742 12.17 66.702 12.52L66.422 17.49C66.422 17.84 66.242 17.98 65.892 17.98H61.232C60.882 17.98 60.742 17.84 60.742 17.52L61.052 12.51C61.092 12.16 60.912 12.02 60.562 12.02H57.302C56.952 12.02 56.782 11.84 56.812 11.53L56.992 8.55005C56.992 8.20005 57.162 8.02002 57.482 8.02002H60.772C61.122 8.02002 61.292 7.88006 61.332 7.56006L61.682 1.5C61.682 1.15 61.852 0.97998 62.172 0.97998L66.832 1.02002C67.182 1.02002 67.322 1.19004 67.322 1.54004L66.972 7.56006C66.932 7.88006 67.112 8.02002 67.462 8.02002H71.872C72.182 8.02002 72.362 7.85003 72.392 7.53003C72.672 5.11003 72.882 2.77008 73.062 0.460083C73.062 0.150083 73.272 0 73.592 0L78.392 0.0400391C78.702 0.0400391 78.882 0.210029 78.852 0.530029C78.672 3.44003 78.502 5.78007 78.292 7.57007C78.252 7.89007 78.392 8.03003 78.752 8.03003H82.352C82.702 8.03003 82.882 8.21002 82.842 8.52002L82.702 11.5L82.712 11.51Z" fill="#58778D"/>
<path d="M109.382 4.58005C107.912 6.02005 106.052 7.63003 103.882 9.31003C103.812 9.38003 103.782 9.45 103.812 9.52C103.812 9.62 103.882 9.66001 103.992 9.66001H105.252C105.562 9.66001 105.742 9.83 105.742 10.15L105.282 24.05C105.282 24.4 105.112 24.5801 104.762 24.5801H99.6823C99.3723 24.5801 99.1923 24.4 99.1923 24.05L99.5423 12.99C99.5423 12.89 99.5423 12.82 99.4723 12.78C99.4023 12.78 99.3323 12.7401 99.3023 12.7101C99.2623 12.7401 99.2323 12.74 99.2023 12.78C97.7623 13.8 96.1223 14.95 94.3023 16.18C94.0223 16.39 93.7823 16.32 93.6023 16.04L91.5723 12.9601C91.3923 12.6801 91.4323 12.47 91.6723 12.26C97.4123 8.33999 102.212 4.65996 106.132 1.22996C106.382 1.01996 106.622 1.02 106.862 1.27L109.422 3.88999C109.632 4.13999 109.632 4.35006 109.392 4.59006L109.382 4.58005Z" fill="#58778D"/>
<path d="M143.682 8.59973C143.642 8.90973 143.472 9.08984 143.122 9.08984H138.322C138.012 9.08984 137.832 9.22983 137.832 9.57983L137.342 17.5997C137.342 17.7697 137.372 17.9097 137.442 17.9897C137.512 18.0697 137.612 18.0898 137.792 18.0898L143.112 18.0498C143.282 18.0498 143.392 18.0898 143.462 18.1898C143.532 18.2598 143.562 18.3998 143.562 18.5698L143.392 21.5498C143.352 21.8598 143.182 22.0398 142.862 22.0398L125.432 22.1097C125.292 22.1097 125.152 22.0398 125.082 21.9698C125.012 21.8998 124.982 21.7598 124.982 21.6198L125.152 18.6398C125.192 18.2898 125.362 18.1097 125.682 18.1097H130.622C130.932 18.1097 131.112 17.9398 131.112 17.6198L131.602 9.56982C131.602 9.39982 131.562 9.25982 131.502 9.18982C131.432 9.11982 131.322 9.08984 131.152 9.08984H126.142C125.962 9.08984 125.862 9.04975 125.792 8.98975C125.722 8.92975 125.692 8.77973 125.692 8.59973L125.862 5.61975C125.862 5.26975 126.032 5.08984 126.352 5.08984H143.362C143.712 5.08984 143.852 5.26975 143.822 5.61975L143.682 8.59973Z" fill="#58778D"/>
<path d="M161.982 11.1902C161.772 11.4702 161.522 11.5002 161.312 11.2902L155.992 6.88018C155.782 6.67018 155.752 6.46023 155.962 6.18023L158.412 3.24017C158.582 2.96017 158.832 2.96022 159.112 3.17022C161.002 4.67022 162.792 6.15019 164.402 7.51019C164.642 7.68019 164.642 7.93023 164.432 8.18023L161.982 11.1902ZM162.612 25.2602C162.372 25.4702 162.122 25.4702 161.912 25.1902L158.722 21.1302C158.512 20.8902 158.552 20.6703 158.792 20.4603C164.742 15.7703 169.682 10.9402 173.602 5.9002C173.812 5.6202 174.022 5.59023 174.302 5.80023L178.052 8.92022C178.332 9.13022 178.362 9.38021 178.122 9.66021C173.322 15.6502 168.182 20.8602 162.612 25.2702V25.2602Z" fill="#58778D"/>
<path d="M204.372 25.2301C204.122 25.5101 203.882 25.5101 203.642 25.2301C203.502 25.1301 201.822 23.3002 198.602 19.8402C198.352 19.5602 198.112 19.5602 197.932 19.8402C196.282 21.9802 194.602 23.9702 192.962 25.8302C192.712 26.0702 192.502 26.1101 192.232 25.8601L188.592 22.4602C188.342 22.2502 188.312 22.0002 188.522 21.7902C193.772 15.9802 197.522 10.6202 199.762 5.79016C199.902 5.48016 199.802 5.3302 199.452 5.3302H191.082C190.732 5.3302 190.592 5.19021 190.622 4.84021L190.762 1.8302C190.792 1.5102 190.972 1.37012 191.282 1.37012H206.932C207.252 1.37012 207.422 1.5102 207.392 1.8302L207.292 3.27014C207.262 3.62014 207.192 3.97016 207.042 4.29016C205.682 7.55016 203.962 10.8401 201.932 14.1301C201.762 14.4401 201.762 14.6901 201.972 14.9001C202.002 14.9401 203.972 17.0001 207.892 21.1001C208.102 21.3501 208.102 21.5902 207.892 21.8302L204.392 25.2301H204.372Z" fill="#58778D"/>
<path d="M5.57207 58.2902C5.43207 58.6402 5.19206 58.7102 4.90206 58.5402L0.312065 56.2601C0.00206476 56.1201 -0.0679352 55.9102 0.0620648 55.5902C1.99206 51.4602 3.56205 47.0501 4.86205 42.3901C4.93205 42.0801 5.14208 41.9702 5.45208 42.0402L10.4621 43.2002C10.7721 43.2702 10.9221 43.4802 10.8421 43.7902C9.61206 48.8302 7.86205 53.6602 5.55205 58.2802L5.57207 58.2902ZM27.8621 55.7301L23.2421 58.2202C22.9621 58.3902 22.7121 58.3202 22.5721 58.0402C20.0821 53.4502 18.6521 48.5502 18.2621 43.3402C18.2621 42.9902 18.4021 42.7801 18.7521 42.7501L23.8321 42.1501C24.1421 42.0801 24.3221 42.2202 24.3221 42.5402C24.7821 46.6402 26.002 50.8002 28.102 55.0702C28.242 55.3502 28.142 55.5901 27.852 55.7401L27.8621 55.7301ZM27.3021 42.3601C26.2821 42.3601 25.482 42.0801 24.9221 41.5201C24.3621 40.9601 24.1121 40.1902 24.1821 39.1702C24.3221 37.0002 25.5121 35.9502 27.7521 35.9502C28.7721 35.9502 29.542 36.2302 30.102 36.7902C30.662 37.3502 30.9121 38.1602 30.8421 39.1702C30.7021 41.3102 29.5121 42.3601 27.3021 42.3601ZM27.6221 38.0201C26.9521 38.0201 26.6121 38.3701 26.5721 39.1401C26.5021 39.9101 26.822 40.3302 27.482 40.3302C28.112 40.3302 28.4221 39.9502 28.4621 39.2102C28.5321 38.4102 28.2521 38.0201 27.6221 38.0201Z" fill="#58778D"/>
<path d="M51.9821 42.0096C51.9421 42.3296 51.8721 42.6797 51.8021 42.9597C49.8421 49.0197 46.7621 55.1097 42.5921 61.2697C42.4221 61.5497 42.1721 61.5896 41.9221 61.3796L37.3721 58.2296C37.0921 58.0496 37.0621 57.8097 37.2721 57.5297C40.5621 52.5897 43.0121 48.0797 44.6221 44.0497C44.7221 43.7697 44.6221 43.6296 44.2721 43.6296H31.5621C31.2121 43.6296 31.0721 43.4596 31.1021 43.1396L31.2721 40.1597C31.2721 39.8097 31.4521 39.6396 31.7621 39.6396H51.6121C51.9221 39.6396 52.0721 39.8096 52.0721 40.1296L51.9721 42.0197L51.9821 42.0096Z" fill="#58778D"/>
<path d="M76.8321 50.5902C76.7921 50.9002 76.6221 51.0502 76.2721 51.0502H72.732C72.382 51.0502 72.2021 51.2202 72.2021 51.5702L71.852 61.9001C71.852 62.2101 71.682 62.3901 71.362 62.3901H67.162C66.852 62.3901 66.7021 62.2201 66.7021 61.9001L66.8821 56.6802C66.8821 56.6102 66.842 56.5401 66.782 56.5101C66.712 56.4701 66.642 56.4702 66.602 56.5502C65.452 57.9102 64.1821 59.2502 62.8921 60.5802C62.6821 60.7902 62.442 60.7902 62.222 60.5802L59.492 57.7802C59.242 57.5302 59.2821 57.2902 59.5221 57.0402C61.5921 54.9402 63.272 53.0802 64.602 51.4702C64.672 51.4002 64.6721 51.3002 64.6421 51.1902C64.6021 51.1202 64.542 51.0502 64.432 51.0502H59.7721C59.4221 51.0502 59.282 50.9102 59.312 50.5902L59.492 48.0302C59.492 47.6802 59.662 47.5402 59.982 47.5402H66.672C66.982 47.5402 67.162 47.3701 67.162 47.0201L67.3421 42.1501C67.3421 41.8001 67.512 41.6602 67.862 41.6602H72.032C72.382 41.6602 72.552 41.8001 72.552 42.1501L72.3821 47.0201C72.3421 47.3701 72.522 47.5402 72.872 47.5402H76.5121C76.8221 47.5402 76.972 47.6802 76.972 48.0302L76.8321 50.5902Z" fill="#58778D"/>
<path d="M106.512 48.6605C106.472 48.9705 106.302 49.1505 105.982 49.1505L82.9522 49.1105C82.6422 49.1105 82.4922 48.9305 82.4922 48.6205L82.6622 45.4706C82.7022 45.1606 82.8722 45.0205 83.2222 45.0205L106.222 44.9805C106.572 44.9805 106.712 45.1206 106.712 45.4706L106.502 48.6605H106.512Z" fill="#58778D"/>
<path d="M133.392 41.1399C133.392 41.4499 133.292 41.7699 133.142 42.1199C131.042 46.0799 127.822 50.45 123.442 55.21C123.232 55.42 123.192 55.6999 123.302 56.0099L124.352 58.5299C124.452 58.8399 124.352 59.05 124.072 59.2L120.082 60.9199C119.772 61.0599 119.562 60.9499 119.452 60.6699L114.412 48.0699C114.272 47.7599 114.342 47.5099 114.662 47.3999L118.652 45.8599C118.962 45.7599 119.172 45.8199 119.282 46.1099C119.532 46.6299 119.952 47.6499 120.542 49.1599C120.682 49.4699 120.852 49.5099 121.062 49.2599C122.672 47.3699 124.112 45.5499 125.372 43.7599C125.442 43.6899 125.442 43.5799 125.372 43.5099C125.332 43.4099 125.232 43.3699 125.122 43.3699H109.932C109.582 43.3699 109.412 43.1999 109.442 42.8799L109.582 39.8999C109.582 39.5499 109.752 39.3799 110.072 39.3799H133.032C133.342 39.3799 133.492 39.5499 133.452 39.8999L133.382 41.1299L133.392 41.1399Z" fill="#58778D"/>
<path d="M143.082 47.1902C142.872 47.4702 142.622 47.5002 142.412 47.2902L137.092 42.8802C136.882 42.6702 136.852 42.4602 137.062 42.1802L139.512 39.2402C139.682 38.9602 139.932 38.9602 140.212 39.1702C142.102 40.6702 143.892 42.1502 145.502 43.5102C145.742 43.6802 145.742 43.9302 145.532 44.1802L143.082 47.1902ZM143.712 61.2602C143.472 61.4702 143.222 61.4702 143.012 61.1902L139.822 57.1302C139.612 56.8902 139.652 56.6703 139.892 56.4603C145.842 51.7703 150.782 46.9402 154.702 41.9002C154.912 41.6202 155.122 41.5902 155.402 41.8002L159.152 44.9202C159.432 45.1302 159.462 45.3802 159.222 45.6602C154.422 51.6502 149.282 56.8602 143.712 61.2702V61.2602Z" fill="#58778D"/>
<path d="M179.872 61.2301C179.622 61.5101 179.382 61.5101 179.142 61.2301C179.002 61.1301 177.322 59.3002 174.102 55.8402C173.852 55.5602 173.612 55.5602 173.432 55.8402C171.782 57.9802 170.102 59.9702 168.462 61.8302C168.212 62.0702 168.002 62.1101 167.732 61.8601L164.092 58.4602C163.842 58.2502 163.812 58.0002 164.022 57.7902C169.272 51.9802 173.022 46.6202 175.262 41.7902C175.402 41.4802 175.302 41.3302 174.952 41.3302H166.582C166.232 41.3302 166.092 41.1902 166.122 40.8402L166.262 37.8302C166.292 37.5102 166.472 37.3701 166.782 37.3701H182.432C182.752 37.3701 182.922 37.5102 182.892 37.8302L182.792 39.2701C182.762 39.6201 182.692 39.9702 182.542 40.2902C181.182 43.5502 179.462 46.8401 177.432 50.1301C177.262 50.4401 177.262 50.6901 177.472 50.9001C177.502 50.9401 179.472 53.0001 183.392 57.1001C183.602 57.3501 183.602 57.5902 183.392 57.8302L179.892 61.2301H179.872Z" fill="#58778D"/>
<path d="M197.232 50.4797C197.162 50.7597 196.952 50.8597 196.632 50.7597C195.402 50.2997 193.512 49.6798 190.892 48.8298C190.582 48.7298 190.472 48.5198 190.582 48.1998L191.562 45.1497C191.702 44.8397 191.872 44.7298 192.192 44.8398C194.642 45.5698 196.602 46.2097 198.072 46.6597C198.352 46.7597 198.462 46.9697 198.352 47.2897L197.232 50.4797ZM199.612 42.1898C199.472 42.4698 199.262 42.5397 198.942 42.3997C197.122 41.5897 195.372 40.7897 193.692 40.0197C193.382 39.8797 193.312 39.6697 193.442 39.3497L194.882 36.4398C195.022 36.1898 195.232 36.0897 195.512 36.2297L200.872 38.5397C201.152 38.6397 201.222 38.8498 201.082 39.2098L199.612 42.1898ZM197.402 61.9598C197.152 62.1698 196.912 62.1397 196.732 61.8597L193.962 58.0397C193.752 57.7597 193.782 57.5198 194.062 57.3398C200.192 52.9598 205.192 48.5197 209.042 43.9997C209.252 43.7897 209.462 43.7897 209.712 43.9997L212.902 47.1898C213.112 47.4398 213.142 47.6498 212.932 47.9298C208.692 52.7998 203.512 57.4898 197.392 61.9698L197.402 61.9598Z" fill="#58778D"/>
<path d="M234.152 59.8302C234.152 60.1802 233.982 60.3601 233.632 60.3601L220.082 60.3202C219.732 60.3202 219.592 60.1802 219.592 59.8302L219.732 57.3102C219.772 56.9602 219.942 56.7802 220.252 56.7802L228.552 56.8202C228.902 56.8202 229.082 56.6802 229.112 56.3302L229.212 54.4402C229.212 54.0902 229.072 53.9202 228.722 53.9202H221.022C220.702 53.9202 220.532 53.7802 220.562 53.4602L220.702 50.9402C220.702 50.5902 220.882 50.4102 221.192 50.4102H228.932C229.282 50.4102 229.452 50.2401 229.492 49.8901L229.592 48.1401C229.592 47.8201 229.452 47.6501 229.102 47.6501H220.842C220.492 47.6501 220.322 47.4802 220.352 47.1602L220.492 44.6401C220.492 44.2901 220.672 44.1201 220.982 44.1201H234.602C234.952 44.1201 235.092 44.2901 235.092 44.6401L234.142 59.8302H234.152Z" fill="#58778D"/>
<path d="M266.112 48.6605C266.072 48.9705 265.902 49.1505 265.582 49.1505L242.552 49.1105C242.242 49.1105 242.092 48.9305 242.092 48.6205L242.262 45.4706C242.302 45.1606 242.472 45.0205 242.822 45.0205L265.822 44.9805C266.172 44.9805 266.312 45.1206 266.312 45.4706L266.102 48.6605H266.112Z" fill="#58778D"/>
</svg>
