<svg width="316" height="34" viewBox="0 0 316 34" fill="none" xmlns="http://www.w3.org/2000/svg">
<path d="M15.915 28.8506C15.245 28.2606 14.655 27.8705 14.205 27.5905C13.475 27.1705 12.385 26.6406 10.985 26.0106C10.915 30.1106 9.06501 32.1405 5.42501 32.0305C3.92501 32.0305 2.66499 31.4706 1.64499 30.3506C0.594986 29.2306 0.034971 27.9306 0.00497098 26.4306C-0.065029 24.4706 0.605054 22.8906 1.96505 21.7006C3.25505 20.6206 4.90496 20.1206 6.86496 20.1606C6.93496 16.2006 6.93496 11.2006 6.86496 5.21057C6.86496 4.96057 6.82501 4.47055 6.79501 3.81055L11.165 3.92056C11.095 4.97056 11.065 5.42056 11.065 5.32056C11.105 6.44056 11.105 7.63057 11.065 8.86057H15.645L17.325 8.68057L17.045 14.3506L15.615 14.0706L11.065 14.0305L10.995 20.6506C11.555 20.8606 13.165 21.4206 15.785 22.3306C15.925 22.3706 16.515 22.5406 17.635 22.8206L15.925 28.8405L15.915 28.8506ZM6.68502 25.0305C6.40502 25.0305 6.19495 25.0005 5.98495 25.0005C4.62495 25.0005 3.92501 25.5205 3.92501 26.5005C3.92501 27.3805 4.41504 27.8306 5.32504 27.8706C6.26504 27.9406 6.72506 27.2706 6.72506 25.9406C6.69506 25.6906 6.69503 25.4205 6.69503 25.0305H6.68502Z" fill="#58778D"/>
<path d="M44.5549 31.4808C44.2749 30.9508 43.9249 30.2208 43.4349 29.3108C42.3549 27.6708 39.695 23.9508 35.465 18.2508L35.0049 15.7308C36.9649 13.2408 39.625 9.67076 42.975 5.09076C43.255 4.67076 43.605 4.08078 43.955 3.30078L48.2549 6.49078C47.8349 6.91078 47.4549 7.33079 47.1349 7.68079C46.0549 9.18079 44.7949 10.7608 43.4249 12.4108C41.8549 14.3308 40.765 15.6608 40.205 16.4008C41.285 17.8708 43.5949 20.6708 47.0649 24.8708C47.4449 25.3608 48.005 25.8208 48.705 26.2408L44.5449 31.4908L44.5549 31.4808Z" fill="#58778D"/>
<path d="M82.355 32.5204L78.475 27.4104C79.035 27.2004 79.5949 26.9504 80.1849 26.6404C81.0549 25.5204 81.5149 24.1204 81.5149 22.4704C81.5149 21.9804 81.4049 21.4504 81.1649 20.8604C79.4549 22.5404 77.5949 24.0504 75.5349 25.3404V28.7004H71.6549V27.4404C70.2549 28.1104 68.715 28.7304 67.105 29.3304L65.7349 25.4104C65.5949 24.7104 65.5249 24.0104 65.5249 23.3104C65.5249 21.2404 66.0849 19.3504 67.1649 17.6704C68.2449 15.9904 69.715 14.7604 71.605 13.9604L71.6349 11.7204L67.9949 11.8204C67.5449 11.8904 67.0549 12.0004 66.5649 12.1004L66.4249 6.39038C66.9149 6.49038 67.435 6.53036 67.965 6.56036C68.735 6.52036 69.9949 6.52039 71.7449 6.52039V4.94037C71.7449 4.83037 71.7049 4.41039 71.6449 3.65039L75.7749 3.75037C75.7049 4.17037 75.6349 4.66037 75.5649 5.19037C75.5649 5.40037 75.5249 5.86038 75.5249 6.48038C76.3249 6.52038 79.0549 6.52037 83.7449 6.44037C84.0249 6.44037 84.6249 6.40038 85.5249 6.30038L85.105 12.0104L83.605 11.7004C80.145 11.5904 77.4449 11.5604 75.4949 11.5904V13.0304C77.5949 12.8904 79.6249 13.3404 81.5449 14.3604L82.4849 12.9204L85.6649 15.1604C85.3849 15.5104 84.9649 16.0704 84.4049 16.7704C85.5249 18.2704 86.1149 19.8904 86.1549 21.5304C86.2949 25.4504 85.035 29.1304 82.345 32.4904L82.355 32.5204ZM71.585 18.9804C70.295 20.1004 69.6249 21.4304 69.6249 22.9404C69.6249 23.1504 69.6649 23.4004 69.6649 23.6404C70.3249 23.3604 70.955 23.0404 71.585 22.6904V18.9804ZM76.1249 17.4704C75.9549 17.4704 75.7449 17.5104 75.4949 17.5104V20.3104C76.6149 19.5804 77.5949 18.8104 78.3949 18.0004C77.7649 17.6504 76.9949 17.4704 76.1249 17.4704Z" fill="#58778D"/>
<path d="M115.885 28.5695C114.385 30.4195 112.565 31.3695 110.425 31.3695C108.675 31.3695 107.205 30.9095 106.015 30.0795C104.655 29.0995 103.955 27.7694 103.915 26.0894C103.875 24.6894 104.295 23.5294 105.205 22.5894C106.085 21.6494 107.235 21.1595 108.665 21.1195C110.655 21.0495 112.235 22.0294 113.315 24.0594C113.665 23.4594 113.805 22.7995 113.765 22.0995C113.765 20.8395 113.275 19.8595 112.335 19.1895C111.535 18.6295 110.445 18.3094 109.115 18.3094C108.385 18.3094 107.505 18.4495 106.525 18.7295L102.605 24.2995L99.7051 19.8895L101.245 18.9095L107.505 9.97946L104.045 10.1195C103.765 10.1895 103.275 10.2895 102.575 10.4395L102.335 4.51947C102.895 4.58947 103.415 4.61948 103.945 4.61948C105.485 4.65948 107.095 4.65948 108.735 4.61948C111.075 4.58948 112.795 4.54947 113.845 4.54947C114.155 4.54947 114.685 4.50945 115.415 4.43945L115.035 10.1795L113.745 9.92947H112.835L109.825 14.1295C112.375 14.1995 114.375 15.0095 115.805 16.5095C117.235 18.0495 117.935 20.0795 117.935 22.6395C117.935 24.8095 117.235 26.8094 115.875 28.5594L115.885 28.5695ZM108.895 25.0695C108.125 25.0695 107.745 25.3895 107.745 26.0195C107.745 26.8995 108.305 27.3495 109.425 27.3495C109.805 27.3495 110.195 27.2795 110.615 27.1795C110.365 25.7795 109.775 25.0795 108.905 25.0795L108.895 25.0695Z" fill="#58778D"/>
<path d="M142.315 10.02L141.545 9.95001H139.725V12.05L135.845 11.95L135.985 11.28V9.95001H134.445C134.265 11.63 133.915 13.1 133.465 14.36L129.515 11.74C130.175 11.21 130.525 10.72 130.635 10.27C130.875 9.01002 131.015 7.72001 131.015 6.39001C131.015 5.51001 130.975 4.46002 130.835 3.24002C132.615 2.36002 134.225 1.45001 135.665 0.51001L136.155 0.130005L138.285 3.28L137.835 3.56C137.695 3.63 136.615 4.26002 134.615 5.52002V5.98001H141.575L142.485 5.87003L142.315 10.04V10.02ZM155.745 10.12L154.975 10.01H153.575V12.04L149.655 12.01L149.795 11.24V10.01H147.455C147.315 10.89 147.075 11.83 146.725 12.88H150.465L150.285 14.31L150.045 27.02H148.965L150.155 28.11C150.295 28.21 150.715 28.42 151.345 28.78L148.935 33.02C147.815 31.62 146.205 29.62 144.105 27.03H141.835C140.545 29.55 138.725 31.76 136.375 33.65L134.205 28.92C134.585 28.85 135.085 28.75 135.675 28.6C136.305 28.08 136.865 27.55 137.355 27.06H136.305L135.925 12.88H146.555L142.915 10.5C143.475 9.87 143.825 9.28 143.895 8.75C144.075 7.04 144.145 5.21 144.005 3.22C145.125 2.66 146.625 1.75002 148.585 0.490021L149.105 0L151.375 3.36002L150.995 3.53C150.295 3.95 149.245 4.58001 147.775 5.39001V6.06H155.015L155.955 5.96002L155.745 10.13V10.12ZM140.015 16.04V17.19H146.275L146.315 16.04H140.025H140.015ZM140.085 19.54L140.125 20.66L146.175 20.62L146.215 19.54H140.095H140.085ZM140.155 23.04L140.195 24.23H146.075L146.115 23.04H140.165H140.155Z" fill="#58778D"/>
<path d="M173.965 3.23053L173.475 15.2705C172.775 15.3105 171.415 15.3405 169.415 15.4105L167.525 15.4505C167.525 19.0605 167.415 24.4505 167.245 31.5505C166.405 30.9205 164.835 29.6605 162.485 27.7705C162.795 27.4905 163.215 27.0705 163.705 26.5105C164.165 21.7105 164.295 14.1505 164.165 3.83053C164.125 3.58053 164.095 3.09053 164.095 2.39053C166.335 2.39053 169.655 2.36053 174.065 2.36053L173.965 3.24054V3.23053ZM167.495 5.85052V7.18054H170.255V5.85052H167.495ZM167.565 10.1905V11.8005C168.055 11.8005 168.895 11.7705 170.115 11.7005L170.155 10.2005H167.565V10.1905ZM181.695 18.8705L181.275 28.5305L172.465 28.5705L171.835 18.1005C174.635 18.0005 176.975 17.9605 178.835 17.9605C180.025 17.9605 181.035 18.0005 181.845 18.0305L181.705 18.8705H181.695ZM176.625 21.9205C176.105 21.9205 175.645 21.9605 175.225 21.9905L175.365 24.7205H178.235L178.345 21.9905C177.715 21.9505 177.155 21.9205 176.635 21.9205H176.625ZM189.985 2.67053L189.915 3.34051C189.915 6.18051 189.805 11.3205 189.595 18.8105C189.385 27.1105 189.175 31.9705 188.965 33.3405L183.085 28.7905C183.675 28.6505 184.555 28.4405 185.635 28.1205C185.885 24.7205 186.015 20.4205 186.015 15.1705C185.105 15.1405 183.185 15.1405 180.245 15.1405L179.825 2.08053C182.725 2.01053 186.115 2.01052 190.005 2.04052C190.005 2.15052 190.005 2.36053 189.965 2.67053H189.985ZM183.305 5.50052V6.97052H186.135V5.50052H183.305ZM183.335 10.0505V11.5205C183.865 11.5605 184.765 11.5605 185.995 11.5605L186.035 10.0505H183.345H183.335Z" fill="#58778D"/>
<path d="M220.855 31.6491C218.445 29.9691 216.585 27.7291 215.295 24.9291C214.005 22.2291 213.405 19.3591 213.515 16.3891C213.685 10.7191 215.925 5.77914 220.225 1.61914L222.255 4.65912C219.075 7.73912 217.495 11.6591 217.495 16.4191C217.495 21.4991 219.135 25.2791 222.425 27.8291L220.855 31.6491Z" fill="#58778D"/>
<path d="M246.245 10.2609C245.865 10.1909 245.195 10.0509 244.285 9.95093C242.855 9.88093 241.315 9.88092 239.665 9.88092C238.015 9.88092 236.305 9.88093 234.455 9.95093V14.2609H244.425C244.665 14.2609 245.225 14.1909 246.105 14.0509L245.865 20.0409C245.405 19.9309 244.745 19.8309 243.835 19.6909C242.435 19.6509 240.965 19.6209 239.395 19.6209C237.825 19.6209 236.175 19.6509 234.465 19.6909V28.0909L234.845 29.5909H230.265L230.545 28.1909L230.375 4.46094C233.835 4.39094 238.665 4.39093 244.855 4.42093C245.135 4.42093 245.655 4.35094 246.535 4.21094L246.255 10.2709L246.245 10.2609Z" fill="#58778D"/>
<path d="M270.015 30.5999L269.665 29.0199L267.915 24.5699H257.985L256.485 29.5399L256.345 31.1499L251.065 29.0199L252.185 27.8999L259.775 5.52985L259.465 4.33984H265.205L264.855 5.62985L273.665 27.1599L274.545 28.3799L270.035 30.5898L270.015 30.5999ZM262.325 10.3299L259.635 19.0499H265.715L262.325 10.3299Z" fill="#58778D"/>
<path d="M298.755 30.2805C298.475 30.0005 298.055 29.6105 297.495 29.1205C296.935 28.7405 296.275 28.2805 295.575 27.7505C293.865 29.2505 291.765 30.0605 289.205 30.1705C285.775 30.2805 283.155 28.9105 281.335 26.0405C279.865 23.6905 279.095 20.6805 279.025 17.0405C278.955 13.4305 279.725 10.4205 281.295 8.08047C283.115 5.35047 285.775 3.98047 289.195 3.98047C292.615 3.98047 295.425 5.28046 297.135 7.94046C298.605 10.1805 299.335 13.1505 299.335 16.9405C299.335 19.5005 298.985 21.7405 298.285 23.6305L299.195 24.2205C299.435 24.3305 299.925 24.5005 300.735 24.7105L298.745 30.2805H298.755ZM294.075 11.5605C292.995 10.0505 291.385 9.32046 289.215 9.35046C287.115 9.39046 285.505 10.1605 284.385 11.7005C283.405 13.0705 282.915 14.8505 282.915 17.0205C282.945 19.1905 283.435 21.0105 284.415 22.4505C285.565 24.1305 287.175 24.9705 289.245 24.9705C289.915 24.9705 290.575 24.8605 291.205 24.6205C290.295 23.9905 289.175 23.1505 287.845 22.2005L289.625 18.2805C289.875 18.4905 291.545 19.5005 294.555 21.3605C295.145 20.0705 295.465 18.5905 295.465 16.9505C295.465 14.6805 294.975 12.8905 294.065 11.5605H294.075Z" fill="#58778D"/>
<path d="M313.655 24.9294C312.295 27.7994 310.435 30.0094 308.095 31.6494L306.525 27.8294C309.815 25.2694 311.455 21.4894 311.455 16.4194C311.455 14.2494 311.035 12.1094 310.195 10.0094C309.355 7.90937 308.205 6.12938 306.695 4.64938L308.685 1.60938C313.025 5.77938 315.265 10.6794 315.465 16.3794C315.535 19.3594 314.945 22.1894 313.645 24.9194L313.655 24.9294Z" fill="#58778D"/>
</svg>
