<svg width="241" height="57" viewBox="0 0 241 57" fill="none" xmlns="http://www.w3.org/2000/svg">
<path d="M70.23 25.8087C70.04 25.7787 69.41 25.6688 68.34 25.4988H65.6C65.03 31.8388 62.99 37.5788 59.55 42.7588L56.31 37.1188C56.69 36.9788 57.35 36.6687 58.26 36.1787C59.9 33.1687 60.97 29.6288 61.5 25.4988C60.02 25.4988 58.57 25.4987 57.06 25.5387L57.03 33.0288L52.43 31.4187L53.06 29.6288V25.6388C52.49 25.6388 51.52 25.6788 50.1 25.7388C49.88 25.7388 49.38 25.8387 48.56 26.0487L48.34 19.8888C48.56 19.9288 49.16 19.9887 50.1 20.0687L53.09 20.0288V16.1787L52.96 14.8888L57.24 14.9587L57.08 16.3287L57.05 19.9688L61.93 19.9287C62.06 17.7587 62.06 16.3188 61.99 15.6188L61.86 14.2188L66.05 14.2887C66.02 14.5987 65.96 15.0588 65.89 15.6188C65.89 16.5988 65.89 17.9987 65.86 19.9287H68.54C68.73 19.9287 69.39 19.8287 70.52 19.6787L70.2 25.8087H70.23Z" fill="#58778D"/>
<path d="M93.95 19.1583C92.91 20.1783 91.75 21.1884 90.52 22.2084L90.83 41.4283L85.7 39.4684L86.71 37.3684L86.77 25.0483C84.6 26.5583 82.2 27.9584 79.62 29.2184L78.61 22.2184C79.11 22.2184 79.81 22.1784 80.63 22.1484C84.76 20.3284 88.28 18.1184 91.24 15.5284C91.33 15.4284 91.59 15.1484 92.03 14.6484L94.93 18.3584C94.65 18.5284 94.33 18.8183 93.95 19.1683V19.1583Z" fill="#58778D"/>
<path d="M125.64 37.4265C125.33 37.3265 124.79 37.2166 123.97 37.1066C122.27 37.0366 120.38 37.0066 118.33 37.0066C115.46 37.0066 112.25 37.0766 108.72 37.2566L107.27 37.6466L107.02 31.3766L108.6 31.5465L114.62 31.4465L114.65 25.0365C113.52 25.0765 111.75 25.1066 109.36 25.2166L108.04 25.5266L107.82 19.3265L109.17 19.5066C108.98 19.5066 111.28 19.4665 116 19.4365H123.59C124 19.4065 124.5 19.3366 125.13 19.2266L124.85 25.3866C124.47 25.2866 123.94 25.1365 123.21 25.0365C122.45 25.0065 120.91 25.0066 118.49 25.0066L118.46 31.4165C119.66 31.4165 121.58 31.4165 124.22 31.4565C124.41 31.4165 124.98 31.3566 125.92 31.2466L125.64 37.4465V37.4265Z" fill="#58778D"/>
<path d="M141.17 26.7191C139.69 25.4891 137.71 23.8891 135.12 21.9191L137.48 17.5391C138.55 18.3791 140.63 20.0591 143.68 22.6191L141.16 26.7191H141.17ZM148.95 32.4291C146.75 35.0191 144.16 37.4391 141.2 39.6091C140.95 39.8591 140.54 40.2392 140 40.7692L137.64 35.4791C138.27 35.3091 138.71 35.1691 138.99 35.0591C144.28 31.3791 148.66 26.3391 152.15 19.9391L154.95 23.4391C152.93 27.0391 150.92 30.0591 148.93 32.4391L148.95 32.4291Z" fill="#58778D"/>
<path d="M180.13 40.7572C178.81 38.9072 176.6 36.2371 173.55 32.8071C171.31 36.3071 168.79 39.2471 165.99 41.6671L163.72 35.2272C164.07 35.1572 164.73 35.0172 165.74 34.7372C168.23 32.2172 170.24 29.6972 171.76 27.2472C172.74 25.6372 173.68 23.7072 174.56 21.3972C171.91 21.4272 169.33 21.4971 166.84 21.5671L165.42 21.9171L165.23 15.3672L166.8 15.5072L179.34 15.3672L179.25 19.7072C178.68 22.4072 177.58 25.3471 175.97 28.5671C177.23 29.7171 178.99 31.3671 181.29 33.4371C181.42 33.5071 182.05 33.8572 183.21 34.5272L180.12 40.7572H180.13Z" fill="#58778D"/>
<path d="M211.88 33.1971C211.69 33.1271 211.34 33.0171 210.9 32.9471H209.26L209.13 37.1172H202.64C202.45 39.8872 202.2 42.0172 201.85 43.5272L196.97 38.6571L199.33 38.2372C199.33 37.9272 199.36 37.5371 199.42 37.1571C198.07 37.1571 196.36 37.1572 194.29 37.2272C194.16 37.2272 193.88 37.2972 193.5 37.3972L193.31 33.6871C193.69 33.7271 193.94 33.7572 194.13 33.7572C195.17 33.7572 196.96 33.7572 199.52 33.7272L199.55 32.9572C196.87 32.9872 194.29 33.0572 191.77 33.1272C191.61 33.1272 191.33 33.1971 190.89 33.3071L190.67 29.2072C191.11 29.2772 191.39 29.3071 191.55 29.3071C193.63 29.2671 196.34 29.2672 199.61 29.2372V28.4972C197.88 28.4972 196.15 28.5372 194.41 28.5972C194.25 28.5972 194.03 28.6372 193.75 28.7372L193.59 25.0571L194.57 25.1571C195.14 25.1571 196.84 25.1572 199.64 25.1172V24.0371L194.07 24.0771L193.76 18.3672L193.63 17.5272L199.58 17.4572V16.4371C197.47 16.4771 195.27 16.5072 193 16.6072C192.81 16.6472 192.46 16.7472 192.02 16.8872L191.74 12.4371C192.24 12.5071 192.53 12.5471 192.59 12.5471L199.55 12.4772V11.8071C199.55 11.5271 199.52 11.1072 199.46 10.6172L202.99 10.6871C202.9 11.3171 202.86 11.7072 202.86 11.8772V12.4672H209.1C209.01 12.4672 209.32 12.3971 210.08 12.3271L209.77 16.7372C209.58 16.6672 209.2 16.5672 208.67 16.4872C206.59 16.4572 204.67 16.4172 202.91 16.3872V17.4071H208.77L208.64 18.3171L208.36 24.0272H202.94V25.0771L209.52 25.0072L209.49 25.6072L209.36 29.2172C210.75 29.2172 211.69 29.1472 212.13 29.0072L211.88 33.1771V33.1971ZM199.63 20.2772C198.91 20.3072 198.09 20.3071 197.17 20.3071L197.23 21.3972H199.62V20.2772H199.63ZM202.84 32.7072C202.81 32.9572 202.81 33.3072 202.81 33.7272L206.27 33.6871L206.3 32.6671L202.84 32.7072ZM202.91 28.5072V29.4572H206.44L206.47 28.5072C206.09 28.4772 204.93 28.4772 202.91 28.5072ZM202.94 20.2072V21.3972H205.27L205.33 20.2372C204.54 20.2372 203.72 20.1971 202.94 20.1971V20.2072Z" fill="#58778D"/>
<path d="M239.76 20.7391C239.6 20.6991 239.19 20.5991 238.63 20.4891C237.91 20.4891 236.8 20.4891 235.39 20.4491C235.3 20.7591 235.23 21.0791 235.14 21.4291H237.22C237.5 21.3991 237.88 21.3591 238.32 21.3291L238.13 25.3591C237.82 25.2491 237.31 25.1791 236.65 25.1791L231.26 25.1392V26.0192L235.73 25.9791C236.05 25.9791 236.39 25.9392 236.8 25.8792L236.55 29.8391C235.89 29.6991 235.45 29.6592 235.23 29.6292H231.29V30.6492L237.81 30.6191C238.06 30.5791 238.47 30.5491 238.98 30.4791L238.7 34.7491C238.29 34.6091 237.88 34.5391 237.47 34.5391C236.05 34.4991 234.82 34.4991 233.82 34.5391C234.01 34.6391 234.99 35.3792 236.78 36.6392C236.94 36.7392 237.44 36.9191 238.32 37.0991L236.43 42.4591C235.8 41.7291 234.1 39.9691 231.33 37.2391V43.2991L227.27 41.6891L228.03 40.0092L228 36.9591C226.49 39.1691 224.57 41.0592 222.3 42.6292L220.79 37.5491C221.17 37.4791 221.67 37.3691 222.3 37.2391C223.59 36.3291 224.73 35.4891 225.61 34.6091C223.47 34.6791 222.05 34.7091 221.3 34.7491C221.17 34.8191 220.86 34.8891 220.39 34.9991L220.2 30.5891C221.05 30.6891 221.37 30.7291 221.18 30.7291C222.47 30.7291 224.74 30.7291 227.98 30.6891V29.6691C226.22 29.6691 224.74 29.7391 223.48 29.8091C223.29 29.8491 222.98 29.9091 222.57 30.0591L222.38 26.0292C222.6 26.0292 222.92 26.0592 223.32 26.1292C223.48 26.1592 225.02 26.1291 227.98 26.0591L227.95 25.1492C225.02 25.1892 222.97 25.2191 221.81 25.2891C221.65 25.3291 221.34 25.3891 220.87 25.5391L220.65 21.4791C220.87 21.4791 221.19 21.5191 221.6 21.5791C221.76 21.6191 222.73 21.5792 224.56 21.5092C224.5 21.1192 224.43 20.7691 224.37 20.4591L220.09 20.5991C219.93 20.6391 219.62 20.7392 219.24 20.8792L219.02 16.1492C219.21 16.1492 219.49 16.2191 219.87 16.3191C219.78 16.2791 221.54 16.2491 225.16 16.2191L224.97 13.0991L224.84 12.2592L228.4 12.0491V12.8892L228.56 16.1492H230.76L230.79 12.7491L230.76 12.0491L234.32 12.1891L234.19 13.1691L234.1 16.1492L239.01 16.2191C239.17 16.2191 239.51 16.1791 240.11 16.0791L239.79 20.7391H239.76ZM220.99 15.9791C220.71 13.7091 220.52 12.2291 220.39 11.5991L223.45 11.1091C223.45 11.4891 223.54 12.9592 223.7 15.5192L220.99 15.9791ZM227.45 20.4191L227.51 21.4691L232.14 21.4291C232.17 21.1891 232.23 20.8391 232.27 20.4191H227.45ZM237.46 16.0791L235 15.3091C235.16 14.2891 235.38 12.8591 235.69 11.0391L238.59 11.8091C238.37 12.5791 237.99 14.0191 237.46 16.0791Z" fill="#58778D"/>
<path d="M16.24 4.25V20.84L15.04 21.25C8.59001 23.45 4.26001 29.5099 4.26001 36.3199C4.26001 45.0999 11.4 52.24 20.18 52.24C28.96 52.24 36.1 45.0999 36.1 36.3199C36.1 29.4999 31.77 23.45 25.32 21.25L24.12 20.84V4.25H16.23H16.24Z" fill="#F6ED36"/>
<path d="M20.18 56.1411C9.25999 56.1411 0.369995 47.2511 0.369995 36.3311C0.369995 28.3811 5.05998 21.2611 12.35 18.1311V0.731079C12.35 0.531079 12.51 0.371094 12.71 0.371094H27.66C27.86 0.371094 28.02 0.531079 28.02 0.731079V18.1311C35.3 21.2611 40 28.3811 40 36.3311C40 47.2511 31.11 56.1411 20.19 56.1411H20.18ZM16.6 20.8411C16.6 20.9911 16.5 21.131 16.35 21.181L15.15 21.5911C8.84996 23.7411 4.62 29.661 4.62 36.321C4.62 44.901 11.6 51.8811 20.18 51.8811C28.76 51.8811 35.74 44.901 35.74 36.321C35.74 29.661 31.51 23.7411 25.2 21.5911L24 21.181C23.85 21.131 23.75 20.9911 23.75 20.8411V4.61108H16.59V20.8411H16.6Z" fill="#65B7EC"/>
<path d="M27.65 0.719971V18.36C34.86 21.36 39.63 28.4199 39.63 36.3199C39.63 47.0399 30.9 55.77 20.18 55.77C9.46002 55.77 0.730011 47.0399 0.730011 36.3199C0.730011 28.4199 5.48999 21.36 12.71 18.36V0.719971H27.66M20.18 52.24C28.96 52.24 36.1 45.0999 36.1 36.3199C36.1 29.4999 31.77 23.45 25.32 21.25L24.12 20.84V4.25H16.23V20.84L15.03 21.25C8.58 23.45 4.25 29.5099 4.25 36.3199C4.25 45.0999 11.39 52.24 20.17 52.24M27.65 0H12.7C12.3 0 11.98 0.319971 11.98 0.719971V17.89C4.69001 21.13 0 28.31 0 36.33C0 47.45 9.05001 56.5 20.17 56.5C31.29 56.5 40.34 47.45 40.34 36.33C40.34 28.31 35.66 21.13 28.36 17.89V0.719971C28.36 0.319971 28.04 0 27.64 0H27.65ZM16.96 4.96997H23.4V20.84C23.4 21.15 23.6 21.43 23.89 21.53L25.09 21.9399C31.24 24.0399 35.38 29.82 35.38 36.33C35.38 44.71 28.56 51.53 20.18 51.53C11.8 51.53 4.98001 44.71 4.98001 36.33C4.98001 29.82 9.11999 24.0399 15.27 21.9399L16.47 21.53C16.76 21.43 16.96 21.15 16.96 20.84V4.96997Z" fill="#65B7EC"/>
<path d="M33.38 33.2994L33.2 32.5195H7.16L6.98001 33.2994C6.75001 34.3094 6.63 35.3395 6.63 36.3795C6.63 43.8495 12.71 49.9294 20.18 49.9294C27.65 49.9294 33.73 43.8495 33.73 36.3795C33.73 35.3395 33.61 34.2994 33.38 33.2994ZM17.86 45.7195C17 45.7195 16.3 45.0194 16.3 44.1594C16.3 43.2994 17 42.5995 17.86 42.5995C18.72 42.5995 19.42 43.2994 19.42 44.1594C19.42 45.0194 18.72 45.7195 17.86 45.7195ZM23.54 40.7695C22.22 40.7695 21.16 39.6995 21.16 38.3895C21.16 37.0795 22.23 36.0095 23.54 36.0095C24.85 36.0095 25.92 37.0795 25.92 38.3895C25.92 39.6995 24.85 40.7695 23.54 40.7695Z" fill="#65B7EC"/>
</svg>
