<?xml version="1.0" encoding="UTF-8" standalone="no"?>
<!-- Created with Inkscape (http://www.inkscape.org/) -->

<svg
   width="29.05125mm"
   height="7.71525mm"
   viewBox="0 0 29.05125 7.71525"
   version="1.1"
   id="svg13698"
   xmlns="http://www.w3.org/2000/svg"
   xmlns:svg="http://www.w3.org/2000/svg">
  <defs
     id="defs13695" />
  <g
     id="layer1"
     transform="translate(-4.2359525,-3.9907703)">
    <g
       id="g2542"
       transform="matrix(0.26458333,0,0,0.26458333,-327.60446,-372.67535)"
       style="fill:#65b7ec">
      <path
         class="cls-39"
         d="m 1259.06,1440.19 c -1.19,0 -2.77,-0.06 -4.76,-0.19 l -0.1,-4.28 c 2.29,0.29 4.06,0.52 5.31,0.61 z m -2.25,9.88 -2.54,-3.9 c 1.42,-0.84 3.06,-2.09 4.96,-3.77 l 1.77,3.99 c -1.67,1.64 -3.06,2.87 -4.19,3.67 z m 2.73,-16.29 -4.09,-1.51 0.9,-4.12 4.8,2.12 z m 18.36,5.12 c -0.39,-0.16 -0.8,-0.26 -1.19,-0.26 h -4.57 l -0.03,3.12 c 1.06,0 2.35,0 3.9,0.03 l -0.06,0.68 -0.64,9.47 -10.01,0.1 -0.71,-10.21 c 1.19,-0.03 2.58,-0.06 4.09,-0.06 l 0.03,-3.09 c -1.06,0.03 -2.77,0.06 -5.09,0.13 -0.13,0.03 -0.48,0.13 -1,0.26 l -0.29,-4.77 1.03,0.13 5.38,-0.13 0.03,-2.87 c -0.84,0.42 -2.35,1.06 -4.51,1.9 l -0.9,-4.57 c 0.35,-0.03 0.97,-0.1 1.8,-0.19 2.25,-0.9 4.86,-2.32 7.79,-4.28 0.03,-0.03 0.19,-0.16 0.45,-0.42 l 2.12,3.16 c -0.71,0.55 -1.8,1.32 -3.28,2.35 l -0.03,4.89 h 4.99 c 0.22,-0.06 0.64,-0.1 1.22,-0.16 l -0.51,4.8 z m -9.63,7.02 0.1,2.09 h 3.73 l 0.13,-2.09 c -1.51,-0.03 -2.83,-0.03 -3.96,0 z"
         id="path2534"
         style="fill:#65b7ec" />
      <path
         class="cls-39"
         d="m 1295.05,1433.36 c -0.48,-0.16 -0.84,-0.23 -1.06,-0.23 -1.13,-0.03 -2.35,-0.03 -3.7,-0.03 v 0.84 c 1.35,0 2.83,0 4.35,0.03 l -0.06,0.84 -0.26,8.73 -4.06,0.03 v 0.87 h 2.48 c 0.13,0 0.45,-0.03 1.03,-0.1 l -0.26,3.48 c -0.23,-0.13 -0.55,-0.19 -1,-0.19 -1.26,-0.03 -2,-0.03 -2.25,0 l -0.03,0.93 c 0.29,-0.03 1.48,-0.1 3.64,-0.23 l -0.19,3.35 -9.82,0.39 c -0.26,0.03 -0.51,0.06 -0.74,0.13 l -0.19,-3.45 c 0.35,0.03 0.58,0.03 0.64,0.03 l 3.51,-0.1 v -1.03 c -1,0 -1.9,0.03 -2.74,0.03 -0.16,0 -0.45,0.06 -0.87,0.19 l -0.13,-3.51 c 0.42,0.1 0.77,0.13 1,0.1 h 2.77 v -0.9 l -3.99,0.03 -0.42,-9.59 c 1.03,-0.03 2.51,-0.03 4.44,-0.06 v -0.77 l -4.09,0.06 c -0.13,0.06 -0.52,0.13 -1.16,0.26 l -0.23,-4.12 c 0.13,0.06 0.45,0.1 0.87,0.13 l 4.6,-0.06 v -0.97 c -0.16,0.03 -1.35,0.26 -3.54,0.68 l -0.03,-4.02 c 0.23,0.03 0.68,0.06 1.32,0.06 2.96,-0.42 5.25,-0.87 6.83,-1.38 l 0.58,-0.19 0.97,3.22 -0.61,0.1 c -0.68,0.23 -1.45,0.48 -2.35,0.74 v 1.71 h 3.93 c 0.16,0 0.55,-0.06 1.09,-0.13 l -0.26,4.12 z m -9.34,3.41 0.03,0.93 1.48,-0.03 v -0.9 z m 0.13,3.16 0.03,1 h 1.35 v -1 z m 4.25,-3.16 v 0.9 h 1.55 v -0.9 z m 0,3.16 v 1 h 1.42 l 0.03,-1 z m 17.65,-6.09 c -0.1,1.16 -0.29,3.77 -0.55,7.79 -0.23,3.48 -0.71,6.86 -1.45,10.21 l -5.18,-4.93 2.51,-0.35 c 0.29,-1.51 0.51,-2.93 0.68,-4.25 0.13,-0.84 0.26,-2.51 0.39,-5.05 h -2.12 c -0.71,6.18 -2.09,11.33 -4.19,15.52 l -3.35,-4.15 c 0.29,-0.16 0.77,-0.39 1.38,-0.71 1.32,-3.67 2.19,-7.21 2.61,-10.59 -0.55,0.03 -1.03,0.06 -1.42,0.06 -0.1,0.03 -0.42,0.1 -0.9,0.23 l -0.23,-4.96 c 0.61,0.06 0.97,0.1 1.09,0.1 0.42,0 1.03,0 1.84,-0.03 0.1,-1.55 0.16,-3.12 0.19,-4.77 -0.03,-0.23 -0.03,-0.61 -0.06,-1.19 l 3.8,0.06 c -0.03,0.23 -0.1,0.61 -0.19,1.16 -0.03,1.64 -0.1,3.19 -0.19,4.67 l 5.41,-0.03 c 0,0 -0.03,0.45 -0.06,1.22 z"
         id="path2536"
         style="fill:#65b7ec" />
      <path
         class="cls-39"
         d="m 1318,1442.5 v 9.21 l -4.12,-3.25 1.16,-1.06 0.13,-4.86 h -2.96 c -0.1,0 -0.23,0 -0.39,0.03 -0.16,0.03 -0.29,0.06 -0.39,0.06 l -0.1,-3.73 c 0.13,0 0.39,0.03 0.74,0.03 l 0.51,0.03 1.64,-2.22 c -0.87,-0.64 -2.06,-1.51 -3.57,-2.61 1.16,-1.84 2.61,-4.25 4.35,-7.18 l 0.23,-0.58 2.83,1.83 -0.39,0.48 c -0.48,0.77 -1.35,2.19 -2.54,4.22 0.35,0.26 0.74,0.55 1.22,0.84 0.48,-0.74 1,-1.51 1.54,-2.38 0.06,-0.19 0.23,-0.45 0.42,-0.8 l 2.7,1.58 c -0.26,0.29 -0.48,0.61 -0.68,0.9 -1.67,2.51 -2.99,4.51 -3.96,5.92 0.68,0 1.38,0 2.12,-0.03 -0.23,-1.09 -0.39,-1.84 -0.52,-2.22 l 2.58,-0.58 c 0.06,0.55 0.22,1.45 0.45,2.74 h 0.39 l 0.06,3.57 c -1.32,0.03 -2.48,0.06 -3.48,0.06 z m -3.73,2.1 -1.35,3.9 -1.67,-0.9 0.39,-3.54 0.03,-0.71 2.83,0.8 z m 7.53,0.09 -1.35,2.83 -1.87,-0.93 0.71,-2.48 0.16,-0.8 2.61,0.87 -0.26,0.52 z m 13.43,-3.83 c -0.32,-0.29 -0.68,-0.61 -1.16,-0.97 -1.87,-1.29 -3.41,-2.38 -4.6,-3.32 -1.48,1.67 -3.32,3.25 -5.51,4.7 l -1.61,-4.25 c 0.58,-0.13 1.06,-0.26 1.45,-0.42 1.13,-0.74 2.06,-1.51 2.77,-2.22 -0.58,-0.52 -1.38,-1.16 -2.35,-1.96 l 1.87,-2.51 c 0.61,0.45 1.51,1.06 2.64,1.87 0.39,-0.48 0.87,-1.22 1.51,-2.25 -2.16,0 -4.12,0.06 -5.89,0.19 l -0.8,0.16 -0.19,-4.48 0.77,0.1 c 0.97,0 2.42,0 4.35,-0.06 1.93,-0.03 3.35,-0.06 4.31,-0.06 l 2.51,1.16 c -1,2.64 -2.16,4.99 -3.54,7.08 l 3.35,2.03 c 0.45,0.26 1.06,0.45 1.8,0.55 l -1.67,4.67 z m -0.36,11.27 -1,-0.19 c -3.83,-0.06 -6.92,-0.06 -9.27,0.06 -0.32,0 -0.71,0.06 -1.26,0.16 l -0.23,-4.35 c 0.42,0 0.84,0.03 1.26,0.1 h 3.19 v -1.74 c -0.71,0.03 -1.55,0.03 -2.51,0.1 l -0.93,0.19 -0.16,-4.48 0.93,0.13 c 0.84,-0.03 1.74,-0.03 2.71,-0.03 l -0.03,-1.71 -0.06,-0.93 3.67,0.13 -0.19,0.81 -0.03,1.64 h 2.51 c 0.42,0 0.8,-0.03 1.16,-0.13 l -0.23,4.41 c -0.51,-0.1 -0.87,-0.16 -1.03,-0.16 h -2.48 l -0.03,1.74 h 3.12 l 1.19,-0.13 -0.29,4.38 z"
         id="path2538"
         style="fill:#65b7ec" />
      <path
         class="cls-39"
         d="m 1346.07,1431.4 c -0.13,6.28 -1.29,11.49 -3.41,15.65 l -3.54,-4.38 1.42,-0.8 c 1.13,-2.7 1.8,-6.18 2.03,-10.4 0,-0.06 -0.03,-0.32 -0.06,-0.8 l 3.67,0.13 c -0.03,0.19 -0.06,0.39 -0.1,0.61 z m 17.07,-1.48 c -0.29,-0.1 -0.71,-0.19 -1.29,-0.32 -2.77,-0.06 -5.41,-0.1 -7.99,-0.1 -3.67,0 -7.12,0.06 -10.37,0.19 -0.19,0.03 -0.58,0.16 -1.16,0.32 l -0.19,-4.83 c 0.45,0.06 0.84,0.1 1.09,0.13 l 18.61,-0.06 c 0.19,0 0.74,-0.06 1.64,-0.16 l -0.35,4.83 z m -0.32,22.69 c -0.48,-0.13 -0.9,-0.19 -1.29,-0.23 -5.76,-0.13 -10.85,-0.13 -15.26,0.06 -0.16,0.03 -0.52,0.16 -1.06,0.32 l -0.26,-4.8 1.19,0.1 c 0.29,0 0.71,-0.03 1.19,-0.03 l -0.16,-3.41 -0.16,-1.16 3.54,-0.13 -0.06,1.16 0.1,3.51 2,-0.03 v -6.6 c 0,-0.48 -0.03,-0.9 -0.1,-1.22 l 3.54,0.1 -0.16,1.03 v 0.93 c 0.97,0 2.64,0 4.96,0.06 0.29,-0.06 0.64,-0.1 1.13,-0.13 l -0.29,4.22 c -0.48,-0.13 -0.9,-0.19 -1.19,-0.19 l -4.6,-0.03 v 1.83 c 0.55,0 2.41,0 5.67,0.03 -0.19,0 0.32,-0.03 1.55,-0.13 l -0.26,4.73 z m -9.5,-13.71 c -0.32,-0.29 -0.84,-0.77 -1.51,-1.42 v 1.19 l 0.03,1.74 -2.83,-1.22 c 0.16,-0.23 0.35,-0.52 0.55,-0.8 v -1.32 c -0.61,0.77 -1.32,1.55 -2.19,2.29 l -1.32,-2.83 c 0.35,-0.1 0.68,-0.19 0.97,-0.39 0.35,-0.29 0.84,-0.71 1.45,-1.32 l -1,0.03 c -0.13,0.03 -0.35,0.1 -0.68,0.16 l -0.16,-3.12 c 0.19,0 0.42,0.03 0.64,0.03 h 2.29 v -1.09 c -0.03,-0.16 -0.06,-0.39 -0.06,-0.64 l 2.45,0.06 c -0.06,0.32 -0.06,0.58 -0.06,0.71 v 0.93 h 1.61 c 0.19,0 0.48,0 0.87,-0.06 l -0.23,3.09 c -0.35,-0.06 -1.03,-0.13 -2.03,-0.13 0.26,0.19 0.71,0.52 1.38,0.97 0.16,0.1 0.51,0.19 1,0.32 l -1.16,2.83 z m 9.4,0.42 c -0.35,-0.39 -1.06,-1.06 -2.16,-2 v 1.29 l 0.03,1.96 -2.83,-1.26 c 0.19,-0.26 0.39,-0.52 0.55,-0.77 v -1.45 c -0.64,0.84 -1.32,1.58 -2.09,2.25 l -1.29,-2.83 c 0.19,-0.06 0.52,-0.16 0.97,-0.35 0.51,-0.48 0.97,-0.93 1.32,-1.35 l -1,0.03 c -0.13,0.03 -0.32,0.1 -0.64,0.16 l -0.16,-3.12 c 0.23,0 0.42,0.03 0.68,0.03 h 2.22 c 0,-0.26 0,-0.61 0.03,-1.09 -0.03,-0.16 -0.06,-0.39 -0.1,-0.68 l 2.45,0.06 c -0.03,0.35 -0.06,0.61 -0.06,0.74 v 0.93 h 1.87 c 0.16,0 0.48,0 0.93,-0.06 l -0.19,3.12 c -0.22,-0.03 -0.55,-0.1 -0.87,-0.16 h -1.22 c 0.39,0.29 1,0.71 1.84,1.26 0.26,0.16 0.58,0.29 1,0.39 l -1.26,2.9 z"
         id="path2540"
         style="fill:#65b7ec" />
    </g>
  </g>
</svg>
