<?xml version="1.0" encoding="UTF-8" standalone="no"?>
<!-- Created with Inkscape (http://www.inkscape.org/) -->

<svg
   width="51.871563mm"
   height="7.4268541mm"
   viewBox="0 0 51.871563 7.4268541"
   version="1.1"
   id="svg13019"
   xmlns="http://www.w3.org/2000/svg"
   xmlns:svg="http://www.w3.org/2000/svg">
  <defs
     id="defs13016" />
  <g
     id="layer1"
     transform="translate(-3.8055275,-6.2003369)">
    <g
       id="g2020"
       transform="matrix(0.26458333,0,0,0.26458333,-131.0817,-308.96868)"
       style="fill:#008080">
      <path
         class="cls-39"
         d="m 521.33,1203.65 c -0.35,-0.06 -0.68,-0.13 -0.93,-0.13 h -2.06 v 0.9 c 0.52,0.29 1.13,0.58 1.83,0.87 l 1.29,0.39 -1.13,4.38 c -0.55,-0.42 -1.26,-0.93 -2.12,-1.55 l -0.1,9.5 -4.41,-3.16 c 0.26,-0.32 0.61,-0.74 1.03,-1.22 0.03,-0.9 0.1,-2.32 0.16,-4.19 -0.87,1.13 -1.9,2.29 -3.12,3.51 l -1.96,-4.41 c 0.16,-0.06 0.58,-0.19 1.19,-0.39 1.13,-0.97 2.45,-2.48 3.99,-4.57 v -0.03 c -1,0 -2.06,0.03 -3.22,0.06 l -0.74,0.16 -0.19,-4.44 0.77,0.06 c 0.1,0 1.19,0 3.35,-0.06 0,-0.8 -0.03,-1.64 -0.03,-2.54 -0.58,0.19 -1.61,0.51 -3.12,0.93 l -0.52,-4.28 h 1.29 c 0.19,0 1.13,-0.26 2.83,-0.77 1.9,-0.55 3.38,-1.03 4.51,-1.48 l 1.13,3.28 c -0.19,0.1 -1.13,0.45 -2.77,1.06 0,0.87 0.03,2.12 0.06,3.77 h 1.96 c 0.35,0 0.81,0 1.29,-0.06 z m 0.52,9.62 -0.1,-4.12 0.68,0.06 0.68,-0.03 c 0.45,-3.86 0.8,-7.37 1.06,-10.5 l -0.03,-1.03 4.06,0.32 -0.23,1.09 c -0.26,3.51 -0.61,6.86 -1,10.04 l 3.61,-0.06 c -0.1,-1.03 -0.26,-2.99 -0.48,-5.89 l -0.16,-0.74 3.7,-0.35 v 0.9 c 0,0.32 0.16,2.32 0.52,5.99 l 0.93,-0.06 0.06,4.02 -13.3,0.35 z"
         id="path2006"
         style="fill:#008080" />
      <path
         class="cls-39"
         d="m 560.16,1200.98 c -0.58,-0.13 -1.19,-0.26 -1.87,-0.39 -3.12,-0.03 -6.38,0 -9.72,0.06 l -1.35,17.16 -4.86,-2.8 1.22,-1.83 1.03,-12.36 -1.87,0.06 c -0.16,0.03 -0.64,0.13 -1.45,0.35 l -0.19,-5.7 c 0.77,0.1 1.26,0.13 1.51,0.13 -0.1,0 0.74,-0.03 2.48,-0.06 l 0.19,-2.29 v -1.35 l 4.19,0.32 -0.32,1.29 -0.16,1.93 c 2.06,-0.03 5.31,-0.06 9.76,-0.06 0.06,0 0.68,-0.03 1.8,-0.16 z m 0.8,15.29 c -3.41,0 -6.76,-0.35 -10.01,-1.06 l 0.8,-4.54 c 2.67,0.58 5.41,0.84 8.24,0.77 0.19,0 0.58,-0.06 1.16,-0.23 l -0.19,5.05 z m -0.51,-10.27 -0.64,4.35 -3.22,-0.81 0.39,-1.9 c -1.29,-0.03 -2.9,0 -4.77,0.1 -0.26,0.06 -0.58,0.16 -1.06,0.26 l -0.16,-4.83 c 0.32,0 0.68,0.03 1.09,0.06 2.16,-0.03 4.99,-0.06 8.47,-0.1 z"
         id="path2008"
         style="fill:#008080" />
      <path
         class="cls-39"
         d="m 588.04,1200.81 c -0.55,-0.16 -1.06,-0.26 -1.61,-0.29 -1.58,-0.06 -3.61,-0.1 -6.08,-0.06 l -0.1,2.8 c 4.12,0.29 6.12,2.42 5.99,6.41 -0.13,2.64 -2.03,5.86 -5.8,9.59 l -2.87,-5.67 c 0.42,-0.1 1.06,-0.22 1.9,-0.42 1.51,-1.29 2.25,-2.45 2.25,-3.45 0,-1.38 -1,-2.09 -2.99,-2.09 -0.1,0 -0.93,0.1 -2.54,0.32 l 0.32,-7.41 -3.12,0.13 c -0.52,0.1 -1,0.19 -1.42,0.32 l -0.19,-5.6 c 0.39,0.03 0.9,0.1 1.61,0.16 l 3.32,-0.06 0.13,-2.74 -0.1,-1.19 4.12,0.16 -0.23,1.35 -0.1,2.32 c 1,0 3.12,0 6.41,-0.03 0.42,-0.03 0.87,-0.1 1.42,-0.16 l -0.32,5.6 z"
         id="path2010"
         style="fill:#008080" />
      <path
         class="cls-39"
         d="m 600.17,1215.62 c -0.1,-0.71 -0.26,-1.71 -0.45,-2.96 -0.16,-1.13 -0.26,-3.12 -0.26,-5.89 0,-1.09 0.1,-4.67 0.29,-10.69 l -0.1,-1.22 4.15,0.1 -0.23,1.45 c -0.06,3.54 -0.1,6.5 -0.1,8.95 0,2.06 0.03,3.7 0.06,4.99 l 2.29,-0.48 0.23,4.93 c -0.61,0.13 -2.58,0.42 -5.89,0.84 z m 18.03,-2.8 c -1.19,0.1 -2.22,0.13 -3.12,0.13 -2.32,0 -4.51,-0.23 -6.54,-0.68 -0.29,-0.06 -0.64,-0.16 -1.06,-0.23 l 0.84,-4.89 c 0.23,0.06 0.64,0.19 1.22,0.35 1.71,0.39 3.64,0.58 5.79,0.58 0.9,0 1.9,-0.03 2.93,-0.13 0.06,0 0.45,-0.1 1.19,-0.26 l 0.1,5.05 c -0.32,0 -0.74,0.03 -1.35,0.06 z m 1.03,-10.88 -1.19,4.38 -3.67,-1.51 0.68,-1.55 c -1.55,-0.03 -3.48,0 -5.76,0.06 -0.26,0.06 -0.71,0.13 -1.35,0.26 l -0.1,-5.12 c 0.64,0.06 1.06,0.1 1.22,0.1 5.28,-0.06 8.69,-0.06 10.3,-0.03 z"
         id="path2012"
         style="fill:#008080" />
      <path
         class="cls-39"
         d="m 646.01,1210.18 c -1.83,2.45 -4.6,4.51 -8.24,6.12 l -1.45,-6.08 c 0.42,-0.03 1.13,-0.1 2.12,-0.19 3.7,-1.93 5.51,-3.9 5.47,-5.86 -0.03,-1.67 -1.19,-2.45 -3.44,-2.38 -0.74,0 -1.48,0.06 -2.32,0.19 -1.93,0.29 -4.7,0.87 -8.27,1.71 -0.45,0.19 -1,0.42 -1.61,0.71 l -0.77,-5.99 c 0.52,0 1.13,0 1.83,-0.03 5.54,-1.06 9.34,-1.61 11.3,-1.61 2.16,0 3.96,0.58 5.41,1.71 1.61,1.26 2.38,2.93 2.38,4.99 -0.03,2.38 -0.84,4.6 -2.41,6.73 z"
         id="path2014"
         style="fill:#008080" />
      <path
         class="cls-39"
         d="m 665.48,1212.63 c -0.64,0.19 -3.12,0.61 -7.44,1.29 l -0.68,-3.48 -0.06,-12.72 4.25,0.03 -0.16,1.22 c -0.06,2.45 -0.06,4.54 -0.06,6.25 0,1.29 0,2.35 0.03,3.19 1.38,-0.26 2.8,-0.55 4.25,-0.93 z m 8.34,-1.03 c -0.29,-0.9 -0.58,-1.71 -0.87,-2.41 -0.64,-1.55 -1.96,-4.44 -3.99,-8.66 l 3.8,-1.96 c 0.74,1.29 2.16,3.77 4.25,7.37 0.26,0.35 0.71,0.93 1.35,1.67 z"
         id="path2016"
         style="fill:#008080" />
      <path
         class="cls-39"
         d="m 705.47,1201.1 c -0.35,-0.1 -0.97,-0.23 -1.77,-0.42 l -3.22,-0.06 c -2.42,3.51 -3.67,5.99 -3.8,7.41 -0.1,1.22 0.74,2.25 2.58,3.16 0.48,0.23 1.19,0.39 2.09,0.51 l -2.22,5.73 c -2.06,-1.19 -3.57,-2.38 -4.57,-3.64 -1.22,-1.58 -1.83,-3.38 -1.83,-5.44 0,-1.77 1,-4.31 2.99,-7.66 -0.58,0.03 -3.03,0.16 -7.34,0.39 -0.32,0.1 -0.87,0.26 -1.64,0.42 l -0.19,-6.15 1.77,0.19 c 8.11,-0.16 13.39,-0.23 15.87,-0.23 0.1,0 0.39,0 0.87,-0.06 0.48,-0.03 0.74,-0.06 0.8,-0.06 l -0.39,5.92 z"
         id="path2018"
         style="fill:#008080" />
    </g>
  </g>
</svg>
