<svg width="230" height="33" viewBox="0 0 230 33" fill="none" xmlns="http://www.w3.org/2000/svg">
<path d="M24.35 15.1897C24.14 15.1597 23.44 15.0496 22.25 14.8796H19.2C18.57 21.2196 16.29 26.9596 12.48 32.1396L8.87003 26.4996C9.29003 26.3596 10.03 26.0497 11.04 25.5597C12.86 22.5497 14.05 19.0096 14.65 14.8796C13 14.8796 11.39 14.8797 9.70999 14.9197L9.67001 22.4097L4.56003 20.7997L5.25998 19.0096V15.0197C4.62998 15.0197 3.55 15.0596 1.97 15.1196C1.72 15.1196 1.16 15.2197 0.25 15.4297L0 9.26965C0.25 9.30965 0.909992 9.36971 1.95999 9.44971L5.29001 9.40967V5.55969L5.14999 4.26965L9.91 4.3396L9.73001 5.70972L9.69998 9.34961L15.13 9.30969C15.27 7.13969 15.27 5.69963 15.2 4.99963L15.06 3.59961L19.72 3.66968C19.69 3.97968 19.62 4.43963 19.55 4.99963C19.55 5.97963 19.55 7.37969 19.51 9.30969H22.49C22.7 9.30969 23.43 9.20969 24.7 9.05969L24.35 15.1897Z" fill="#58778D"/>
<path d="M53.5001 8.54028C52.3401 9.56028 51.0501 10.5702 49.6801 11.5902L50.03 30.8103L44.32 28.8502L45.4401 26.7502L45.51 14.4303C43.09 15.9403 40.4301 17.3402 37.5601 18.6002L36.4401 11.6002C37.0001 11.6002 37.7701 11.5603 38.6801 11.5303C43.2701 9.71027 47.19 7.50028 50.48 4.91028L51.36 4.03027L54.58 7.74023C54.27 7.91023 53.9101 8.20029 53.5001 8.55029V8.54028Z" fill="#58778D"/>
<path d="M91.51 26.8202C91.16 26.7202 90.56 26.6101 89.65 26.5001C87.76 26.4301 85.6601 26.4001 83.3801 26.4001C80.1901 26.4001 76.62 26.4701 72.7 26.6501L71.09 27.0402L70.8101 20.7701L72.5601 20.9402L79.2501 20.8401L79.29 14.4302C78.03 14.4702 76.07 14.5001 73.41 14.6101L71.9401 14.9202L71.6901 8.72009L73.1901 8.90015C72.9801 8.90015 75.54 8.8602 80.79 8.8302H89.23C89.69 8.8002 90.25 8.73012 90.95 8.62012L90.64 14.7802C90.22 14.6802 89.62 14.5302 88.82 14.4302C87.98 14.4002 86.26 14.4001 83.57 14.4001L83.53 20.8102C84.86 20.8102 87.0001 20.8101 89.9401 20.8501C90.1501 20.8101 90.78 20.7501 91.83 20.6401L91.52 26.8401L91.51 26.8202Z" fill="#58778D"/>
<path d="M111.56 16.0999C109.91 14.8699 107.71 13.2699 104.84 11.2999L107.47 6.91992C108.66 7.75992 110.97 9.43988 114.37 11.9999L111.57 16.0999H111.56ZM120.21 21.8099C117.76 24.3999 114.89 26.8199 111.6 28.9899C111.32 29.2399 110.86 29.6199 110.27 30.1499L107.64 24.8599C108.34 24.6899 108.83 24.5499 109.15 24.4399C115.03 20.7599 119.9 15.7199 123.78 9.31995L126.9 12.8199C124.66 16.4199 122.42 19.4399 120.21 21.8199V21.8099Z" fill="#58778D"/>
<path d="M157.66 30.14C156.19 28.29 153.74 25.6201 150.34 22.1901C147.85 25.6901 145.05 28.63 141.94 31.05L139.42 24.61C139.8 24.54 140.54 24.4 141.66 24.12C144.43 21.6 146.67 19.08 148.35 16.63C149.43 15.02 150.49 13.09 151.47 10.78C148.53 10.81 145.66 10.8801 142.89 10.9501L141.31 11.3L141.1 4.75L142.85 4.89001L156.78 4.75L156.67 9.08997C156.04 11.79 154.82 14.7301 153.03 17.9501C154.43 19.1001 156.39 20.7501 158.95 22.8201C159.09 22.8901 159.79 23.24 161.09 23.91L157.66 30.14Z" fill="#58778D"/>
<path d="M195.74 22.5801C195.53 22.5101 195.14 22.4001 194.66 22.3301H192.84L192.7 26.5H185.49C185.28 29.27 185 31.4 184.61 32.91L179.18 28.04L181.8 27.62C181.8 27.31 181.84 26.92 181.9 26.54C180.4 26.54 178.5 26.54 176.19 26.61C176.05 26.61 175.73 26.68 175.31 26.78L175.1 23.0701C175.52 23.1101 175.8 23.14 176.01 23.14C177.17 23.14 179.16 23.14 182 23.11L182.04 22.34C179.06 22.37 176.19 22.44 173.39 22.51C173.22 22.51 172.9 22.5801 172.41 22.6901L172.16 18.59C172.65 18.66 172.97 18.6901 173.14 18.6901C175.45 18.6501 178.46 18.65 182.1 18.62V17.88C180.17 17.88 178.25 17.92 176.32 17.98C176.15 17.98 175.9 18.02 175.59 18.12L175.41 14.4401L176.5 14.54C177.13 14.54 179.02 14.54 182.14 14.5V13.42L175.94 13.4601L175.59 7.75L175.45 6.91003L182.07 6.83997V5.82007C179.72 5.86007 177.27 5.88999 174.75 5.98999C174.54 6.02999 174.15 6.13002 173.67 6.27002L173.36 1.82007C173.92 1.89007 174.24 1.93005 174.3 1.93005L182.04 1.85999V1.19006C182.04 0.910064 182 0.49 181.94 0L185.86 0.0700684C185.76 0.700068 185.72 1.09001 185.72 1.26001V1.84998H192.65C192.54 1.84998 192.89 1.78008 193.73 1.71008L193.38 6.12C193.17 6.04999 192.75 5.95 192.15 5.87C189.84 5.83999 187.7 5.80002 185.74 5.77002V6.79004H192.25L192.11 7.70007L191.8 13.41H185.78V14.4601L193.1 14.39L193.07 14.99L192.93 18.6C194.47 18.6 195.52 18.53 196.01 18.39L195.73 22.5601L195.74 22.5801ZM182.12 9.66003C181.31 9.69003 180.4 9.69006 179.39 9.69006L179.46 10.78H182.12V9.66003ZM185.69 22.09C185.65 22.34 185.65 22.69 185.65 23.11L189.5 23.0701L189.53 22.05L185.68 22.09H185.69ZM185.76 17.89V18.84H189.68L189.72 17.89C189.3 17.86 188 17.86 185.76 17.89ZM185.8 9.58997V10.78H188.39L188.46 9.62C187.58 9.62 186.67 9.58008 185.8 9.58008V9.58997Z" fill="#58778D"/>
<path d="M229.52 10.1199C229.34 10.0799 228.89 9.97987 228.26 9.86987C227.45 9.86987 226.23 9.86996 224.65 9.82996C224.55 10.14 224.48 10.4599 224.37 10.8099H226.68C226.99 10.7799 227.41 10.74 227.91 10.71L227.7 14.7399C227.35 14.6299 226.79 14.5599 226.05 14.5599L220.06 14.5199V15.3999L225.03 15.3599C225.38 15.3599 225.76 15.3199 226.22 15.2599L225.94 19.2198C225.2 19.0798 224.71 19.0399 224.47 19.0099H220.09V20.0299L227.34 19.9999C227.62 19.9599 228.08 19.9299 228.63 19.8599L228.32 24.1299C227.86 23.9899 227.41 23.9199 226.96 23.9199C225.38 23.8799 224.02 23.8799 222.9 23.9199C223.11 24.0199 224.19 24.7599 226.19 26.0199C226.37 26.1199 226.93 26.2999 227.91 26.4799L225.81 31.8398C225.11 31.1098 223.22 29.3499 220.14 26.6199V32.6799L215.62 31.0699L216.46 29.3899L216.43 26.3398C214.75 28.5498 212.61 30.4399 210.09 32.0099L208.41 26.9299C208.83 26.8599 209.39 26.7499 210.09 26.6199C211.53 25.7099 212.79 24.8699 213.77 23.9899C211.39 24.0599 209.81 24.0899 208.97 24.1299C208.83 24.1999 208.48 24.2699 207.95 24.3799L207.74 19.9698C208.69 20.0698 209.04 20.1099 208.82 20.1099C210.26 20.1099 212.78 20.1099 216.38 20.0699V19.0499C214.42 19.0499 212.77 19.1199 211.37 19.1899C211.16 19.2299 210.81 19.2899 210.35 19.4399L210.14 15.4099C210.38 15.4099 210.73 15.4399 211.19 15.5099C211.37 15.5399 213.08 15.5099 216.37 15.4399L216.33 14.5299C213.07 14.5699 210.8 14.5999 209.5 14.6699C209.33 14.7099 208.98 14.7699 208.45 14.9199L208.21 10.8599C208.45 10.8599 208.8 10.9 209.26 10.96C209.44 11 210.52 10.9599 212.55 10.8899C212.48 10.4999 212.41 10.1498 212.34 9.83984L207.58 9.97986C207.41 10.0199 207.06 10.1199 206.64 10.2599L206.39 5.52991C206.6 5.52991 206.91 5.59995 207.33 5.69995C207.23 5.65995 209.19 5.62985 213.21 5.59985L213 2.47986L212.86 1.63989L216.82 1.42993V2.2699L216.99 5.52991H219.44L219.48 2.12988L219.44 1.42993L223.4 1.56995L223.26 2.54993L223.16 5.52991L228.62 5.59985C228.8 5.59985 229.18 5.55996 229.85 5.45996L229.5 10.1199H229.52ZM208.65 5.35986C208.34 3.08986 208.13 1.60986 207.98 0.979858L211.38 0.489868C211.38 0.869868 211.48 2.3399 211.66 4.8999L208.65 5.35986ZM215.83 9.79993L215.9 10.8499L221.05 10.8099C221.09 10.5699 221.15 10.2199 221.19 9.79993H215.83ZM226.96 5.45996L224.23 4.68994C224.4 3.66994 224.65 2.23992 225 0.419922L228.22 1.18994C227.97 1.95994 227.55 3.39996 226.96 5.45996Z" fill="#58778D"/>
</svg>

