<svg width="128" height="33" viewBox="0 0 128 33" fill="none" xmlns="http://www.w3.org/2000/svg">
<path d="M23.27 32.2601C22.71 32.1201 22.19 32.0502 21.76 32.0502C14.76 31.8802 8.80997 31.8802 3.90997 32.0902C3.65997 32.1302 3.21001 32.2302 2.51001 32.4402L2.22998 27.2601L3.58997 27.4002C3.13997 27.3602 5.72998 27.3302 11.29 27.3302L11.32 25.7501C10.27 25.7501 8.86999 25.7902 7.04999 25.7902C6.83999 25.7902 6.35002 25.8902 5.58002 26.0402L5.33002 21.5902L6.38 21.7302L11.35 21.6602V20.2202C10.3 20.2202 8.44002 20.2502 5.71002 20.2902C5.25002 21.5202 4.44998 23.0602 3.28998 24.9802L0 21.0202C0.21 20.8102 0.67001 20.4902 1.26001 19.9702C2.31001 17.9702 3.08001 16.0502 3.57001 14.1902C3.57001 14.0502 3.64002 13.7701 3.71002 13.3801L7.39001 14.0502C7.29001 14.4702 7.14999 15.1002 6.92999 15.9402H11.38V14.8202L11.31 13.7002L15.27 13.8002L15.13 14.8202V15.9002L20.77 15.8601C20.91 15.8601 21.44 15.7902 22.38 15.6502L22.03 20.4802C21.64 20.3802 21.19 20.3102 20.66 20.2002L15.09 20.1602L15.05 21.6002L16.63 21.6402C17.12 21.6402 18.28 21.6402 20.1 21.6002C20.27 21.5702 20.7 21.5301 21.39 21.5001L21.08 25.9102C20.45 25.7702 19.96 25.7002 19.64 25.7002H15.02V27.3102C17.37 27.3102 19.75 27.3102 22.23 27.3502C22.37 27.3502 22.61 27.3102 22.93 27.2802C23.24 27.2402 23.49 27.2102 23.66 27.2102L23.24 32.2501L23.27 32.2601ZM21.56 1.3202L21.25 13.1902L5.03998 13.2601L4.47998 0.380141L14.63 0.280166C16.52 0.240166 18.87 0.240205 21.7 0.320205L21.56 1.33021V1.3202ZM8.57001 4.12013L8.60999 5.38014H17.54V4.12013C15.23 4.08013 12.22 4.08013 8.58002 4.12013H8.57001ZM8.60999 8.39015L8.64001 9.62013H17.46L17.49 8.39015H8.59998H8.60999Z" fill="#58778D"/>
<path d="M58.69 13.8895L53.79 10.2795L55.47 9.7196L55.64 7.9696C49.58 7.8996 44.05 7.92958 39.15 8.06958L39.01 12.2695L34.98 11.0095L35.51 9.67957L35.61 4.03955C37.82 3.99955 41.11 3.99958 45.48 3.93958L45.55 1.97961L45.48 1.09961L49.47 1.30957L49.26 2.11951L49.16 3.90955L59.66 3.8396L58.68 13.8895H58.69ZM55.93 31.2495C55.41 31.0795 54.92 31.0095 54.57 31.0095C48.72 30.8695 43.86 30.8996 39.9 31.0796C39.62 31.1496 39.2 31.2495 38.6 31.3895L38.29 26.2795L39.45 26.3795L45.44 26.3396L45.48 23.0796C44.74 23.1196 43.38 23.1496 41.38 23.2196C41.17 23.2196 40.79 23.3195 40.15 23.5295L39.84 18.4196C40.75 18.4896 41.1 18.5195 40.96 18.5195L53.6 18.4196C53.81 18.4196 54.23 18.3495 54.9 18.2795L54.51 23.3895L53.07 23.1095C52.47 23.1095 51.22 23.1096 49.29 23.0696L49.22 26.2896H55.17C55.59 26.2196 56.01 26.1895 56.4 26.1495L55.94 31.2296L55.93 31.2495ZM41.16 17.2096L38.68 13.5996C39.38 13.3196 39.83 13.1095 40.04 12.8595C41.13 11.7795 42 10.7595 42.74 9.77954L45.54 11.6295C44.46 13.4895 42.98 15.3396 41.16 17.1996V17.2096ZM53.86 16.8995C52.67 15.8795 50.88 14.2796 48.54 12.0696L50.85 9.75952C51.66 10.3195 52.74 11.1596 54.07 12.2096C54.42 12.4596 54.98 12.6995 55.75 12.8795L53.86 16.9095V16.8995Z" fill="#58778D"/>
<path d="M93.31 22.6001C93.1 22.5301 92.71 22.43 92.23 22.36H90.41L90.27 26.53H83.06C82.85 29.3 82.57 31.4301 82.18 32.9401L76.75 28.0701L79.37 27.65C79.37 27.33 79.41 26.9501 79.47 26.5601C77.97 26.5601 76.07 26.56 73.76 26.63C73.62 26.63 73.3 26.7 72.88 26.8L72.67 23.0901C73.09 23.1301 73.37 23.16 73.58 23.16C74.74 23.16 76.73 23.16 79.57 23.12L79.61 22.3501C76.63 22.3801 73.76 22.45 70.96 22.52C70.79 22.52 70.47 22.5901 69.98 22.7001L69.73 18.6001C70.22 18.6701 70.54 18.7001 70.71 18.7001C73.02 18.6701 76.03 18.67 79.67 18.63V17.89C77.74 17.89 75.82 17.93 73.89 17.99C73.72 17.99 73.47 18.03 73.16 18.13L72.98 14.4501L74.07 14.55C74.7 14.55 76.59 14.55 79.71 14.51V13.4301L73.51 13.4701L73.16 7.76001L73.02 6.92004L79.64 6.8501V5.83008C77.29 5.87008 74.84 5.9 72.32 6C72.11 6.04 71.72 6.14003 71.24 6.28003L70.93 1.83008C71.49 1.90008 71.81 1.93005 71.87 1.93005L79.61 1.85999V1.19006C79.61 0.910064 79.57 0.49 79.51 0L83.43 0.0700684C83.33 0.700068 83.29 1.09001 83.29 1.26001V1.85999H90.22C90.11 1.85999 90.46 1.79009 91.3 1.72009L90.95 6.13C90.74 6.06 90.32 5.96 89.72 5.88C87.41 5.85 85.27 5.81003 83.31 5.78003V6.80005H89.82L89.68 7.71008L89.37 13.42H83.35V14.4701L90.67 14.4L90.64 15L90.5 18.61C92.04 18.61 93.09 18.54 93.58 18.4L93.3 22.5701L93.31 22.6001ZM79.69 9.69006C78.88 9.73006 77.97 9.7301 76.96 9.7301L77.03 10.8101H79.69V9.69006ZM83.26 22.11C83.22 22.36 83.22 22.71 83.22 23.13L87.07 23.0901L87.1 22.0701L83.25 22.11H83.26ZM83.33 17.91V18.86H87.25L87.29 17.91C86.87 17.88 85.57 17.88 83.33 17.91ZM83.37 9.62V10.8101H85.96L86.03 9.65002C85.15 9.65002 84.24 9.60999 83.37 9.60999V9.62Z" fill="#58778D"/>
<path d="M127.08 10.1401C126.9 10.1001 126.45 10.0001 125.82 9.89014C125.01 9.89014 123.79 9.89022 122.21 9.85022C122.11 10.1602 122.04 10.4802 121.93 10.8302H124.24C124.55 10.7902 124.97 10.7602 125.47 10.7202L125.26 14.7501C124.91 14.6501 124.35 14.5802 123.61 14.5802L117.62 14.5402V15.4202L122.59 15.3801C122.94 15.3801 123.32 15.3402 123.78 15.2802L123.5 19.2401C122.76 19.1001 122.27 19.0702 122.03 19.0302H117.65V20.0502L124.9 20.0201C125.18 19.9801 125.64 19.9501 126.19 19.8801L125.88 24.1501C125.42 24.0101 124.97 23.9402 124.52 23.9402C122.94 23.9002 121.58 23.9002 120.46 23.9402C120.67 24.0402 121.75 24.7802 123.75 26.0402C123.93 26.1402 124.49 26.3201 125.47 26.5001L123.37 31.8601C122.67 31.1301 120.78 29.3701 117.7 26.6401V32.7002L113.18 31.0902L114.02 29.4102L113.99 26.3601C112.31 28.5701 110.17 30.4602 107.65 32.0302L105.97 26.9502C106.39 26.8802 106.95 26.7701 107.65 26.6401C109.09 25.7301 110.35 24.8901 111.33 24.0101C108.95 24.0801 107.37 24.1101 106.53 24.1501C106.39 24.2201 106.04 24.2901 105.51 24.4001L105.3 19.9901C106.25 20.0901 106.6 20.1301 106.38 20.1301C107.82 20.1301 110.34 20.1302 113.94 20.0902V19.0702C111.98 19.0702 110.33 19.1402 108.93 19.2102C108.72 19.2402 108.37 19.3102 107.91 19.4602L107.7 15.4302C107.94 15.4302 108.29 15.4602 108.75 15.5302C108.93 15.5602 110.64 15.5302 113.93 15.4602L113.89 14.5502C110.63 14.5902 108.36 14.6202 107.06 14.6902C106.89 14.7302 106.54 14.7902 106.01 14.9402L105.77 10.8801C106.01 10.8801 106.36 10.9202 106.82 10.9802C107 11.0202 108.08 10.9802 110.11 10.9102C110.04 10.5202 109.97 10.1701 109.9 9.86011L105.14 10.0001C104.97 10.0401 104.62 10.1402 104.2 10.2802L103.95 5.55017C104.16 5.55017 104.47 5.62021 104.89 5.72021C104.79 5.68021 106.75 5.65012 110.77 5.62012L110.56 2.50012L110.42 1.66016L114.38 1.4502V2.29016L114.55 5.55017H117L117.04 2.15015L117 1.4502L120.96 1.59021L120.82 2.57019L120.72 5.55017L126.18 5.62012C126.36 5.62012 126.74 5.58022 127.41 5.48022L127.06 10.1401H127.08ZM106.22 5.38013C105.91 3.11013 105.7 1.63012 105.55 1.00012L108.95 0.510132C108.95 0.890132 109.05 2.36017 109.23 4.92017L106.22 5.38013ZM113.4 9.8302L113.47 10.8801L118.62 10.8502C118.66 10.6002 118.72 10.2502 118.76 9.8302H113.4ZM124.53 5.49011L121.8 4.72021C121.97 3.70021 122.22 2.2702 122.57 0.450195L125.79 1.22021C125.54 1.99021 125.12 3.43011 124.53 5.49011Z" fill="#58778D"/>
</svg>

