<?xml version="1.0" encoding="UTF-8" standalone="no"?>
<!-- Created with Inkscape (http://www.inkscape.org/) -->

<svg
   width="18.362087mm"
   height="21.058189mm"
   viewBox="0 0 18.362087 21.058189"
   version="1.1"
   id="svg4618"
   xmlns="http://www.w3.org/2000/svg"
   xmlns:svg="http://www.w3.org/2000/svg">
  <defs
     id="defs4615" />
  <g
     id="layer1"
     transform="translate(-1.737223,-1.990324)">
    <g
       id="g5291"
       transform="translate(-65.087297,-45.310901)">
      <path
         class="cls-20"
         d="m 67.48598,50.116393 v 8.204729 c 0,0.537104 0.436563,0.976313 0.973667,0.976313 H 83.55148 c 0.537104,0 0.973667,-0.436563 0.973667,-0.976313 v -8.204729"
         id="path1964"
         style="fill:#f6ed36;stroke:#65b7ec;stroke-width:1.32292px;stroke-linecap:round;stroke-linejoin:round" />
      <path
         class="cls-39"
         d="m 79.926688,66.38033 c -0.02117,0.03704 -0.05292,0.04498 -0.08996,0.02117 -0.629708,-0.404812 -1.132417,-0.764646 -1.510771,-1.092729 -0.03704,-0.02117 -0.06615,-0.02117 -0.0979,0.0053 -0.219604,0.198437 -0.693208,0.566208 -1.426104,1.105958 -0.03704,0.02117 -0.06615,0.01852 -0.09525,-0.01852 L 76.399787,65.94378 c -0.02117,-0.03704 -0.01852,-0.0635 0.01323,-0.08467 0.867833,-0.611187 1.516062,-1.124479 1.939396,-1.54252 0.03175,-0.03175 0.05821,-0.03175 0.08996,-0.0053 l 0.378354,0.328083 c 0.03704,0.03175 0.03704,0.05821 0.0053,0.09525 l -0.05027,0.04498 c -0.02646,0.03175 -0.02646,0.05821 0.0053,0.08996 0.373062,0.320146 0.841375,0.637646 1.402291,0.965729 0.03704,0.01852 0.04498,0.05027 0.02117,0.08467 l -0.277813,0.457729 z m -0.732895,1.915584 c -0.0053,0.03969 -0.02646,0.0635 -0.06615,0.0635 h -1.791229 c -0.04498,0 -0.0635,-0.02117 -0.0635,-0.0635 l 0.05292,-1.201209 c 0.0053,-0.04498 0.02646,-0.06615 0.07144,-0.06615 h 1.780646 c 0.04498,0 0.0635,0.02117 0.0635,0.06615 l -0.05027,1.201209 z m 0.0291,-1.825625 c -0.0053,0.03969 -0.02646,0.0635 -0.06615,0.0635 h -1.754188 c -0.04498,0 -0.06615,-0.02117 -0.0635,-0.0635 l 0.02117,-0.320146 c 0,-0.03969 0.02646,-0.0635 0.06615,-0.0635 h 1.759479 c 0.03969,0 0.05821,0.02117 0.05821,0.0635 z m -0.783167,0.965729 H 78.08783 c -0.03969,0 -0.0635,0.02117 -0.06615,0.06615 l -0.01852,0.381 c 0,0.04498 0.01852,0.0635 0.0635,0.0635 h 0.351895 c 0.03969,0 0.0635,-0.01852 0.06879,-0.0635 l 0.01852,-0.381 c 0,-0.04498 -0.01852,-0.06615 -0.0635,-0.06615 z"
         id="path1970"
         style="fill:#58778d;stroke-width:0.264583" />
      <g
         id="g5282">
        <path
           class="cls-39"
           d="m 70.145043,68.295914 c -0.01852,0.03175 -0.05027,0.03969 -0.08467,0.01852 l -0.53181,-0.269874 c -0.03969,-0.02117 -0.05027,-0.05027 -0.03175,-0.08467 0.134938,-0.251354 0.198438,-0.468313 0.198438,-0.648229 -0.0053,-0.0979 -0.05027,-0.174625 -0.134938,-0.230188 -0.07144,-0.04498 -0.161395,-0.06615 -0.264583,-0.06615 -0.03969,0 -0.0635,0.02646 -0.06615,0.07144 -0.01852,0.275167 -0.03704,0.4445 -0.05027,0.518583 -0.02646,0.193146 -0.09789,0.351896 -0.206374,0.468313 -0.121709,0.134937 -0.275167,0.203729 -0.45773,0.206375 -0.238125,0.0053 -0.441854,-0.0635 -0.592666,-0.206375 -0.156104,-0.142875 -0.232834,-0.336021 -0.232834,-0.576792 0.0053,-0.468312 0.283105,-0.796396 0.830792,-0.976312 0.03704,-0.01323 0.05821,-0.03704 0.0635,-0.08202 0,-0.08996 0.0079,-0.251354 0.02117,-0.481542 0,-0.03969 -0.01852,-0.0635 -0.0635,-0.0635 h -0.468313 c -0.03969,0 -0.0635,-0.01852 -0.05821,-0.05821 l 0.01852,-0.365125 c 0,-0.04498 0.02117,-0.06879 0.0635,-0.06879 l 0.468312,0.0079 c 0.03969,0 0.0635,-0.02117 0.0635,-0.06615 l 0.01323,-0.455083 c 0,-0.04498 0.02117,-0.06879 0.06615,-0.06879 l 0.576792,0.0053 c 0.03969,0 0.0635,0.02117 0.0635,0.0635 -0.0053,0.134937 -0.0079,0.288395 -0.01323,0.449791 0,0.02117 0.0053,0.03704 0.01323,0.05027 0.0079,0.0079 0.02646,0.01323 0.04498,0.01323 l 0.669396,-0.0053 c 0.01852,0 0.03704,0.0053 0.04498,0.01323 0.0053,0.01323 0.0079,0.02646 0.0079,0.05292 l -0.01323,0.365125 c -0.0053,0.03969 -0.02646,0.05821 -0.06615,0.05821 l -0.66675,0.0053 c -0.03969,0 -0.0635,0.02117 -0.0635,0.06615 l -0.01852,0.396875 c -0.0053,0.03969 0.01852,0.0635 0.0635,0.0635 0.283104,0.0053 0.52652,0.07673 0.727604,0.216958 0.232833,0.161396 0.351896,0.373063 0.354541,0.642938 0.0053,0.322792 -0.08996,0.661458 -0.288395,1.016 z m -1.592792,-1.201209 c -0.198437,0.0635 -0.306917,0.17198 -0.320146,0.333375 -0.0053,0.156105 0.04498,0.243417 0.161396,0.248709 0.06615,-0.0053 0.108479,-0.04498 0.127,-0.113771 0.02646,-0.103188 0.04498,-0.256646 0.05821,-0.449792 -0.0079,-0.0079 -0.01852,-0.01323 -0.02646,-0.01852 z m 2.500312,-0.899583 c 0,0.04498 -0.01852,0.0635 -0.0635,0.0635 h -0.508 c -0.03969,0 -0.0635,-0.01852 -0.05821,-0.0635 0.01323,-0.277812 0.02117,-0.552979 0.02117,-0.817562 0,-0.04498 0.02117,-0.06615 0.0635,-0.06615 h 0.500062 c 0.03969,0 0.05821,0.02117 0.05821,0.0635 0,0.232833 -0.0053,0.508 -0.01323,0.822854 z"
           id="path1966"
           style="fill:#58778d;stroke-width:0.264583" />
        <path
           class="cls-39"
           d="m 73.298876,66.245393 c 0,0.03969 -0.02117,0.0635 -0.0635,0.0635 h -0.746125 c -0.03969,0 -0.0635,0.02117 -0.06615,0.0635 l -0.05821,1.566333 c 0,0.04498 -0.02117,0.0635 -0.0635,0.0635 l -0.4445,0.0053 c -0.01852,0 -0.03175,-0.0053 -0.04498,-0.01852 -0.0079,-0.0079 -0.01852,-0.02646 -0.01852,-0.04498 l 0.108479,-3.090333 c 0.0053,-0.04498 0.02117,-0.06615 0.06615,-0.06615 h 1.330854 c 0.04498,0 0.06879,0.02117 0.0635,0.06615 l -0.0635,1.394354 z M 72.745897,65.72681 h -0.232834 c -0.04498,0 -0.06615,0.02117 -0.06615,0.0635 v 0.07144 c 0,0.03969 0.02117,0.0635 0.0635,0.0635 H 72.7406 c 0.04498,0 0.0635,-0.02117 0.06615,-0.0635 l 0.0053,-0.07144 c 0.0053,-0.03969 -0.01852,-0.0635 -0.0635,-0.0635 z m 0.02117,-0.560917 h -0.238125 c -0.04498,0 -0.06614,0.02117 -0.06614,0.06615 v 0.07144 c 0,0.03969 0.01852,0.05821 0.0635,0.05821 h 0.238125 c 0.04498,0 0.06614,-0.01852 0.06614,-0.05821 v -0.07144 c 0,-0.04498 -0.02117,-0.06615 -0.0635,-0.06615 z m 1.645709,3.042708 c -0.0053,0.04498 -0.02646,0.06615 -0.06615,0.06615 h -1.299104 c -0.04498,0 -0.06615,-0.02117 -0.0635,-0.06615 l 0.04498,-1.029229 c 0.0053,-0.03969 0.02646,-0.0635 0.07144,-0.0635 h 1.296459 c 0.03969,0 0.0635,0.02117 0.05821,0.0635 l -0.03969,1.029229 z M 73.820109,67.454539 H 73.64813 c -0.04498,0 -0.0635,0.02117 -0.06615,0.06615 l -0.02117,0.359833 c -0.0053,0.03969 0.01852,0.05821 0.05821,0.05821 h 0.171979 c 0.04498,0 0.06615,-0.01852 0.06615,-0.05821 l 0.02117,-0.359833 c 0.0053,-0.04498 -0.01852,-0.06615 -0.05821,-0.06615 z m 1.785938,0.66675 c -0.0053,0.03969 -0.02117,0.05821 -0.06615,0.05821 h -0.4445 c -0.04498,0 -0.0635,-0.02117 -0.0635,-0.0635 l 0.07144,-1.754187 c 0,-0.03969 -0.01852,-0.0635 -0.0635,-0.0635 H 74.2699 c -0.03969,0 -0.05821,-0.02117 -0.05292,-0.0635 l 0.0635,-1.399646 c 0.0053,-0.03969 0.02646,-0.0635 0.07144,-0.0635 h 1.322916 c 0.03969,0 0.05821,0.02117 0.05292,0.0635 l -0.121708,3.283479 z m -0.545042,-2.407708 h -0.251354 c -0.03969,0 -0.0635,0.02117 -0.0635,0.0635 l -0.0053,0.08202 c -0.0053,0.03969 0.01852,0.0635 0.05821,0.0635 h 0.251355 c 0.03969,0 0.0635,-0.02117 0.06615,-0.0635 l 0.0053,-0.08202 c 0,-0.03969 -0.01852,-0.0635 -0.0635,-0.0635 z m 0.02381,-0.558271 h -0.243416 c -0.04498,0 -0.06615,0.02117 -0.06615,0.0635 v 0.07673 c 0,0.03969 0.01852,0.0635 0.05292,0.0635 h 0.246062 c 0.04498,0 0.06615,-0.02117 0.06615,-0.0635 v -0.07673 c 0,-0.03969 -0.02117,-0.0635 -0.05821,-0.0635 z"
           id="path1968"
           style="fill:#58778d;stroke-width:0.264583" />
        <path
           class="cls-39"
           d="m 84.263209,66.427955 c 0,0.03969 -0.02117,0.05821 -0.0635,0.05821 l -0.513292,0.01852 c -0.04498,0.0053 -0.06615,0.02646 -0.07144,0.07144 l -0.02117,0.404813 c -0.0053,0.03969 -0.02646,0.0635 -0.07144,0.0635 h -0.515938 c -0.04498,0 -0.06615,-0.01852 -0.0635,-0.05821 l 0.02646,-0.391583 c 0.0053,-0.01852 0,-0.03704 -0.01323,-0.05027 -0.01323,-0.01323 -0.02646,-0.01852 -0.04498,-0.01852 l -0.386291,0.0079 c -0.03969,0 -0.0635,0.02117 -0.0635,0.07144 -0.01323,0.283104 -0.01852,0.481542 -0.01323,0.584729 0.0053,0.185209 0.0979,0.277813 0.277813,0.283105 0.203729,0.0053 0.423333,-0.0079 0.661458,-0.03175 0.03969,-0.0053 0.0635,0.01852 0.0635,0.05821 l 0.02117,0.534458 c 0.0053,0.04498 -0.01323,0.06879 -0.05821,0.07144 -0.288396,0.02117 -0.52123,0.03704 -0.695855,0.02646 -0.322791,-0.0079 -0.566208,-0.08467 -0.724958,-0.230187 -0.166687,-0.15875 -0.256646,-0.396875 -0.269875,-0.724959 0,-0.08996 0,-0.277812 0.0079,-0.566208 0.0053,-0.01323 0,-0.02646 -0.01323,-0.03704 -0.01323,-0.01323 -0.02646,-0.01852 -0.03969,-0.01852 l -0.531812,0.01323 c -0.01852,0 -0.03704,-0.0079 -0.05027,-0.01852 -0.01323,-0.01323 -0.01852,-0.02646 -0.01852,-0.04498 l 0.0053,-0.381 c 0,-0.04498 0.02117,-0.06615 0.06614,-0.06615 l 0.547688,-0.01323 c 0.03969,0 0.0635,-0.02117 0.0635,-0.0635 l 0.02381,-0.470959 c 0.0053,-0.03969 0.02646,-0.05821 0.06615,-0.05821 h 0.597958 c 0.03969,0 0.0635,0.01852 0.05821,0.05821 0,0.08202 -0.0079,0.230188 -0.02117,0.449792 0,0.01852 0.0079,0.03175 0.01852,0.04498 0.01323,0.0079 0.02646,0.01852 0.04498,0.01852 l 0.391583,-0.0079 c 0.03969,0 0.0635,-0.02117 0.06615,-0.06879 0.0079,-0.187854 0.02646,-0.481542 0.03969,-0.875771 0,-0.04498 0.02117,-0.06615 0.06615,-0.06615 l 0.521229,-0.0053 c 0.01852,0 0.03175,0.0079 0.04498,0.02117 0.01323,0.0079 0.01852,0.02646 0.01852,0.04498 -0.0079,0.251355 -0.02117,0.53975 -0.04498,0.859896 0,0.01852 0.0053,0.03704 0.01852,0.04498 0.01323,0.01323 0.02646,0.02381 0.04498,0.02381 l 0.486833,-0.01852 c 0.01852,0 0.03175,0.0053 0.04498,0.01852 0.01323,0.01323 0.01852,0.03175 0.01852,0.05027 l -0.0053,0.381 z"
           id="path1972"
           style="fill:#58778d;stroke-width:0.264583" />
      </g>
      <path
         class="cls-20"
         d="M 83.55148,47.962685 H 68.459647 c -0.537104,0 -0.973667,0.439208 -0.973667,0.976312 v 1.013355 l 7.895167,4.696354 h 0.0053 c 0.211667,0.132291 0.428625,0.267229 0.61648,0.27252 h 0.0026 c 0,0 0.0026,0 0.0026,0 0.140229,-0.0053 0.291042,-0.08996 0.465667,-0.187854 0.05292,-0.0291 8.051271,-4.78102 8.051271,-4.78102 v -1.013355 c 0,-0.53975 -0.436563,-0.976312 -0.973667,-0.976312 z"
         id="path1976-6"
         style="fill:#f6ed36;stroke:#65b7ec;stroke-width:1.32292px;stroke-linecap:round;stroke-linejoin:round" />
    </g>
  </g>
</svg>
