<?xml version="1.0" encoding="UTF-8" standalone="no"?>
<!-- Created with Inkscape (http://www.inkscape.org/) -->

<svg
   version="1.1"
   id="svg2"
   xml:space="preserve"
   width="2560"
   height="2768"
   viewBox="0 0 2560 2768"
   sodipodi:docname="最新確認ラフ.ai"
   xmlns:inkscape="http://www.inkscape.org/namespaces/inkscape"
   xmlns:sodipodi="http://sodipodi.sourceforge.net/DTD/sodipodi-0.dtd"
   xmlns="http://www.w3.org/2000/svg"
   xmlns:svg="http://www.w3.org/2000/svg"><defs
     id="defs6"><clipPath
       clipPathUnits="userSpaceOnUse"
       id="clipPath16"><path
         d="M 0,2076 H 1920 V 0 H 0 Z"
         id="path14" /></clipPath><clipPath
       clipPathUnits="userSpaceOnUse"
       id="clipPath26"><path
         d="M -103.456,71.3218 H 103.456 V -71.3223 h -206.912 z"
         id="path24" /></clipPath><clipPath
       clipPathUnits="userSpaceOnUse"
       id="clipPath58"><path
         d="M -103.456,71.3218 H 103.456 V -71.3223 h -206.912 z"
         id="path56" /></clipPath><clipPath
       clipPathUnits="userSpaceOnUse"
       id="clipPath90"><path
         d="M -103.456,71.3218 H 103.456 V -71.3223 h -206.912 z"
         id="path88" /></clipPath><clipPath
       clipPathUnits="userSpaceOnUse"
       id="clipPath122"><path
         d="M -103.456,71.3218 H 103.456 V -71.3223 h -206.912 z"
         id="path120" /></clipPath><clipPath
       clipPathUnits="userSpaceOnUse"
       id="clipPath154"><path
         d="M -103.456,71.3218 H 103.456 V -71.3223 h -206.912 z"
         id="path152" /></clipPath><clipPath
       clipPathUnits="userSpaceOnUse"
       id="clipPath186"><path
         d="M -103.456,71.3218 H 103.456 V -71.3223 h -206.912 z"
         id="path184" /></clipPath><clipPath
       clipPathUnits="userSpaceOnUse"
       id="clipPath218"><path
         d="M -103.456,71.3218 H 103.456 V -71.3223 h -206.912 z"
         id="path216" /></clipPath><clipPath
       clipPathUnits="userSpaceOnUse"
       id="clipPath250"><path
         d="M -103.456,71.3218 H 103.456 V -71.3223 h -206.912 z"
         id="path248" /></clipPath></defs><sodipodi:namedview
     id="namedview4"
     pagecolor="#ffffff"
     bordercolor="#666666"
     borderopacity="1.0"
     inkscape:pageshadow="2"
     inkscape:pageopacity="0.0"
     inkscape:pagecheckerboard="0" /><g
     id="g8"
     inkscape:groupmode="layer"
     inkscape:label="最新確認ラフ"
     transform="matrix(1.3333333,0,0,-1.3333333,0,2768)"><g
       id="g10"><g
         id="g12"
         clip-path="url(#clipPath16)"><g
           id="g18"
           transform="matrix(1,0,0,-1,155.18408,142.6438)"><g
             id="g20"><g
               id="g22"
               clip-path="url(#clipPath26)"><text
                 transform="translate(-103.4443,-61.2783)"
                 style="font-variant:normal;font-weight:normal;font-stretch:normal;font-size:12px;font-family:'Myriad Pro';-inkscape-font-specification:MyriadPro-Regular;writing-mode:lr-tb;fill:#231f20;fill-opacity:1;fill-rule:nonzero;stroke:none"
                 id="text48"><tspan
                   x="0 5.9640002 12.624 15.432 20.184 22.728001 25.535999 30.288 32.832001 38.616001 45.276001 47.82 55.164001 61.931999 68.519997 75.348 81.360001 86.388 88.931999 91.800003 94.632004 97.463997 104.076 108.828 112.8 116.724 122.508 126.48 133.06799 136.992 142.02 144.564 150.408 153.216 156.048 162.06 164.604 168.576 175.23599 181.02 184.992 187.536 196.368 202.15199"
                   y="0"
                   sodipodi:role="line"
                   id="tspan28">This is an Adobe® Illustrator® File that was</tspan><tspan
                   x="0 4.7519999 10.536 16.308001 22.32 29.087999 31.632 40.464001 43.271999 47.243999 53.903999 60.492001 67.103996 71.075996 73.620003 80.003998 87.996002 93.839996 96.384003 103.344 109.932 116.592 120.564 126.576 133.23599 137.20799"
                   y="14.4"
                   sodipodi:role="line"
                   id="tspan30">saved without PDF Content.</tspan><tspan
                   x="0 5.9640002 12.552 15.096 21.48 24.312 30.096001 35.472 41.484001 44.028 50.616001 54.540001 57.084 63.672001 70.5 76.512001 83.171997 85.716003 89.688004 96.348 99.155998 103.908 106.452 112.728 115.56 121.572 124.116 126.924 133.584 136.12801 142.716 146.688 153.34801 159.36"
                   y="28.799999"
                   sodipodi:role="line"
                   id="tspan32">To Place or open this fle in other</tspan><tspan
                   x="0 5.7839999 12.612 19.440001 22.271999 25.08 30.455999 36.240002 40.212002 43.02 49.608002 56.268002 61.02 63.504002 66.047997 68.856003 72.828003 75.372002 80.124001 86.783997 93.372002 99.984001 102.816 109.584 112.128 118.956 124.968 127.512 131.436 137.448 141.132 145.884 151.668 157.44 163.452 170.22 172.76401 176.26801 180.192 186.78"
                   y="43.200001"
                   sodipodi:role="line"
                   id="tspan34">applications, it should be re-saved from</tspan><tspan
                   x="0 7.3439999 14.112 20.700001 27.528 33.540001 36.084 38.952 41.784 44.616001 51.228001 55.98 59.952 63.875999 69.660004 73.632004 80.220001 84.143997 86.688004 95.519997 98.328003 102.3 108.96 111.504 115.476 122.136 128.14799 130.692 134.73599 141.696 145.62 151.632 157.416 161.388 167.39999 169.944 176.328 184.32001"
                   y="57.599998"
                   sodipodi:role="line"
                   id="tspan36">Adobe Illustrator with the &quot;Create PDF</tspan><tspan
                   x="0 6.96 13.548 23.556 30.384001 36.167999 40.139999 42.948002 49.776001 52.608002 58.619999 61.164001 67.008003 69.816002 72.648003 78.660004 82.704002 85.248001 91.835999 98.664001 102.636 105.444 112.032 118.692 121.236 125.208 131.82001 135.744 142.40401 148.416 155.18401 157.728 164.31599 170.976 173.46001 176.004 181.968 188.62801 191.436"
                   y="72"
                   sodipodi:role="line"
                   id="tspan38">Compatible File&quot; option turned on. This</tspan><tspan
                   x="0 6.5879998 13.416 17.388 20.195999 26.784 33.444 35.987999 38.796001 43.548 46.091999 48.900002 55.560001 58.104 62.076 68.736 74.748001 77.292 80.160004 82.991997 85.823997 92.435997 97.188004 101.16 105.084 110.868 114.84 121.428 125.352 127.896 135.79201 141.576 145.548 148.356 154.12801 160.14 162.68401 168.528 175.116 179.03999 189.048 194.832"
                   y="86.400002"
                   sodipodi:role="line"
                   id="tspan40">option is in the Illustrator Native Format</tspan><tspan
                   x="0 8.2679996 15.096 19.068001 21.875999 28.464001 35.124001 39.875999 42.419998 49.188 51.995998 57.779999 60.612 67.199997 73.907997 76.452003 83.279999 89.867996 95.424004 97.907997 100.452 109.284 115.944 118.752 124.128 130.78799 133.332 139.116 145.944 152.772 158.784 164.56799 168.492 173.244 175.78799 184.62 191.28 197.29201"
                   y="100.8"
                   sodipodi:role="line"
                   id="tspan42">Options dialog box, which appears when</tspan><tspan
                   x="0 4.7519999 10.536 16.308001 19.115999 25.775999 32.484001 35.028 40.812 47.472 50.015999 57.360001 64.127998 70.716003 77.543999 83.556 86.099998 88.968002 91.800003 94.632004 101.244 105.996 109.968 113.892 119.676 123.648 130.23599 134.16 136.70399 142.98 145.812 151.82401 154.368 160.98 165.73199 168.53999 175.2 181.908 184.452 188.424 195.084"
                   y="115.2"
                   sodipodi:role="line"
                   id="tspan44">saving an Adobe Illustrator fle using the</tspan><tspan
                   x="0 5.9159999 11.7 17.472 23.483999 26.028 33.372002 38.124001 40.667999 46.043999 52.632 62.639999 72.648003 78.431999 85.092003 91.860001"
                   y="129.60001"
                   sodipodi:role="line"
                   id="tspan46">Save As command.</tspan></text></g></g></g><g
           id="g50"
           transform="matrix(1,0,0,-1,155.18408,313.81665)"><g
             id="g52"><g
               id="g54"
               clip-path="url(#clipPath58)"><text
                 transform="translate(-103.4443,-61.2783)"
                 style="font-variant:normal;font-weight:normal;font-stretch:normal;font-size:12px;font-family:'Myriad Pro';-inkscape-font-specification:MyriadPro-Regular;writing-mode:lr-tb;fill:#231f20;fill-opacity:1;fill-rule:nonzero;stroke:none"
                 id="text80"><tspan
                   x="0 5.9640002 12.624 15.432 20.184 22.728001 25.535999 30.288 32.832001 38.616001 45.276001 47.82 55.164001 61.931999 68.519997 75.348 81.360001 86.388 88.931999 91.800003 94.632004 97.463997 104.076 108.828 112.8 116.724 122.508 126.48 133.06799 136.992 142.02 144.564 150.408 153.216 156.048 162.06 164.604 168.576 175.23599 181.02 184.992 187.536 196.368 202.15199"
                   y="0"
                   sodipodi:role="line"
                   id="tspan60">This is an Adobe® Illustrator® File that was</tspan><tspan
                   x="0 4.7519999 10.536 16.308001 22.32 29.087999 31.632 40.464001 43.271999 47.243999 53.903999 60.492001 67.103996 71.075996 73.620003 80.003998 87.996002 93.839996 96.384003 103.344 109.932 116.592 120.564 126.576 133.23599 137.20799"
                   y="14.4"
                   sodipodi:role="line"
                   id="tspan62">saved without PDF Content.</tspan><tspan
                   x="0 5.9640002 12.552 15.096 21.48 24.312 30.096001 35.472 41.484001 44.028 50.616001 54.540001 57.084 63.672001 70.5 76.512001 83.171997 85.716003 89.688004 96.348 99.155998 103.908 106.452 112.728 115.56 121.572 124.116 126.924 133.584 136.12801 142.716 146.688 153.34801 159.36"
                   y="28.799999"
                   sodipodi:role="line"
                   id="tspan64">To Place or open this fle in other</tspan><tspan
                   x="0 5.7839999 12.612 19.440001 22.271999 25.08 30.455999 36.240002 40.212002 43.02 49.608002 56.268002 61.02 63.504002 66.047997 68.856003 72.828003 75.372002 80.124001 86.783997 93.372002 99.984001 102.816 109.584 112.128 118.956 124.968 127.512 131.436 137.448 141.132 145.884 151.668 157.44 163.452 170.22 172.76401 176.26801 180.192 186.78"
                   y="43.200001"
                   sodipodi:role="line"
                   id="tspan66">applications, it should be re-saved from</tspan><tspan
                   x="0 7.3439999 14.112 20.700001 27.528 33.540001 36.084 38.952 41.784 44.616001 51.228001 55.98 59.952 63.875999 69.660004 73.632004 80.220001 84.143997 86.688004 95.519997 98.328003 102.3 108.96 111.504 115.476 122.136 128.14799 130.692 134.73599 141.696 145.62 151.632 157.416 161.388 167.39999 169.944 176.328 184.32001"
                   y="57.599998"
                   sodipodi:role="line"
                   id="tspan68">Adobe Illustrator with the &quot;Create PDF</tspan><tspan
                   x="0 6.96 13.548 23.556 30.384001 36.167999 40.139999 42.948002 49.776001 52.608002 58.619999 61.164001 67.008003 69.816002 72.648003 78.660004 82.704002 85.248001 91.835999 98.664001 102.636 105.444 112.032 118.692 121.236 125.208 131.82001 135.744 142.40401 148.416 155.18401 157.728 164.31599 170.976 173.46001 176.004 181.968 188.62801 191.436"
                   y="72"
                   sodipodi:role="line"
                   id="tspan70">Compatible File&quot; option turned on. This</tspan><tspan
                   x="0 6.5879998 13.416 17.388 20.195999 26.784 33.444 35.987999 38.796001 43.548 46.091999 48.900002 55.560001 58.104 62.076 68.736 74.748001 77.292 80.160004 82.991997 85.823997 92.435997 97.188004 101.16 105.084 110.868 114.84 121.428 125.352 127.896 135.79201 141.576 145.548 148.356 154.12801 160.14 162.68401 168.528 175.116 179.03999 189.048 194.832"
                   y="86.400002"
                   sodipodi:role="line"
                   id="tspan72">option is in the Illustrator Native Format</tspan><tspan
                   x="0 8.2679996 15.096 19.068001 21.875999 28.464001 35.124001 39.875999 42.419998 49.188 51.995998 57.779999 60.612 67.199997 73.907997 76.452003 83.279999 89.867996 95.424004 97.907997 100.452 109.284 115.944 118.752 124.128 130.78799 133.332 139.116 145.944 152.772 158.784 164.56799 168.492 173.244 175.78799 184.62 191.28 197.29201"
                   y="100.8"
                   sodipodi:role="line"
                   id="tspan74">Options dialog box, which appears when</tspan><tspan
                   x="0 4.7519999 10.536 16.308001 19.115999 25.775999 32.484001 35.028 40.812 47.472 50.015999 57.360001 64.127998 70.716003 77.543999 83.556 86.099998 88.968002 91.800003 94.632004 101.244 105.996 109.968 113.892 119.676 123.648 130.23599 134.16 136.70399 142.98 145.812 151.82401 154.368 160.98 165.73199 168.53999 175.2 181.908 184.452 188.424 195.084"
                   y="115.2"
                   sodipodi:role="line"
                   id="tspan76">saving an Adobe Illustrator fle using the</tspan><tspan
                   x="0 5.9159999 11.7 17.472 23.483999 26.028 33.372002 38.124001 40.667999 46.043999 52.632 62.639999 72.648003 78.431999 85.092003 91.860001"
                   y="129.60001"
                   sodipodi:role="line"
                   id="tspan78">Save As command.</tspan></text></g></g></g><g
           id="g82"
           transform="matrix(1,0,0,-1,155.18408,484.9895)"><g
             id="g84"><g
               id="g86"
               clip-path="url(#clipPath90)"><text
                 transform="translate(-103.4443,-61.2783)"
                 style="font-variant:normal;font-weight:normal;font-stretch:normal;font-size:12px;font-family:'Myriad Pro';-inkscape-font-specification:MyriadPro-Regular;writing-mode:lr-tb;fill:#231f20;fill-opacity:1;fill-rule:nonzero;stroke:none"
                 id="text112"><tspan
                   x="0 5.9640002 12.624 15.432 20.184 22.728001 25.535999 30.288 32.832001 38.616001 45.276001 47.82 55.164001 61.931999 68.519997 75.348 81.360001 86.388 88.931999 91.800003 94.632004 97.463997 104.076 108.828 112.8 116.724 122.508 126.48 133.06799 136.992 142.02 144.564 150.408 153.216 156.048 162.06 164.604 168.576 175.23599 181.02 184.992 187.536 196.368 202.15199"
                   y="0"
                   sodipodi:role="line"
                   id="tspan92">This is an Adobe® Illustrator® File that was</tspan><tspan
                   x="0 4.7519999 10.536 16.308001 22.32 29.087999 31.632 40.464001 43.271999 47.243999 53.903999 60.492001 67.103996 71.075996 73.620003 80.003998 87.996002 93.839996 96.384003 103.344 109.932 116.592 120.564 126.576 133.23599 137.20799"
                   y="14.4"
                   sodipodi:role="line"
                   id="tspan94">saved without PDF Content.</tspan><tspan
                   x="0 5.9640002 12.552 15.096 21.48 24.312 30.096001 35.472 41.484001 44.028 50.616001 54.540001 57.084 63.672001 70.5 76.512001 83.171997 85.716003 89.688004 96.348 99.155998 103.908 106.452 112.728 115.56 121.572 124.116 126.924 133.584 136.12801 142.716 146.688 153.34801 159.36"
                   y="28.799999"
                   sodipodi:role="line"
                   id="tspan96">To Place or open this fle in other</tspan><tspan
                   x="0 5.7839999 12.612 19.440001 22.271999 25.08 30.455999 36.240002 40.212002 43.02 49.608002 56.268002 61.02 63.504002 66.047997 68.856003 72.828003 75.372002 80.124001 86.783997 93.372002 99.984001 102.816 109.584 112.128 118.956 124.968 127.512 131.436 137.448 141.132 145.884 151.668 157.44 163.452 170.22 172.76401 176.26801 180.192 186.78"
                   y="43.200001"
                   sodipodi:role="line"
                   id="tspan98">applications, it should be re-saved from</tspan><tspan
                   x="0 7.3439999 14.112 20.700001 27.528 33.540001 36.084 38.952 41.784 44.616001 51.228001 55.98 59.952 63.875999 69.660004 73.632004 80.220001 84.143997 86.688004 95.519997 98.328003 102.3 108.96 111.504 115.476 122.136 128.14799 130.692 134.73599 141.696 145.62 151.632 157.416 161.388 167.39999 169.944 176.328 184.32001"
                   y="57.599998"
                   sodipodi:role="line"
                   id="tspan100">Adobe Illustrator with the &quot;Create PDF</tspan><tspan
                   x="0 6.96 13.548 23.556 30.384001 36.167999 40.139999 42.948002 49.776001 52.608002 58.619999 61.164001 67.008003 69.816002 72.648003 78.660004 82.704002 85.248001 91.835999 98.664001 102.636 105.444 112.032 118.692 121.236 125.208 131.82001 135.744 142.40401 148.416 155.18401 157.728 164.31599 170.976 173.46001 176.004 181.968 188.62801 191.436"
                   y="72"
                   sodipodi:role="line"
                   id="tspan102">Compatible File&quot; option turned on. This</tspan><tspan
                   x="0 6.5879998 13.416 17.388 20.195999 26.784 33.444 35.987999 38.796001 43.548 46.091999 48.900002 55.560001 58.104 62.076 68.736 74.748001 77.292 80.160004 82.991997 85.823997 92.435997 97.188004 101.16 105.084 110.868 114.84 121.428 125.352 127.896 135.79201 141.576 145.548 148.356 154.12801 160.14 162.68401 168.528 175.116 179.03999 189.048 194.832"
                   y="86.400002"
                   sodipodi:role="line"
                   id="tspan104">option is in the Illustrator Native Format</tspan><tspan
                   x="0 8.2679996 15.096 19.068001 21.875999 28.464001 35.124001 39.875999 42.419998 49.188 51.995998 57.779999 60.612 67.199997 73.907997 76.452003 83.279999 89.867996 95.424004 97.907997 100.452 109.284 115.944 118.752 124.128 130.78799 133.332 139.116 145.944 152.772 158.784 164.56799 168.492 173.244 175.78799 184.62 191.28 197.29201"
                   y="100.8"
                   sodipodi:role="line"
                   id="tspan106">Options dialog box, which appears when</tspan><tspan
                   x="0 4.7519999 10.536 16.308001 19.115999 25.775999 32.484001 35.028 40.812 47.472 50.015999 57.360001 64.127998 70.716003 77.543999 83.556 86.099998 88.968002 91.800003 94.632004 101.244 105.996 109.968 113.892 119.676 123.648 130.23599 134.16 136.70399 142.98 145.812 151.82401 154.368 160.98 165.73199 168.53999 175.2 181.908 184.452 188.424 195.084"
                   y="115.2"
                   sodipodi:role="line"
                   id="tspan108">saving an Adobe Illustrator fle using the</tspan><tspan
                   x="0 5.9159999 11.7 17.472 23.483999 26.028 33.372002 38.124001 40.667999 46.043999 52.632 62.639999 72.648003 78.431999 85.092003 91.860001"
                   y="129.60001"
                   sodipodi:role="line"
                   id="tspan110">Save As command.</tspan></text></g></g></g><g
           id="g114"
           transform="matrix(1,0,0,-1,155.18408,656.16235)"><g
             id="g116"><g
               id="g118"
               clip-path="url(#clipPath122)"><text
                 transform="translate(-103.4443,-61.2783)"
                 style="font-variant:normal;font-weight:normal;font-stretch:normal;font-size:12px;font-family:'Myriad Pro';-inkscape-font-specification:MyriadPro-Regular;writing-mode:lr-tb;fill:#231f20;fill-opacity:1;fill-rule:nonzero;stroke:none"
                 id="text144"><tspan
                   x="0 5.9640002 12.624 15.432 20.184 22.728001 25.535999 30.288 32.832001 38.616001 45.276001 47.82 55.164001 61.931999 68.519997 75.348 81.360001 86.388 88.931999 91.800003 94.632004 97.463997 104.076 108.828 112.8 116.724 122.508 126.48 133.06799 136.992 142.02 144.564 150.408 153.216 156.048 162.06 164.604 168.576 175.23599 181.02 184.992 187.536 196.368 202.15199"
                   y="0"
                   sodipodi:role="line"
                   id="tspan124">This is an Adobe® Illustrator® File that was</tspan><tspan
                   x="0 4.7519999 10.536 16.308001 22.32 29.087999 31.632 40.464001 43.271999 47.243999 53.903999 60.492001 67.103996 71.075996 73.620003 80.003998 87.996002 93.839996 96.384003 103.344 109.932 116.592 120.564 126.576 133.23599 137.20799"
                   y="14.4"
                   sodipodi:role="line"
                   id="tspan126">saved without PDF Content.</tspan><tspan
                   x="0 5.9640002 12.552 15.096 21.48 24.312 30.096001 35.472 41.484001 44.028 50.616001 54.540001 57.084 63.672001 70.5 76.512001 83.171997 85.716003 89.688004 96.348 99.155998 103.908 106.452 112.728 115.56 121.572 124.116 126.924 133.584 136.12801 142.716 146.688 153.34801 159.36"
                   y="28.799999"
                   sodipodi:role="line"
                   id="tspan128">To Place or open this fle in other</tspan><tspan
                   x="0 5.7839999 12.612 19.440001 22.271999 25.08 30.455999 36.240002 40.212002 43.02 49.608002 56.268002 61.02 63.504002 66.047997 68.856003 72.828003 75.372002 80.124001 86.783997 93.372002 99.984001 102.816 109.584 112.128 118.956 124.968 127.512 131.436 137.448 141.132 145.884 151.668 157.44 163.452 170.22 172.76401 176.26801 180.192 186.78"
                   y="43.200001"
                   sodipodi:role="line"
                   id="tspan130">applications, it should be re-saved from</tspan><tspan
                   x="0 7.3439999 14.112 20.700001 27.528 33.540001 36.084 38.952 41.784 44.616001 51.228001 55.98 59.952 63.875999 69.660004 73.632004 80.220001 84.143997 86.688004 95.519997 98.328003 102.3 108.96 111.504 115.476 122.136 128.14799 130.692 134.73599 141.696 145.62 151.632 157.416 161.388 167.39999 169.944 176.328 184.32001"
                   y="57.599998"
                   sodipodi:role="line"
                   id="tspan132">Adobe Illustrator with the &quot;Create PDF</tspan><tspan
                   x="0 6.96 13.548 23.556 30.384001 36.167999 40.139999 42.948002 49.776001 52.608002 58.619999 61.164001 67.008003 69.816002 72.648003 78.660004 82.704002 85.248001 91.835999 98.664001 102.636 105.444 112.032 118.692 121.236 125.208 131.82001 135.744 142.40401 148.416 155.18401 157.728 164.31599 170.976 173.46001 176.004 181.968 188.62801 191.436"
                   y="72"
                   sodipodi:role="line"
                   id="tspan134">Compatible File&quot; option turned on. This</tspan><tspan
                   x="0 6.5879998 13.416 17.388 20.195999 26.784 33.444 35.987999 38.796001 43.548 46.091999 48.900002 55.560001 58.104 62.076 68.736 74.748001 77.292 80.160004 82.991997 85.823997 92.435997 97.188004 101.16 105.084 110.868 114.84 121.428 125.352 127.896 135.79201 141.576 145.548 148.356 154.12801 160.14 162.68401 168.528 175.116 179.03999 189.048 194.832"
                   y="86.400002"
                   sodipodi:role="line"
                   id="tspan136">option is in the Illustrator Native Format</tspan><tspan
                   x="0 8.2679996 15.096 19.068001 21.875999 28.464001 35.124001 39.875999 42.419998 49.188 51.995998 57.779999 60.612 67.199997 73.907997 76.452003 83.279999 89.867996 95.424004 97.907997 100.452 109.284 115.944 118.752 124.128 130.78799 133.332 139.116 145.944 152.772 158.784 164.56799 168.492 173.244 175.78799 184.62 191.28 197.29201"
                   y="100.8"
                   sodipodi:role="line"
                   id="tspan138">Options dialog box, which appears when</tspan><tspan
                   x="0 4.7519999 10.536 16.308001 19.115999 25.775999 32.484001 35.028 40.812 47.472 50.015999 57.360001 64.127998 70.716003 77.543999 83.556 86.099998 88.968002 91.800003 94.632004 101.244 105.996 109.968 113.892 119.676 123.648 130.23599 134.16 136.70399 142.98 145.812 151.82401 154.368 160.98 165.73199 168.53999 175.2 181.908 184.452 188.424 195.084"
                   y="115.2"
                   sodipodi:role="line"
                   id="tspan140">saving an Adobe Illustrator fle using the</tspan><tspan
                   x="0 5.9159999 11.7 17.472 23.483999 26.028 33.372002 38.124001 40.667999 46.043999 52.632 62.639999 72.648003 78.431999 85.092003 91.860001"
                   y="129.60001"
                   sodipodi:role="line"
                   id="tspan142">Save As command.</tspan></text></g></g></g><g
           id="g146"
           transform="matrix(1,0,0,-1,413.82422,142.6438)"><g
             id="g148"><g
               id="g150"
               clip-path="url(#clipPath154)"><text
                 transform="translate(-103.4443,-61.2783)"
                 style="font-variant:normal;font-weight:normal;font-stretch:normal;font-size:12px;font-family:'Myriad Pro';-inkscape-font-specification:MyriadPro-Regular;writing-mode:lr-tb;fill:#231f20;fill-opacity:1;fill-rule:nonzero;stroke:none"
                 id="text176"><tspan
                   x="0 5.9640002 12.624 15.432 20.184 22.728001 25.535999 30.288 32.832001 38.616001 45.276001 47.82 55.164001 61.931999 68.519997 75.348 81.360001 86.388 88.931999 91.800003 94.632004 97.463997 104.076 108.828 112.8 116.724 122.508 126.48 133.06799 136.992 142.02 144.564 150.408 153.216 156.048 162.06 164.604 168.576 175.23599 181.02 184.992 187.536 196.368 202.15199"
                   y="0"
                   sodipodi:role="line"
                   id="tspan156">This is an Adobe® Illustrator® File that was</tspan><tspan
                   x="0 4.7519999 10.536 16.308001 22.32 29.087999 31.632 40.464001 43.271999 47.243999 53.903999 60.492001 67.103996 71.075996 73.620003 80.003998 87.996002 93.839996 96.384003 103.344 109.932 116.592 120.564 126.576 133.23599 137.20799"
                   y="14.4"
                   sodipodi:role="line"
                   id="tspan158">saved without PDF Content.</tspan><tspan
                   x="0 5.9640002 12.552 15.096 21.48 24.312 30.096001 35.472 41.484001 44.028 50.616001 54.540001 57.084 63.672001 70.5 76.512001 83.171997 85.716003 89.688004 96.348 99.155998 103.908 106.452 112.728 115.56 121.572 124.116 126.924 133.584 136.12801 142.716 146.688 153.34801 159.36"
                   y="28.799999"
                   sodipodi:role="line"
                   id="tspan160">To Place or open this fle in other</tspan><tspan
                   x="0 5.7839999 12.612 19.440001 22.271999 25.08 30.455999 36.240002 40.212002 43.02 49.608002 56.268002 61.02 63.504002 66.047997 68.856003 72.828003 75.372002 80.124001 86.783997 93.372002 99.984001 102.816 109.584 112.128 118.956 124.968 127.512 131.436 137.448 141.132 145.884 151.668 157.44 163.452 170.22 172.76401 176.26801 180.192 186.78"
                   y="43.200001"
                   sodipodi:role="line"
                   id="tspan162">applications, it should be re-saved from</tspan><tspan
                   x="0 7.3439999 14.112 20.700001 27.528 33.540001 36.084 38.952 41.784 44.616001 51.228001 55.98 59.952 63.875999 69.660004 73.632004 80.220001 84.143997 86.688004 95.519997 98.328003 102.3 108.96 111.504 115.476 122.136 128.14799 130.692 134.73599 141.696 145.62 151.632 157.416 161.388 167.39999 169.944 176.328 184.32001"
                   y="57.599998"
                   sodipodi:role="line"
                   id="tspan164">Adobe Illustrator with the &quot;Create PDF</tspan><tspan
                   x="0 6.96 13.548 23.556 30.384001 36.167999 40.139999 42.948002 49.776001 52.608002 58.619999 61.164001 67.008003 69.816002 72.648003 78.660004 82.704002 85.248001 91.835999 98.664001 102.636 105.444 112.032 118.692 121.236 125.208 131.82001 135.744 142.40401 148.416 155.18401 157.728 164.31599 170.976 173.46001 176.004 181.968 188.62801 191.436"
                   y="72"
                   sodipodi:role="line"
                   id="tspan166">Compatible File&quot; option turned on. This</tspan><tspan
                   x="0 6.5879998 13.416 17.388 20.195999 26.784 33.444 35.987999 38.796001 43.548 46.091999 48.900002 55.560001 58.104 62.076 68.736 74.748001 77.292 80.160004 82.991997 85.823997 92.435997 97.188004 101.16 105.084 110.868 114.84 121.428 125.352 127.896 135.79201 141.576 145.548 148.356 154.12801 160.14 162.68401 168.528 175.116 179.03999 189.048 194.832"
                   y="86.400002"
                   sodipodi:role="line"
                   id="tspan168">option is in the Illustrator Native Format</tspan><tspan
                   x="0 8.2679996 15.096 19.068001 21.875999 28.464001 35.124001 39.875999 42.419998 49.188 51.995998 57.779999 60.612 67.199997 73.907997 76.452003 83.279999 89.867996 95.424004 97.907997 100.452 109.284 115.944 118.752 124.128 130.78799 133.332 139.116 145.944 152.772 158.784 164.56799 168.492 173.244 175.78799 184.62 191.28 197.29201"
                   y="100.8"
                   sodipodi:role="line"
                   id="tspan170">Options dialog box, which appears when</tspan><tspan
                   x="0 4.7519999 10.536 16.308001 19.115999 25.775999 32.484001 35.028 40.812 47.472 50.015999 57.360001 64.127998 70.716003 77.543999 83.556 86.099998 88.968002 91.800003 94.632004 101.244 105.996 109.968 113.892 119.676 123.648 130.23599 134.16 136.70399 142.98 145.812 151.82401 154.368 160.98 165.73199 168.53999 175.2 181.908 184.452 188.424 195.084"
                   y="115.2"
                   sodipodi:role="line"
                   id="tspan172">saving an Adobe Illustrator fle using the</tspan><tspan
                   x="0 5.9159999 11.7 17.472 23.483999 26.028 33.372002 38.124001 40.667999 46.043999 52.632 62.639999 72.648003 78.431999 85.092003 91.860001"
                   y="129.60001"
                   sodipodi:role="line"
                   id="tspan174">Save As command.</tspan></text></g></g></g><g
           id="g178"
           transform="matrix(1,0,0,-1,413.82422,313.81665)"><g
             id="g180"><g
               id="g182"
               clip-path="url(#clipPath186)"><text
                 transform="translate(-103.4443,-61.2783)"
                 style="font-variant:normal;font-weight:normal;font-stretch:normal;font-size:12px;font-family:'Myriad Pro';-inkscape-font-specification:MyriadPro-Regular;writing-mode:lr-tb;fill:#231f20;fill-opacity:1;fill-rule:nonzero;stroke:none"
                 id="text208"><tspan
                   x="0 5.9640002 12.624 15.432 20.184 22.728001 25.535999 30.288 32.832001 38.616001 45.276001 47.82 55.164001 61.931999 68.519997 75.348 81.360001 86.388 88.931999 91.800003 94.632004 97.463997 104.076 108.828 112.8 116.724 122.508 126.48 133.06799 136.992 142.02 144.564 150.408 153.216 156.048 162.06 164.604 168.576 175.23599 181.02 184.992 187.536 196.368 202.15199"
                   y="0"
                   sodipodi:role="line"
                   id="tspan188">This is an Adobe® Illustrator® File that was</tspan><tspan
                   x="0 4.7519999 10.536 16.308001 22.32 29.087999 31.632 40.464001 43.271999 47.243999 53.903999 60.492001 67.103996 71.075996 73.620003 80.003998 87.996002 93.839996 96.384003 103.344 109.932 116.592 120.564 126.576 133.23599 137.20799"
                   y="14.4"
                   sodipodi:role="line"
                   id="tspan190">saved without PDF Content.</tspan><tspan
                   x="0 5.9640002 12.552 15.096 21.48 24.312 30.096001 35.472 41.484001 44.028 50.616001 54.540001 57.084 63.672001 70.5 76.512001 83.171997 85.716003 89.688004 96.348 99.155998 103.908 106.452 112.728 115.56 121.572 124.116 126.924 133.584 136.12801 142.716 146.688 153.34801 159.36"
                   y="28.799999"
                   sodipodi:role="line"
                   id="tspan192">To Place or open this fle in other</tspan><tspan
                   x="0 5.7839999 12.612 19.440001 22.271999 25.08 30.455999 36.240002 40.212002 43.02 49.608002 56.268002 61.02 63.504002 66.047997 68.856003 72.828003 75.372002 80.124001 86.783997 93.372002 99.984001 102.816 109.584 112.128 118.956 124.968 127.512 131.436 137.448 141.132 145.884 151.668 157.44 163.452 170.22 172.76401 176.26801 180.192 186.78"
                   y="43.200001"
                   sodipodi:role="line"
                   id="tspan194">applications, it should be re-saved from</tspan><tspan
                   x="0 7.3439999 14.112 20.700001 27.528 33.540001 36.084 38.952 41.784 44.616001 51.228001 55.98 59.952 63.875999 69.660004 73.632004 80.220001 84.143997 86.688004 95.519997 98.328003 102.3 108.96 111.504 115.476 122.136 128.14799 130.692 134.73599 141.696 145.62 151.632 157.416 161.388 167.39999 169.944 176.328 184.32001"
                   y="57.599998"
                   sodipodi:role="line"
                   id="tspan196">Adobe Illustrator with the &quot;Create PDF</tspan><tspan
                   x="0 6.96 13.548 23.556 30.384001 36.167999 40.139999 42.948002 49.776001 52.608002 58.619999 61.164001 67.008003 69.816002 72.648003 78.660004 82.704002 85.248001 91.835999 98.664001 102.636 105.444 112.032 118.692 121.236 125.208 131.82001 135.744 142.40401 148.416 155.18401 157.728 164.31599 170.976 173.46001 176.004 181.968 188.62801 191.436"
                   y="72"
                   sodipodi:role="line"
                   id="tspan198">Compatible File&quot; option turned on. This</tspan><tspan
                   x="0 6.5879998 13.416 17.388 20.195999 26.784 33.444 35.987999 38.796001 43.548 46.091999 48.900002 55.560001 58.104 62.076 68.736 74.748001 77.292 80.160004 82.991997 85.823997 92.435997 97.188004 101.16 105.084 110.868 114.84 121.428 125.352 127.896 135.79201 141.576 145.548 148.356 154.12801 160.14 162.68401 168.528 175.116 179.03999 189.048 194.832"
                   y="86.400002"
                   sodipodi:role="line"
                   id="tspan200">option is in the Illustrator Native Format</tspan><tspan
                   x="0 8.2679996 15.096 19.068001 21.875999 28.464001 35.124001 39.875999 42.419998 49.188 51.995998 57.779999 60.612 67.199997 73.907997 76.452003 83.279999 89.867996 95.424004 97.907997 100.452 109.284 115.944 118.752 124.128 130.78799 133.332 139.116 145.944 152.772 158.784 164.56799 168.492 173.244 175.78799 184.62 191.28 197.29201"
                   y="100.8"
                   sodipodi:role="line"
                   id="tspan202">Options dialog box, which appears when</tspan><tspan
                   x="0 4.7519999 10.536 16.308001 19.115999 25.775999 32.484001 35.028 40.812 47.472 50.015999 57.360001 64.127998 70.716003 77.543999 83.556 86.099998 88.968002 91.800003 94.632004 101.244 105.996 109.968 113.892 119.676 123.648 130.23599 134.16 136.70399 142.98 145.812 151.82401 154.368 160.98 165.73199 168.53999 175.2 181.908 184.452 188.424 195.084"
                   y="115.2"
                   sodipodi:role="line"
                   id="tspan204">saving an Adobe Illustrator fle using the</tspan><tspan
                   x="0 5.9159999 11.7 17.472 23.483999 26.028 33.372002 38.124001 40.667999 46.043999 52.632 62.639999 72.648003 78.431999 85.092003 91.860001"
                   y="129.60001"
                   sodipodi:role="line"
                   id="tspan206">Save As command.</tspan></text></g></g></g><g
           id="g210"
           transform="matrix(1,0,0,-1,413.82422,484.9895)"><g
             id="g212"><g
               id="g214"
               clip-path="url(#clipPath218)"><text
                 transform="translate(-103.4443,-61.2783)"
                 style="font-variant:normal;font-weight:normal;font-stretch:normal;font-size:12px;font-family:'Myriad Pro';-inkscape-font-specification:MyriadPro-Regular;writing-mode:lr-tb;fill:#231f20;fill-opacity:1;fill-rule:nonzero;stroke:none"
                 id="text240"><tspan
                   x="0 5.9640002 12.624 15.432 20.184 22.728001 25.535999 30.288 32.832001 38.616001 45.276001 47.82 55.164001 61.931999 68.519997 75.348 81.360001 86.388 88.931999 91.800003 94.632004 97.463997 104.076 108.828 112.8 116.724 122.508 126.48 133.06799 136.992 142.02 144.564 150.408 153.216 156.048 162.06 164.604 168.576 175.23599 181.02 184.992 187.536 196.368 202.15199"
                   y="0"
                   sodipodi:role="line"
                   id="tspan220">This is an Adobe® Illustrator® File that was</tspan><tspan
                   x="0 4.7519999 10.536 16.308001 22.32 29.087999 31.632 40.464001 43.271999 47.243999 53.903999 60.492001 67.103996 71.075996 73.620003 80.003998 87.996002 93.839996 96.384003 103.344 109.932 116.592 120.564 126.576 133.23599 137.20799"
                   y="14.4"
                   sodipodi:role="line"
                   id="tspan222">saved without PDF Content.</tspan><tspan
                   x="0 5.9640002 12.552 15.096 21.48 24.312 30.096001 35.472 41.484001 44.028 50.616001 54.540001 57.084 63.672001 70.5 76.512001 83.171997 85.716003 89.688004 96.348 99.155998 103.908 106.452 112.728 115.56 121.572 124.116 126.924 133.584 136.12801 142.716 146.688 153.34801 159.36"
                   y="28.799999"
                   sodipodi:role="line"
                   id="tspan224">To Place or open this fle in other</tspan><tspan
                   x="0 5.7839999 12.612 19.440001 22.271999 25.08 30.455999 36.240002 40.212002 43.02 49.608002 56.268002 61.02 63.504002 66.047997 68.856003 72.828003 75.372002 80.124001 86.783997 93.372002 99.984001 102.816 109.584 112.128 118.956 124.968 127.512 131.436 137.448 141.132 145.884 151.668 157.44 163.452 170.22 172.76401 176.26801 180.192 186.78"
                   y="43.200001"
                   sodipodi:role="line"
                   id="tspan226">applications, it should be re-saved from</tspan><tspan
                   x="0 7.3439999 14.112 20.700001 27.528 33.540001 36.084 38.952 41.784 44.616001 51.228001 55.98 59.952 63.875999 69.660004 73.632004 80.220001 84.143997 86.688004 95.519997 98.328003 102.3 108.96 111.504 115.476 122.136 128.14799 130.692 134.73599 141.696 145.62 151.632 157.416 161.388 167.39999 169.944 176.328 184.32001"
                   y="57.599998"
                   sodipodi:role="line"
                   id="tspan228">Adobe Illustrator with the &quot;Create PDF</tspan><tspan
                   x="0 6.96 13.548 23.556 30.384001 36.167999 40.139999 42.948002 49.776001 52.608002 58.619999 61.164001 67.008003 69.816002 72.648003 78.660004 82.704002 85.248001 91.835999 98.664001 102.636 105.444 112.032 118.692 121.236 125.208 131.82001 135.744 142.40401 148.416 155.18401 157.728 164.31599 170.976 173.46001 176.004 181.968 188.62801 191.436"
                   y="72"
                   sodipodi:role="line"
                   id="tspan230">Compatible File&quot; option turned on. This</tspan><tspan
                   x="0 6.5879998 13.416 17.388 20.195999 26.784 33.444 35.987999 38.796001 43.548 46.091999 48.900002 55.560001 58.104 62.076 68.736 74.748001 77.292 80.160004 82.991997 85.823997 92.435997 97.188004 101.16 105.084 110.868 114.84 121.428 125.352 127.896 135.79201 141.576 145.548 148.356 154.12801 160.14 162.68401 168.528 175.116 179.03999 189.048 194.832"
                   y="86.400002"
                   sodipodi:role="line"
                   id="tspan232">option is in the Illustrator Native Format</tspan><tspan
                   x="0 8.2679996 15.096 19.068001 21.875999 28.464001 35.124001 39.875999 42.419998 49.188 51.995998 57.779999 60.612 67.199997 73.907997 76.452003 83.279999 89.867996 95.424004 97.907997 100.452 109.284 115.944 118.752 124.128 130.78799 133.332 139.116 145.944 152.772 158.784 164.56799 168.492 173.244 175.78799 184.62 191.28 197.29201"
                   y="100.8"
                   sodipodi:role="line"
                   id="tspan234">Options dialog box, which appears when</tspan><tspan
                   x="0 4.7519999 10.536 16.308001 19.115999 25.775999 32.484001 35.028 40.812 47.472 50.015999 57.360001 64.127998 70.716003 77.543999 83.556 86.099998 88.968002 91.800003 94.632004 101.244 105.996 109.968 113.892 119.676 123.648 130.23599 134.16 136.70399 142.98 145.812 151.82401 154.368 160.98 165.73199 168.53999 175.2 181.908 184.452 188.424 195.084"
                   y="115.2"
                   sodipodi:role="line"
                   id="tspan236">saving an Adobe Illustrator fle using the</tspan><tspan
                   x="0 5.9159999 11.7 17.472 23.483999 26.028 33.372002 38.124001 40.667999 46.043999 52.632 62.639999 72.648003 78.431999 85.092003 91.860001"
                   y="129.60001"
                   sodipodi:role="line"
                   id="tspan238">Save As command.</tspan></text></g></g></g><g
           id="g242"
           transform="matrix(1,0,0,-1,413.82422,656.16235)"><g
             id="g244"><g
               id="g246"
               clip-path="url(#clipPath250)"><text
                 transform="translate(-103.4443,-61.2783)"
                 style="font-variant:normal;font-weight:normal;font-stretch:normal;font-size:12px;font-family:'Myriad Pro';-inkscape-font-specification:MyriadPro-Regular;writing-mode:lr-tb;fill:#231f20;fill-opacity:1;fill-rule:nonzero;stroke:none"
                 id="text272"><tspan
                   x="0 5.9640002 12.624 15.432 20.184 22.728001 25.535999 30.288 32.832001 38.616001 45.276001 47.82 55.164001 61.931999 68.519997 75.348 81.360001 86.388 88.931999 91.800003 94.632004 97.463997 104.076 108.828 112.8 116.724 122.508 126.48 133.06799 136.992 142.02 144.564 150.408 153.216 156.048 162.06 164.604 168.576 175.23599 181.02 184.992 187.536 196.368 202.15199"
                   y="0"
                   sodipodi:role="line"
                   id="tspan252">This is an Adobe® Illustrator® File that was</tspan><tspan
                   x="0 4.7519999 10.536 16.308001 22.32 29.087999 31.632 40.464001 43.271999 47.243999 53.903999 60.492001 67.103996 71.075996 73.620003 80.003998 87.996002 93.839996 96.384003 103.344 109.932 116.592 120.564 126.576 133.23599 137.20799"
                   y="14.4"
                   sodipodi:role="line"
                   id="tspan254">saved without PDF Content.</tspan><tspan
                   x="0 5.9640002 12.552 15.096 21.48 24.312 30.096001 35.472 41.484001 44.028 50.616001 54.540001 57.084 63.672001 70.5 76.512001 83.171997 85.716003 89.688004 96.348 99.155998 103.908 106.452 112.728 115.56 121.572 124.116 126.924 133.584 136.12801 142.716 146.688 153.34801 159.36"
                   y="28.799999"
                   sodipodi:role="line"
                   id="tspan256">To Place or open this fle in other</tspan><tspan
                   x="0 5.7839999 12.612 19.440001 22.271999 25.08 30.455999 36.240002 40.212002 43.02 49.608002 56.268002 61.02 63.504002 66.047997 68.856003 72.828003 75.372002 80.124001 86.783997 93.372002 99.984001 102.816 109.584 112.128 118.956 124.968 127.512 131.436 137.448 141.132 145.884 151.668 157.44 163.452 170.22 172.76401 176.26801 180.192 186.78"
                   y="43.200001"
                   sodipodi:role="line"
                   id="tspan258">applications, it should be re-saved from</tspan><tspan
                   x="0 7.3439999 14.112 20.700001 27.528 33.540001 36.084 38.952 41.784 44.616001 51.228001 55.98 59.952 63.875999 69.660004 73.632004 80.220001 84.143997 86.688004 95.519997 98.328003 102.3 108.96 111.504 115.476 122.136 128.14799 130.692 134.73599 141.696 145.62 151.632 157.416 161.388 167.39999 169.944 176.328 184.32001"
                   y="57.599998"
                   sodipodi:role="line"
                   id="tspan260">Adobe Illustrator with the &quot;Create PDF</tspan><tspan
                   x="0 6.96 13.548 23.556 30.384001 36.167999 40.139999 42.948002 49.776001 52.608002 58.619999 61.164001 67.008003 69.816002 72.648003 78.660004 82.704002 85.248001 91.835999 98.664001 102.636 105.444 112.032 118.692 121.236 125.208 131.82001 135.744 142.40401 148.416 155.18401 157.728 164.31599 170.976 173.46001 176.004 181.968 188.62801 191.436"
                   y="72"
                   sodipodi:role="line"
                   id="tspan262">Compatible File&quot; option turned on. This</tspan><tspan
                   x="0 6.5879998 13.416 17.388 20.195999 26.784 33.444 35.987999 38.796001 43.548 46.091999 48.900002 55.560001 58.104 62.076 68.736 74.748001 77.292 80.160004 82.991997 85.823997 92.435997 97.188004 101.16 105.084 110.868 114.84 121.428 125.352 127.896 135.79201 141.576 145.548 148.356 154.12801 160.14 162.68401 168.528 175.116 179.03999 189.048 194.832"
                   y="86.400002"
                   sodipodi:role="line"
                   id="tspan264">option is in the Illustrator Native Format</tspan><tspan
                   x="0 8.2679996 15.096 19.068001 21.875999 28.464001 35.124001 39.875999 42.419998 49.188 51.995998 57.779999 60.612 67.199997 73.907997 76.452003 83.279999 89.867996 95.424004 97.907997 100.452 109.284 115.944 118.752 124.128 130.78799 133.332 139.116 145.944 152.772 158.784 164.56799 168.492 173.244 175.78799 184.62 191.28 197.29201"
                   y="100.8"
                   sodipodi:role="line"
                   id="tspan266">Options dialog box, which appears when</tspan><tspan
                   x="0 4.7519999 10.536 16.308001 19.115999 25.775999 32.484001 35.028 40.812 47.472 50.015999 57.360001 64.127998 70.716003 77.543999 83.556 86.099998 88.968002 91.800003 94.632004 101.244 105.996 109.968 113.892 119.676 123.648 130.23599 134.16 136.70399 142.98 145.812 151.82401 154.368 160.98 165.73199 168.53999 175.2 181.908 184.452 188.424 195.084"
                   y="115.2"
                   sodipodi:role="line"
                   id="tspan268">saving an Adobe Illustrator fle using the</tspan><tspan
                   x="0 5.9159999 11.7 17.472 23.483999 26.028 33.372002 38.124001 40.667999 46.043999 52.632 62.639999 72.648003 78.431999 85.092003 91.860001"
                   y="129.60001"
                   sodipodi:role="line"
                   id="tspan270">Save As command.</tspan></text></g></g></g></g></g></g></svg>
