<?xml version="1.0" encoding="UTF-8" standalone="no"?>
<!-- Created with Inkscape (http://www.inkscape.org/) -->

<svg
   width="26.065557mm"
   height="23.8125mm"
   viewBox="0 0 26.065557 23.8125"
   version="1.1"
   id="svg5324"
   xmlns="http://www.w3.org/2000/svg"
   xmlns:svg="http://www.w3.org/2000/svg">
  <defs
     id="defs5321" />
  <g
     id="layer1"
     transform="translate(-1.3449337,-1.086877)">
    <g
       id="g5698"
       transform="translate(-12.472083,-10.139001)">
      <g
         id="g5681">
        <path
           class="cls-39"
           d="m 17.14355,32.993149 c 0,0.04498 -0.02117,0.06615 -0.0635,0.06615 h -0.52123 c -0.03969,0 -0.0635,0.01852 -0.07144,0.0635 -0.103188,0.576791 -0.264583,1.161521 -0.489479,1.759479 -0.01323,0.03704 -0.03969,0.05027 -0.08202,0.03704 l -0.579438,-0.216959 c -0.03969,-0.01852 -0.05292,-0.04498 -0.03704,-0.08467 0.187854,-0.463021 0.333375,-0.963084 0.431271,-1.497542 0.0079,-0.03969 -0.0079,-0.05821 -0.05292,-0.05821 h -0.521229 c -0.03969,0 -0.0635,0.01852 -0.06879,0.0635 l -0.03704,0.637645 c 0,0.04498 -0.02117,0.0635 -0.06614,0.0635 h -0.597959 c -0.04498,0 -0.0635,-0.01852 -0.0635,-0.05821 l 0.03969,-0.642937 c 0.0053,-0.04498 -0.01852,-0.0635 -0.0635,-0.0635 h -0.418042 c -0.04498,0 -0.06879,-0.02117 -0.0635,-0.0635 l 0.02117,-0.381 c 0,-0.04498 0.02117,-0.06615 0.0635,-0.06615 h 0.423333 c 0.04498,0 0.06615,-0.01852 0.07144,-0.05821 l 0.04498,-0.777875 c 0,-0.04498 0.02117,-0.06879 0.0635,-0.06879 l 0.597958,0.0053 c 0.04498,0 0.0635,0.02117 0.0635,0.06615 l -0.04498,0.772584 c -0.0053,0.03969 0.01852,0.05821 0.0635,0.05821 h 0.566208 c 0.03969,0 0.0635,-0.02117 0.06615,-0.0635 0.03704,-0.309563 0.0635,-0.611188 0.08467,-0.907521 0,-0.03969 0.02646,-0.05821 0.06615,-0.05821 l 0.616479,0.0053 c 0.03969,0 0.0635,0.02117 0.05821,0.0635 -0.02117,0.373063 -0.04498,0.674688 -0.07144,0.904875 -0.0053,0.03969 0.01323,0.05821 0.05821,0.05821 h 0.463021 c 0.04498,0 0.06879,0.02117 0.0635,0.0635 l -0.01852,0.381 z"
           id="path1828"
           style="fill:#58778d;stroke-width:0.264583" />
        <path
           class="cls-39"
           d="m 21.551508,33.141316 c -0.0053,0.03969 -0.02646,0.0635 -0.06615,0.0635 l -2.958042,-0.0053 c -0.03969,0 -0.05821,-0.02381 -0.05821,-0.0635 l 0.02117,-0.404813 c 0.0053,-0.03969 0.02646,-0.05821 0.07144,-0.05821 l 2.955396,-0.0053 c 0.04498,0 0.0635,0.01852 0.0635,0.0635 l -0.02646,0.410105 z"
           id="path1830"
           style="fill:#58778d;stroke-width:0.264583" />
        <path
           class="cls-39"
           d="m 25.581112,32.538066 c -0.404813,0.193145 -0.875771,0.391583 -1.412875,0.597958 -0.03969,0.01323 -0.05821,0.04498 -0.0635,0.08996 l -0.02646,0.751417 c 0,0.01852 0.0079,0.03175 0.02381,0.03969 0.01323,0.01323 0.02646,0.01852 0.04498,0.01852 0.142875,0 0.53975,-0.02117 1.190625,-0.05821 0.01852,0 0.03704,0.0053 0.04498,0.01852 0.01323,0.0079 0.01852,0.02117 0.01852,0.03969 l -0.01323,0.5715 c 0,0.03969 -0.02117,0.0635 -0.0635,0.06615 -0.423333,0.02646 -1.092729,0.03704 -2.016125,0.03704 -0.03969,0 -0.0635,-0.02117 -0.0635,-0.06879 l -0.0053,-0.425979 0.08467,-2.436813 c 0.0053,-0.03969 0.02646,-0.0635 0.06615,-0.0635 h 0.695854 c 0.03969,0 0.0635,0.01852 0.0635,0.05821 l -0.02117,0.637646 c 0,0.01323 0.0053,0.02646 0.01852,0.03704 0.0079,0.0079 0.02117,0.0079 0.03969,0.0053 0.251354,-0.103188 0.621771,-0.264583 1.105958,-0.481542 0.03704,-0.01852 0.06615,-0.0053 0.08467,0.03175 l 0.230187,0.455084 c 0.01852,0.03704 0.0079,0.0635 -0.03175,0.08202 z m 0.275167,-0.67998 c -0.0053,0.04498 -0.02646,0.06879 -0.07144,0.06879 l -0.264583,-0.0053 c -0.04498,0 -0.0635,-0.02117 -0.05821,-0.06615 l 0.03969,-0.45773 c 0,-0.03969 0.02117,-0.05821 0.06615,-0.05821 h 0.264583 c 0.03969,0 0.05821,0.02117 0.05821,0.0635 l -0.03704,0.457729 z m 0.534458,0 c -0.0053,0.04498 -0.02646,0.06879 -0.07144,0.06879 l -0.264583,-0.0053 c -0.03969,0 -0.0635,-0.02117 -0.05821,-0.06615 l 0.04498,-0.45773 c 0,-0.03969 0.02117,-0.05821 0.0635,-0.05821 h 0.264583 c 0.03969,0 0.05821,0.02117 0.05821,0.0635 l -0.03704,0.457729 z"
           id="path1832"
           style="fill:#58778d;stroke-width:0.264583" />
        <path
           class="cls-39"
           d="m 29.719195,34.755274 c -0.03175,0.03704 -0.0635,0.03704 -0.09525,0 -0.01852,-0.01323 -0.232833,-0.248708 -0.648229,-0.693208 -0.03175,-0.03704 -0.0635,-0.03704 -0.08467,0 -0.211666,0.275166 -0.425979,0.531812 -0.637645,0.769937 -0.03175,0.03175 -0.05821,0.03704 -0.09525,0.0053 L 27.689838,34.40074 c -0.03175,-0.02646 -0.03704,-0.05821 -0.0079,-0.08467 0.674687,-0.746125 1.156229,-1.434042 1.444625,-2.055813 0.01852,-0.03969 0.0053,-0.05821 -0.03969,-0.05821 h -1.074208 c -0.04498,0 -0.0635,-0.01852 -0.05821,-0.0635 l 0.01852,-0.386292 c 0.0053,-0.03969 0.02646,-0.05821 0.06615,-0.05821 h 2.010833 c 0.03969,0 0.0635,0.01852 0.05821,0.05821 l -0.01323,0.185208 c -0.0053,0.04498 -0.01323,0.08996 -0.03175,0.129646 -0.174625,0.418042 -0.396875,0.841375 -0.656167,1.264709 -0.02117,0.03969 -0.02117,0.07144 0.0053,0.09789 0.0053,0.0053 0.256645,0.269875 0.759354,0.796396 0.02646,0.03175 0.02646,0.0635 0,0.09525 l -0.449792,0.436563 z"
           id="path1834"
           style="fill:#58778d;stroke-width:0.264583" />
        <path
           class="cls-39"
           d="m 35.185487,34.82142 c 0,0.04498 -0.02117,0.06615 -0.06879,0.06615 h -0.621771 c -0.03969,0 -0.0635,-0.02117 -0.0635,-0.0635 l 0.06615,-2.286 c 0,-0.04498 -0.02117,-0.0635 -0.06615,-0.0635 h -0.52652 c -0.03969,0 -0.06615,0.03175 -0.08202,0.09789 -0.0053,0.05027 -0.0079,0.0979 -0.01852,0.148167 -0.0053,0.04498 0.0053,0.08467 0.02117,0.121708 0.140229,0.219605 0.328083,0.455084 0.566208,0.693209 0.03175,0.02646 0.03175,0.05821 0,0.08467 l -0.351896,0.367771 c -0.02646,0.03175 -0.05821,0.03175 -0.08996,0 -0.129646,-0.121708 -0.264584,-0.269875 -0.399521,-0.4445 -0.02646,-0.03175 -0.05027,-0.03175 -0.07144,0.0079 -0.08467,0.140229 -0.198437,0.296333 -0.333375,0.463021 -0.02646,0.03704 -0.05821,0.03704 -0.08996,0.0053 L 32.619029,33.64667 c -0.03704,-0.02646 -0.03704,-0.05821 -0.0079,-0.08996 0.277813,-0.341312 0.4445,-0.679979 0.508,-1.021291 0.0079,-0.04498 -0.0079,-0.0635 -0.05292,-0.0635 h -0.428625 c -0.04498,0 -0.06614,0.01852 -0.06614,0.0635 l -0.0635,2.262187 c 0,0.03969 -0.02117,0.0635 -0.0635,0.0635 h -0.60325 c -0.03969,0 -0.0635,-0.02117 -0.0635,-0.06615 l 0.07673,-2.704041 c 0,-0.03969 0.02117,-0.0635 0.0635,-0.0635 h 1.169458 c 0.04498,0 0.06615,-0.02117 0.07144,-0.06615 0.0079,-0.129646 0.01852,-0.346604 0.03704,-0.642938 0,-0.04498 0.02117,-0.06614 0.0635,-0.06614 l 0.648229,0.0053 c 0.03969,0 0.05821,0.02117 0.05821,0.0635 0,0.108479 -0.01323,0.322792 -0.03969,0.642938 -0.0053,0.04498 0.01852,0.06615 0.05821,0.06615 l 1.209145,-0.0053 c 0.04498,0 0.06615,0.02117 0.06615,0.06879 l -0.08202,2.725208 z"
           id="path1836"
           style="fill:#58778d;stroke-width:0.264583" />
        <path
           class="cls-39"
           d="m 39.813049,32.075045 c 0,0.03969 -0.02646,0.05821 -0.06615,0.05821 h -0.53975 c -0.04498,0 -0.0635,-0.01852 -0.05821,-0.0635 l 0.03175,-0.248708 c 0.0053,-0.04498 -0.01323,-0.06615 -0.05821,-0.06615 h -2.153708 c -0.03969,0 -0.0635,0.02117 -0.06615,0.06615 l -0.03704,0.261937 c -0.0053,0.03969 -0.03175,0.0635 -0.07673,0.0635 h -0.534458 c -0.04498,0 -0.0635,-0.02117 -0.05821,-0.0635 l 0.05821,-0.693208 c 0.0053,-0.03969 0.02646,-0.05821 0.07144,-0.05821 h 1.254125 c 0.04498,0 0.06879,-0.02117 0.07144,-0.0635 l 0.02117,-0.264584 c 0,-0.03969 0.02646,-0.0635 0.06879,-0.0635 l 0.656166,0.0053 c 0.03969,0 0.05821,0.01852 0.05821,0.05821 l -0.02646,0.264584 c -0.0053,0.03969 0.01323,0.0635 0.05292,0.0635 h 1.341438 c 0.03969,0 0.0635,0.01852 0.05821,0.05821 l -0.06615,0.682625 z m -0.386291,2.055812 c -0.02117,0.03704 -0.05027,0.04498 -0.08467,0.02646 -0.545042,-0.314855 -0.994833,-0.629709 -1.344083,-0.939271 -0.03175,-0.03175 -0.0635,-0.03175 -0.09525,0 -0.309563,0.301625 -0.714375,0.629708 -1.209146,0.976312 -0.03969,0.02646 -0.06615,0.02117 -0.09525,-0.0079 l -0.275167,-0.404813 c -0.02117,-0.03704 -0.01852,-0.06615 0.01323,-0.08996 0.635,-0.449792 1.161521,-0.904875 1.579563,-1.367896 0.03704,-0.03175 0.06615,-0.03704 0.0979,-0.01323 l 0.359833,0.291042 c 0.03704,0.02646 0.03969,0.05821 0.0079,0.08996 l -0.01323,0.01323 c -0.02117,0.02646 -0.01852,0.05292 0.01852,0.08467 0.296333,0.256646 0.719667,0.534458 1.259417,0.836083 0.03704,0.02117 0.04498,0.05027 0.02117,0.08467 l -0.243416,0.418041 z m -2.307167,-1.431396 c -0.03704,0.03704 -0.0635,0.03704 -0.09525,0.0053 l -0.243417,-0.230187 c -0.03175,-0.03175 -0.03175,-0.05821 -0.0053,-0.08996 0.111125,-0.113771 0.243416,-0.251354 0.381,-0.418041 0.02646,-0.02646 0.05821,-0.03175 0.08996,-0.0079 l 0.264583,0.203729 c 0.03175,0.02646 0.03704,0.05821 0.0079,0.08996 -0.121708,0.153458 -0.256646,0.301625 -0.404813,0.449791 z m 1.621896,2.275417 c -0.0053,0.03969 -0.02646,0.0635 -0.06615,0.0635 h -1.457854 c -0.04498,0 -0.0635,-0.02117 -0.0635,-0.0635 l 0.04498,-1.039812 c 0.0053,-0.03969 0.02646,-0.0635 0.06615,-0.0635 h 1.465791 c 0.04498,0 0.0635,0.02117 0.0635,0.0635 z m -0.637646,-0.719667 h -0.230188 c -0.04498,0 -0.06614,0.02117 -0.07144,0.0635 l -0.01323,0.269875 c -0.0053,0.04498 0.01852,0.06615 0.0635,0.06615 h 0.232833 c 0.04498,0 0.0635,-0.02117 0.06615,-0.06615 l 0.01323,-0.269875 c 0.0053,-0.03969 -0.01852,-0.0635 -0.0635,-0.0635 z m 0.923396,-1.524 c -0.02646,0.03704 -0.05821,0.03969 -0.08996,0.01323 -0.127,-0.103188 -0.283104,-0.251355 -0.473604,-0.4445 -0.02646,-0.03175 -0.02646,-0.05821 0.0053,-0.08996 l 0.251354,-0.230187 c 0.03175,-0.02646 0.0635,-0.02646 0.0979,0.0053 0.148167,0.148167 0.291042,0.277813 0.431271,0.381 0.03175,0.02117 0.03704,0.05292 0.0079,0.08467 l -0.232833,0.277813 z"
           id="path1838"
           style="fill:#58778d;stroke-width:0.264583" />
      </g>
      <path
         class="cls-30"
         d="m 26.742633,28.749232 c -3.413125,0 -6.19125,-2.778125 -6.19125,-6.19125 0,-2.513541 1.516062,-4.7625 3.812646,-5.717645 v -5.614459 h 4.757208 v 5.614459 c 2.296583,0.955145 3.812646,3.201458 3.812646,5.717645 0,3.413125 -2.778125,6.19125 -6.19125,6.19125 z M 25.485862,12.350358 v 5.281083 l -0.381,0.129646 c -2.053167,0.6985 -3.431646,2.627312 -3.431646,4.796895 0,2.794 2.272771,5.066771 5.066771,5.066771 2.794,0 5.066771,-2.272771 5.066771,-5.066771 0,-2.169583 -1.378479,-4.098395 -3.431646,-4.796895 l -0.381,-0.129646 v -5.281083 h -2.510896 z"
         id="path1844"
         style="fill:#65b7ec;stroke-width:0.264583" />
      <g
         id="g5685">
        <path
           class="cls-31"
           d="m 25.485862,12.350358 v 5.281083 l -0.381,0.129646 c -2.053167,0.6985 -3.431646,2.627312 -3.431646,4.796895 0,2.794 2.272771,5.066771 5.066771,5.066771 2.794,0 5.066771,-2.272771 5.066771,-5.066771 0,-2.169583 -1.378479,-4.098395 -3.431646,-4.796895 l -0.381,-0.129646 v -5.281083 h -2.510896 z"
           id="path1842"
           style="fill:#f6ed36;stroke-width:0.264583" />
        <path
           class="cls-30"
           d="m 30.944216,21.597545 -0.05821,-0.248708 H 22.59661 l -0.05821,0.248708 c -0.07408,0.320146 -0.111125,0.650875 -0.111125,0.981604 0,2.378604 1.934104,4.315354 4.315354,4.315354 2.38125,0 4.315354,-1.934104 4.315354,-4.315354 0,-0.330729 -0.03704,-0.661458 -0.111125,-0.981604 z m -4.939771,3.952875 c -0.275166,0 -0.494771,-0.22225 -0.494771,-0.494771 0,-0.272521 0.22225,-0.494771 0.494771,-0.494771 0.272521,0 0.494771,0.22225 0.494771,0.494771 0,0.272521 -0.22225,0.494771 -0.494771,0.494771 z m 1.80975,-1.576917 c -0.418041,0 -0.759354,-0.338666 -0.759354,-0.759354 0,-0.420687 0.338667,-0.759354 0.759354,-0.759354 0.420688,0 0.759354,0.338667 0.759354,0.759354 0,0.420688 -0.338666,0.759354 -0.759354,0.759354 z"
           id="path1846"
           style="fill:#65b7ec;stroke-width:0.264583" />
      </g>
    </g>
  </g>
</svg>
