<svg width="992" height="200" viewBox="0 0 992 200" fill="none" xmlns="http://www.w3.org/2000/svg">
<path d="M979.29 0H12.71C5.69045 0 0 5.69042 0 12.71V187.29C0 194.31 5.69045 200 12.71 200H979.29C986.31 200 992 194.31 992 187.29V12.71C992 5.69042 986.31 0 979.29 0Z" fill="white"/>
<path d="M891 130C891 143.75 879.75 155 866 155H316C302.25 155 291 143.75 291 130C291 116.25 302.25 105 316 105H866C879.75 105 891 116.25 891 130Z" fill="#65B7EC"/>
<path d="M488.24 124.32H477.08V121.17H488.24V124.32ZM487.18 141.57H481.72V142.57H478.32V132.91H487.17V141.57H487.18ZM478.44 125.15H487.23V128.16H478.44V125.15ZM478.44 128.99H487.23V132H478.44V128.99ZM487.18 120.36H478.52V117.35H487.18V120.36ZM481.73 136.06V138.43H483.73V136.06H481.73ZM503.6 136.92H497.76V142.99H493.75V136.92H487.79V133.25H493.75V131.08H489.32V127.49H493.75V125.4H488.71V121.75H490.88C490.55 120.55 489.99 119.02 489.38 117.85L492.64 116.65C493.47 118.07 494.23 119.91 494.5 121.19L493.05 121.75H498.23L496.95 121.33C497.59 119.99 498.37 117.96 498.73 116.46L502.68 117.57C501.9 119.1 501.12 120.6 500.45 121.74H503.12V125.39H497.75V127.48H502.48V131.07H497.75V133.24H503.59V136.91L503.6 136.92Z" fill="white"/>
<path d="M521.28 122.29C521.14 125.21 520.95 131.22 520.95 134.29C520.95 136.96 522.48 137.8 524.37 137.8C528.68 137.8 531.61 135.27 533.64 132.15L536.7 135.91C534.97 138.58 530.83 142.42 524.34 142.42C519.47 142.42 516.44 140.22 516.44 135.35C516.44 131.84 516.69 124.38 516.69 122.3C516.69 120.8 516.55 119.27 516.27 118.01L521.7 118.07C521.51 119.38 521.34 121.08 521.28 122.3V122.29Z" fill="white"/>
<path d="M560.91 122.65C559.16 123.96 555.68 126.63 553.92 128.16C552.56 129.33 552.61 129.58 553.95 130.78C555.79 132.37 561.27 136.62 564.05 139.27L560.1 142.92C559.21 141.92 558.29 140.94 557.37 140.03C555.84 138.42 551.83 134.99 549.3 132.82C546.46 130.37 546.63 128.7 549.58 126.28C551.81 124.47 555.4 121.52 557.26 119.74C558.21 118.82 559.21 117.85 559.71 117.1L563.63 120.58C562.6 121.33 561.65 122.06 560.9 122.67L560.91 122.65Z" fill="white"/>
<path d="M581.98 121.56C581.65 123.01 580.67 129.49 580.67 132.08C580.67 132.16 580.67 132.61 580.7 132.72C581.03 131.91 581.4 131.38 581.76 130.55L583.79 132.19C582.96 134.69 582.12 137.51 581.79 139.12C581.71 139.51 581.62 140.15 581.62 140.43C581.62 140.74 581.62 141.24 581.65 141.68L577.84 141.96C577.26 140.07 576.7 136.81 576.7 133.03C576.7 128.77 577.48 123.54 577.79 121.48C577.9 120.65 578.07 119.36 578.1 118.33L582.75 118.72C582.5 119.33 582.11 121.06 582 121.56H581.98ZM596.06 120.23C596.03 120.76 596 121.68 595.98 122.85C597.4 122.68 598.76 122.49 600.02 122.21V126.41C598.77 126.58 597.4 126.74 595.96 126.83C596.02 129.39 596.15 131.37 596.24 133.04C598.61 134.01 600.33 135.46 601.58 136.63L599.3 140.16C598.27 139.19 597.27 138.35 596.32 137.63C595.96 140.25 594.23 141.86 590.59 141.86C586.67 141.86 584.08 140.19 584.08 137.05C584.08 133.91 586.64 131.93 590.54 131.93C591.01 131.93 591.49 131.96 591.93 131.99C591.85 130.51 591.76 128.82 591.74 127.06C591.21 127.09 590.68 127.09 590.18 127.09C588.51 127.09 586.84 127.03 585.2 126.92L585.17 122.91C586.78 123.08 588.45 123.16 590.15 123.16C590.68 123.16 591.18 123.16 591.71 123.13C591.68 121.82 591.68 120.79 591.65 120.29C591.65 119.87 591.54 118.95 591.43 118.37H596.24C596.16 118.9 596.1 119.62 596.07 120.23H596.06ZM590.19 137.87C591.53 137.87 592.05 137.15 592.05 135.62V135.43C591.44 135.26 590.83 135.18 590.19 135.18C588.88 135.18 588.02 135.68 588.02 136.57C588.02 137.54 588.99 137.88 590.19 137.88V137.87Z" fill="white"/>
<path d="M617.27 120.39H631.46C632.35 120.39 633.69 120.33 634.1 120.31C634.07 120.98 634.02 122.2 634.02 123.12V137.56C634.02 138.51 634.08 140.09 634.16 141.18H629.26C629.26 140.71 629.29 140.23 629.29 139.79H617.07C616.01 139.79 614.26 139.869 613.26 139.979V135.17C614.35 135.25 615.63 135.339 616.93 135.339H629.32V124.76H617.27C616.02 124.76 614.46 124.82 613.6 124.87V120.189C614.71 120.299 616.27 120.38 617.27 120.38V120.39Z" fill="white"/>
<path d="M658.55 119.56C661.5 119.11 664.06 118.53 665.48 117.83L668.24 121.53C667.1 121.81 666.26 122.03 665.76 122.14C664.45 122.47 663.03 122.75 661.56 122.97V126.84H668.21C668.79 126.84 670.27 126.73 670.91 126.67V130.98C670.08 130.92 669.1 130.87 668.29 130.87H661.42C660.89 135.3 658.89 139.39 654.3 142.2L649.99 139.31C654.11 137.45 656.25 134.58 656.92 130.88H649.63C648.8 130.88 647.71 130.94 646.96 130.99V126.68C647.79 126.76 648.71 126.85 649.6 126.85H657.11V123.54C654.52 123.73 651.79 123.85 650.04 123.87L648.98 120C651.12 120.03 655.46 120.03 658.55 119.55V119.56Z" fill="white"/>
<path d="M703.47 128.49C702.55 131.16 701.38 133.78 699.32 136.09C696.56 139.18 692.95 141.21 689.38 142.24L686.01 138.43C690.35 137.51 693.58 135.67 695.58 133.67C696.94 132.31 697.7 130.91 698.17 129.63H685.51C684.81 129.63 683.23 129.66 681.98 129.77V125.43C683.26 125.54 684.57 125.62 685.51 125.62H698.76C699.82 125.62 700.65 125.48 701.1 125.29L704.08 127.15C703.86 127.57 703.58 128.15 703.47 128.49ZM687.72 118.81H698.27C699.16 118.81 700.75 118.75 701.55 118.64V122.98C700.77 122.92 699.27 122.87 698.21 122.87H687.72C686.77 122.87 685.44 122.9 684.6 122.98V118.64C685.38 118.75 686.74 118.81 687.72 118.81Z" fill="white"/>
<path d="M342.77 75.7496L339.58 72.8196C344.48 71.2396 346.47 69.1496 346.47 63.7196V62.8596H341.32V65.7596C341.32 66.9396 341.39 67.8696 341.44 68.4696H337.3C337.37 67.8696 337.45 66.9296 337.45 65.7596V62.8596H335.68C334.36 62.8596 333.62 62.9096 332.91 62.9596V59.0197C333.47 59.1197 334.36 59.2797 335.68 59.2797H337.45V57.2897C337.45 56.4997 337.38 55.7296 337.28 54.8896H341.5C341.43 55.4696 341.33 56.2797 341.33 57.3097V59.2797H346.48V57.0197C346.48 56.0397 346.43 55.2396 346.33 54.6396H350.55C350.48 55.2596 350.38 56.0297 350.38 57.0197V59.2797H351.68C353.1 59.2797 353.79 59.2296 354.65 59.0896V62.9297C353.96 62.8597 353.11 62.8596 351.71 62.8596H350.39V63.6296C350.39 69.3196 348.89 73.1296 342.79 75.7496H342.77Z" fill="#58778D"/>
<path d="M378.25 60.0796C380.73 58.5896 383.72 55.9997 385.26 54.1797L388.47 57.1797C386.63 58.9297 384.25 60.7996 381.92 62.3196V71.7797C381.92 72.9297 381.97 74.5896 382.17 75.2596H377.46C377.56 74.6096 377.66 72.9297 377.66 71.7797V64.7496C375.18 65.9696 372.22 67.1996 369.37 67.9896L367.53 64.3196C371.99 63.2196 375.5 61.7296 378.25 60.0996V60.0796Z" fill="#58778D"/>
<path d="M406.11 57.0099H419.4C420.14 57.0099 421.04 56.9398 421.8 56.8398V60.8198C421.02 60.7498 420.11 60.6998 419.4 60.6998H414.59V69.7999H420.72C421.65 69.7999 422.51 69.6798 423.15 69.5798V73.7799C422.44 73.6799 421.34 73.6599 420.72 73.6599H404.56C403.8 73.6599 402.87 73.6799 402.01 73.7799V69.5798C402.82 69.7198 403.78 69.7999 404.56 69.7999H410.42V60.6998H406.1C405.34 60.6998 404.26 60.7498 403.62 60.8198V56.8398C404.26 56.9398 405.34 57.0099 406.1 57.0099H406.11Z" fill="#58778D"/>
<path d="M446.66 68.3801C451.07 65.8801 454.38 62.1602 456.03 58.7802L458.34 62.8801C456.38 66.2901 452.9 69.6201 448.8 71.9801C446.3 73.4201 443.11 74.6701 440.02 75.1501L437.49 71.3102C441.09 70.8302 444.26 69.7501 446.66 68.3801ZM447.49 60.5302L444.45 63.5801C443.15 62.1901 440.06 59.5501 438.3 58.3201L441.12 55.3701C442.81 56.5001 446.02 58.9902 447.5 60.5302H447.49Z" fill="#58778D"/>
<path d="M489.15 59.3604C488.34 61.1404 487.04 63.5403 485.45 65.7003C487.83 67.7203 490.77 70.7604 492.12 72.4004L488.71 75.3004C487.14 73.1204 485.06 70.8103 482.85 68.7203C480.28 71.3403 477.06 73.7604 473.85 75.2704L470.76 72.1304C474.73 70.7104 478.61 67.7604 480.79 65.3904C482.38 63.6104 483.71 61.5003 484.22 59.9703H476.59C475.49 59.9703 474.14 60.1104 473.45 60.1604V56.0304C474.31 56.1504 475.88 56.2203 476.59 56.2203H484.78C486.01 56.2203 487.16 56.0504 487.72 55.8604L490.15 57.6104C489.93 57.9204 489.41 58.7604 489.14 59.3604H489.15Z" fill="#58778D"/>
<path d="M528.9 69.6603H526.33V73.8402H522.7V72.8602H519.12V73.1503C519.12 74.7303 518.75 75.4103 517.7 75.8903C516.65 76.3203 515.3 76.3702 513.19 76.3702C513.02 75.5802 512.48 74.3803 512.04 73.6803C513.05 73.7303 514.49 73.7302 514.88 73.7302C515.35 73.7102 515.49 73.5603 515.49 73.1503V72.8602H508.31V70.3903H515.49V69.6703H505.93V67.0503H515.49V66.4003H508.48V64.1002H515.49V63.3802H509.02V58.2903H515.49V57.5702H506.54V54.8602H515.49V53.4902H519.12V54.8602H528.29V57.5702H519.12V58.2903H525.89V63.3802H519.12V64.1002H526.33V67.0503H528.9V69.6703V69.6603ZM515.48 61.2302V60.4103H512.42V61.2302H515.48ZM519.11 60.4203V61.2402H522.22V60.4203H519.11ZM519.11 67.0403H522.69V66.3903H519.11V67.0403ZM522.69 69.6603H519.11V70.3802H522.69V69.6603Z" fill="#58778D"/>
<path d="M558.51 70.9298C560.45 71.8698 562.92 72.5398 565.5 72.8998C564.69 73.6398 563.64 75.1097 563.1 76.0697C560.21 75.3997 557.56 74.1497 555.43 72.4697V76.2898H551.9V72.5897C549.69 74.1497 546.95 75.3697 544.18 76.0697C543.69 75.2297 542.66 73.8898 541.9 73.1698C544.43 72.7398 547 71.9497 548.99 70.9397H542.71V68.1097H551.91V67.4397H544.97V64.9697H551.91V64.2998H543.77V61.6097H548.06C547.91 61.1097 547.67 60.5098 547.47 60.0498H542.76V57.2197H545.7C545.36 56.3797 544.84 55.3498 544.38 54.5298L547.45 53.5198C548.11 54.5298 548.87 55.9197 549.19 56.8297L548.09 57.2097H549.86V53.4697H553.17V57.2097H554.35V53.4697H557.71V57.2097H559.33L558.59 56.9897C559.1 56.0297 559.67 54.6397 559.96 53.6097L563.71 54.4497C563.07 55.4797 562.46 56.4397 561.92 57.2097H564.74V60.0398H560.3C559.96 60.5898 559.64 61.1197 559.34 61.5997H563.75V64.2898H555.44V64.9597H562.65V67.4298H555.44V68.0997H564.81V70.9298H558.53H558.51ZM551.21 60.0298C551.48 60.5598 551.73 61.1298 551.85 61.5398L551.56 61.5897H555.73C555.95 61.1097 556.17 60.5598 556.34 60.0298H551.22H551.21Z" fill="#58778D"/>
<path d="M597.99 53.21C599.66 53.21 601.03 54.5499 601.03 56.1899C601.03 57.8299 599.66 59.17 598.06 59.17C597.94 59.53 597.84 59.8901 597.77 60.1801C597.18 62.4401 596.18 66.08 594.07 68.87C591.86 71.77 588.41 74.25 584.09 75.61L580.85 72.13C585.78 71.05 588.55 68.94 590.49 66.59C592.06 64.69 592.87 62.32 593.19 60.4H582.4C581.2 60.4 579.85 60.47 579.21 60.52V56.42C579.97 56.52 581.59 56.64 582.4 56.64H593.21C593.63 56.64 594.31 56.62 594.98 56.52C594.96 56.42 594.96 56.33 594.96 56.21C594.96 54.58 596.33 53.23 598 53.23L597.99 53.21ZM597.99 57.46C598.7 57.46 599.29 56.8799 599.29 56.1899C599.29 55.4999 598.7 54.92 597.99 54.92C597.28 54.92 596.69 55.4999 596.69 56.1899C596.69 56.8799 597.28 57.46 597.99 57.46Z" fill="#58778D"/>
<path d="M632.68 63.7703C631.87 66.0703 630.84 68.3302 629.03 70.3202C626.6 72.9802 623.41 74.7402 620.28 75.6202L617.31 72.3302C621.14 71.5402 623.98 69.9502 625.75 68.2302C626.95 67.0502 627.61 65.8502 628.03 64.7502H616.87C616.26 64.7502 614.86 64.7702 613.76 64.8702V61.1302C614.89 61.2302 616.04 61.3003 616.87 61.3003H628.54C629.47 61.3003 630.21 61.1803 630.6 61.0103L633.22 62.6202C633.02 62.9802 632.78 63.4803 632.68 63.7703ZM618.8 55.4203H628.09C628.87 55.4203 630.27 55.3703 630.98 55.2803V59.0203C630.29 58.9703 628.97 58.9203 628.04 58.9203H618.8C617.97 58.9203 616.79 58.9403 616.05 59.0203V55.2803C616.74 55.3803 617.94 55.4203 618.8 55.4203Z" fill="#58778D"/>
<path d="M656.86 68.3801C661.27 65.8801 664.58 62.1602 666.23 58.7802L668.54 62.8801C666.58 66.2901 663.1 69.6201 659 71.9801C656.5 73.4201 653.31 74.6701 650.22 75.1501L647.69 71.3102C651.29 70.8302 654.46 69.7501 656.86 68.3801ZM657.69 60.5302L654.65 63.5801C653.35 62.1901 650.26 59.5501 648.5 58.3201L651.32 55.3701C653.01 56.5001 656.22 58.9902 657.7 60.5302H657.69Z" fill="#58778D"/>
<path d="M690.94 60.1702H681.11V57.4601H690.94V60.1702ZM690.01 75.0602H685.2V75.9202H682.21V67.5901H690.01V75.0502V75.0602ZM682.31 60.9001H690.06V63.4901H682.31V60.9001ZM682.31 64.2101H690.06V66.8002H682.31V64.2101ZM690.01 56.7701H682.38V54.1802H690.01V56.7701ZM685.2 70.3002V72.3401H686.97V70.3002H685.2ZM704.47 71.0502H699.32V76.2802H695.79V71.0502H690.54V67.8801H695.79V66.0101H691.89V62.9102H695.79V61.1101H691.35V57.9701H693.26C692.97 56.9401 692.48 55.6201 691.94 54.6101L694.81 53.5801C695.55 54.8001 696.21 56.3901 696.45 57.4901L695.18 57.9701H699.74L698.61 57.6101C699.17 56.4601 699.86 54.7102 700.18 53.4102L703.66 54.3701C702.97 55.6901 702.29 56.9901 701.7 57.9701H704.05V61.1101H699.32V62.9102H703.49V66.0101H699.32V67.8801H704.47V71.0502Z" fill="#58778D"/>
<path d="M739.95 55.2297V75.6798H736.64V74.5997H730.78V75.8998H727.62V72.3998L725.17 73.2598C725 72.2798 724.58 70.9098 724.14 69.6398V76.2598H721V69.0098C720.75 71.0698 720.29 73.1898 719.7 74.5498C719.09 74.1698 717.76 73.5698 717.03 73.2998C717.67 71.9098 718.01 69.7498 718.16 67.7598L721 68.2397V66.6097C719.85 66.7297 718.74 66.8497 717.76 66.9697L717.27 63.9198C717.88 63.8998 718.59 63.8498 719.35 63.7998C719.62 63.4398 719.89 63.0797 720.16 62.6997C719.45 61.6397 718.27 60.3498 717.27 59.4098L718.91 56.9897L719.43 57.4497C720.04 56.1497 720.63 54.6697 721 53.4697L724.14 54.5997C723.23 56.2597 722.25 58.0798 721.42 59.4198C721.59 59.6398 721.79 59.8497 721.94 60.0697C722.72 58.8197 723.41 57.5497 723.95 56.4497L726.84 57.7898C725.88 59.2098 724.78 60.7397 723.68 62.2097L726.01 61.1997C726.6 62.2097 727.19 63.3797 727.63 64.4897V55.2498H739.96L739.95 55.2297ZM724.04 63.4597C723.87 63.0997 723.7 62.7398 723.52 62.3998C723.2 62.7798 722.91 63.1898 722.61 63.5498L724.03 63.4497L724.04 63.4597ZM726.39 67.6598C726.83 68.7198 727.27 69.9597 727.62 71.0697V66.5797L725.46 67.5598C725.39 67.1498 725.26 66.6498 725.09 66.1198L724.13 66.2397V68.3998L726.39 67.6598ZM730.78 58.4497V63.3898H732.13V58.4497H730.78ZM730.78 71.4597H732.13V66.5398H730.78V71.4597ZM736.64 58.4497H735.22V63.3898H736.64V58.4497ZM736.64 71.4597V66.5398H735.22V71.4597H736.64Z" fill="#58778D"/>
<path d="M760.5 71.0201C762 70.7301 763.54 70.4201 765.04 70.1301L765.38 73.5602C761.75 74.3502 757.8 75.1401 754.76 75.7701L753.78 72.1702C754.66 72.0502 755.69 71.8801 756.8 71.6901V53.8301H760.5V60.4501H765.04V63.8601H760.5V71.0101V71.0201ZM772.81 72.6101C773.62 72.6101 773.77 71.7901 773.94 68.6301C774.77 69.2501 776.27 69.9001 777.27 70.1401C776.93 74.3401 775.99 76.0201 773.18 76.0201H770.21C767.1 76.0201 766.21 74.8701 766.21 71.0001V53.8401H769.91V61.1401C771.58 60.3701 773.17 59.5101 774.45 58.7401L776.88 61.8102C774.7 62.7902 772.2 63.7301 769.92 64.5201V71.0201C769.92 72.4401 769.99 72.6001 770.8 72.6001H772.81V72.6101Z" fill="#58778D"/>
<path d="M811.23 64.6899C810.69 66.8499 809.95 68.72 808.97 70.33C810.22 71.67 811.74 72.78 813.58 73.5C812.82 74.15 811.79 75.4401 811.3 76.3101C809.53 75.4901 808.06 74.3899 806.84 73.0699C805.47 74.4399 803.77 75.54 801.74 76.38C801.3 75.61 800.24 74.22 799.56 73.62C801.69 72.88 803.43 71.72 804.78 70.26C803.9 68.77 803.19 67.09 802.6 65.27L802.35 65.51C801.86 65.05 800.9 64.33 800.14 63.85V68.53H796.88V69.66H800.78V72.6801H796.88V76.26H793.72V72.6801H789.94V69.66H793.72V68.53H790.61V59.6H793.72V58.59H790.21V55.61H793.72V53.5H796.88V55.61H800.26V58.59H796.88V59.6H800.14V63.0601C801.24 62.0301 802.15 60.61 802.69 59.17H800.65V56.03H805.14V53.46H808.67V56.03H813.04V59.17H810.69C811.74 60.59 812.9 62.36 813.41 63.61L811.23 64.6899ZM793.11 62.9399H794.11V61.98H793.11V62.9399ZM793.11 66.15H794.11V65.17H793.11V66.15ZM797.52 61.98H796.47V62.9399H797.52V61.98ZM797.52 65.17H796.47V66.15H797.52V65.17ZM805.42 63.66C805.76 64.93 806.23 66.13 806.82 67.26C807.36 66.16 807.78 64.93 808.07 63.61L809.98 64.04C809.37 62.77 808.41 61.23 807.55 60.01L809.32 59.17H803.56L806.06 59.79C805.5 61.3 804.64 62.81 803.68 64.04L805.42 63.66Z" fill="#58778D"/>
<path d="M849.13 67.3998C847.61 68.3798 845.94 69.3898 844.5 70.1398C845.82 71.4798 847.57 72.5198 849.82 73.1198C849.03 73.8398 848.01 75.2797 847.52 76.2397C842.35 74.4897 839.87 70.9098 838.3 65.6298C837.42 66.4198 836.41 67.1697 835.33 67.8597V71.8197C836.95 71.5097 838.64 71.1998 840.26 70.8798L840.58 74.0198C836.75 74.8398 832.61 75.6297 829.5 76.2297L828.45 72.9897C829.43 72.8497 830.53 72.6497 831.76 72.4597V69.7698C830.58 70.2998 829.41 70.7297 828.2 71.0897C827.69 70.2697 826.66 68.9798 825.92 68.2598C828.67 67.5898 831.54 66.4598 833.72 65.1198H826.9V62.1897H836.05V61.3297H828.96V58.5897H836.05V57.7698H827.81V54.8397H836.05V53.4697H839.65V54.8397H848.13V57.7698H839.65V58.5897H847.18V61.3297H839.65V62.1897H848.87V65.1198H841.61C841.9 66.0798 842.3 66.9898 842.76 67.8098C843.99 67.0198 845.26 66.0297 846.14 65.2197L849.13 67.3998Z" fill="#58778D"/>
<path d="M168.3 172.3C210.019 172.3 243.84 138.479 243.84 96.7598C243.84 55.0402 210.019 21.2197 168.3 21.2197C126.58 21.2197 92.7598 55.0402 92.7598 96.7598C92.7598 138.479 126.58 172.3 168.3 172.3Z" fill="#65B7EC"/>
<path d="M180.48 122.75H174.59C173.303 122.75 172.26 123.793 172.26 125.08V130.97C172.26 132.257 173.303 133.3 174.59 133.3H180.48C181.767 133.3 182.81 132.257 182.81 130.97V125.08C182.81 123.793 181.767 122.75 180.48 122.75Z" fill="white"/>
<path d="M201.16 122.75H195.27C193.983 122.75 192.94 123.793 192.94 125.08V130.97C192.94 132.257 193.983 133.3 195.27 133.3H201.16C202.447 133.3 203.49 132.257 203.49 130.97V125.08C203.49 123.793 202.447 122.75 201.16 122.75Z" fill="white"/>
<path d="M159.99 81.7695H154.1C152.813 81.7695 151.77 82.8127 151.77 84.0995V89.9895C151.77 91.2763 152.813 92.3195 154.1 92.3195H159.99C161.277 92.3195 162.32 91.2763 162.32 89.9895V84.0995C162.32 82.8127 161.277 81.7695 159.99 81.7695Z" fill="white"/>
<path d="M139.5 81.7695H133.61C132.323 81.7695 131.28 82.8127 131.28 84.0995V89.9895C131.28 91.2763 132.323 92.3195 133.61 92.3195H139.5C140.787 92.3195 141.83 91.2763 141.83 89.9895V84.0995C141.83 82.8127 140.787 81.7695 139.5 81.7695Z" fill="white"/>
<path d="M180.48 81.7695H174.59C173.303 81.7695 172.26 82.8127 172.26 84.0995V89.9895C172.26 91.2763 173.303 92.3195 174.59 92.3195H180.48C181.767 92.3195 182.81 91.2763 182.81 89.9895V84.0995C182.81 82.8127 181.767 81.7695 180.48 81.7695Z" fill="white"/>
<path d="M200.96 81.7695H195.07C193.783 81.7695 192.74 82.8127 192.74 84.0995V89.9895C192.74 91.2763 193.783 92.3195 195.07 92.3195H200.96C202.247 92.3195 203.29 91.2763 203.29 89.9895V84.0995C203.29 82.8127 202.247 81.7695 200.96 81.7695Z" fill="white"/>
<path d="M139.5 102.26H133.61C132.323 102.26 131.28 103.303 131.28 104.59V110.48C131.28 111.767 132.323 112.81 133.61 112.81H139.5C140.787 112.81 141.83 111.767 141.83 110.48V104.59C141.83 103.303 140.787 102.26 139.5 102.26Z" fill="white"/>
<path d="M159.99 102.26H154.1C152.813 102.26 151.77 103.303 151.77 104.59V110.48C151.77 111.767 152.813 112.81 154.1 112.81H159.99C161.277 112.81 162.32 111.767 162.32 110.48V104.59C162.32 103.303 161.277 102.26 159.99 102.26Z" fill="white"/>
<path d="M180.48 102.26H174.59C173.303 102.26 172.26 103.303 172.26 104.59V110.48C172.26 111.767 173.303 112.81 174.59 112.81H180.48C181.767 112.81 182.81 111.767 182.81 110.48V104.59C182.81 103.303 181.767 102.26 180.48 102.26Z" fill="white"/>
<path d="M201.16 102.26H195.27C193.983 102.26 192.94 103.303 192.94 104.59V110.48C192.94 111.767 193.983 112.81 195.27 112.81H201.16C202.447 112.81 203.49 111.767 203.49 110.48V104.59C203.49 103.303 202.447 102.26 201.16 102.26Z" fill="white"/>
<path d="M139.5 122.75H133.61C132.323 122.75 131.28 123.793 131.28 125.08V130.97C131.28 132.257 132.323 133.3 133.61 133.3H139.5C140.787 133.3 141.83 132.257 141.83 130.97V125.08C141.83 123.793 140.787 122.75 139.5 122.75Z" fill="white"/>
<path d="M159.99 122.75H154.1C152.813 122.75 151.77 123.793 151.77 125.08V130.97C151.77 132.257 152.813 133.3 154.1 133.3H159.99C161.277 133.3 162.32 132.257 162.32 130.97V125.08C162.32 123.793 161.277 122.75 159.99 122.75Z" fill="white"/>
<path d="M167.29 65.5304C169.339 65.5304 171 63.8693 171 61.8203C171 59.7713 169.339 58.1104 167.29 58.1104C165.241 58.1104 163.58 59.7713 163.58 61.8203C163.58 63.8693 165.241 65.5304 167.29 65.5304Z" fill="white"/>
<path d="M207.12 49.75H127.47C122.57 49.75 118.59 53.74 118.59 58.63V137.12C118.59 142.02 122.58 146 127.47 146H207.12C212.02 146 216 142.01 216 137.12V58.63C216 53.73 212.01 49.75 207.12 49.75ZM211.27 137.12C211.27 139.41 209.41 141.27 207.12 141.27H127.47C125.18 141.27 123.32 139.41 123.32 137.12V73.95H211.28V137.12H211.27Z" fill="white"/>
</svg>

