<svg width="46" height="46" viewBox="0 0 46 46" fill="none" xmlns="http://www.w3.org/2000/svg">
<path d="M44.5322 45.3999H33.1022C32.4422 45.3999 32.0522 45.14 31.8522 44.48L30.2722 39.29C30.0722 38.76 29.6822 38.5 29.0222 38.5H12.5922C12.0022 38.5 11.6022 38.76 11.3422 39.29L9.17219 44.5498C8.91219 45.1398 8.51219 45.3999 7.86219 45.3999H0.702186C0.0421861 45.3999 -0.14781 45.1398 0.11219 44.5498L19.5622 0.790039C19.8222 0.260039 20.2822 0 20.8722 0H28.8222C29.4122 0 29.8722 0.260098 30.0022 0.850098L45.1822 44.48C45.3122 45.14 45.1122 45.3999 44.5222 45.3999H44.5322ZM22.4622 14C22.3922 13.87 22.3322 13.7998 22.1322 13.7998C22.0022 13.7998 21.8722 13.87 21.8022 14L14.9022 30.6899C14.6422 31.2799 14.8322 31.54 15.4322 31.54H26.9322C27.5222 31.54 27.7822 31.2799 27.5922 30.6899L22.4722 14H22.4622Z" fill="#65B7EC"/>
</svg>
