<svg width="19" height="18" viewBox="0 0 19 18" fill="none" xmlns="http://www.w3.org/2000/svg">
<path d="M9.45324 15.2102L14.7933 17.9502C15.0133 18.0602 15.1832 17.9702 15.2732 17.9102C15.3632 17.8502 15.4932 17.7102 15.4532 17.4702L14.4932 11.54L18.7532 7.31006C18.9232 7.14006 18.9032 6.94009 18.8632 6.84009C18.8332 6.74009 18.7432 6.57003 18.4932 6.53003L12.5632 5.61011L9.85326 0.25C9.74326 0.03 9.55323 0 9.44323 0C9.33323 0 9.14325 0.03 9.03325 0.25L6.32323 5.61011L0.393238 6.53003C0.153238 6.57003 0.0632428 6.74009 0.0232428 6.84009C-0.00675721 6.94009 -0.0367719 7.13006 0.133228 7.31006L4.39324 11.54L3.43322 17.4702C3.39322 17.7102 3.53321 17.8502 3.61321 17.9102C3.70321 17.9702 3.87325 18.0602 4.09325 17.9502L9.43322 15.2102H9.45324Z" fill="#F6ED36"/>
</svg>
