<svg width="42" height="59" viewBox="0 0 42 59" fill="none" xmlns="http://www.w3.org/2000/svg">
<path d="M16.8099 4.41016V21.6002L15.5699 22.0202C8.88995 24.3002 4.3999 30.5702 4.3999 37.6302C4.3999 46.7202 11.7999 54.1202 20.8899 54.1202C29.9799 54.1202 37.3799 46.7202 37.3799 37.6302C37.3799 30.5702 32.8899 24.2902 26.2099 22.0202L24.9699 21.6002V4.41016H16.7999H16.8099Z" fill="#F6ED36"/>
<path d="M20.8998 58.1609C9.57984 58.1609 0.379883 48.9509 0.379883 37.6409C0.379883 29.4009 5.23986 22.0309 12.7899 18.7909V0.760857C12.7899 0.550857 12.9599 0.380859 13.1699 0.380859H28.6498C28.8598 0.380859 29.0298 0.550857 29.0298 0.760857V18.7909C36.5698 22.0309 41.4399 29.4109 41.4399 37.6409C41.4399 48.9609 32.2299 58.1609 20.9199 58.1609H20.8998ZM17.1899 21.6009C17.1899 21.7609 17.0899 21.9009 16.9399 21.9509L15.6998 22.3709C9.16983 24.6009 4.78986 30.7309 4.78986 37.6309C4.78986 46.5209 12.0199 53.7509 20.9099 53.7509C29.7999 53.7509 37.0298 46.5209 37.0298 37.6309C37.0298 30.7309 32.6399 24.6009 26.1199 22.3709L24.8799 21.9509C24.7299 21.9009 24.6299 21.7609 24.6299 21.6009V4.79086H17.2098V21.6009H17.1899Z" fill="#65B7EC"/>
<path d="M28.64 0.75V19.03C36.11 22.14 41.05 29.45 41.05 37.64C41.05 48.75 32.01 57.79 20.9 57.79C9.78996 57.79 0.75 48.75 0.75 37.64C0.75 29.46 5.67997 22.14 13.16 19.03V0.75H28.64ZM20.9 54.12C29.99 54.12 37.39 46.72 37.39 37.63C37.39 30.57 32.9 24.29 26.22 22.02L24.98 21.6V4.41H16.81V21.6L15.57 22.02C8.89001 24.3 4.39996 30.57 4.39996 37.63C4.39996 46.72 11.8 54.12 20.89 54.12M28.64 0H13.16C12.75 0 12.41 0.34 12.41 0.75V18.53C4.85997 21.88 0 29.32 0 37.63C0 49.15 9.36996 58.53 20.9 58.53C32.43 58.53 41.8 49.16 41.8 37.63C41.8 29.32 36.95 21.88 29.39 18.53V0.75C29.39 0.34 29.05 0 28.64 0ZM17.56 5.16H24.23V21.6C24.23 21.92 24.43 22.21 24.74 22.31L25.98 22.73C32.36 24.9 36.64 30.89 36.64 37.63C36.64 46.31 29.58 53.37 20.9 53.37C12.22 53.37 5.15997 46.31 5.15997 37.63C5.15997 30.89 9.44001 24.9 15.82 22.73L17.06 22.31C17.36 22.21 17.57 21.92 17.57 21.6V5.16H17.56Z" fill="#65B7EC"/>
<path d="M34.5699 34.4995L34.3799 33.6895H7.39984L7.20984 34.4995C6.96984 35.5395 6.83984 36.6195 6.83984 37.6895C6.83984 45.4295 13.1399 51.7294 20.8799 51.7294C28.6199 51.7294 34.9199 45.4295 34.9199 37.6895C34.9199 36.6095 34.7999 35.5395 34.5499 34.4995H34.5699ZM18.4899 47.3695C17.5999 47.3695 16.8799 46.6495 16.8799 45.7595C16.8799 44.8695 17.5999 44.1495 18.4899 44.1495C19.3799 44.1495 20.0999 44.8695 20.0999 45.7595C20.0999 46.6495 19.3799 47.3695 18.4899 47.3695ZM24.3799 42.2394C23.0199 42.2394 21.9099 41.1294 21.9099 39.7694C21.9099 38.4094 23.0199 37.2995 24.3799 37.2995C25.7399 37.2995 26.8499 38.4094 26.8499 39.7694C26.8499 41.1294 25.7399 42.2394 24.3799 42.2394Z" fill="#65B7EC"/>
</svg>
