<svg width="56" height="54" viewBox="0 0 56 54" fill="none" xmlns="http://www.w3.org/2000/svg">
<path d="M27.8247 41.74L40.7347 48.37C41.2647 48.64 41.6847 48.43 41.8947 48.28C42.1047 48.13 42.4347 47.79 42.3347 47.21L40.0147 32.89L50.3047 22.66C50.7247 22.24 50.6547 21.77 50.5747 21.53C50.4947 21.29 50.2747 20.87 49.6947 20.78L35.3547 18.56L28.8047 5.61C28.5347 5.08 28.0747 5 27.8147 5C27.5547 5 27.0947 5.08 26.8247 5.61L20.2748 18.56L5.93473 20.78C5.34473 20.87 5.12472 21.29 5.05472 21.53C4.97472 21.77 4.90468 22.24 5.32468 22.66L15.6147 32.89L13.2947 47.21C13.2047 47.8 13.5347 48.13 13.7347 48.28C13.9447 48.43 14.3647 48.64 14.8947 48.37L27.8047 41.74H27.8247Z" fill="#65B7EC" stroke="#65B7EC" stroke-width="10" stroke-miterlimit="10"/>
<path d="M27.8247 41.74L40.7347 48.37C41.2647 48.64 41.6847 48.43 41.8947 48.28C42.1047 48.13 42.4347 47.79 42.3347 47.21L40.0147 32.89L50.3047 22.66C50.7247 22.24 50.6547 21.77 50.5747 21.53C50.4947 21.29 50.2747 20.87 49.6947 20.78L35.3547 18.56L28.8047 5.61C28.5347 5.08 28.0747 5 27.8147 5C27.5547 5 27.0947 5.08 26.8247 5.61L20.2748 18.56L5.93473 20.78C5.34473 20.87 5.12472 21.29 5.05472 21.53C4.97472 21.77 4.90468 22.24 5.32468 22.66L15.6147 32.89L13.2947 47.21C13.2047 47.8 13.5347 48.13 13.7347 48.28C13.9447 48.43 14.3647 48.64 14.8947 48.37L27.8047 41.74H27.8247Z" fill="#F6ED36"/>
</svg>
