<svg width="243" height="50" viewBox="0 0 243 50" fill="none" xmlns="http://www.w3.org/2000/svg">
<path d="M243 25C243 38.75 229.5 50 213 50H30C13.5 50 0 38.75 0 25C0 11.25 13.5 0 30 0H213C229.5 0 243 11.25 243 25Z" fill="#65B7EC"/>
<path d="M55.0398 22.3904H47.8198V20.3506H55.0398V22.3904ZM54.3599 33.5505H50.8298V34.2004H48.6298V27.9504H54.3599V33.5505ZM48.7098 22.9304H54.3998V24.8706H48.7098V22.9304ZM48.7098 25.4104H54.3998V27.3506H48.7098V25.4104ZM54.3599 19.8306H48.7598V17.8804H54.3599V19.8306ZM50.8298 29.9805V31.5105H52.1298V29.9805H50.8298ZM64.9799 30.5405H61.1998V34.4705H58.6099V30.5405H54.7598V28.1604H58.6099V26.7605H55.7498V24.4404H58.6099V23.0906H55.3499V20.7305H56.7498C56.5298 19.9605 56.1698 18.9704 55.7798 18.2104L57.8898 17.4404C58.4298 18.3604 58.9199 19.5506 59.0999 20.3706L58.1598 20.7305H61.5098L60.6798 20.4604C61.0898 19.6004 61.5998 18.2805 61.8298 17.3105L64.3898 18.0305C63.8898 19.0205 63.3798 19.9905 62.9498 20.7305H64.6798V23.0906H61.2098V24.4404H64.2698V26.7605H61.2098V28.1604H64.9899V30.5405H64.9799Z" fill="white"/>
<path d="M76.4099 21.071C76.3199 22.961 76.1899 26.8511 76.1899 28.8311C76.1899 30.5611 77.1799 31.1011 78.3999 31.1011C81.1899 31.1011 83.0799 29.4609 84.3999 27.4409L86.3799 29.8711C85.2599 31.6011 82.5799 34.0811 78.3899 34.0811C75.2399 34.0811 73.2799 32.661 73.2799 29.511C73.2799 27.241 73.4399 22.421 73.4399 21.061C73.4399 20.091 73.3499 19.101 73.1699 18.291L76.6799 18.3311C76.5499 19.1811 76.4499 20.271 76.4099 21.071Z" fill="white"/>
<path d="M102.04 21.311C100.91 22.161 98.6595 23.8811 97.5195 24.8711C96.6395 25.6311 96.6695 25.791 97.5395 26.561C98.7295 27.591 102.28 30.341 104.08 32.051L101.519 34.4109C100.939 33.7609 100.349 33.131 99.7595 32.541C98.7695 31.501 96.1795 29.2809 94.5395 27.8809C92.6995 26.3009 92.8096 25.2109 94.7196 23.6509C96.1596 22.4809 98.4795 20.5709 99.6895 19.4209C100.3 18.8309 100.949 18.2009 101.269 17.7109L103.81 19.9609C103.14 20.4509 102.53 20.911 102.05 21.311H102.04Z" fill="white"/>
<path d="M115.67 20.6008C115.45 21.5408 114.82 25.7306 114.82 27.4106C114.82 27.4606 114.82 27.7508 114.84 27.8208C115.06 27.3008 115.29 26.9607 115.52 26.4207L116.83 27.4807C116.29 29.1007 115.75 30.9207 115.53 31.9607C115.48 32.2107 115.42 32.6308 115.42 32.8108C115.42 33.0108 115.42 33.3308 115.44 33.6208L112.97 33.8008C112.59 32.5808 112.23 30.4708 112.23 28.0208C112.23 25.2708 112.73 21.8808 112.93 20.5508C113 20.0108 113.11 19.1807 113.13 18.5107L116.14 18.7607C115.98 19.1607 115.73 20.2708 115.65 20.6008H115.67ZM124.78 19.7407C124.76 20.0807 124.74 20.6807 124.73 21.4307C125.65 21.3207 126.53 21.2007 127.34 21.0107V23.7307C126.53 23.8407 125.65 23.9507 124.71 24.0007C124.75 25.6607 124.84 26.9307 124.89 28.0107C126.42 28.6407 127.54 29.5808 128.35 30.3308L126.87 32.6208C126.2 31.9908 125.56 31.4507 124.94 30.9807C124.71 32.6707 123.59 33.7207 121.23 33.7207C118.69 33.7207 117.02 32.6408 117.02 30.6008C117.02 28.5608 118.68 27.2908 121.2 27.2908C121.51 27.2908 121.81 27.3108 122.1 27.3308C122.05 26.3808 121.99 25.2806 121.97 24.1406C121.63 24.1606 121.29 24.1606 120.96 24.1606C119.88 24.1606 118.8 24.1208 117.74 24.0508L117.72 21.4607C118.76 21.5707 119.84 21.6208 120.94 21.6208C121.28 21.6208 121.61 21.6208 121.95 21.6008C121.93 20.7508 121.93 20.0907 121.91 19.7607C121.91 19.4907 121.84 18.9008 121.77 18.5208H124.88C124.83 18.8608 124.79 19.3307 124.77 19.7307L124.78 19.7407ZM120.98 31.1606C121.84 31.1606 122.19 30.6907 122.19 29.7007V29.5708C121.79 29.4608 121.4 29.4106 120.98 29.4106C120.13 29.4106 119.58 29.7308 119.58 30.3108C119.58 30.9408 120.21 31.1606 120.98 31.1606Z" fill="white"/>
<path d="M138.49 19.8508H147.67C148.25 19.8508 149.11 19.8108 149.38 19.8008C149.36 20.2308 149.33 21.0208 149.33 21.6208V30.9607C149.33 31.5707 149.37 32.6008 149.42 33.3008H146.25C146.25 32.9908 146.27 32.6906 146.27 32.4006H138.37C137.69 32.4006 136.55 32.4508 135.9 32.5208V29.4006C136.6 29.4506 137.43 29.5107 138.28 29.5107H146.29V22.6707H138.49C137.68 22.6707 136.67 22.7107 136.11 22.7407V19.7207C136.83 19.7907 137.84 19.8408 138.49 19.8408V19.8508Z" fill="white"/>
<path d="M165.19 19.3105C167.1 19.0205 168.76 18.6404 169.67 18.1904L171.45 20.5806C170.71 20.7606 170.17 20.9005 169.85 20.9805C169 21.2005 168.09 21.3805 167.13 21.5205V24.0205H171.43C171.81 24.0205 172.76 23.9504 173.18 23.9104V26.7004C172.64 26.6604 172.01 26.6304 171.49 26.6304H167.04C166.7 29.4904 165.4 32.1404 162.43 33.9604L159.64 32.0906C162.31 30.8806 163.69 29.0304 164.12 26.6304H159.4C158.86 26.6304 158.16 26.6704 157.67 26.7004V23.9104C158.21 23.9604 158.8 24.0205 159.38 24.0205H164.24V21.8804C162.57 22.0104 160.8 22.0806 159.67 22.1006L158.99 19.6006C160.38 19.6206 163.19 19.6205 165.18 19.3105H165.19Z" fill="white"/>
<path d="M194.24 25.0911C193.65 26.8211 192.89 28.511 191.56 30.011C189.78 32.011 187.44 33.321 185.13 33.991L182.95 31.521C185.76 30.931 187.85 29.7409 189.14 28.4409C190.02 27.5609 190.51 26.6611 190.81 25.8311H182.62C182.17 25.8311 181.14 25.8509 180.33 25.9209V23.1111C181.16 23.1811 182 23.231 182.62 23.231H191.19C191.87 23.231 192.41 23.141 192.7 23.021L194.63 24.231C194.49 24.501 194.31 24.8811 194.23 25.1011L194.24 25.0911ZM184.05 18.821H190.87C191.45 18.821 192.47 18.7809 192.99 18.7109V21.521C192.49 21.481 191.51 21.4509 190.83 21.4509H184.04C183.43 21.4509 182.56 21.471 182.02 21.521V18.7109C182.52 18.7809 183.41 18.821 184.04 18.821H184.05Z" fill="white"/>
</svg>
