<svg xmlns="http://www.w3.org/2000/svg" width="216.184" height="208.283" viewBox="0 0 216.184 208.283">
  <g id="グループ_122" data-name="グループ 122" transform="translate(-467.35 -4513.524)">
    <g id="グループ_118" data-name="グループ 118">
      <path id="パス_1907" data-name="パス 1907" d="M625.287,4721.807a27.473,27.473,0,0,1-12.567-3.056L575.442,4699.6l-37.277,19.148a27.459,27.459,0,0,1-39.653-28.81l6.691-41.37-29.73-29.536a27.459,27.459,0,0,1,15.146-46.616l41.413-6.42,18.9-37.4a27.328,27.328,0,0,1,24.507-15.073h0a27.324,27.324,0,0,1,24.506,15.073h0l18.9,37.4,41.414,6.42a27.46,27.46,0,0,1,15.146,46.616l-29.73,29.536,6.691,41.37a27.5,27.5,0,0,1-27.086,31.866Z" fill="#f6ed36"/>
    </g>
    <g id="グループ_120" data-name="グループ 120">
      <g id="グループ_119" data-name="グループ 119">
        <path id="パス_1908" data-name="パス 1908" d="M539.457,4610.112l2.606-3.074a7.646,7.646,0,0,0,4.6,1.9c1.686,0,2.478-.625,2.478-1.625,0-1.075-1.047-1.425-2.682-2.1l-2.427-1a5.466,5.466,0,0,1-3.857-5.1c0-3.125,2.861-5.624,6.9-5.624a8.947,8.947,0,0,1,6.181,2.449l-2.273,2.8a6.26,6.26,0,0,0-3.908-1.425c-1.4,0-2.248.55-2.248,1.525,0,1.05,1.175,1.449,2.861,2.1l2.376.925c2.35.925,3.755,2.475,3.755,5.1,0,3.1-2.657,5.823-7.255,5.823A10.767,10.767,0,0,1,539.457,4610.112Z" fill="#58778d"/>
        <path id="パス_1909" data-name="パス 1909" d="M563.21,4597.54h-5.134v-3.724h14.866v3.724h-5.16v14.9H563.21Z" fill="#58778d"/>
        <path id="パス_1910" data-name="パス 1910" d="M578.431,4593.816h12.056v3.724H583v3.449h6.361v3.749H583v3.95h7.766v3.749H578.431Z" fill="#58778d"/>
        <path id="パス_1911" data-name="パス 1911" d="M597.075,4593.816h6.693c4.163,0,7.611,1.475,7.611,6.074,0,4.423-3.474,6.373-7.509,6.373h-2.223v6.174h-4.572Zm6.565,8.923c2.222,0,3.295-1.025,3.295-2.849,0-1.875-1.226-2.525-3.423-2.525h-1.865v5.374Z" fill="#58778d"/>
      </g>
    </g>
    <g id="グループ_121" data-name="グループ 121">
      <path id="パス_1912" data-name="パス 1912" d="M591.016,4659.664v8.433H574.542v-8.433h-18.1v-35.781h13.156c1.106,0,1.688.513,1.688,1.6v23.644h3.26v-19.03h14.844c1.106,0,1.63.512,1.63,1.6v17.435h4.89v10.541Z" fill="#58778d"/>
    </g>
  </g>
</svg>
