<svg xmlns="http://www.w3.org/2000/svg" width="216.184" height="208.283" viewBox="0 0 216.184 208.283">
  <g id="グループ_93" data-name="グループ 93" transform="translate(-467.35 -3532.075)">
    <g id="グループ_89" data-name="グループ 89">
      <path id="パス_1675" data-name="パス 1675" d="M625.287,3740.358a27.445,27.445,0,0,1-12.567-3.056l-37.278-19.148L538.165,3737.3a27.458,27.458,0,0,1-39.653-28.81l6.691-41.37-29.73-29.536a27.459,27.459,0,0,1,15.146-46.615l41.413-6.42,18.9-37.4a27.328,27.328,0,0,1,24.507-15.073h0a27.324,27.324,0,0,1,24.506,15.074h0l18.9,37.4,41.414,6.42a27.46,27.46,0,0,1,15.146,46.615l-29.73,29.536,6.691,41.37a27.5,27.5,0,0,1-27.086,31.866Z" fill="#f6ed36"/>
    </g>
    <g id="グループ_91" data-name="グループ 91">
      <g id="グループ_90" data-name="グループ 90">
        <path id="パス_1676" data-name="パス 1676" d="M539.457,3628.664l2.606-3.074a7.644,7.644,0,0,0,4.6,1.9c1.686,0,2.478-.625,2.478-1.625,0-1.074-1.047-1.425-2.682-2.1l-2.427-1a5.466,5.466,0,0,1-3.857-5.1c0-3.125,2.861-5.624,6.9-5.624a8.948,8.948,0,0,1,6.181,2.449l-2.273,2.8a6.261,6.261,0,0,0-3.908-1.425c-1.4,0-2.248.55-2.248,1.525,0,1.049,1.175,1.449,2.861,2.1l2.376.925c2.35.925,3.755,2.475,3.755,5.1,0,3.1-2.657,5.823-7.255,5.823A10.774,10.774,0,0,1,539.457,3628.664Z" fill="#58778d"/>
        <path id="パス_1677" data-name="パス 1677" d="M563.21,3616.092h-5.134v-3.724h14.866v3.724h-5.16v14.9H563.21Z" fill="#58778d"/>
        <path id="パス_1678" data-name="パス 1678" d="M578.431,3612.368h12.056v3.724H583v3.449h6.361v3.749H583v3.949h7.766v3.749H578.431Z" fill="#58778d"/>
        <path id="パス_1679" data-name="パス 1679" d="M597.075,3612.368h6.693c4.163,0,7.611,1.475,7.611,6.073,0,4.424-3.474,6.373-7.509,6.373h-2.223v6.174h-4.572Zm6.565,8.923c2.222,0,3.295-1.025,3.295-2.85,0-1.875-1.226-2.524-3.423-2.524h-1.865v5.374Z" fill="#58778d"/>
      </g>
    </g>
    <g id="グループ_92" data-name="グループ 92">
      <path id="パス_1680" data-name="パス 1680" d="M567.236,3684.71v-36.123h-6.171V3640.5h22.7a1.474,1.474,0,0,1,1.629,1.652v42.562Z" fill="#58778d"/>
    </g>
  </g>
</svg>
