<svg xmlns="http://www.w3.org/2000/svg" width="216.184" height="208.283" viewBox="0 0 216.184 208.283">
  <g id="グループ_132" data-name="グループ 132" transform="translate(-467.35 -4767.749)">
    <g id="グループ_128" data-name="グループ 128">
      <path id="パス_1953" data-name="パス 1953" d="M625.287,4976.032a27.473,27.473,0,0,1-12.567-3.056l-37.278-19.148-37.277,19.148a27.459,27.459,0,0,1-39.653-28.81l6.691-41.37-29.73-29.536a27.459,27.459,0,0,1,15.146-46.616l41.413-6.42,18.9-37.4a27.328,27.328,0,0,1,24.507-15.073h0a27.325,27.325,0,0,1,24.506,15.073h0l18.9,37.4,41.414,6.42a27.46,27.46,0,0,1,15.146,46.616l-29.73,29.536,6.691,41.37a27.5,27.5,0,0,1-27.086,31.866Z" fill="#f6ed36"/>
    </g>
    <g id="グループ_130" data-name="グループ 130">
      <g id="グループ_129" data-name="グループ 129">
        <path id="パス_1954" data-name="パス 1954" d="M539.457,4864.338l2.606-3.074a7.644,7.644,0,0,0,4.6,1.9c1.686,0,2.478-.625,2.478-1.625,0-1.074-1.047-1.425-2.682-2.1l-2.427-1a5.464,5.464,0,0,1-3.857-5.1c0-3.125,2.861-5.624,6.9-5.624a8.948,8.948,0,0,1,6.181,2.449l-2.273,2.8a6.262,6.262,0,0,0-3.908-1.425c-1.4,0-2.248.55-2.248,1.524,0,1.05,1.175,1.45,2.861,2.1l2.376.925c2.35.925,3.755,2.474,3.755,5.1,0,3.1-2.657,5.824-7.255,5.824A10.774,10.774,0,0,1,539.457,4864.338Z" fill="#58778d"/>
        <path id="パス_1955" data-name="パス 1955" d="M563.21,4851.766h-5.134v-3.724h14.866v3.724h-5.16v14.9H563.21Z" fill="#58778d"/>
        <path id="パス_1956" data-name="パス 1956" d="M578.431,4848.042h12.056v3.724H583v3.449h6.361v3.749H583v3.949h7.766v3.749H578.431Z" fill="#58778d"/>
        <path id="パス_1957" data-name="パス 1957" d="M597.075,4848.042h6.693c4.163,0,7.611,1.475,7.611,6.073,0,4.424-3.474,6.373-7.509,6.373h-2.223v6.174h-4.572Zm6.565,8.923c2.222,0,3.295-1.026,3.295-2.85,0-1.875-1.226-2.524-3.423-2.524h-1.865v5.374Z" fill="#58778d"/>
      </g>
    </g>
    <g id="グループ_131" data-name="グループ 131">
      <path id="パス_1958" data-name="パス 1958" d="M575.24,4888.591v6.609h11.992a5.041,5.041,0,0,1,3.493,1.425,4.6,4.6,0,0,1,1.455,3.418v17.435a4.6,4.6,0,0,1-1.455,3.418,4.8,4.8,0,0,1-3.493,1.425H559.814V4911.78h15.892v-6.893h-16.94v-26.78h33.588v10.484Z" fill="#58778d"/>
    </g>
  </g>
</svg>
