<svg xmlns="http://www.w3.org/2000/svg" width="135.271" height="60.956" viewBox="0 0 135.271 60.956">
  <g id="グループ_239" data-name="グループ 239" transform="translate(-724.099 -3822.969)">
    <path id="frame_background" d="M859.37,3846.541v3.813c0,13.019-16.474,23.572-36.795,23.572H796.149l-2.615,9.784a1.4,1.4,0,0,1-1.492,0l-4.723-9.784H760.893c-20.321,0-36.794-10.553-36.794-23.572v-3.813c0-13.018,16.473-23.572,36.794-23.572h61.682C842.9,3822.969,859.37,3833.523,859.37,3846.541Z" fill="#65b7ec"/>
    <g id="グループ_236" data-name="グループ 236" opacity="0.5">
      <g id="グループ_235" data-name="グループ 235">
        <path id="パス_2780" data-name="パス 2780" d="M760.684,3846.533l-.04,1.005c-.04,4.484-.592,16.736-.592,16.853a.57.57,0,0,1-.593.541H744.572a.6.6,0,0,1-.593-.541c0-.039-.276-5.875-.4-10.785-.079-2.937-.118-6.183-.118-8.27v-1.469a16.25,16.25,0,0,1-2.488.348,15.385,15.385,0,0,1-3.475-.039.517.517,0,0,1-.513-.5l-.474-6.108a.68.68,0,0,1,.434-.618,20.925,20.925,0,0,0,3.713-1.352,31.353,31.353,0,0,0,3.514-2.087.216.216,0,0,1,.2-.116,21.531,21.531,0,0,1,8.529-.348C760.842,3834.243,760.763,3839.963,760.684,3846.533Z" fill="#fff"/>
      </g>
    </g>
    <g id="グループ_238" data-name="グループ 238">
      <g id="グループ_237" data-name="グループ 237">
        <path id="パス_2781" data-name="パス 2781" d="M791.142,3857.549a.284.284,0,0,1-.322.322h-2.963a.271.271,0,0,1-.3-.3l.321-10.906c0-.215-.107-.3-.321-.3h-2.513c-.192,0-.321.15-.386.472-.021.236-.043.473-.086.709a1.044,1.044,0,0,0,.108.579,19.5,19.5,0,0,0,2.705,3.307.241.241,0,0,1,0,.408l-1.675,1.76a.261.261,0,0,1-.429,0,17.344,17.344,0,0,1-1.911-2.125c-.129-.151-.236-.151-.344.043a21.012,21.012,0,0,1-1.588,2.211.252.252,0,0,1-.43.021l-2.082-1.782a.262.262,0,0,1-.043-.429,10.848,10.848,0,0,0,2.426-4.874c.043-.215-.043-.3-.258-.3h-2.039c-.215,0-.322.085-.322.3l-.3,10.8a.272.272,0,0,1-.3.3h-2.877c-.193,0-.3-.108-.3-.323l.365-12.9a.272.272,0,0,1,.3-.3h5.582a.309.309,0,0,0,.343-.322c.043-.622.086-1.652.172-3.069,0-.215.107-.323.3-.323l3.091.022c.193,0,.279.107.279.3,0,.514-.064,1.545-.193,3.069-.022.215.086.322.279.322l5.776-.021a.284.284,0,0,1,.321.322Z" fill="#fff"/>
        <path id="パス_2782" data-name="パス 2782" d="M813.237,3844.432c0,.193-.129.279-.322.279h-2.577c-.214,0-.3-.086-.279-.3l.15-1.181c.022-.214-.064-.322-.279-.322H799.646c-.192,0-.3.108-.321.322l-.172,1.246a.325.325,0,0,1-.365.3h-2.555c-.214,0-.3-.107-.279-.3l.279-3.307c.021-.193.129-.278.344-.278h5.989a.306.306,0,0,0,.344-.3l.108-1.267a.288.288,0,0,1,.321-.3l3.135.022c.193,0,.279.086.279.279l-.129,1.267c-.021.193.064.3.258.3h6.4c.193,0,.3.085.279.278Zm-1.847,9.811a.28.28,0,0,1-.408.129,39.967,39.967,0,0,1-6.419-4.487.281.281,0,0,0-.451,0,47.3,47.3,0,0,1-5.775,4.659.294.294,0,0,1-.451-.043l-1.309-1.933a.286.286,0,0,1,.064-.429,45.839,45.839,0,0,0,7.536-6.527c.172-.15.322-.172.472-.064l1.718,1.4a.254.254,0,0,1,.043.43l-.065.065c-.107.128-.086.257.086.407a37.168,37.168,0,0,0,6.011,3.994.26.26,0,0,1,.108.407Zm-11.014-6.827c-.171.172-.3.172-.45.022l-1.159-1.095a.273.273,0,0,1-.022-.43c.537-.537,1.159-1.2,1.825-2a.307.307,0,0,1,.43-.043l1.266.967a.274.274,0,0,1,.043.429A25.318,25.318,0,0,1,800.376,3847.416Zm7.751,10.863a.3.3,0,0,1-.322.3h-6.956a.263.263,0,0,1-.3-.3l.215-4.96a.3.3,0,0,1,.322-.3h7a.262.262,0,0,1,.3.3Zm-3.048-3.435h-1.1a.306.306,0,0,0-.343.3l-.064,1.288c-.022.214.086.322.3.322h1.117c.214,0,.3-.108.321-.322l.065-1.288C805.4,3854.951,805.293,3854.844,805.079,3854.844Zm4.4-7.278a.265.265,0,0,1-.429.065,29.885,29.885,0,0,1-2.254-2.126.274.274,0,0,1,.021-.43l1.2-1.095a.32.32,0,0,1,.472.022,19.138,19.138,0,0,0,2.061,1.825.252.252,0,0,1,.043.408Z" fill="#fff"/>
        <path id="パス_2783" data-name="パス 2783" d="M830.866,3847.738a14.185,14.185,0,0,1-2.6,2.405,4.03,4.03,0,0,0-1.288,2.318.334.334,0,0,1-.365.3H824c-.215,0-.3-.086-.258-.3a6.961,6.961,0,0,1,1.911-4.079l1.932-1.933a2.659,2.659,0,0,0,.644-1.76c.022-1.073-.537-1.631-1.7-1.631q-2.286,0-2.319,2.576a.284.284,0,0,1-.322.322l-2.812.022a.312.312,0,0,1-.215-.086.207.207,0,0,1-.064-.215c.172-3.37,2.125-5.045,5.861-5.045a5.8,5.8,0,0,1,3.993,1.181,3.613,3.613,0,0,1,1.16,2.919A4.967,4.967,0,0,1,830.866,3847.738Zm-4.079,9.468c0,.214-.108.3-.322.3h-2.791c-.215,0-.3-.086-.279-.3l.236-2.427c0-.192.107-.278.3-.278h2.62c.214,0,.322.086.3.278Z" fill="#fff"/>
      </g>
    </g>
  </g>
</svg>
