<svg xmlns="http://www.w3.org/2000/svg" width="135.271" height="60.956" viewBox="0 0 135.271 60.956">
  <g id="グループ_257" data-name="グループ 257" transform="translate(-1285.698 -3822.969)">
    <path id="frame_background" d="M1420.969,3846.541v3.813c0,13.019-16.473,23.572-36.8,23.572h-26.425l-2.615,9.784a1.406,1.406,0,0,1-1.493,0l-4.723-9.784h-26.425c-20.322,0-36.8-10.553-36.8-23.572v-3.813c0-13.018,16.473-23.572,36.8-23.572h61.681C1404.5,3822.969,1420.969,3833.523,1420.969,3846.541Z" fill="#65b7ec"/>
    <g id="グループ_254" data-name="グループ 254" opacity="0.5">
      <g id="グループ_253" data-name="グループ 253">
        <path id="パス_2853" data-name="パス 2853" d="M1329.9,3860.719a.527.527,0,0,1-.474.579c-.039,0-.987.155-2.567.309-.079,1.74-.118,2.784-.118,2.784a.6.6,0,0,1-.593.541h-13.94a.569.569,0,0,1-.592-.541c0-.039-.039-.851-.039-2.282a20.913,20.913,0,0,1-7.78-1.429c-5.568-2.358-5.765-8.58-5.765-8.851,0-.116.118-2.28,3.554-9.315a44.662,44.662,0,0,1,6-9.662.837.837,0,0,1,.513-.194l7.74.773a.518.518,0,0,1,.514.58.729.729,0,0,1-.04.27,24.956,24.956,0,0,0-1.263,2.32h10.583a.623.623,0,0,1,.592.541c0,.039.435,6.068.672,13.6,0,.5.039,1,.039,1.508,1.264-.077,2.054-.116,2.054-.116a.6.6,0,0,1,.434.155.531.531,0,0,1,.2.386Zm-17.771-18.243c-.2.347-.355.695-.513,1.043a88.5,88.5,0,0,0-3.278,8.658c.711.038,1.9.077,3.318.154.039-.541.039-1.043.039-1.585C1311.817,3847.616,1311.976,3844.756,1312.133,3842.476Z" fill="#fff"/>
      </g>
    </g>
    <g id="グループ_256" data-name="グループ 256">
      <g id="グループ_255" data-name="グループ 255">
        <path id="パス_2854" data-name="パス 2854" d="M1340.463,3849.777c-1.439,1.374-2.4,2.276-2.834,2.684-.172.129-.3.129-.429-.043l-1.224-1.5a.289.289,0,0,1,.043-.429c.751-.623,1.717-1.438,2.855-2.491a.251.251,0,0,1,.408.022l1.2,1.309A.271.271,0,0,1,1340.463,3849.777Zm-1.331-3.434c0,.192-.108.278-.322.278l-2.491-.086c-.215,0-.321-.107-.321-.3l.043-1.331c0-.215.106-.3.321-.3l2.512.064c.193,0,.3.107.3.322Zm.429-3.285a.27.27,0,0,1-.386.193l-2.49-.838c-.215-.064-.258-.192-.194-.407l.429-1.245c.086-.194.194-.258.387-.194l2.49.837a.291.291,0,0,1,.194.409Zm11.529,12.881a.285.285,0,0,1-.322.322l-4.036-.022c-.193,0-.322.086-.322.28l-.086,1.7c-.021.215-.129.322-.322.322l-3.027.022a.25.25,0,0,1-.215-.086.278.278,0,0,1-.086-.215l.108-1.718a.324.324,0,0,0-.086-.236.286.286,0,0,0-.215-.065l-4.422.022a.286.286,0,0,1-.215-.086.451.451,0,0,1-.086-.236l.043-1.352c0-.193.107-.279.322-.279l4.465-.022a.3.3,0,0,0,.323-.3l.064-1.159a.272.272,0,0,1,.3-.3l3.049-.021a.274.274,0,0,1,.215.086.361.361,0,0,1,.064.215l-.043,1.159a.671.671,0,0,0,.043.236.329.329,0,0,0,.215.086l3.993-.021a.266.266,0,0,1,.3.3Zm2.083-12.43a.263.263,0,0,1-.3.3h-1.5a.262.262,0,0,0-.3.3v.344c0,.193.086.279.279.279h1.2c.215,0,.3.108.3.323l-.043.9q-.033.322-.322.322h-1.2c-.193,0-.3.086-.3.279l-.022.429a.249.249,0,0,0,.279.3h1.181c.215,0,.3.086.3.3l-.043.9c-.022.215-.129.323-.322.323h-1.181a.263.263,0,0,0-.3.3v.429c0,.193.086.3.258.3h1.524c.215,0,.3.107.28.3l-.065.9c0,.215-.107.322-.3.322h-8.652c-.193,0-.3-.107-.279-.322l.215-5.453a.181.181,0,0,0-.15-.043c-.193.279-.365.537-.559.795a.245.245,0,0,1-.386.064l-1.61-1.16c-.172-.107-.172-.257-.043-.45,1.031-1.439,2.168-3.178,3.371-5.218a.275.275,0,0,1,.408-.128l1.7.794a.276.276,0,0,1,.128.408c-.128.258-.386.73-.751,1.353a.209.209,0,0,0-.022.193.2.2,0,0,0,.172.086h6.828c.214,0,.321.107.3.3Zm-5.325,5.3h-.944a.262.262,0,0,0-.3.3l-.021.429c-.022.193.064.3.279.3h.944a.3.3,0,0,0,.322-.3l.022-.429C1348.149,3848.9,1348.063,3848.812,1347.848,3848.812Zm.086-2.534h-.923a.282.282,0,0,0-.322.279l-.022.429a.263.263,0,0,0,.3.3h.923a.3.3,0,0,0,.322-.3l.022-.429C1348.235,3846.364,1348.149,3846.278,1347.934,3846.278Zm.108-2.469h-.9c-.236,0-.344.107-.344.3v.473c0,.193.108.279.3.279h.9a.283.283,0,0,0,.322-.279l.021-.473A.262.262,0,0,0,1348.042,3843.809Zm2.4-1.782a.286.286,0,0,1-.408.172l-1.524-.515c-.172-.065-.215-.215-.129-.409.344-.772.6-1.438.794-1.974.065-.194.194-.258.365-.172l1.546.515a.251.251,0,0,1,.172.386A18.668,18.668,0,0,1,1350.446,3842.027Z" fill="#fff"/>
        <path id="パス_2855" data-name="パス 2855" d="M1361.055,3847.909a.164.164,0,0,0-.022.172c.043.065.086.107.151.107h.3c.193,0,.3.086.3.28l-.236,8.158a.285.285,0,0,1-.322.322l-2.727-.021c-.215,0-.3-.108-.3-.323l.107-4.444c0-.043-.022-.064-.065-.086a.084.084,0,0,0-.085.043l-.537.688c-.129.172-.258.193-.408.064l-1.739-1.309a.266.266,0,0,1-.064-.43,87.515,87.515,0,0,0,4.916-7.321.268.268,0,0,1,.408-.086l1.868,1.1a.3.3,0,0,1,.107.451C1362.021,3846.407,1361.463,3847.287,1361.055,3847.909Zm15.243-.364a.271.271,0,0,1-.3.3h-7.665a.421.421,0,0,0-.43.279c-.128.236-.3.537-.493.9-.086.15-.043.236.172.236h7.557c.193,0,.278.107.278.3l-.257,8.458c0,.194-.107.3-.322.3h-2.018c-.194,0-.279-.086-.279-.279l.021-1.073a.271.271,0,0,0-.3-.3h-.558a.272.272,0,0,0-.3.3l-.022.772c0,.194-.107.3-.321.3l-1.826.021a.3.3,0,0,1-.192-.107.26.26,0,0,1-.086-.193l.021-.794a.272.272,0,0,0-.3-.3h-.558a.271.271,0,0,0-.3.3l-.043,1.094a.3.3,0,0,1-.322.3l-2.083-.021c-.215,0-.322-.108-.3-.3l.214-5.518c0-.064-.021-.107-.064-.107-.043-.022-.086-.022-.108.021-.193.258-.429.559-.751.966a.273.273,0,0,1-.429.043l-1.632-1.4a.252.252,0,0,1-.043-.407c1.2-1.525,2.061-2.706,2.6-3.543a.241.241,0,0,0,0-.172.174.174,0,0,0-.172-.086h-1.224c-.214,0-.322-.107-.3-.3l.086-1.331c.021-.215.107-.322.322-.322h1.739c.193,0,.322-.086.322-.3l.043-1.009c.021-.215-.086-.322-.279-.322h-1.331a.263.263,0,0,1-.3-.3l.064-1.331a.31.31,0,0,1,.344-.321h1.288c.215,0,.3-.086.322-.3l.064-1.46a.306.306,0,0,1,.344-.3h2.727c.193,0,.3.108.279.322l-.065,1.439c0,.215.086.3.3.3h1.18c.194,0,.323-.086.323-.3l.064-1.482a.311.311,0,0,1,.343-.322h2.727c.215,0,.3.108.279.322l-.064,1.482c-.022.215.064.3.279.3h1.245c.194,0,.3.106.3.321l-.042,1.331c0,.193-.172.3-.473.3h-1.137a.294.294,0,0,0-.323.322l-.043,1.009c-.021.215.065.3.258.3h1.782c.193,0,.279.107.258.322Zm-7.428,6.2h-.644c-.194,0-.3.107-.3.322l-.022.451c-.021.214.086.322.28.322h.644c.193,0,.3-.108.3-.322l.022-.451C1369.17,3853.856,1369.063,3853.749,1368.87,3853.749Zm.107-2.727h-.644c-.215,0-.3.108-.3.323v.472c0,.193.086.3.28.3h.644a.265.265,0,0,0,.278-.3l.022-.472C1369.277,3851.13,1369.17,3851.022,1368.977,3851.022Zm1.524-6.762h-1.159a.309.309,0,0,0-.343.322l-.022,1.009c-.021.215.065.3.279.3h1.16a.287.287,0,0,0,.321-.3l.043-1.009C1370.8,3844.367,1370.716,3844.26,1370.5,3844.26Zm1.847,9.489h-.666c-.193,0-.3.107-.3.322l-.021.451c-.022.214.086.322.3.322h.665c.215,0,.3-.108.3-.322v-.451C1372.626,3853.856,1372.541,3853.749,1372.348,3853.749Zm.107-2.727h-.665c-.194,0-.3.108-.3.323l-.022.472a.248.248,0,0,0,.28.3h.687a.271.271,0,0,0,.3-.3v-.472C1372.734,3851.13,1372.648,3851.022,1372.455,3851.022Z" fill="#fff"/>
        <path id="パス_2856" data-name="パス 2856" d="M1396.161,3848.554a13.042,13.042,0,0,1-2.555,2.361,2.894,2.894,0,0,0-1.159,1.7.143.143,0,0,1-.151.129h-2.812c-.214,0-.3-.086-.279-.3a4.65,4.65,0,0,1,.666-2,5.929,5.929,0,0,1,1.159-1.224,11.276,11.276,0,0,0,1.975-1.889,2.859,2.859,0,0,0,.579-1.782c.022-1.1-.536-1.653-1.695-1.653a2.114,2.114,0,0,0-1.611.537,3.034,3.034,0,0,0-.687,2.039.284.284,0,0,1-.321.322h-2.791a.211.211,0,0,1-.194-.086.251.251,0,0,1-.086-.215c.151-3.348,2.1-5.045,5.8-5.045a5.881,5.881,0,0,1,3.993,1.2,3.611,3.611,0,0,1,1.181,2.9A4.745,4.745,0,0,1,1396.161,3848.554Zm-3.908,7.9a.3.3,0,0,1-.321.3h-2.813c-.193,0-.3-.108-.258-.322l.194-2.405a.3.3,0,0,1,.343-.3l2.62-.022c.192,0,.3.107.3.322Z" fill="#fff"/>
      </g>
    </g>
  </g>
</svg>
