<svg xmlns="http://www.w3.org/2000/svg" width="135.271" height="60.956" viewBox="0 0 135.271 60.956">
  <g id="グループ_251" data-name="グループ 251" transform="translate(-1106.413 -3822.969)">
    <path id="frame_background" d="M1241.684,3846.541v3.813c0,13.019-16.473,23.572-36.795,23.572h-26.426l-2.614,9.784a1.406,1.406,0,0,1-1.493,0l-4.723-9.784h-26.426c-20.321,0-36.794-10.553-36.794-23.572v-3.813c0-13.018,16.473-23.572,36.794-23.572h61.682C1225.211,3822.969,1241.684,3833.523,1241.684,3846.541Z" fill="#65b7ec"/>
    <g id="グループ_248" data-name="グループ 248" opacity="0.5">
      <g id="グループ_247" data-name="グループ 247">
        <path id="パス_2831" data-name="パス 2831" d="M1148.091,3855.152c0,3.749-1.9,10.088-14.572,10.088-9.675,0-14.493-3.208-14.69-3.362a.562.562,0,0,1-.237-.657l2.764-6.957a.619.619,0,0,1,.711-.348,15.312,15.312,0,0,0,4.067.464c1.935-.077,3.91-1.2,3.91-3.17,0-2.4-1.264-2.976-1.3-3.015a.6.6,0,0,1-.316-.424.606.606,0,0,1,.118-.5,4.2,4.2,0,0,0,.909-2.86c0-.58-.079-2.4-3.475-2.4a12.1,12.1,0,0,0-3.831.811.636.636,0,0,1-.79-.27l-2.251-4.484a.518.518,0,0,1,.119-.657c.158-.193,4.581-4.56,14.3-4.56,12.281,0,13.229,6.416,13.229,8.386a10.707,10.707,0,0,1-2.014,6.3A9.269,9.269,0,0,1,1148.091,3855.152Z" fill="#fff"/>
      </g>
    </g>
    <g id="グループ_250" data-name="グループ 250">
      <g id="グループ_249" data-name="グループ 249">
        <path id="パス_2832" data-name="パス 2832" d="M1172.92,3853.041a.357.357,0,0,1-.386.3l-2.791-.022c-.215,0-.3-.106-.258-.3l.365-1.783c.043-.193-.043-.3-.258-.3h-11.958c-.193,0-.3-.086-.279-.3l.086-1.5c.021-.215.107-.322.322-.322h15.673c.214,0,.3.085.257.3Zm-.837-12.216a.871.871,0,0,1-.172.515,40.643,40.643,0,0,1-4.315,4.938.363.363,0,0,0-.086.472,3.4,3.4,0,0,0,.172.408.265.265,0,0,1-.086.408l-1.8.966c-.171.108-.3.065-.408-.129-.343-.686-1.245-2.425-2.662-5.216a.234.234,0,0,1,.129-.387l1.782-.837c.021-.022.064-.022.107-.022.194,0,.516.451.924,1.353.086.193.193.215.343.064.365-.343.88-.9,1.524-1.631a.129.129,0,0,0,.022-.151.185.185,0,0,0-.129-.064H1160.9c-.214,0-.3-.108-.3-.323l.086-1.481a.306.306,0,0,1,.343-.3h10.907c.193,0,.278.108.257.3Zm-5.067,14.169c-.086.945-.215,2.062-.386,3.393-.043.236-.151.343-.365.343h-3.478c-.194,0-.279-.107-.258-.322.15-1.095.322-2.255.494-3.478.086-.665.172-1.674.257-3.091a.283.283,0,0,1,.323-.279l3.413-.022a.227.227,0,0,1,.215.086c.064.043.064.129.064.215Z" fill="#fff"/>
        <path id="パス_2833" data-name="パス 2833" d="M1185.439,3842.113a.3.3,0,0,1-.343.322h-.773a.3.3,0,0,0-.322.3l-.043.666a.293.293,0,0,1-.322.322h-1.824c-.194,0-.3-.107-.28-.322l.043-.644c.022-.215-.086-.322-.3-.322h-.386c-.193,0-.322.107-.429.343a5.783,5.783,0,0,1-.15.58.28.28,0,0,1-.366.258l-1.781-.451c-.194-.043-.28-.15-.215-.344a35.492,35.492,0,0,0,.859-3.671c.043-.214.15-.3.365-.257l1.8.322c.193.043.279.15.236.344-.021.149-.064.342-.128.622-.043.215.043.3.235.3h3.865a.272.272,0,0,1,.3.3Zm8.373,14.126c0,.194-.107.28-.3.28h-2.7a.31.31,0,0,0-.344.322l-.064,1.632a.3.3,0,0,1-.322.3h-2.748c-.193,0-.3-.107-.279-.322l.086-1.61c0-.215-.086-.322-.3-.322h-1.417a.379.379,0,0,0-.408.279,17.287,17.287,0,0,1-.9,2.168c-.107.193-.235.236-.407.15l-2.3-1.03a.283.283,0,0,1-.15-.408c.064-.172.193-.45.387-.859a.8.8,0,0,1,.021-.129c0-.107-.064-.171-.215-.171h-2.554c-.194,0-.28-.086-.28-.28l.065-1.352a.3.3,0,0,1,.322-.3h3.048c.215,0,.344-.086.366-.3l.064-.387c.022-.214-.064-.3-.258-.3h-.859a.271.271,0,0,1-.3-.3l.3-8.738c.022-.215.129-.323.323-.323h10.326c.194,0,.3.108.3.323l-.258,8.738a.272.272,0,0,1-.3.3h-.837a.262.262,0,0,0-.3.3l-.022.387c-.021.215.086.3.28.3h2.705c.214,0,.321.106.3.3Zm-5.625-5.26h-3.112c-.194,0-.3.108-.323.323l-.021.472a.263.263,0,0,0,.3.3h3.113a.271.271,0,0,0,.3-.3l.022-.472C1188.488,3851.087,1188.381,3850.979,1188.187,3850.979Zm.043-2.576-3.069-.021c-.194,0-.3.107-.323.322l-.021.451c0,.214.086.322.3.322h3.091a.285.285,0,0,0,.322-.322v-.451A.263.263,0,0,0,1188.23,3848.4Zm.086-2.64h-3.069c-.215,0-.323.107-.323.3v.494c0,.214.108.322.3.322h3.048a.3.3,0,0,0,.323-.3l.021-.515C1188.639,3845.87,1188.531,3845.763,1188.316,3845.763Zm-1.266,7.836h-1.181a.287.287,0,0,0-.322.236,1.788,1.788,0,0,0-.065.473c-.043.193.043.279.237.279h1.288c.215,0,.322-.086.322-.3v-.387C1187.329,3853.685,1187.243,3853.6,1187.05,3853.6Zm8.652-11.443c0,.193-.107.3-.344.3h-.837c-.193,0-.3.107-.322.322l-.086.623a.316.316,0,0,1-.343.3l-1.8-.021c-.215,0-.3-.107-.258-.322l.043-.58c.022-.215-.064-.3-.257-.3h-.58a.386.386,0,0,0-.386.322c-.065.193-.129.408-.194.6a.292.292,0,0,1-.386.237l-1.761-.537c-.171-.043-.235-.172-.171-.366a35.026,35.026,0,0,0,.837-3.456c.022-.193.15-.258.344-.215l1.824.3c.215.043.3.172.258.343-.021.107-.064.279-.107.516a.282.282,0,0,0,.021.236.347.347,0,0,0,.237.064l4.014-.021a.289.289,0,0,1,.236.086.345.345,0,0,1,.065.236Z" fill="#fff"/>
        <path id="パス_2834" data-name="パス 2834" d="M1213.181,3847.738a14.218,14.218,0,0,1-2.6,2.405,4.03,4.03,0,0,0-1.288,2.318.334.334,0,0,1-.365.3h-2.619c-.215,0-.3-.086-.258-.3a6.961,6.961,0,0,1,1.911-4.079l1.932-1.933a2.66,2.66,0,0,0,.644-1.76c.022-1.073-.537-1.631-1.7-1.631q-2.286,0-2.319,2.576a.284.284,0,0,1-.322.322l-2.812.022a.312.312,0,0,1-.215-.086.206.206,0,0,1-.064-.215c.172-3.37,2.125-5.045,5.861-5.045a5.8,5.8,0,0,1,3.993,1.181,3.61,3.61,0,0,1,1.159,2.919A4.967,4.967,0,0,1,1213.181,3847.738Zm-4.079,9.468c0,.214-.108.3-.322.3h-2.791c-.215,0-.3-.086-.28-.3l.237-2.427c0-.192.107-.278.3-.278h2.62c.214,0,.321.086.3.278Z" fill="#fff"/>
      </g>
    </g>
  </g>
</svg>
