<svg xmlns="http://www.w3.org/2000/svg" width="135.271" height="60.956" viewBox="0 0 135.271 60.956">
  <g id="グループ_245" data-name="グループ 245" transform="translate(-926.83 -3822.969)">
    <path id="frame_background" d="M1062.1,3846.541v3.813c0,13.019-16.473,23.572-36.794,23.572H998.881l-2.615,9.784a1.406,1.406,0,0,1-1.493,0l-4.722-9.784H963.625c-20.321,0-36.795-10.553-36.795-23.572v-3.813c0-13.018,16.474-23.572,36.795-23.572h61.682C1045.628,3822.969,1062.1,3833.523,1062.1,3846.541Z" fill="#65b7ec"/>
    <g id="グループ_242" data-name="グループ 242" opacity="0.5">
      <g id="グループ_241" data-name="グループ 241">
        <path id="パス_2807" data-name="パス 2807" d="M969.694,3864.042a.566.566,0,0,1-.552.58c-.04,0-6.358.425-14.177.425-7.819-.038-13.782-.271-13.821-.271a.575.575,0,0,1-.593-.579v-7.576a.614.614,0,0,1,.316-.541,29.426,29.426,0,0,0,6.121-4.251c2.843-2.474,4.3-5.218,3.554-6.8-.553-1.237-2.33-1.585-3.672-1.468a13.182,13.182,0,0,0-4.029,1.275.594.594,0,0,1-.789-.231l-2.923-5.3a.515.515,0,0,1,.04-.618c.2-.232,4.818-5.836,15.44-5.875,5.095,0,8.846,1.121,11.137,3.4a8.959,8.959,0,0,1,2.645,6.648c0,6.415-4.225,11.092-6.318,12.987.869.038,1.935.077,2.883.038l4.067-.116a.6.6,0,0,1,.435.155.615.615,0,0,1,.2.425Z" fill="#fff"/>
      </g>
    </g>
    <g id="グループ_244" data-name="グループ 244">
      <g id="グループ_243" data-name="グループ 243">
        <path id="パス_2808" data-name="パス 2808" d="M983.14,3853.084c0,.193-.107.3-.322.3h-6.033a.271.271,0,0,1-.3-.3l.258-8.416c0-.193.107-.3.321-.3h6.012a.272.272,0,0,1,.3.3Zm-2.962-3.264h-.537c-.215,0-.322.108-.322.3l-.022,1.009a.272.272,0,0,0,.3.3h.537c.214,0,.322-.108.322-.3l.021-1.009A.272.272,0,0,0,980.178,3849.82Zm.107-3.5h-.537c-.215,0-.322.107-.322.3l-.021.945a.271.271,0,0,0,.3.3h.537c.215,0,.322-.106.322-.3l.021-.945A.271.271,0,0,0,980.285,3846.321Zm14.878,6.333a.3.3,0,0,1-.322.3h-1.267c-.193,0-.3.108-.3.322-.085.923-.257,2.469-.558,4.659a.316.316,0,0,1-.343.3l-2.92.022a.228.228,0,0,1-.215-.086.323.323,0,0,1-.043-.215c.237-1.438.43-2.984.623-4.68.043-.214-.064-.322-.279-.322h-4.852c-.215,0-.3-.107-.279-.3l.043-1.352a.3.3,0,0,1,.322-.3h4.9a.263.263,0,0,0,.3-.3c.022-.364.043-.88.065-1.566a.263.263,0,0,1,.3-.3l2.834-.021a.32.32,0,0,1,.214.064.412.412,0,0,1,.064.258l-.064,1.566c0,.215.086.3.3.3h1.245c.215,0,.3.107.279.3Zm-7.536,3.908-1.717.408a.277.277,0,0,1-.365-.237l-.473-2.168a.266.266,0,0,1,.215-.365l1.739-.408c.193-.043.3.043.344.236l.493,2.19C987.906,3856.411,987.82,3856.519,987.627,3856.562Zm7.858-9.6c-.022.193-.108.3-.3.3h-9.254a.263.263,0,0,1-.3-.3l.064-1.353a.283.283,0,0,1,.322-.279h2.512c.193,0,.3-.107.322-.321l.043-.795c0-.215-.086-.322-.3-.322h-1.975c-.215,0-.3-.086-.3-.279l.064-1.352a.287.287,0,0,1,.322-.3h2a.272.272,0,0,0,.3-.3l.086-1.7c.022-.215.129-.322.322-.322h2.92c.193,0,.3.107.279.322l-.086,1.7a.263.263,0,0,0,.3.3h2.1c.215,0,.3.086.279.3l-.043,1.352a.283.283,0,0,1-.322.279h-2.126c-.193,0-.3.107-.3.322l-.043.795c-.021.214.086.321.279.321h2.6c.214,0,.322.086.3.279Z" fill="#fff"/>
        <path id="パス_2809" data-name="パス 2809" d="M1005.149,3847.931a.262.262,0,0,1-.3.3h-3.564a.3.3,0,0,0-.322.3l-.279,7.472a.263.263,0,0,1-.3.3l-2.126.021a.273.273,0,0,1-.214-.086.276.276,0,0,1-.086-.214l.515-14.75a.272.272,0,0,1,.3-.3h6.376c.215,0,.322.107.3.3Zm-2.641-2.448h-1.116c-.215,0-.322.086-.322.28v.343a.263.263,0,0,0,.3.3h1.094a.3.3,0,0,0,.323-.3l.021-.343C1002.831,3845.569,1002.723,3845.483,1002.508,3845.483Zm.108-2.683h-1.159a.263.263,0,0,0-.3.3v.322c0,.215.086.321.279.321h1.159a.284.284,0,0,0,.323-.321v-.322A.263.263,0,0,0,1002.616,3842.8Zm7.6,14.813a.3.3,0,0,1-.322.3h-5.732a.249.249,0,0,1-.28-.3l.258-6.29a.3.3,0,0,1,.322-.3h5.711c.215,0,.3.108.279.3Zm-2.705-2.425h-.773c-.215,0-.322.085-.322.279l-.021.622c-.022.193.085.3.3.3h.773a.272.272,0,0,0,.3-.3l.021-.622C1007.79,3855.273,1007.7,3855.188,1007.511,3855.188Zm.107-2.62h-.794c-.194,0-.3.086-.3.28l-.022.514c-.021.194.086.28.3.28h.773c.194,0,.3-.086.3-.28l.022-.514C1007.918,3852.654,1007.812,3852.568,1007.618,3852.568Zm8.545,4.316c-.022.193-.107.3-.322.3h-2.126c-.215,0-.322-.108-.3-.323l.343-8.373c0-.215-.086-.3-.3-.3h-3.671a.263.263,0,0,1-.3-.3l.344-6.677a.3.3,0,0,1,.343-.3h6.29a.249.249,0,0,1,.28.3Zm-2.6-11.465h-1.2c-.194,0-.3.086-.3.279l-.021.387c-.022.193.064.3.257.3h1.224a.3.3,0,0,0,.322-.3l.022-.387C1013.866,3845.5,1013.78,3845.419,1013.565,3845.419Zm.086-2.684h-1.159c-.215,0-.323.108-.323.3v.365a.266.266,0,0,0,.28.3h1.18c.215,0,.323-.106.323-.3v-.365A.272.272,0,0,0,1013.651,3842.735Z" fill="#fff"/>
        <path id="パス_2810" data-name="パス 2810" d="M1033.6,3847.738a14.218,14.218,0,0,1-2.6,2.405,4.03,4.03,0,0,0-1.288,2.318.334.334,0,0,1-.365.3h-2.619c-.215,0-.3-.086-.258-.3a6.961,6.961,0,0,1,1.911-4.079l1.932-1.933a2.659,2.659,0,0,0,.644-1.76c.021-1.073-.537-1.631-1.7-1.631q-2.286,0-2.319,2.576a.284.284,0,0,1-.322.322l-2.812.022a.312.312,0,0,1-.215-.086.207.207,0,0,1-.064-.215c.172-3.37,2.125-5.045,5.861-5.045a5.8,5.8,0,0,1,3.993,1.181,3.61,3.61,0,0,1,1.159,2.919A4.967,4.967,0,0,1,1033.6,3847.738Zm-4.079,9.468c0,.214-.108.3-.322.3h-2.791c-.215,0-.3-.086-.28-.3l.237-2.427c0-.192.107-.278.3-.278h2.62c.214,0,.321.086.3.278Z" fill="#fff"/>
      </g>
    </g>
  </g>
</svg>
