<?xml version="1.0" encoding="UTF-8" standalone="no"?>
<!-- Created with Inkscape (http://www.inkscape.org/) -->

<svg
   width="264.07269mm"
   height="52.916664mm"
   viewBox="0 0 264.07269 52.916664"
   version="1.1"
   id="svg8251"
   xmlns="http://www.w3.org/2000/svg"
   xmlns:svg="http://www.w3.org/2000/svg">
  <defs
     id="defs8248" />
  <g
     id="layer1"
     transform="translate(-4.1983175,-4.9678454)">
    <rect
       class="cls-31"
       x="4.1983175"
       y="4.9678454"
       width="264.07269"
       height="52.916664"
       rx="3.3734374"
       ry="3.3734374"
       id="rect6002"
       style="fill:#f6ed36;stroke-width:0.264583" />
    <path
       class="cls-30"
       d="m 241.46078,41.149601 c 0,3.63802 -3.89995,6.61458 -8.6651,6.61458 H 91.37854 c -4.765145,0 -8.665104,-2.97656 -8.665104,-6.61458 0,-3.63802 3.899959,-6.61458 8.665104,-6.61458 h 141.41714 c 4.76515,0 8.6651,2.97656 8.6651,6.61458 z"
       id="path6004"
       style="fill:#65b7ec;stroke-width:0.264583" />
    <path
       class="cls-29"
       d="m 123.86937,38.561971 -0.0212,0.37571 c 0.45773,-0.0582 0.90488,-0.14817 1.27265,-0.25135 l 0.0212,1.10331 c -0.40481,0.0873 -0.87577,0.1614 -1.32556,0.21431 -0.008,0.15346 -0.008,0.30956 -0.008,0.47096 v 0.2884 c 0.46302,-0.10319 0.92868,-0.15346 1.29645,-0.15346 1.16417,0 2.12725,0.59531 2.12725,1.68539 0,0.86255 -0.39687,1.56898 -1.65629,1.88384 -0.3466,0.0741 -0.67733,0.10318 -1.00277,0.13229 l -0.40481,-1.15623 c 0.35454,0 0.67733,-0.008 0.92075,-0.0503 0.56621,-0.0952 0.97896,-0.36777 0.97896,-0.81756 0,-0.4498 -0.36777,-0.6985 -0.97896,-0.6985 -0.40481,0 -0.84667,0.0582 -1.25942,0.16139 0.0159,0.55298 0.0291,1.06892 0.0291,1.29646 0,1.03717 -0.36777,1.29646 -0.89958,1.29646 -0.7964,0 -1.8415,-0.64823 -1.8415,-1.4949 0,-0.66146 0.73554,-1.35466 1.66423,-1.75948 -0.008,-0.1905 -0.008,-0.38364 -0.008,-0.57414 v -0.42069 c -0.11906,0.008 -0.21961,0.008 -0.3175,0.008 -0.52917,0 -0.8255,-0.008 -1.07421,-0.037 l -0.0212,-1.07421 c 0.44979,0.0503 0.7964,0.0503 1.06098,0.0503 0.11113,0 0.22754,0 0.35454,-0.008 v -0.46302 c 0,-0.15346 -0.0291,-0.58208 -0.0503,-0.72231 h 1.22238 c -0.0291,0.14023 -0.0661,0.52387 -0.082,0.71437 z m -1.25941,4.55877 c 0.11112,0 0.21431,-0.0291 0.21431,-0.28839 0,-0.14023 -0.008,-0.39159 -0.0159,-0.69321 -0.36777,0.20637 -0.59002,0.44979 -0.59002,0.65617 0,0.17727 0.25135,0.32279 0.39158,0.32279 z m 5.21493,-3.46868 -0.52916,0.90487 c -0.34661,-0.27252 -1.38377,-0.84667 -1.83357,-1.05304 l 0.4789,-0.86783 c 0.59002,0.27252 1.47373,0.74348 1.88383,1.016 z"
       id="path6006"
       style="fill:#ffffff;stroke-width:0.264583" />
    <path
       class="cls-29"
       d="m 131.64548,40.705101 v 3.88144 h -1.06098 v -6.731 h 2.93158 v 2.84956 z m 0,-2.04788 v 0.26459 h 0.86783 v -0.26459 z m 0.87048,1.24619 v -0.27252 h -0.86784 v 0.27252 z m 4.4106,3.44488 c 0,0.5662 -0.11113,0.86254 -0.4498,1.03716 -0.3466,0.17727 -0.8255,0.19844 -1.524,0.19844 -0.037,-0.2884 -0.1905,-0.75935 -0.33866,-1.0451 h -1.37583 v 0.40481 h -0.9869 v -2.82046 h 2.92364 v 2.39448 h 0.4789 c 0.14023,0 0.1905,-0.0503 0.1905,-0.18521 v -2.62202 h -1.92088 v -2.8575 h 3.00567 v 5.49275 z m -2.75432,-1.35467 h -0.93397 v 0.67733 h 0.93397 z m 0.76465,-3.34169 v 0.27252 h 0.90487 v -0.27252 z m 0.90752,1.26471 v -0.2884 h -0.90488 v 0.2884 z"
       id="path6008"
       style="fill:#ffffff;stroke-width:0.264583" />
    <path
       class="cls-29"
       d="m 141.54353,39.556811 c 0,0.48683 0,0.96573 0.045,1.45785 0.0873,0.96573 0.23548,1.64306 0.66146,1.64306 0.33867,0 0.59531,-0.92075 0.70644,-1.42081 l 0.89958,1.10331 c -0.51593,1.3044 -0.98689,1.75948 -1.62718,1.75948 -0.87578,0 -1.59809,-0.74348 -1.80446,-2.75431 -0.0741,-0.6985 -0.082,-1.54517 -0.082,-2.01083 0,-0.21961 -0.0159,-0.53711 -0.0661,-0.7964 l 1.37054,0.0159 c -0.0582,0.30956 -0.10319,0.78845 -0.10319,1.00277 z m 5.07471,3.04006 -1.18533,0.45773 c -0.10319,-1.11125 -0.46302,-3.048 -1.32556,-3.98992 l 1.14035,-0.36777 c 0.72231,0.84667 1.3044,2.84163 1.37054,3.9026 z"
       id="path6010"
       style="fill:#ffffff;stroke-width:0.264583" />
    <path
       class="cls-29"
       d="m 153.26722,37.598891 c 0.80169,1.14829 1.93675,2.03994 3.12209,2.48973 -0.26459,0.27252 -0.508,0.63235 -0.6985,0.96573 -0.35455,-0.18521 -0.70644,-0.40481 -1.05305,-0.64823 v 0.48683 h -3.683 v -0.52387 c -0.3466,0.25135 -0.71437,0.47889 -1.09008,0.67733 -0.14023,-0.25135 -0.44185,-0.64823 -0.6694,-0.86783 1.25942,-0.59532 2.42359,-1.70127 2.95275,-2.57704 h 1.11919 z m -2.84956,3.91583 h 4.80219 v 3.08504 h -1.10332 v -0.25664 h -2.64318 v 0.25664 h -1.05304 v -3.08504 z m 1.05304,0.93663 v 0.95779 h 2.64319 v -0.95779 z m 2.56911,-2.49767 c -0.52388,-0.42598 -0.97896,-0.88371 -1.28853,-1.30969 -0.30956,0.43392 -0.74347,0.88371 -1.25941,1.30969 z"
       id="path6012"
       style="fill:#ffffff;stroke-width:0.264583" />
    <path
       class="cls-29"
       d="m 164.23156,38.747181 c -0.008,0.25665 -0.0159,0.47096 -0.0159,0.6694 0.14023,-0.008 0.28046,-0.0212 0.40481,-0.0291 0.20638,-0.0159 0.53711,-0.037 0.78052,-0.0582 v 1.08215 c -0.14023,-0.008 -0.59002,0.008 -0.78845,0.0159 -0.12436,0.008 -0.26459,0.0159 -0.42069,0.0212 -0.0212,0.57415 -0.0503,1.14036 -0.11113,1.43669 -0.0873,0.42598 -0.28839,0.52387 -0.68527,0.52387 -0.25664,0 -0.89958,-0.0741 -1.18533,-0.11906 l 0.0212,-0.97896 c 0.21431,0.045 0.51593,0.0873 0.64822,0.0873 0.12436,0 0.18521,-0.0212 0.19844,-0.15346 0.0212,-0.17727 0.037,-0.42598 0.045,-0.71438 -0.59002,0.0503 -1.23825,0.11907 -1.80446,0.17727 -0.008,0.62707 -0.008,1.25942 0,1.58221 0.0159,0.68527 0.10319,0.78052 1.11125,0.78052 0.67734,0 1.61925,-0.0873 2.20927,-0.19843 l -0.045,1.22237 c -0.49212,0.0582 -1.39964,0.11906 -2.07697,0.11906 -2.01878,0 -2.2913,-0.40481 -2.3204,-1.73831 -0.008,-0.3175 -0.008,-0.9869 -0.008,-1.64835 -0.13229,0.0159 -0.24341,0.0291 -0.33073,0.037 -0.23548,0.0291 -0.77258,0.11112 -0.96573,0.14023 l -0.11906,-1.12713 c 0.19844,0 0.57415,-0.0159 1.00806,-0.0582 0.0953,-0.008 0.23548,-0.0212 0.40482,-0.037 v -0.58208 c 0,-0.35454 -0.0291,-0.64823 -0.0661,-0.92869 h 1.25942 c -0.037,0.2884 -0.0503,0.50006 -0.0503,0.86254 0,0.12436 0,0.3175 -0.008,0.53711 0.56621,-0.0503 1.2065,-0.11113 1.81239,-0.1614 v -0.70644 c 0,-0.19843 -0.037,-0.59531 -0.0582,-0.74348 h 1.2012 c -0.0212,0.11113 -0.045,0.4789 -0.0503,0.69321 z"
       id="path6014"
       style="fill:#ffffff;stroke-width:0.264583" />
    <path
       class="cls-29"
       d="m 169.76928,38.916511 c -0.0873,0.38365 -0.3466,2.09815 -0.3466,2.78342 0,0.0212 0,0.14023 0.008,0.16933 0.0873,-0.21431 0.18521,-0.35454 0.28046,-0.57414 l 0.5371,0.43392 c -0.2196,0.66145 -0.44185,1.40758 -0.52917,1.83356 -0.0212,0.10319 -0.045,0.27252 -0.045,0.3466 0,0.082 0,0.21431 0.008,0.33073 l -1.00806,0.0741 c -0.15346,-0.50006 -0.30163,-1.3626 -0.30163,-2.36272 0,-1.12713 0.20638,-2.5109 0.2884,-3.05594 0.0291,-0.21961 0.0741,-0.56092 0.082,-0.83344 l 1.23031,0.10319 c -0.0661,0.16139 -0.16933,0.61912 -0.19843,0.75141 z m 3.72798,-0.35454 c -0.008,0.14023 -0.0159,0.38365 -0.0212,0.69321 0.37571,-0.045 0.73554,-0.0953 1.06891,-0.16933 v 1.11125 c -0.33073,0.045 -0.6932,0.0873 -1.0742,0.11112 0.0159,0.67734 0.0503,1.20121 0.0741,1.64307 0.62706,0.25664 1.08214,0.64029 1.41287,0.94985 l -0.60325,0.93398 c -0.27252,-0.25665 -0.5371,-0.4789 -0.78845,-0.6694 -0.0952,0.69321 -0.55298,1.11919 -1.51607,1.11919 -1.03716,0 -1.72243,-0.44185 -1.72243,-1.27265 0,-0.83079 0.67733,-1.35466 1.7092,-1.35466 0.12436,0 0.25136,0.008 0.36777,0.0159 -0.0212,-0.39158 -0.045,-0.83873 -0.0503,-1.30439 -0.14023,0.008 -0.28045,0.008 -0.41275,0.008 -0.44185,0 -0.8837,-0.0159 -1.31762,-0.045 l -0.008,-1.06098 c 0.42598,0.045 0.86783,0.0661 1.31763,0.0661 0.14023,0 0.27252,0 0.41275,-0.008 -0.008,-0.3466 -0.008,-0.61912 -0.0159,-0.75141 0,-0.11113 -0.0291,-0.35454 -0.0582,-0.508 h 1.27265 c -0.0212,0.14023 -0.037,0.33073 -0.045,0.49212 z m -1.55575,4.6699 c 0.35455,0 0.49213,-0.1905 0.49213,-0.59531 v -0.0503 c -0.1614,-0.045 -0.32279,-0.0662 -0.49213,-0.0662 -0.3466,0 -0.57414,0.13229 -0.57414,0.36777 0,0.25665 0.25664,0.3466 0.57414,0.3466 z"
       id="path6016"
       style="fill:#ffffff;stroke-width:0.264583" />
    <path
       class="cls-29"
       d="m 179.10908,38.606951 h 3.75443 c 0.23548,0 0.59002,-0.0159 0.6985,-0.0212 -0.008,0.17727 -0.0212,0.50006 -0.0212,0.74347 v 3.82059 c 0,0.25135 0.0159,0.66939 0.037,0.95779 h -1.29646 c 0,-0.12435 0.008,-0.25135 0.008,-0.36777 h -3.23321 c -0.28046,0 -0.74348,0.0212 -1.00806,0.0503 v -1.27265 c 0.28839,0.0212 0.62706,0.045 0.97102,0.045 h 3.27819 v -2.79929 h -3.18823 c -0.33073,0 -0.74348,0.0159 -0.97102,0.0291 v -1.23825 c 0.29368,0.0291 0.70643,0.0503 0.97102,0.0503 z"
       id="path6018"
       style="fill:#ffffff;stroke-width:0.264583" />
    <path
       class="cls-29"
       d="m 190.02843,38.384701 c 0.78052,-0.11906 1.45785,-0.27252 1.83356,-0.45773 l 0.73025,0.97896 c -0.30162,0.0741 -0.52387,0.13229 -0.65616,0.1614 -0.34661,0.0873 -0.72232,0.16139 -1.11125,0.2196 v 1.02394 h 1.75947 c 0.15346,0 0.54505,-0.0291 0.71438,-0.045 v 1.14035 c -0.2196,-0.0159 -0.4789,-0.0291 -0.69321,-0.0291 h -1.81769 c -0.14023,1.1721 -0.66939,2.25425 -1.88383,2.99773 l -1.14035,-0.76465 c 1.09008,-0.49212 1.65629,-1.25148 1.83356,-2.23043 h -1.92881 c -0.21961,0 -0.508,0.0159 -0.70644,0.0291 v -1.14035 c 0.2196,0.0212 0.46302,0.045 0.6985,0.045 h 1.98702 v -0.87577 c -0.68527,0.0503 -1.40758,0.082 -1.8706,0.0873 l -0.28046,-1.02394 c 0.56621,0.008 1.7145,0.008 2.53206,-0.11906 z"
       id="path6020"
       style="fill:#ffffff;stroke-width:0.264583" />
    <path
       class="cls-29"
       d="m 201.91351,40.750081 c -0.24341,0.70643 -0.55298,1.39964 -1.09802,2.01083 -0.73025,0.81756 -1.68539,1.35467 -2.62996,1.62719 l -0.89164,-1.00806 c 1.14829,-0.24342 2.00289,-0.73025 2.53206,-1.25942 0.35983,-0.35983 0.56092,-0.73025 0.68527,-1.06892 h -3.34962 c -0.18521,0 -0.60325,0.008 -0.93398,0.037 v -1.14829 c 0.33866,0.0291 0.68527,0.0503 0.93398,0.0503 h 3.50573 c 0.28045,0 0.50006,-0.037 0.61912,-0.0873 l 0.78846,0.49213 c -0.0582,0.11112 -0.13229,0.26458 -0.1614,0.35454 z m -4.16718,-2.56382 h 2.79135 c 0.23548,0 0.65617,-0.0159 0.86783,-0.045 v 1.14829 c -0.20637,-0.0159 -0.60325,-0.0291 -0.88371,-0.0291 h -2.77547 c -0.25136,0 -0.60325,0.008 -0.8255,0.0291 v -1.14829 c 0.20637,0.0291 0.5662,0.045 0.8255,0.045 z"
       id="path6022"
       style="fill:#ffffff;stroke-width:0.264583" />
    <path
       class="cls-39"
       d="m 85.433353,21.282041 h -1.296458 v 0.61384 h -0.886354 v -5.23611 h 2.182812 z m -1.296458,-3.76766 v 0.99748 h 0.402166 v -0.99748 z m 0.402166,2.91571 v -1.0848 h -0.402166 v 1.0848 z m 4.172479,-1.4023 v 0.45509 h 0.560917 v 0.83343 H 88.71154 v 1.25678 c 0,0.43656 -0.07937,0.67468 -0.370416,0.81227 -0.291042,0.13758 -0.661459,0.15875 -1.137709,0.15875 -0.03175,-0.26459 -0.171979,-0.64823 -0.296333,-0.89959 0.277813,0.0132 0.635,0.0132 0.732896,0.0132 0.0979,0 0.132292,-0.0212 0.132292,-0.10583 v -1.23561 h -2.2225 v -0.83343 h 2.2225 v -0.45509 h -2.2225 v -0.83873 h 1.402291 v -0.43656 h -1.217083 v -0.8255 h 1.217083 v -0.66146 h 0.944563 v 0.66146 h 1.262062 v 0.8255 h -1.262062 v 0.43656 h 1.407583 v 0.83873 h -0.595312 z m -2.259541,2.81782 c -0.111125,-0.30427 -0.428625,-0.75936 -0.714375,-1.09009 l 0.767291,-0.43656 c 0.291042,0.30956 0.635,0.7329 0.772584,1.0504 z"
       id="path6026"
       style="fill:#58778d;stroke-width:0.264583" />
    <path
       class="cls-39"
       d="m 94.23604,18.982811 v 3.57188 h -0.9525 v -6.04308 h 2.632605 v 2.47385 H 94.23604 Z m 0,-1.79387 v 0.2249 h 0.780521 v -0.2249 z m 0.780521,1.11919 v -0.25665 H 94.23604 v 0.25665 z m 3.960813,3.14589 c 0,0.48948 -0.09261,0.75936 -0.383646,0.91811 -0.296334,0.15875 -0.693209,0.17727 -1.275292,0.17727 -0.01852,-0.16404 -0.07937,-0.39688 -0.150812,-0.61384 h -1.494896 v 0.33603 H 94.80754 v -2.95011 h 2.606146 v 2.26748 h 0.436563 c 0.119062,0 0.15875,-0.0397 0.15875,-0.15346 v -2.43946 h -1.725084 v -2.49237 h 2.69875 v 4.94771 z m -3.304646,-1.43404 v 0.27781 h 0.838729 v -0.27781 z m 0.838729,1.22238 v -0.27782 h -0.838729 v 0.27782 z m 0.682625,-4.05342 v 0.2249 h 0.812271 v -0.2249 z m 0.812271,1.13771 v -0.27781 h -0.812271 v 0.27781 z"
       id="path6028"
       style="fill:#58778d;stroke-width:0.264583" />
    <path
       class="cls-39"
       d="m 106.95721,19.411441 c 0,0.508 -0.4154,0.92604 -0.92605,0.92604 -0.51064,0 -0.92604,-0.41539 -0.92604,-0.92604 0,-0.51065 0.4154,-0.92604 0.92604,-0.92604 0.51065,0 0.92605,0.41539 0.92605,0.92604 z"
       id="path6030"
       style="fill:#58778d;stroke-width:0.264583" />
    <path
       class="cls-39"
       d="m 119.08041,19.101881 c -0.25664,0.64029 -0.64029,1.32291 -0.99747,1.79916 l -0.8255,-0.47625 c 0.12435,-0.1852 0.25664,-0.42862 0.38364,-0.67998 h -1.13771 v 1.8124 c 0,0.47625 -0.10583,0.71967 -0.46302,0.85196 -0.34925,0.13229 -0.80698,0.14552 -1.36789,0.14552 -0.0529,-0.26988 -0.21167,-0.67469 -0.34925,-0.92604 0.35718,0.0185 0.87312,0.0185 1.00541,0.0185 0.13229,-0.005 0.17198,-0.0265 0.17198,-0.12436 v -1.778 h -2.56646 v -0.91281 h 2.71727 c -0.39687,-0.15081 -0.79904,-0.29633 -1.12977,-0.4101 l 0.47625,-0.72761 c 0.26459,0.0794 0.59532,0.18521 0.93927,0.29634 0.20373,-0.13229 0.42334,-0.29634 0.62178,-0.46302 h -2.96863 v -0.87842 h 3.88938 l 0.21695,-0.0529 0.68792,0.54769 c -0.40217,0.39688 -0.90487,0.83344 -1.42081,1.19592 0.17727,0.0609 0.34396,0.127 0.47625,0.17727 l -0.19315,0.30956 h 0.87842 l 0.16404,-0.0661 0.79375,0.33603 z"
       id="path6032"
       style="fill:#58778d;stroke-width:0.264583" />
    <path
       class="cls-39"
       d="m 128.90175,21.501651 h -1.33615 v 1.03716 h -0.99748 v -1.03716 h -1.32821 c -0.1852,0.43656 -0.67468,0.80698 -1.70656,1.05039 -0.12435,-0.20373 -0.38894,-0.52123 -0.6006,-0.70114 0.54239,-0.0873 0.88635,-0.21167 1.10331,-0.34925 h -1.1774 v -0.75406 h 1.51342 v -0.29634 h -0.76729 v -2.60614 c -0.0582,0.0661 -0.12435,0.127 -0.18521,0.17727 -0.17727,-0.15082 -0.55562,-0.40217 -0.77258,-0.52123 0.42333,-0.30427 0.8255,-0.80698 1.0451,-1.29646 l 0.89165,0.25135 c -0.0317,0.0714 -0.0714,0.13759 -0.11113,0.21167 h 1.30175 v 0.56885 c 0.28311,-0.29104 0.52123,-0.66675 0.66146,-1.03187 l 0.91281,0.2249 c -0.0318,0.0794 -0.0662,0.15875 -0.10583,0.23812 h 1.65365 v 0.74613 h -0.80698 c 0.0582,0.0714 0.11112,0.14552 0.15081,0.21166 l -0.48948,0.21167 h 0.5424 v 2.61144 h -0.72761 v 0.29633 h 1.33615 v 0.75406 z m -4.91861,-4.08781 c -0.11906,0.15081 -0.24341,0.29633 -0.37041,0.42333 h 0.62177 c -0.0529,-0.13229 -0.13759,-0.28311 -0.2249,-0.42333 z m 3.29407,0.97895 h -2.69875 v 0.15082 h 2.69875 z m 0,0.6694 h -2.69875 v 0.15875 h 2.69875 z m 0,0.83873 v -0.15875 h -2.69875 v 0.15875 z m -1.13771,-2.06375 c -0.21167,-0.12436 -0.48948,-0.25665 -0.66675,-0.33073 0.0397,-0.0265 0.0794,-0.0609 0.11906,-0.0926 h -0.6006 c 0.0529,0.0926 0.0979,0.1852 0.13229,0.25664 l -0.47625,0.16404 h 1.49489 z m 0.42862,2.91042 v -0.29634 h -1.23031 v 0.29634 z m 0.77259,-2.91042 c -0.0794,-0.13229 -0.19844,-0.28311 -0.30957,-0.42333 h -0.24341 c -0.11907,0.15875 -0.23813,0.29633 -0.35719,0.42333 h 0.91281 z"
       id="path6034"
       style="fill:#58778d;stroke-width:0.264583" />
    <path
       class="cls-39"
       d="m 136.72283,19.411441 c 0,0.508 -0.4154,0.92604 -0.92605,0.92604 -0.51064,0 -0.92604,-0.41539 -0.92604,-0.92604 0,-0.51065 0.4154,-0.92604 0.92604,-0.92604 0.51065,0 0.92605,0.41539 0.92605,0.92604 z"
       id="path6036"
       style="fill:#58778d;stroke-width:0.264583" />
    <path
       class="cls-39"
       d="m 148.50208,21.506941 c 0,0.48154 -0.10055,0.74083 -0.40217,0.89165 -0.30427,0.15345 -0.7276,0.16404 -1.31498,0.16404 -0.0318,-0.26459 -0.17727,-0.70115 -0.30956,-0.94457 0.34396,0.0212 0.78581,0.0212 0.91281,0.0212 0.11906,-0.005 0.16404,-0.0397 0.16404,-0.15081 v -0.88636 l -0.70114,0.5424 c -0.21696,-0.33073 -0.62707,-0.78581 -1.04511,-1.20915 -0.25664,0.51594 -0.67469,0.99748 -1.30969,1.38113 -0.11112,-0.17198 -0.35718,-0.43656 -0.56885,-0.62706 v 1.87854 h -0.96573 v -5.21229 h 2.26748 v -1.08479 h 0.99219 v 1.08479 h 2.28071 v 4.15396 z m -4.5773,-0.98425 c 1.0504,-0.57415 1.26207,-1.46844 1.29646,-2.22779 h -1.29646 z m 2.28865,-2.22779 c -0.0132,0.22489 -0.0397,0.44979 -0.0794,0.67998 0.46831,0.43656 1.06362,0.99748 1.41552,1.42081 v -2.10344 h -1.33615 z"
       id="path6038"
       style="fill:#58778d;stroke-width:0.264583" />
    <path
       class="cls-39"
       d="m 156.13531,18.533021 c 0.70114,0.86519 1.65893,1.4605 2.67229,1.74625 -0.2249,0.24342 -0.43657,0.59532 -0.59532,0.87842 -0.20372,-0.0847 -0.42333,-0.18521 -0.635,-0.29633 v 1.69333 h -0.97895 v -0.16404 h -1.905 v 0.16404 h -0.93134 v -1.64042 c -0.20373,0.10584 -0.42333,0.21167 -0.635,0.29634 -0.11112,-0.23284 -0.34925,-0.60855 -0.53446,-0.81227 1.06363,-0.38365 2.07698,-1.18269 2.55323,-1.86532 h 0.99219 z m -2.43417,-0.2196 h -0.93927 v -1.56104 h 2.36008 v -0.48154 h 0.99219 v 0.48154 h 2.40771 v 1.56104 h -0.8599 c 0.23813,0.17198 0.44186,0.33602 0.59531,0.48948 l -0.73289,0.62706 c -0.3175,-0.35719 -1.02394,-0.88635 -1.57427,-1.2356 l 0.67998,-0.55563 c 0.26987,0.15875 0.6006,0.37042 0.90487,0.58208 v -0.6006 h -3.83646 v 0.69321 z m 1.60867,-0.34925 c -0.39688,0.61383 -1.05834,1.19062 -1.68011,1.53458 -0.13229,-0.19844 -0.46302,-0.58737 -0.65352,-0.76729 0.56092,-0.23812 1.11125,-0.64029 1.40758,-1.07685 z m 1.28852,3.58246 v -0.47625 h -1.905 v 0.47625 z m -0.0185,-1.31498 c -0.36248,-0.26459 -0.67469,-0.54769 -0.89959,-0.8255 -0.21696,0.26987 -0.51594,0.55562 -0.85989,0.8255 z"
       id="path6040"
       style="fill:#58778d;stroke-width:0.264583" />
    <path
       class="cls-39"
       d="m 162.47208,20.977771 0.83873,-0.71966 c 0.46302,0.38364 1.12447,1.06362 1.41552,1.43404 l -0.85196,0.73289 c -0.38894,-0.47625 -0.94456,-1.0451 -1.40229,-1.44727 z"
       id="path6042"
       style="fill:#58778d;stroke-width:0.264583" />
    <path
       class="cls-39"
       d="m 173.69835,20.594131 c 0,0.37571 0.33602,0.65352 1.2356,0.65352 0.89958,0 1.71979,-0.10054 2.35479,-0.25665 l 0.005,1.12977 c -0.635,0.13759 -1.40229,0.2249 -2.32039,0.2249 -1.61396,0 -2.36008,-0.54769 -2.36008,-1.50019 0,-0.40217 0.0794,-0.73289 0.127,-0.97102 l 1.05833,0.0926 c -0.0529,0.2249 -0.10054,0.4154 -0.10054,0.62707 z m 3.88143,-3.25173 -0.62706,0.26458 c -0.0185,-0.0318 -0.0317,-0.0661 -0.0529,-0.10583 v 0.64823 c -0.46832,0.0397 -1.34144,0.0794 -1.98438,0.0794 -0.70644,0 -1.28852,-0.0317 -1.83885,-0.0714 v -1.06362 c 0.49477,0.0529 1.11654,0.0794 1.83091,0.0794 0.57415,0 1.26207,-0.0318 1.778,-0.0714 -0.0794,-0.14552 -0.16404,-0.29104 -0.24341,-0.41011 l 0.62177,-0.25135 c 0.16404,0.24342 0.39687,0.67469 0.51593,0.90487 z m 0.82021,-0.32544 -0.62177,0.26458 c -0.13229,-0.26987 -0.34396,-0.66145 -0.52123,-0.91281 l 0.62177,-0.25135 c 0.17198,0.25135 0.41011,0.67468 0.52123,0.89958 z"
       id="path6044"
       style="fill:#58778d;stroke-width:0.264583" />
    <path
       class="cls-39"
       d="m 183.32124,18.797611 c 0.23813,0.25929 0.77259,0.93927 0.89959,1.10331 l -0.53446,0.77258 c -0.0847,-0.19314 -0.21696,-0.44979 -0.36248,-0.70114 v 2.57968 h -0.91811 v -2.29393 c -0.17727,0.46831 -0.38893,0.89958 -0.62177,1.20914 -0.0847,-0.26987 -0.29633,-0.66675 -0.44185,-0.91281 0.4101,-0.50271 0.75406,-1.31498 0.94456,-2.04258 h -0.76729 v -0.90488 h 0.88635 v -1.33614 h 0.91811 v 1.33614 h 0.75935 v 0.90488 h -0.75935 v 0.2831 z m 4.15396,-2.19075 v 5.83141 h -0.96573 v -0.32543 h -1.30175 v 0.3757 h -0.9181 v -5.88433 h 3.18823 z m -2.26748,0.90752 v 0.65352 h 1.30175 v -0.65352 z m 0,1.52135 v 0.67469 h 1.30175 v -0.67469 z m 1.30175,2.21456 v -0.67468 h -1.30175 v 0.67468 z"
       id="path6046"
       style="fill:#58778d;stroke-width:0.264583" />
    <path
       class="cls-39"
       d="m 193.89928,18.114981 h -2.56645 v -0.74612 h 2.56645 v 0.30956 c 0.21167,-0.25136 0.37042,-0.66146 0.43657,-1.04511 l 0.78052,0.15082 c -0.0662,0.44979 -0.23813,0.94456 -0.508,1.25677 l -0.70644,-0.29104 v 0.36248 z m -0.20637,4.10104 h -1.26206 v 0.23813 h -0.79905 v -2.29394 h 2.06375 v 2.05581 z m -0.0132,-3.18823 h -2.02935 v -0.71437 h 2.02935 z m -2.02935,0.19844 h 2.02935 v 0.71438 h -2.02935 z m 2.01612,-2.05052 h -1.9976 v -0.71437 h 1.9976 z m -1.2356,3.73063 v 0.56091 h 0.44979 v -0.56091 z m 2.65906,-1.21709 c -0.0847,0.508 -0.29104,1.0504 -0.59531,1.39436 l -0.79375,-0.38894 c 0.26458,-0.25665 0.46302,-0.7329 0.55562,-1.16946 z m 1.26206,0.99748 c 0.17727,0.37571 0.56092,0.78052 1.30175,1.05833 -0.17198,0.21696 -0.42333,0.58738 -0.55562,0.82021 -0.72761,-0.26987 -1.22238,-0.93927 -1.36261,-1.34937 -0.15346,0.4101 -0.71437,1.05833 -1.48166,1.34937 -0.10584,-0.21696 -0.35719,-0.6006 -0.52917,-0.78581 1.12448,-0.40217 1.51342,-1.15094 1.51342,-1.63248 v -1.03717 h 0.98425 v 1.03717 c 0,0.0979 0.0132,0.21167 0.0476,0.33073 0.15875,-0.30427 0.30956,-0.70115 0.40217,-1.00542 l 0.94456,0.28575 c -0.23813,0.42334 -0.48154,0.85196 -0.67998,1.13771 l -0.58737,-0.20373 z m 0.60854,-1.26206 c -0.26458,-0.24342 -0.75935,-0.58738 -1.23031,-0.89165 -0.27781,0.39688 -0.71437,0.71438 -1.38906,0.94457 -0.0926,-0.23284 -0.33073,-0.58209 -0.52917,-0.75936 1.38906,-0.42862 1.44727,-1.18269 1.4949,-2.44739 h 0.93927 c -0.0212,0.54768 -0.0609,1.03716 -0.16404,1.4605 0.52123,0.29633 1.16945,0.6932 1.51341,0.97102 l -0.635,0.71966 z m -0.7276,-1.73831 c 0.15875,-0.30427 0.33602,-0.75936 0.42333,-1.09802 l 0.92604,0.27781 c -0.23283,0.40216 -0.45508,0.80698 -0.635,1.07685 z"
       id="path6048"
       style="fill:#58778d;stroke-width:0.264583" />
    <path
       class="cls-39"
       d="m 203.08562,19.437901 c 0,-1.61396 0.91281,-2.52677 2.25425,-2.52677 1.34143,0 2.25425,0.9181 2.25425,2.52677 0,1.60866 -0.91282,2.57969 -2.25425,2.57969 -1.34144,0 -2.25425,-0.96573 -2.25425,-2.57969 z m 3.30729,0 c 0,-0.9525 -0.40217,-1.51342 -1.0504,-1.51342 -0.64823,0 -1.0451,0.56092 -1.0451,1.51342 0,0.9525 0.39687,1.56104 1.0451,1.56104 0.64823,0 1.0504,-0.60854 1.0504,-1.56104 z"
       id="path6050"
       style="fill:#58778d;stroke-width:0.264583" />
    <path
       class="cls-39"
       d="m 211.81687,16.998441 h 1.18268 v 1.94998 h 0.0212 l 1.39436,-1.94998 h 1.29645 l -1.48695,1.97644 1.76477,2.9501 h -1.28852 l -1.16417,-2.01612 -0.53446,0.7276 v 1.28852 h -1.18269 v -4.92654 z"
       id="path6052"
       style="fill:#58778d;stroke-width:0.264583" />
    <path
       class="cls-39"
       d="m 221.69905,17.255091 c 0.62178,-0.0529 1.61925,-0.1323 2.83105,-0.23813 0.66145,-0.0529 1.44198,-0.10054 1.92352,-0.11906 l 0.008,1.03187 c -0.34395,0.005 -0.90487,0.005 -1.27,0.0794 -0.71437,0.15875 -1.3282,0.93133 -1.3282,1.71979 0,0.97102 0.91281,1.35467 2.05581,1.42081 l -0.37571,1.11125 c -1.47373,-0.11377 -2.73844,-0.91281 -2.73844,-2.32039 0,-0.90488 0.48419,-1.60602 0.83873,-1.93146 -0.56885,0.0609 -1.73302,0.1905 -2.52677,0.37041 l -0.10054,-1.09008 c 0.26458,-0.008 0.55562,-0.0212 0.67998,-0.0318 z m 4.33917,2.11666 -0.58737,0.25665 c -0.17727,-0.38365 -0.29105,-0.60061 -0.50271,-0.90488 l 0.57414,-0.23812 c 0.16405,0.24341 0.39688,0.64029 0.51594,0.88635 z m 0.78052,-0.34396 -0.58208,0.27782 c -0.1905,-0.37571 -0.3175,-0.58209 -0.53446,-0.87842 l 0.56885,-0.25929 c 0.17198,0.23812 0.41805,0.62177 0.55034,0.85989 z"
       id="path6054"
       style="fill:#58778d;stroke-width:0.264583" />
    <path
       class="cls-39"
       d="m 234.22708,17.196881 v 0.0714 c 0.61383,0 1.50018,-0.0132 1.84414,-0.005 l -0.0132,0.94457 c -0.38894,-0.0212 -1.01071,-0.0318 -1.84414,-0.0397 0.005,0.3175 0.005,0.65352 0.005,0.93133 0.17198,0.25665 0.25664,0.58738 0.25664,0.94456 0,0.84667 -0.54768,1.99761 -2.20133,2.4474 l -0.85196,-0.85196 c 0.57415,-0.11906 1.12448,-0.27781 1.51342,-0.58208 -0.0397,0.008 -0.0794,0.008 -0.11906,0.008 -0.48155,0 -1.16946,-0.4154 -1.16946,-1.27 0,-0.79905 0.64029,-1.28853 1.40758,-1.28853 0.0582,0 0.11113,0 0.16404,0.005 0,-0.11113 0,-0.2249 -0.008,-0.33602 -0.99219,0.0132 -1.97115,0.0529 -2.77813,0.0926 l -0.0265,-0.95779 c 0.76729,0.005 1.93675,-0.0185 2.79136,-0.0318 -0.008,-0.0265 -0.008,-0.0529 -0.008,-0.0714 -0.0265,-0.3175 -0.0529,-0.56092 -0.0714,-0.66146 h 1.15623 c -0.0212,0.127 -0.0476,0.53446 -0.0529,0.65352 z m -1.19592,2.98185 c 0.21167,0 0.43656,-0.15346 0.36512,-0.65352 -0.0873,-0.11906 -0.21166,-0.17727 -0.36512,-0.17727 -0.20373,0 -0.42333,0.12435 -0.42333,0.42862 0,0.23813 0.21166,0.40217 0.42333,0.40217 z"
       id="path6056"
       style="fill:#58778d;stroke-width:0.264583" />
    <path
       class="cls-39"
       d="m 240.42626,21.329671 c 0,-0.38894 0.28575,-0.66146 0.67469,-0.66146 0.38894,0 0.67469,0.26988 0.67469,0.66146 0,0.39158 -0.28311,0.67469 -0.67469,0.67469 -0.39158,0 -0.67469,-0.28311 -0.67469,-0.67469 z m 0.0661,-3.25438 -0.0397,-1.09802 h 1.29646 l -0.0397,1.09802 -0.19844,2.09021 h -0.8202 z"
       id="path6058"
       style="fill:#58778d;stroke-width:0.264583" />
    <path
       class="cls-39"
       d="m 89.333311,30.217021 v 0.8599 h -3.902604 v -0.80698 l -0.296333,0.10583 c -0.04498,-0.25664 -0.150813,-0.62177 -0.264584,-0.95779 v 1.82563 h -0.846666 v -2.05052 c -0.05821,0.58737 -0.1905,1.19591 -0.357188,1.5875 -0.164041,-0.10584 -0.521229,-0.26988 -0.719666,-0.34396 0.171979,-0.38365 0.264583,-0.97896 0.304271,-1.52665 l 0.772583,0.13758 v -0.43656 l -0.931333,0.0662 -0.07937,-0.8255 0.521229,-0.0212 c 0.07937,-0.10054 0.150812,-0.20373 0.230187,-0.30956 -0.1905,-0.29104 -0.489479,-0.62706 -0.754062,-0.88636 l 0.441854,-0.66675 0.132292,0.11113 c 0.164041,-0.35719 0.330729,-0.77258 0.428625,-1.11125 l 0.846666,0.29104 c -0.251354,0.46831 -0.521229,0.98425 -0.754062,1.35467 0.04498,0.0582 0.100541,0.11906 0.137583,0.17198 0.211667,-0.34925 0.410104,-0.70644 0.555625,-1.01865 l 0.806979,0.33073 c -0.269875,0.4101 -0.574146,0.8599 -0.886354,1.27529 l 0.613833,-0.26987 c 0.256646,0.44979 0.508,1.03187 0.587375,1.42081 l -0.719666,0.33073 c -0.02117,-0.10054 -0.04498,-0.21167 -0.07937,-0.33073 l -0.259292,0.0185 v 0.508 l 0.587375,-0.19315 c 0.164042,0.39688 0.336021,0.90488 0.415396,1.24355 l -0.304271,0.11112 h 0.423333 v -4.94771 h 2.928938 v 4.94771 h 0.410104 z m -4.482041,-2.43946 c -0.05292,-0.127 -0.105834,-0.24341 -0.164042,-0.35718 -0.100542,0.13229 -0.1905,0.25929 -0.291042,0.37571 z m 2.069041,-1.6457 v 0.75406 h 1.031875 v -0.75406 z m 1.031875,1.61395 h -1.031875 v 0.78582 h 1.031875 z m -1.031875,2.47121 h 1.031875 v -0.8255 h -1.031875 z"
       id="path6060"
       style="fill:#58778d;stroke-width:0.264583" />
    <path
       class="cls-39"
       d="m 94.759915,25.555061 c 0.396875,0 1.005417,-0.0212 1.328209,-0.0476 0.185208,-0.0132 0.388937,-0.0582 0.521229,-0.11113 l 0.635,0.49478 c -0.105833,0.11112 -0.198438,0.21166 -0.251354,0.30427 -0.164042,0.27781 -0.388938,0.79904 -0.613834,1.3282 0.436563,0.0794 0.846667,0.20373 1.222375,0.36513 0,-0.0265 0.0053,-0.0529 0.0053,-0.0714 0.02117,-0.29104 0.02117,-0.57414 -0.0053,-0.78581 l 1.050396,0.11906 c -0.02117,0.42863 -0.06085,0.8255 -0.119062,1.19063 0.256645,0.15081 0.47625,0.29104 0.65352,0.4101 l -0.46302,1.11654 c -0.15875,-0.14552 -0.322792,-0.2831 -0.502709,-0.42333 -0.304271,0.68792 -0.799041,1.24354 -1.632479,1.6854 l -0.859896,-0.69321 c 0.96573,-0.4154 1.420813,-0.99748 1.653646,-1.53988 -0.423333,-0.23019 -0.886354,-0.4101 -1.381125,-0.48948 -0.232833,0.54769 -0.47625,1.13771 -0.701146,1.50019 -0.283104,0.43656 -0.627062,0.64823 -1.143,0.64823 -0.627062,0 -1.103312,-0.42333 -1.103312,-1.16417 0,-1.0451 0.9525,-1.85208 2.293937,-1.93146 0.15875,-0.37041 0.3175,-0.75406 0.441855,-1.0107 -0.264584,0.005 -0.706438,0.0185 -1.005417,0.0397 -0.132292,0.005 -0.388938,0.0317 -0.568854,0.0609 l -0.03969,-1.02394 c 0.185209,0.0185 0.436563,0.0318 0.582084,0.0318 z m -0.555625,3.9423 c 0.119063,0 0.198438,-0.0662 0.309563,-0.2249 0.132292,-0.21167 0.277812,-0.52917 0.423333,-0.87312 -0.608541,0.127 -0.9525,0.49477 -0.9525,0.83343 0,0.17727 0.0926,0.26459 0.216959,0.26459 z"
       id="path6062"
       style="fill:#58778d;stroke-width:0.264583" />
    <path
       class="cls-39"
       d="m 106.34073,24.967691 c 0.71966,1.03187 1.73831,1.83092 2.80458,2.23573 -0.23812,0.24342 -0.45508,0.56885 -0.62706,0.86519 -0.3175,-0.16405 -0.635,-0.36248 -0.94456,-0.58209 v 0.43657 h -3.3073 v -0.46832 c -0.30956,0.2249 -0.64029,0.42863 -0.97895,0.60854 -0.12436,-0.22489 -0.39688,-0.58208 -0.60061,-0.78052 1.12977,-0.53445 2.17488,-1.52664 2.65113,-2.3151 h 1.00541 z m -2.55852,3.51631 h 4.3127 v 2.77019 h -0.99218 v -0.23019 h -2.37332 v 0.23019 h -0.94456 v -2.77019 z m 0.94456,0.84138 v 0.85989 h 2.37331 v -0.85989 z m 2.30981,-2.24102 c -0.46831,-0.38365 -0.87842,-0.79375 -1.15623,-1.1774 -0.27781,0.39158 -0.66675,0.79375 -1.12977,1.1774 h 2.28865 z"
       id="path6064"
       style="fill:#58778d;stroke-width:0.264583" />
    <path
       class="cls-39"
       d="m 114.27294,25.192591 1.15622,0.0318 c -0.0476,0.20372 -0.10054,0.54239 -0.15081,0.93927 l 0.25136,0.33602 c -0.0873,0.11377 -0.23813,0.34925 -0.35719,0.52123 0,0.0264 0,0.0476 -0.005,0.0661 0.64029,-0.44185 1.28852,-0.6006 1.85737,-0.6006 1.07157,0 1.87061,0.75935 1.87061,1.84414 0,1.34144 -0.76729,2.19605 -2.51884,2.5453 l -0.47625,-0.96573 c 1.18269,-0.18521 1.91823,-0.62707 1.91823,-1.60073 0,-0.52123 -0.42333,-0.88636 -0.96573,-0.88636 -0.66675,0 -1.2356,0.30957 -1.76477,0.78052 -0.005,0.15082 -0.005,0.29634 -0.005,0.43657 0,0.5027 0,1.15093 0.045,1.78593 0.005,0.11907 0.0318,0.40217 0.0529,0.56886 h -1.09802 c 0.0132,-0.17198 0.0185,-0.44186 0.0185,-0.54769 0.005,-0.39687 0.0132,-0.74612 0.0265,-1.16417 -0.25135,0.37042 -0.51593,0.7673 -0.70114,1.01071 l -0.62177,-0.87841 c 0.37041,-0.46303 0.99218,-1.25678 1.38906,-1.82563 0.005,-0.11906 0.0185,-0.23812 0.0265,-0.35719 -0.34396,0.0397 -0.81227,0.10054 -1.15623,0.14552 l -0.10054,-1.01864 c 0.21166,0.008 0.37571,0.008 0.65352,-0.005 0.17992,-0.0132 0.41539,-0.0397 0.66675,-0.0714 0.0132,-0.21167 0.0212,-0.37571 0.0212,-0.44186 0,-0.21166 0.005,-0.42333 -0.0318,-0.64822 z"
       id="path6066"
       style="fill:#58778d;stroke-width:0.264583" />
    <path
       class="cls-39"
       d="m 127.49416,25.999561 c -0.005,0.23284 -0.0132,0.42334 -0.0132,0.60061 0.12436,-0.005 0.25136,-0.0185 0.36248,-0.0265 0.18521,-0.0132 0.48155,-0.0317 0.70115,-0.0529 v 0.97102 c -0.127,-0.008 -0.52917,0.005 -0.70644,0.0132 -0.11112,0.005 -0.23812,0.0132 -0.37571,0.0185 -0.0212,0.51594 -0.045,1.02394 -0.10054,1.28853 -0.0794,0.38364 -0.25664,0.46831 -0.61383,0.46831 -0.23283,0 -0.80698,-0.0662 -1.06363,-0.10584 l 0.0185,-0.87841 c 0.19315,0.0397 0.46302,0.0794 0.58209,0.0794 0.11112,0 0.16404,-0.0212 0.17727,-0.13758 0.0185,-0.15875 0.0318,-0.38365 0.0397,-0.64029 -0.52917,0.0476 -1.11125,0.10583 -1.61925,0.15875 -0.005,0.56091 -0.005,1.12977 0,1.42081 0.0132,0.61383 0.0926,0.70115 0.99748,0.70115 0.60854,0 1.45521,-0.0794 1.98437,-0.17727 l -0.0397,1.09802 c -0.44185,0.0529 -1.25677,0.10583 -1.86531,0.10583 -1.8124,0 -2.05581,-0.36248 -2.08227,-1.56104 -0.005,-0.28311 -0.005,-0.88636 -0.005,-1.48167 -0.11906,0.0132 -0.21696,0.0265 -0.29633,0.0318 -0.21167,0.0265 -0.69321,0.10054 -0.86519,0.12436 l -0.10583,-1.01072 c 0.17728,0 0.51594,-0.0132 0.90488,-0.0529 0.0847,-0.005 0.21167,-0.0185 0.36248,-0.0317 v -0.52123 c 0,-0.3175 -0.0265,-0.58208 -0.0609,-0.83344 h 1.12977 c -0.0318,0.25665 -0.0476,0.4498 -0.0476,0.77259 0,0.11112 0,0.2831 -0.005,0.48154 0.508,-0.0476 1.08479,-0.10054 1.62719,-0.14552 v -0.635 c 0,-0.17727 -0.0318,-0.53446 -0.0529,-0.66675 h 1.07685 c -0.0185,0.0979 -0.0397,0.42862 -0.045,0.62177 z"
       id="path6068"
       style="fill:#58778d;stroke-width:0.264583" />
    <path
       class="cls-39"
       d="m 138.08278,30.198501 c 0,0.48154 -0.10054,0.74084 -0.40216,0.89165 -0.30427,0.15081 -0.72761,0.16404 -1.31498,0.16404 -0.0317,-0.26458 -0.17727,-0.70115 -0.30956,-0.94456 0.34395,0.0212 0.78581,0.0212 0.91281,0.0212 0.11906,-0.005 0.16404,-0.0397 0.16404,-0.15081 v -0.88635 l -0.70115,0.54239 c -0.21695,-0.33073 -0.62706,-0.78581 -1.0451,-1.20914 -0.25665,0.51593 -0.67469,0.99748 -1.30969,1.38112 -0.11112,-0.17198 -0.35718,-0.43656 -0.56885,-0.62706 v 1.87854 h -0.96573 v -5.21229 h 2.26748 v -1.08479 h 0.99219 v 1.08479 h 2.2807 v 4.15396 z m -4.57464,-0.98689 c 1.05039,-0.57415 1.26206,-1.46844 1.29646,-2.2278 h -1.29646 z m 2.28864,-2.2278 c -0.0132,0.2249 -0.0397,0.4498 -0.0794,0.67998 0.46831,0.43657 1.06362,0.99748 1.41552,1.42082 v -2.10344 h -1.33615 z"
       id="path6070"
       style="fill:#58778d;stroke-width:0.264583" />
    <path
       class="cls-39"
       d="m 145.71866,27.221941 c 0.70115,0.86519 1.65894,1.4605 2.67229,1.74625 -0.22489,0.24342 -0.43656,0.59531 -0.59531,0.87842 -0.20373,-0.0847 -0.42333,-0.18521 -0.635,-0.29634 v 1.69334 h -0.97896 v -0.16405 h -1.905 v 0.16405 h -0.93133 v -1.64042 c -0.20373,0.10583 -0.42334,0.21167 -0.635,0.29633 -0.11113,-0.23283 -0.34925,-0.60854 -0.53446,-0.81227 1.06362,-0.38364 2.07698,-1.18269 2.55323,-1.86531 h 0.99219 z m -2.43417,-0.21696 h -0.93927 v -1.56104 h 2.36009 v -0.48154 h 0.99218 v 0.48154 h 2.40771 v 1.56104 h -0.85989 c 0.23812,0.17198 0.44185,0.33602 0.59531,0.48948 l -0.7329,0.62706 c -0.3175,-0.35718 -1.02394,-0.88635 -1.57427,-1.2356 l 0.67998,-0.55563 c 0.26988,0.15875 0.6006,0.37042 0.90488,0.58209 v -0.60061 h -3.83646 v 0.69321 z m 1.60602,-0.35189 c -0.39687,0.61383 -1.05833,1.19062 -1.6801,1.53458 -0.13229,-0.19844 -0.46302,-0.58738 -0.65352,-0.76729 0.56092,-0.23813 1.11125,-0.64029 1.40758,-1.07686 z m 1.29117,3.5851 v -0.47625 h -1.905 v 0.47625 z m -0.0212,-1.31763 c -0.36248,-0.26458 -0.67468,-0.54768 -0.89958,-0.8255 -0.21696,0.26988 -0.51594,0.55563 -0.8599,0.8255 z"
       id="path6072"
       style="fill:#58778d;stroke-width:0.264583" />
    <path
       class="cls-39"
       d="m 154.85208,25.920191 c -0.0132,0.0847 -0.0318,0.2249 -0.0609,0.4101 0.44979,-0.005 0.86519,-0.045 1.12977,-0.0926 l -0.0318,0.9525 c -0.36248,0.0397 -0.70114,0.0661 -1.23031,0.0661 -0.0318,0.23812 -0.0609,0.48947 -0.0926,0.73289 h 0.005 c 0.37571,0 0.88635,-0.0317 1.29646,-0.0794 l -0.0265,0.94456 c -0.32279,0.0318 -0.70115,0.0609 -1.09802,0.0609 h -0.26988 c -0.0132,0.15082 -0.0185,0.28311 -0.0185,0.38365 0,0.49477 0.3175,0.73289 0.90488,0.73289 0.87841,0 1.30968,-0.41539 1.30968,-0.87841 0,-0.46302 -0.25135,-0.83873 -0.65352,-1.24354 l 1.12448,-0.23813 c 0.42863,0.58208 0.62177,1.0504 0.62177,1.61396 0,1.00542 -0.90487,1.79123 -2.43416,1.79123 -1.12448,0 -1.86532,-0.48154 -1.86532,-1.60602 0,-0.14552 0.0132,-0.36513 0.0397,-0.61384 -0.46302,-0.045 -0.86519,-0.11906 -1.19592,-0.20372 l 0.0529,-0.96573 c 0.4154,0.13758 0.83873,0.21695 1.24883,0.25664 0.0265,-0.24341 0.0582,-0.49477 0.0926,-0.74083 -0.44186,-0.045 -0.88636,-0.13229 -1.25677,-0.23813 l 0.045,-0.9181 c 0.37041,0.127 0.83873,0.20373 1.31498,0.24342 0.0212,-0.15875 0.0318,-0.30957 0.0397,-0.43657 0.0265,-0.34925 0.0265,-0.48948 0.0132,-0.65352 l 1.12448,0.0609 c -0.0661,0.27781 -0.10054,0.47625 -0.13229,0.66146 z"
       id="path6074"
       style="fill:#58778d;stroke-width:0.264583" />
    <path
       class="cls-39"
       d="m 166.1101,29.603191 c 0.52123,0.3175 1.20914,0.58737 1.85737,0.74612 -0.21166,0.19315 -0.50271,0.56886 -0.64029,0.80698 -0.71437,-0.23812 -1.45521,-0.64029 -2.04258,-1.12448 v 1.20386 h -0.97896 v -1.20915 c -0.57415,0.49477 -1.29646,0.90488 -2.02936,1.15094 -0.13758,-0.23283 -0.42862,-0.6006 -0.635,-0.79904 0.66146,-0.15875 1.33615,-0.44186 1.85209,-0.77258 h -1.64571 v -0.8255 h 2.46062 v -0.14553 c -0.13229,0.005 -0.26987,0.005 -0.42333,0.005 -0.0397,-0.19844 -0.127,-0.44186 -0.2196,-0.635 -0.4154,0.29633 -0.87313,0.54239 -1.33615,0.71437 -0.13229,-0.21167 -0.39687,-0.54239 -0.58737,-0.71967 0.48948,-0.14552 0.99748,-0.37041 1.42875,-0.635 h -1.25677 v -0.74612 h 2.14312 c -0.2831,-0.0741 -0.56885,-0.13229 -0.83344,-0.17727 l 0.54769,-0.508 c 0.30956,0.0529 0.65352,0.127 0.99219,0.21167 0.15875,-0.0661 0.32279,-0.14553 0.46831,-0.2249 h -2.72521 v -0.74083 h 3.78884 l 0.19314,-0.0397 0.58208,0.46302 c -0.36247,0.29633 -0.80697,0.58737 -1.29645,0.83344 0.14552,0.0476 0.26987,0.0926 0.38893,0.13758 l -0.045,0.0476 h 0.78053 l 0.16404,-0.0397 0.74083,0.22489 c -0.27781,0.55563 -0.66675,1.12977 -1.01071,1.51342 l -0.85989,-0.29104 c 0.15875,-0.17198 0.33073,-0.41011 0.48948,-0.66146 h -0.99219 v 0.48154 c 0,0.39688 -0.0873,0.58209 -0.37571,0.67998 h 0.23019 v 0.25136 h 2.48708 v 0.8255 h -1.65894 z m -1.71186,-2.24102 c -0.17727,0.1905 -0.38364,0.37042 -0.6006,0.54239 0.21696,0.005 0.45508,0.005 0.52123,0 0.10054,0 0.13229,-0.0185 0.13229,-0.10054 v -0.44185 z"
       id="path6076"
       style="fill:#58778d;stroke-width:0.264583" />
    <path
       class="cls-39"
       d="m 176.5876,27.891341 c 0,0.6932 0.30956,1.83885 1.38906,2.51354 -0.17198,0.21166 -0.43656,0.60854 -0.57415,0.84666 -0.73289,-0.44979 -1.16945,-1.41552 -1.28323,-1.94468 -0.11112,0.54239 -0.6006,1.47373 -1.39435,1.94468 -0.10054,-0.21166 -0.37042,-0.62177 -0.53446,-0.81227 0.10584,-0.0661 0.21167,-0.13229 0.30427,-0.20373 h -0.91281 v 1.00542 h -0.89165 v -1.00542 h -1.08479 v -0.83343 h 1.08479 v -0.26988 h -0.91281 v -2.48708 h 0.91281 v -0.28311 h -1.00541 v -0.8202 h 1.00541 v -0.58209 h 0.89959 v 0.58209 h 1.01864 v 0.8202 h -1.01864 v 0.28311 h 0.94456 v 0.508 c 0.30427,-0.58738 0.48154,-1.38113 0.57415,-2.19604 l 0.92604,0.13229 c -0.0529,0.36512 -0.11906,0.71437 -0.19844,1.05833 h 1.20915 l 0.13758,-0.0265 0.64823,0.14552 c -0.11113,0.68792 -0.27781,1.4605 -0.41011,1.97115 l -0.77258,-0.17727 c 0.0609,-0.27781 0.11906,-0.66146 0.17727,-1.05833 h -0.23812 v 0.89164 z m -4.09311,-0.31221 h 0.29634 v -0.28311 h -0.29634 z m 0,0.89164 h 0.29634 v -0.29104 h -0.29634 z m 1.28323,-0.89164 v -0.28311 h -0.30427 v 0.28311 z m 0,0.89164 v -0.29104 h -0.30427 v 0.29104 z m 0.89165,1.60867 c 0.74083,-0.67469 0.97896,-1.60073 0.97896,-2.1881 v -0.89165 h -0.0609 c -0.15081,0.44979 -0.34396,0.84667 -0.56885,1.16417 -0.10584,-0.0979 -0.30427,-0.24342 -0.48948,-0.37571 v 1.34144 h -0.9525 v 0.26987 h 1.09008 v 0.67998 z"
       id="path6078"
       style="fill:#58778d;stroke-width:0.264583" />
    <path
       class="cls-39"
       d="m 183.17572,26.171541 c -0.0714,0.34396 -0.3175,1.74625 -0.3175,2.36009 0,0.0212 0,0.12435 0.005,0.15081 0.0926,-0.18521 0.17198,-0.3175 0.25665,-0.508 l 0.48154,0.38365 c -0.19844,0.6006 -0.40217,1.3282 -0.47625,1.69862 -0.0212,0.10054 -0.0397,0.25665 -0.0397,0.3175 0,0.0714 0,0.1905 0.008,0.29633 l -0.92604,0.0609 c -0.13229,-0.44186 -0.26458,-1.27529 -0.26458,-2.17488 0,-1.01071 0.1905,-2.11666 0.25664,-2.60614 0.0265,-0.19844 0.0714,-0.49477 0.0794,-0.74613 l 1.11654,0.0926 c -0.0609,0.15081 -0.15875,0.55562 -0.18521,0.67468 z m 1.68011,3.15384 c 0,0.29104 0.27781,0.40216 0.8202,0.40216 0.58738,0 1.06363,-0.0529 1.66688,-0.17727 l 0.0212,1.08479 c -0.43657,0.0794 -0.9578,0.12436 -1.73832,0.12436 -1.15623,0 -1.73302,-0.42863 -1.73302,-1.13771 0,-0.2831 0.0397,-0.56092 0.11907,-0.90487 l 0.91281,0.0794 c -0.045,0.21167 -0.0661,0.35719 -0.0661,0.52917 z m 2.30187,-3.43165 v 1.03188 c -0.86519,0.0714 -2.02406,0.0794 -2.91042,0 l -0.005,-1.02394 c 0.86519,0.10583 2.17488,0.0714 2.91571,-0.005 z"
       id="path6080"
       style="fill:#58778d;stroke-width:0.264583" />
    <path
       class="cls-39"
       d="m 194.0448,27.076421 c -0.11906,0.67998 -0.29104,1.29646 -0.51593,1.85208 0.26987,0.37042 0.508,0.72761 0.65352,1.03717 l -0.76729,0.65352 c -0.0926,-0.21696 -0.2249,-0.46302 -0.38894,-0.7276 -0.33602,0.52122 -0.75936,0.95779 -1.27,1.30175 -0.11906,-0.1905 -0.44979,-0.58209 -0.64029,-0.75407 0.57414,-0.33073 1.01071,-0.79904 1.33614,-1.38906 -0.33602,-0.45508 -0.70643,-0.91281 -1.05833,-1.30175 l 0.67469,-0.54769 c 0.25135,0.26988 0.52123,0.57415 0.78581,0.88636 0.11377,-0.35719 0.19844,-0.74084 0.25929,-1.143 z m 3.41842,0.21167 h -0.66146 v 2.79135 c 0,0.51594 -0.0847,0.78581 -0.36248,0.9525 -0.2831,0.16404 -0.70643,0.20373 -1.25677,0.20373 -0.0265,-0.28311 -0.16404,-0.74613 -0.29633,-1.03717 0.34396,0.0212 0.69321,0.0212 0.81227,0.0212 0.11113,0 0.15081,-0.0318 0.15081,-0.14552 v -2.78342 h -1.57427 v -0.46302 h -2.96333 v -0.88635 h 1.09802 v -0.97102 h 0.9181 v 0.97102 h 1.16946 v 0.42862 h 1.34938 v -1.40758 h 0.9525 v 1.40758 h 0.66146 v 0.91811 z m -2.57175,0.43127 c 0.30427,0.42333 0.62177,0.97895 0.72761,1.37583 l -0.8255,0.42333 c -0.0926,-0.38364 -0.37571,-0.97896 -0.66675,-1.42081 l 0.76729,-0.37571 z"
       id="path6082"
       style="fill:#58778d;stroke-width:0.264583" />
    <path
       class="cls-39"
       d="m 202.6226,27.335711 c 0,1.10331 -0.11113,2.83104 -0.72761,3.88938 -0.17727,-0.15875 -0.60854,-0.44186 -0.83344,-0.5424 0.55563,-0.9525 0.59532,-2.37331 0.59532,-3.34698 v -1.64571 h 2.32833 v -0.7276 h 1.00542 v 0.7276 h 2.32833 v 0.91281 h -2.61937 c 0.49741,0.24342 1.09802,0.58209 1.42081,0.85196 l -0.69321,0.71438 c -0.32279,-0.30956 -1.0451,-0.75936 -1.59279,-1.03717 l 0.53446,-0.52917 h -1.74625 z m -0.1905,2.98715 c 0.25135,-0.508 0.37041,-1.24884 0.42333,-2.01084 l 0.86519,0.18521 c -0.0609,0.78581 -0.15875,1.65894 -0.43657,2.20133 z m 4.12485,0.36512 c -0.0317,-0.25664 -0.11112,-0.58208 -0.2249,-0.92604 -0.0873,1.0504 -0.32279,1.3626 -0.9525,1.3626 h -0.6006 c -0.77258,0 -0.95779,-0.2831 -0.95779,-1.12448 v -2.16164 h 0.9525 v 2.15635 c 0,0.25136 0.0265,0.27782 0.17198,0.27782 h 0.34396 c 0.15875,0 0.19314,-0.15082 0.2196,-1.02394 0.17727,0.14552 0.53446,0.29104 0.78052,0.36512 -0.13229,-0.39158 -0.30427,-0.80698 -0.48154,-1.16416 l 0.8599,-0.33073 c 0.37041,0.69321 0.74083,1.57427 0.83872,2.1881 l -0.94456,0.38365 z"
       id="path6084"
       style="fill:#58778d;stroke-width:0.264583" />
    <path
       class="cls-39"
       d="m 212.95458,26.322361 c -0.0317,0.6932 -0.0794,2.12195 -0.0794,2.84956 0,0.635 0.36513,0.83344 0.81227,0.83344 1.02394,0 1.71979,-0.60061 2.20133,-1.34144 l 0.72761,0.89164 c -0.41011,0.635 -1.39436,1.54782 -2.93688,1.54782 -1.15623,0 -1.87854,-0.52123 -1.87854,-1.68011 0,-0.83343 0.0582,-2.60614 0.0582,-3.10091 0,-0.35719 -0.0318,-0.71967 -0.10054,-1.01865 l 1.28852,0.0132 c -0.045,0.30956 -0.0873,0.71437 -0.10054,1.00542 z"
       id="path6086"
       style="fill:#58778d;stroke-width:0.264583" />
    <path
       class="cls-39"
       d="m 223.6702,25.695291 c 0,0.0529 -0.008,0.11907 -0.008,0.19315 0.508,-0.0265 1.03188,-0.0794 1.60602,-0.17198 l -0.005,0.91281 c -0.39687,0.0609 -0.97896,0.11113 -1.61396,0.13759 -0.008,0.1905 -0.008,0.3757 -0.008,0.54768 0.67998,-0.0318 1.20914,-0.0926 1.71979,-0.15081 l -0.008,0.93927 c -0.58208,0.0582 -1.06362,0.10054 -1.69333,0.11906 0.0132,0.21167 0.0265,0.43657 0.0397,0.66146 0.81228,0.23813 1.42875,0.66146 1.8124,0.98425 l -0.57415,0.89165 c -0.32279,-0.30956 -0.7276,-0.62706 -1.18268,-0.8599 v 0.13229 c 0,0.62178 -0.50271,1.04511 -1.37584,1.04511 -1.11654,0 -1.69333,-0.44186 -1.69333,-1.1774 0,-0.73554 0.635,-1.20914 1.6854,-1.20914 0.11112,0 0.2196,0.008 0.32279,0.0132 -0.005,-0.15082 -0.0132,-0.30957 -0.0185,-0.46302 h -0.32544 c -0.34925,0 -1.11125,-0.0318 -1.52665,-0.0873 l -0.0132,-0.93927 c 0.41011,0.0794 1.24884,0.12436 1.55311,0.12436 h 0.29633 c 0,-0.17727 0,-0.36248 0.008,-0.5424 h -0.21167 c -0.39687,0 -1.13771,-0.0609 -1.5875,-0.11906 l -0.0185,-0.90488 c 0.49477,0.0794 1.21709,0.14552 1.60073,0.14552 h 0.2249 v -0.22489 c 0,-0.12436 -0.0132,-0.33602 -0.0476,-0.48154 h 1.08479 c -0.0212,0.13758 -0.0397,0.32279 -0.045,0.48154 z m -1.44727,4.47675 c 0.33602,0 0.52123,-0.0926 0.52123,-0.42862 0,-0.045 0,-0.11113 -0.008,-0.1905 -0.15875,-0.0265 -0.32279,-0.0397 -0.49742,-0.0397 -0.37041,0 -0.58208,0.14552 -0.58208,0.33073 0,0.21696 0.21961,0.33073 0.56092,0.33073 z"
       id="path6088"
       style="fill:#58778d;stroke-width:0.264583" />
    <path
       class="cls-39"
       d="m 233.2878,25.885791 v 0.0714 c 0.61384,0 1.50019,-0.0132 1.84415,-0.005 l -0.0132,0.94456 c -0.38894,-0.0212 -1.01071,-0.0318 -1.84414,-0.0397 0.005,0.3175 0.005,0.65353 0.005,0.93134 0.17198,0.25664 0.25664,0.58737 0.25664,0.94456 0,0.84667 -0.54768,1.9976 -2.20133,2.4474 l -0.85196,-0.85196 c 0.57415,-0.11906 1.12448,-0.27781 1.51342,-0.58209 -0.0397,0.008 -0.0794,0.008 -0.11906,0.008 -0.48155,0 -1.16946,-0.41539 -1.16946,-1.27 0,-0.79904 0.64029,-1.28852 1.40758,-1.28852 0.0582,0 0.11113,0 0.16404,0.005 0,-0.11112 0,-0.22489 -0.008,-0.33602 -0.99218,0.0132 -1.97114,0.0529 -2.77812,0.0926 l -0.0265,-0.9578 c 0.76729,0.005 1.93675,-0.0185 2.79136,-0.0318 -0.008,-0.0264 -0.008,-0.0529 -0.008,-0.0714 -0.0265,-0.3175 -0.0529,-0.56092 -0.0714,-0.66146 h 1.15623 c -0.0212,0.127 -0.0476,0.53446 -0.0529,0.65352 z m -1.19591,2.98186 c 0.21166,0 0.43656,-0.15081 0.36512,-0.65352 -0.0873,-0.11907 -0.21166,-0.17727 -0.36512,-0.17727 -0.20373,0 -0.42334,0.12435 -0.42334,0.42862 0,0.23813 0.21167,0.40217 0.42334,0.40217 z"
       id="path6090"
       style="fill:#58778d;stroke-width:0.264583" />
    <path
       class="cls-39"
       d="m 239.48699,30.018591 c 0,-0.38894 0.28575,-0.66146 0.67469,-0.66146 0.38894,0 0.67469,0.26987 0.67469,0.66146 0,0.39158 -0.28311,0.67468 -0.67469,0.67468 -0.39158,0 -0.67469,-0.2831 -0.67469,-0.67468 z m 0.0662,-3.25173 -0.0397,-1.09802 h 1.29646 l -0.0397,1.09802 -0.19844,2.0902 h -0.8202 z"
       id="path6092"
       style="fill:#58778d;stroke-width:0.264583" />
    <circle
       class="cls-29"
       cx="49.70137"
       cy="31.256855"
       r="19.986626"
       id="circle6096"
       style="fill:#ffffff;stroke-width:0.264583" />
    <path
       class="cls-21"
       d="m 35.855728,25.422771 v 13.34558 c 0,0.87577 0.711729,1.5875 1.584854,1.5875 h 24.545396 c 0.873125,0 1.584854,-0.71173 1.584854,-1.5875 v -13.34558"
       id="path6098"
       style="fill:#f6ed36;stroke:#65b7ec;stroke-width:2.15106px;stroke-linecap:round;stroke-linejoin:round" />
    <path
       class="cls-21"
       d="M 61.985978,21.919691 H 37.440582 c -0.873125,0 -1.584854,0.71173 -1.584854,1.59015 v 1.64835 l 12.842875,7.63587 0.01058,0.005 c 0.343958,0.20902 0.6985,0.42598 1.000125,0.43656 h 0.0053 c 0,0 0.0053,0 0.0053,0 0.224896,-0.008 0.470958,-0.14552 0.756708,-0.30427 0.08731,-0.0476 13.096875,-7.77611 13.096875,-7.77611 v -1.64835 c 0,-0.87577 -0.711729,-1.59015 -1.584854,-1.59015 z"
       id="path6100"
       style="fill:#f6ed36;stroke:#65b7ec;stroke-width:2.15106px;stroke-linecap:round;stroke-linejoin:round" />
  </g>
</svg>
