<svg width="81" height="76" viewBox="0 0 81 76" fill="none" xmlns="http://www.w3.org/2000/svg">
<path d="M10.841 68.7292C10.841 68.8792 10.7709 68.9492 10.6309 68.9492H8.93093C8.80093 68.9492 8.72095 69.0092 8.70095 69.1492C8.36095 71.0192 7.84097 72.9292 7.10097 74.8692C7.06097 74.9892 6.97096 75.0292 6.84096 74.9892L4.95095 74.2892C4.82095 74.2292 4.77095 74.1392 4.83095 74.0092C5.44095 72.4992 5.91092 70.8792 6.23092 69.1392C6.26092 69.0092 6.20093 68.9492 6.05093 68.9492H4.35097C4.22097 68.9492 4.14094 69.0092 4.13094 69.1492L4.01095 71.2292C4.01095 71.3792 3.94098 71.4392 3.79098 71.4392H1.84096C1.69096 71.4392 1.64095 71.3792 1.64095 71.2492L1.77096 69.1592C1.78096 69.0092 1.71094 68.9592 1.57094 68.9592H0.210959C0.0609592 68.9592 -0.00906275 68.8892 0.000937253 68.7592L0.0709446 67.5192C0.0709446 67.3692 0.140957 67.2992 0.270957 67.2992H1.65096C1.80096 67.2992 1.87094 67.2392 1.88094 67.1092L2.03097 64.5792C2.03097 64.4292 2.10092 64.3592 2.23092 64.3592H4.18093C4.33093 64.3692 4.39095 64.4492 4.39095 64.5892L4.24093 67.1092C4.23093 67.2392 4.30095 67.2992 4.45095 67.2992H6.29098C6.42098 67.2992 6.49095 67.2292 6.51095 67.0992C6.63095 66.0892 6.72098 65.1092 6.79098 64.1392C6.79098 64.0092 6.88095 63.9492 7.01095 63.9492H9.01095C9.14095 63.9592 9.21095 64.0392 9.20095 64.1692C9.13095 65.3792 9.05097 66.3592 8.97097 67.1092C8.96097 67.2392 9.01097 67.2992 9.16097 67.2992H10.6709C10.8209 67.2992 10.8909 67.3692 10.8809 67.5092L10.8209 68.7492L10.841 68.7292Z" fill="#58778D"/>
<path d="M20.0909 65.8296C19.4809 66.4296 18.7009 67.0996 17.7909 67.8096C17.7609 67.8396 17.7508 67.8696 17.7608 67.8996C17.7608 67.9396 17.7908 67.9596 17.8308 67.9596H18.3608C18.4908 67.9596 18.5608 68.0296 18.5608 68.1596L18.3708 73.9696C18.3708 74.1196 18.3009 74.1896 18.1509 74.1896H16.0309C15.9009 74.1896 15.8208 74.1196 15.8208 73.9696L15.9709 69.3496C15.9709 69.3496 15.9708 69.2796 15.9408 69.2596C15.9108 69.2596 15.8808 69.2496 15.8708 69.2296C15.8608 69.2396 15.8408 69.2396 15.8308 69.2596C15.2308 69.6796 14.5409 70.1696 13.7809 70.6796C13.6609 70.7696 13.5608 70.7396 13.4908 70.6196L12.6408 69.3296C12.5708 69.2096 12.5808 69.1196 12.6808 69.0396C15.0808 67.3996 17.0809 65.8596 18.7209 64.4296C18.8209 64.3396 18.9209 64.3396 19.0309 64.4396L20.1009 65.5396C20.1909 65.6396 20.1909 65.7296 20.0909 65.8296Z" fill="#58778D"/>
<path d="M32.5307 67.5196C32.5207 67.6496 32.4407 67.7296 32.3007 67.7296H30.3007C30.1707 67.7296 30.0907 67.7896 30.0907 67.9396L29.8907 71.2896C29.8907 71.3596 29.9007 71.4196 29.9307 71.4496C29.9607 71.4796 30.0007 71.4896 30.0807 71.4896H32.3007C32.3707 71.4796 32.4207 71.4896 32.4507 71.5296C32.4807 71.5596 32.4907 71.6196 32.4907 71.6896L32.4207 72.9296C32.4107 73.0596 32.3307 73.1396 32.2007 73.1396L24.9107 73.1696C24.8507 73.1696 24.7907 73.1396 24.7607 73.1096C24.7307 73.0796 24.7207 73.0196 24.7207 72.9596L24.7907 71.7196C24.8007 71.5696 24.8807 71.4996 25.0107 71.4996H27.0707C27.2007 71.4996 27.2707 71.4296 27.2707 71.2896L27.4807 67.9196C27.4807 67.8496 27.4707 67.7896 27.4407 67.7596C27.4107 67.7296 27.3707 67.7196 27.2907 67.7196H25.2007C25.1307 67.7196 25.0807 67.7096 25.0507 67.6796C25.0207 67.6496 25.0107 67.5896 25.0107 67.5196L25.0807 66.2796C25.0807 66.1296 25.1507 66.0596 25.2807 66.0596H32.3907C32.5407 66.0596 32.6007 66.1296 32.5807 66.2796L32.5207 67.5196H32.5307Z" fill="#58778D"/>
<path d="M38.291 68.5987C38.201 68.7187 38.1009 68.7287 38.0109 68.6387L35.791 66.7987C35.701 66.7087 35.691 66.6187 35.781 66.5087L36.8009 65.2787C36.8709 65.1587 36.981 65.1587 37.091 65.2487C37.881 65.8787 38.6309 66.4887 39.3009 67.0587C39.4009 67.1287 39.4009 67.2387 39.3109 67.3387L38.291 68.5987ZM38.5509 74.4787C38.4509 74.5687 38.3409 74.5687 38.2609 74.4487L36.9309 72.7487C36.8409 72.6487 36.861 72.5587 36.961 72.4687C39.451 70.5087 41.511 68.4887 43.151 66.3787C43.241 66.2587 43.3309 66.2487 43.4409 66.3387L45.0109 67.6387C45.1309 67.7287 45.141 67.8287 45.041 67.9487C43.041 70.4487 40.8809 72.6287 38.5609 74.4787H38.5509Z" fill="#58778D"/>
<path d="M54.111 74.469C54.011 74.589 53.911 74.589 53.801 74.469C53.741 74.429 53.041 73.659 51.691 72.219C51.591 72.099 51.4911 72.099 51.4111 72.219C50.7211 73.109 50.021 73.949 49.331 74.719C49.231 74.819 49.141 74.839 49.021 74.729L47.501 73.309C47.401 73.219 47.3811 73.119 47.4711 73.029C49.6711 70.599 51.231 68.359 52.171 66.339C52.231 66.209 52.1811 66.149 52.0411 66.149H48.5411C48.3911 66.149 48.3411 66.089 48.3511 65.949L48.4111 64.689C48.4211 64.559 48.501 64.499 48.631 64.499H55.171C55.301 64.499 55.381 64.559 55.361 64.689L55.321 65.289C55.311 65.439 55.2811 65.579 55.2211 65.709C54.6511 67.069 53.931 68.449 53.081 69.819C53.011 69.949 53.0111 70.049 53.0911 70.139C53.1011 70.149 53.921 71.019 55.561 72.729C55.651 72.829 55.651 72.929 55.561 73.039L54.1011 74.459L54.111 74.469Z" fill="#58778D"/>
<path d="M69.1011 71.8591C69.0911 71.9891 69.011 72.0491 68.881 72.0491H67.991C67.861 72.0491 67.771 72.1191 67.771 72.2691L67.681 73.7891C67.671 73.9191 67.591 73.9791 67.461 73.9791H64.581C64.431 73.9791 64.3611 74.0491 64.3511 74.1991C64.3211 74.4591 64.291 74.8591 64.231 75.3691C64.231 75.4991 64.161 75.5691 64.011 75.5691H61.871C61.741 75.5691 61.671 75.4791 61.691 75.3391C61.721 74.9691 61.7611 74.5791 61.7911 74.1791C61.8011 74.0491 61.751 73.9691 61.611 73.9691H58.961C58.811 73.9691 58.751 73.9091 58.751 73.7791L58.7911 72.8591C58.8011 72.7291 58.881 72.6591 59.011 72.6591H61.7211C61.8511 72.6591 61.941 72.5991 61.941 72.4591V72.2491C61.971 72.1191 61.901 72.0391 61.761 72.0391H58.071C57.921 72.0391 57.851 71.9791 57.871 71.8491L57.931 70.9291C57.931 70.7791 58.001 70.7291 58.131 70.7291H61.8511C62.0011 70.7291 62.071 70.6591 62.081 70.5191V70.3591C62.111 70.2291 62.041 70.1491 61.891 70.1491H59.201C59.051 70.1491 58.981 70.0891 59.001 69.9591L59.0411 69.0391C59.0511 68.9091 59.111 68.8391 59.261 68.8391H61.981C62.111 68.8391 62.191 68.7691 62.201 68.6291L62.231 68.2091C62.231 68.0791 62.171 68.0091 62.021 68.0091H59.311C59.161 68.0091 59.0911 67.9391 59.1011 67.8091L59.2211 65.4491C59.2211 65.2991 59.291 65.2491 59.431 65.2491H62.141C62.291 65.2491 62.361 65.1791 62.361 65.0491V64.7891C62.361 64.6591 62.2911 64.5991 62.1611 64.5991H58.711C58.561 64.5991 58.511 64.5291 58.521 64.3791L58.561 63.4691C58.561 63.3391 58.631 63.2591 58.771 63.2591H62.211C62.341 63.2591 62.4111 63.1891 62.4111 63.0391C62.4111 62.8491 62.421 62.6591 62.421 62.4791C62.451 62.2191 62.541 62.0791 62.671 62.0791H64.701C64.831 62.0791 64.911 62.1391 64.891 62.2691C64.891 62.4191 64.881 62.6791 64.861 63.0491C64.861 63.1791 64.921 63.2491 65.051 63.2491H68.371C68.501 63.2491 68.581 63.3191 68.561 63.4591L68.521 64.3691C68.521 64.5191 68.451 64.5891 68.321 64.5891H65.011C64.861 64.5891 64.801 64.6491 64.801 64.7791V65.0391C64.801 65.1691 64.861 65.2391 64.991 65.2391H67.681C67.811 65.2391 67.871 65.2991 67.861 65.4391L67.741 67.7791C67.731 67.9291 67.651 67.9991 67.521 67.9991H64.891C64.761 67.9991 64.681 68.0691 64.681 68.1991V68.6391C64.671 68.7591 64.721 68.8291 64.861 68.8291H67.731C67.861 68.8291 67.931 68.8991 67.921 69.0291L67.8511 70.5091C67.8411 70.6391 67.8911 70.7191 68.0411 70.7191H68.951C69.081 70.7191 69.141 70.7791 69.131 70.9191L69.0911 71.8391L69.1011 71.8591ZM62.121 66.2891H61.3411C61.1911 66.2891 61.121 66.3491 61.121 66.4991V66.7791C61.121 66.9291 61.181 66.9991 61.301 66.9991H62.0911C62.2211 66.9991 62.301 66.9291 62.311 66.7791V66.5191C62.321 66.3691 62.271 66.2991 62.121 66.2991V66.2891ZM65.501 72.0491H64.711C64.581 72.0491 64.511 72.1191 64.491 72.2591V72.4691C64.461 72.6191 64.531 72.6691 64.681 72.6691H65.461C65.621 72.6691 65.691 72.6091 65.691 72.4691V72.2791C65.691 72.1291 65.631 72.0591 65.501 72.0591V72.0491ZM65.6011 70.1591H64.821C64.671 70.1591 64.6011 70.2291 64.6011 70.3791V70.5391C64.5711 70.6891 64.6411 70.7591 64.7911 70.7591H65.571C65.701 70.7591 65.7711 70.6891 65.7911 70.5391V70.3791C65.8011 70.2291 65.7311 70.1591 65.6011 70.1591ZM65.731 66.2891H64.9711C64.8211 66.2891 64.761 66.3591 64.761 66.5091V66.7591C64.761 66.9091 64.821 66.9791 64.951 66.9791H65.681C65.831 66.9791 65.9011 66.9091 65.9111 66.7691V66.4891C65.9211 66.3391 65.8711 66.2791 65.7211 66.2791L65.731 66.2891Z" fill="#58778D"/>
<path d="M80.0608 65.9189C80.0608 66.0689 79.9908 66.1389 79.8408 66.1389H69.8008C69.6708 66.1389 69.6008 66.0689 69.6108 65.9189L69.6508 65.0089C69.6508 64.8789 69.7209 64.7989 69.8509 64.7989H72.2508C72.3808 64.7989 72.4609 64.7289 72.4709 64.5889L72.5608 62.7989C72.5608 62.6489 72.6308 62.5889 72.7708 62.5889H74.2608C74.4108 62.5889 74.4608 62.6589 74.4608 62.8089L74.3708 64.5789C74.3608 64.7089 74.4308 64.7889 74.5608 64.7889H75.1609C75.2909 64.7889 75.3608 64.7189 75.3808 64.5789L75.5008 62.8389C75.5108 62.7089 75.5709 62.6289 75.7209 62.6289H77.2408C77.3908 62.6389 77.4508 62.6989 77.4508 62.8389L77.3308 64.5789C77.3208 64.7089 77.3909 64.7889 77.5409 64.7889H79.9109C80.0409 64.7889 80.1109 64.8589 80.1009 64.9989L80.0608 65.9089V65.9189ZM71.4408 64.3789H70.5208C70.3908 64.3889 70.3108 64.3189 70.3108 64.1789V62.9389C70.3008 62.8089 70.3708 62.7289 70.5008 62.7289H71.4208C71.5508 62.7189 71.6208 62.7889 71.6208 62.9189V64.1789C71.6308 64.3089 71.5608 64.3789 71.4308 64.3789H71.4408ZM78.7508 68.4089C78.7408 68.5389 78.6608 68.6189 78.5308 68.6189H76.3108C76.1608 68.6189 76.0908 68.6889 76.0908 68.8389V68.9389C76.0908 69.0689 76.1609 69.1389 76.2909 69.1389H78.0208C78.1708 69.1389 78.2209 69.2089 78.2209 69.3489L78.1808 70.2589C78.1708 70.4089 78.0908 70.4789 77.9608 70.4789H76.2308C76.1008 70.4789 76.0308 70.5489 76.0108 70.6889V70.8389C76.0008 70.9889 76.0708 71.0589 76.2008 71.0589H78.5608C78.6908 71.0589 78.7708 71.1289 78.7708 71.2689L78.7408 72.1789C78.7408 72.3289 78.6708 72.3989 78.5208 72.3989H76.9508C76.9508 72.3989 76.8808 72.4089 76.8808 72.4389C76.8708 72.4689 76.8809 72.5089 76.9109 72.5389C77.3909 72.9789 77.9108 73.3889 78.4308 73.7789C78.5608 73.8489 78.5808 73.9589 78.4908 74.0689L77.6308 75.2289C77.5608 75.3289 77.4709 75.3489 77.3509 75.2689C76.9709 74.9889 76.5308 74.6389 76.0508 74.1889C76.0108 74.1489 75.9808 74.1489 75.9308 74.1589C75.9008 74.1689 75.8708 74.1989 75.8708 74.2489L75.8308 75.3289C75.8308 75.4789 75.7608 75.5489 75.6108 75.5489H73.6908C73.5408 75.5489 73.4708 75.4789 73.4808 75.3489L73.5208 74.2689C73.5208 74.2689 73.5108 74.2089 73.4608 74.1989C73.4308 74.1889 73.4008 74.1889 73.3708 74.2089C72.9908 74.5889 72.5608 74.9589 72.1308 75.3089C72.0108 75.3989 71.9108 75.3789 71.8208 75.2789L70.9109 74.1389C70.8409 74.0389 70.8508 73.9289 70.9508 73.8489C71.6708 73.2689 72.1908 72.8389 72.5208 72.5289C72.5508 72.4989 72.5508 72.4689 72.5308 72.4389C72.5108 72.4089 72.4908 72.3989 72.4408 72.3989H70.9308C70.8008 72.3989 70.7408 72.3289 70.7408 72.1789L70.7708 71.2689C70.7708 71.1389 70.8408 71.0589 70.9808 71.0589H73.4408C73.5908 71.0589 73.6609 70.9889 73.6609 70.8389V70.6889C73.6609 70.5589 73.5908 70.4789 73.4508 70.4789H71.6808C71.5308 70.4789 71.4808 70.4089 71.4908 70.2589L71.5208 69.3489C71.5308 69.2189 71.6108 69.1389 71.7408 69.1389H73.5108C73.6608 69.1389 73.7308 69.0689 73.7308 68.9389V68.8389C73.7308 68.6889 73.6709 68.6189 73.5409 68.6189H71.0108C70.8808 68.6189 70.8008 68.5489 70.8208 68.4089L70.8608 67.4989C70.8608 67.3489 70.9308 67.2789 71.0608 67.2789H72.0409C72.1709 67.2789 72.2508 67.2189 72.2508 67.0889V66.6089C72.2608 66.4789 72.3408 66.3989 72.4808 66.3989H73.7209C73.8509 66.3989 73.9208 66.4589 73.9208 66.5889V67.0889C73.9108 67.2189 73.9609 67.2789 74.1009 67.2789H75.6508C75.7808 67.2789 75.8708 67.2189 75.8808 67.0889L75.9709 66.5189C75.9809 66.3889 76.0709 66.3089 76.2209 66.3389L77.4508 66.4989C77.6008 66.5089 77.6408 66.5889 77.6108 66.7289L77.5708 67.0789C77.5408 67.2089 77.6008 67.2689 77.7308 67.2689H78.5608C78.7108 67.2689 78.7708 67.3389 78.7708 67.4889L78.7308 68.3989L78.7508 68.4089ZM79.1708 64.3789C79.1108 64.4989 79.0208 64.5389 78.8908 64.4789L78.0608 64.0989C77.9308 64.0589 77.9008 63.9489 77.9608 63.8389L78.4908 62.7389C78.5508 62.6089 78.6408 62.5789 78.7808 62.6389L79.6009 63.0189C79.7309 63.0789 79.7608 63.1689 79.7008 63.2989L79.1708 64.3789Z" fill="#58778D"/>
<path d="M36.0907 4.41016V21.6002L34.8507 22.0202C28.1707 24.3002 23.6807 30.5702 23.6807 37.6302C23.6807 46.7202 31.0807 54.1202 40.1707 54.1202C49.2607 54.1202 56.6607 46.7202 56.6607 37.6302C56.6607 30.5702 52.1707 24.2902 45.4907 22.0202L44.2507 21.6002V4.41016H36.0807H36.0907Z" fill="#F6ED36"/>
<path d="M40.1806 58.1599C28.8606 58.1599 19.6606 48.9499 19.6606 37.6399C19.6606 29.3999 24.5206 22.0299 32.0706 18.7899V0.75988C32.0706 0.54988 32.2406 0.379883 32.4506 0.379883H47.9306C48.1406 0.379883 48.3106 0.54988 48.3106 0.75988V18.7899C55.8506 22.0299 60.7206 29.4099 60.7206 37.6399C60.7206 48.9599 51.5106 58.1599 40.2006 58.1599H40.1806ZM36.4706 21.5999C36.4706 21.7599 36.3706 21.8999 36.2206 21.9499L34.9806 22.3699C28.4506 24.5999 24.0706 30.7299 24.0706 37.6299C24.0706 46.5199 31.3006 53.7499 40.1906 53.7499C49.0806 53.7499 56.3106 46.5199 56.3106 37.6299C56.3106 30.7299 51.9206 24.5999 45.4006 22.3699L44.1606 21.9499C44.0106 21.8999 43.9106 21.7599 43.9106 21.5999V4.78988H36.4906V21.5999H36.4706Z" fill="#65B7EC"/>
<path d="M47.9207 0.75V19.03C55.3907 22.14 60.3307 29.45 60.3307 37.64C60.3307 48.75 51.2907 57.79 40.1807 57.79C29.0707 57.79 20.0308 48.75 20.0308 37.64C20.0308 29.46 24.9607 22.14 32.4407 19.03V0.75H47.9207ZM40.1807 54.12C49.2707 54.12 56.6707 46.72 56.6707 37.63C56.6707 30.57 52.1807 24.29 45.5007 22.02L44.2607 21.6V4.41H36.0908V21.6L34.8508 22.02C28.1708 24.3 23.6807 30.57 23.6807 37.63C23.6807 46.72 31.0807 54.12 40.1707 54.12M47.9207 0H32.4407C32.0307 0 31.6907 0.34 31.6907 0.75V18.53C24.1407 21.88 19.2808 29.32 19.2808 37.63C19.2808 49.15 28.6507 58.53 40.1807 58.53C51.7107 58.53 61.0807 49.16 61.0807 37.63C61.0807 29.32 56.2307 21.88 48.6707 18.53V0.75C48.6707 0.34 48.3307 0 47.9207 0ZM36.8408 5.16H43.5107V21.6C43.5107 21.92 43.7108 22.21 44.0208 22.31L45.2607 22.73C51.6407 24.9 55.9207 30.89 55.9207 37.63C55.9207 46.31 48.8607 53.37 40.1807 53.37C31.5007 53.37 24.4407 46.31 24.4407 37.63C24.4407 30.89 28.7208 24.9 35.1008 22.73L36.3408 22.31C36.6408 22.21 36.8508 21.92 36.8508 21.6V5.16H36.8408Z" fill="#65B7EC"/>
<path d="M53.8506 34.5004L53.6606 33.6904H26.6806L26.4906 34.5004C26.2506 35.5404 26.1206 36.6204 26.1206 37.6904C26.1206 45.4304 32.4206 51.7304 40.1606 51.7304C47.9006 51.7304 54.2006 45.4304 54.2006 37.6904C54.2006 36.6104 54.0806 35.5404 53.8306 34.5004H53.8506ZM37.7706 47.3704C36.8806 47.3704 36.1606 46.6504 36.1606 45.7604C36.1606 44.8704 36.8806 44.1504 37.7706 44.1504C38.6606 44.1504 39.3806 44.8704 39.3806 45.7604C39.3806 46.6504 38.6606 47.3704 37.7706 47.3704ZM43.6606 42.2404C42.3006 42.2404 41.1906 41.1304 41.1906 39.7704C41.1906 38.4104 42.3006 37.3004 43.6606 37.3004C45.0206 37.3004 46.1306 38.4104 46.1306 39.7704C46.1306 41.1304 45.0206 42.2404 43.6606 42.2404Z" fill="#65B7EC"/>
</svg>

