<svg width="71" height="71" viewBox="0 0 71 71" fill="none" xmlns="http://www.w3.org/2000/svg">
<path d="M25.8301 61.9694L23.9001 60.4594L24.5201 60.3094L24.5801 59.7194C23.7301 59.6894 21.3901 59.7094 17.6001 59.7594L17.5101 61.2694L15.8701 60.8594L16.0801 60.3194L16.2101 58.0494C17.5101 58.0194 18.9001 58.0094 20.3801 57.9894V56.8594L21.9901 56.9194L21.9301 57.2994L21.8901 57.9694H26.2701L25.8501 61.9494L25.8301 61.9694ZM25.2601 66.3594C25.0401 66.2994 24.85 66.2694 24.67 66.2694C23.95 66.2594 23.2402 66.2594 22.5302 66.2594C22.9102 66.5694 23.41 66.9594 24.05 67.4694C24.12 67.5294 24.3401 67.6194 24.7401 67.7294L23.67 69.9494C23.54 69.7594 23.3301 69.5094 23.0801 69.1894C22.9001 68.9694 22.2301 68.2394 21.0601 66.9994C20.4001 68.2594 19.5401 69.3394 18.4701 70.1994L17.5801 68.0494C17.7601 68.0094 17.9902 67.9594 18.2802 67.8994C18.9202 67.3094 19.4101 66.7694 19.7101 66.2794L17.2701 66.3194C17.1801 66.3294 17.04 66.3594 16.8 66.4194L16.7001 64.5894L17.1201 64.6494C17.7801 64.6394 18.8301 64.6194 20.2701 64.6194V64.1794C19.9501 64.1794 19.3301 64.1894 18.4601 64.2194C18.4001 64.2294 18.2701 64.2494 18.0901 64.2894L18.0001 62.8094C18.1801 62.8194 18.3101 62.8394 18.4001 62.8394H20.2701V62.3594C19.4801 62.3694 18.7901 62.3894 18.2401 62.3994C18.0801 62.4294 17.9501 62.4594 17.8501 62.4894L17.7501 60.8094L18.2301 60.8394H20.2802V60.3894L20.2501 59.9894L21.8901 60.0194L21.8301 60.4394V60.8394H23.7001C23.8901 60.8294 24.0501 60.8094 24.2001 60.7794L24.0801 62.4294C23.8601 62.3694 23.7101 62.3394 23.6301 62.3394H21.8301V62.8094H23.4801C23.4801 62.8094 23.6601 62.8094 23.8601 62.7994L23.7701 64.2294C23.5801 64.1894 22.9201 64.1594 21.8201 64.1594V64.6094H24.8601C24.9201 64.5994 25.0901 64.5794 25.3601 64.5494L25.2401 66.3394L25.2601 66.3594Z" fill="#58778D"/>
<path d="M46.2101 64.9806V69.1606L44.3201 67.6806L44.8601 67.2006L44.92 64.9806H43.5701C43.5701 64.9806 43.4701 64.9806 43.3901 64.9906C43.3201 65.0006 43.2601 65.0206 43.2101 65.0206L43.17 63.3406C43.35 63.3506 43.4601 63.3706 43.5101 63.3706H43.7401L44.4901 62.3606C44.1001 62.0706 43.5501 61.6706 42.8701 61.1706C43.4001 60.3406 44.0601 59.2506 44.8501 57.9206L44.9501 57.6306L46.2401 58.4806L46.0601 58.7006C45.8401 59.0506 45.4401 59.7006 44.9001 60.6006C45.0601 60.7306 45.2401 60.8606 45.4601 61.0006C45.7501 60.5606 45.9901 60.2006 46.1501 59.9006C46.1801 59.8606 46.2501 59.7406 46.3601 59.5506L47.5901 60.2806C47.4701 60.4006 47.3702 60.5306 47.2802 60.6606C46.4802 61.9006 45.8701 62.8106 45.4901 63.3706H46.4401C46.3401 62.8706 46.2601 62.5206 46.2101 62.3306L47.3701 62.1006C47.4101 62.3306 47.4901 62.7406 47.5901 63.3406H47.7701L47.8 64.9506L46.2201 64.9806H46.2101ZM44.5101 65.9306L43.8901 67.7006L43.1301 67.2806L43.3 65.6906L43.3201 65.3506L44.6201 65.7306L44.5001 65.9306H44.5101ZM47.9401 65.9606L47.3401 67.2506L46.4801 66.8306L46.8201 65.7306L46.8801 65.3306L48.0701 65.7406L47.9501 65.9606H47.9401ZM54.5601 61.9406C54.4001 61.8806 54.2401 61.8506 54.0601 61.8506C52.0401 61.8106 50.1501 61.8206 48.4001 61.8806C48.2301 61.9106 48.0901 61.9406 47.9801 61.9706L47.92 60.4906C47.92 60.4906 48.08 60.5206 48.29 60.5306L50.54 60.5006V60.1206H49.1602L48.8501 60.1906L48.8101 58.8706L49.1801 58.9106H50.54V58.5306C49.97 58.5406 49.3701 58.5606 48.7401 58.5606C48.6701 58.5606 48.5301 58.5906 48.3601 58.6306L48.2601 57.0306C48.5101 57.0706 48.6501 57.0906 48.7001 57.0906H50.5601L50.55 56.7406L50.5201 56.3906L52.0601 56.4306L52.0001 56.8006V57.0606H53.8901C53.9801 57.0506 54.1201 57.0306 54.3301 57.0206L54.2101 58.5906C54.0901 58.5606 53.9501 58.5506 53.7701 58.5206H51.9801V58.9206H53.3L53.6901 58.8806L53.6001 60.1806L53.2802 60.1106H51.9801V60.4906C52.7801 60.4906 53.5201 60.5006 54.1901 60.5006C54.2801 60.4906 54.44 60.4706 54.67 60.4406L54.5701 61.9306L54.5601 61.9406ZM53.2802 70.0406C52.8302 69.4806 52.2101 68.6906 51.4401 67.6806H50.9901C50.3801 68.8106 49.7001 69.6406 48.9601 70.1706L48.2401 68.3306C48.4401 68.3206 48.6201 68.2906 48.7401 68.2606C48.9901 68.0506 49.2101 67.8606 49.3701 67.7006H48.9501L48.7802 62.2406H53.8701L53.8401 62.5206L53.7201 67.6906H53.1301L53.8201 68.3206C53.8801 68.3606 54.0101 68.4406 54.2301 68.5306L53.29 70.0506L53.2802 70.0406ZM50.2201 63.4506V63.8706H52.3901V63.4506H50.2201ZM50.2501 64.7806V65.2006H52.3601V64.7806H50.2501ZM50.2802 66.1106V66.5106H52.3101V66.1106H50.2802Z" fill="#58778D"/>
<path d="M67.48 48.1V10.3C67.48 10.04 67.29 9.81 67.03 9.77C66.91 9.75 66.79 9.73 66.66 9.7V7.79C66.66 7.53 66.47 7.3 66.2 7.26L65.7899 7.2C64.6599 7.03 63.1199 6.4 61.3199 5.68C57.7899 4.26 53.41 2.5 48.46 2.5C47.79 2.5 47.12 2.53 46.47 2.6C40.6 3.19 38.37 4.43 36.74 5.34C36.06 5.72 35.56 5.99 34.95 6.1C34.34 6 33.84 5.72 33.16 5.34C31.53 4.44 29.2999 3.2 23.4299 2.6C22.7799 2.53 22.1099 2.5 21.4399 2.5C16.4899 2.5 12.11 4.26 8.57996 5.68C6.78996 6.4 5.23999 7.02 4.10999 7.2L3.69995 7.26C3.43995 7.3 3.23999 7.53 3.23999 7.79V9.72C3.13999 9.74 3.04996 9.76 2.95996 9.77C2.69996 9.81 2.5 10.04 2.5 10.3V48.51C2.5 48.58 2.50994 48.94 2.80994 49.19C3.03994 49.38 3.34996 49.45 3.57996 49.45C3.64996 49.45 3.71992 49.45 3.78992 49.43C5.01992 49.14 6.47001 48.56 8.14001 47.88C11.68 46.46 16.08 44.69 20.91 44.69C21.55 44.69 22.1999 44.72 22.8199 44.79C28.7299 45.39 30.92 46.61 32.52 47.71C32.64 47.79 32.85 47.94 35.01 47.94C37.17 47.94 37.37 47.8 37.5 47.71C39.09 46.61 41.29 45.39 47.2 44.79C47.83 44.73 48.47 44.69 49.11 44.69C53.94 44.69 58.35 46.46 61.89 47.88C63.46 48.51 64.81 49.06 65.99 49.36C66.14 49.4 66.27 49.43 66.41 49.43C66.68 49.43 66.8799 49.31 67.0599 49.2C67.5399 48.88 67.53 48.26 67.52 48.1H67.48Z" fill="#65B7EC" stroke="#65B7EC" stroke-width="5" stroke-linecap="round" stroke-linejoin="round"/>
<path d="M4.04996 46.3084C4.02996 46.1984 4.10999 46.0984 4.20999 46.0884C5.91999 45.8284 8.38999 44.6584 11.33 43.5484C14.27 42.4384 17.71 41.3984 21.42 41.3984C22.05 41.3984 22.69 41.4284 23.33 41.4984C26.6 41.8284 28.71 42.3984 30.22 42.9984C31.72 43.5984 32.61 44.2284 33.39 44.6584C33.91 44.9384 34.38 45.1384 34.97 45.2084C35.57 45.1384 36.04 44.9384 36.55 44.6584C37.07 44.3684 37.6401 43.9984 38.4101 43.5984C39.9401 42.8084 42.25 41.9384 46.61 41.4984C47.25 41.4284 47.8901 41.3984 48.5201 41.3984C52.2301 41.3984 55.66 42.4484 58.61 43.5484C61.55 44.6584 64.02 45.8284 65.73 46.0884C65.84 46.1084 65.91 46.2084 65.89 46.3084C65.87 46.4184 65.77 46.4884 65.67 46.4684C63.85 46.1884 61.4 45.0084 58.47 43.9084C55.54 42.8084 52.1501 41.7784 48.5201 41.7784C47.9001 41.7784 47.2801 41.8084 46.6501 41.8684C43.4101 42.1984 41.33 42.7584 39.87 43.3384C38.41 43.9184 37.56 44.5284 36.74 44.9784C36.2 45.2784 35.66 45.5084 34.99 45.5784H34.97H34.95C34.28 45.4984 33.74 45.2784 33.2 44.9784C32.65 44.6784 32.1 44.3084 31.35 43.9184C29.86 43.1484 27.6099 42.2984 23.2899 41.8584C22.66 41.7984 22.04 41.7684 21.42 41.7684C17.79 41.7684 14.4 42.7984 11.47 43.8984C8.54 44.9984 6.09005 46.1784 4.27005 46.4584C4.27005 46.4584 4.25002 46.4584 4.24002 46.4584C4.15002 46.4584 4.05996 46.3884 4.04996 46.2884V46.3084Z" fill="#F6ED36"/>
<path d="M65.6802 47.3613C63.8602 47.0813 61.4103 45.9012 58.4803 44.8012C55.5503 43.7012 52.1603 42.6712 48.5303 42.6712C47.9103 42.6712 47.2903 42.7013 46.6603 42.7613C43.4203 43.0913 41.3403 43.6512 39.8803 44.2312C38.4203 44.8112 37.5703 45.4213 36.7503 45.8713C36.2103 46.1713 35.6703 46.4013 35.0003 46.4713H34.9803H34.9602C34.2902 46.3913 33.7502 46.1713 33.2102 45.8713C32.6602 45.5713 32.1103 45.2012 31.3603 44.8112C29.8703 44.0412 27.6202 43.1913 23.3002 42.7513C22.6702 42.6913 22.0502 42.6612 21.4302 42.6612C17.8002 42.6612 14.4103 43.6913 11.4803 44.7913C8.55026 45.8913 6.10031 47.0712 4.28031 47.3512C4.17031 47.3712 4.07021 47.2913 4.06021 47.1913C4.04021 47.0813 4.12025 46.9813 4.22025 46.9713C5.93025 46.7113 8.40024 45.5413 11.3402 44.4313C14.2802 43.3213 17.7202 42.2812 21.4302 42.2812C22.0602 42.2812 22.7002 42.3113 23.3402 42.3713C26.6102 42.7013 28.7203 43.2713 30.2303 43.8713C31.7303 44.4713 32.6203 45.1012 33.4003 45.5312C33.9203 45.8112 34.3903 46.0113 34.9803 46.0813C35.5803 46.0113 36.0502 45.8112 36.5602 45.5312C37.0802 45.2413 37.6502 44.8713 38.4202 44.4713C39.9502 43.6813 42.2603 42.8113 46.6203 42.3713C47.2603 42.3113 47.9003 42.2812 48.5303 42.2812C52.2403 42.2812 55.6703 43.3213 58.6203 44.4313C61.5603 45.5413 64.0303 46.7113 65.7403 46.9713C65.8503 46.9913 65.9203 47.0913 65.9003 47.1913C65.8903 47.2913 65.8002 47.3613 65.7102 47.3613C65.7102 47.3613 65.6902 47.3613 65.6802 47.3613Z" fill="#F6ED36"/>
<path d="M4.25 8.21888V45.2589C8.08 44.6689 15.1799 39.8389 23.3199 40.6689C31.4599 41.4889 32.34 43.7789 34.52 44.2989V7.05888C32.34 6.55888 31.4499 4.44889 23.3199 3.61889C15.1799 2.78889 8.08 7.62889 4.25 8.20889V8.21888ZM46.5599 3.62888C38.3399 4.45888 37.5199 6.60889 35.2899 7.07889V44.3189C37.5199 43.8289 38.3399 41.4989 46.5599 40.6689C54.6999 39.8489 61.8 44.6789 65.63 45.2589V8.21888C61.8 7.62888 54.6999 2.79888 46.5599 3.62888Z" fill="#F6ED36"/>
<path d="M34.52 7.05859V47.9286" stroke="#65B7EC" stroke-width="2.77" stroke-linecap="round" stroke-linejoin="round"/>
</svg>
