<svg width="80" height="64" viewBox="0 0 80 64" fill="none" xmlns="http://www.w3.org/2000/svg">
<path d="M6.73029 63.2064L5.34028 61.0564C5.52028 60.9964 5.76025 60.9264 6.06025 60.8064C6.48025 60.2964 6.69035 59.7364 6.66035 59.1564C6.63035 58.7064 6.41034 58.3564 6.03034 58.0864C5.68034 57.8664 5.25035 57.7464 4.79035 57.7664C4.73035 57.7664 4.51034 57.7764 4.15034 57.8264V59.3064C4.15034 60.0964 4.0003 60.7564 3.7403 61.2964C3.3703 61.9964 2.85034 62.3364 2.15034 62.2964C1.49034 62.2664 0.960249 61.9764 0.560249 61.4664C0.180249 60.9664 0.000312575 60.3864 0.000312575 59.7064C-0.00968742 58.9264 0.220254 58.2264 0.690254 57.5864C1.13025 56.9764 1.72026 56.5164 2.45026 56.2064V55.0164L1.27033 55.1064L0.600288 55.2964L0.450264 52.7764L1.12031 52.8164L2.44025 52.7464V51.6764L2.35029 51.0664H4.21027L4.12031 51.7364V52.6764C4.56031 52.6664 5.30031 52.6364 6.37031 52.5864C6.47031 52.5864 6.75026 52.5464 7.20026 52.4664L7.16035 54.9064C6.79035 54.8464 6.49033 54.8164 6.27033 54.8364C5.38033 54.8464 4.67034 54.8764 4.15034 54.9064V55.7964C4.32034 55.7864 4.56029 55.7664 4.85029 55.7664C5.90029 55.7564 6.77024 56.0464 7.43024 56.6464C8.10024 57.2664 8.45025 58.0764 8.44025 59.1164C8.43025 60.4664 7.86032 61.8064 6.76032 63.1964L6.73029 63.2064ZM2.42036 58.3764C1.86036 58.7164 1.59028 59.1264 1.59028 59.6164C1.59028 60.1064 1.77029 60.3964 2.10029 60.3764C2.32029 60.3764 2.42036 60.0364 2.42036 59.3864V58.3764ZM8.7403 56.5164C8.5603 56.0364 8.1803 54.9664 7.6103 53.2864L9.18024 52.6564C9.34024 52.9964 9.63035 53.6064 10.0404 54.4964C10.2204 54.8664 10.3804 55.1364 10.5404 55.3264L8.7403 56.5164Z" fill="#58778D"/>
<path d="M17.3901 50.7969L17.1801 55.8269C16.8901 55.8369 16.3201 55.8569 15.4801 55.8869H14.6901C14.6901 57.4069 14.6501 59.6669 14.5701 62.6369C14.2201 62.3769 13.5601 61.8469 12.5801 61.0569C12.7101 60.9369 12.8901 60.7669 13.0901 60.5269C13.2801 58.5269 13.3402 55.3569 13.2802 51.0469C13.2702 50.9469 13.2501 50.7369 13.2501 50.4469C14.1901 50.4469 15.5802 50.4369 17.4202 50.4369L17.3801 50.8069L17.3901 50.7969ZM14.6801 51.8969V52.4569H15.8401V51.8969H14.6801ZM14.7101 53.7069V54.3769C14.9201 54.3769 15.2702 54.3669 15.7802 54.3369V53.7069H14.7101ZM20.6301 57.3369L20.4501 61.3769H16.7601L16.5001 57.0169C17.6701 56.9769 18.6501 56.9569 19.4301 56.9569C19.9301 56.9569 20.3501 56.9669 20.6901 56.9869L20.6301 57.3369ZM18.5001 58.6069C18.2801 58.6069 18.0902 58.6169 17.9202 58.6369L17.9801 59.7769H19.1801L19.2201 58.6369C18.9601 58.6269 18.7201 58.6069 18.5001 58.6069ZM24.0901 50.5569L24.0601 50.8369C24.0601 52.0269 24.0201 54.1769 23.9301 57.3069C23.8401 60.7769 23.7502 62.8069 23.6702 63.3769L21.2101 61.4769C21.4601 61.4169 21.8202 61.3269 22.2802 61.1969C22.3802 59.7769 22.4401 57.9769 22.4401 55.7869C22.0601 55.7769 21.2501 55.7769 20.0201 55.7769L19.8501 50.3169C21.0601 50.2869 22.4801 50.2869 24.1101 50.3069C24.1101 50.3469 24.1101 50.4369 24.1001 50.5669L24.0901 50.5569ZM21.3 51.7469V52.3569H22.4801V51.7469H21.3ZM21.3101 53.6469V54.2569C21.5301 54.2669 21.9102 54.2669 22.4202 54.2669L22.4401 53.6369H21.3101V53.6469Z" fill="#58778D"/>
<path d="M31.6106 60.3677C31.3206 60.4577 30.1906 60.6477 28.2306 60.9577L27.9207 59.3777L27.8906 53.5977H29.8206L29.7506 54.1677C29.7206 55.2777 29.7206 56.2277 29.7206 57.0077C29.7206 57.5877 29.7206 58.0777 29.7406 58.4577C30.3706 58.3377 31.0107 58.2077 31.6707 58.0377L31.6106 60.3777V60.3677ZM35.4006 59.8977C35.2706 59.4877 35.1406 59.1177 35.0106 58.7977C34.7206 58.0977 34.1206 56.7777 33.2006 54.8577L34.9305 53.9677C35.2705 54.5577 35.9106 55.6777 36.8606 57.3177C36.9806 57.4777 37.1806 57.7377 37.4806 58.0777L35.4207 59.8877L35.4006 59.8977Z" fill="#58778D"/>
<path d="M51.1903 56.937C50.9403 56.657 50.7204 56.437 50.5004 56.267C49.7704 55.677 48.3303 54.507 46.1803 52.767C44.8603 54.347 43.3604 55.767 41.6304 57.037L40.8403 54.607C41.0303 54.577 41.2604 54.537 41.5404 54.487C42.3904 53.887 43.2403 53.197 44.0703 52.397C45.0803 51.447 45.8103 50.627 46.2203 49.937C46.2503 49.907 46.2803 49.817 46.3503 49.707L47.7704 50.597C47.7704 50.597 47.5804 50.877 47.2404 51.377C48.1604 52.107 49.4903 53.047 51.2203 54.167C51.3503 54.237 51.6604 54.357 52.1604 54.477L51.1803 56.937H51.1903ZM49.0104 58.227L48.7303 62.657H44.0603L43.7504 57.847C44.9604 57.817 46.0504 57.807 47.0004 57.807C47.7604 57.807 48.4503 57.807 49.0503 57.837L49.0104 58.237V58.227ZM48.7904 57.047L48.2804 56.957C47.5504 56.947 46.3304 56.947 44.6104 56.987C44.3804 57.027 44.2104 57.077 44.1104 57.107L43.9904 55.127C44.1404 55.137 44.2803 55.157 44.4303 55.157C44.7503 55.157 46.0503 55.147 48.3503 55.117L48.8804 55.057L48.7904 57.047ZM45.3503 59.767L45.3904 60.767H47.4104L47.4703 59.757C46.5903 59.757 45.8903 59.767 45.3503 59.767Z" fill="#58778D"/>
<path d="M62.8403 62.6069L61.5104 60.0869C61.6904 60.0469 61.9804 59.9669 62.3604 59.8669C63.1204 59.1469 63.5204 58.5069 63.5304 57.9669C63.5304 57.5669 63.4103 57.2769 63.1903 57.0869C62.9603 56.9069 62.6504 56.8269 62.2504 56.8369C61.8104 56.8669 61.3704 56.9669 60.9204 57.1469C60.4704 57.3369 59.9003 57.6469 59.1903 58.0569V63.1069L57.0803 62.2469L57.5503 61.3269V59.0469C57.3703 59.1169 57.0704 59.3069 56.6304 59.5769L56.2504 59.8369L55.3604 57.6169L55.8103 57.4269L56.9403 56.7869L57.5503 55.1169V54.7969L56.4403 54.8969C56.3803 54.9069 56.2104 54.9669 55.9104 55.0569L55.7003 52.5969H56.3203C56.6703 52.5869 57.1003 52.5569 57.5603 52.5269V51.4869L57.5204 50.7969L59.2904 50.8369L59.2003 51.4069V52.4169C59.3903 52.4169 59.6504 52.4069 59.9904 52.3869L60.5603 52.3169V54.6169L60.0503 54.5869C59.9203 54.5969 59.7704 54.5969 59.6104 54.6169L59.2704 55.5369C60.4104 54.9969 61.3804 54.7169 62.1504 54.7069C63.1704 54.6769 63.9903 54.9869 64.5803 55.5869C65.1803 56.1969 65.4603 57.0169 65.4403 58.0469C65.3803 59.5969 64.5203 61.1369 62.8203 62.6269L62.8403 62.6069Z" fill="#58778D"/>
<path d="M79.0802 56.4962C78.8302 56.4262 78.5802 56.3662 78.3002 56.3062C78.1202 56.2962 77.7202 56.2962 77.0702 56.2962C77.0102 57.2862 76.9102 58.2762 76.7502 59.1962L74.5103 57.5162L75.3102 57.2662C75.3402 56.9262 75.3702 56.6262 75.3802 56.2962C74.6902 56.3062 73.9802 56.3263 73.2102 56.3363C73.2102 57.5263 73.2102 58.6462 73.2402 59.6862C74.3202 59.6862 75.4602 59.6562 76.6802 59.5962C76.7702 59.5662 77.0602 59.4462 77.5702 59.2262L77.4802 62.0762C75.5902 62.0462 73.7603 62.0162 72.0103 61.9562L71.5902 60.8162C71.5302 60.0662 71.5203 58.5962 71.5203 56.3962C71.1003 56.4062 70.5802 56.4262 70.0002 56.4662C69.9002 56.4662 69.6602 56.5262 69.3002 56.6162L69.2002 54.0162C69.3902 54.0162 69.5503 54.0262 69.6703 54.0462C69.7903 54.0462 69.8803 54.0562 69.9203 54.0762C69.9503 54.0762 69.9602 54.0863 69.9302 54.0863C70.3002 54.0763 70.8403 54.0562 71.5403 54.0262C71.5403 53.6462 71.5502 53.1362 71.5502 52.4562L71.4802 51.8462L73.3102 51.8862L73.2202 52.4762V53.9862C73.9502 53.9762 74.7002 53.9562 75.4602 53.9462C75.4602 53.4462 75.4602 52.8362 75.4402 52.1062C75.4402 52.0362 75.4102 51.7962 75.3502 51.4062H77.1603L77.0902 52.0462C77.1202 52.8262 77.1202 53.4562 77.1202 53.9362C77.5702 53.9262 78.0102 53.9262 78.4402 53.9362C78.6202 53.9362 78.8802 53.9062 79.2402 53.8662L79.0602 56.4962H79.0802Z" fill="#58778D"/>
<path d="M11.7104 9.16797V35.868C11.7104 37.618 13.1305 39.048 14.8805 39.048H63.9905C65.7405 39.048 67.1605 37.628 67.1605 35.868V9.16797" fill="#F6ED36"/>
<path d="M11.7104 9.16797V35.868C11.7104 37.618 13.1305 39.048 14.8805 39.048H63.9905C65.7405 39.048 67.1605 37.628 67.1605 35.868V9.16797" stroke="#65B7EC" stroke-width="4.31" stroke-linecap="round" stroke-linejoin="round"/>
<path d="M64.0007 2.15625H14.8907C13.1407 2.15625 11.7207 3.58625 11.7207 5.33625V8.63625L37.4208 23.9162H37.4407C38.1307 24.3462 38.8407 24.7862 39.4407 24.8062C39.8907 24.7862 40.3807 24.5162 40.9507 24.1962C41.1207 24.0962 67.1608 8.63625 67.1608 8.63625V5.33625C67.1608 3.58625 65.7407 2.15625 63.9907 2.15625H64.0007Z" fill="#F6ED36" stroke="#65B7EC" stroke-width="4.31" stroke-linecap="round" stroke-linejoin="round"/>
</svg>
