<svg width="80" height="76" viewBox="0 0 80 76" fill="none" xmlns="http://www.w3.org/2000/svg">
<path d="M10.17 68.3505C10.08 68.3405 9.78998 68.2905 9.28998 68.2205H8.01996C7.75996 70.8705 6.80996 73.2705 5.20996 75.4305L3.70001 73.0705C3.87001 73.0105 4.17999 72.8805 4.60999 72.6705C5.36999 71.4105 5.87 69.9305 6.12 68.2105C5.43 68.2105 4.76 68.2105 4.06 68.2205V71.3505L1.90997 70.6805L2.20001 69.9305V68.2605C1.94001 68.2605 1.48001 68.2705 0.820007 68.3005C0.720007 68.3005 0.479976 68.3405 0.0999756 68.4305L0 65.8505C0.1 65.8605 0.380007 65.8905 0.820007 65.9205H2.20996V64.3005L2.14996 63.7605L4.14001 63.7905L4.07001 64.3605V65.8805L6.32001 65.8705C6.38001 64.9605 6.37998 64.3605 6.34998 64.0705L6.28998 63.4805L8.23999 63.5105C8.22999 63.6405 8.19998 63.8305 8.16998 64.0705C8.16998 64.4805 8.16996 65.0705 8.14996 65.8705H9.39001C9.48001 65.8705 9.79 65.8305 10.31 65.7705L10.16 68.3305L10.17 68.3505Z" fill="#58778D"/>
<path d="M19.5897 65.5702C19.1097 65.9902 18.5698 66.4202 17.9998 66.8402L18.1497 74.8702L15.7598 74.0502L16.2297 73.1702L16.2598 68.0202C15.2498 68.6502 14.1398 69.2302 12.9398 69.7602L12.4697 66.8302C12.6997 66.8302 13.0297 66.8202 13.4097 66.8002C15.3297 66.0402 16.9697 65.1202 18.3397 64.0302C18.3797 63.9902 18.4997 63.8702 18.7097 63.6602L20.0598 65.2102C19.9298 65.2802 19.7797 65.4002 19.6097 65.5502L19.5897 65.5702Z" fill="#58778D"/>
<path d="M32.6998 73.1981C32.5498 73.1581 32.3098 73.1081 31.9198 73.0681C31.1298 73.0381 30.2498 73.0281 29.2998 73.0281C27.9698 73.0281 26.4798 73.0581 24.8398 73.1281L24.1698 73.2881L24.0498 70.6681L24.7798 70.7381L27.5698 70.6981V68.0181C27.0598 68.0281 26.2398 68.0481 25.1298 68.0881L24.5098 68.2181L24.4098 65.6281L25.0398 65.6981C24.9498 65.6981 26.0198 65.6881 28.2198 65.6681H31.7498C31.9398 65.6581 32.1698 65.6281 32.4698 65.5781L32.3398 68.1581C32.1598 68.1181 31.9198 68.0581 31.5798 68.0081C31.2298 67.9981 30.5098 67.9981 29.3798 67.9981V70.6781C29.9198 70.6781 30.8098 70.6781 32.0398 70.6881C32.1298 70.6781 32.3898 70.6481 32.8298 70.5981L32.6998 73.1881V73.1981Z" fill="#58778D"/>
<path d="M38.31 68.7284C37.62 68.2184 36.7 67.5384 35.5 66.7284L36.6 64.8984C37.1 65.2484 38.06 65.9484 39.48 67.0184L38.31 68.7284ZM41.92 71.1084C40.89 72.1884 39.7 73.1984 38.32 74.1084C38.2 74.2084 38.01 74.3684 37.76 74.5884L36.66 72.3784C36.95 72.3084 37.16 72.2484 37.29 72.1984C39.75 70.6584 41.78 68.5584 43.41 65.8784L44.71 67.3384C43.77 68.8484 42.84 70.1084 41.92 71.0984V71.1084Z" fill="#58778D"/>
<path d="M54.8099 74.5905C54.1999 73.8105 53.1699 72.7005 51.7499 71.2705C50.7099 72.7305 49.5399 73.9605 48.2399 74.9705L47.1899 72.2805C47.3499 72.2505 47.6599 72.1905 48.1299 72.0705C49.2899 71.0205 50.2199 69.9605 50.9199 68.9405C51.3699 68.2705 51.8099 67.4605 52.2199 66.5005C50.9899 66.5105 49.79 66.5405 48.64 66.5705L47.9799 66.7205L47.89 63.9805L48.6199 64.0405L54.4399 63.9805L54.3999 65.7905C54.1399 66.9205 53.6199 68.1505 52.8799 69.4905C53.4699 69.9705 54.2799 70.6605 55.3499 71.5205C55.4099 71.5505 55.6999 71.7005 56.2399 71.9705L54.8099 74.5705V74.5905Z" fill="#58778D"/>
<path d="M67.9499 71.43C67.8599 71.4 67.6999 71.36 67.4999 71.33H66.7399L66.6799 73.07H63.6599C63.5699 74.23 63.4599 75.12 63.2899 75.75L61.0198 73.72L62.1199 73.54C62.1199 73.41 62.1299 73.25 62.1599 73.09C61.5299 73.09 60.7398 73.09 59.7798 73.12C59.7198 73.12 59.5899 73.15 59.4099 73.19L59.3199 71.64C59.4999 71.65 59.6099 71.67 59.6999 71.67C60.1799 71.67 61.0199 71.67 62.1999 71.66V71.34C60.9699 71.35 59.7699 71.38 58.5999 71.41C58.5299 71.41 58.3899 71.44 58.1899 71.48L58.0898 69.77C58.2998 69.8 58.4299 69.81 58.4999 69.81C59.4699 69.8 60.7199 69.8 62.2499 69.78V69.47C61.4499 69.47 60.6398 69.48 59.8398 69.51C59.7698 69.51 59.6598 69.52 59.5298 69.57L59.4598 68.03L59.9099 68.07C60.1699 68.07 60.9598 68.07 62.2698 68.06V67.61H59.6799L59.5298 65.24L59.4698 64.89L62.2399 64.86V64.44C61.2599 64.45 60.2399 64.47 59.1799 64.51C59.0899 64.52 58.9299 64.57 58.7299 64.63L58.5999 62.77C58.8299 62.8 58.9699 62.81 58.9899 62.81L62.2198 62.78V62.5C62.2198 62.38 62.2099 62.21 62.1799 62L63.8199 62.03C63.7799 62.29 63.7599 62.45 63.7599 62.53V62.78H66.6599C66.6599 62.78 66.7599 62.75 67.1099 62.72L66.9598 64.56C66.8698 64.53 66.6999 64.49 66.4499 64.46C65.4899 64.45 64.5898 64.43 63.7698 64.42V64.84H66.4899L66.4299 65.22L66.2999 67.61H63.7798V68.05L66.8398 68.02V68.27L66.7698 69.78C67.4098 69.78 67.8499 69.75 68.0599 69.69L67.9399 71.43H67.9499ZM62.2599 66.03C61.9199 66.04 61.5399 66.04 61.1199 66.04L61.1498 66.49H62.2599V66.02V66.03ZM63.7499 71.23C63.7399 71.33 63.7399 71.48 63.7399 71.65H65.3499L65.3599 71.21H63.7499V71.23ZM63.7798 69.47V69.86H65.4199L65.4399 69.47C65.2599 69.46 64.7199 69.46 63.7899 69.47H63.7798ZM63.7999 66V66.5H64.8799L64.9099 66.02C64.5399 66.02 64.1599 66.01 63.7999 66.01V66Z" fill="#58778D"/>
<path d="M79.3002 66.2219C79.2302 66.2119 79.0401 66.1619 78.7701 66.1219C78.4301 66.1219 77.9202 66.1219 77.2602 66.1119C77.2202 66.2419 77.1902 66.3719 77.1402 66.5219H78.1102C78.2402 66.5119 78.4202 66.4919 78.6202 66.4819L78.5302 68.1619C78.3802 68.1219 78.1501 68.0919 77.8401 68.0919H75.3401V68.4419H77.4202C77.5702 68.4319 77.7302 68.4119 77.9202 68.3819L77.8002 70.0319C77.4902 69.9719 77.2902 69.9619 77.1902 69.9419H75.3602V70.3619H78.3902C78.5102 70.3319 78.7002 70.3219 78.9302 70.2919L78.8002 72.0819C78.6102 72.0219 78.4202 71.9919 78.2302 71.9919C77.5702 71.9819 77.0002 71.9819 76.5302 71.9919C76.6202 72.0319 77.0702 72.3419 77.9102 72.8719C77.9802 72.9119 78.2202 72.9919 78.6302 73.0619L77.7502 75.3019C77.4602 74.9919 76.6702 74.2619 75.3802 73.1219V75.6519L73.4902 74.9819L73.8401 74.2819L73.8202 73.0119C73.1202 73.9319 72.2302 74.7219 71.1702 75.3819L70.4702 73.2619C70.6502 73.2319 70.8802 73.1919 71.1702 73.1319C71.7702 72.7519 72.3001 72.4019 72.7101 72.0319C71.7101 72.0619 71.0601 72.0719 70.7101 72.0919C70.6501 72.1219 70.5002 72.1519 70.2902 72.1919L70.2002 70.3519C70.6002 70.3919 70.7401 70.4119 70.6501 70.4119C71.2501 70.4119 72.3002 70.4119 73.8102 70.4019V69.9819C72.9902 69.9819 72.3002 70.0119 71.7202 70.0419C71.6302 70.0519 71.4902 70.0819 71.3002 70.1419L71.2101 68.4619C71.3101 68.4619 71.4601 68.4719 71.6501 68.5019C71.7201 68.5119 72.4402 68.5019 73.8202 68.4719L73.8002 68.0919C72.4402 68.1019 71.4902 68.1219 70.9502 68.1519C70.8802 68.1619 70.7302 68.1919 70.5102 68.2519L70.4102 66.5519C70.5102 66.5519 70.6602 66.5619 70.8502 66.5919C70.9202 66.6019 71.3802 66.5919 72.2302 66.5619C72.2002 66.4019 72.1702 66.2519 72.1402 66.1219L70.1501 66.1819C70.0801 66.1919 69.9302 66.2419 69.7602 66.3019L69.6602 64.3219C69.7502 64.3219 69.8802 64.3519 70.0602 64.3919C70.0202 64.3819 70.8401 64.3619 72.5201 64.3519L72.4302 63.0519L72.3702 62.7019L74.0201 62.6119V62.9619L74.0901 64.3219H75.1102V62.9019V62.6119L76.7602 62.6719L76.7002 63.0819L76.6602 64.3219L78.9402 64.3519C79.0102 64.3519 79.1702 64.3419 79.4502 64.2919L79.3002 66.2419V66.2219ZM70.5802 64.2319C70.4502 63.2819 70.3602 62.6619 70.3002 62.4019L71.7202 62.2019C71.7202 62.3619 71.7601 62.9819 71.8401 64.0419L70.5802 64.2319ZM73.5802 66.0919L73.6102 66.5319H75.7602C75.7802 66.4119 75.8002 66.2719 75.8202 66.0919H73.5802ZM78.2302 64.2819L77.0901 63.9619C77.1601 63.5419 77.2702 62.9419 77.4102 62.1719L78.7602 62.4919C78.6602 62.8119 78.4802 63.4119 78.2302 64.2819Z" fill="#58778D"/>
<path d="M35.8798 4.39844V21.5884L34.6398 22.0084C27.9598 24.2884 23.4697 30.5584 23.4697 37.6184C23.4697 46.7084 30.8697 54.1084 39.9597 54.1084C49.0497 54.1084 56.4498 46.7084 56.4498 37.6184C56.4498 30.5584 51.9597 24.2784 45.2797 22.0084L44.0397 21.5884V4.39844H35.8698H35.8798Z" fill="#F6ED36"/>
<path d="M39.9697 58.1511C28.6497 58.1511 19.4497 48.9411 19.4497 37.6311C19.4497 29.3911 24.3097 22.0211 31.8597 18.7811V0.751095C31.8597 0.541095 32.0297 0.371094 32.2397 0.371094H47.7297C47.9397 0.371094 48.1097 0.541095 48.1097 0.751095V18.7811C55.6497 22.0211 60.5197 29.4011 60.5197 37.6311C60.5197 48.9511 51.3097 58.1511 39.9997 58.1511H39.9697ZM36.2597 21.5911C36.2597 21.7511 36.1597 21.8911 36.0097 21.9411L34.7697 22.3611C28.2397 24.5911 23.8597 30.7211 23.8597 37.6211C23.8597 46.5111 31.0897 53.7411 39.9797 53.7411C48.8697 53.7411 56.0997 46.5111 56.0997 37.6211C56.0997 30.7211 51.7097 24.5911 45.1897 22.3611L43.9497 21.9411C43.7997 21.8911 43.6997 21.7511 43.6997 21.5911V4.78109H36.2797V21.5911H36.2597Z" fill="#65B7EC"/>
<path d="M47.7098 0.75V19.03C55.1798 22.14 60.1198 29.45 60.1198 37.64C60.1198 48.75 51.0798 57.79 39.9698 57.79C28.8598 57.79 19.8198 48.75 19.8198 37.64C19.8198 29.46 24.7498 22.14 32.2298 19.03V0.75H47.7098ZM39.9698 54.12C49.0598 54.12 56.4598 46.72 56.4598 37.63C56.4598 30.57 51.9698 24.29 45.2898 22.02L44.0498 21.6V4.41H35.8798V21.6L34.6398 22.02C27.9598 24.3 23.4698 30.57 23.4698 37.63C23.4698 46.72 30.8698 54.12 39.9598 54.12M47.7098 0H32.2298C31.8198 0 31.4798 0.34 31.4798 0.75V18.53C23.9298 21.88 19.0698 29.32 19.0698 37.63C19.0698 49.15 28.4398 58.53 39.9698 58.53C51.4998 58.53 60.8698 49.16 60.8698 37.63C60.8698 29.32 56.0198 21.88 48.4598 18.53V0.75C48.4598 0.34 48.1198 0 47.7098 0ZM36.6298 5.15H43.2998V21.59C43.2998 21.91 43.4998 22.2 43.8098 22.3L45.0498 22.72C51.4298 24.89 55.7098 30.88 55.7098 37.62C55.7098 46.3 48.6498 53.36 39.9698 53.36C31.2898 53.36 24.2298 46.3 24.2298 37.62C24.2298 30.88 28.5098 24.89 34.8898 22.72L36.1298 22.3C36.4298 22.2 36.6398 21.91 36.6398 21.59V5.15H36.6298Z" fill="#65B7EC"/>
<path d="M53.6397 34.5014L53.4497 33.6914H26.4697L26.2797 34.5014C26.0397 35.5414 25.9097 36.6214 25.9097 37.6914C25.9097 45.4314 32.2097 51.7314 39.9497 51.7314C47.6897 51.7314 53.9897 45.4314 53.9897 37.6914C53.9897 36.6114 53.8697 35.5414 53.6197 34.5014H53.6397ZM37.5597 47.3614C36.6697 47.3614 35.9497 46.6414 35.9497 45.7514C35.9497 44.8614 36.6697 44.1414 37.5597 44.1414C38.4497 44.1414 39.1697 44.8614 39.1697 45.7514C39.1697 46.6414 38.4497 47.3614 37.5597 47.3614ZM43.4497 42.2414C42.0897 42.2414 40.9797 41.1314 40.9797 39.7714C40.9797 38.4114 42.0897 37.3014 43.4497 37.3014C44.8097 37.3014 45.9197 38.4114 45.9197 39.7714C45.9197 41.1314 44.8097 42.2414 43.4497 42.2414Z" fill="#65B7EC"/>
</svg>
