<svg width="56" height="74" viewBox="0 0 56 74" fill="none" xmlns="http://www.w3.org/2000/svg">
<path d="M11.2144 72.9586C10.9844 72.8986 10.7644 72.8686 10.5844 72.8686C7.65435 72.7986 5.16439 72.7986 3.12439 72.8786C3.02439 72.8886 2.83436 72.9386 2.53436 73.0286L2.41437 70.8586L2.98438 70.9186C2.79437 70.9086 3.87435 70.8886 6.20435 70.8886V70.2286C5.78435 70.2286 5.19439 70.2386 4.43439 70.2386C4.34439 70.2386 4.14439 70.2786 3.81439 70.3386L3.71436 68.4786L4.15436 68.5386L6.23438 68.5086V67.9086C5.79437 67.9086 5.02439 67.9186 3.87439 67.9386C3.68439 68.4486 3.34438 69.0986 2.86438 69.8986L1.48438 68.2486C1.57438 68.1586 1.76434 68.0286 2.01434 67.8086C2.45434 66.9786 2.77437 66.1686 2.97437 65.3986C2.97437 65.3386 3.00436 65.2186 3.03436 65.0586L4.57434 65.3386C4.53434 65.5186 4.47434 65.7786 4.38434 66.1286H6.24438V65.6586L6.21436 65.1886L7.86438 65.2286L7.80438 65.6486V66.0986H10.1644C10.2244 66.0886 10.4444 66.0586 10.8344 65.9986L10.6844 68.0186C10.5244 67.9786 10.3344 67.9486 10.1144 67.8986H7.78436L7.77435 68.4786H8.43439C8.64439 68.4886 9.12434 68.4886 9.88434 68.4786C9.95434 68.4686 10.1344 68.4486 10.4244 68.4386L10.2944 70.2786C10.0344 70.2186 9.82434 70.1886 9.69434 70.1886H7.76434V70.8586C8.74434 70.8586 9.74435 70.8586 10.7744 70.8686C10.8344 70.8686 10.9344 70.8586 11.0644 70.8386C11.1944 70.8186 11.2944 70.8086 11.3744 70.8086L11.1943 72.9186L11.2144 72.9586ZM10.5044 60.0286L10.3744 64.9886L3.60437 65.0186L3.37439 59.6286L7.61438 59.5886C8.40438 59.5786 9.38434 59.5786 10.5743 59.5986L10.5143 60.0186L10.5044 60.0286ZM5.07434 61.1986V61.7286H8.82434V61.1986C7.85434 61.1886 6.60434 61.1886 5.07434 61.1986ZM5.08435 62.9786V63.4886H8.78436V62.9786H5.08435Z" fill="#58778D"/>
<path d="M25.5945 65.2797L23.5445 63.7697L24.2446 63.5397L24.3145 62.8097C21.7845 62.7797 19.4746 62.7997 17.4246 62.8497L17.3646 64.6097L15.6846 64.0797L15.9045 63.5197L15.9445 61.1597C16.8645 61.1497 18.2445 61.1497 20.0745 61.1197L20.1046 60.2997L20.0745 59.9297L21.7446 60.0197L21.6546 60.3597L21.6146 61.1097L26.0046 61.0797L25.5945 65.2797ZM24.4345 72.5397C24.2145 72.4697 24.0146 72.4397 23.8646 72.4397C21.4246 72.3797 19.3846 72.3997 17.7346 72.4697C17.6146 72.4997 17.4445 72.5397 17.1945 72.5997L17.0646 70.4597L17.5446 70.4997H20.0445L20.0645 69.1197C19.7545 69.1297 19.1846 69.1497 18.3546 69.1797C18.2646 69.1797 18.1045 69.2197 17.8445 69.3097L17.7145 67.1697C18.0945 67.1997 18.2446 67.2097 18.1846 67.2097L23.4645 67.1697C23.5545 67.1697 23.7246 67.1397 24.0046 67.1097L23.8445 69.2497L23.2446 69.1297C22.9946 69.1297 22.4645 69.1297 21.6645 69.1197L21.6346 70.4697H24.1246C24.3046 70.4397 24.4746 70.4297 24.6346 70.4097L24.4445 72.5297L24.4345 72.5397ZM18.2645 66.6697L17.2245 65.1597C17.5145 65.0397 17.7046 64.9497 17.7946 64.8497C18.2446 64.3997 18.6146 63.9697 18.9246 63.5597L20.0945 64.3397C19.6445 65.1197 19.0245 65.8897 18.2645 66.6697ZM23.5745 66.5397C23.0745 66.1197 22.3346 65.4397 21.3546 64.5197L22.3245 63.5497C22.6645 63.7797 23.1145 64.1397 23.6745 64.5697C23.8245 64.6697 24.0546 64.7797 24.3746 64.8497L23.5845 66.5297L23.5745 66.5397Z" fill="#58778D"/>
<path d="M39.6342 68.9183C39.5442 68.8883 39.3841 68.8483 39.1841 68.8183H38.4241L38.3641 70.5583H35.3541C35.2641 71.7183 35.1541 72.6083 34.9841 73.2383L32.7141 71.2083L33.8141 71.0283C33.8141 70.8983 33.8241 70.7383 33.8541 70.5783C33.2241 70.5783 32.4341 70.5783 31.4741 70.6083C31.4141 70.6083 31.2841 70.6383 31.1041 70.6783L31.0142 69.1283C31.1942 69.1383 31.3042 69.1583 31.3942 69.1583C31.8742 69.1583 32.7142 69.1583 33.8942 69.1483V68.8283C32.6642 68.8383 31.4641 68.8683 30.2941 68.8983C30.2241 68.8983 30.0842 68.9283 29.8842 68.9683L29.7842 67.2583C29.9942 67.2883 30.1241 67.2983 30.1941 67.2983C31.1641 67.2883 32.4141 67.2883 33.9441 67.2683V66.9583C33.1441 66.9583 32.3342 66.9683 31.5342 66.9983C31.4642 66.9983 31.3541 67.0083 31.2241 67.0583L31.1542 65.5183L31.6041 65.5583C31.8641 65.5583 32.6541 65.5583 33.9641 65.5483V65.0983H31.3741L31.2241 62.7283L31.1641 62.3783L33.9341 62.3483V61.9283C32.9541 61.9383 31.9241 61.9583 30.8741 61.9983C30.7841 62.0083 30.6241 62.0583 30.4241 62.1183L30.2941 60.2583C30.5241 60.2883 30.6641 60.2983 30.6941 60.2983L33.9241 60.2683V59.9883C33.9241 59.8683 33.9142 59.6983 33.8842 59.4883L35.5242 59.5183C35.4842 59.7783 35.4641 59.9383 35.4641 60.0183V60.2683H38.3641C38.3641 60.2683 38.4641 60.2383 38.8141 60.2083L38.6641 62.0483C38.5741 62.0183 38.4042 61.9783 38.1542 61.9483C37.1842 61.9383 36.2941 61.9183 35.4741 61.9083V62.3283H38.1941L38.1342 62.7083L38.0042 65.0983H35.4841V65.5383L38.5441 65.5083L38.5242 65.7583L38.4641 67.2683C39.1041 67.2683 39.5442 67.2383 39.7542 67.1783L39.6342 68.9183ZM33.9341 63.5183C33.5941 63.5283 33.2141 63.5283 32.7941 63.5283L32.8241 63.9783H33.9341V63.5083V63.5183ZM35.4341 68.7183C35.4241 68.8183 35.4241 68.9683 35.4241 69.1383H37.0342L37.0541 68.6983H35.4441L35.4341 68.7183ZM35.4641 66.9583V67.3483H37.1041V66.9583C36.9441 66.9483 36.4041 66.9483 35.4641 66.9583ZM35.4741 63.4883V63.9883H36.5541L36.5841 63.5083C36.2141 63.5083 35.8341 63.4983 35.4741 63.4983V63.4883Z" fill="#58778D"/>
<path d="M53.3143 63.7102C53.2443 63.7002 53.0544 63.6502 52.7844 63.6102C52.4444 63.6102 51.9344 63.6102 51.2744 63.6002C51.2344 63.7302 51.2044 63.8602 51.1544 64.0102H52.1244C52.2544 64.0002 52.4344 63.9802 52.6344 63.9702L52.5443 65.6502C52.3943 65.6102 52.1644 65.5802 51.8544 65.5802H49.3544V65.9302H51.4343C51.5843 65.9202 51.7443 65.9002 51.9343 65.8702L51.8143 67.5202C51.5043 67.4602 51.3043 67.4502 51.2043 67.4302H49.3744V67.8502H52.4044C52.5244 67.8202 52.7143 67.8102 52.9443 67.7802L52.8143 69.5702C52.6243 69.5102 52.4344 69.4802 52.2444 69.4802C51.5844 69.4702 51.0143 69.4702 50.5443 69.4802C50.6343 69.5202 51.0843 69.8302 51.9243 70.3602C51.9943 70.4002 52.2344 70.4802 52.6444 70.5502L51.7644 72.7902C51.4744 72.4802 50.6844 71.7502 49.3944 70.6102V73.1402L47.5044 72.4702L47.8544 71.7702V70.5002C47.1344 71.4202 46.2443 72.2102 45.1943 72.8702L44.4944 70.7502C44.6744 70.7202 44.9043 70.6802 45.1943 70.6202C45.7943 70.2402 46.3244 69.8902 46.7344 69.5202C45.7444 69.5502 45.0844 69.5602 44.7344 69.5802C44.6744 69.6102 44.5243 69.6402 44.3143 69.6802L44.2244 67.8402C44.6244 67.8802 44.7643 67.9002 44.6743 67.9002C45.2743 67.9002 46.3244 67.9002 47.8344 67.8902V67.4702C47.0144 67.4702 46.3244 67.5002 45.7444 67.5302C45.6544 67.5402 45.5143 67.5702 45.3243 67.6302L45.2344 65.9502C45.3344 65.9502 45.4843 65.9602 45.6743 65.9902C45.7443 66.0002 46.4644 65.9902 47.8444 65.9602V65.5802C46.4644 65.5902 45.5144 65.6102 44.9744 65.6402C44.9044 65.6502 44.7544 65.6802 44.5344 65.7402L44.4343 64.0402C44.5343 64.0402 44.6844 64.0502 44.8744 64.0802C44.9444 64.0902 45.4044 64.0802 46.2544 64.0502C46.2244 63.8902 46.1943 63.7402 46.1643 63.6102L44.1743 63.6702C44.1043 63.6802 43.9544 63.7302 43.7744 63.7902L43.6743 61.8102C43.7643 61.8102 43.8943 61.8402 44.0643 61.8802C44.0243 61.8702 44.8444 61.8502 46.5244 61.8402L46.4343 60.5402L46.3744 60.1902L48.0244 60.1002V60.4502L48.0944 61.8102H49.1144L49.1344 60.3902L49.1144 60.1002L50.7644 60.1602L50.7043 60.5702L50.6643 61.8102L52.9443 61.8402C53.0143 61.8402 53.1743 61.8302 53.4543 61.7802L53.3043 63.7302L53.3143 63.7102ZM44.5944 61.7202C44.4644 60.7702 44.3743 60.1502 44.3143 59.8902L45.7344 59.6902C45.7344 59.8502 45.7744 60.4702 45.8544 61.5302L44.5944 61.7202ZM47.5944 63.5802L47.6244 64.0202H49.7744C49.7844 63.9002 49.8144 63.7602 49.8344 63.5802H47.5944ZM52.2544 61.7702L51.1144 61.4502C51.1844 61.0302 51.2943 60.4302 51.4343 59.6602L52.7844 59.9802C52.6844 60.3002 52.5044 60.9002 52.2544 61.7702Z" fill="#58778D"/>
<path d="M27.8247 41.74L40.7347 48.37C41.2647 48.64 41.6847 48.43 41.8947 48.28C42.1047 48.13 42.4347 47.79 42.3347 47.21L40.0147 32.89L50.3047 22.66C50.7247 22.24 50.6547 21.77 50.5747 21.53C50.4947 21.29 50.2747 20.87 49.6947 20.78L35.3547 18.56L28.8047 5.61C28.5347 5.08 28.0747 5 27.8147 5C27.5547 5 27.0947 5.08 26.8247 5.61L20.2748 18.56L5.93473 20.78C5.34473 20.87 5.12472 21.29 5.05472 21.53C4.97472 21.77 4.90468 22.24 5.32468 22.66L15.6147 32.89L13.2947 47.21C13.2047 47.8 13.5347 48.13 13.7347 48.28C13.9447 48.43 14.3647 48.64 14.8947 48.37L27.8047 41.74H27.8247Z" fill="#65B7EC" stroke="#65B7EC" stroke-width="10" stroke-miterlimit="10"/>
<path d="M27.8247 41.74L40.7347 48.37C41.2647 48.64 41.6847 48.43 41.8947 48.28C42.1047 48.13 42.4347 47.79 42.3347 47.21L40.0147 32.89L50.3047 22.66C50.7247 22.24 50.6547 21.77 50.5747 21.53C50.4947 21.29 50.2747 20.87 49.6947 20.78L35.3547 18.56L28.8047 5.61C28.5347 5.08 28.0747 5 27.8147 5C27.5547 5 27.0947 5.08 26.8247 5.61L20.2748 18.56L5.93473 20.78C5.34473 20.87 5.12472 21.29 5.05472 21.53C4.97472 21.77 4.90468 22.24 5.32468 22.66L15.6147 32.89L13.2947 47.21C13.2047 47.8 13.5347 48.13 13.7347 48.28C13.9447 48.43 14.3647 48.64 14.8947 48.37L27.8047 41.74H27.8247Z" fill="#F6ED36"/>
</svg>
