<svg width="81" height="77" viewBox="0 0 81 77" fill="none" xmlns="http://www.w3.org/2000/svg">
<path d="M4.46008 69.8614C4.32008 69.8314 4.2001 69.8014 4.1001 69.8014H3.31006V70.2114C3.51006 70.3414 3.74001 70.4714 4.01001 70.6114L4.5 70.7914L4.07007 72.7814C3.86007 72.5914 3.59001 72.3614 3.26001 72.0814L3.22009 76.4014L1.53003 74.9714C1.63003 74.8214 1.76004 74.6314 1.92004 74.4114C1.93004 74.0014 1.9601 73.3614 1.9801 72.5114C1.6501 73.0214 1.26004 73.5514 0.790039 74.1014L0.0400391 72.1014C0.100039 72.0714 0.260112 72.0114 0.490112 71.9214C0.920112 71.4814 1.43002 70.7914 2.02002 69.8414C1.64002 69.8314 1.23004 69.8414 0.790039 69.8514L0.51001 69.9214L0.440063 67.9014L0.730103 67.9314C0.730103 67.9314 1.19001 67.9314 2.01001 67.9014C2.01001 67.5314 2 67.1514 2 66.7414C1.78 66.8314 1.39006 66.9714 0.810059 67.1614L0.610107 65.2114H1.1001C1.1701 65.2114 1.53005 65.0914 2.18005 64.8614C2.91005 64.6114 3.47002 64.3914 3.90002 64.1914L4.33008 65.6814C4.26008 65.7214 3.90002 65.8914 3.27002 66.1614C3.27002 66.5614 3.28004 67.1314 3.29004 67.8714H4.04004C4.18004 67.8714 4.35003 67.8714 4.53003 67.8414L4.43005 69.8414L4.46008 69.8614ZM4.65002 74.2314L4.61011 72.3614L4.87012 72.3914H5.13C5.3 70.6214 5.44004 69.0214 5.54004 67.6014V67.1314L7.08008 67.2814L6.99011 67.7814C6.89011 69.3714 6.76011 70.9014 6.61011 72.3514L7.99011 72.3214C7.95011 71.8514 7.89006 70.9614 7.81006 69.6414L7.75 69.3014L9.16003 69.1414V69.5514C9.16003 69.7014 9.22011 70.6014 9.36011 72.2714L9.72009 72.2414L9.74011 74.0714L4.66003 74.2314H4.65002Z" fill="#58778D"/>
<path d="M20.1499 68.643C19.9299 68.583 19.6899 68.523 19.4399 68.463C18.2499 68.453 17.01 68.463 15.73 68.493L15.21 76.293L13.35 75.023L13.8199 74.193L14.21 68.573L13.4999 68.603C13.4399 68.613 13.25 68.663 12.95 68.763L12.8799 66.173C13.1699 66.213 13.36 66.233 13.46 66.233C13.42 66.233 13.7399 66.223 14.4099 66.203L14.48 65.163V64.543L16.08 64.693L15.96 65.283L15.8999 66.163C16.6899 66.153 17.9299 66.133 19.6299 66.133C19.6499 66.133 19.8899 66.123 20.3199 66.063L20.1699 68.653L20.1499 68.643ZM20.46 75.593C19.16 75.593 17.8799 75.433 16.6299 75.113L16.9399 73.053C17.9599 73.313 19.01 73.433 20.09 73.403C20.16 73.403 20.3099 73.373 20.5299 73.303L20.46 75.603V75.593ZM20.2599 70.923L20.0099 72.903L18.7799 72.533L18.9299 71.673C18.4399 71.663 17.82 71.673 17.11 71.713C17.01 71.743 16.89 71.783 16.7 71.833L16.6399 69.643C16.7599 69.643 16.8999 69.653 17.0599 69.673C17.8799 69.663 18.9699 69.643 20.2899 69.633L20.2499 70.933L20.2599 70.923Z" fill="#58778D"/>
<path d="M31.6602 68.5733C31.4502 68.5033 31.2502 68.4533 31.0402 68.4433C30.4402 68.4133 29.6602 68.4033 28.7202 68.4133L28.6802 69.6833C30.2502 69.8133 31.0202 70.7833 30.9702 72.5933C30.9202 73.7933 30.1901 75.2533 28.7601 76.9533L27.6702 74.3733C27.8302 74.3333 28.0801 74.2733 28.4001 74.1833C28.9801 73.6033 29.2601 73.0733 29.2601 72.6133C29.2601 71.9833 28.8802 71.6633 28.1202 71.6633C28.0802 71.6633 27.7601 71.7033 27.1501 71.8133L27.2701 68.4433L26.0802 68.5033C25.8802 68.5433 25.7002 68.5933 25.5402 68.6533L25.4702 66.1033C25.6202 66.1133 25.8102 66.1433 26.0802 66.1733L27.3502 66.1433L27.4001 64.9033L27.3602 64.3633L28.9302 64.4333L28.8402 65.0433L28.8002 66.0933C29.1802 66.0933 29.9901 66.0933 31.2501 66.0833C31.4101 66.0733 31.5802 66.0433 31.7902 66.0133L31.6702 68.5633L31.6602 68.5733Z" fill="#58778D"/>
<path d="M37.1499 75.3016C37.1099 74.9816 37.05 74.5216 36.98 73.9516C36.92 73.4416 36.8799 72.5316 36.8799 71.2716C36.8799 70.7716 36.92 69.1516 36.99 66.4116L36.95 65.8516L38.5399 65.8916L38.45 66.5516C38.43 68.1616 38.4099 69.5116 38.4099 70.6216C38.4099 71.5616 38.4199 72.3016 38.4299 72.8916L39.2999 72.6716L39.3899 74.9116C39.1599 74.9716 38.4099 75.1016 37.1399 75.2916L37.1499 75.3016ZM44.0399 74.0316C43.5799 74.0716 43.19 74.0916 42.85 74.0916C41.96 74.0916 41.13 73.9916 40.35 73.7816C40.24 73.7516 40.0999 73.7116 39.9399 73.6816L40.2599 71.4616C40.3499 71.4916 40.51 71.5516 40.73 71.6216C41.38 71.8016 42.1199 71.8816 42.9399 71.8816C43.2799 71.8816 43.6699 71.8716 44.0599 71.8216C44.0799 71.8216 44.2299 71.7816 44.5199 71.7016L44.5599 74.0016C44.4399 74.0016 44.2799 74.0116 44.0399 74.0316ZM44.4399 69.0816L43.98 71.0716L42.58 70.3816L42.84 69.6816C42.25 69.6716 41.5099 69.6816 40.6399 69.7116C40.5399 69.7416 40.37 69.7716 40.12 69.8316L40.08 67.5016C40.33 67.5316 40.4899 67.5416 40.5499 67.5416C42.5699 67.5116 43.87 67.5116 44.49 67.5316L44.4399 69.0816Z" fill="#58778D"/>
<path d="M55.5302 72.8322C54.8302 73.9422 53.7701 74.8822 52.3801 75.6122L51.8302 72.8422C51.9902 72.8322 52.2601 72.8022 52.6401 72.7522C54.0501 71.8722 54.7402 70.9822 54.7302 70.0922C54.7202 69.3322 54.2702 68.9822 53.4102 69.0122C53.1302 69.0122 52.8401 69.0422 52.5201 69.1022C51.7801 69.2322 50.7302 69.5022 49.3602 69.8822C49.1902 69.9722 48.9802 70.0722 48.7402 70.2022L48.4502 67.4822C48.6502 67.4822 48.8801 67.4822 49.1501 67.4722C51.2701 66.9922 52.7202 66.7422 53.4702 66.7422C54.2902 66.7422 54.9802 67.0022 55.5402 67.5222C56.1602 68.0922 56.4502 68.8522 56.4502 69.7922C56.4402 70.8722 56.1302 71.8822 55.5302 72.8522V72.8322Z" fill="#58778D"/>
<path d="M63.83 73.9419C63.58 74.0319 62.64 74.2219 60.99 74.5319L60.73 72.9519L60.71 67.1719H62.33L62.2699 67.7419C62.2399 68.8519 62.24 69.8019 62.24 70.5819C62.24 71.1619 62.2399 71.6519 62.2499 72.0319C62.7799 71.9119 63.32 71.7819 63.87 71.6119L63.8199 73.9519L63.83 73.9419ZM67.0099 73.4719C66.8999 73.0619 66.7899 72.6919 66.6799 72.3719C66.4299 71.6719 65.9299 70.3519 65.1599 68.4319L66.61 67.5419C66.89 68.1319 67.43 69.2519 68.23 70.8919C68.33 71.0519 68.4999 71.3119 68.7499 71.6519L67.0199 73.4619L67.0099 73.4719Z" fill="#58778D"/>
<path d="M79.9602 68.6995C79.8302 68.6595 79.5902 68.5995 79.2802 68.5095L78.0502 68.4795C77.1302 70.0795 76.6502 71.1995 76.6002 71.8495C76.5602 72.4095 76.8802 72.8695 77.5802 73.2795C77.7602 73.3795 78.0401 73.4595 78.3801 73.5095L77.5302 76.1095C76.7402 75.5695 76.1602 75.0295 75.7802 74.4595C75.3102 73.7395 75.0802 72.9195 75.0802 71.9895C75.0802 71.1795 75.4602 70.0295 76.2202 68.5095C76.0002 68.5195 75.0602 68.5795 73.4202 68.6895C73.3002 68.7295 73.0902 68.8095 72.7902 68.8795L72.7202 66.0895L73.4001 66.1795C76.5001 66.1095 78.5202 66.0795 79.4602 66.0795C79.5002 66.0795 79.6102 66.0795 79.7902 66.0495C79.9702 66.0395 80.0702 66.0195 80.1002 66.0195L79.9502 68.7095L79.9602 68.6995Z" fill="#58778D"/>
<path fill-rule="evenodd" clip-rule="evenodd" d="M12.75 42.0815C12.46 41.9415 12.18 41.6715 11.91 41.5915C11.46 41.4615 10.81 41.4815 10.27 41.3715C9.23002 41.1615 8.48004 40.6115 7.79004 39.9615C7.27004 39.4615 6.6501 38.9715 6.6001 37.9715C5.8201 37.7315 4.85012 37.8115 4.12012 37.3515C3.89012 37.2015 3.18006 36.5115 3.06006 36.2915C2.84006 35.8715 2.99 35.3715 2.75 34.9215C3.02 34.3415 3.25006 33.7315 3.81006 33.4215C4.41006 33.0915 5.32011 32.9815 6.11011 32.8015C6.49011 32.7215 6.88001 32.6015 7.26001 32.4915C7.65001 32.3815 8.09003 32.2315 8.41003 32.1815C8.94003 32.1115 9.37012 32.2415 9.87012 32.1415C10.3601 32.0415 10.8501 31.6815 11.3701 31.5215C11.9401 31.3515 12.5101 31.2715 13.0901 31.1215C13.3001 31.0715 13.4901 30.9115 13.7101 30.8515C14.4401 30.6715 15.2801 30.6215 16.1001 30.5415C17.2401 30.4315 18.12 30.1415 19.42 30.1915C19.71 29.9615 19.5601 29.3015 19.7301 28.9515C19.2001 27.9315 18.61 26.9815 18.54 25.5915C18.42 23.2515 18.52 21.3815 19.03 19.4015C19.52 17.4815 20.1201 16.0015 21.1101 14.4915C21.5501 13.8215 22.06 13.3615 22.66 12.8115C22.91 12.5815 23.1301 12.2915 23.3701 12.1015C23.6201 11.9015 23.98 11.7415 24.3 11.5315C25.09 11.0015 26.2601 10.3315 27.3501 10.1215C28.1701 9.96152 29.16 9.94152 30.05 9.94152C32.21 9.94152 34.4801 10.2815 36.2401 11.0015C39.3801 12.2715 41.9001 14.1915 42.9601 17.5915C43.0801 15.5915 42.77 13.1315 42.78 10.9115C42.78 9.91152 42.75 9.00152 42.65 8.17152C42.62 7.95152 42.6501 7.69152 42.6101 7.51152C42.5501 7.26152 42.3501 7.24152 42.4301 6.98152C42.7401 6.72152 43.1201 6.88152 43.3601 6.98152C43.6801 7.11152 43.89 7.42152 44.16 7.56152C44.53 7.75152 44.9701 7.81152 45.3501 7.96152C45.9001 8.17152 46.4301 8.42152 46.9901 8.62152C48.6401 9.23152 50.4601 9.70152 52.1201 10.3015C52.9501 9.62152 53.7501 8.89152 54.7301 8.35152C55.3001 7.74152 56.0901 7.40152 56.8101 6.94152C58.1701 6.07152 59.5701 5.02152 60.9701 4.11152C61.6701 3.65152 62.36 3.09152 63.14 2.78152C63.43 2.67152 64.02 2.87152 64.16 3.04152C64.4 3.36152 64.44 4.49152 64.51 5.03152C64.61 5.71152 64.6901 6.41152 64.8201 7.02152C64.8601 7.21152 65 7.41152 65.04 7.59152C65.5 9.49152 65.5801 11.7215 66.0601 13.4315C68.1901 14.1215 70.1 14.9315 72.29 15.6815C73.85 16.2215 75.1901 16.9315 76.7101 17.6315C77.1501 17.8315 78.01 18.0515 78.04 18.4315C78.06 18.7915 76.93 19.5415 76.54 19.8015C74.23 21.3615 72.34 23.2315 70.17 24.8415C70.29 28.3915 70.47 32.5315 70.52 36.2915C70.53 37.2115 70.43 38.1915 70.52 38.9915C70.56 39.3415 70.82 39.7315 70.39 39.9615C69.54 39.8915 68.82 39.2915 67.91 39.1215M61.25 5.08152C60.69 5.47152 60.1401 5.87152 59.5701 6.27152C58.1401 7.27152 56.51 8.27152 55.15 9.23152C54.86 9.44152 54.5401 9.66152 54.2201 9.89152C53.8001 10.2115 52.84 11.2415 52.5 11.2615C52.24 11.2715 52.04 11.1215 51.79 11.0415C50.24 10.5115 48.6501 10.0215 47.1901 9.54152C45.9601 9.13152 44.75 8.56152 43.65 8.12152C43.93 11.0315 43.97 14.1915 44.05 17.2715C44.09 18.6715 44.1501 20.0415 44.0901 21.3815C44.0801 21.6415 44.18 21.9915 44.13 22.2615C44.1 22.4315 43.9101 22.5715 43.8601 22.7915C43.7101 23.5215 43.92 24.4415 43.9 25.3515C43.9 25.7715 43.8401 26.2315 43.8101 26.6815C43.7801 27.1915 43.6401 27.7415 43.7201 28.0915C43.7801 28.3215 44.0201 28.5815 44.1201 28.8015C44.2501 29.0815 44.3701 29.3215 44.4301 29.6415C44.5401 30.2315 44.7201 31.1915 44.6101 31.7615C44.5701 31.9415 44.3501 32.1415 44.3401 32.3815C44.3401 32.6715 44.67 33.0915 44.78 33.4015C45.25 34.7215 45.4201 36.5615 45.8401 37.7815C47.8301 36.9315 49.87 36.1215 51.9 35.3015C52.07 35.3015 52.04 35.0915 52.16 35.0415C52.44 35.2415 52.69 34.7815 53.13 34.8615C53.85 34.4915 55.19 33.7315 56.14 33.7515C56.64 33.7615 56.81 34.0415 57.16 34.1515C57.37 34.2215 57.6001 34.1815 57.8201 34.2415C58.1701 34.3415 58.51 34.5315 58.88 34.6415C61.46 35.3915 63.9701 36.7115 66.3501 37.5115C66.8001 37.0815 67.57 37.5815 67.63 38.0915C68.29 38.2715 68.7601 38.6415 69.4401 38.8015C69.3401 34.4415 69.2901 29.9715 69.0901 25.6315C68.8801 25.4115 68.4001 25.3415 68.4701 24.9215C68.4901 24.8115 69.2801 24.1415 69.3501 24.0815C69.5601 23.9215 69.8401 23.8415 70.0601 23.6815C70.3601 23.4615 70.5701 23.1215 70.8101 22.9315C71.0501 22.7415 71.3601 22.6215 71.6101 22.4015C71.8401 22.1915 72.02 21.8915 72.27 21.6915C72.95 21.1515 73.64 20.6215 74.3 20.0515C75.01 19.4515 75.84 19.0515 76.42 18.4615C74.02 17.3115 71.39 16.2715 68.77 15.2815C67.76 14.9015 66.6401 14.3115 65.4501 14.4015C64.9301 14.1715 64.9701 13.8215 64.8301 13.2515C64.6901 12.6715 64.5701 12.0415 64.4801 11.3915C64.1001 8.83152 63.5401 6.21152 63.2401 3.87152H63.15C62.58 4.29152 61.8401 4.61152 61.2001 5.06152M20.17 32.6615C20.78 33.1115 21.71 33.3215 22.65 33.3715C23.77 33.4315 25 33.5015 26.05 33.5015C26.76 33.5015 27.46 33.3715 28.26 33.3715C30.51 33.3715 32.9701 33.4115 35.3301 33.4115C38.3801 33.4115 41.2901 33.3115 43.1101 32.2215C43.0901 31.8215 43.41 31.8715 43.51 31.5615C43.6 31.2515 43.46 30.7915 43.42 30.4515C43.37 30.0415 43.37 29.6315 43.29 29.3415C43.13 28.8115 42.69 28.4515 42.63 28.0115C42.52 27.2415 42.7701 26.4315 42.8101 25.8015C42.8501 25.1515 42.78 24.4415 42.77 23.7715C42.75 23.0215 42.82 22.2515 42.77 21.5615C42.66 20.0015 42.2101 18.6715 41.7101 17.3215C40.8801 15.0815 39.5301 13.8315 37.6901 12.7215C37.0201 12.3215 36.2701 11.9415 35.4801 11.6615C34.0501 11.1615 31.6601 10.6315 29.6901 10.8615C29.0201 10.9415 28.23 10.9015 27.52 11.0415C26.5 11.2415 25.5001 11.8815 24.8201 12.3715C24.5301 12.5815 24.2001 12.7215 23.9801 12.9015C23.7901 13.0615 23.6501 13.3215 23.4501 13.5215C23.2401 13.7215 22.96 13.8515 22.79 14.0515C22.35 14.5415 21.94 15.2415 21.55 15.8615C20.05 18.2415 19.1601 21.8115 19.6101 25.6815C19.7201 26.6715 20.0201 27.4715 20.4501 28.2915C20.5301 28.4315 20.9801 28.2015 20.9401 28.4715C20.7701 29.7515 20.1401 31.1715 20.1901 32.6715M12.52 32.1315C11.85 32.3215 11.02 32.5815 10.88 33.0115C10.73 33.4815 10.98 34.0315 11.01 34.5115C11.16 36.7915 11.5201 39.0615 12.3401 40.7915C12.5201 40.8815 12.77 40.8915 12.78 41.1415C12.91 41.1115 13.1601 41.1815 13.3101 41.3615C13.1101 41.3915 13.0601 41.2615 12.8701 41.2715C13.7901 42.0315 15.4701 42.0315 17.1101 42.0715C17.2101 41.8115 17.6401 41.9615 17.9901 41.9415C18.3601 41.9215 18.7801 41.7915 19.1801 41.7215C20.1101 41.5615 20.9201 41.3915 21.7401 41.2815C22.9701 41.1115 23.78 40.8815 24.75 40.5715C26.37 40.0515 27.85 39.2615 29.17 38.5815C29.33 38.5015 29.17 38.1215 29.39 38.0915C29.72 38.1215 30.02 38.2015 30.27 38.3115C31.15 41.9415 31.6201 46.3215 33.3201 49.2715C34.9501 49.4915 37.0501 49.6015 37.9601 48.7015C38.2801 48.3815 38.8501 47.1815 38.9801 46.7515C39.0301 46.6015 38.98 46.4315 39.02 46.2615C39.25 45.1915 39.86 44.0515 40.04 42.9015C40.3 41.2315 40.14 39.5215 40.3 38.0815C40.7701 38.0515 41.1801 38.0815 41.3201 38.3915C41.2501 40.3315 41.29 42.3915 40.92 43.9215C42.46 43.7015 44.1201 43.8515 45.6101 43.6115C45.5601 42.7615 45.4 41.9515 45.3 41.1315C45.2001 40.2715 44.9801 39.4815 44.8601 38.6515C44.7101 37.6315 44.57 36.6815 44.28 35.6915C44.01 34.7415 44.0201 33.6915 43.4801 32.8615C41.7401 33.7615 39.4001 34.0415 36.9801 34.1415C35.7801 34.1915 34.5001 34.0615 33.2201 34.1015C30.3601 34.1815 28.0301 34.2415 25.3101 34.1415C24.0701 34.1015 22.74 34.2715 21.64 34.0515C20.83 33.8915 19.3101 33.5815 19.0801 32.9015C18.8501 32.2215 19.3701 31.4015 19.1201 30.9515C16.8801 31.2615 14.5301 31.5215 12.4901 32.1015M6.6001 33.5915C5.6501 33.8115 4.37011 33.9415 3.99011 34.5615C3.51011 35.3415 3.93011 36.4915 4.61011 36.8615C4.88011 37.0015 5.43001 37.0815 5.89001 37.1315C6.36001 37.1815 7.02005 37.1015 7.30005 37.3115C7.70005 37.5915 7.61004 38.6715 7.92004 39.1215C8.24004 39.5915 8.93004 40.0915 9.42004 40.3615C9.93004 40.6415 10.62 40.6915 11.28 40.7615C10.99 40.3015 10.97 39.6815 10.79 39.0815C10.68 38.7315 10.5301 38.4215 10.4401 38.0615C10.0301 36.5415 10.07 34.5015 9.78003 32.9315C8.43003 32.8915 7.8401 33.3015 6.6001 33.5915ZM63.6801 37.3515C62.7801 37.0615 62.1301 36.7515 61.3401 36.4215C60.5401 36.0915 59.83 35.7515 59.04 35.5815C58.64 35.4915 58.1801 35.2015 57.7101 35.0515C57.2101 34.8915 56.57 34.6415 56.25 34.6515C55.89 34.6615 55.41 34.9415 55.01 35.0915C53.67 35.6115 52.5001 36.0415 51.3401 36.5915C51.2101 36.6415 51.4101 36.6415 51.4301 36.5915C52.0101 36.5315 52.24 36.9815 52.54 37.2515C52.98 37.6415 53.8501 37.7215 53.9501 38.1815C54.0001 38.4215 53.76 38.6615 53.91 38.8915C54.26 38.2815 54.39 37.4515 54.88 36.9915C55.15 37.0915 55.4101 37.2015 55.5901 37.3915C55.5001 37.7315 55.1601 38.0915 55.0601 38.3615C54.5701 39.7715 53.9 41.1615 53.51 42.6915C53.15 44.0915 52.4801 45.2715 52.4501 46.9315C53.1901 47.6215 54.54 48.2715 55.9 48.0815C56.07 48.0615 56.26 47.9115 56.52 47.8115C56.71 47.7415 56.9401 47.7515 57.0901 47.6815C57.3901 47.5415 57.71 47.2315 58.02 47.0215C59.01 46.3415 59.89 45.6515 60.76 44.9015C61.27 44.4615 61.6101 43.8515 62.0901 43.3115C62.4001 42.9515 62.8101 42.6815 63.1101 42.3415C63.4501 41.9515 63.8601 41.6215 64.0801 41.3215C64.2301 41.1315 64.26 40.8615 64.39 40.6615C64.91 39.8315 65.7301 39.1115 65.9801 38.1815C65.1301 38.0315 64.5001 37.6115 63.6801 37.3415M49 37.4815C49.21 37.6515 49.5401 37.7115 49.8401 37.7915C49.9701 37.5815 50.2201 37.4015 50.4601 37.2115C50.6601 37.0515 51.0301 36.8715 50.9901 36.7215C50.3801 37.0215 49.52 37.0715 49 37.4715M51.65 37.4815C51.4 37.7315 51.01 37.8415 50.9 38.2315C51.43 38.5315 52.1701 38.8515 52.7101 38.9815C52.8201 38.7615 52.89 38.5115 52.89 38.1815C52.4 38.0315 52.13 37.6415 51.65 37.4715M46.79 40.2715C46.94 39.5715 47.2901 38.9015 47.3601 38.1915C47.3601 38.1615 47.32 38.1415 47.27 38.1515C46.93 38.5115 46.1101 38.4515 45.9901 38.9515C45.9501 39.1115 46.0801 39.3315 46.1201 39.5215C46.2501 40.1015 46.39 40.9015 46.39 41.6015C46.69 41.2515 46.68 40.7715 46.79 40.2715ZM50.5 38.8115C50.35 38.7515 50.16 38.7815 50.01 38.7215C49.47 38.5115 49.0901 38.0515 48.4601 38.1415C47.9001 39.8315 47.5001 41.6915 47.0901 43.5315C48.2601 44.3915 50.0401 44.6515 51.6901 45.0315C51.8001 44.2515 52.3001 43.6415 52.2201 42.8215C52.3001 42.9115 52.4001 42.8515 52.4401 42.7815C52.7401 41.9015 52.9801 40.9615 53.3201 40.1315C52.4801 39.7215 51.4901 39.1715 50.4901 38.8015M66.1101 40.0915C65.8601 40.4815 65.64 40.7415 65.4 41.0615C65.26 41.2515 65.2201 41.5115 65.0901 41.6815C64.9101 41.9315 64.5801 42.1515 64.3401 42.4315C64.1001 42.7015 63.9201 43.0615 63.6801 43.3115C63.3201 43.7015 62.8201 44.0015 62.4901 44.4215C61.7201 45.3715 60.88 46.2415 60.01 46.9015C59.75 47.1015 59.4501 47.2315 59.2101 47.4315C59.3901 47.6115 59.5101 48.3315 59.8701 48.4015C60.0701 48.4415 60.5601 48.1215 60.8401 48.0015C63.0701 47.0415 65.5701 45.9715 67.5601 45.0815C67.3001 42.9915 67.2901 40.6615 66.8101 38.8015C66.6701 39.3115 66.3901 39.6415 66.1001 40.0815M40.64 44.8215C40.24 46.0315 40.0501 47.4415 39.3601 48.3615C39.7101 48.1215 40.1 48.1915 40.51 48.2315C42.56 48.4415 45.25 48.5715 46.79 47.8315C47.13 46.4415 46.2901 45.2815 45.6001 44.5115C43.9601 44.6315 42.22 44.6315 40.65 44.8215M63.3201 50.1315C63.6401 50.2115 63.96 50.4115 64.25 50.4415C64.35 50.4415 64.5101 50.3615 64.6001 50.3515C65.2501 50.3315 65.95 50.5815 66.63 50.5715C67.03 50.5715 67.5401 50.5515 67.8201 50.4815C68.5201 50.3215 69.1301 50.1915 69.3201 49.6015C69.5501 47.7915 68.2301 47.7015 67.6001 46.8115C67.5501 46.6215 67.7 46.2315 67.51 46.1915C65.25 47.1915 62.8901 48.0815 60.7001 49.1515C61.3701 49.5815 62.3401 49.9015 63.3101 50.1215M56.6001 48.8515C55.4201 49.1515 53.9901 48.7215 53.1101 48.3215C52.6801 48.1215 52.32 47.7015 51.92 47.6115C51.4 49.2015 49.7601 49.9015 50.0601 52.1615C50.6201 51.7815 51.0301 51.2515 51.4301 50.7015C51.7201 50.6015 52.1701 50.6515 52.3101 50.8315C52.4601 52.1615 52.52 53.6015 53.15 54.4615C53.97 53.8315 53.3801 52.0315 53.6801 51.0115C54.1101 50.8715 54.5 51.0915 54.65 51.3615C54.65 51.8315 54.6101 52.3115 54.6101 52.9515C54.6101 53.4615 54.7901 54.2915 55.2301 54.3215C55.6101 54.3415 55.8901 53.7615 55.9401 53.3915C56.0401 52.5115 55.6301 51.3815 56.1201 50.7415C56.5701 50.7115 56.82 50.8715 57 51.0915C57.07 52.0115 56.6801 53.3515 57.3501 53.7415C57.4901 52.9115 57.78 52.0715 57.66 51.0015C58.03 50.7515 58.43 50.9515 58.63 51.2215C58.72 52.0715 58.82 52.9215 59.25 53.4315C59.42 53.2915 59.5 53.0615 59.65 52.9015C59.76 50.9415 59.3501 49.1515 58.4601 47.9515C57.7801 48.2215 57.2701 48.6615 56.6001 48.8315M41.0901 51.3715C40.7201 50.4415 39.7301 49.6615 39.1001 49.0715H39.01C37.7 50.3515 34.29 50.5015 32.38 49.6415C31.88 50.1315 31.0701 50.5415 30.6101 51.1415C30.4001 51.4215 30.05 52.0515 30.17 52.4215C30.27 52.7615 30.7701 52.8315 31.2301 52.7715C31.9401 52.6815 32.26 52.1715 33 52.3315C33.67 53.2815 34.03 54.5415 35.39 54.8115C35.67 53.9915 35.0201 53.3615 34.9901 52.5615C36.6701 51.6815 35.82 54.6915 37.42 54.4615C37.88 53.8015 37.2101 53.0415 37.1101 52.3815C37.2101 52.1015 37.6301 52.1515 37.9501 52.2015C38.4501 52.6915 38.5001 53.8615 39.3201 53.8815C39.5401 53.2615 39.3201 52.6015 39.1901 51.9815C39.3701 51.8515 39.6701 51.8515 39.9901 51.8515C40.5101 52.2415 40.3801 53.2815 41.2301 53.3515C41.5201 52.6815 41.3301 51.9515 41.1001 51.3615" fill="#65B7EC"/>
<path d="M32.38 49.6415L29.42 38.1015L24.78 40.5815C24.78 40.5815 16.02 42.8215 12.75 42.0815C12.46 41.9415 12.18 41.6715 11.91 41.5915C11.46 41.4615 10.81 41.4815 10.27 41.3715C9.23002 41.1615 8.48004 40.6115 7.79004 39.9615C7.27004 39.4615 6.6501 38.9715 6.6001 37.9715C5.8201 37.7315 4.85012 37.8115 4.12012 37.3515C3.89012 37.2015 3.18006 36.5115 3.06006 36.2915C2.84006 35.8715 2.99 35.3715 2.75 34.9215C3.02 34.3415 3.25006 33.7315 3.81006 33.4215C4.41006 33.0915 5.32011 32.9815 6.11011 32.8015C6.49011 32.7215 6.88001 32.6015 7.26001 32.4915C7.65001 32.3815 8.09003 32.2315 8.41003 32.1815C8.94003 32.1115 9.37012 32.2415 9.87012 32.1415C10.3601 32.0415 10.8501 31.6815 11.3701 31.5215C11.9401 31.3515 12.5101 31.2715 13.0901 31.1215C13.3001 31.0715 13.4901 30.9115 13.7101 30.8515C14.4401 30.6715 15.2801 30.6215 16.1001 30.5415C17.2401 30.4315 18.12 30.1415 19.42 30.1915C19.71 29.9615 19.5601 29.3015 19.7301 28.9515C19.2001 27.9315 18.61 26.9815 18.54 25.5915C18.42 23.2515 18.52 21.3815 19.03 19.4015C19.52 17.4815 20.1201 16.0015 21.1101 14.4915C21.5501 13.8215 22.06 13.3615 22.66 12.8115C22.91 12.5815 23.1301 12.2915 23.3701 12.1015C23.6201 11.9015 23.98 11.7415 24.3 11.5315C25.09 11.0015 26.2601 10.3315 27.3501 10.1215C28.1701 9.96152 29.16 9.94152 30.05 9.94152C32.21 9.94152 34.4801 10.2815 36.2401 11.0015C39.3801 12.2715 41.9001 14.1915 42.9601 17.5915C43.0801 15.5915 42.77 13.1315 42.78 10.9115C42.78 9.91152 42.75 9.00152 42.65 8.17152C42.62 7.95152 42.6501 7.69152 42.6101 7.51152C42.5501 7.26152 42.3501 7.24152 42.4301 6.98152C42.7401 6.72152 43.1201 6.88152 43.3601 6.98152C43.6801 7.11152 43.89 7.42152 44.16 7.56152C44.53 7.75152 44.9701 7.81152 45.3501 7.96152C45.9001 8.17152 46.4301 8.42152 46.9901 8.62152C48.6401 9.23152 50.4601 9.70152 52.1201 10.3015C52.9501 9.62152 53.7501 8.89152 54.7301 8.35152C55.3001 7.74152 56.0901 7.40152 56.8101 6.94152C58.1701 6.07152 59.5701 5.02152 60.9701 4.11152C61.6701 3.65152 62.36 3.09152 63.14 2.78152C63.43 2.67152 64.02 2.87152 64.16 3.04152C64.4 3.36152 64.44 4.49152 64.51 5.03152C64.61 5.71152 64.6901 6.41152 64.8201 7.02152C64.8601 7.21152 65 7.41152 65.04 7.59152C65.5 9.49152 65.5801 11.7215 66.0601 13.4315C68.1901 14.1215 70.1 14.9315 72.29 15.6815C73.85 16.2215 75.1901 16.9315 76.7101 17.6315C77.1501 17.8315 78.01 18.0515 78.04 18.4315C78.06 18.7915 76.93 19.5415 76.54 19.8015C74.23 21.3615 72.34 23.2315 70.17 24.8415C70.29 28.3915 70.47 32.5315 70.52 36.2915C70.53 37.2115 70.43 38.1915 70.52 38.9915C70.56 39.3415 70.82 39.7315 70.39 39.9615C69.54 39.8915 68.82 39.2915 67.91 39.1215M32.38 49.6415C34.29 50.5015 37.7 50.3515 39.01 49.0715H39.1001C39.7301 49.6615 40.7201 50.4415 41.0901 51.3715L41.1001 51.3615C41.3301 51.9515 41.5201 52.6815 41.2301 53.3515C40.3801 53.2815 40.5101 52.2415 39.9901 51.8515C39.6701 51.8515 39.3701 51.8515 39.1901 51.9815C39.3201 52.6015 39.5401 53.2615 39.3201 53.8815C38.5001 53.8615 38.4501 52.6915 37.9501 52.2015C37.6301 52.1515 37.2101 52.1015 37.1101 52.3815C37.2101 53.0415 37.88 53.8015 37.42 54.4615C35.82 54.6915 36.6701 51.6815 34.9901 52.5615C35.0201 53.3615 35.67 53.9915 35.39 54.8115C34.03 54.5415 33.67 53.2815 33 52.3315C32.26 52.1715 31.9401 52.6815 31.2301 52.7715C30.7701 52.8315 30.27 52.7615 30.17 52.4215C30.05 52.0515 30.4001 51.4215 30.6101 51.1415C31.0701 50.5415 31.88 50.1315 32.38 49.6415ZM61.25 5.08152C60.69 5.47152 60.1401 5.87152 59.5701 6.27152C58.1401 7.27152 56.51 8.27152 55.15 9.23152C54.86 9.44152 54.5401 9.66152 54.2201 9.89152C53.8001 10.2115 52.84 11.2415 52.5 11.2615C52.24 11.2715 52.04 11.1215 51.79 11.0415C50.24 10.5115 48.6501 10.0215 47.1901 9.54152C45.9601 9.13152 44.75 8.56152 43.65 8.12152C43.93 11.0315 43.97 14.1915 44.05 17.2715C44.09 18.6715 44.1501 20.0415 44.0901 21.3815C44.0801 21.6415 44.18 21.9915 44.13 22.2615C44.1 22.4315 43.9101 22.5715 43.8601 22.7915C43.7101 23.5215 43.92 24.4415 43.9 25.3515C43.9 25.7715 43.8401 26.2315 43.8101 26.6815C43.7801 27.1915 43.6401 27.7415 43.7201 28.0915C43.7801 28.3215 44.0201 28.5815 44.1201 28.8015C44.2501 29.0815 44.3701 29.3215 44.4301 29.6415C44.5401 30.2315 44.7201 31.1915 44.6101 31.7615C44.5701 31.9415 44.3501 32.1415 44.3401 32.3815C44.3401 32.6715 44.67 33.0915 44.78 33.4015C45.25 34.7215 45.4201 36.5615 45.8401 37.7815C47.8301 36.9315 49.87 36.1215 51.9 35.3015C52.07 35.3015 52.04 35.0915 52.16 35.0415C52.44 35.2415 52.69 34.7815 53.13 34.8615C53.85 34.4915 55.19 33.7315 56.14 33.7515C56.64 33.7615 56.81 34.0415 57.16 34.1515C57.37 34.2215 57.6001 34.1815 57.8201 34.2415C58.1701 34.3415 58.51 34.5315 58.88 34.6415C61.46 35.3915 63.9701 36.7115 66.3501 37.5115C66.8001 37.0815 67.57 37.5815 67.63 38.0915C68.29 38.2715 68.7601 38.6415 69.4401 38.8015C69.3401 34.4415 69.2901 29.9715 69.0901 25.6315C68.8801 25.4115 68.4001 25.3415 68.4701 24.9215C68.4901 24.8115 69.2801 24.1415 69.3501 24.0815C69.5601 23.9215 69.8401 23.8415 70.0601 23.6815C70.3601 23.4615 70.5701 23.1215 70.8101 22.9315C71.0501 22.7415 71.3601 22.6215 71.6101 22.4015C71.8401 22.1915 72.02 21.8915 72.27 21.6915C72.95 21.1515 73.64 20.6215 74.3 20.0515C75.01 19.4515 75.84 19.0515 76.42 18.4615C74.02 17.3115 71.39 16.2715 68.77 15.2815C67.76 14.9015 66.6401 14.3115 65.4501 14.4015C64.9301 14.1715 64.9701 13.8215 64.8301 13.2515C64.6901 12.6715 64.5701 12.0415 64.4801 11.3915C64.1001 8.83152 63.5401 6.21152 63.2401 3.87152H63.15C62.58 4.29152 61.8401 4.61152 61.2001 5.06152L61.25 5.08152ZM20.17 32.6615C20.78 33.1115 21.71 33.3215 22.65 33.3715C23.77 33.4315 25 33.5015 26.05 33.5015C26.76 33.5015 27.46 33.3715 28.26 33.3715C30.51 33.3715 32.9701 33.4115 35.3301 33.4115C38.3801 33.4115 41.2901 33.3115 43.1101 32.2215C43.0901 31.8215 43.41 31.8715 43.51 31.5615C43.6 31.2515 43.46 30.7915 43.42 30.4515C43.37 30.0415 43.37 29.6315 43.29 29.3415C43.13 28.8115 42.69 28.4515 42.63 28.0115C42.52 27.2415 42.7701 26.4315 42.8101 25.8015C42.8501 25.1515 42.78 24.4415 42.77 23.7715C42.75 23.0215 42.82 22.2515 42.77 21.5615C42.66 20.0015 42.2101 18.6715 41.7101 17.3215C40.8801 15.0815 39.5301 13.8315 37.6901 12.7215C37.0201 12.3215 36.2701 11.9415 35.4801 11.6615C34.0501 11.1615 31.6601 10.6315 29.6901 10.8615C29.0201 10.9415 28.23 10.9015 27.52 11.0415C26.5 11.2415 25.5001 11.8815 24.8201 12.3715C24.5301 12.5815 24.2001 12.7215 23.9801 12.9015C23.7901 13.0615 23.6501 13.3215 23.4501 13.5215C23.2401 13.7215 22.96 13.8515 22.79 14.0515C22.35 14.5415 21.94 15.2415 21.55 15.8615C20.05 18.2415 19.1601 21.8115 19.6101 25.6815C19.7201 26.6715 20.0201 27.4715 20.4501 28.2915C20.5301 28.4315 20.9801 28.2015 20.9401 28.4715C20.7701 29.7515 20.1401 31.1715 20.1901 32.6715L20.17 32.6615ZM6.6001 33.5915C5.6501 33.8115 4.37011 33.9415 3.99011 34.5615C3.51011 35.3415 3.93011 36.4915 4.61011 36.8615C4.88011 37.0015 5.43001 37.0815 5.89001 37.1315C6.36001 37.1815 7.02005 37.1015 7.30005 37.3115C7.70005 37.5915 7.61004 38.6715 7.92004 39.1215C8.24004 39.5915 8.93004 40.0915 9.42004 40.3615C9.93004 40.6415 10.62 40.6915 11.28 40.7615C10.99 40.3015 10.97 39.6815 10.79 39.0815C10.68 38.7315 10.5301 38.4215 10.4401 38.0615C10.0301 36.5415 10.07 34.5015 9.78003 32.9315C8.43003 32.8915 7.8401 33.3015 6.6001 33.5915ZM63.6801 37.3515C62.7801 37.0615 62.1301 36.7515 61.3401 36.4215C60.5401 36.0915 59.83 35.7515 59.04 35.5815C58.64 35.4915 58.1801 35.2015 57.7101 35.0515C57.2101 34.8915 56.57 34.6415 56.25 34.6515C55.89 34.6615 55.41 34.9415 55.01 35.0915C53.67 35.6115 52.5001 36.0415 51.3401 36.5915C51.2101 36.6415 51.4101 36.6415 51.4301 36.5915C52.0101 36.5315 52.24 36.9815 52.54 37.2515C52.98 37.6415 53.8501 37.7215 53.9501 38.1815C54.0001 38.4215 53.76 38.6615 53.91 38.8915C54.26 38.2815 54.39 37.4515 54.88 36.9915C55.15 37.0915 55.4101 37.2015 55.5901 37.3915C55.5001 37.7315 55.1601 38.0915 55.0601 38.3615C54.5701 39.7715 53.9 41.1615 53.51 42.6915C53.15 44.0915 52.4801 45.2715 52.4501 46.9315C53.1901 47.6215 54.54 48.2715 55.9 48.0815C56.07 48.0615 56.26 47.9115 56.52 47.8115C56.71 47.7415 56.9401 47.7515 57.0901 47.6815C57.3901 47.5415 57.71 47.2315 58.02 47.0215C59.01 46.3415 59.89 45.6515 60.76 44.9015C61.27 44.4615 61.6101 43.8515 62.0901 43.3115C62.4001 42.9515 62.8101 42.6815 63.1101 42.3415C63.4501 41.9515 63.8601 41.6215 64.0801 41.3215C64.2301 41.1315 64.26 40.8615 64.39 40.6615C64.91 39.8315 65.7301 39.1115 65.9801 38.1815C65.1301 38.0315 64.5001 37.6115 63.6801 37.3415V37.3515ZM49 37.4815C49.21 37.6515 49.5401 37.7115 49.8401 37.7915C49.9701 37.5815 50.2201 37.4015 50.4601 37.2115C50.6601 37.0515 51.0301 36.8715 50.9901 36.7215C50.3801 37.0215 49.52 37.0715 49 37.4715V37.4815ZM51.65 37.4815C51.4 37.7315 51.01 37.8415 50.9 38.2315C51.43 38.5315 52.1701 38.8515 52.7101 38.9815C52.8201 38.7615 52.89 38.5115 52.89 38.1815C52.4 38.0315 52.13 37.6415 51.65 37.4715V37.4815ZM46.79 40.2715C46.94 39.5715 47.2901 38.9015 47.3601 38.1915C47.3601 38.1615 47.32 38.1415 47.27 38.1515C46.93 38.5115 46.1101 38.4515 45.9901 38.9515C45.9501 39.1115 46.0801 39.3315 46.1201 39.5215C46.2501 40.1015 46.39 40.9015 46.39 41.6015C46.69 41.2515 46.68 40.7715 46.79 40.2715ZM50.5 38.8115C50.35 38.7515 50.16 38.7815 50.01 38.7215C49.47 38.5115 49.0901 38.0515 48.4601 38.1415C47.9001 39.8315 47.5001 41.6915 47.0901 43.5315C48.2601 44.3915 50.0401 44.6515 51.6901 45.0315C51.8001 44.2515 52.3001 43.6415 52.2201 42.8215C52.3001 42.9115 52.4001 42.8515 52.4401 42.7815C52.7401 41.9015 52.9801 40.9615 53.3201 40.1315C52.4801 39.7215 51.4901 39.1715 50.4901 38.8015L50.5 38.8115ZM66.1101 40.0915C65.8601 40.4815 65.64 40.7415 65.4 41.0615C65.26 41.2515 65.2201 41.5115 65.0901 41.6815C64.9101 41.9315 64.5801 42.1515 64.3401 42.4315C64.1001 42.7015 63.9201 43.0615 63.6801 43.3115C63.3201 43.7015 62.8201 44.0015 62.4901 44.4215C61.7201 45.3715 60.88 46.2415 60.01 46.9015C59.75 47.1015 59.4501 47.2315 59.2101 47.4315C59.3901 47.6115 59.5101 48.3315 59.8701 48.4015C60.0701 48.4415 60.5601 48.1215 60.8401 48.0015C63.0701 47.0415 65.5701 45.9715 67.5601 45.0815C67.3001 42.9915 67.2901 40.6615 66.8101 38.8015C66.6701 39.3115 66.3901 39.6415 66.1001 40.0815L66.1101 40.0915ZM40.64 44.8215C40.24 46.0315 40.0501 47.4415 39.3601 48.3615C39.7101 48.1215 40.1 48.1915 40.51 48.2315C42.56 48.4415 45.25 48.5715 46.79 47.8315C47.13 46.4415 46.2901 45.2815 45.6001 44.5115C43.9601 44.6315 42.22 44.6315 40.65 44.8215H40.64ZM63.3201 50.1315C63.6401 50.2115 63.96 50.4115 64.25 50.4415C64.35 50.4415 64.5101 50.3615 64.6001 50.3515C65.2501 50.3315 65.95 50.5815 66.63 50.5715C67.03 50.5715 67.5401 50.5515 67.8201 50.4815C68.5201 50.3215 69.1301 50.1915 69.3201 49.6015C69.5501 47.7915 68.2301 47.7015 67.6001 46.8115C67.5501 46.6215 67.7 46.2315 67.51 46.1915C65.25 47.1915 62.8901 48.0815 60.7001 49.1515C61.3701 49.5815 62.3401 49.9015 63.3101 50.1215L63.3201 50.1315ZM56.6001 48.8515C55.4201 49.1515 53.9901 48.7215 53.1101 48.3215C52.6801 48.1215 52.32 47.7015 51.92 47.6115C51.4 49.2015 49.7601 49.9015 50.0601 52.1615C50.6201 51.7815 51.0301 51.2515 51.4301 50.7015C51.7201 50.6015 52.1701 50.6515 52.3101 50.8315C52.4601 52.1615 52.52 53.6015 53.15 54.4615C53.97 53.8315 53.3801 52.0315 53.6801 51.0115C54.1101 50.8715 54.5 51.0915 54.65 51.3615C54.65 51.8315 54.6101 52.3115 54.6101 52.9515C54.6101 53.4615 54.7901 54.2915 55.2301 54.3215C55.6101 54.3415 55.8901 53.7615 55.9401 53.3915C56.0401 52.5115 55.6301 51.3815 56.1201 50.7415C56.5701 50.7115 56.82 50.8715 57 51.0915C57.07 52.0115 56.6801 53.3515 57.3501 53.7415C57.4901 52.9115 57.78 52.0715 57.66 51.0015C58.03 50.7515 58.43 50.9515 58.63 51.2215C58.72 52.0715 58.82 52.9215 59.25 53.4315C59.42 53.2915 59.5 53.0615 59.65 52.9015C59.76 50.9415 59.3501 49.1515 58.4601 47.9515C57.7801 48.2215 57.2701 48.6615 56.6001 48.8315V48.8515Z" stroke="#65B7EC" stroke-width="5.5" stroke-linecap="round" stroke-linejoin="round"/>
<path fill-rule="evenodd" clip-rule="evenodd" d="M63.1902 3.88281H63.2802C63.5802 6.22281 64.1401 8.83281 64.5201 11.4028C64.6201 12.0528 64.7302 12.6828 64.8702 13.2628C65.0102 13.8328 64.9702 14.1828 65.4902 14.4128C66.6802 14.3328 67.8002 14.9128 68.8102 15.2928C71.4302 16.2828 74.0602 17.3328 76.4602 18.4728C75.8802 19.0628 75.0502 19.4628 74.3402 20.0628C73.6802 20.6228 72.9902 21.1528 72.3102 21.7028C72.0602 21.9028 71.8801 22.2028 71.6501 22.4128C71.4101 22.6328 71.1002 22.7528 70.8502 22.9428C70.6002 23.1428 70.4002 23.4728 70.1002 23.6928C67.9002 25.3128 69.2502 28.6728 69.3202 31.1128C69.3902 33.6828 69.4302 36.2428 69.4902 38.8128C69.4902 38.7628 67.8802 38.1728 67.7202 38.1228C67.0902 37.9128 66.5401 37.5528 65.9001 37.3528C65.1101 37.1128 64.3302 36.7428 63.5702 36.4228C62.0402 35.7828 60.5202 35.1228 58.9302 34.6528C58.5602 34.5428 58.2202 34.3528 57.8702 34.2528C57.6502 34.1928 57.4202 34.2328 57.2102 34.1628C56.8602 34.0528 56.6902 33.7728 56.1902 33.7628C55.2402 33.7428 53.9002 34.4928 53.1802 34.8728C52.7402 34.7928 52.4902 35.2528 52.2102 35.0528C52.0902 35.1128 52.1202 35.3128 51.9502 35.3128C50.0602 36.0728 47.9702 37.4428 45.9302 37.6628C45.2502 37.7328 46.1502 31.4228 45.9302 30.7628C45.4302 29.2428 44.6402 28.5028 44.7002 26.7528C44.7502 25.3128 45.1402 23.7928 45.0702 22.4128C44.9502 20.1028 44.0902 17.9728 44.0402 15.6028C43.9802 13.1028 43.9202 10.6028 43.6802 8.11281C44.7802 8.54281 45.9902 9.12281 47.2202 9.53281C48.6802 10.0128 50.2702 10.5028 51.8202 11.0328C52.0702 11.1228 52.2702 11.2628 52.5302 11.2528C52.8802 11.2328 53.8301 10.2028 54.2501 9.88281C54.5701 9.64281 54.8902 9.42281 55.1802 9.22281C56.5502 8.25281 58.1702 7.26281 59.6002 6.26281C60.1702 5.86281 60.7202 5.46281 61.2802 5.07281C61.9202 4.62281 62.6502 4.30281 63.2302 3.88281" fill="#F6ED36"/>
<path fill-rule="evenodd" clip-rule="evenodd" d="M20.9299 28.4625C20.9699 28.2025 20.5299 28.4225 20.4399 28.2825C20.0199 27.4625 19.71 26.6625 19.6 25.6725C19.15 21.8025 20.0399 18.2325 21.5399 15.8525C21.9299 15.2325 22.3399 14.5325 22.7799 14.0425C22.9599 13.8425 23.2399 13.7125 23.4399 13.5125C23.6399 13.3125 23.79 13.0525 23.97 12.8925C24.19 12.7125 24.5199 12.5725 24.8099 12.3625C25.4799 11.8725 26.4899 11.2425 27.5099 11.0325C28.2199 10.8925 28.9999 10.9325 29.6799 10.8525C31.6499 10.6125 34.04 11.1425 35.47 11.6525C36.27 11.9325 37.0099 12.3125 37.6799 12.7125C39.5199 13.8125 40.8699 15.0625 41.6999 17.3125C42.1999 18.6625 42.6499 20.0025 42.7599 21.5525C42.8099 22.2425 42.7399 23.0125 42.7599 23.7625C42.7799 24.4325 42.8399 25.1525 42.7999 25.7925C42.7599 26.4225 42.51 27.2325 42.62 28.0025C42.68 28.4425 43.1299 28.7925 43.2799 29.3325C43.3599 29.6125 43.3599 30.0225 43.4099 30.4425C43.4499 30.7725 43.5899 31.2325 43.4999 31.5525C43.4099 31.8625 43.09 31.8125 43.1 32.2125C41.28 33.3125 38.3699 33.4025 35.3199 33.4025C32.9599 33.4025 30.4999 33.3625 28.2499 33.3625C27.4499 33.3625 26.7499 33.4925 26.0399 33.4925C24.9799 33.4925 23.7599 33.4225 22.6399 33.3625C21.7099 33.3125 20.7799 33.1025 20.1599 32.6525C20.1099 31.1525 20.7399 29.7325 20.9099 28.4525M36.4399 19.0025C35.2199 17.7025 33.2799 16.0625 30.6499 16.5725C29.9799 16.7025 29.2899 16.5325 28.6599 16.6625C28.0899 16.7725 27.44 17.0625 26.85 17.2825C25.9 17.6425 25.0699 18.2925 24.5499 18.9625C23.3599 20.4925 22.8999 23.2325 23.1799 25.6825C23.3999 27.5625 24.38 29.5025 25.74 30.5425C26.59 31.1925 27.7899 31.6725 29.0099 31.8725C29.2099 31.9025 29.4 32.0325 29.58 32.0525C30.13 32.1125 30.9199 32.0825 31.5299 31.9625C31.9399 31.8825 32.3299 31.6325 32.7699 31.4725C33.0699 31.3625 33.3999 31.3525 33.6499 31.2525C34.6499 30.8525 35.8599 29.9225 36.3899 29.2225C36.5099 29.0625 36.6 28.8025 36.74 28.6025C36.88 28.4125 37.0699 28.2625 37.1799 28.0725C37.7799 27.0925 38.01 26.0625 38.11 24.5825C38.27 24.2625 38.9299 24.2825 38.8199 23.7825C38.7599 23.4925 38.4599 23.5725 38.1599 23.4325C38.1899 21.4425 37.3799 20.0225 36.4399 19.0125" fill="#F6ED36"/>
<path fill-rule="evenodd" clip-rule="evenodd" d="M46.3902 41.5906C46.3902 40.8906 46.2602 40.0906 46.1302 39.5106C46.0902 39.3206 45.9602 39.0906 46.0002 38.9406C46.1202 38.4506 46.9403 38.5106 47.2803 38.1406C47.3303 38.1406 47.3603 38.1406 47.3703 38.1806C47.3003 38.8906 46.9503 39.5606 46.8003 40.2606C46.6903 40.7606 46.7003 41.2406 46.4003 41.5906" fill="#F6ED36"/>
<path d="M46.3902 41.5906C46.3902 40.8906 46.2602 40.0906 46.1302 39.5106C46.0902 39.3206 45.9602 39.0906 46.0002 38.9406C46.1202 38.4506 46.9403 38.5106 47.2803 38.1406C47.3303 38.1406 47.3603 38.1406 47.3703 38.1806C47.3003 38.8906 46.9503 39.5606 46.8003 40.2606C46.6903 40.7606 46.7003 41.2406 46.4003 41.5906H46.3902Z" stroke="#65B7EC" stroke-width="1.29" stroke-miterlimit="10"/>
<path fill-rule="evenodd" clip-rule="evenodd" d="M66.8202 38.8125C67.3002 40.6725 67.3102 43.0025 67.5702 45.0925C65.5802 45.9825 63.0802 47.0525 60.8502 48.0125C60.5702 48.1325 60.0701 48.4525 59.8801 48.4125C59.5101 48.3325 59.3902 47.6225 59.2202 47.4425C59.4602 47.2425 59.7601 47.1125 60.0201 46.9125C60.8901 46.2525 61.7301 45.3825 62.5001 44.4325C62.8401 44.0125 63.3302 43.7125 63.6902 43.3225C63.9302 43.0625 64.1102 42.7125 64.3502 42.4425C64.5902 42.1625 64.9202 41.9425 65.1002 41.6925C65.2302 41.5225 65.2702 41.2625 65.4102 41.0725C65.6502 40.7525 65.8602 40.4925 66.1202 40.1025C66.4002 39.6625 66.6902 39.3325 66.8302 38.8225" fill="#F6ED36"/>
<path d="M66.8202 38.8125C67.3002 40.6725 67.3102 43.0025 67.5702 45.0925C65.5802 45.9825 63.0802 47.0525 60.8502 48.0125C60.5702 48.1325 60.0701 48.4525 59.8801 48.4125C59.5101 48.3325 59.3902 47.6225 59.2202 47.4425C59.4602 47.2425 59.7601 47.1125 60.0201 46.9125C60.8901 46.2525 61.7301 45.3825 62.5001 44.4325C62.8401 44.0125 63.3302 43.7125 63.6902 43.3225C63.9302 43.0625 64.1102 42.7125 64.3502 42.4425C64.5902 42.1625 64.9202 41.9425 65.1002 41.6925C65.2302 41.5225 65.2702 41.2625 65.4102 41.0725C65.6502 40.7525 65.8602 40.4925 66.1202 40.1025C66.4002 39.6625 66.6902 39.3325 66.8302 38.8225L66.8202 38.8125Z" stroke="#65B7EC" stroke-width="1.29" stroke-linecap="round" stroke-linejoin="round"/>
<path fill-rule="evenodd" clip-rule="evenodd" d="M45.5999 44.5117C46.2999 45.2817 47.1398 46.4417 46.7898 47.8317C45.2498 48.5717 42.5598 48.4417 40.5098 48.2317C40.0998 48.1917 39.7099 48.1317 39.3599 48.3617C40.0499 47.4417 40.2398 46.0317 40.6398 44.8217C42.2098 44.6317 43.9598 44.6317 45.5898 44.5117" fill="#F6ED36"/>
<path fill-rule="evenodd" clip-rule="evenodd" d="M65.9803 38.192C65.7203 39.112 64.9102 39.832 64.3902 40.672C64.2602 40.882 64.2302 41.142 64.0802 41.332C63.8502 41.632 63.4503 41.962 63.1103 42.352C62.8103 42.692 62.4003 42.962 62.0903 43.322C61.6203 43.862 61.2702 44.472 60.7602 44.912C59.8902 45.672 59.0102 46.352 58.0202 47.032C57.7102 47.242 57.4003 47.552 57.0903 47.692C56.9303 47.762 56.7002 47.752 56.5202 47.822C56.2602 47.912 56.0802 48.062 55.9002 48.092C54.5402 48.282 53.1902 47.632 52.4502 46.942C52.4802 45.282 53.1502 44.092 53.5102 42.702C53.9002 41.172 54.5702 39.782 55.0602 38.372C55.1602 38.092 55.5003 37.742 55.5903 37.402C55.4103 37.212 55.1502 37.102 54.8802 37.002C54.3902 37.462 54.2602 38.292 53.9102 38.902C53.7702 38.672 54.0102 38.432 53.9502 38.192C53.8402 37.742 52.9702 37.652 52.5402 37.262C52.2402 36.992 52.0102 36.542 51.4302 36.602C51.4102 36.652 51.2203 36.652 51.3403 36.602C52.5003 36.052 53.5103 35.382 54.8503 34.862C55.2403 34.712 55.7303 34.432 56.0903 34.422C56.4103 34.412 57.2103 34.902 57.7103 35.062C58.1803 35.212 58.6402 35.502 59.0402 35.592C59.8302 35.762 60.5303 36.102 61.3403 36.432C62.1403 36.762 62.7802 37.062 63.6802 37.362C64.5002 37.632 65.1303 38.052 65.9803 38.202" fill="#F6ED36"/>
<path d="M65.9803 38.192C65.7203 39.112 64.9102 39.832 64.3902 40.672C64.2602 40.882 64.2302 41.142 64.0802 41.332C63.8502 41.632 63.4503 41.962 63.1103 42.352C62.8103 42.692 62.4003 42.962 62.0903 43.322C61.6203 43.862 61.2702 44.472 60.7602 44.912C59.8902 45.672 59.0102 46.352 58.0202 47.032C57.7102 47.242 57.4003 47.552 57.0903 47.692C56.9303 47.762 56.7002 47.752 56.5202 47.822C56.2602 47.912 56.0802 48.062 55.9002 48.092C54.5402 48.282 53.1902 47.632 52.4502 46.942C52.4802 45.282 53.1502 44.092 53.5102 42.702C53.9002 41.172 54.5702 39.782 55.0602 38.372C55.1602 38.092 55.5003 37.742 55.5903 37.402C55.4103 37.212 55.1502 37.102 54.8802 37.002C54.3902 37.462 54.2602 38.292 53.9102 38.902C53.7702 38.672 54.0102 38.432 53.9502 38.192C53.8402 37.742 52.9702 37.652 52.5402 37.262C52.2402 36.992 52.0102 36.542 51.4302 36.602C51.4102 36.652 51.2203 36.652 51.3403 36.602C52.5003 36.052 53.5103 35.382 54.8503 34.862C55.2403 34.712 55.7303 34.432 56.0903 34.422C56.4103 34.412 57.2103 34.902 57.7103 35.062C58.1803 35.212 58.6402 35.502 59.0402 35.592C59.8302 35.762 60.5303 36.102 61.3403 36.432C62.1403 36.762 62.7802 37.062 63.6802 37.362C64.5002 37.632 65.1303 38.052 65.9803 38.202V38.192Z" stroke="#65B7EC" stroke-width="1.29" stroke-miterlimit="10"/>
<path fill-rule="evenodd" clip-rule="evenodd" d="M19.1599 30.9805C19.3999 31.4205 18.88 32.2505 19.12 32.9305C19.35 33.6105 20.8699 33.9205 21.6799 34.0805C22.7799 34.3005 24.1099 34.1305 25.3499 34.1705C28.0699 34.2605 30.3998 34.2105 33.2598 34.1305C34.5398 34.0905 35.8199 34.2205 37.0199 34.1705C39.4399 34.0705 41.7799 33.7905 43.5199 32.8905C44.0499 33.7205 44.0399 34.7705 44.3199 35.7205C44.6099 36.7105 44.7499 37.6605 44.8899 38.6805C45.0098 39.5005 45.2299 40.3005 45.3299 41.1605C45.4299 41.9705 45.5899 42.7905 45.6399 43.6405C44.1599 43.8805 42.4999 43.7305 40.9499 43.9505C41.3199 42.4205 41.2799 40.3605 41.3499 38.4205C41.2099 38.1205 40.7999 38.0805 40.3299 38.1105C40.1699 39.5505 40.3299 41.2605 40.0699 42.9305C39.8899 44.0805 39.2799 45.2205 39.0499 46.2905C39.0199 46.4605 39.0498 46.6205 39.0098 46.7805C38.8898 47.2005 38.3099 48.4105 37.99 48.7305C37.08 49.6305 34.9799 49.5305 33.3499 49.3005C31.6499 46.3505 31.1799 41.9605 30.2999 38.3405C30.0399 38.2305 29.7499 38.1505 29.4199 38.1205C29.2099 38.1405 29.3599 38.5305 29.1999 38.6105C27.8799 39.2905 26.3999 40.0805 24.7799 40.6005C23.8099 40.9105 22.9999 41.1405 21.7699 41.3105C20.9499 41.4205 20.1299 41.5905 19.2099 41.7505C18.7999 41.8205 18.3899 41.9505 18.0199 41.9705C17.6699 41.9905 17.2299 41.8405 17.1399 42.1005C15.4899 42.0705 13.8199 42.0605 12.8999 41.3005C13.0899 41.2905 13.1399 41.4205 13.3399 41.3905C13.1899 41.2105 12.9399 41.1405 12.8099 41.1705C12.7999 40.9205 12.55 40.9005 12.37 40.8205C11.55 39.1005 11.1999 36.8205 11.0399 34.5405C11.0099 34.0605 10.7599 33.5005 10.9099 33.0405C11.0499 32.6005 11.8699 32.3505 12.5499 32.1605C14.5899 31.5805 16.9399 31.3305 19.1799 31.0105M15.0499 41.7305C14.7699 41.7105 14.47 41.5705 14.12 41.5105C14.29 41.7905 14.6999 41.8105 15.0499 41.7305Z" fill="#F6ED36"/>
<path d="M19.1599 30.9805C19.3999 31.4205 18.88 32.2505 19.12 32.9305C19.35 33.6105 20.8699 33.9205 21.6799 34.0805C22.7799 34.3005 24.1099 34.1305 25.3499 34.1705C28.0699 34.2605 30.3998 34.2105 33.2598 34.1305C34.5398 34.0905 35.8199 34.2205 37.0199 34.1705C39.4399 34.0705 41.7799 33.7905 43.5199 32.8905C44.0499 33.7205 44.0399 34.7705 44.3199 35.7205C44.6099 36.7105 44.7499 37.6605 44.8899 38.6805C45.0099 39.5005 45.2299 40.3005 45.3299 41.1605C45.4299 41.9705 45.5899 42.7905 45.6399 43.6405C44.1599 43.8805 42.4999 43.7305 40.9499 43.9505C41.3199 42.4205 41.2799 40.3605 41.3499 38.4205C41.2099 38.1205 40.7999 38.0805 40.3299 38.1105C40.1699 39.5505 40.3299 41.2605 40.0699 42.9305C39.8899 44.0805 39.2799 45.2205 39.0499 46.2905C39.0199 46.4605 39.0498 46.6205 39.0098 46.7805C38.8898 47.2005 38.31 48.4105 37.99 48.7305C37.08 49.6305 34.9799 49.5305 33.3499 49.3005C31.6499 46.3505 31.1799 41.9605 30.2999 38.3405C30.0399 38.2305 29.7499 38.1505 29.4199 38.1205C29.2099 38.1405 29.3599 38.5305 29.1999 38.6105C27.8799 39.2905 26.3999 40.0805 24.7799 40.6005C23.8099 40.9105 22.9999 41.1405 21.7699 41.3105C20.9499 41.4205 20.1299 41.5905 19.2099 41.7505C18.7999 41.8205 18.3899 41.9505 18.0199 41.9705C17.6699 41.9905 17.2299 41.8405 17.1399 42.1005C15.4899 42.0705 13.8199 42.0605 12.8999 41.3005C13.0899 41.2905 13.1399 41.4205 13.3399 41.3905C13.1899 41.2105 12.9399 41.1405 12.8099 41.1705C12.7999 40.9205 12.55 40.9005 12.37 40.8205C11.55 39.1005 11.1999 36.8205 11.0399 34.5405C11.0099 34.0605 10.7599 33.5005 10.9099 33.0405C11.0499 32.6005 11.8699 32.3505 12.5499 32.1605C14.5899 31.5805 16.9399 31.3305 19.1799 31.0105L19.1599 30.9805ZM15.0499 41.7305C14.7699 41.7105 14.47 41.5705 14.12 41.5105C14.29 41.7905 14.6999 41.8105 15.0499 41.7305Z" stroke="#65B7EC" stroke-width="1.81" stroke-miterlimit="10"/>
<path fill-rule="evenodd" clip-rule="evenodd" d="M60.7202 49.1514C62.9102 48.0814 65.2702 47.1914 67.5302 46.1914C67.7202 46.2314 67.5702 46.6214 67.6202 46.8114C68.2502 47.6914 69.5802 47.7914 69.3402 49.6014C69.1502 50.1914 68.5302 50.3314 67.8402 50.4814C67.5502 50.5514 67.0401 50.5614 66.6501 50.5714C65.9701 50.5714 65.2702 50.3214 64.6202 50.3514C64.5202 50.3514 64.3601 50.4514 64.2701 50.4414C63.9801 50.4214 63.6702 50.2114 63.3402 50.1314C62.3702 49.9114 61.4002 49.5914 60.7302 49.1614" fill="#F6ED36"/>
<path d="M60.7202 49.1514C62.9102 48.0814 65.2702 47.1914 67.5302 46.1914C67.7202 46.2314 67.5702 46.6214 67.6202 46.8114C68.2502 47.6914 69.5802 47.7914 69.3402 49.6014C69.1502 50.1914 68.5302 50.3314 67.8402 50.4814C67.5502 50.5514 67.0401 50.5614 66.6501 50.5714C65.9701 50.5714 65.2702 50.3214 64.6202 50.3514C64.5202 50.3514 64.3601 50.4514 64.2701 50.4414C63.9801 50.4214 63.6702 50.2114 63.3402 50.1314C62.3702 49.9114 61.4002 49.5914 60.7302 49.1614L60.7202 49.1514Z" stroke="#65B7EC" stroke-width="1.29" stroke-miterlimit="10"/>
<path fill-rule="evenodd" clip-rule="evenodd" d="M56.3997 32.9527C54.9997 32.9527 53.4898 32.6727 52.0398 32.1327C51.1298 31.8027 50.6798 31.3827 50.0498 30.8027L49.8698 30.6327L49.6198 30.4127C49.0098 29.8627 48.4797 29.3827 48.0097 28.5427C47.9497 28.4227 47.8798 28.2927 47.8198 28.1627C47.7798 28.0827 47.7398 27.9927 47.6998 27.9127C47.4398 27.3927 47.3498 27.0827 47.2098 26.5127C46.9298 26.3827 46.8997 26.1027 46.8997 26.0027C46.8597 25.9527 46.8198 25.9027 46.7998 25.8427V25.8027L46.7797 25.7627C46.4997 24.2927 46.7598 22.4927 47.4798 20.9527L47.5998 20.6927C47.9998 19.8327 48.4098 18.9327 49.0898 18.3427C50.1998 17.3727 51.5498 16.5227 53.2198 15.7527L53.3398 15.7027L53.4698 15.7227C53.5598 15.7327 53.6498 15.7427 53.7398 15.7427C53.9598 15.7427 54.1298 15.6927 54.3298 15.6327C54.5098 15.5827 54.7098 15.5227 54.9598 15.4927C55.0998 15.4827 55.2397 15.4727 55.3997 15.4727C55.7597 15.4727 56.0998 15.5127 56.4198 15.5427C56.5498 15.5527 56.6798 15.5727 56.8098 15.5827C57.4498 15.6327 57.9397 15.7727 58.5197 15.9227L58.7898 15.9927C59.5998 16.2027 60.1398 16.3927 60.8198 16.8427L61.1397 17.0527C62.0897 17.6727 63.0698 18.3027 63.6898 19.3127C63.8398 19.5527 63.9698 19.8727 64.0998 20.1827L64.1998 20.4327C64.7798 21.7827 65.1098 22.9827 65.2098 24.1027C65.4898 27.4427 63.6398 30.7427 60.7998 31.9527C60.5698 32.0527 60.3198 32.1327 60.0698 32.2027C59.9098 32.2527 59.7398 32.3027 59.5798 32.3627C59.4898 32.3927 59.3898 32.4327 59.2898 32.4727C58.9698 32.5927 58.6398 32.7227 58.3198 32.7827C57.7198 32.9027 57.0898 32.9627 56.4398 32.9627" fill="#65B7EC"/>
<path d="M55.3603 15.8917C55.8403 15.8917 56.3103 15.9617 56.7303 16.0017C57.4303 16.0617 57.9502 16.2217 58.6302 16.4017C59.4302 16.6117 59.9102 16.7917 60.5302 17.2017C61.5202 17.8517 62.6302 18.5017 63.2702 19.5417C63.4402 19.8117 63.6002 20.2317 63.7602 20.6017C64.1802 21.5817 64.6203 22.8317 64.7303 24.1417C65.0103 27.4617 63.1403 30.4717 60.5703 31.5717C60.2103 31.7217 59.7702 31.8217 59.3802 31.9717C58.9902 32.1117 58.5603 32.2917 58.1903 32.3717C57.5903 32.4917 56.9902 32.5417 56.3902 32.5417C54.9002 32.5417 53.4402 32.2117 52.1802 31.7517C51.2702 31.4217 50.8602 30.9917 50.1502 30.3417C49.4502 29.7017 48.8702 29.2417 48.3802 28.3517C48.2802 28.1717 48.1703 27.9317 48.0703 27.7317C47.8103 27.2217 47.7403 26.9417 47.5803 26.2717C47.5703 26.0617 47.3203 26.2717 47.3103 26.0017C47.3603 26.0017 47.4002 26.0117 47.4202 26.0117C47.6002 26.0117 47.2202 25.8017 47.1702 25.6917C46.8602 24.0717 47.2803 22.3317 47.8303 21.1417C48.2503 20.2317 48.6503 19.2617 49.3303 18.6617C50.5303 17.6117 51.9203 16.8017 53.3503 16.1417C53.4703 16.1617 53.5802 16.1717 53.6802 16.1717C54.1902 16.1717 54.4803 15.9617 54.9403 15.9217C55.0703 15.9117 55.2103 15.9017 55.3403 15.9017M55.3603 15.0417C55.1903 15.0417 55.0402 15.0417 54.8802 15.0617C54.5902 15.0917 54.3602 15.1617 54.1702 15.2117C53.9902 15.2617 53.8603 15.3017 53.7003 15.3017C53.6403 15.3017 53.5702 15.3017 53.5002 15.2817L53.2502 15.2417L53.0202 15.3517C51.3202 16.1317 49.9402 17.0017 48.7902 18.0017C48.0402 18.6617 47.6103 19.5917 47.2003 20.4917L47.0803 20.7517C46.3303 22.3717 46.0503 24.2717 46.3503 25.8217L46.3703 25.9017L46.4002 25.9817C46.4202 26.0417 46.4503 26.1017 46.4903 26.1517C46.5303 26.3817 46.6403 26.6117 46.8403 26.7617C46.9603 27.2517 47.0603 27.5817 47.3203 28.0817C47.3603 28.1617 47.4003 28.2417 47.4403 28.3217C47.5003 28.4517 47.5702 28.5917 47.6402 28.7217C48.1402 29.6317 48.7203 30.1517 49.3303 30.7017C49.4103 30.7717 49.4903 30.8517 49.5803 30.9217L49.7602 31.0917C50.4002 31.6817 50.9002 32.1417 51.8902 32.5117C53.3902 33.0617 54.9502 33.3517 56.4002 33.3517C57.0802 33.3517 57.7403 33.2917 58.3603 33.1617C58.7103 33.0917 59.0602 32.9617 59.4002 32.8317C59.4902 32.7917 59.5902 32.7617 59.6802 32.7317C59.8302 32.6817 59.9802 32.6317 60.1502 32.5817C60.4102 32.5017 60.6702 32.4217 60.9202 32.3117C63.9202 31.0317 65.8803 27.5517 65.5903 24.0317C65.4903 22.8717 65.1502 21.6317 64.5502 20.2317C64.5202 20.1517 64.4803 20.0717 64.4503 19.9917C64.3103 19.6717 64.1702 19.3317 64.0102 19.0617C63.3402 17.9717 62.2703 17.2717 61.3303 16.6617C61.2203 16.5917 61.1102 16.5217 61.0102 16.4517C60.2902 15.9717 59.7003 15.7617 58.8603 15.5417L58.5903 15.4717C58.0203 15.3217 57.4903 15.1717 56.8103 15.1217C56.6903 15.1217 56.5602 15.1017 56.4302 15.0817C56.1102 15.0517 55.7503 15.0117 55.3703 15.0117" fill="#65B7EC"/>
<path fill-rule="evenodd" clip-rule="evenodd" d="M53.0503 17.5597C53.1303 17.5297 53.2103 17.4897 53.2903 17.4597C54.1103 17.1697 55.2304 17.3997 56.1004 17.4597C57.8104 17.5897 59.7103 18.8597 60.8803 20.0397C61.6903 20.8497 62.2903 21.9197 62.9203 22.8597C63.1103 23.1397 63.2903 23.4397 63.4003 23.7597C64.0803 25.6397 63.2003 28.0297 61.8803 29.4197C60.5803 30.7897 58.7204 31.5297 56.8604 31.7297C55.2004 31.9097 53.0303 31.4397 51.9103 30.7097C50.2603 29.6497 49.6504 28.6597 49.2404 26.7297C48.8004 24.6497 49.1203 22.7597 49.9403 20.8397C50.6003 19.2997 51.4503 18.2697 53.0403 17.5497M54.7503 22.9397C54.3703 22.7097 54.0403 22.3097 53.6403 22.1897C52.3803 21.7997 51.0303 22.5597 50.7703 23.7397C50.5703 24.6697 50.8304 25.7897 51.3504 26.2597C51.8904 26.7497 52.6903 26.7397 53.5603 26.8797C53.5403 27.7097 54.3203 28.1597 55.2003 28.1197C55.5303 28.1097 56.1103 27.9597 56.0803 27.5897C56.0503 27.0797 55.1503 27.1997 54.6703 27.2797C54.2103 26.6597 54.9403 26.0897 55.0203 25.4697C55.2503 25.5097 55.4203 25.5997 55.5503 25.7397C55.5503 27.1497 57.0203 28.4297 58.5603 28.1697C60.1903 27.8997 60.9303 25.7297 59.9303 24.2397C59.6303 23.9397 59.1703 23.9397 58.8203 23.7097C58.6403 23.5897 58.6103 23.3597 58.4203 23.2697C57.8003 22.9597 57.2203 23.1497 56.8303 23.3597C56.2003 23.6997 55.8103 24.2697 55.5503 24.8197C55.3803 24.7397 55.1103 24.7597 55.0203 24.5997C55.1303 23.8597 54.9203 23.5697 54.7603 22.9597M51.8704 27.2297C51.8104 27.2497 51.7604 27.2997 51.7404 27.3597C51.6504 27.9397 52.0904 28.8697 52.4904 29.2597C53.1404 29.9097 54.1603 30.3097 55.3203 30.2297C56.3203 30.1697 57.5603 29.8297 57.8003 28.9497C57.2503 28.3297 56.7103 28.9597 56.3003 29.1297C55.0603 29.6297 53.6103 29.4997 53.0703 28.4697C52.8803 28.0997 52.9103 27.7097 52.5403 27.3597C52.3403 27.2897 52.0403 27.3297 51.8803 27.2297" fill="#F5E3DD"/>
<path fill-rule="evenodd" clip-rule="evenodd" d="M9.7799 32.9299C10.0799 34.4999 10.0399 36.5399 10.4399 38.0599C10.5299 38.4199 10.6899 38.7199 10.7899 39.0799C10.9699 39.6799 10.9899 40.2999 11.2799 40.7599C10.6199 40.6899 9.92991 40.6399 9.41991 40.3599C8.92991 40.0899 8.22991 39.5999 7.91991 39.1199C7.60991 38.6599 7.69992 37.5899 7.29992 37.3099C7.00992 37.1099 6.34988 37.1799 5.88988 37.1299C5.42988 37.0799 4.87997 37.0099 4.60997 36.8599C3.92997 36.4999 3.50998 35.3399 3.98998 34.5599C4.36998 33.9399 5.64996 33.8099 6.59996 33.5899C7.83996 33.2999 8.4399 32.8799 9.7799 32.9299Z" fill="#F5E3DD"/>
<path fill-rule="evenodd" clip-rule="evenodd" d="M58.4603 47.9611C59.3503 49.1611 59.7602 50.9511 59.6502 52.9111C59.5002 53.0711 59.4202 53.3011 59.2502 53.4411C58.8202 52.9311 58.7302 52.0811 58.6302 51.2311C58.4302 50.9611 58.0303 50.7611 57.6603 51.0111C57.7803 52.0811 57.4903 52.9211 57.3503 53.7511C56.6703 53.3511 57.0602 52.0211 57.0002 51.1011C56.8202 50.8711 56.5603 50.7111 56.1203 50.7511C55.6303 51.3911 56.0503 52.5311 55.9403 53.4011C55.9003 53.7711 55.6203 54.3511 55.2303 54.3311C54.7903 54.3011 54.6103 53.4711 54.6103 52.9611C54.6103 52.3211 54.6602 51.8411 54.6502 51.3711C54.5002 51.0911 54.1003 50.8811 53.6803 51.0211C53.3803 52.0311 53.9702 53.8411 53.1502 54.4711C52.5202 53.6111 52.4603 52.1811 52.3103 50.8411C52.1703 50.6511 51.7103 50.6111 51.4303 50.7111C51.0303 51.2611 50.6203 51.7811 50.0603 52.1711C49.7603 49.9111 51.4003 49.2111 51.9203 47.6211C52.3303 47.7111 52.6903 48.1311 53.1103 48.3311C53.9903 48.7311 55.4203 49.1611 56.6003 48.8611C57.2703 48.6911 57.7803 48.2511 58.4603 47.9811M52.9803 53.9711C53.0603 53.9711 53.0803 54.0211 53.1603 54.0111C53.1703 53.9511 53.2203 53.9311 53.2003 53.8311C53.0603 53.8111 53.0203 53.8911 52.9803 53.9611" fill="#F5E3DD"/>
<path fill-rule="evenodd" clip-rule="evenodd" d="M25.2599 19.8008C25.5499 21.1808 26.58 22.2308 28.05 22.6708C28.31 22.7508 28.65 22.6908 28.98 22.8008C29.35 22.9308 29.59 23.3208 29.95 23.5108C30.68 23.8808 32.0899 24.0108 33.0399 23.6408C34.0099 24.3308 35.2899 25.1908 37.0199 24.7008C37.1199 25.4208 36.76 26.0608 36.71 26.7808C36.22 27.5208 35.86 28.2908 35.3 28.9008C34.28 30.0108 32.8899 30.5108 31.4099 31.1108C30.7799 31.2108 29.68 31.2608 28.98 31.2008C28.05 30.7908 27.2 30.5908 26.46 30.0108C24.29 28.3108 23.6099 24.2808 24.5199 21.3008C24.6799 20.7808 25.0199 20.2308 25.2699 19.8008" fill="#F5E3DD"/>
<path fill-rule="evenodd" clip-rule="evenodd" d="M30.2102 32.222C29.9802 32.222 29.7602 32.212 29.5702 32.192C29.4602 32.182 29.3501 32.132 29.2501 32.092C29.1601 32.052 29.0802 32.022 28.9902 32.012C27.7302 31.812 26.5101 31.322 25.6501 30.662C24.2901 29.612 23.2602 27.662 23.0302 25.702C22.7202 23.052 23.2702 20.372 24.4302 18.882C25.0102 18.132 25.8702 17.502 26.7902 17.152C26.9102 17.102 27.0402 17.062 27.1602 17.012C27.6502 16.822 28.1602 16.622 28.6202 16.532C28.8002 16.492 29.0001 16.482 29.2501 16.482C29.3701 16.482 29.4902 16.482 29.6202 16.482C29.7402 16.482 29.8602 16.482 29.9902 16.482C30.2402 16.482 30.4402 16.462 30.6102 16.432C30.9502 16.362 31.2902 16.332 31.6202 16.332C33.8602 16.332 35.5002 17.802 36.5302 18.902C37.7002 20.152 38.3002 21.642 38.2902 23.322C38.3502 23.342 38.4202 23.352 38.4802 23.372C38.6602 23.412 38.8902 23.462 38.9502 23.742C39.0402 24.152 38.7401 24.302 38.5201 24.422C38.4101 24.482 38.3001 24.542 38.2501 24.612C38.1501 26.202 37.8802 27.192 37.3002 28.142C37.2302 28.262 37.1302 28.362 37.0402 28.462C36.9702 28.532 36.9102 28.602 36.8502 28.682C36.7802 28.772 36.7302 28.882 36.6802 28.992C36.6202 29.102 36.5701 29.212 36.5001 29.302C35.9301 30.052 34.6702 30.992 33.7002 31.382C33.5602 31.442 33.4102 31.472 33.2402 31.502C33.0902 31.532 32.9402 31.562 32.8102 31.612C32.6502 31.672 32.4902 31.742 32.3302 31.812C32.0802 31.932 31.8202 32.052 31.5502 32.102C31.1502 32.182 30.6602 32.222 30.2002 32.222M29.0101 31.072C29.2101 31.092 29.4402 31.092 29.7002 31.092C30.2902 31.092 30.9502 31.052 31.3702 30.982L31.6902 30.852C33.0202 30.322 34.2802 29.812 35.2002 28.812C35.5702 28.402 35.8602 27.932 36.1602 27.432C36.3002 27.202 36.4402 26.972 36.5802 26.742C36.6002 26.452 36.6802 26.172 36.7402 25.902C36.8302 25.562 36.9101 25.232 36.9001 24.892C36.6101 24.962 36.3101 25.002 36.0201 25.002C34.8201 25.002 33.8801 24.422 33.0201 23.812C32.6401 23.942 32.1902 24.012 31.7002 24.012C31.0202 24.012 30.3301 23.872 29.8801 23.642C29.6901 23.552 29.5401 23.412 29.4001 23.282C29.2401 23.142 29.1002 23.002 28.9202 22.942C28.7602 22.882 28.5902 22.872 28.4202 22.862C28.2702 22.862 28.1301 22.852 28.0001 22.802C26.5901 22.372 25.5902 21.422 25.2102 20.162C25.0002 20.522 24.7601 20.942 24.6401 21.342C23.8101 24.092 24.3002 28.152 26.5402 29.902C27.0502 30.302 27.6301 30.522 28.2501 30.762C28.5001 30.852 28.7501 30.952 29.0101 31.072ZM32.2802 21.062C32.6402 21.062 32.8102 21.272 32.9502 21.442C32.9702 21.472 33.0402 21.552 33.0402 21.552V21.582C33.0702 21.692 33.0902 21.812 33.1002 21.932C33.1302 22.152 33.1501 22.382 33.2501 22.562C33.4501 22.932 34.5701 23.732 34.8901 23.822C35.1001 23.872 35.3302 23.902 35.6102 23.902C36.0802 23.902 36.5802 23.822 36.9702 23.752C37.0002 22.622 36.7902 21.522 36.4102 20.842C36.3702 20.762 36.2802 20.672 36.1902 20.572C36.1202 20.492 36.0402 20.412 35.9702 20.322C35.6202 19.842 35.3501 19.532 35.0001 19.142C34.0201 18.022 32.8702 17.452 31.5902 17.452C31.4702 17.452 31.3502 17.452 31.2302 17.462C31.1202 17.462 31.0101 17.492 30.8901 17.502C30.7101 17.532 30.5202 17.562 30.3102 17.562C30.2402 17.562 30.1702 17.562 30.1002 17.562C29.9902 17.562 29.9002 17.532 29.8002 17.512C29.6902 17.492 29.6001 17.472 29.5001 17.472C29.4701 17.472 29.4402 17.472 29.4202 17.472C29.0802 17.512 28.7002 17.672 28.3002 17.852C28.1102 17.932 27.9202 18.012 27.7302 18.082L27.6602 18.102C27.2802 18.242 26.4002 18.562 26.3102 18.872C26.2502 19.062 26.3101 19.652 26.4001 20.032C26.6601 21.112 27.4502 21.842 28.3602 21.842C28.3802 21.842 28.4002 21.842 28.4202 21.842C28.2702 21.302 28.2802 20.542 28.5402 20.102C28.6602 19.902 28.8302 19.782 29.0302 19.752C29.0602 19.752 29.0902 19.752 29.1202 19.752C29.4702 19.752 29.7902 20.002 29.8502 20.312C29.8902 20.532 29.8102 20.752 29.7302 20.982C29.6502 21.202 29.5702 21.422 29.5902 21.652C29.6302 22.102 29.8102 22.302 30.0302 22.572C30.1002 22.652 30.1702 22.732 30.2402 22.832C30.4602 22.902 30.7002 22.932 30.9902 22.932C31.3102 22.932 31.6502 22.892 31.9802 22.852C32.0302 22.852 32.0702 22.842 32.1202 22.832C31.9102 22.352 31.5801 21.602 32.0001 21.132L32.0302 21.092H32.0802C32.1502 21.072 32.2101 21.062 32.2701 21.062" fill="#65B7EC"/>
<path d="M31.6302 16.4797C33.7702 16.4797 35.3803 17.8697 36.4403 19.0097C37.3903 20.0197 38.2002 21.4397 38.1602 23.4297C38.4602 23.5697 38.7603 23.4897 38.8203 23.7797C38.9303 24.2797 38.2703 24.2497 38.1103 24.5797C38.0103 26.0597 37.7803 27.0897 37.1803 28.0697C37.0703 28.2597 36.8803 28.4097 36.7403 28.5997C36.6003 28.7897 36.5102 29.0597 36.3902 29.2197C35.8602 29.9197 34.6502 30.8497 33.6502 31.2497C33.4002 31.3497 33.0702 31.3597 32.7702 31.4697C32.3402 31.6297 31.9502 31.8697 31.5302 31.9597C31.1302 32.0397 30.6503 32.0797 30.2103 32.0797C29.9903 32.0797 29.7703 32.0697 29.5903 32.0497C29.4003 32.0297 29.2202 31.9097 29.0202 31.8697C27.8002 31.6797 26.6002 31.1997 25.7502 30.5397C24.3902 29.4897 23.4003 27.5597 23.1903 25.6797C22.9103 23.2297 23.3703 20.4897 24.5603 18.9597C25.0803 18.2897 25.9103 17.6397 26.8603 17.2797C27.4503 17.0597 28.1002 16.7697 28.6702 16.6597C28.8702 16.6197 29.0702 16.6097 29.2802 16.6097C29.5202 16.6097 29.7702 16.6197 30.0102 16.6197C30.2302 16.6197 30.4502 16.6097 30.6602 16.5697C31.0002 16.4997 31.3302 16.4697 31.6402 16.4697M30.3203 17.4197C30.2603 17.4197 30.1902 17.4197 30.1302 17.4197C29.9002 17.3997 29.7302 17.3297 29.5202 17.3297C29.4902 17.3297 29.4502 17.3297 29.4202 17.3297C28.9002 17.3897 28.2903 17.7297 27.7003 17.9497C27.2703 18.1097 26.3203 18.4397 26.2003 18.8297C26.1203 19.0797 26.2002 19.7197 26.2902 20.0697C26.5602 21.1597 27.3602 21.9897 28.3902 21.9897C28.4702 21.9897 28.5502 21.9897 28.6402 21.9697C28.4002 21.3197 28.4203 19.9897 29.0803 19.8897C29.1003 19.8897 29.1302 19.8897 29.1602 19.8897C29.4302 19.8897 29.7002 20.0797 29.7502 20.3397C29.8202 20.7197 29.4403 21.1597 29.4803 21.6697C29.5403 22.3197 29.8903 22.5297 30.1903 22.9497C30.4503 23.0397 30.7402 23.0697 31.0202 23.0697C31.4602 23.0697 31.9203 22.9897 32.3503 22.9497C32.1703 22.5297 31.7202 21.6797 32.1302 21.2297C32.1902 21.2197 32.2503 21.2097 32.3003 21.2097C32.6503 21.2097 32.7703 21.4397 32.9303 21.6197C33.0003 21.9297 32.9802 22.3197 33.1502 22.6397C33.3702 23.0497 34.5103 23.8697 34.8703 23.9697C35.1103 24.0297 35.3603 24.0597 35.6203 24.0597C36.1303 24.0597 36.6603 23.9697 37.1203 23.8897C37.1603 22.7797 36.9703 21.5597 36.5503 20.7997C36.4603 20.6297 36.2503 20.4597 36.1103 20.2697C35.7603 19.7997 35.5002 19.4897 35.1402 19.0797C34.3102 18.1297 33.1703 17.3397 31.6203 17.3397C31.5003 17.3397 31.3802 17.3397 31.2502 17.3497C30.9502 17.3697 30.6703 17.4497 30.3403 17.4497M29.6903 31.2297C30.2903 31.2297 30.9602 31.1897 31.4002 31.1197C32.8802 30.5197 34.2702 30.0197 35.2902 28.9097C35.8502 28.2897 36.2203 27.5297 36.7003 26.7897C36.7503 26.0697 37.1102 25.4297 37.0102 24.7097C36.6602 24.8097 36.3202 24.8497 36.0102 24.8497C34.7802 24.8497 33.8002 24.1997 33.0302 23.6497C32.6302 23.7997 32.1603 23.8697 31.6903 23.8697C31.0203 23.8697 30.3603 23.7297 29.9303 23.5197C29.5603 23.3297 29.3303 22.9397 28.9603 22.8097C28.6303 22.6897 28.2902 22.7597 28.0302 22.6797C26.5702 22.2297 25.5403 21.1897 25.2403 19.8097C24.9903 20.2397 24.6503 20.7897 24.4903 21.3097C23.5903 24.2897 24.2603 28.3197 26.4303 30.0197C27.1703 30.5997 28.0203 30.8097 28.9503 31.2097C29.1603 31.2297 29.4102 31.2397 29.6702 31.2397M31.6302 16.1897C31.2902 16.1897 30.9403 16.2197 30.6003 16.2897C30.4303 16.3197 30.2502 16.3397 30.0002 16.3397C29.8802 16.3397 29.7602 16.3397 29.6402 16.3397C29.5202 16.3397 29.3902 16.3397 29.2702 16.3397C29.0002 16.3397 28.8003 16.3597 28.6103 16.3997C28.1303 16.4897 27.6203 16.6897 27.1203 16.8897C26.9903 16.9397 26.8702 16.9897 26.7502 17.0297C25.8102 17.3797 24.9303 18.0297 24.3303 18.7997C23.1503 20.3197 22.5902 23.0397 22.9002 25.7297C23.1302 27.7297 24.1803 29.7097 25.5703 30.7797C26.4503 31.4497 27.6903 31.9597 28.9703 32.1597C29.0403 32.1697 29.1103 32.1997 29.2003 32.2297C29.3103 32.2697 29.4303 32.3197 29.5603 32.3297C29.7603 32.3497 29.9803 32.3597 30.2203 32.3597C30.6903 32.3597 31.1903 32.3097 31.6003 32.2297C31.8903 32.1697 32.1502 32.0497 32.4102 31.9297C32.5602 31.8597 32.7202 31.7897 32.8802 31.7297C33.0102 31.6797 33.1502 31.6597 33.2902 31.6297C33.4502 31.5997 33.6202 31.5697 33.7702 31.4997C34.7802 31.0897 36.0302 30.1597 36.6302 29.3797C36.7102 29.2797 36.7703 29.1597 36.8203 29.0397C36.8703 28.9397 36.9203 28.8297 36.9803 28.7497C37.0303 28.6797 37.0902 28.6097 37.1602 28.5397C37.2602 28.4397 37.3603 28.3297 37.4303 28.1997C38.0103 27.2397 38.2902 26.2397 38.3902 24.6597C38.4302 24.6197 38.5203 24.5697 38.5903 24.5397C38.8103 24.4297 39.2103 24.2197 39.1003 23.7097C39.0203 23.3397 38.7102 23.2697 38.5202 23.2297C38.4902 23.2297 38.4703 23.2197 38.4403 23.2097C38.4203 21.5297 37.8102 20.0497 36.6402 18.7997C35.5902 17.6797 33.9203 16.1797 31.6203 16.1797M30.3203 17.6997C30.5403 17.6997 30.7403 17.6697 30.9303 17.6397C31.0403 17.6197 31.1502 17.6097 31.2602 17.5997C31.3802 17.5997 31.4903 17.5897 31.6103 17.5897C32.8503 17.5897 33.9702 18.1397 34.9202 19.2297C35.2602 19.6197 35.5302 19.9297 35.8802 20.4097C35.9502 20.5097 36.0303 20.5897 36.1103 20.6697C36.1903 20.7597 36.2703 20.8397 36.3103 20.9097C36.6603 21.5397 36.8703 22.5697 36.8503 23.6297C36.4803 23.6897 36.0402 23.7597 35.6302 23.7597C35.3702 23.7597 35.1403 23.7297 34.9503 23.6797C34.6603 23.6097 33.5902 22.8397 33.4002 22.4897C33.3102 22.3297 33.2902 22.1097 33.2602 21.9097C33.2502 21.7897 33.2303 21.6597 33.2003 21.5497L33.1803 21.4797L33.1402 21.4297C33.1402 21.4297 33.1003 21.3797 33.0803 21.3497C32.9403 21.1797 32.7303 20.9097 32.3003 20.9097C32.2303 20.9097 32.1603 20.9097 32.0803 20.9297L31.9803 20.9497L31.9102 21.0197C31.4802 21.4997 31.7103 22.1897 31.9303 22.6997C31.6203 22.7397 31.3102 22.7797 31.0102 22.7797C30.7602 22.7797 30.5403 22.7497 30.3503 22.6997C30.2903 22.6197 30.2202 22.5397 30.1602 22.4697C29.9402 22.2197 29.7902 22.0297 29.7502 21.6297C29.7302 21.4297 29.8002 21.2297 29.8802 21.0197C29.9702 20.7797 30.0602 20.5397 30.0102 20.2797C29.9402 19.8997 29.5602 19.5997 29.1402 19.5997C29.1002 19.5997 29.0602 19.5997 29.0302 19.5997C28.7902 19.6297 28.5803 19.7797 28.4403 20.0197C28.1903 20.4397 28.1602 21.1297 28.2602 21.6897C27.4702 21.6297 26.7903 20.9597 26.5603 19.9897C26.4703 19.5997 26.4203 19.0597 26.4703 18.8997C26.5003 18.7897 26.7503 18.5797 27.7403 18.2197L27.8103 18.1997C28.0003 18.1297 28.2002 18.0397 28.3802 17.9597C28.7702 17.7897 29.1503 17.6297 29.4603 17.5897C29.4803 17.5897 29.5102 17.5897 29.5302 17.5897C29.6202 17.5897 29.7003 17.6097 29.8003 17.6297C29.8903 17.6497 29.9903 17.6697 30.1103 17.6797C30.1803 17.6797 30.2603 17.6797 30.3303 17.6797M29.0402 30.9297C28.7802 30.8197 28.5302 30.7197 28.2902 30.6297C27.6602 30.3897 27.1203 30.1797 26.6203 29.7897C24.4303 28.0797 23.9502 24.0897 24.7702 21.3797C24.8602 21.0897 25.0102 20.7897 25.1702 20.4997C25.6302 21.6597 26.6103 22.5297 27.9503 22.9397C28.1003 22.9797 28.2502 22.9897 28.4002 22.9997C28.5602 22.9997 28.7203 23.0197 28.8603 23.0697C29.0103 23.1197 29.1402 23.2497 29.2902 23.3797C29.4402 23.5097 29.6003 23.6597 29.8003 23.7597C30.2803 23.9997 30.9803 24.1397 31.6903 24.1397C32.1603 24.1397 32.6103 24.0797 32.9803 23.9497C33.8403 24.5497 34.7802 25.1197 36.0002 25.1197C36.2402 25.1197 36.4903 25.0997 36.7303 25.0497C36.7203 25.3097 36.6503 25.5797 36.5803 25.8497C36.5103 26.1097 36.4402 26.3897 36.4202 26.6797C36.2802 26.8997 36.1402 27.1297 36.0102 27.3497C35.7102 27.8497 35.4303 28.3097 35.0703 28.7097C34.1703 29.6897 32.9303 30.1897 31.6203 30.7197L31.3203 30.8397C30.9003 30.8997 30.2603 30.9497 29.6803 30.9497C29.4403 30.9497 29.2102 30.9497 29.0302 30.9297" fill="#65B7EC"/>
<path fill-rule="evenodd" clip-rule="evenodd" d="M37.1104 23.87C36.4204 23.99 35.5604 24.14 34.8604 23.96C34.5004 23.87 33.3603 23.05 33.1403 22.63C32.9703 22.32 32.9903 21.92 32.9203 21.61C32.7403 21.4 32.6104 21.13 32.1204 21.21C31.7104 21.67 32.1604 22.51 32.3404 22.93C31.6204 23.01 30.8403 23.16 30.1703 22.93C29.8703 22.51 29.5204 22.3 29.4604 21.65C29.4104 21.14 29.7904 20.7 29.7304 20.32C29.6804 20.04 29.3604 19.84 29.0704 19.88C28.4104 19.97 28.3803 21.31 28.6303 21.96C27.4803 22.1 26.5703 21.24 26.2903 20.06C26.2003 19.71 26.1204 19.07 26.2004 18.82C26.3204 18.43 27.2704 18.1 27.7004 17.94C28.2904 17.72 28.9003 17.38 29.4203 17.32C29.6803 17.29 29.8703 17.39 30.1303 17.41C30.5503 17.45 30.8804 17.35 31.2404 17.32C32.9804 17.18 34.2403 18.02 35.1303 19.04C35.4903 19.45 35.7504 19.76 36.1004 20.23C36.2404 20.42 36.4503 20.59 36.5403 20.76C36.9703 21.52 37.1604 22.74 37.1104 23.85" fill="#F6ED36"/>
<path fill-rule="evenodd" clip-rule="evenodd" d="M55.0103 24.5734C55.1003 24.7334 55.3703 24.7134 55.5403 24.7934C55.8003 24.2434 56.1904 23.6734 56.8204 23.3334C57.2104 23.1234 57.7903 22.9334 58.4103 23.2434C58.5903 23.3334 58.6303 23.5634 58.8103 23.6834C59.1603 23.9134 59.6203 23.9134 59.9203 24.2134C60.9203 25.7034 60.1803 27.8834 58.5503 28.1534C57.0103 28.4034 55.5403 27.1234 55.5403 25.7234C55.4103 25.5834 55.2303 25.4934 55.0103 25.4534C54.9303 26.0734 54.2003 26.6434 54.6603 27.2634C55.1403 27.1834 56.0504 27.0634 56.0704 27.5734C56.0904 27.9434 55.5103 28.0934 55.1903 28.1034C54.3103 28.1434 53.5403 27.6934 53.5503 26.8634C52.6803 26.7234 51.8804 26.7334 51.3404 26.2434C50.8204 25.7734 50.5603 24.6534 50.7603 23.7234C51.0203 22.5434 52.3803 21.7834 53.6303 22.1734C54.0203 22.2934 54.3504 22.6934 54.7404 22.9234C54.9004 23.5234 55.1103 23.8234 55.0003 24.5634M53.1503 22.8134C52.8503 22.8134 52.6503 23.0634 52.3103 23.1234C51.5903 23.8034 51.5803 25.9334 52.7503 25.9934C53.2203 26.0234 53.3004 25.7434 53.7204 25.6434C54.3104 24.8434 54.3503 22.8134 53.1503 22.8134ZM57.6204 27.2734C59.1904 27.5034 59.6303 25.6934 59.0403 24.5734C58.4603 24.5134 57.9903 24.3234 57.7603 23.9134C56.3803 24.3234 56.2703 26.7534 57.6303 27.2734" fill="#65B7EC"/>
<path fill-rule="evenodd" clip-rule="evenodd" d="M53.7298 25.6308C53.3098 25.7308 53.2298 26.0108 52.7598 25.9808C51.5898 25.9208 51.5998 23.7908 52.3198 23.1108C52.6598 23.0508 52.8598 22.8008 53.1598 22.8008C54.3598 22.8008 54.3298 24.8308 53.7298 25.6308ZM52.2298 25.0208C52.4298 25.3708 52.8798 25.4608 53.2898 25.3708C53.5698 25.0808 53.4798 24.3908 53.2898 24.0008C52.6098 23.7108 52.0798 24.2008 52.2298 25.0208Z" fill="white"/>
<path fill-rule="evenodd" clip-rule="evenodd" d="M53.2901 24.002C53.4801 24.392 53.5701 25.082 53.2901 25.372C52.8801 25.462 52.4302 25.372 52.2302 25.022C52.0802 24.202 52.6101 23.712 53.2901 24.002Z" fill="#65B7EC"/>
<path fill-rule="evenodd" clip-rule="evenodd" d="M57.7502 23.9102C57.9902 24.3202 58.4502 24.5102 59.0302 24.5702C59.6302 25.6902 59.1903 27.5001 57.6203 27.2701C56.2603 26.7501 56.3702 24.3202 57.7502 23.9102ZM57.5302 24.8401C57.2902 25.3701 56.7803 26.1702 57.4903 26.5602C57.8603 26.5602 58.2502 26.5801 58.4202 26.3801C58.6602 25.6101 58.4402 24.7302 57.5402 24.8302" fill="white"/>
<path fill-rule="evenodd" clip-rule="evenodd" d="M58.4203 26.3916C58.2503 26.5916 57.8604 26.5716 57.4904 26.5716C56.7804 26.1716 57.3003 25.3816 57.5303 24.8516C58.4303 24.7516 58.6503 25.6316 58.4103 26.4016" fill="#65B7EC"/>
<path fill-rule="evenodd" clip-rule="evenodd" d="M52.5398 27.3605C52.9098 27.7105 52.8798 28.1005 53.0698 28.4705C53.6098 29.5005 55.0598 29.6305 56.2998 29.1305C56.7098 28.9705 57.2498 28.3305 57.7998 28.9505C57.5598 29.8405 56.3198 30.1705 55.3198 30.2305C54.1598 30.3005 53.1399 29.9005 52.4899 29.2605C52.0899 28.8705 51.6499 27.9405 51.7399 27.3605C51.7599 27.3005 51.8099 27.2505 51.8699 27.2305C52.0299 27.3305 52.3398 27.2905 52.5298 27.3605" fill="#65B7EC"/>
<path fill-rule="evenodd" clip-rule="evenodd" d="M52.8899 38.1922C52.8899 38.5222 52.82 38.7722 52.71 38.9922C52.17 38.8622 51.4299 38.5322 50.8999 38.2422C51.0099 37.8522 51.3999 37.7422 51.6499 37.4922C52.1299 37.6622 52.3899 38.0422 52.8899 38.2022" fill="#F6ED36"/>
<path fill-rule="evenodd" clip-rule="evenodd" d="M53.3301 40.1408C52.9901 40.9808 52.7401 41.9108 52.4501 42.7908C52.4101 42.8608 52.3101 42.9208 52.2301 42.8308C52.3101 43.6508 51.8101 44.2708 51.7001 45.0408C50.0501 44.6508 48.2701 44.4008 47.1001 43.5408C47.5101 41.7008 47.9101 39.8408 48.4701 38.1508C49.0901 38.0508 49.48 38.5108 50.02 38.7208C50.17 38.7808 50.35 38.7507 50.51 38.8107C51.51 39.1707 52.5001 39.7308 53.3401 40.1408M49.2201 40.4008C47.9501 41.9608 49.88 43.7708 51.52 43.0108C52.11 42.4608 52.2301 41.0807 51.5601 40.5307C51.0901 40.3607 50.5901 40.0007 49.9701 40.1307C49.6901 40.1907 49.4701 40.3108 49.2201 40.3908" fill="#F6ED36"/>
<path fill-rule="evenodd" clip-rule="evenodd" d="M49.9701 40.141C50.5901 40.011 51.0901 40.371 51.5601 40.541C52.2301 41.091 52.1 42.471 51.52 43.021C49.88 43.781 47.9501 41.971 49.2201 40.411C49.4701 40.321 49.6901 40.211 49.9701 40.151M50.63 42.391C50.99 42.221 51.1201 41.371 50.8501 40.981C49.7801 40.321 49.43 42.591 50.63 42.391Z" fill="#65B7EC"/>
<path fill-rule="evenodd" clip-rule="evenodd" d="M50.8603 40.9801C51.1303 41.3701 51.0002 42.2201 50.6402 42.3901C49.4402 42.5901 49.7903 40.3201 50.8603 40.9801Z" fill="#F6ED36"/>
<path fill-rule="evenodd" clip-rule="evenodd" d="M53.2 53.8398C53.22 53.9298 53.1699 53.9598 53.1599 54.0198C53.0799 54.0198 53.07 53.9699 52.98 53.9799C53.02 53.8999 53.06 53.8298 53.2 53.8498" fill="#251E1C"/>
<path fill-rule="evenodd" clip-rule="evenodd" d="M50.9902 70.9531C51.2102 71.0031 51.3102 71.1631 51.3002 71.4431C51.1402 71.3331 51.0702 71.1431 50.9902 70.9531Z" fill="#251E1C"/>
<path fill-rule="evenodd" clip-rule="evenodd" d="M28.22 25.24C27.29 25.02 27.0399 26.3 27.3799 26.88C27.6199 27.29 28.2999 27.3 28.7099 27.1C29.0399 26.39 28.81 25.52 28.22 25.24ZM31.8999 25.7C31.8599 25.77 31.8399 25.85 31.8199 25.96C31.7199 26.5 31.6599 27.33 32.4199 27.4C33.7499 27.52 33.43 25.06 32.23 25.46C32.06 25.52 31.9699 25.59 31.9099 25.7M30.1899 27.6C30.2999 27.62 30.4299 27.74 30.5399 27.78C31.1299 27.99 31.4299 27.53 31.0699 27.12C30.6199 26.61 29.1999 26.53 29.1699 27.56C29.4999 27.94 29.8399 27.54 30.1899 27.6ZM32.9199 27.92C32.7999 27.82 32.63 27.78 32.49 27.83C32.35 27.88 32.2099 28.03 32.0799 28.11C31.9499 28.18 31.8199 28.25 31.6899 28.33C31.1799 28.62 30.4999 28.88 29.8999 28.82C29.5099 28.77 28.91 28.58 28.61 28.35C28.18 28.02 28.03 27.31 27.24 27.42C26.91 27.66 27.3699 28.19 27.5599 28.39C28.1199 28.95 29.3699 29.61 30.5799 29.47C31.1099 29.41 31.5499 29.25 31.9499 29.07C32.1399 28.99 32.29 28.93 32.47 28.83C32.73 28.68 33.1699 28.46 33.0299 28.09C33.0099 28.03 32.9699 27.98 32.9199 27.93" fill="#65B7EC"/>
<path fill-rule="evenodd" clip-rule="evenodd" d="M61.4401 21.9702C61.4401 21.9702 61.3401 22.0502 61.2801 22.0702C60.8401 22.2202 60.0401 21.2802 59.8101 21.0302C59.3601 20.5402 58.8802 19.7302 58.8402 19.0602C58.3902 19.3702 58.1701 20.1402 57.5001 19.7702C56.9601 19.4702 56.7402 18.4502 56.7302 17.8902C56.1502 18.2402 55.6801 19.0402 54.9101 18.6302C54.4601 18.3902 54.3401 17.8802 54.3001 17.4002C54.2901 17.2402 54.2101 16.7702 54.3201 16.6502C54.4401 16.5202 54.9602 16.5802 55.1202 16.5802C56.2302 16.5802 57.4302 16.7202 58.4602 17.1602C58.7102 17.2702 58.9501 17.5102 59.2601 17.6902C60.3001 18.3102 61.5401 18.9902 61.6601 20.3302C61.6901 20.7002 61.7801 21.6502 61.4401 21.9902" fill="#65B7EC"/>
<path fill-rule="evenodd" clip-rule="evenodd" d="M41.2201 53.3503C40.3801 53.2803 40.5001 52.2403 39.9801 51.8503C39.6701 51.8503 39.3601 51.8503 39.1801 51.9803C39.3101 52.6003 39.5301 53.2603 39.3101 53.8803C38.4901 53.8603 38.4401 52.6903 37.9401 52.2003C37.6201 52.1503 37.2001 52.0903 37.1001 52.3803C37.2001 53.0303 37.87 53.8003 37.41 54.4603C35.81 54.6903 36.6601 51.6803 34.9801 52.5603C35.0101 53.3603 35.66 53.9903 35.38 54.8103C34.02 54.5503 33.6601 53.2903 32.9901 52.3303C32.2501 52.1703 31.9301 52.6803 31.2201 52.7703C30.7601 52.8303 30.26 52.7603 30.16 52.4203C30.05 52.0503 30.3901 51.4203 30.6001 51.1403C31.0601 50.5303 31.8701 50.1203 32.3701 49.6403C34.2801 50.4903 37.69 50.3503 39 49.0703H39.0901C39.7201 49.6603 40.7101 50.4403 41.0801 51.3703C41.3101 51.9603 41.5101 52.6903 41.2101 53.3603" fill="#F5E3DD"/>
</svg>
