<svg width="71" height="71" viewBox="0 0 71 71" fill="none" xmlns="http://www.w3.org/2000/svg">
<path d="M26.6204 60.5695C26.6104 60.7195 26.5204 60.7895 26.3704 60.7895H24.6604C24.5304 60.7795 24.4703 60.6995 24.4803 60.5695L24.5803 59.7695C24.6103 59.6195 24.5404 59.5695 24.4004 59.5695H17.7103C17.5803 59.5695 17.5004 59.6295 17.4904 59.7695L17.4004 60.6195C17.3904 60.7495 17.3103 60.8195 17.1703 60.8195H15.5304C15.4004 60.8195 15.3403 60.7495 15.3403 60.6195L15.5703 58.3495C15.5803 58.2195 15.6603 58.1395 15.8003 58.1395H19.6304C19.7604 58.1395 19.8403 58.0695 19.8503 57.9395L19.9503 56.9195C19.9503 56.7895 20.0403 56.7295 20.1703 56.7295H22.4203C22.5503 56.7295 22.6103 56.7895 22.6003 56.9295L22.5104 57.9395C22.5004 58.0695 22.5503 58.1395 22.6903 58.1395H26.7103C26.8403 58.1395 26.9004 58.2095 26.8704 58.3495L26.5903 60.5695H26.6204ZM25.1803 66.2495C25.1803 66.3995 25.1103 66.4695 24.9703 66.4695H22.5304C22.5304 66.4695 22.4603 66.4695 22.4403 66.5095C22.4103 66.5495 22.4303 66.5795 22.4503 66.6095C22.6403 66.8595 23.2303 67.4395 24.2103 68.3395C24.3103 68.4395 24.3103 68.5495 24.2203 68.6495L22.9803 69.9995C22.8803 70.0995 22.7903 70.0995 22.6703 70.0095C22.3303 69.6895 21.7903 69.1295 21.0603 68.3595C20.9703 68.2595 20.9003 68.2595 20.8103 68.3695C20.5503 68.8095 20.1203 69.3795 19.5403 70.0995C19.4703 70.1995 19.3604 70.1995 19.2604 70.1295L17.7704 68.9295C17.6704 68.8395 17.6704 68.7395 17.7604 68.6195C18.3904 67.8595 18.8703 67.1995 19.1803 66.6295C19.1903 66.5995 19.1903 66.5595 19.1803 66.5095C19.1503 66.4695 19.1203 66.4495 19.0803 66.4495H16.8804C16.7504 66.4495 16.6803 66.3795 16.6803 66.2495L16.7103 65.4195C16.7203 65.2695 16.8003 65.2195 16.9303 65.2195H19.4303C19.5603 65.2195 19.6504 65.1495 19.6504 65.0095V64.7195C19.6804 64.5895 19.6103 64.5195 19.4703 64.5195H17.9503C17.8003 64.5195 17.7404 64.4495 17.7404 64.3095L17.8003 63.4795C17.8103 63.3495 17.8904 63.2795 18.0204 63.2795H19.5403C19.6903 63.2795 19.7604 63.2095 19.7704 63.0695V62.8095C19.8004 62.6595 19.7403 62.5895 19.5903 62.5895H17.7303C17.6003 62.5895 17.5303 62.5195 17.5403 62.3895L17.5803 61.5695C17.5803 61.4195 17.6504 61.3495 17.7804 61.3495H19.6703C19.8003 61.3495 19.8804 61.2795 19.8904 61.1395L19.9303 60.4795C19.9303 60.3495 20.0204 60.2895 20.1504 60.2895H22.2003C22.3303 60.2895 22.3904 60.3495 22.3904 60.4795L22.3604 61.1395C22.3504 61.2695 22.4003 61.3495 22.5503 61.3495H24.4104C24.5604 61.3495 24.6304 61.4195 24.6204 61.5695L24.5803 62.3895C24.5803 62.5195 24.5104 62.5895 24.3704 62.5895H22.4703C22.3403 62.5895 22.2704 62.6595 22.2504 62.8095L22.2203 63.0695C22.2103 63.1995 22.2803 63.2795 22.4203 63.2795H24.0603C24.1903 63.2795 24.2504 63.3495 24.2504 63.4795L24.1903 64.3095C24.1803 64.4395 24.1003 64.5195 23.9703 64.5195H22.3303C22.1803 64.5195 22.1103 64.5895 22.1003 64.7195V65.0095C22.0903 65.1395 22.1404 65.2195 22.2804 65.2195H25.0004C25.1304 65.2195 25.2103 65.2795 25.1903 65.4195L25.1604 66.2495H25.1803Z" fill="#58778D"/>
<path d="M47.3504 66.1495C47.3404 66.2995 47.2605 66.3695 47.1305 66.3695H46.0604C45.9304 66.3695 45.8705 66.4295 45.8605 66.5595L45.7605 69.2095C45.7505 69.3395 45.6904 69.4195 45.5404 69.4195H44.0305C43.8805 69.4195 43.8204 69.3495 43.8204 69.1995L43.9204 66.5695C43.9304 66.4395 43.8604 66.3695 43.7104 66.3695H42.6405C42.4905 66.3695 42.4304 66.2995 42.4504 66.1695L42.4804 65.4395C42.4804 65.3095 42.5204 65.1795 42.6004 65.0595L43.8004 63.2295C43.8904 63.1095 43.8604 63.0195 43.7304 62.9495C43.1904 62.6695 42.6304 62.3895 42.0604 62.1195C41.9404 62.0595 41.9104 61.9695 41.9704 61.8395C42.4704 60.9795 43.1304 59.7495 43.9704 58.1395C44.0404 58.0095 44.1305 57.9795 44.2605 58.0195L45.4504 58.5795C45.5704 58.6395 45.6005 58.7295 45.5205 58.8395C45.0105 59.7595 44.5205 60.6095 44.1205 61.3895C44.0605 61.4895 44.0904 61.5795 44.1904 61.6395C44.2904 61.6995 44.4004 61.7595 44.4804 61.8195C44.6004 61.8795 44.7005 61.8495 44.7705 61.7295L45.3104 60.8995C45.3804 60.7795 45.4904 60.7495 45.6004 60.8295L46.7304 61.4595C46.8604 61.5195 46.8904 61.6195 46.8004 61.7195L44.6505 64.9195C44.6505 64.9195 44.6405 64.9595 44.6405 64.9795C44.6405 64.9995 44.6504 65.0195 44.6704 65.0495C44.6904 65.0795 44.7105 65.0895 44.7605 65.0895H45.7304C45.8904 65.0895 45.9604 65.0195 45.9604 64.8795C45.9604 64.7395 45.9605 64.5295 45.9905 64.2395C45.9905 64.1095 46.0604 64.0495 46.1904 64.0495H47.2004C47.3504 64.0595 47.4005 64.1195 47.3905 64.2695C47.3905 64.4695 47.3604 65.1195 47.3304 66.1695L47.3504 66.1495ZM42.9504 68.4595C42.8804 68.5895 42.7705 68.6095 42.6405 68.5195L42.1004 68.1495C41.9804 68.0795 41.9704 67.9695 42.0404 67.8395L42.6405 66.9495C42.7105 66.8295 42.8204 66.8195 42.9304 66.8895L43.4704 67.2395C43.5904 67.3095 43.6005 67.4195 43.5305 67.5495C43.4305 67.7095 43.2204 68.0195 42.9404 68.4595H42.9504ZM47.5305 68.1795L46.8605 68.4595C46.7405 68.5195 46.6504 68.4895 46.6004 68.3395C46.4404 67.9895 46.3104 67.6395 46.1904 67.2895C46.1604 67.1695 46.2004 67.0895 46.3204 67.0395L46.9905 66.7895C47.1205 66.7495 47.2105 66.7895 47.2705 66.9395C47.3405 67.1295 47.4705 67.4695 47.6505 67.9095C47.6905 68.0395 47.6605 68.1295 47.5305 68.1895V68.1795ZM55.6305 61.2995C55.6205 61.4295 55.5405 61.4995 55.4105 61.4995H48.3705C48.2205 61.4995 48.1704 61.4295 48.1704 61.2995L48.2004 60.6995C48.2104 60.5495 48.2904 60.4795 48.4204 60.4795H50.5404C50.6904 60.4795 50.7605 60.4195 50.7605 60.2895V60.2295C50.7605 60.0795 50.7004 60.0095 50.5704 60.0095H49.4105C49.2605 60.0095 49.2104 59.9495 49.2104 59.8095L49.2505 59.2095C49.2605 59.0795 49.3404 58.9995 49.4704 58.9995H50.6305C50.7805 58.9995 50.8504 58.9295 50.8504 58.7995V58.7395C50.8504 58.6095 50.7905 58.5495 50.6605 58.5495H48.8705C48.7405 58.5495 48.6804 58.4795 48.6804 58.3295L48.7104 57.7295C48.7204 57.5995 48.8004 57.5195 48.9304 57.5195H50.7204C50.8504 57.5195 50.9304 57.4495 50.9404 57.3095L50.9804 56.7295C50.9804 56.5995 51.0504 56.5195 51.1804 56.5195H53.1105C53.2405 56.5295 53.3004 56.5895 53.3004 56.7295L53.2705 57.3095C53.2605 57.4395 53.3304 57.5195 53.4604 57.5195H55.2605C55.3905 57.5195 55.4604 57.5895 55.4504 57.7295L55.4105 58.3295C55.4105 58.4795 55.3404 58.5495 55.2104 58.5495H53.4204C53.2604 58.5495 53.1904 58.6095 53.1904 58.7395V58.7995C53.1904 58.9295 53.2605 58.9995 53.4005 58.9995H54.6904C54.8404 58.9995 54.9005 59.0695 54.8805 59.2095L54.8504 59.8095C54.8504 59.9595 54.7605 60.0095 54.6305 60.0095H53.3304C53.1804 60.0095 53.1105 60.0795 53.1105 60.2295V60.2895C53.1105 60.4195 53.1804 60.4795 53.3204 60.4795H55.4704C55.6204 60.4795 55.6904 60.5495 55.6804 60.6995L55.6505 61.2995H55.6305ZM49.6804 69.9795C49.6104 70.0995 49.5005 70.1295 49.3705 70.0395L48.4905 69.4295C48.3705 69.3395 48.3604 69.2495 48.4304 69.1395C48.6804 68.7895 48.9304 68.3895 49.1904 67.9395C49.2804 67.8195 49.3805 67.7895 49.5005 67.8495L50.4404 68.3195C50.5704 68.3895 50.6005 68.4795 50.5305 68.5995C50.3105 68.9995 50.0204 69.4595 49.6804 69.9895V69.9795ZM54.5604 67.4895C54.5504 67.6195 54.4704 67.6995 54.3404 67.6995H49.0704C48.9404 67.6995 48.8605 67.6295 48.8805 67.4795L49.1004 62.4295C49.1004 62.2995 49.1704 62.2295 49.3004 62.2295H54.5404C54.6704 62.2295 54.7504 62.2995 54.7304 62.4295L54.5504 67.4895H54.5604ZM52.5604 66.1895H50.9905C50.8405 66.1895 50.7805 66.2495 50.7805 66.3795V66.4795C50.7805 66.6095 50.8404 66.6695 50.9604 66.6695H52.5404C52.6604 66.6695 52.7304 66.6095 52.7304 66.4795V66.3795C52.7404 66.2495 52.6704 66.1895 52.5504 66.1895H52.5604ZM52.6205 64.6995H51.0404C50.9104 64.6995 50.8504 64.7695 50.8504 64.8895V65.0095C50.8504 65.1295 50.9105 65.1995 51.0305 65.1995H52.6105C52.7305 65.1995 52.8004 65.1295 52.8004 65.0095V64.8895C52.8004 64.7695 52.7405 64.6995 52.6205 64.6995ZM52.6804 63.2495H51.1305C50.9805 63.2495 50.9105 63.3095 50.9105 63.4395V63.5395C50.9105 63.6695 50.9704 63.7295 51.1004 63.7295H52.6505C52.7805 63.7295 52.8605 63.6695 52.8605 63.5395V63.4395C52.8605 63.3095 52.8004 63.2495 52.6804 63.2495ZM54.8705 69.2895L54.0504 69.9795C53.9304 70.0695 53.8505 70.0695 53.7605 69.9795C53.5005 69.6895 53.1704 69.2595 52.7904 68.6795C52.7204 68.5795 52.7504 68.4895 52.8504 68.3995L53.7104 67.8595C53.8404 67.7895 53.9305 67.7995 54.0205 67.9195C54.2805 68.3295 54.5805 68.6995 54.8705 68.9895C54.9705 69.1095 54.9705 69.2095 54.8705 69.2995V69.2895Z" fill="#58778D"/>
<path d="M67.48 48.1V10.3C67.48 10.04 67.29 9.81 67.03 9.77C66.91 9.75 66.79 9.73 66.66 9.7V7.79C66.66 7.53 66.47 7.3 66.2 7.26L65.7899 7.2C64.6599 7.03 63.1199 6.4 61.3199 5.68C57.7899 4.26 53.41 2.5 48.46 2.5C47.79 2.5 47.12 2.53 46.47 2.6C40.6 3.19 38.37 4.43 36.74 5.34C36.06 5.72 35.56 5.99 34.95 6.1C34.34 6 33.84 5.72 33.16 5.34C31.53 4.44 29.2999 3.2 23.4299 2.6C22.7799 2.53 22.1099 2.5 21.4399 2.5C16.4899 2.5 12.11 4.26 8.57996 5.68C6.78996 6.4 5.23999 7.02 4.10999 7.2L3.69995 7.26C3.43995 7.3 3.23999 7.53 3.23999 7.79V9.72C3.13999 9.74 3.04996 9.76 2.95996 9.77C2.69996 9.81 2.5 10.04 2.5 10.3V48.51C2.5 48.58 2.50994 48.94 2.80994 49.19C3.03994 49.38 3.34996 49.45 3.57996 49.45C3.64996 49.45 3.71992 49.45 3.78992 49.43C5.01992 49.14 6.47001 48.56 8.14001 47.88C11.68 46.46 16.08 44.69 20.91 44.69C21.55 44.69 22.1999 44.72 22.8199 44.79C28.7299 45.39 30.92 46.61 32.52 47.71C32.64 47.79 32.85 47.94 35.01 47.94C37.17 47.94 37.37 47.8 37.5 47.71C39.09 46.61 41.29 45.39 47.2 44.79C47.83 44.73 48.47 44.69 49.11 44.69C53.94 44.69 58.35 46.46 61.89 47.88C63.46 48.51 64.81 49.06 65.99 49.36C66.14 49.4 66.27 49.43 66.41 49.43C66.68 49.43 66.8799 49.31 67.0599 49.2C67.5399 48.88 67.53 48.26 67.52 48.1H67.48Z" fill="#65B7EC" stroke="#65B7EC" stroke-width="5" stroke-linecap="round" stroke-linejoin="round"/>
<path d="M4.04996 46.3104C4.02996 46.2004 4.10999 46.1004 4.20999 46.0904C5.91999 45.8304 8.38999 44.6604 11.33 43.5504C14.27 42.4404 17.71 41.4004 21.42 41.4004C22.05 41.4004 22.69 41.4304 23.33 41.5004C26.6 41.8304 28.71 42.4004 30.22 43.0004C31.72 43.6004 32.61 44.2304 33.39 44.6604C33.91 44.9404 34.38 45.1404 34.97 45.2104C35.57 45.1404 36.04 44.9404 36.55 44.6604C37.07 44.3704 37.6401 44.0004 38.4101 43.6004C39.9401 42.8104 42.25 41.9404 46.61 41.5004C47.25 41.4304 47.8901 41.4004 48.5201 41.4004C52.2301 41.4004 55.66 42.4504 58.61 43.5504C61.55 44.6604 64.02 45.8304 65.73 46.0904C65.84 46.1104 65.91 46.2104 65.89 46.3104C65.87 46.4204 65.77 46.4904 65.67 46.4704C63.85 46.1904 61.4 45.0104 58.47 43.9104C55.54 42.8104 52.1501 41.7804 48.5201 41.7804C47.9001 41.7804 47.2801 41.8104 46.6501 41.8704C43.4101 42.2004 41.33 42.7604 39.87 43.3404C38.41 43.9204 37.56 44.5304 36.74 44.9804C36.2 45.2804 35.66 45.5104 34.99 45.5804H34.97H34.95C34.28 45.5004 33.74 45.2804 33.2 44.9804C32.65 44.6804 32.1 44.3104 31.35 43.9204C29.86 43.1504 27.6099 42.3004 23.2899 41.8604C22.66 41.8004 22.04 41.7704 21.42 41.7704C17.79 41.7704 14.4 42.8004 11.47 43.9004C8.54 45.0004 6.09005 46.1804 4.27005 46.4604C4.27005 46.4604 4.25002 46.4604 4.24002 46.4604C4.15002 46.4604 4.05996 46.3904 4.04996 46.2904V46.3104Z" fill="#F6ED36"/>
<path d="M65.6802 47.3495C63.8602 47.0695 61.4103 45.8895 58.4803 44.7895C55.5503 43.6895 52.1603 42.6595 48.5303 42.6595C47.9103 42.6595 47.2903 42.6895 46.6603 42.7495C43.4203 43.0795 41.3403 43.6395 39.8803 44.2195C38.4203 44.7995 37.5703 45.4095 36.7503 45.8595C36.2103 46.1595 35.6703 46.3895 35.0003 46.4595H34.9803H34.9602C34.2902 46.3795 33.7502 46.1595 33.2102 45.8595C32.6602 45.5595 32.1103 45.1895 31.3603 44.7995C29.8703 44.0295 27.6202 43.1795 23.3002 42.7395C22.6702 42.6795 22.0502 42.6495 21.4302 42.6495C17.8002 42.6495 14.4103 43.6795 11.4803 44.7795C8.55026 45.8795 6.10031 47.0595 4.28031 47.3395C4.17031 47.3595 4.07021 47.2795 4.06021 47.1795C4.04021 47.0695 4.12025 46.9695 4.22025 46.9595C5.93025 46.6995 8.40024 45.5295 11.3402 44.4195C14.2802 43.3095 17.7202 42.2695 21.4302 42.2695C22.0602 42.2695 22.7002 42.2995 23.3402 42.3595C26.6102 42.6895 28.7203 43.2595 30.2303 43.8595C31.7303 44.4595 32.6203 45.0895 33.4003 45.5195C33.9203 45.7995 34.3903 45.9995 34.9803 46.0695C35.5803 45.9995 36.0502 45.7995 36.5602 45.5195C37.0802 45.2295 37.6502 44.8595 38.4202 44.4595C39.9502 43.6695 42.2603 42.7995 46.6203 42.3595C47.2603 42.2995 47.9003 42.2695 48.5303 42.2695C52.2403 42.2695 55.6703 43.3095 58.6203 44.4195C61.5603 45.5295 64.0303 46.6995 65.7403 46.9595C65.8503 46.9795 65.9203 47.0795 65.9003 47.1795C65.8903 47.2795 65.8002 47.3495 65.7102 47.3495C65.7102 47.3495 65.6902 47.3495 65.6802 47.3495Z" fill="#F6ED36"/>
<path d="M4.25 8.2101V45.2501C8.08 44.6601 15.1799 39.8301 23.3199 40.6601C31.4599 41.4801 32.34 43.7701 34.52 44.2901V7.0501C32.34 6.5501 31.4499 4.4401 23.3199 3.6101C15.1799 2.7801 8.08 7.6201 4.25 8.2001V8.2101ZM46.5599 3.6201C38.3399 4.4501 37.5199 6.6001 35.2899 7.0701V44.3101C37.5199 43.8201 38.3399 41.4901 46.5599 40.6601C54.6999 39.8401 61.8 44.6701 65.63 45.2501V8.2101C61.8 7.6201 54.6999 2.7901 46.5599 3.6201Z" fill="#F6ED36"/>
<path d="M34.52 7.05957V47.9296" stroke="#65B7EC" stroke-width="2.77" stroke-linecap="round" stroke-linejoin="round"/>
</svg>

