<?xml version="1.0" encoding="UTF-8" standalone="no"?>
<!-- Created with Inkscape (http://www.inkscape.org/) -->

<svg
   width="30.091061mm"
   height="24.539061mm"
   viewBox="0 0 30.091061 24.539061"
   version="1.1"
   id="svg6038"
   xmlns="http://www.w3.org/2000/svg"
   xmlns:svg="http://www.w3.org/2000/svg">
  <defs
     id="defs6035" />
  <g
     id="layer1"
     transform="translate(-0.8797543,-1.1507655)">
    <g
       id="g6516"
       transform="translate(-2.5955899,-1.6527728)">
      <g
         id="g6428">
        <path
           class="cls-39"
           d="m 5.0866572,25.15975 c -0.05027,-0.0079 -0.09525,-0.01852 -0.129646,-0.01852 h -0.288396 v 0.127 c 0.07144,0.03969 0.156104,0.08202 0.256646,0.121708 l 0.179917,0.05292 -0.156105,0.611187 c -0.07673,-0.05821 -0.174625,-0.129646 -0.296333,-0.216958 l -0.01323,1.325562 -0.616479,-0.441854 c 0.03704,-0.04498 0.08467,-0.103187 0.142875,-0.171979 0.0053,-0.127 0.01323,-0.322792 0.02117,-0.584729 -0.121708,0.15875 -0.264583,0.320146 -0.436562,0.489479 l -0.27517,-0.616482 c 0.02117,-0.0079 0.08202,-0.02646 0.166688,-0.05292 0.156104,-0.134937 0.341312,-0.346604 0.558271,-0.637646 v -0.0053 c -0.14023,0 -0.288396,0.0053 -0.449792,0.0079 l -0.103188,0.02381 -0.02646,-0.621771 0.108479,0.0079 c 0.01323,0 0.166688,0 0.468313,-0.0079 0,-0.111125 -0.0053,-0.230188 -0.0053,-0.354542 -0.08202,0.02646 -0.224896,0.07144 -0.436562,0.129646 l -0.07144,-0.597958 h 0.179917 c 0.02646,0 0.156104,-0.03704 0.396875,-0.10848 0.264583,-0.07673 0.470958,-0.142875 0.629708,-0.206375 l 0.156104,0.45773 c -0.02646,0.01323 -0.156104,0.0635 -0.386291,0.148166 0,0.121709 0.0053,0.296334 0.0079,0.526521 h 0.275167 c 0.05027,0 0.113771,0 0.179916,-0.0079 l -0.03704,0.616479 z m 0.07144,1.344084 -0.01323,-0.576792 0.09525,0.0079 0.09525,-0.0053 c 0.0635,-0.53975 0.111125,-1.029229 0.148167,-1.465792 l -0.0053,-0.142875 0.566208,0.04498 -0.03175,0.153459 c -0.03704,0.489479 -0.08467,0.957791 -0.140229,1.402291 l 0.502709,-0.0079 c -0.01323,-0.142875 -0.03704,-0.418042 -0.06615,-0.822854 l -0.02117,-0.103188 0.518583,-0.05027 v 0.127 c 0,0.04498 0.02117,0.322792 0.07144,0.836084 l 0.129646,-0.0079 0.0079,0.560917 z"
           id="path1868"
           style="fill:#58778d;stroke-width:0.264583" />
        <path
           class="cls-39"
           d="m 10.960407,24.786688 c -0.08202,-0.01852 -0.166688,-0.03704 -0.261938,-0.05292 -0.436562,-0.0053 -0.8916458,0 -1.3573118,0.0079 l -0.187854,2.397125 -0.67998,-0.391584 0.17198,-0.256645 0.142875,-1.72773 -0.261938,0.0079 c -0.02117,0.0053 -0.08996,0.01852 -0.201083,0.05027 l -0.02646,-0.796396 c 0.10848,0.01323 0.174625,0.01852 0.211667,0.01852 -0.01323,0 0.103188,-0.0053 0.346604,-0.0079 l 0.02646,-0.320146 v -0.187854 l 0.584729,0.04498 -0.04498,0.179917 -0.02117,0.269875 c 0.288396,-0.0053 0.7408328,-0.0079 1.3626038,-0.0079 0.0079,0 0.09525,-0.0053 0.251354,-0.02117 l -0.05292,0.796396 z m 0.113771,2.135187 c -0.47625,0 -0.944563,-0.05027 -1.3996458,-0.148166 l 0.111125,-0.635 c 0.3730618,0.08202 0.7567078,0.116416 1.1509368,0.108479 0.02646,0 0.08202,-0.0079 0.161396,-0.03175 l -0.02646,0.706437 z m -0.07408,-1.434041 -0.08996,0.605896 -0.449792,-0.111125 0.05292,-0.264584 c -0.179917,-0.0053 -0.404813,0 -0.6667498,0.01323 -0.03704,0.0079 -0.08202,0.02381 -0.148167,0.03704 l -0.02117,-0.674687 c 0.04498,0 0.09525,0.0053 0.153458,0.0079 0.3016248,-0.0053 0.6958538,-0.0079 1.1826868,-0.01323 z"
           id="path1870"
           style="fill:#58778d;stroke-width:0.264583" />
        <path
           class="cls-39"
           d="m 15.304865,24.762875 c -0.07673,-0.02117 -0.148167,-0.03704 -0.224896,-0.03969 -0.219604,-0.0079 -0.502708,-0.01323 -0.849312,-0.0079 l -0.01323,0.391584 c 0.576792,0.03969 0.854605,0.336021 0.836084,0.894291 -0.01852,0.367771 -0.283104,0.817563 -0.809625,1.341438 l -0.399521,-0.791104 c 0.05821,-0.01323 0.148167,-0.03175 0.264583,-0.05821 0.211667,-0.179916 0.314854,-0.341312 0.314854,-0.481541 0,-0.193146 -0.140229,-0.291042 -0.418041,-0.291042 -0.01323,0 -0.129646,0.01323 -0.354542,0.04498 l 0.04498,-1.034521 -0.436562,0.01852 c -0.07144,0.01323 -0.140229,0.02646 -0.198438,0.04498 l -0.02646,-0.783166 c 0.05292,0.0053 0.127,0.01323 0.224896,0.02117 l 0.463021,-0.0079 0.01852,-0.381 -0.01323,-0.166688 0.576792,0.02117 -0.03175,0.187854 -0.01323,0.322792 c 0.140229,0 0.436562,0 0.894291,-0.0053 0.05821,-0.0053 0.121709,-0.01323 0.198438,-0.02117 l -0.04498,0.783166 z"
           id="path1872"
           style="fill:#58778d;stroke-width:0.264583" />
        <path
           class="cls-39"
           d="m 17.450636,26.831917 c -0.01323,-0.0979 -0.03704,-0.238125 -0.0635,-0.41275 -0.02117,-0.15875 -0.03704,-0.436562 -0.03704,-0.822854 0,-0.153458 0.01323,-0.650875 0.03969,-1.49225 l -0.01323,-0.171979 0.579438,0.01323 -0.03175,0.201083 c -0.0079,0.494771 -0.01323,0.907521 -0.01323,1.251479 0,0.288396 0.0053,0.518584 0.0079,0.695855 l 0.320146,-0.06615 0.03175,0.687916 c -0.08467,0.01852 -0.359833,0.05821 -0.822854,0.116417 z m 2.518833,-0.391583 c -0.166687,0.01323 -0.309562,0.01852 -0.436562,0.01852 -0.322792,0 -0.629709,-0.03175 -0.912813,-0.09525 -0.03969,-0.0079 -0.08996,-0.02117 -0.148167,-0.03175 l 0.116417,-0.682625 c 0.03175,0.0079 0.08996,0.02646 0.171979,0.05027 0.238125,0.05292 0.508,0.08202 0.809625,0.08202 0.127,0 0.264584,-0.0053 0.410104,-0.01852 0.0079,0 0.0635,-0.01323 0.166688,-0.03704 l 0.01323,0.706437 c -0.04498,0 -0.103187,0.0053 -0.187854,0.0079 z m 0.145521,-1.518709 -0.166688,0.611188 -0.513291,-0.211667 0.09525,-0.216958 c -0.216959,-0.0053 -0.486834,0 -0.804334,0.0079 -0.03704,0.0079 -0.0979,0.01852 -0.187854,0.03704 l -0.01323,-0.714375 c 0.08996,0.0079 0.148167,0.01323 0.171979,0.01323 0.738188,-0.0079 1.214438,-0.0079 1.439334,-0.0053 l -0.01852,0.47625 z"
           id="path1874"
           style="fill:#58778d;stroke-width:0.264583" />
        <path
           class="cls-39"
           d="m 24.30599,26.072563 c -0.256646,0.341312 -0.642938,0.629708 -1.150938,0.854604 l -0.201083,-0.849312 c 0.05821,-0.0053 0.156104,-0.01323 0.296333,-0.02646 0.518584,-0.269875 0.769938,-0.545041 0.764646,-0.817562 -0.0053,-0.232834 -0.166687,-0.341313 -0.481541,-0.333375 -0.103188,0 -0.206375,0.0079 -0.322792,0.02646 -0.269875,0.03969 -0.656167,0.121708 -1.156229,0.238125 -0.0635,0.02646 -0.140229,0.05821 -0.224896,0.0979 L 21.721011,24.42686 c 0.07144,0 0.156104,0 0.256646,-0.0053 0.772583,-0.148167 1.304395,-0.224896 1.579562,-0.224896 0.301625,0 0.552979,0.08202 0.756708,0.238125 0.224896,0.174625 0.333375,0.410104 0.333375,0.695854 -0.0053,0.333375 -0.116416,0.642938 -0.338666,0.939271 z"
           id="path1876"
           style="fill:#58778d;stroke-width:0.264583" />
        <path
           class="cls-39"
           d="m 27.475698,26.413875 c -0.08996,0.02646 -0.436562,0.08467 -1.039812,0.179917 l -0.09525,-0.486833 -0.0079,-1.775354 0.592667,0.0053 -0.02117,0.171979 c -0.0079,0.341313 -0.0079,0.635 -0.0079,0.873125 0,0.179917 0,0.328084 0.0053,0.4445 0.193146,-0.03704 0.391584,-0.07673 0.592667,-0.129645 L 27.47578,26.41653 Z M 28.642511,26.271 c -0.03969,-0.127 -0.08202,-0.238125 -0.121709,-0.33602 -0.08996,-0.216959 -0.275166,-0.621771 -0.558271,-1.209146 l 0.531813,-0.275167 c 0.103187,0.179917 0.301625,0.526521 0.592667,1.029229 0.03704,0.05027 0.0979,0.129646 0.187854,0.232834 l -0.635,0.55827 z"
           id="path1878"
           style="fill:#58778d;stroke-width:0.264583" />
        <path
           class="cls-39"
           d="m 33.51349,24.805209 c -0.05027,-0.01323 -0.134938,-0.03175 -0.246063,-0.05821 l -0.449791,-0.0079 c -0.336021,0.489479 -0.513292,0.836083 -0.529167,1.034521 -0.01323,0.171979 0.103187,0.314854 0.359833,0.441854 0.06615,0.03175 0.166688,0.05292 0.291042,0.07144 l -0.309563,0.801688 c -0.288395,-0.166688 -0.500062,-0.333375 -0.637645,-0.508 -0.17198,-0.219604 -0.256646,-0.470958 -0.256646,-0.759354 0,-0.248709 0.140229,-0.60325 0.418041,-1.071563 -0.08202,0.0053 -0.423333,0.02117 -1.026583,0.05292 -0.04498,0.01323 -0.121708,0.03704 -0.230187,0.05821 l -0.02646,-0.859896 0.246063,0.02646 c 1.132416,-0.02381 1.870604,-0.03175 2.217208,-0.03175 0.01323,0 0.05292,0 0.121708,-0.0079 0.06615,-0.0053 0.103188,-0.0079 0.111125,-0.0079 l -0.05292,0.828146 z"
           id="path1880"
           style="fill:#58778d;stroke-width:0.264583" />
        <path
           class="cls-28"
           d="m 21.072782,25.273521 c 0.06879,0.01588 0.100541,0.06615 0.0979,0.153459 -0.05027,-0.0344 -0.07144,-0.09525 -0.0979,-0.153459"
           id="path1954"
           style="fill:#251e1c;fill-rule:evenodd;stroke-width:0.264583" />
      </g>
      <g
         id="g6467">
        <path
           class="cls-24"
           d="m 8.9707402,16.137459 c -0.0926,-0.04498 -0.179917,-0.129646 -0.267229,-0.153458 -0.142875,-0.04233 -0.34925,-0.03704 -0.518583,-0.06879 -0.328084,-0.06615 -0.566209,-0.240771 -0.783167,-0.447146 -0.166688,-0.15875 -0.359833,-0.312208 -0.378354,-0.629708 -0.246063,-0.07673 -0.555625,-0.05027 -0.783167,-0.195792 -0.07144,-0.04498 -0.298979,-0.264583 -0.336021,-0.336021 -0.06879,-0.132291 -0.02117,-0.291041 -0.0979,-0.433916 0.08467,-0.182563 0.15875,-0.378355 0.336021,-0.47625 0.1905,-0.105834 0.478896,-0.14023 0.727604,-0.195792 0.119063,-0.02646 0.243417,-0.0635 0.36248,-0.0979 0.124354,-0.0344 0.261937,-0.08467 0.362479,-0.0979 0.169333,-0.02381 0.301625,0.01852 0.463021,-0.01323 0.153458,-0.03175 0.309562,-0.145521 0.47625,-0.195792 0.179916,-0.05292 0.362479,-0.07937 0.545041,-0.127 0.06615,-0.01588 0.127,-0.06615 0.195792,-0.08467 0.230187,-0.05821 0.497417,-0.07408 0.7567078,-0.0979 0.359834,-0.0344 0.637646,-0.127 1.050396,-0.111125 0.0926,-0.07144 0.04498,-0.280458 0.0979,-0.391583 -0.169333,-0.322792 -0.354542,-0.624417 -0.378354,-1.063625 -0.03969,-0.740834 -0.0053,-1.3334999 0.153458,-1.9579169 0.153458,-0.605896 0.343958,-1.076854 0.658813,-1.553104 0.140229,-0.214313 0.301625,-0.357188 0.489479,-0.531813 0.07937,-0.07408 0.148166,-0.164041 0.224896,-0.224896 0.07937,-0.06085 0.193145,-0.11377 0.293687,-0.182562 0.248708,-0.166688 0.619125,-0.381 0.965729,-0.447146 0.261938,-0.05027 0.574146,-0.05556 0.854604,-0.05556 0.685271,0 1.399646,0.108479 1.957917,0.33602 0.992187,0.402167 1.791229,1.008063 2.12725,2.084917 0.03704,-0.632354 -0.06085,-1.410229 -0.05556,-2.111375 0,-0.314854 -0.0079,-0.60325 -0.04233,-0.867833 -0.0079,-0.07144 0,-0.153459 -0.01323,-0.209021 -0.02117,-0.07937 -0.08202,-0.08731 -0.05556,-0.166688 0.0979,-0.08202 0.216959,-0.03175 0.293688,0 0.100542,0.04233 0.166687,0.137584 0.251354,0.182563 0.116417,0.05821 0.254,0.07937 0.378354,0.127 0.174625,0.06615 0.343959,0.145521 0.518584,0.209021 0.523875,0.193146 1.09802,0.341312 1.621895,0.531812 0.264584,-0.216958 0.515938,-0.4445 0.8255,-0.616479 0.179917,-0.1905 0.428625,-0.301625 0.658813,-0.447146 0.431271,-0.277812 0.873125,-0.605896 1.314979,-0.894291 0.219604,-0.142875 0.439208,-0.322792 0.685271,-0.420688 0.08996,-0.03704 0.280458,0.0291 0.322792,0.08467 0.07408,0.100542 0.08731,0.457729 0.111125,0.629708 0.03175,0.214313 0.05556,0.436563 0.0979,0.629708 0.01323,0.06086 0.05556,0.124355 0.06879,0.182563 0.145521,0.600604 0.171979,1.307042 0.322792,1.846792 0.674687,0.216958 1.277937,0.473604 1.973791,0.714375 0.492125,0.169333 0.918104,0.396875 1.399646,0.616479 0.137583,0.0635 0.41275,0.132291 0.420688,0.251354 0.0079,0.113771 -0.351896,0.34925 -0.47625,0.433917 -0.732896,0.49477 -1.328209,1.0847909 -2.01348,1.5954369 0.03704,1.121833 0.0926,2.434167 0.111125,3.624792 0.0053,0.293687 -0.02646,0.600604 0,0.854604 0.01058,0.111125 0.09525,0.235479 -0.04233,0.306917 -0.269875,-0.02381 -0.497417,-0.211667 -0.783167,-0.264584 M 24.319219,4.4270011 c -0.177271,0.124354 -0.351896,0.251354 -0.531812,0.378354 -0.452438,0.3175 -0.96573,0.632354 -1.399646,0.936625 -0.0926,0.06615 -0.193146,0.134937 -0.293688,0.209021 -0.134937,0.100541 -0.436562,0.428625 -0.545041,0.433916 -0.08202,0.0026 -0.142875,-0.04233 -0.224896,-0.06879 -0.489479,-0.166688 -0.994834,-0.322792 -1.455209,-0.47625 -0.388937,-0.129646 -0.772583,-0.309563 -1.119187,-0.447146 0.08996,0.918104 0.100542,1.920875 0.127,2.897187 0.01323,0.441854 0.03175,0.878417 0.01323,1.30175 -0.0026,0.08467 0.0291,0.193146 0.01323,0.280459 -0.0079,0.05292 -0.06879,0.0979 -0.08467,0.1666869 -0.04762,0.230188 0.02117,0.521229 0.01323,0.812271 -0.0026,0.132292 -0.01852,0.280458 -0.0291,0.420687 -0.01058,0.15875 -0.05556,0.336021 -0.02911,0.447146 0.01852,0.07408 0.09525,0.156104 0.127,0.224896 0.03969,0.08731 0.07937,0.166688 0.0979,0.264583 0.0344,0.187855 0.0926,0.48948 0.05556,0.672042 -0.01058,0.05821 -0.08467,0.121708 -0.08467,0.195792 0,0.0926 0.105833,0.224896 0.140229,0.322791 0.148167,0.418042 0.201084,1.000125 0.336021,1.386417 0.629708,-0.269875 1.275292,-0.523875 1.915583,-0.783167 0.05556,0 0.04498,-0.06614 0.08467,-0.08467 0.08996,0.0635 0.166688,-0.08202 0.306917,-0.05556 0.227541,-0.119062 0.653521,-0.357187 0.9525,-0.34925 0.156104,0.0026 0.211666,0.08996 0.322791,0.127 0.06615,0.02117 0.14023,0.0079 0.209021,0.0291 0.111125,0.0291 0.219604,0.0926 0.336021,0.127 0.817563,0.238125 1.611313,0.653521 2.365375,0.910167 0.140229,-0.134937 0.383646,0.02117 0.404812,0.182563 0.209021,0.05821 0.357188,0.174625 0.574146,0.224895 -0.03175,-1.381125 -0.04762,-2.794 -0.111125,-4.169833 -0.06615,-0.06879 -0.216958,-0.0926 -0.195791,-0.224896 0.0053,-0.03704 0.254,-0.246062 0.280458,-0.264583 0.06615,-0.05027 0.156104,-0.07673 0.224896,-0.127 0.09525,-0.06879 0.161396,-0.174625 0.238125,-0.238125 0.07673,-0.06085 0.174625,-0.0979 0.251354,-0.1666879 0.07408,-0.06615 0.129646,-0.161395 0.209021,-0.224895 0.216958,-0.17198 0.433916,-0.338667 0.642937,-0.518584 0.224896,-0.1905 0.489479,-0.314854 0.672042,-0.502708 -0.759354,-0.362479 -1.592792,-0.693208 -2.420938,-1.008063 -0.320145,-0.121708 -0.672041,-0.306916 -1.050395,-0.280458 -0.164042,-0.07408 -0.150813,-0.182562 -0.195792,-0.365125 -0.04498,-0.182562 -0.08202,-0.383646 -0.111125,-0.587375 -0.119062,-0.809625 -0.296333,-1.640417 -0.391583,-2.378604 h -0.0291 c -0.182563,0.132292 -0.41275,0.235479 -0.61648,0.378354 M 11.322889,13.158247 c 0.193146,0.142875 0.489479,0.206375 0.783167,0.224895 0.354541,0.01852 0.743479,0.04233 1.076854,0.04233 0.224895,0 0.447145,-0.04233 0.6985,-0.04233 0.714375,0 1.49225,0.01323 2.238375,0.01323 0.965729,0 1.886479,-0.02911 2.46327,-0.378355 -0.0053,-0.127 0.09525,-0.111125 0.127,-0.20902 0.02911,-0.100542 -0.01588,-0.246063 -0.0291,-0.34925 -0.01588,-0.129646 -0.01588,-0.259292 -0.04233,-0.34925 -0.05027,-0.169334 -0.1905,-0.280459 -0.209021,-0.420688 -0.03704,-0.243417 0.04498,-0.500062 0.05556,-0.6985 0.01058,-0.206375 -0.0079,-0.431271 -0.01323,-0.642937 -0.0053,-0.238125 0.01587,-0.4815419 0,-0.6984999 -0.0344,-0.494771 -0.17727,-0.915459 -0.33602,-1.344084 -0.261938,-0.709083 -0.690563,-1.105958 -1.272646,-1.455208 -0.211667,-0.127 -0.447146,-0.246063 -0.6985,-0.336021 -0.452438,-0.15875 -1.209146,-0.325437 -1.833563,-0.251354 -0.211666,0.02646 -0.460375,0.01058 -0.685271,0.05556 -0.322791,0.0635 -0.640291,0.264584 -0.854604,0.420688 -0.0926,0.06615 -0.195791,0.108479 -0.267229,0.166687 -0.05821,0.05027 -0.103187,0.132292 -0.166687,0.195792 -0.06615,0.0635 -0.153459,0.105833 -0.209021,0.166688 -0.140229,0.156104 -0.267229,0.378354 -0.391583,0.574145 -0.473605,0.751417 -0.756709,1.883834 -0.61648,3.1062089 0.03704,0.312208 0.132292,0.566208 0.264584,0.8255 0.02646,0.04498 0.166687,-0.02646 0.153458,0.05556 -0.05292,0.404813 -0.254,0.854604 -0.238125,1.328209 M 8.9019552,12.988909 c -0.211666,0.06085 -0.473604,0.142875 -0.518583,0.280459 -0.04762,0.148166 0.03175,0.322791 0.04233,0.47625 0.04763,0.719666 0.161396,1.441979 0.420688,1.98702 0.05556,0.02646 0.137583,0.03175 0.140229,0.111125 0.04233,-0.0079 0.119063,0.01323 0.166688,0.06879 -0.0635,0.0079 -0.07938,-0.03175 -0.14023,-0.0291 0.291042,0.240771 0.822855,0.240771 1.3440838,0.251354 0.0291,-0.08202 0.169333,-0.03704 0.280458,-0.04233 0.116417,-0.0053 0.248708,-0.04763 0.378354,-0.06879 0.293688,-0.05292 0.550334,-0.103187 0.812271,-0.140229 0.388938,-0.05292 0.645583,-0.124354 0.9525,-0.224896 0.513292,-0.164042 0.981604,-0.415396 1.399646,-0.629708 0.05027,-0.02646 0,-0.145521 0.06879,-0.153459 0.105834,0.01058 0.198438,0.0344 0.280459,0.06879 0.277812,1.148292 0.428625,2.534708 0.965729,3.468687 0.515937,0.06879 1.180042,0.103188 1.468437,-0.182562 0.100542,-0.100542 0.283105,-0.481542 0.322792,-0.616479 0.01587,-0.04763 0.0026,-0.100542 0.01323,-0.153459 0.07144,-0.338666 0.264584,-0.698499 0.322792,-1.063624 0.08202,-0.529167 0.03175,-1.068917 0.08467,-1.524 0.148166,-0.0079 0.277812,0 0.322791,0.0979 -0.02117,0.613834 -0.0079,1.264709 -0.127,1.748896 0.486834,-0.06879 1.013354,-0.02381 1.481667,-0.0979 -0.01588,-0.267229 -0.06615,-0.52652 -0.0979,-0.783166 -0.03175,-0.272521 -0.103187,-0.523875 -0.140229,-0.783167 -0.04762,-0.322792 -0.0926,-0.624417 -0.182563,-0.936625 -0.08731,-0.301625 -0.08202,-0.632354 -0.251354,-0.894292 -0.550333,0.28575 -1.291166,0.373063 -2.055812,0.404813 -0.378354,0.01587 -0.783167,-0.02646 -1.187979,-0.01323 -0.907521,0.02646 -1.643063,0.04233 -2.505605,0.01323 -0.394229,-0.01323 -0.81227,0.04233 -1.16152,-0.0291 -0.256646,-0.05027 -0.738188,-0.150813 -0.812271,-0.362479 -0.07408,-0.214313 0.08996,-0.47625 0.01323,-0.61648 -0.709083,0.100542 -1.4525618,0.179917 -2.0981458,0.36248 m -1.878545,0.46831 c -0.301625,0.07144 -0.703792,0.111125 -0.8255,0.306917 -0.150813,0.248708 -0.01852,0.611187 0.195791,0.727604 0.08467,0.04498 0.259292,0.06879 0.404813,0.08467 0.148166,0.01587 0.357187,-0.0079 0.447146,0.05556 0.127,0.08996 0.0979,0.428625 0.195791,0.574146 0.100542,0.150812 0.320146,0.306917 0.47625,0.391583 0.15875,0.08731 0.378354,0.105834 0.587375,0.127 -0.0926,-0.145521 -0.0979,-0.343958 -0.153458,-0.531812 -0.0344,-0.111125 -0.08202,-0.209021 -0.111125,-0.322792 -0.129646,-0.478896 -0.116417,-1.127125 -0.209021,-1.621896 -0.425979,-0.01323 -0.616479,0.119063 -1.008062,0.209021 m 18.0631038,1.187979 c -0.28575,-0.0926 -0.48948,-0.1905 -0.740834,-0.293687 -0.254,-0.105834 -0.478896,-0.211667 -0.727604,-0.264584 -0.124354,-0.02646 -0.272521,-0.121708 -0.420687,-0.166687 -0.15875,-0.05027 -0.359834,-0.129646 -0.460375,-0.127 -0.113771,0.0026 -0.26723,0.0926 -0.391584,0.140229 -0.423333,0.164042 -0.79375,0.301625 -1.161521,0.47625 -0.03969,0.01588 0.02381,0.01588 0.02911,0 0.182562,-0.01852 0.254,0.124354 0.34925,0.209021 0.137583,0.124354 0.415395,0.150812 0.447145,0.293687 0.01852,0.07408 -0.05821,0.150813 -0.01323,0.224896 0.111125,-0.193146 0.150813,-0.455083 0.306917,-0.600604 0.08467,0.03175 0.166687,0.06615 0.224896,0.127 -0.0291,0.105833 -0.137584,0.219604 -0.166688,0.306917 -0.156104,0.447146 -0.365125,0.886354 -0.489479,1.370541 -0.113771,0.441855 -0.325437,0.817563 -0.336021,1.344084 0.232834,0.216958 0.661459,0.423333 1.090084,0.362479 0.05556,-0.0079 0.11377,-0.05292 0.195791,-0.08467 0.05821,-0.02117 0.132292,-0.01852 0.182563,-0.04233 0.09525,-0.04498 0.195791,-0.142875 0.293687,-0.209021 0.314854,-0.214313 0.592667,-0.433917 0.867834,-0.672042 0.161395,-0.140229 0.269875,-0.330729 0.420687,-0.502708 0.0979,-0.113771 0.227542,-0.201083 0.322792,-0.306917 0.108479,-0.121708 0.235479,-0.227541 0.306916,-0.322791 0.04498,-0.06085 0.05556,-0.145521 0.0979,-0.209021 0.166688,-0.264583 0.423333,-0.492125 0.502708,-0.783167 -0.267229,-0.04763 -0.465666,-0.179916 -0.727604,-0.264583 m -4.648729,0.03704 c 0.06615,0.05556 0.169334,0.07408 0.264584,0.0979 0.03969,-0.06879 0.121708,-0.124354 0.195791,-0.182562 0.0635,-0.05027 0.179917,-0.108479 0.166688,-0.153458 -0.195792,0.09525 -0.465667,0.111125 -0.629709,0.238125 m 0.844021,0 c -0.07937,0.07938 -0.203729,0.11377 -0.238125,0.238125 0.166688,0.0926 0.402167,0.195791 0.574146,0.238125 0.0344,-0.06879 0.05821,-0.148167 0.05556,-0.251355 -0.156105,-0.04763 -0.240771,-0.169333 -0.391584,-0.224895 m -1.539875,0.881062 c 0.04763,-0.22225 0.15875,-0.433917 0.182563,-0.658812 -0.0026,-0.01058 -0.01058,-0.01588 -0.0291,-0.01323 -0.10848,0.113771 -0.367771,0.09525 -0.404813,0.251355 -0.01323,0.05027 0.0291,0.121708 0.04233,0.182562 0.04233,0.182563 0.08467,0.436563 0.08467,0.658813 0.09525,-0.111125 0.0926,-0.261938 0.127,-0.420688 m 1.172095,-0.460379 c -0.04763,-0.01852 -0.108479,-0.01058 -0.153458,-0.0291 -0.169333,-0.06615 -0.293688,-0.211667 -0.489479,-0.182563 -0.179917,0.534459 -0.301625,1.12448 -0.433917,1.706563 0.370417,0.272521 0.933979,0.354542 1.455208,0.47625 0.0344,-0.246063 0.193146,-0.439208 0.169334,-0.6985 0.02646,0.02646 0.05556,0.01058 0.06879,-0.01323 0.0926,-0.280459 0.17198,-0.574146 0.280459,-0.838729 -0.264584,-0.129646 -0.579438,-0.304271 -0.894292,-0.420688 m 4.937125,0.404813 c -0.07937,0.124354 -0.148167,0.206375 -0.224896,0.306916 -0.04233,0.05821 -0.05821,0.140229 -0.0979,0.195792 -0.05821,0.07938 -0.161395,0.150812 -0.238125,0.238125 -0.07673,0.08731 -0.132291,0.198437 -0.20902,0.280458 -0.116417,0.121709 -0.269875,0.216959 -0.378355,0.34925 -0.243416,0.301625 -0.510645,0.574146 -0.783166,0.783167 -0.08202,0.0635 -0.174625,0.103187 -0.251354,0.166687 0.05556,0.05821 0.0926,0.283104 0.20902,0.306917 0.06086,0.01323 0.219605,-0.08731 0.306917,-0.127 0.703792,-0.304271 1.497542,-0.642938 2.12725,-0.923396 -0.08202,-0.661458 -0.08467,-1.397 -0.238125,-1.987021 -0.04498,0.161396 -0.134938,0.26723 -0.224896,0.404813 m -8.056562,1.502833 c -0.127,0.381 -0.187854,0.828146 -0.404813,1.119188 0.111125,-0.07408 0.232834,-0.05556 0.362479,-0.04233 0.64823,0.06615 1.500188,0.108479 1.987021,-0.127 0.108479,-0.439208 -0.15875,-0.806979 -0.378354,-1.050395 -0.518583,0.03704 -1.071562,0.03969 -1.566333,0.0979 m 7.178146,1.680104 c 0.103187,0.02381 0.203729,0.08996 0.293687,0.0979 0.03175,0 0.08202,-0.02646 0.111125,-0.0291 0.206375,-0.0079 0.425979,0.07144 0.642937,0.06879 0.127,0 0.28575,-0.0079 0.378355,-0.0291 0.219604,-0.05027 0.415395,-0.0926 0.47625,-0.280459 0.07408,-0.5715 -0.343959,-0.60325 -0.545042,-0.881062 -0.01588,-0.05821 0.03175,-0.182563 -0.0291,-0.195792 -0.714375,0.314854 -1.463146,0.597958 -2.153708,0.936625 0.211666,0.137583 0.518583,0.235479 0.8255,0.306917 m -2.127249,-0.399543 c -0.373063,0.09525 -0.8255,-0.03969 -1.105959,-0.166688 -0.134937,-0.06085 -0.248708,-0.195791 -0.378354,-0.224895 -0.164042,0.502708 -0.682625,0.724958 -0.587375,1.441979 0.177271,-0.121709 0.306917,-0.288396 0.433917,-0.463021 0.08996,-0.03175 0.235479,-0.01852 0.280458,0.04233 0.04763,0.423334 0.06615,0.875771 0.264583,1.148292 0.259292,-0.201083 0.07144,-0.769938 0.166688,-1.090083 0.134937,-0.04498 0.259292,0.02381 0.306917,0.111125 0,0.148166 -0.01323,0.301625 -0.01323,0.502708 0,0.161396 0.05821,0.425979 0.195792,0.433917 0.121708,0.0079 0.209021,-0.177271 0.224896,-0.293688 0.0344,-0.277812 -0.0979,-0.635 0.05556,-0.838729 0.14023,-0.01058 0.22225,0.03969 0.280459,0.111125 0.02117,0.291042 -0.103188,0.714375 0.111125,0.838729 0.04498,-0.261937 0.134937,-0.529167 0.0979,-0.867833 0.119062,-0.07937 0.243416,-0.01588 0.306916,0.06879 0.0291,0.269875 0.05821,0.537105 0.195792,0.6985 0.05292,-0.04498 0.07673,-0.119062 0.127,-0.166687 0.0344,-0.621771 -0.09525,-1.187979 -0.378354,-1.566333 -0.214313,0.08467 -0.375709,0.224895 -0.587375,0.280458 M 17.940117,19.07433 C 17.8237,18.780642 17.508846,18.53458 17.310409,18.346726 h -0.02911 c -0.415395,0.407458 -1.494895,0.452437 -2.098145,0.182562 -0.15875,0.153458 -0.415396,0.283104 -0.560917,0.47625 -0.06615,0.08731 -0.177271,0.288396 -0.140229,0.404813 0.03175,0.108479 0.1905,0.129645 0.336021,0.111125 0.224895,-0.02646 0.325437,-0.1905 0.55827,-0.14023 0.211667,0.301625 0.325438,0.701146 0.756709,0.783167 0.08731,-0.259292 -0.116417,-0.460375 -0.127,-0.714375 0.531812,-0.280458 0.264583,0.674688 0.769937,0.600604 0.148167,-0.209021 -0.06615,-0.449791 -0.0979,-0.658812 0.03175,-0.08996 0.164042,-0.07144 0.264584,-0.05556 0.156104,0.156104 0.174625,0.523875 0.433916,0.531813 0.06879,-0.195792 0,-0.407459 -0.04233,-0.600604 0.05556,-0.04233 0.153458,-0.04233 0.251354,-0.04233 0.164042,0.124354 0.124354,0.452438 0.391584,0.47625 0.0926,-0.214312 0.03175,-0.441854 -0.04233,-0.629708"
           id="path1884"
           style="fill:#65b7ec;fill-rule:evenodd;stroke-width:0.264583" />
        <path
           class="cls-15"
           d="m 15.183157,18.529292 -0.936625,-3.65125 -1.468438,0.783167 c 0,0 -2.772833,0.709083 -3.8047078,0.47625 -1.034521,-0.232833 0,0 0,0 -0.0926,-0.04498 -0.179917,-0.129646 -0.267229,-0.153458 -0.142875,-0.04233 -0.34925,-0.03704 -0.518584,-0.06879 -0.328083,-0.06615 -0.566208,-0.240771 -0.783166,-0.447146 -0.166688,-0.15875 -0.359834,-0.312208 -0.378354,-0.629708 -0.246063,-0.07673 -0.555625,-0.05027 -0.783167,-0.195792 -0.07144,-0.04498 -0.298979,-0.264583 -0.336021,-0.336021 -0.06879,-0.132291 -0.02117,-0.291041 -0.0979,-0.433916 0.08467,-0.182563 0.15875,-0.378355 0.336021,-0.47625 0.1905,-0.105834 0.478896,-0.14023 0.727604,-0.195792 0.119063,-0.02646 0.243417,-0.0635 0.362479,-0.0979 0.124355,-0.0344 0.261938,-0.08467 0.36248,-0.0979 0.169333,-0.02381 0.301625,0.01852 0.46302,-0.01323 0.153459,-0.03175 0.309563,-0.145521 0.47625,-0.195792 0.179917,-0.05292 0.36248,-0.07937 0.545042,-0.127 0.06615,-0.01588 0.127,-0.06615 0.195792,-0.08467 0.230187,-0.05821 0.497416,-0.07408 0.7567078,-0.0979 0.359833,-0.0344 0.637646,-0.127 1.050396,-0.111125 0.0926,-0.07144 0.04498,-0.280458 0.0979,-0.391583 -0.169334,-0.322792 -0.354542,-0.624417 -0.378354,-1.063625 -0.03969,-0.740834 -0.0053,-1.3334999 0.153458,-1.9579169 0.153458,-0.605896 0.343958,-1.076854 0.658812,-1.553104 0.14023,-0.214313 0.301625,-0.357188 0.48948,-0.531813 0.07938,-0.07408 0.148166,-0.164041 0.224895,-0.224896 0.07937,-0.06085 0.193146,-0.11377 0.293688,-0.182562 0.248708,-0.166688 0.619125,-0.381 0.965729,-0.447146 0.261937,-0.05027 0.574146,-0.05556 0.854604,-0.05556 0.685271,0 1.399646,0.108479 1.957917,0.33602 0.992187,0.402167 1.791229,1.008063 2.12725,2.084917 0.03704,-0.632354 -0.06085,-1.410229 -0.05556,-2.111375 0,-0.314854 -0.0079,-0.60325 -0.04233,-0.867833 -0.0079,-0.07144 0,-0.153459 -0.01323,-0.209021 -0.02117,-0.07937 -0.08202,-0.08731 -0.05556,-0.166688 0.0979,-0.08202 0.216959,-0.03175 0.293688,0 0.100541,0.04233 0.166687,0.137584 0.251354,0.182563 0.116417,0.05821 0.254,0.07937 0.378354,0.127 0.174625,0.06615 0.343958,0.145521 0.518583,0.209021 0.523875,0.193146 1.098021,0.341312 1.621896,0.531812 0.264584,-0.216958 0.515938,-0.4445 0.8255,-0.616479 0.179917,-0.1905 0.428625,-0.301625 0.658813,-0.447146 0.431271,-0.277812 0.873125,-0.605896 1.314979,-0.894291 0.219604,-0.142875 0.439208,-0.322792 0.685271,-0.420688 0.08996,-0.03704 0.280458,0.0291 0.322791,0.08467 0.07408,0.100542 0.08731,0.457729 0.111125,0.629708 0.03175,0.214313 0.05556,0.436563 0.0979,0.629708 0.01323,0.06086 0.05556,0.124355 0.06879,0.182563 0.145521,0.600604 0.171979,1.307042 0.322791,1.846792 0.674688,0.216958 1.277938,0.473604 1.973792,0.714375 0.492125,0.169333 0.918104,0.396875 1.399646,0.616479 0.137583,0.0635 0.41275,0.132291 0.420687,0.251354 0.0079,0.113771 -0.351895,0.34925 -0.47625,0.433917 -0.732895,0.49477 -1.328208,1.0847909 -2.013479,1.5954369 0.03704,1.121833 0.0926,2.434167 0.111125,3.624792 0.0053,0.293687 -0.02646,0.600604 0,0.854604 0.01058,0.111125 0.09525,0.235479 -0.04233,0.306917 -0.269875,-0.02381 -0.497417,-0.211667 -0.783167,-0.264584 M 24.319219,4.4270011 c -0.177271,0.124354 -0.351896,0.251354 -0.531812,0.378354 -0.452438,0.3175 -0.96573,0.632354 -1.399646,0.936625 -0.0926,0.06615 -0.193146,0.134937 -0.293688,0.209021 -0.134937,0.100541 -0.436562,0.428625 -0.545041,0.433916 -0.08202,0.0026 -0.142875,-0.04233 -0.224896,-0.06879 -0.489479,-0.166688 -0.994834,-0.322792 -1.455209,-0.47625 -0.388937,-0.129646 -0.772583,-0.309563 -1.119187,-0.447146 0.08996,0.918104 0.100542,1.920875 0.127,2.897187 0.01323,0.441854 0.03175,0.878417 0.01323,1.30175 -0.0026,0.08467 0.0291,0.193146 0.01323,0.280459 -0.0079,0.05292 -0.06879,0.0979 -0.08467,0.1666869 -0.04762,0.230188 0.02117,0.521229 0.01323,0.812271 -0.0026,0.132292 -0.01852,0.280458 -0.0291,0.420687 -0.01058,0.15875 -0.05556,0.336021 -0.02911,0.447146 0.01852,0.07408 0.09525,0.156104 0.127,0.224896 0.03969,0.08731 0.07937,0.166688 0.0979,0.264583 0.0344,0.187855 0.0926,0.48948 0.05556,0.672042 -0.01058,0.05821 -0.08467,0.121708 -0.08467,0.195792 0,0.0926 0.105833,0.224896 0.140229,0.322791 0.148167,0.418042 0.201084,1.000125 0.336021,1.386417 0.629708,-0.269875 1.275292,-0.523875 1.915583,-0.783167 0.05556,0 0.04498,-0.06614 0.08467,-0.08467 0.08996,0.0635 0.166688,-0.08202 0.306917,-0.05556 0.227541,-0.119062 0.653521,-0.357187 0.9525,-0.34925 0.156104,0.0026 0.211666,0.08996 0.322791,0.127 0.06615,0.02117 0.14023,0.0079 0.209021,0.0291 0.111125,0.0291 0.219604,0.0926 0.336021,0.127 0.817563,0.238125 1.611313,0.653521 2.365375,0.910167 0.140229,-0.134937 0.383646,0.02117 0.404812,0.182563 0.209021,0.05821 0.357188,0.174625 0.574146,0.224895 -0.03175,-1.381125 -0.04762,-2.794 -0.111125,-4.169833 -0.06615,-0.06879 -0.216958,-0.0926 -0.195791,-0.224896 0.0053,-0.03704 0.254,-0.246062 0.280458,-0.264583 0.06615,-0.05027 0.156104,-0.07673 0.224896,-0.127 0.09525,-0.06879 0.161396,-0.174625 0.238125,-0.238125 0.07673,-0.06085 0.174625,-0.0979 0.251354,-0.1666879 0.07408,-0.06615 0.129646,-0.161395 0.209021,-0.224895 0.216958,-0.17198 0.433916,-0.338667 0.642937,-0.518584 0.224896,-0.1905 0.489479,-0.314854 0.672042,-0.502708 -0.759354,-0.362479 -1.592792,-0.693208 -2.420938,-1.008063 -0.320145,-0.121708 -0.672041,-0.306916 -1.050395,-0.280458 -0.164042,-0.07408 -0.150813,-0.182562 -0.195792,-0.365125 -0.04498,-0.182562 -0.08202,-0.383646 -0.111125,-0.587375 -0.119062,-0.809625 -0.296333,-1.640417 -0.391583,-2.378604 h -0.0291 c -0.182563,0.132292 -0.41275,0.235479 -0.61648,0.378354 z M 11.322886,13.158251 c 0.193146,0.142875 0.489479,0.206375 0.783167,0.224895 0.354541,0.01852 0.743479,0.04233 1.076854,0.04233 0.224895,0 0.447145,-0.04233 0.6985,-0.04233 0.714375,0 1.49225,0.01323 2.238375,0.01323 0.965729,0 1.886479,-0.02911 2.46327,-0.378355 -0.0053,-0.127 0.09525,-0.111125 0.127,-0.20902 0.02911,-0.100542 -0.01588,-0.246063 -0.0291,-0.34925 -0.01588,-0.129646 -0.01588,-0.259292 -0.04233,-0.34925 -0.05027,-0.169334 -0.1905,-0.280459 -0.209021,-0.420688 -0.03704,-0.243417 0.04498,-0.500062 0.05556,-0.6985 0.01058,-0.206375 -0.0079,-0.431271 -0.01323,-0.642937 -0.0053,-0.238125 0.01587,-0.4815419 0,-0.6984999 -0.0344,-0.494771 -0.17727,-0.915459 -0.33602,-1.344084 -0.261938,-0.709083 -0.690563,-1.105958 -1.272646,-1.455208 -0.211667,-0.127 -0.447146,-0.246063 -0.6985,-0.336021 -0.452438,-0.15875 -1.209146,-0.325437 -1.833563,-0.251354 -0.211666,0.02646 -0.460375,0.01058 -0.685271,0.05556 -0.322791,0.0635 -0.640291,0.264584 -0.854604,0.420688 -0.0926,0.06615 -0.195791,0.108479 -0.267229,0.166687 -0.05821,0.05027 -0.103187,0.132292 -0.166687,0.195792 -0.06615,0.0635 -0.153459,0.105833 -0.209021,0.166688 -0.140229,0.156104 -0.267229,0.378354 -0.391583,0.574145 -0.473605,0.751417 -0.756709,1.883834 -0.61648,3.1062089 0.03704,0.312208 0.132292,0.566208 0.264584,0.8255 0.02646,0.04498 0.166687,-0.02646 0.153458,0.05556 -0.05292,0.404813 -0.254,0.854604 -0.238125,1.328209 z m -4.2968328,0.293687 c -0.301625,0.07144 -0.703792,0.111125 -0.8255,0.306917 -0.150813,0.248708 -0.01852,0.611187 0.195791,0.727604 0.08467,0.04498 0.259292,0.06879 0.404813,0.08467 0.148166,0.01587 0.357187,-0.0079 0.447146,0.05556 0.127,0.08996 0.0979,0.428625 0.195791,0.574146 0.100542,0.150812 0.320146,0.306917 0.47625,0.391583 0.15875,0.08731 0.378354,0.105834 0.587375,0.127 -0.0926,-0.145521 -0.0979,-0.343958 -0.153458,-0.531812 -0.0344,-0.111125 -0.08202,-0.209021 -0.111125,-0.322792 -0.129646,-0.478896 -0.116417,-1.127125 -0.209021,-1.621896 -0.425979,-0.01323 -0.616479,0.119063 -1.008062,0.20902 z m 18.0631038,1.187979 c -0.28575,-0.0926 -0.48948,-0.1905 -0.740834,-0.293687 -0.254,-0.105834 -0.478896,-0.211667 -0.727604,-0.264584 -0.124354,-0.02646 -0.272521,-0.121708 -0.420687,-0.166687 -0.15875,-0.05027 -0.359834,-0.129646 -0.460375,-0.127 -0.113771,0.0026 -0.26723,0.0926 -0.391584,0.140229 -0.423333,0.164042 -0.79375,0.301625 -1.161521,0.47625 -0.03969,0.01588 0.02381,0.01588 0.02911,0 0.182562,-0.01852 0.254,0.124354 0.34925,0.209021 0.137583,0.124354 0.415395,0.150812 0.447145,0.293687 0.01852,0.07408 -0.05821,0.150813 -0.01323,0.224896 0.111125,-0.193146 0.150813,-0.455083 0.306917,-0.600604 0.08467,0.03175 0.166687,0.06615 0.224896,0.127 -0.0291,0.105833 -0.137584,0.219604 -0.166688,0.306917 -0.156104,0.447146 -0.365125,0.886354 -0.489479,1.370541 -0.113771,0.441855 -0.325437,0.817563 -0.336021,1.344084 0.232834,0.216958 0.661459,0.423333 1.090084,0.362479 0.05556,-0.0079 0.11377,-0.05292 0.195791,-0.08467 0.05821,-0.02117 0.132292,-0.01852 0.182563,-0.04233 0.09525,-0.04498 0.195791,-0.142875 0.293687,-0.209021 0.314854,-0.214313 0.592667,-0.433917 0.867834,-0.672042 0.161395,-0.140229 0.269875,-0.330729 0.420687,-0.502708 0.0979,-0.113771 0.227542,-0.201083 0.322792,-0.306917 0.108479,-0.121708 0.235479,-0.227541 0.306916,-0.322791 0.04498,-0.06085 0.05556,-0.145521 0.0979,-0.209021 0.166688,-0.264583 0.423333,-0.492125 0.502708,-0.783167 -0.267229,-0.04763 -0.465666,-0.179916 -0.727604,-0.264583 z m -4.646084,0.04233 c 0.06615,0.05556 0.169334,0.07408 0.264584,0.0979 0.03969,-0.06879 0.121708,-0.124354 0.195791,-0.182562 0.0635,-0.05027 0.179917,-0.108479 0.166688,-0.153458 -0.195792,0.09525 -0.465667,0.111125 -0.629709,0.238125 z m 0.841375,0 c -0.07937,0.07938 -0.203729,0.11377 -0.238125,0.238125 0.166688,0.0926 0.402167,0.195791 0.574146,0.238125 0.0344,-0.06879 0.05821,-0.148167 0.05556,-0.251355 -0.156105,-0.04763 -0.240771,-0.169333 -0.391584,-0.224895 z m -1.539875,0.881062 c 0.04763,-0.22225 0.15875,-0.433917 0.182563,-0.658812 -0.0026,-0.01058 -0.01058,-0.01588 -0.0291,-0.01323 -0.10848,0.113771 -0.367771,0.09525 -0.404813,0.251355 -0.01323,0.05027 0.0291,0.121708 0.04233,0.182562 0.04233,0.182563 0.08467,0.436563 0.08467,0.658813 0.09525,-0.111125 0.0926,-0.261938 0.127,-0.420688 z m 1.17475,-0.460375 c -0.04763,-0.01852 -0.108479,-0.01058 -0.153458,-0.0291 -0.169333,-0.06615 -0.293688,-0.211667 -0.489479,-0.182563 -0.179917,0.534459 -0.301625,1.12448 -0.433917,1.706563 0.370417,0.272521 0.933979,0.354542 1.455208,0.47625 0.0344,-0.246063 0.193146,-0.439208 0.169334,-0.6985 0.02646,0.02646 0.05556,0.01058 0.06879,-0.01323 0.0926,-0.280459 0.17198,-0.574146 0.280459,-0.838729 -0.264584,-0.129646 -0.579438,-0.304271 -0.894292,-0.420688 z m 4.939771,0.404813 c -0.07937,0.124354 -0.148167,0.206375 -0.224896,0.306916 -0.04233,0.05821 -0.05821,0.140229 -0.0979,0.195792 -0.05821,0.07938 -0.161395,0.150812 -0.238125,0.238125 -0.07673,0.08731 -0.132291,0.198437 -0.20902,0.280458 -0.116417,0.121709 -0.269875,0.216959 -0.378355,0.34925 -0.243416,0.301625 -0.510645,0.574146 -0.783166,0.783167 -0.08202,0.0635 -0.174625,0.103187 -0.251354,0.166687 0.05556,0.05821 0.0926,0.283104 0.20902,0.306917 0.06086,0.01323 0.219605,-0.08731 0.306917,-0.127 0.703792,-0.304271 1.497542,-0.642938 2.12725,-0.923396 -0.08202,-0.661458 -0.08467,-1.397 -0.238125,-1.987021 -0.04498,0.161396 -0.134938,0.26723 -0.224896,0.404813 z m -8.059208,1.497541 c -0.127,0.381 -0.187854,0.828146 -0.404813,1.119188 0.111125,-0.07408 0.232834,-0.05556 0.362479,-0.04233 0.64823,0.06615 1.500188,0.108479 1.987021,-0.127 0.108479,-0.439208 -0.15875,-0.806979 -0.378354,-1.050395 -0.518583,0.03704 -1.071562,0.03969 -1.566333,0.0979 z m 7.178146,1.677458 c 0.103187,0.02381 0.203729,0.08996 0.293687,0.0979 0.03175,0 0.08202,-0.02646 0.111125,-0.0291 0.206375,-0.0079 0.425979,0.07144 0.642937,0.06879 0.127,0 0.28575,-0.0079 0.378355,-0.0291 0.219604,-0.05027 0.415395,-0.0926 0.47625,-0.280459 0.07408,-0.5715 -0.343959,-0.60325 -0.545042,-0.881062 -0.01588,-0.05821 0.03175,-0.182563 -0.0291,-0.195792 -0.714375,0.314854 -1.463146,0.597958 -2.153708,0.936625 0.211666,0.137583 0.518583,0.235479 0.8255,0.306917 z m -2.12725,-0.404808 c -0.373063,0.09525 -0.8255,-0.03969 -1.105959,-0.166688 -0.134937,-0.06085 -0.248708,-0.195791 -0.378354,-0.224895 -0.164042,0.502708 -0.682625,0.724958 -0.587375,1.441979 0.177271,-0.121709 0.306917,-0.288396 0.433917,-0.463021 0.08996,-0.03175 0.235479,-0.01852 0.280458,0.04233 0.04763,0.423334 0.06615,0.875771 0.264583,1.148292 0.259292,-0.201083 0.07144,-0.769938 0.166688,-1.090083 0.134937,-0.04498 0.259292,0.02381 0.306917,0.111125 0,0.148166 -0.01323,0.301625 -0.01323,0.502708 0,0.161396 0.05821,0.425979 0.195792,0.433917 0.121708,0.0079 0.209021,-0.177271 0.224896,-0.293688 0.0344,-0.277812 -0.0979,-0.635 0.05556,-0.838729 0.14023,-0.01058 0.22225,0.03969 0.280459,0.111125 0.02117,0.291042 -0.103188,0.714375 0.111125,0.838729 0.04498,-0.261937 0.134937,-0.529167 0.0979,-0.867833 0.119062,-0.07937 0.243416,-0.01588 0.306916,0.06879 0.0291,0.269875 0.05821,0.537105 0.195792,0.6985 0.05292,-0.04498 0.07673,-0.119062 0.127,-0.166687 0.0344,-0.621771 -0.09525,-1.187979 -0.378354,-1.566333 -0.214313,0.08467 -0.375709,0.224895 -0.587375,0.280458 z m -4.910667,0.796396 c -0.116417,-0.293688 -0.431271,-0.53975 -0.629708,-0.727604 h -0.02911 c -0.415395,0.407458 -1.494895,0.452437 -2.098145,0.182562 -0.15875,0.153458 -0.415396,0.283104 -0.560917,0.47625 -0.06615,0.08731 -0.177271,0.288396 -0.140229,0.404813 0.03175,0.108479 0.1905,0.129645 0.336021,0.111125 0.224895,-0.02646 0.325437,-0.1905 0.55827,-0.14023 0.211667,0.301625 0.325438,0.701146 0.756709,0.783167 0.08731,-0.259292 -0.116417,-0.460375 -0.127,-0.714375 0.531812,-0.280458 0.264583,0.674688 0.769937,0.600604 0.148167,-0.209021 -0.06615,-0.449791 -0.0979,-0.658812 0.03175,-0.08996 0.164042,-0.07144 0.264584,-0.05556 0.156104,0.156104 0.174625,0.523875 0.433916,0.531813 0.06879,-0.195792 0,-0.407459 -0.04233,-0.600604 0.05556,-0.04233 0.153458,-0.04233 0.251354,-0.04233 0.164042,0.124354 0.124354,0.452438 0.391584,0.47625 0.0926,-0.214312 0.03175,-0.441854 -0.04233,-0.629708 z"
           id="path1886"
           style="fill:none;stroke:#65b7ec;stroke-width:1.74096px;stroke-linecap:round;stroke-linejoin:round" />
        <path
           class="cls-27"
           d="m 24.935698,4.0486461 h 0.0291 c 0.09525,0.738188 0.272521,1.56898 0.391584,2.378605 0.0291,0.203729 0.06615,0.404812 0.111125,0.587375 0.04498,0.182562 0.03175,0.291041 0.195791,0.365125 0.375709,-0.02646 0.73025,0.15875 1.050396,0.280458 0.828146,0.314854 1.661583,0.642937 2.420938,1.008062 -0.182563,0.187855 -0.447146,0.312209 -0.672042,0.502709 -0.209021,0.177271 -0.428625,0.346604 -0.642938,0.518583 -0.07937,0.0635 -0.137583,0.15875 -0.20902,0.224896 -0.07673,0.06879 -0.174625,0.1058329 -0.251355,0.1666869 -0.07673,0.06086 -0.142875,0.166688 -0.238125,0.238125 -0.6985,0.513292 -0.267229,1.576917 -0.248708,2.346855 0.02117,0.81227 0.0344,1.624541 0.05292,2.436812 0,-0.01852 -0.508,-0.201083 -0.560917,-0.219604 -0.201083,-0.06615 -0.373062,-0.179917 -0.576792,-0.243417 -0.251354,-0.07673 -0.49477,-0.193146 -0.738187,-0.293687 -0.481542,-0.203729 -0.965729,-0.41275 -1.468437,-0.558271 -0.116417,-0.0344 -0.224896,-0.09525 -0.336021,-0.127 -0.06879,-0.01852 -0.142875,-0.0079 -0.209021,-0.0291 -0.111125,-0.0344 -0.164042,-0.121709 -0.322792,-0.127 -0.298979,-0.0079 -0.724958,0.232833 -0.9525,0.34925 -0.140229,-0.02646 -0.219604,0.121708 -0.306916,0.05556 -0.03969,0.01852 -0.02911,0.08202 -0.08467,0.08467 -0.597958,0.240771 -1.259417,0.674687 -1.905,0.743479 -0.214313,0.02381 0.07144,-1.973792 0,-2.182812 -0.15875,-0.478896 -0.410104,-0.717021 -0.391583,-1.267355 0.01588,-0.457729 0.140229,-0.936625 0.116416,-1.3731869 -0.03969,-0.73025 -0.309562,-1.404938 -0.328083,-2.153708 -0.01852,-0.791105 -0.03704,-1.582209 -0.113771,-2.370667 0.346604,0.137583 0.73025,0.320146 1.119188,0.447146 0.460375,0.153458 0.965729,0.309562 1.455208,0.47625 0.07937,0.02646 0.142875,0.07408 0.224896,0.06879 0.108479,-0.0053 0.410104,-0.333375 0.545041,-0.433916 0.100542,-0.07408 0.201084,-0.145521 0.293688,-0.209021 0.431271,-0.306917 0.947208,-0.619125 1.399646,-0.936625 0.179916,-0.127 0.354541,-0.254 0.531812,-0.378354 0.201084,-0.142875 0.433917,-0.243417 0.616479,-0.378354"
           id="path1888"
           style="fill:#f6ed36;fill-rule:evenodd;stroke-width:0.264583" />
        <path
           class="cls-27"
           d="m 11.561011,11.827396 c 0.01323,-0.08202 -0.127,-0.01058 -0.153458,-0.05556 -0.134938,-0.259292 -0.230188,-0.513292 -0.264584,-0.8255 -0.142875,-1.2223749 0.140229,-2.3547919 0.616479,-3.1062079 0.124355,-0.195792 0.254,-0.418042 0.391584,-0.574146 0.05556,-0.0635 0.145521,-0.105834 0.209021,-0.166688 0.0635,-0.0635 0.108479,-0.145521 0.166687,-0.195791 0.06879,-0.05821 0.174625,-0.100542 0.267229,-0.166688 0.214313,-0.153458 0.531813,-0.354542 0.854604,-0.420687 0.224896,-0.04498 0.473604,-0.0291 0.685271,-0.05556 0.624417,-0.07408 1.381125,0.0926 1.833563,0.251354 0.251354,0.08996 0.486833,0.209021 0.6985,0.336021 0.584729,0.34925 1.010708,0.746125 1.272645,1.455208 0.15875,0.428625 0.301625,0.849313 0.336021,1.344084 0.01588,0.219604 -0.0053,0.4630209 0,0.6984999 0.0053,0.211666 0.02646,0.439208 0.01323,0.642937 -0.01058,0.198438 -0.0926,0.455084 -0.05556,0.6985 0.02117,0.140229 0.161396,0.251354 0.209021,0.420688 0.02646,0.08996 0.02646,0.219604 0.04233,0.34925 0.01323,0.105833 0.05821,0.251354 0.0291,0.34925 -0.0291,0.0979 -0.132291,0.08202 -0.127,0.209021 -0.576791,0.346604 -1.497541,0.378354 -2.463271,0.378354 -0.746125,0 -1.526645,-0.01323 -2.238375,-0.01323 -0.254,0 -0.47625,0.04233 -0.6985,0.04233 -0.333375,0 -0.722312,-0.02117 -1.076854,-0.04233 -0.293687,-0.01588 -0.59002,-0.08202 -0.783166,-0.224896 -0.01587,-0.473604 0.185208,-0.923396 0.238125,-1.328209 m 4.90802,-2.9924369 c -0.386291,-0.41275 -0.997479,-0.931333 -1.833562,-0.769938 -0.211667,0.04233 -0.431271,-0.01058 -0.629708,0.02911 -0.179917,0.03704 -0.386292,0.124354 -0.574146,0.195791 -0.298979,0.113771 -0.563563,0.3175 -0.727604,0.531813 -0.375709,0.484187 -0.523875,1.3493749 -0.433917,2.1272499 0.06879,0.595312 0.381,1.209146 0.812271,1.539875 0.269875,0.206375 0.650875,0.357187 1.034521,0.420687 0.0635,0.01058 0.121708,0.05027 0.182562,0.05556 0.174625,0.02117 0.423333,0.01058 0.616479,-0.0291 0.132292,-0.02646 0.254,-0.103188 0.391584,-0.153459 0.09525,-0.0344 0.201083,-0.03704 0.280458,-0.06879 0.314854,-0.127 0.6985,-0.420688 0.867833,-0.642938 0.03969,-0.05292 0.06615,-0.134937 0.111125,-0.195792 0.04233,-0.05821 0.103188,-0.108479 0.140229,-0.166687 0.187855,-0.312208 0.264584,-0.635 0.293688,-1.105958 0.05027,-0.103188 0.259292,-0.09525 0.224896,-0.251355 -0.02117,-0.0926 -0.113771,-0.06615 -0.209021,-0.111125 0.01058,-0.6297079 -0.246063,-1.0794999 -0.545042,-1.3996449"
           id="path1890"
           style="fill:#f6ed36;fill-rule:evenodd;stroke-width:0.264583" />
        <path
           class="cls-27"
           d="m 19.617573,15.984001 c 0,-0.219605 -0.04233,-0.47625 -0.08467,-0.658813 -0.01323,-0.06085 -0.05556,-0.132292 -0.04233,-0.182562 0.03969,-0.156105 0.296334,-0.137584 0.404813,-0.251355 0.01588,0 0.02381,0.0026 0.0291,0.01323 -0.02381,0.224895 -0.134938,0.436562 -0.182563,0.658812 -0.03439,0.15875 -0.03175,0.309563 -0.127,0.420688"
           id="path1892"
           style="fill:#f6ed36;fill-rule:evenodd;stroke-width:0.264583" />
        <path
           class="cls-6"
           d="m 19.617573,15.984001 c 0,-0.219605 -0.04233,-0.47625 -0.08467,-0.658813 -0.01323,-0.06085 -0.05556,-0.132292 -0.04233,-0.182562 0.03969,-0.156105 0.296334,-0.137584 0.404813,-0.251355 0.01588,0 0.02381,0.0026 0.0291,0.01323 -0.02381,0.224895 -0.134938,0.436562 -0.182563,0.658812 -0.03439,0.15875 -0.03175,0.309563 -0.127,0.420688 z"
           id="path1894"
           style="fill:none;stroke:#65b7ec;stroke-width:0.410104px;stroke-miterlimit:10" />
        <path
           class="cls-27"
           d="m 26.081344,15.102938 c 0.153458,0.590021 0.156104,1.325563 0.238125,1.987021 -0.629708,0.280458 -1.420812,0.619125 -2.12725,0.923396 -0.08731,0.03704 -0.246062,0.137583 -0.306917,0.127 -0.116416,-0.02381 -0.153458,-0.251355 -0.20902,-0.306917 0.07673,-0.0635 0.169333,-0.105833 0.251354,-0.166688 0.275166,-0.20902 0.53975,-0.481541 0.783166,-0.783166 0.105834,-0.132292 0.261938,-0.227542 0.378355,-0.34925 0.07673,-0.08202 0.134937,-0.193146 0.20902,-0.280458 0.07673,-0.08731 0.179917,-0.15875 0.238125,-0.238125 0.03969,-0.05556 0.05556,-0.137584 0.0979,-0.195792 0.07408,-0.103188 0.142875,-0.185208 0.224896,-0.306917 0.08996,-0.140229 0.179917,-0.243416 0.224896,-0.404812"
           id="path1896"
           style="fill:#f6ed36;fill-rule:evenodd;stroke-width:0.264583" />
        <path
           class="cls-2"
           d="m 26.081344,15.102938 c 0.153458,0.590021 0.156104,1.325563 0.238125,1.987021 -0.629708,0.280458 -1.420812,0.619125 -2.12725,0.923396 -0.08731,0.03704 -0.246062,0.137583 -0.306917,0.127 -0.116416,-0.02381 -0.153458,-0.251355 -0.20902,-0.306917 0.07673,-0.0635 0.169333,-0.105833 0.251354,-0.166688 0.275166,-0.20902 0.53975,-0.481541 0.783166,-0.783166 0.105834,-0.132292 0.261938,-0.227542 0.378355,-0.34925 0.07673,-0.08202 0.134937,-0.193146 0.20902,-0.280458 0.07673,-0.08731 0.179917,-0.15875 0.238125,-0.238125 0.03969,-0.05556 0.05556,-0.137584 0.0979,-0.195792 0.07408,-0.103188 0.142875,-0.185208 0.224896,-0.306917 0.08996,-0.140229 0.179917,-0.243416 0.224896,-0.404812 z"
           id="path1898"
           style="fill:none;stroke:#65b7ec;stroke-width:0.410104px;stroke-linecap:round;stroke-linejoin:round" />
        <path
           class="cls-27"
           d="m 19.366219,16.907396 c 0.219604,0.243417 0.486833,0.611188 0.378354,1.050396 -0.486833,0.235479 -1.338791,0.193146 -1.987021,0.127 -0.129645,-0.01323 -0.251354,-0.03175 -0.362479,0.04233 0.216959,-0.291041 0.280459,-0.738187 0.404813,-1.119187 0.497416,-0.05821 1.050396,-0.06085 1.566333,-0.0979"
           id="path1900"
           style="fill:#f6ed36;fill-rule:evenodd;stroke-width:0.264583" />
        <path
           class="cls-27"
           d="m 25.816761,14.907146 c -0.08202,0.291042 -0.338667,0.52123 -0.502709,0.783167 -0.04233,0.06615 -0.05292,0.148167 -0.0979,0.209021 -0.07144,0.09525 -0.198438,0.198437 -0.306917,0.322792 -0.09525,0.105833 -0.22225,0.193145 -0.322792,0.306916 -0.150812,0.171979 -0.259291,0.362479 -0.420687,0.502709 -0.275167,0.238124 -0.552979,0.457729 -0.867834,0.672041 -0.0979,0.06615 -0.198437,0.164042 -0.293687,0.209021 -0.05027,0.02381 -0.121708,0.02117 -0.182563,0.04233 -0.08202,0.0291 -0.140229,0.07673 -0.195791,0.08467 -0.428625,0.06085 -0.85725,-0.145521 -1.090084,-0.365125 0.01058,-0.526521 0.22225,-0.902229 0.336021,-1.344083 0.124354,-0.484188 0.333375,-0.923396 0.489479,-1.370542 0.03175,-0.08731 0.137584,-0.201083 0.166688,-0.306917 -0.05556,-0.06085 -0.137583,-0.09525 -0.224896,-0.127 -0.156104,0.148167 -0.198437,0.410105 -0.306917,0.600605 -0.04498,-0.07408 0.03175,-0.148167 0.01323,-0.224896 -0.0344,-0.142875 -0.309563,-0.169334 -0.447146,-0.293688 -0.09525,-0.08467 -0.166688,-0.227541 -0.34925,-0.209021 -0.0053,0.01588 -0.06879,0.01588 -0.0291,0 0.36777,-0.174625 0.687916,-0.386291 1.11125,-0.552979 0.124354,-0.04763 0.280458,-0.134937 0.391583,-0.140229 0.100542,-0.0026 0.354542,0.150813 0.513292,0.201083 0.148166,0.04763 0.293687,0.14023 0.420687,0.166688 0.248708,0.05292 0.473604,0.15875 0.727604,0.264583 0.251354,0.105834 0.457729,0.201084 0.740834,0.293688 0.261937,0.08467 0.460375,0.219604 0.727604,0.264583"
           id="path1902"
           style="fill:#f6ed36;fill-rule:evenodd;stroke-width:0.264583" />
        <path
           class="cls-6"
           d="m 25.816761,14.907146 c -0.08202,0.291042 -0.338667,0.52123 -0.502709,0.783167 -0.04233,0.06615 -0.05292,0.148167 -0.0979,0.209021 -0.07144,0.09525 -0.198438,0.198437 -0.306917,0.322792 -0.09525,0.105833 -0.22225,0.193145 -0.322792,0.306916 -0.150812,0.171979 -0.259291,0.362479 -0.420687,0.502709 -0.275167,0.238124 -0.552979,0.457729 -0.867834,0.672041 -0.0979,0.06615 -0.198437,0.164042 -0.293687,0.209021 -0.05027,0.02381 -0.121708,0.02117 -0.182563,0.04233 -0.08202,0.0291 -0.140229,0.07673 -0.195791,0.08467 -0.428625,0.06085 -0.85725,-0.145521 -1.090084,-0.365125 0.01058,-0.526521 0.22225,-0.902229 0.336021,-1.344083 0.124354,-0.484188 0.333375,-0.923396 0.489479,-1.370542 0.03175,-0.08731 0.137584,-0.201083 0.166688,-0.306917 -0.05556,-0.06085 -0.137583,-0.09525 -0.224896,-0.127 -0.156104,0.148167 -0.198437,0.410105 -0.306917,0.600605 -0.04498,-0.07408 0.03175,-0.148167 0.01323,-0.224896 -0.0344,-0.142875 -0.309563,-0.169334 -0.447146,-0.293688 -0.09525,-0.08467 -0.166688,-0.227541 -0.34925,-0.209021 -0.0053,0.01588 -0.06879,0.01588 -0.0291,0 0.36777,-0.174625 0.687916,-0.386291 1.11125,-0.552979 0.124354,-0.04763 0.280458,-0.134937 0.391583,-0.140229 0.100542,-0.0026 0.354542,0.150813 0.513292,0.201083 0.148166,0.04763 0.293687,0.14023 0.420687,0.166688 0.248708,0.05292 0.473604,0.15875 0.727604,0.264583 0.251354,0.105834 0.457729,0.201084 0.740834,0.293688 0.261937,0.08467 0.460375,0.219604 0.727604,0.264583 z"
           id="path1904"
           style="fill:none;stroke:#65b7ec;stroke-width:0.410104px;stroke-miterlimit:10" />
        <path
           class="cls-27"
           d="m 11.000094,12.626438 c 0.07673,0.140229 -0.08731,0.402167 -0.01323,0.616479 0.07408,0.214313 0.552979,0.312209 0.812271,0.362479 0.34925,0.06879 0.767291,0.01323 1.161521,0.02911 0.859895,0.0291 1.598083,0.01323 2.505604,-0.01323 0.404812,-0.01058 0.809625,0.0291 1.187979,0.01323 0.764646,-0.03175 1.505479,-0.121709 2.055812,-0.404813 0.169334,0.261938 0.164042,0.595313 0.251355,0.894292 0.08996,0.312208 0.134937,0.613833 0.182562,0.936625 0.03704,0.259291 0.105833,0.510646 0.140229,0.783166 0.03175,0.256646 0.08202,0.515938 0.0979,0.783167 -0.468312,0.07673 -0.994833,0.0291 -1.481667,0.0979 0.116417,-0.484188 0.105834,-1.135063 0.127,-1.748896 -0.04233,-0.09525 -0.171979,-0.105833 -0.322791,-0.0979 -0.05027,0.455084 -0.0026,0.994834 -0.08467,1.524 -0.05556,0.365125 -0.251354,0.724959 -0.322792,1.063625 -0.01058,0.05292 0,0.105833 -0.01323,0.153458 -0.03969,0.132292 -0.219604,0.515938 -0.322791,0.61648 -0.288396,0.28575 -0.9525,0.251354 -1.468438,0.182562 -0.537104,-0.933979 -0.687917,-2.323041 -0.965729,-3.468687 -0.08202,-0.0344 -0.174625,-0.05821 -0.280458,-0.06879 -0.06615,0.0079 -0.02117,0.129646 -0.06879,0.153458 -0.418042,0.214313 -0.886354,0.465667 -1.399646,0.629709 -0.306916,0.0979 -0.563562,0.169333 -0.9525,0.224896 -0.259291,0.03704 -0.518583,0.08731 -0.812271,0.140229 -0.127,0.02381 -0.261937,0.0635 -0.378354,0.06879 -0.111125,0.0053 -0.248708,-0.04233 -0.280458,0.04233 -0.5212288,-0.01058 -1.0530418,-0.01058 -1.3440828,-0.251354 0.05821,-0.0026 0.07408,0.03704 0.140229,0.0291 -0.04762,-0.05556 -0.124354,-0.07938 -0.166688,-0.06879 -0.0026,-0.07937 -0.08467,-0.08467 -0.140229,-0.111125 -0.259292,-0.545042 -0.370417,-1.267354 -0.420687,-1.987021 -0.01058,-0.153458 -0.08996,-0.328083 -0.04233,-0.47625 0.04498,-0.137583 0.304271,-0.219604 0.518584,-0.280458 0.645583,-0.185208 1.3890618,-0.264583 2.0981448,-0.362479 m -1.2991038,3.394604 c -0.08731,-0.0079 -0.182562,-0.05027 -0.293687,-0.06879 0.05292,0.08996 0.185208,0.09525 0.293687,0.06879"
           id="path1906"
           style="fill:#f6ed36;fill-rule:evenodd;stroke-width:0.264583" />
        <path
           class="cls-9"
           d="m 11.000094,12.626438 c 0.07673,0.140229 -0.08731,0.402167 -0.01323,0.616479 0.07408,0.214313 0.552979,0.312209 0.812271,0.362479 0.34925,0.06879 0.767291,0.01323 1.161521,0.02911 0.859895,0.0291 1.598083,0.01323 2.505604,-0.01323 0.404812,-0.01058 0.809625,0.0291 1.187979,0.01323 0.764646,-0.03175 1.505479,-0.121709 2.055812,-0.404813 0.169334,0.261938 0.164042,0.595313 0.251355,0.894292 0.08996,0.312208 0.134937,0.613833 0.182562,0.936625 0.03704,0.259291 0.105833,0.510646 0.140229,0.783166 0.03175,0.256646 0.08202,0.515938 0.0979,0.783167 -0.468312,0.07673 -0.994833,0.0291 -1.481667,0.0979 0.116417,-0.484188 0.105834,-1.135063 0.127,-1.748896 -0.04233,-0.09525 -0.171979,-0.105833 -0.322791,-0.0979 -0.05027,0.455084 -0.0026,0.994834 -0.08467,1.524 -0.05556,0.365125 -0.251354,0.724959 -0.322792,1.063625 -0.01058,0.05292 0,0.105833 -0.01323,0.153458 -0.03969,0.132292 -0.219604,0.515938 -0.322791,0.61648 -0.288396,0.28575 -0.9525,0.251354 -1.468438,0.182562 -0.537104,-0.933979 -0.687917,-2.323041 -0.965729,-3.468687 -0.08202,-0.0344 -0.174625,-0.05821 -0.280458,-0.06879 -0.06615,0.0079 -0.02117,0.129646 -0.06879,0.153458 -0.418042,0.214313 -0.886354,0.465667 -1.399646,0.629709 -0.306916,0.0979 -0.563562,0.169333 -0.9525,0.224896 -0.259291,0.03704 -0.518583,0.08731 -0.812271,0.140229 -0.127,0.02381 -0.261937,0.0635 -0.378354,0.06879 -0.111125,0.0053 -0.248708,-0.04233 -0.280458,0.04233 -0.5212288,-0.01058 -1.0530418,-0.01058 -1.3440828,-0.251354 0.05821,-0.0026 0.07408,0.03704 0.140229,0.0291 -0.04762,-0.05556 -0.124354,-0.07938 -0.166688,-0.06879 -0.0026,-0.07937 -0.08467,-0.08467 -0.140229,-0.111125 -0.259292,-0.545042 -0.370417,-1.267354 -0.420687,-1.987021 -0.01058,-0.153458 -0.08996,-0.328083 -0.04233,-0.47625 0.04498,-0.137583 0.304271,-0.219604 0.518584,-0.280458 0.645583,-0.185208 1.3890618,-0.264583 2.0981448,-0.362479 z m -1.3017498,3.399896 c -0.08731,-0.0079 -0.182562,-0.05027 -0.293687,-0.06879 0.05292,0.08996 0.185208,0.09525 0.293687,0.06879 z"
           id="path1908"
           style="fill:none;stroke:#65b7ec;stroke-width:0.574146px;stroke-miterlimit:10" />
        <path
           class="cls-27"
           d="m 24.152532,18.375834 c 0.690562,-0.338667 1.439333,-0.621771 2.153708,-0.936625 0.06085,0.01323 0.01323,0.137583 0.0291,0.195791 0.201083,0.280459 0.619125,0.309563 0.545042,0.881063 -0.06086,0.187854 -0.254,0.230187 -0.47625,0.280458 -0.09261,0.02117 -0.251355,0.02646 -0.378355,0.0291 -0.216958,0 -0.436562,-0.07673 -0.642937,-0.06879 -0.03175,0 -0.08202,0.03175 -0.111125,0.0291 -0.0926,-0.0079 -0.1905,-0.07408 -0.293687,-0.0979 -0.306917,-0.07144 -0.613834,-0.171979 -0.8255,-0.306917"
           id="path1910"
           style="fill:#f6ed36;fill-rule:evenodd;stroke-width:0.264583" />
        <path
           class="cls-6"
           d="m 24.152532,18.375834 c 0.690562,-0.338667 1.439333,-0.621771 2.153708,-0.936625 0.06085,0.01323 0.01323,0.137583 0.0291,0.195791 0.201083,0.280459 0.619125,0.309563 0.545042,0.881063 -0.06086,0.187854 -0.254,0.230187 -0.47625,0.280458 -0.09261,0.02117 -0.251355,0.02646 -0.378355,0.0291 -0.216958,0 -0.436562,-0.07673 -0.642937,-0.06879 -0.03175,0 -0.08202,0.03175 -0.111125,0.0291 -0.0926,-0.0079 -0.1905,-0.07408 -0.293687,-0.0979 -0.306917,-0.07144 -0.613834,-0.171979 -0.8255,-0.306917 z"
           id="path1912"
           style="fill:none;stroke:#65b7ec;stroke-width:0.410104px;stroke-miterlimit:10" />
        <path
           class="cls-24"
           d="m 22.784636,13.248209 c -0.4445,0 -0.92075,-0.08996 -1.381125,-0.256646 -0.288396,-0.105833 -0.431271,-0.238125 -0.629709,-0.420687 l -0.05821,-0.05292 -0.07937,-0.07144 c -0.193146,-0.174625 -0.359833,-0.325437 -0.508,-0.592666 -0.02117,-0.03704 -0.03969,-0.07938 -0.06085,-0.121709 -0.01323,-0.02646 -0.02646,-0.05292 -0.03969,-0.07938 -0.08467,-0.164041 -0.111125,-0.261937 -0.153458,-0.441854 -0.08731,-0.03969 -0.0979,-0.129646 -0.0979,-0.161396 -0.01323,-0.01588 -0.02381,-0.03175 -0.03175,-0.05292 l -0.0053,-0.01058 v -0.01323 c -0.0926,-0.463021 -0.01058,-1.0345209 0.216958,-1.5239999 l 0.03704,-0.08202 c 0.124354,-0.27252 0.254,-0.555625 0.470958,-0.743479 0.351896,-0.309562 0.777875,-0.576791 1.304396,-0.817562 l 0.03704,-0.01587 0.03969,0.0053 c 0.0291,0.0053 0.05821,0.0079 0.08467,0.0079 0.06879,0 0.124354,-0.01588 0.187854,-0.0344 0.05556,-0.01587 0.121708,-0.03704 0.198437,-0.04233 0.04498,-0.0053 0.08996,-0.0053 0.137584,-0.0053 0.11377,0 0.219604,0.01058 0.322791,0.02117 0.04233,0.0053 0.08202,0.0079 0.121709,0.01323 0.203729,0.01588 0.359833,0.05821 0.53975,0.108479 l 0.08467,0.02381 c 0.256646,0.06879 0.425979,0.127 0.640292,0.269875 l 0.103187,0.06615 c 0.29898,0.195792 0.608542,0.396875 0.804334,0.717021 0.04762,0.07673 0.08996,0.177271 0.129646,0.275167 l 0.03175,0.07673 c 0.185208,0.428625 0.288395,0.8096249 0.3175,1.1615209 0.08996,1.058333 -0.497417,2.103437 -1.397,2.484437 -0.07408,0.03175 -0.153459,0.05556 -0.230188,0.07937 -0.05292,0.01588 -0.103187,0.03175 -0.153458,0.05027 -0.0291,0.01058 -0.06085,0.02117 -0.08996,0.0344 -0.100541,0.03704 -0.206375,0.07673 -0.306916,0.0979 -0.1905,0.03704 -0.388938,0.05556 -0.595313,0.05556"
           id="path1914"
           style="fill:#65b7ec;fill-rule:evenodd;stroke-width:0.264583" />
        <path
           class="cls-30"
           d="m 22.459198,7.8480631 c 0.153459,0 0.298979,0.02117 0.433917,0.0344 0.219604,0.01852 0.386292,0.06879 0.600604,0.127 0.251354,0.06615 0.407458,0.121708 0.600604,0.251354 0.314854,0.206375 0.664104,0.41275 0.867834,0.740833 0.05292,0.08731 0.103187,0.219605 0.153458,0.336021 0.134937,0.312209 0.272521,0.7064379 0.306917,1.1191879 0.08996,1.050396 -0.502709,2.005541 -1.31498,2.3495 -0.11377,0.04763 -0.251354,0.07937 -0.378354,0.127 -0.121708,0.04498 -0.259291,0.103187 -0.378354,0.127 -0.187854,0.03704 -0.378354,0.05292 -0.568854,0.05292 -0.470958,0 -0.933979,-0.103187 -1.3335,-0.248708 -0.288396,-0.105833 -0.418042,-0.240771 -0.642938,-0.447146 -0.22225,-0.201083 -0.404812,-0.346604 -0.560916,-0.629708 -0.03175,-0.05821 -0.06615,-0.132292 -0.0979,-0.195792 -0.08467,-0.164041 -0.105833,-0.248708 -0.153458,-0.460375 -0.0053,-0.06615 -0.08202,0 -0.08467,-0.08467 0.01588,0.0026 0.02646,0.0053 0.0344,0.0053 0.05821,0 -0.0635,-0.06879 -0.07673,-0.103187 -0.0979,-0.513292 0.0344,-1.0636249 0.20902,-1.4419789 0.132292,-0.288396 0.261938,-0.595313 0.47625,-0.783167 0.381,-0.333375 0.820209,-0.590021 1.272646,-0.796396 0.03704,0.0053 0.07408,0.0079 0.105834,0.0079 0.161395,0 0.251354,-0.06615 0.39952,-0.07937 0.04233,-0.0026 0.08467,-0.0053 0.127,-0.0053 m 0.0026,-0.269875 c -0.05292,0 -0.103187,0 -0.150812,0.0079 -0.08996,0.0079 -0.164042,0.03175 -0.224896,0.04763 -0.05821,0.01588 -0.0979,0.02911 -0.150813,0.02911 -0.01852,0 -0.03969,0 -0.0635,-0.0053 l -0.07937,-0.01323 -0.07408,0.0344 c -0.537104,0.248708 -0.976312,0.521229 -1.338792,0.838729 -0.238125,0.206375 -0.373062,0.502708 -0.502708,0.788458 l -0.03704,0.08202 C 19.599012,9.9038151 19.5117,10.504419 19.60695,10.993898 l 0.0053,0.02381 0.01058,0.02381 c 0.0079,0.01852 0.01588,0.03704 0.02646,0.05292 0.01323,0.07408 0.04763,0.14552 0.111125,0.193145 0.03704,0.156105 0.07144,0.259292 0.153459,0.418042 0.01323,0.02381 0.02381,0.05027 0.03704,0.07673 0.02117,0.04233 0.04233,0.08731 0.0635,0.127 0.15875,0.288396 0.341313,0.452438 0.534459,0.627063 0.02646,0.02381 0.05027,0.04498 0.07673,0.07144 l 0.05821,0.05292 c 0.201083,0.185208 0.362479,0.333375 0.674688,0.449792 0.473604,0.174625 0.965729,0.267229 1.426104,0.267229 0.214312,0 0.423333,-0.01852 0.621771,-0.05821 0.111125,-0.02117 0.22225,-0.0635 0.328083,-0.103187 0.0291,-0.01058 0.06085,-0.02381 0.08731,-0.03175 0.04498,-0.01588 0.09525,-0.03175 0.148167,-0.04763 0.08202,-0.02381 0.164042,-0.05027 0.243417,-0.08467 0.949854,-0.404812 1.571625,-1.505479 1.476375,-2.619375 -0.03175,-0.367771 -0.137584,-0.7593539 -0.328084,-1.2012079 -0.01058,-0.02381 -0.02117,-0.05027 -0.03175,-0.07673 -0.04233,-0.103188 -0.08731,-0.209021 -0.140229,-0.293688 -0.211666,-0.346604 -0.550333,-0.566208 -0.846666,-0.759354 -0.0344,-0.02117 -0.06879,-0.04498 -0.100542,-0.06615 -0.227542,-0.150812 -0.415396,-0.216958 -0.679979,-0.288396 l -0.08467,-0.02117 c -0.179917,-0.04763 -0.34925,-0.0926 -0.563562,-0.111125 -0.03969,-0.0026 -0.07937,-0.0079 -0.119063,-0.01058 -0.100542,-0.01058 -0.216958,-0.02381 -0.336021,-0.02381"
           id="path1916"
           style="fill:#65b7ec;stroke-width:0.264583" />
        <path
           class="cls-25"
           d="m 21.726302,8.3772301 c 0.02381,-0.01058 0.05027,-0.02117 0.07408,-0.0291 0.259291,-0.0926 0.613833,-0.01852 0.889,0.0026 0.542396,0.04233 1.140354,0.441855 1.513416,0.817563 0.256646,0.256646 0.4445,0.595312 0.645584,0.8916459 0.06085,0.08731 0.116416,0.182562 0.153458,0.283104 0.214313,0.595312 -0.0635,1.349375 -0.478896,1.791229 -0.41275,0.433917 -1.000125,0.669396 -1.5875,0.732896 -0.523875,0.05821 -1.211791,-0.08996 -1.566333,-0.322792 -0.521229,-0.336021 -0.714375,-0.648229 -0.844021,-1.259416 -0.140229,-0.658813 -0.03969,-1.256771 0.22225,-1.8626669 0.209021,-0.486833 0.47625,-0.814917 0.981604,-1.039813 m 0.534459,1.6959799 c -0.121709,-0.07408 -0.224896,-0.1984379 -0.34925,-0.2381249 -0.396875,-0.124355 -0.828146,0.116416 -0.910167,0.4894789 -0.0635,0.293687 0.01852,0.650875 0.182562,0.796396 0.169334,0.153458 0.423334,0.150812 0.6985,0.195791 -0.0053,0.264584 0.240771,0.404813 0.518584,0.391584 0.103187,-0.0053 0.28575,-0.05292 0.280458,-0.166688 -0.0079,-0.161396 -0.296333,-0.124354 -0.447146,-0.0979 -0.145521,-0.195791 0.08467,-0.375708 0.111125,-0.574146 0.07144,0.01323 0.127,0.03969 0.169334,0.08467 0,0.4445 0.46302,0.849313 0.9525,0.769938 0.515937,-0.08467 0.74877,-0.772584 0.433916,-1.246188 -0.0926,-0.09525 -0.240771,-0.09525 -0.34925,-0.166687 -0.05556,-0.03704 -0.06879,-0.111125 -0.127,-0.14023 -0.195791,-0.09789 -0.381,-0.03704 -0.502708,0.02911 -0.198438,0.108479 -0.322792,0.288395 -0.404813,0.460375 -0.05556,-0.02381 -0.140229,-0.01852 -0.169333,-0.06879 0.0344,-0.232833 -0.03175,-0.328083 -0.08467,-0.518583 m -0.912812,1.357312 c -0.02117,0.0079 -0.0344,0.02117 -0.04233,0.04233 -0.02911,0.182563 0.111125,0.47625 0.238125,0.600605 0.206375,0.203729 0.529166,0.330729 0.894291,0.306916 0.314854,-0.01852 0.709084,-0.124354 0.783167,-0.404812 -0.174625,-0.195792 -0.346604,0.0026 -0.47625,0.05556 -0.391583,0.15875 -0.851958,0.116417 -1.021292,-0.209021 -0.06085,-0.116416 -0.05027,-0.24077 -0.166687,-0.34925 -0.0635,-0.02117 -0.15875,-0.01058 -0.209021,-0.04233"
           id="path1918"
           style="fill:#f5e3dd;fill-rule:evenodd;stroke-width:0.264583" />
        <path
           class="cls-25"
           d="m 8.0341152,13.240271 c 0.0926,0.497417 0.08202,1.143 0.209021,1.621896 0.0291,0.111125 0.07937,0.209021 0.111125,0.322792 0.05821,0.187854 0.0635,0.386292 0.153458,0.531812 -0.209021,-0.02117 -0.428625,-0.03969 -0.587375,-0.127 -0.156104,-0.08467 -0.375708,-0.24077 -0.47625,-0.391583 -0.0979,-0.145521 -0.06879,-0.484187 -0.195791,-0.574146 -0.08996,-0.0635 -0.29898,-0.03969 -0.447146,-0.05556 -0.145521,-0.01587 -0.320146,-0.03704 -0.404813,-0.08467 -0.214312,-0.116417 -0.346604,-0.478896 -0.195791,-0.727604 0.121708,-0.198438 0.523875,-0.238125 0.8255,-0.306917 0.391583,-0.0926 0.582083,-0.22225 1.008062,-0.209021"
           id="path1920"
           style="fill:#f5e3dd;fill-rule:evenodd;stroke-width:0.264583" />
        <path
           class="cls-25"
           d="m 23.438157,17.99748 c 0.283104,0.378354 0.41275,0.944562 0.378354,1.566333 -0.04763,0.05027 -0.07408,0.121708 -0.127,0.166687 -0.137584,-0.161395 -0.166688,-0.43127 -0.195792,-0.6985 -0.0635,-0.08467 -0.1905,-0.148166 -0.306917,-0.06879 0.03704,0.338666 -0.05292,0.605896 -0.0979,0.867833 -0.214313,-0.124354 -0.08996,-0.547687 -0.111125,-0.838729 -0.05821,-0.07144 -0.14023,-0.121708 -0.280459,-0.111125 -0.153458,0.203729 -0.02381,0.560917 -0.05556,0.838729 -0.01323,0.116417 -0.103188,0.301625 -0.224896,0.293688 -0.137583,-0.0079 -0.198438,-0.272521 -0.195792,-0.433917 0,-0.201083 0.01588,-0.354542 0.01323,-0.502708 -0.04763,-0.08731 -0.174625,-0.156105 -0.306916,-0.111125 -0.09525,0.320145 0.08996,0.891645 -0.166688,1.090083 -0.201083,-0.269875 -0.216958,-0.724958 -0.264583,-1.148292 -0.04498,-0.05821 -0.187854,-0.07144 -0.280458,-0.04233 -0.127,0.171979 -0.256646,0.341312 -0.433917,0.463021 -0.09525,-0.714375 0.423333,-0.939271 0.587375,-1.441979 0.129646,0.0291 0.243417,0.161395 0.378354,0.224895 0.277813,0.127 0.73025,0.264584 1.105958,0.166688 0.211667,-0.05292 0.373063,-0.193146 0.587375,-0.280458 m -1.738312,1.902354 c 0.02646,-0.0026 0.03175,0.01588 0.05556,0.01323 0.0053,-0.01852 0.02117,-0.02646 0.01323,-0.05556 -0.04498,-0.0053 -0.05821,0.01852 -0.06879,0.04233"
           id="path1922"
           style="fill:#f5e3dd;fill-rule:evenodd;stroke-width:0.264583" />
        <path
           class="cls-25"
           d="m 12.931552,9.0863131 c 0.0926,0.436563 0.418042,0.767292 0.881063,0.910167 0.08202,0.02381 0.1905,0.0053 0.293687,0.04233 0.116417,0.04233 0.193146,0.164042 0.306917,0.224896 0.232833,0.116417 0.677333,0.15875 0.978958,0.04233 0.304271,0.216959 0.714375,0.489479 1.259417,0.336021 0.03175,0.227542 -0.08202,0.431271 -0.0979,0.658813 -0.153458,0.232833 -0.269875,0.47625 -0.447146,0.672041 -0.322791,0.351896 -0.762,0.510646 -1.230312,0.6985 -0.201083,0.03175 -0.547688,0.04763 -0.769938,0.0291 -0.296333,-0.129645 -0.560916,-0.193145 -0.796395,-0.378354 -0.687917,-0.537104 -0.899584,-1.812396 -0.61648,-2.7569573 0.05027,-0.164042 0.15875,-0.338667 0.238125,-0.47625"
           id="path1924"
           style="fill:#f5e3dd;fill-rule:evenodd;stroke-width:0.264583" />
        <path
           class="cls-24"
           d="m 14.500532,13.015376 c -0.07408,0 -0.142875,-0.0026 -0.20373,-0.01058 -0.03704,-0.0053 -0.06879,-0.01852 -0.103187,-0.0291 -0.0291,-0.01058 -0.05556,-0.02117 -0.08202,-0.02646 -0.399521,-0.0635 -0.783167,-0.219604 -1.055687,-0.428625 -0.431271,-0.333375 -0.756709,-0.947209 -0.828146,-1.568979 -0.0979,-0.841375 0.07673,-1.6880419 0.441854,-2.1589999 0.185208,-0.238125 0.457729,-0.436563 0.746125,-0.545042 0.03969,-0.01588 0.07937,-0.0291 0.119062,-0.04498 0.156105,-0.06085 0.314855,-0.124354 0.463021,-0.153459 0.05821,-0.01058 0.119063,-0.01587 0.201084,-0.01587 0.03704,0 0.07673,0 0.116416,0 0.03969,0 0.07673,0 0.116417,0 0.07937,0 0.140229,-0.0053 0.198437,-0.01588 0.105834,-0.02117 0.214313,-0.03175 0.3175,-0.03175 0.709084,0 1.227667,0.465667 1.55575,0.814917 0.370417,0.396875 0.558271,0.867833 0.558271,1.3996459 0.01852,0.0053 0.03969,0.01058 0.05821,0.01588 0.05821,0.01323 0.129645,0.0291 0.148166,0.116417 0.0291,0.129645 -0.06879,0.17727 -0.137583,0.214312 -0.03704,0.01852 -0.07144,0.03704 -0.08731,0.06085 -0.03175,0.502709 -0.116416,0.814917 -0.298979,1.116542 -0.02381,0.03704 -0.05292,0.06879 -0.08202,0.100542 -0.02117,0.02381 -0.04233,0.04498 -0.06085,0.07144 -0.02117,0.0291 -0.03704,0.0635 -0.05556,0.0979 -0.01852,0.03704 -0.0344,0.07144 -0.05821,0.100542 -0.179916,0.238125 -0.579437,0.534458 -0.886354,0.658812 -0.04498,0.01852 -0.0926,0.02646 -0.145521,0.03704 -0.04498,0.0079 -0.0926,0.01852 -0.137583,0.0344 -0.05027,0.01852 -0.103187,0.04233 -0.150812,0.0635 -0.07937,0.03704 -0.161396,0.07408 -0.248709,0.0926 -0.127,0.02381 -0.280458,0.03969 -0.425979,0.03969 M 14.116897,12.65291 c 0.06085,0.0053 0.134937,0.0079 0.216958,0.0079 0.187854,0 0.394229,-0.01323 0.529167,-0.0344 l 0.100541,-0.03969 c 0.420688,-0.169334 0.817563,-0.328084 1.108605,-0.645584 0.119062,-0.129646 0.206375,-0.277812 0.301625,-0.436562 0.04233,-0.07144 0.08731,-0.145521 0.134937,-0.219604 0.0079,-0.0926 0.0291,-0.179917 0.05292,-0.264584 0.02646,-0.108479 0.05292,-0.211666 0.05027,-0.320146 -0.0926,0.02117 -0.185209,0.0344 -0.277813,0.0344 -0.381,0 -0.677333,-0.182562 -0.947208,-0.375708 -0.119063,0.04233 -0.261938,0.0635 -0.415396,0.0635 -0.216958,0 -0.431271,-0.04233 -0.576792,-0.116417 -0.05821,-0.0291 -0.105833,-0.07408 -0.153458,-0.113771 -0.05027,-0.04498 -0.09525,-0.08731 -0.150813,-0.105833 -0.05027,-0.01852 -0.105833,-0.02117 -0.15875,-0.02381 -0.04763,0 -0.0926,-0.0053 -0.132291,-0.01852 -0.4445,-0.1349379 -0.762,-0.4365629 -0.883709,-0.8360839 -0.06614,0.113771 -0.140229,0.248709 -0.179916,0.373063 -0.261938,0.8704789 -0.108479,2.1537079 0.600604,2.7093329 0.164042,0.127 0.346604,0.198438 0.53975,0.272521 0.07673,0.0291 0.15875,0.06085 0.240771,0.0979 m 1.037166,-3.1776459 c 0.113771,0 0.169334,0.06615 0.211667,0.121708 0.0079,0.0079 0.0291,0.0344 0.0291,0.0344 v 0.01058 c 0.01058,0.03439 0.01588,0.07144 0.01852,0.111125 0.0079,0.06879 0.01852,0.140229 0.04763,0.201083 0.0635,0.1190619 0.418042,0.3704169 0.518583,0.3968749 0.06615,0.01852 0.14023,0.02646 0.227542,0.02646 0.148167,0 0.306917,-0.02646 0.431271,-0.04763 0.0079,-0.3571869 -0.05821,-0.7064369 -0.177271,-0.9207499 -0.01323,-0.02646 -0.03969,-0.05292 -0.06879,-0.08467 -0.02381,-0.02646 -0.04763,-0.05027 -0.06879,-0.07938 -0.111125,-0.150813 -0.198438,-0.251355 -0.306917,-0.375709 -0.309562,-0.354541 -0.672042,-0.534458 -1.0795,-0.534458 -0.03704,0 -0.07408,0 -0.113771,0.0053 -0.03704,0.0026 -0.07144,0.0079 -0.105833,0.01323 -0.05821,0.0079 -0.119063,0.01852 -0.185208,0.01852 -0.02117,0 -0.04233,0 -0.06615,-0.0026 -0.0344,-0.0026 -0.0635,-0.01058 -0.0926,-0.01587 -0.0344,-0.0079 -0.0635,-0.01323 -0.09525,-0.01323 -0.0079,0 -0.01852,0 -0.02646,0 -0.105833,0.01323 -0.227541,0.0635 -0.354541,0.119062 -0.06085,0.02646 -0.119063,0.05292 -0.179917,0.07408 l -0.02117,0.0079 c -0.119062,0.04498 -0.396875,0.148167 -0.428625,0.243417 -0.01852,0.06085 0,0.248708 0.0291,0.36777 0.08467,0.341313 0.333375,0.5715 0.619125,0.5715 0.0053,0 0.01323,0 0.01852,0 -0.04498,-0.169333 -0.04233,-0.41275 0.03704,-0.550333 0.03704,-0.0635 0.0926,-0.103187 0.156104,-0.111125 0.01058,0 0.02117,0 0.0291,0 0.108479,0 0.211667,0.07937 0.230188,0.177271 0.01323,0.06879 -0.01323,0.137583 -0.03969,0.211667 -0.02381,0.06879 -0.05027,0.140229 -0.04498,0.211666 0.01323,0.140229 0.06879,0.206375 0.140229,0.291042 0.02117,0.02646 0.04498,0.05292 0.06615,0.08202 0.06879,0.02117 0.145521,0.03175 0.235479,0.03175 0.103188,0 0.209021,-0.01323 0.312209,-0.02646 0.01323,0 0.0291,-0.0026 0.04233,-0.0053 -0.06879,-0.1508123 -0.169333,-0.3889373 -0.03704,-0.5371033 l 0.01058,-0.01058 h 0.01588 c 0.02117,-0.0053 0.04233,-0.0079 0.06085,-0.0079"
           id="path1926"
           style="fill:#65b7ec;fill-rule:evenodd;stroke-width:0.264583" />
        <path
           class="cls-30"
           d="m 14.947677,8.0332711 c 0.677334,0 1.185334,0.441855 1.521355,0.799042 0.298979,0.320146 0.555625,0.767292 0.545041,1.3996459 0.09525,0.04498 0.1905,0.01852 0.209021,0.111125 0.0344,0.156104 -0.174625,0.148167 -0.224896,0.251354 -0.0291,0.468313 -0.105833,0.79375 -0.293687,1.105958 -0.03704,0.05821 -0.09525,0.10848 -0.140229,0.166688 -0.04498,0.06085 -0.07144,0.142875 -0.111125,0.195792 -0.169334,0.22225 -0.55298,0.515937 -0.867834,0.642937 -0.07937,0.03175 -0.185208,0.0344 -0.280458,0.06879 -0.137583,0.05027 -0.261938,0.127 -0.391583,0.153458 -0.127,0.02646 -0.280459,0.03704 -0.418042,0.03704 -0.07144,0 -0.137583,-0.0026 -0.198438,-0.01058 -0.05821,-0.0079 -0.116416,-0.04498 -0.182562,-0.05556 -0.386292,-0.06085 -0.767292,-0.214313 -1.034521,-0.420688 -0.431271,-0.330729 -0.743479,-0.941916 -0.812271,-1.539875 -0.08996,-0.777875 0.05821,-1.6430619 0.433917,-2.1272499 0.164042,-0.211666 0.428625,-0.418041 0.727604,-0.531812 0.185208,-0.07144 0.394229,-0.15875 0.574146,-0.195792 0.06085,-0.01323 0.127,-0.01587 0.1905,-0.01587 0.07673,0 0.153458,0.0053 0.232833,0.0053 0.06879,0 0.137584,-0.0026 0.206375,-0.01587 0.105834,-0.02117 0.211667,-0.0291 0.309563,-0.0291 m -0.410104,0.304271 c -0.02117,0 -0.03969,0 -0.06085,-0.0026 -0.07144,-0.0053 -0.124354,-0.0291 -0.193145,-0.0291 -0.01058,0 -0.02117,0 -0.03175,0 -0.166688,0.01852 -0.357188,0.127 -0.545042,0.195791 -0.137583,0.05027 -0.436563,0.156104 -0.47625,0.280459 -0.02381,0.07938 0,0.280458 0.0291,0.391583 0.08467,0.346604 0.338667,0.605896 0.664104,0.605896 0.02646,0 0.05027,0 0.07673,-0.0053 -0.07673,-0.206375 -0.06879,-0.627062 0.14023,-0.658812 0.0079,0 0.01587,0 0.02381,0 0.08467,0 0.171979,0.06085 0.185208,0.140229 0.02117,0.119062 -0.0979,0.259291 -0.08467,0.420687 0.01852,0.206375 0.127,0.272521 0.224896,0.4048129 0.08467,0.0291 0.171979,0.03969 0.264583,0.03969 0.140229,0 0.283104,-0.02381 0.423333,-0.03969 -0.05821,-0.1349379 -0.198437,-0.3995209 -0.06879,-0.5450419 0.01852,-0.0026 0.03704,-0.0053 0.05292,-0.0053 0.108479,0 0.148167,0.07144 0.198438,0.129646 0.02381,0.0979 0.01587,0.22225 0.06879,0.322792 0.06879,0.1296459 0.431271,0.3889369 0.545042,0.4206869 0.07408,0.01852 0.156104,0.02646 0.238125,0.02646 0.161396,0 0.330729,-0.0291 0.47625,-0.05556 0.01323,-0.351896 -0.04762,-0.7381869 -0.182562,-0.9789579 -0.02911,-0.05292 -0.09525,-0.105833 -0.14023,-0.166688 -0.111125,-0.148166 -0.193145,-0.248708 -0.306916,-0.378354 -0.261938,-0.298979 -0.621771,-0.550333 -1.113896,-0.550333 -0.03969,0 -0.07673,0 -0.116417,0.0053 -0.09525,0.0079 -0.182562,0.03175 -0.288396,0.03175 m -0.201083,4.3709159 c 0.1905,0 0.402167,-0.01323 0.542396,-0.03704 0.468312,-0.1905 0.910167,-0.34925 1.230312,-0.6985 0.177271,-0.195792 0.293688,-0.436563 0.447146,-0.672042 0.01588,-0.227542 0.129646,-0.431271 0.0979,-0.658813 -0.111125,0.03175 -0.216958,0.04498 -0.3175,0.04498 -0.391583,0 -0.6985,-0.206375 -0.941917,-0.381 -0.124354,0.04763 -0.275166,0.06879 -0.423333,0.06879 -0.211667,0 -0.420687,-0.04233 -0.555625,-0.111125 -0.116417,-0.05821 -0.1905,-0.182562 -0.306917,-0.224896 -0.103187,-0.03704 -0.211666,-0.01852 -0.293687,-0.04233 -0.463021,-0.140229 -0.788458,-0.473604 -0.881063,-0.910167 -0.07937,0.137584 -0.187854,0.309563 -0.238125,0.47625 -0.285749,0.944563 -0.07144,2.219855 0.61648,2.756959 0.235479,0.182562 0.502708,0.248708 0.796395,0.378354 0.06615,0.0053 0.145521,0.0079 0.227542,0.0079 m 0.613833,-4.754562 v 0 c -0.108479,0 -0.216958,0.01058 -0.328083,0.03175 -0.05292,0.01058 -0.111125,0.01588 -0.1905,0.01588 -0.03969,0 -0.07673,0 -0.113771,0 -0.03969,0 -0.07937,0 -0.116416,0 -0.08467,0 -0.148167,0.0053 -0.209021,0.01852 -0.150813,0.0291 -0.312209,0.0926 -0.470959,0.153458 -0.03969,0.01588 -0.07937,0.03175 -0.116416,0.04498 -0.298979,0.111125 -0.576792,0.3175 -0.767292,0.560917 -0.373062,0.481542 -0.550333,1.341437 -0.452437,2.19075 0.07408,0.632354 0.404812,1.259417 0.846666,1.600729 0.277813,0.211667 0.669396,0.373063 1.076854,0.436563 0.02117,0.0026 0.04498,0.01323 0.07144,0.02381 0.0344,0.01323 0.07144,0.0291 0.113771,0.0344 0.06085,0.0079 0.132291,0.01058 0.206375,0.01058 0.148166,0 0.306916,-0.01588 0.436562,-0.03969 0.08996,-0.01852 0.174625,-0.05821 0.256646,-0.09525 0.04762,-0.02117 0.0979,-0.04498 0.148167,-0.0635 0.03969,-0.01323 0.08467,-0.02381 0.129646,-0.03175 0.05027,-0.01058 0.105833,-0.02117 0.153458,-0.03969 0.320146,-0.129646 0.717021,-0.423333 0.904875,-0.672041 0.02381,-0.03175 0.04233,-0.06879 0.06085,-0.105834 0.01588,-0.03175 0.03175,-0.06615 0.05027,-0.08996 0.01588,-0.02117 0.03704,-0.04233 0.05821,-0.06615 0.03175,-0.03175 0.06085,-0.06615 0.08731,-0.108479 0.185208,-0.304271 0.269875,-0.619125 0.304271,-1.121833 0.01323,-0.01323 0.04233,-0.02646 0.0635,-0.03704 0.06879,-0.0344 0.195791,-0.100542 0.161395,-0.264583 -0.02646,-0.116417 -0.124354,-0.137584 -0.182562,-0.150813 -0.0079,0 -0.01588,-0.0026 -0.02381,-0.0053 -0.0053,-0.531812 -0.198437,-1.000125 -0.568854,-1.397 -0.333375,-0.354541 -0.862541,-0.828145 -1.5875,-0.828145 m -0.418041,0.470958 c 0.07144,0 0.132291,-0.0079 0.1905,-0.01852 0.03704,-0.0053 0.06879,-0.01058 0.103187,-0.01323 0.03704,-0.0026 0.07408,-0.0053 0.111125,-0.0053 0.394229,0 0.746125,0.174625 1.045104,0.518584 0.108479,0.124354 0.193146,0.22225 0.304271,0.373062 0.02381,0.03175 0.04763,0.05821 0.07144,0.08202 0.02646,0.0291 0.05027,0.05556 0.06085,0.07408 0.111125,0.198438 0.174625,0.523875 0.171979,0.859896 -0.116417,0.02117 -0.256646,0.04233 -0.386292,0.04233 -0.08202,0 -0.153458,-0.0079 -0.216958,-0.02381 -0.08996,-0.02381 -0.431271,-0.264583 -0.489479,-0.375708 -0.02646,-0.05027 -0.0344,-0.119063 -0.04233,-0.185209 -0.0053,-0.03704 -0.01058,-0.07673 -0.01852,-0.116416 l -0.0053,-0.02117 -0.01323,-0.01588 c 0,0 -0.01323,-0.01588 -0.02117,-0.02381 -0.04498,-0.05556 -0.108479,-0.137583 -0.246062,-0.137583 -0.02117,0 -0.04498,0 -0.06879,0.0053 l -0.03175,0.0053 -0.02117,0.02381 c -0.134937,0.150812 -0.0635,0.370417 0.0053,0.531812 -0.0979,0.01323 -0.195792,0.02381 -0.291042,0.02381 -0.07937,0 -0.148166,-0.0079 -0.209021,-0.02646 -0.02117,-0.02646 -0.03969,-0.05027 -0.05821,-0.07144 -0.06879,-0.07938 -0.119062,-0.137583 -0.129646,-0.264583 -0.0053,-0.0635 0.01852,-0.127 0.04233,-0.193146 0.02646,-0.07408 0.05556,-0.153458 0.04233,-0.232833 -0.02117,-0.121709 -0.142875,-0.214313 -0.275167,-0.214313 -0.01323,0 -0.02381,0 -0.03704,0 -0.07673,0.01058 -0.142875,0.05821 -0.187855,0.132292 -0.07937,0.132291 -0.08996,0.351896 -0.05556,0.526521 -0.251354,-0.01852 -0.463021,-0.230188 -0.53975,-0.537105 -0.0291,-0.121708 -0.04498,-0.296333 -0.0291,-0.343958 0.01058,-0.0344 0.08996,-0.100542 0.399521,-0.214312 l 0.02117,-0.0079 c 0.06085,-0.02381 0.121709,-0.05027 0.182563,-0.07408 0.124354,-0.05292 0.243416,-0.105834 0.341312,-0.116417 0.0079,0 0.01587,0 0.02117,0 0.02646,0 0.05556,0.0053 0.08467,0.01323 0.0291,0.0053 0.06085,0.01323 0.0979,0.01588 0.02381,0 0.04498,0.0026 0.06879,0.0026 M 14.12748,12.60793 c -0.08202,-0.0344 -0.15875,-0.06615 -0.235479,-0.09525 -0.198438,-0.07673 -0.370417,-0.142875 -0.529167,-0.264583 -0.693208,-0.542396 -0.844021,-1.801813 -0.584729,-2.6590629 0.02646,-0.08996 0.07673,-0.187854 0.127,-0.277812 0.145521,0.367771 0.457729,0.642937 0.881063,0.7725829 0.04763,0.01323 0.09525,0.01588 0.142875,0.01852 0.05292,0.0026 0.100541,0.0053 0.14552,0.02117 0.04498,0.01588 0.08996,0.05556 0.134938,0.0979 0.04498,0.04233 0.0979,0.08996 0.161396,0.121708 0.150812,0.07673 0.373062,0.121708 0.595312,0.121708 0.150813,0 0.291042,-0.02117 0.410104,-0.05821 0.272521,0.1905 0.5715,0.370417 0.955146,0.370417 0.07673,0 0.153459,-0.0079 0.232834,-0.02381 -0.0053,0.08467 -0.02646,0.166688 -0.04763,0.254 -0.02117,0.08467 -0.04233,0.169333 -0.05292,0.261938 -0.04498,0.07144 -0.08731,0.142875 -0.129646,0.211666 -0.0926,0.156104 -0.182562,0.304271 -0.296333,0.431271 -0.283104,0.309563 -0.677334,0.468313 -1.092729,0.635 l -0.09525,0.03969 c -0.132292,0.02117 -0.336021,0.03439 -0.518584,0.03439 -0.07673,0 -0.148166,0 -0.206375,-0.0079"
           id="path1928"
           style="fill:#65b7ec;stroke-width:0.264583" />
        <path
           class="cls-27"
           d="m 16.680698,10.372188 c -0.219604,0.03969 -0.492125,0.08467 -0.714375,0.0291 -0.113771,-0.0291 -0.47625,-0.288396 -0.545041,-0.4206869 -0.05292,-0.100542 -0.04762,-0.22225 -0.06879,-0.322792 -0.05821,-0.06879 -0.100542,-0.153458 -0.251354,-0.127 -0.129646,0.145521 0.01058,0.41275 0.06879,0.5450419 -0.227541,0.02646 -0.473604,0.07408 -0.68527,0 -0.09525,-0.1322919 -0.206375,-0.1984379 -0.224896,-0.4048129 -0.01323,-0.161396 0.105833,-0.298979 0.08467,-0.420687 -0.01588,-0.08731 -0.119062,-0.153459 -0.20902,-0.140229 -0.209021,0.0291 -0.216959,0.452437 -0.14023,0.658812 -0.362479,0.04498 -0.650875,-0.227542 -0.740833,-0.600604 -0.02646,-0.111125 -0.05292,-0.312208 -0.0291,-0.391583 0.03969,-0.124355 0.338667,-0.227542 0.47625,-0.280459 0.187854,-0.06879 0.381,-0.177271 0.545042,-0.195791 0.08202,-0.01058 0.140229,0.02117 0.224895,0.0291 0.134938,0.01323 0.238125,-0.01852 0.34925,-0.0291 0.550334,-0.04498 0.949855,0.22225 1.230313,0.545041 0.113771,0.129646 0.198437,0.227542 0.306917,0.378354 0.04498,0.06086 0.111125,0.113771 0.140229,0.166688 0.134937,0.240771 0.195791,0.6270619 0.182562,0.9789579"
           id="path1930"
           style="fill:#f6ed36;fill-rule:evenodd;stroke-width:0.264583" />
        <path
           class="cls-24"
           d="m 22.348073,10.597084 c 0.02646,0.05292 0.113771,0.04498 0.169334,0.06879 0.08467,-0.174625 0.206375,-0.354542 0.404812,-0.460375 0.121708,-0.06615 0.306917,-0.127 0.502708,-0.02911 0.05821,0.02911 0.06879,0.103188 0.127,0.14023 0.111125,0.07408 0.256646,0.07144 0.34925,0.166687 0.314855,0.470958 0.08202,1.158875 -0.433916,1.246188 -0.486834,0.07937 -0.9525,-0.325438 -0.9525,-0.769938 -0.03969,-0.04233 -0.0979,-0.07144 -0.169334,-0.08467 -0.02646,0.195792 -0.256645,0.378355 -0.111125,0.574146 0.150813,-0.02646 0.439209,-0.06085 0.447146,0.0979 0.0053,0.116417 -0.177271,0.164042 -0.280458,0.166688 -0.277813,0.01323 -0.523875,-0.129646 -0.518583,-0.391584 -0.275167,-0.04498 -0.529167,-0.04233 -0.6985,-0.195791 -0.164042,-0.148167 -0.246063,-0.502709 -0.182563,-0.796396 0.08202,-0.3730629 0.513292,-0.6138339 0.910167,-0.4894789 0.124354,0.03969 0.227541,0.1640409 0.34925,0.2381249 0.05292,0.1905 0.119062,0.283104 0.08467,0.518583 m -0.584729,-0.560917 c -0.09525,0 -0.15875,0.07937 -0.264583,0.0979 -0.227542,0.214313 -0.230188,0.889 0.140229,0.910167 0.150813,0.0079 0.174625,-0.07937 0.306917,-0.111125 0.187854,-0.254 0.198437,-0.894292 -0.182563,-0.894292 m 1.412875,1.412875 c 0.497417,0.07408 0.637646,-0.500062 0.447146,-0.854604 -0.185208,-0.02117 -0.330729,-0.07937 -0.404812,-0.209021 -0.439209,0.129646 -0.470959,0.896938 -0.04233,1.063625"
           id="path1932"
           style="fill:#65b7ec;fill-rule:evenodd;stroke-width:0.264583" />
        <path
           class="cls-23"
           d="m 21.940615,10.933105 c -0.134938,0.03175 -0.15875,0.119062 -0.306917,0.111125 -0.370416,-0.02117 -0.367771,-0.693209 -0.140229,-0.910167 0.108479,-0.01852 0.171979,-0.0979 0.264583,-0.0979 0.381,0 0.367771,0.640292 0.182563,0.894292 m -0.473604,-0.193146 c 0.0635,0.108479 0.203729,0.140229 0.336021,0.111125 0.08996,-0.0926 0.05821,-0.309562 0,-0.433917 -0.214313,-0.0926 -0.381,0.0635 -0.336021,0.322792"
           id="path1934"
           style="fill:#ffffff;fill-rule:evenodd;stroke-width:0.264583" />
        <path
           class="cls-24"
           d="m 21.800386,10.414521 c 0.05821,0.124355 0.08996,0.341313 0,0.433917 -0.129646,0.02646 -0.272521,-0.0026 -0.336021,-0.111125 -0.04498,-0.259292 0.121708,-0.41275 0.336021,-0.322792"
           id="path1936"
           style="fill:#65b7ec;fill-rule:evenodd;stroke-width:0.264583" />
        <path
           class="cls-23"
           d="m 23.213261,10.388063 c 0.07408,0.129646 0.219604,0.1905 0.404812,0.209021 0.1905,0.354542 0.05027,0.926042 -0.447146,0.854604 -0.428625,-0.164042 -0.396875,-0.933979 0.04233,-1.063625 m -0.06879,0.293688 c -0.07408,0.169333 -0.238125,0.420687 -0.01323,0.545041 0.119062,0 0.240771,0.0079 0.293687,-0.05556 0.07673,-0.243417 0.0053,-0.523875 -0.280458,-0.489479"
           id="path1938"
           style="fill:#ffffff;fill-rule:evenodd;stroke-width:0.264583" />
        <path
           class="cls-24"
           d="m 23.424927,11.17123 c -0.05292,0.0635 -0.174625,0.05821 -0.293687,0.05556 -0.224896,-0.127 -0.06085,-0.375708 0.01323,-0.545041 0.28575,-0.0344 0.357188,0.246062 0.280458,0.489479"
           id="path1940"
           style="fill:#65b7ec;fill-rule:evenodd;stroke-width:0.264583" />
        <path
           class="cls-24"
           d="m 21.562261,11.478146 c 0.116416,0.10848 0.108479,0.232834 0.166687,0.34925 0.169334,0.325438 0.629709,0.367771 1.021292,0.209021 0.129646,-0.05292 0.301625,-0.251354 0.47625,-0.05556 -0.07408,0.280458 -0.468313,0.386291 -0.783167,0.404812 -0.367771,0.02381 -0.690562,-0.103187 -0.894291,-0.306916 -0.124355,-0.124355 -0.26723,-0.418042 -0.238125,-0.600605 0.0079,-0.02117 0.02117,-0.03439 0.04233,-0.04233 0.05027,0.03175 0.148167,0.02117 0.209021,0.04233"
           id="path1942"
           style="fill:#65b7ec;fill-rule:evenodd;stroke-width:0.264583" />
        <path
           class="cls-27"
           d="m 21.676032,14.907146 c 0,0.103188 -0.02117,0.182563 -0.05556,0.251355 -0.171979,-0.04233 -0.404812,-0.142875 -0.574146,-0.238125 0.0344,-0.124355 0.15875,-0.15875 0.238125,-0.238125 0.150813,0.05556 0.235479,0.174625 0.391584,0.224895"
           id="path1944"
           style="fill:#f6ed36;fill-rule:evenodd;stroke-width:0.264583" />
        <path
           class="cls-27"
           d="m 21.816261,15.52098 c -0.108479,0.264583 -0.185209,0.560916 -0.280459,0.838729 -0.01323,0.02381 -0.04498,0.04233 -0.06879,0.01323 0.02646,0.259292 -0.132292,0.455083 -0.169334,0.6985 -0.521229,-0.121708 -1.084791,-0.201083 -1.455208,-0.47625 0.129646,-0.582083 0.254,-1.172104 0.433917,-1.706562 0.198437,-0.03175 0.320146,0.11377 0.489479,0.182562 0.04498,0.01852 0.105833,0.01058 0.153458,0.0291 0.314854,0.113771 0.632354,0.291042 0.894292,0.420688 m -1.299104,0.08467 c -0.402167,0.494771 0.209021,1.066271 0.727604,0.8255 0.185208,-0.171979 0.224896,-0.611187 0.01323,-0.783166 -0.148167,-0.05292 -0.306917,-0.169334 -0.502708,-0.127 -0.08731,0.01852 -0.15875,0.05556 -0.238125,0.08467"
           id="path1946"
           style="fill:#f6ed36;fill-rule:evenodd;stroke-width:0.264583" />
        <path
           class="cls-24"
           d="m 20.752636,15.52098 c 0.195791,-0.04233 0.354541,0.07408 0.502708,0.127 0.211667,0.171979 0.171979,0.611187 -0.01323,0.783166 -0.518583,0.240771 -1.129771,-0.330729 -0.727604,-0.8255 0.07937,-0.02646 0.150812,-0.0635 0.238125,-0.08467 m 0.209021,0.714375 c 0.11377,-0.05292 0.153458,-0.322792 0.06879,-0.447146 -0.338666,-0.206375 -0.449791,0.510646 -0.06879,0.447146"
           id="path1948"
           style="fill:#65b7ec;fill-rule:evenodd;stroke-width:0.264583" />
        <path
           class="cls-27"
           d="m 21.033094,15.788209 c 0.08467,0.124354 0.04498,0.394229 -0.06879,0.447146 -0.381,0.06085 -0.269875,-0.656167 0.06879,-0.447146"
           id="path1950"
           style="fill:#f6ed36;fill-rule:evenodd;stroke-width:0.264583" />
        <path
           class="cls-28"
           d="m 21.773927,19.8575 c 0.0053,0.02911 -0.01058,0.03704 -0.01323,0.05556 -0.02381,0 -0.0291,-0.01587 -0.05556,-0.01323 0.01323,-0.02381 0.02646,-0.04763 0.06879,-0.04233"
           id="path1952"
           style="fill:#251e1c;fill-rule:evenodd;stroke-width:0.264583" />
        <path
           class="cls-24"
           d="m 13.868177,10.806105 c -0.293687,-0.07144 -0.373062,0.336021 -0.267229,0.518583 0.07673,0.129646 0.293688,0.132292 0.420688,0.06879 0.105833,-0.224896 0.0291,-0.500063 -0.153459,-0.587375 m 1.166813,0.148166 c -0.01323,0.02117 -0.02117,0.05027 -0.02646,0.08202 -0.03175,0.169334 -0.05027,0.433917 0.1905,0.455084 0.420687,0.03969 0.320145,-0.740834 -0.06085,-0.613834 -0.05292,0.01852 -0.08202,0.04233 -0.103187,0.07408 m -0.542396,0.60325 c 0.0344,0.0053 0.07408,0.04233 0.111125,0.05556 0.187854,0.06615 0.280458,-0.07937 0.166688,-0.209021 -0.142875,-0.164041 -0.590021,-0.187854 -0.600605,0.140229 0.105834,0.119063 0.211667,-0.0079 0.322792,0.01323 m 0.862542,0.100541 c -0.03704,-0.03175 -0.08996,-0.04498 -0.134938,-0.0291 -0.04498,0.01587 -0.08731,0.0635 -0.129646,0.08731 -0.04233,0.02381 -0.08467,0.04498 -0.124354,0.06879 -0.161396,0.08996 -0.378354,0.174625 -0.566208,0.153459 -0.124354,-0.01323 -0.312208,-0.07408 -0.410104,-0.148167 -0.134938,-0.103188 -0.182563,-0.328083 -0.431271,-0.296333 -0.105833,0.07673 0.03969,0.243416 0.103187,0.306916 0.177271,0.177271 0.574146,0.386292 0.955146,0.341313 0.169334,-0.01852 0.306917,-0.07144 0.431271,-0.124354 0.05821,-0.02646 0.108479,-0.04233 0.164042,-0.07673 0.08202,-0.04763 0.22225,-0.116416 0.177271,-0.235479 -0.0079,-0.01852 -0.01852,-0.03704 -0.0344,-0.05027"
           id="path1956"
           style="fill:#65b7ec;fill-rule:evenodd;stroke-width:0.264583" />
        <path
           class="cls-24"
           d="m 24.380073,9.7715841 c -0.01323,0.01323 -0.0291,0.02381 -0.05027,0.03175 -0.140229,0.04763 -0.391583,-0.248708 -0.465666,-0.330729 -0.142875,-0.156104 -0.293688,-0.410104 -0.306917,-0.624417 -0.142875,0.0979 -0.211667,0.343958 -0.425979,0.224896 -0.171979,-0.09525 -0.240771,-0.415396 -0.243417,-0.595313 -0.182562,0.111125 -0.333375,0.36248 -0.576791,0.232834 -0.142875,-0.07673 -0.179917,-0.238125 -0.193146,-0.388938 -0.0026,-0.05027 -0.02646,-0.198437 0.0079,-0.238125 0.03704,-0.03969 0.201084,-0.02117 0.251354,-0.02117 0.351896,0 0.732896,0.04498 1.058334,0.182562 0.07937,0.0344 0.156104,0.111125 0.251354,0.166688 0.330729,0.195791 0.722312,0.41275 0.759354,0.836083 0.01058,0.116417 0.03704,0.418042 -0.06879,0.523875"
           id="path1958"
           style="fill:#65b7ec;fill-rule:evenodd;stroke-width:0.264583" />
      </g>
    </g>
  </g>
</svg>
