<?xml version="1.0" encoding="UTF-8" standalone="no"?>
<!-- Created with Inkscape (http://www.inkscape.org/) -->

<svg
   width="24.368494mm"
   height="9.3125725mm"
   viewBox="0 0 24.368494 9.3125725"
   version="1.1"
   id="svg9526"
   xmlns="http://www.w3.org/2000/svg"
   xmlns:svg="http://www.w3.org/2000/svg">
  <defs
     id="defs9523" />
  <g
     id="layer1"
     transform="translate(-2.9960233,-2.4970632)">
    <g
       id="g9580">
      <path
         class="cls-30"
         d="m 8.8035873,5.0026332 v -0.33602 h 0.844021 v -0.10848 h -0.502708 v -0.27252 l -0.02117,0.037 c -0.01323,0.0238 -0.0344,0.037 -0.0635,0.037 -0.01323,0 -0.02381,-0.005 -0.03704,-0.0106 l -0.325437,-0.19314 0.306917,-0.51594 h -0.07408 v -1.03187 h 1.9341037 c 0.04763,0 0.07408,0.0264 0.07408,0.0767 v 0.95515 H 9.3274623 l 0.148167,0.0873 -0.05556,0.0952 h 0.227542 v -0.15081 h 0.5238747 c 0.05027,0 0.07408,0.0238 0.07408,0.0741 v 0.0767 h 0.719667 v 0.33867 h -0.719667 v 0.11112 h 0.579438 v 0.28575 h -0.579438 v 0.10584 h 0.8255 v 0.33602 H 8.8009413 Z m 0.844021,-0.84402 h -0.428625 l -0.06615,0.11113 h 0.494771 z m 0.7249577,-1.24883 H 9.4915043 v 0.10319 h 0.8810617 z m 0,0.35719 H 9.4915043 v 0.11112 h 0.8810617 z"
         id="path2098-4"
         style="fill:#65b7ec;stroke-width:0.264583" />
      <path
         class="cls-30"
         d="m 13.605775,4.6666132 c 0,0.037 -0.01323,0.0688 -0.03969,0.0953 -0.0291,0.0291 -0.06085,0.0423 -0.0979,0.0423 h -0.672041 v -0.38894 h 0.171979 v -1.10596 H 12.83054 l -0.243417,1.49225 h -0.92075 c -0.03704,0 -0.06879,-0.0132 -0.09525,-0.0423 -0.02646,-0.0265 -0.03704,-0.0582 -0.03704,-0.0953 v -1.70657 c 0,-0.0503 0.02381,-0.0741 0.07408,-0.0741 h 1.92352 c 0.05027,0 0.07673,0.0238 0.07673,0.0741 v 1.71186 z m -1.542521,-1.35996 v 1.06363 h 0.06085 l 0.174625,-1.06363 z"
         id="path2100-1"
         style="fill:#65b7ec;stroke-width:0.264583" />
      <path
         class="cls-30"
         d="m 15.852087,4.5316832 c -0.01587,0.15081 -0.02646,0.25664 -0.03175,0.3122 -0.0053,0.0397 -0.02381,0.0714 -0.05027,0.0952 -0.0291,0.0265 -0.0635,0.0397 -0.103187,0.0397 h -0.73025 v -0.33602 h 0.272521 c 0,-0.0318 0.0079,-0.0688 0.01323,-0.11112 h -1.17475 l 0.0053,-0.35455 h 1.203854 c 0,-0.0238 0,-0.0609 0.0053,-0.10848 h -0.645583 v -1.02129 h 0.489479 c 0.05027,0 0.07408,0.0265 0.07408,0.0767 v 0.13229 h 0.820208 v 0.34925 h -0.820208 v 0.14023 h 0.724958 c -0.0079,0.16669 -0.01587,0.30957 -0.02381,0.43127 h 0.494771 v 0.35455 z m 0.05556,-1.32028 v -0.25929 h -1.341435 v 0.2884 H 14.06615 v -0.66146 h 2.262187 c 0.05027,0 0.07408,0.0238 0.07408,0.0741 v 0.55827 z"
         id="path2102-8"
         style="fill:#65b7ec;stroke-width:0.264583" />
      <path
         class="cls-30"
         d="m 18.548191,4.6137032 0.333375,0.12435 -0.08996,0.23813 c -0.02381,0.0556 -0.06615,0.0847 -0.127,0.0847 -0.01323,0 -0.03175,0 -0.05027,-0.0106 l -0.568854,-0.21431 0.08467,-0.22225 h -0.5715 l 0.0926,0.19314 -0.505354,0.24342 c -0.01852,0.0106 -0.03704,0.0132 -0.06085,0.0132 -0.05556,0 -0.09525,-0.0238 -0.119063,-0.0741 l -0.113771,-0.24341 0.272521,-0.13229 h -0.370417 v -0.2884 h 2.206625 v 0.2884 h -0.410104 z m -0.354541,-1.6219 v 0.0926 h 0.433916 c 0.05027,0 0.07673,0.0265 0.07673,0.0741 v 1.09273 h -1.645709 v -1.16682 h 0.505354 v -0.0926 h -0.738187 v -0.28839 h 0.738187 v -0.18786 h 0.55298 c 0.05027,0 0.07408,0.0238 0.07408,0.0741 v 0.11378 h 0.706437 v 0.28839 h -0.706437 z m -0.04498,0.3466 h -0.526521 v 0.0847 h 0.526521 z m 0,0.30163 h -0.526521 v 0.0847 h 0.526521 z m 0,0.30162 h -0.526521 v 0.09 h 0.526521 c 0,0 0,-0.09 0,-0.09 z"
         id="path2104-5"
         style="fill:#65b7ec;stroke-width:0.264583" />
      <path
         class="cls-30"
         d="m 21.276046,3.2246332 v 0.27782 h -0.484188 l -0.07673,0.0344 0.03969,0.0476 c 0.06879,0.082 0.105834,0.1561 0.10848,0.22225 l 0.791104,0.82021 -0.267229,0.25664 c -0.02646,0.0265 -0.06086,0.0397 -0.0979,0.0397 -0.03969,0 -0.07408,-0.0159 -0.100542,-0.045 l -0.325437,-0.34131 v 0.35454 c 0,0.037 -0.01058,0.0688 -0.03704,0.0952 -0.02646,0.0265 -0.06085,0.0397 -0.0979,0.0397 h -0.558271 v -0.29634 h 0.161396 v -0.10848 l -0.576792,0.29105 c -0.01852,0.008 -0.0344,0.0106 -0.05292,0.0106 -0.04762,0 -0.08202,-0.0185 -0.103188,-0.0609 l -0.100541,-0.19843 0.833437,-0.4154 v -0.082 l -0.558263,0.26201 c -0.01588,0.008 -0.03175,0.0106 -0.05027,0.0106 -0.04762,0 -0.08202,-0.0212 -0.103187,-0.0635 l -0.0979,-0.20108 0.748771,-0.3519 -0.04233,-0.0609 -0.428625,0.19314 c -0.01588,0.005 -0.03175,0.008 -0.04763,0.008 -0.04762,0 -0.08202,-0.0212 -0.103188,-0.0635 l -0.0926,-0.19579 0.457729,-0.20108 h -0.280458 v -0.26988 h -0.3175 v -0.52916 h 0.806979 v -0.20638 h 0.568854 c 0.04763,0 0.07408,0.0265 0.07408,0.0767 v 0.12965 h 0.732896 c 0.05027,0 0.07673,0.0238 0.07673,0.0714 v 0.44979 z m -0.105834,-0.21166 h -1.254125 v 0.17727 h 1.254125 z m 0.433917,0.80168 c 0,0.0238 -0.0079,0.0423 -0.02646,0.0582 l -0.314855,0.28575 -0.28575,-0.31221 0.375709,-0.34131 0.232833,0.25665 c 0,0 0.01852,0.0318 0.01852,0.0529 z"
         id="path2106-9"
         style="fill:#65b7ec;stroke-width:0.264583" />
    </g>
    <g
       id="g9586">
      <path
         class="cls-30"
         d="m 8.8697333,7.6987432 -0.261937,1.15623 c -0.0079,0.0423 -0.04762,0.0767 -0.08996,0.0767 -0.0344,0.008 -0.132291,0 -0.330729,-0.12436 -0.02117,-0.0132 -0.04233,-0.0265 -0.05556,-0.0423 0.01323,0.20108 0.02646,0.46302 0.02646,0.72496 v 0.20637 c -0.05556,1.3837698 -0.849312,2.0875598 -2.373312,2.0875598 -1.645709,0 -2.455334,-0.67204 -2.545292,-2.1219498 -0.0079,-0.0979 -0.0079,-0.19315 -0.0079,-0.28311 0,-0.74083 0.17198,-1.22502 0.296334,-1.47373 -0.0344,0 -0.06879,0.008 -0.111125,0.008 -0.171979,0 -0.325438,-0.0212 -0.330729,-0.0265 -0.04762,-0.008 -0.08996,-0.0476 -0.08996,-0.0979 l 0.0079,-1.31498 c 0,-0.0265 0.01323,-0.0556 0.0344,-0.0767 0.02117,-0.0212 0.04762,-0.0265 0.07673,-0.0265 0.0079,0 0.497416,0.0212 1.071562,0.0212 0.629709,0 1.148292,-0.0212 1.156229,-0.0212 0.02646,0 0.05556,0.0132 0.07673,0.0344 0.02117,0.0212 0.03439,0.0556 0.0291,0.082 0,0.0132 -0.124354,0.90487 -0.116417,1.65364 0.0079,0.93398 0.145521,1.28059 0.484188,1.28059 0.338666,0 0.449791,-0.28311 0.46302,-1.0504 0.0079,-0.62177 -0.06879,-1.43933 -0.06879,-1.45256 0,-0.0423 0.02117,-0.082 0.05556,-0.10319 l 1.119188,-0.55298 c 0.04762,-0.0212 0.111125,0 0.137583,0.0423 0,0.008 0.235479,0.40746 0.587375,0.74084 0.351896,0.33337 0.711729,0.53975 0.711729,0.53975 0.04233,0.0265 0.0635,0.0688 0.04762,0.11641 z"
         id="path2110-7"
         style="fill:#65b7ec;stroke-width:0.264583" />
      <path
         class="cls-30"
         d="m 14.936629,6.5425132 c 0.02117,0.0212 0.02646,0.0476 0.02646,0.0767 l -0.05556,0.87841 c 0,0.0476 -0.0344,0.09 -0.08996,0.0979 -0.01323,0 -1.547812,0.21431 -1.513416,1.20385 0.02646,1.06628 1.341437,1.2091498 1.397,1.2170898 0.02646,0 0.05556,0.0132 0.06879,0.0344 0.02117,0.0212 0.02646,0.0476 0.02646,0.0767 l -0.166688,1.4314 c -0.0079,0.0423 -0.0344,0.0767 -0.06879,0.082 -0.02117,0.008 -0.484188,0.16669 -1.87325,0.15875 -0.851959,-0.008 -1.508125,-0.23548 -1.944688,-0.68527 -0.386292,-0.39423 -0.587375,-0.94721 -0.587375,-1.6033798 v -0.0344 c 0.0079,-0.99484 0.677333,-1.62454 1.092729,-1.92881 -0.981604,0.0132 -1.8044577,0.0476 -1.8123957,0.0476 -0.05556,0 -0.103187,-0.0423 -0.111125,-0.0979 l -0.04233,-0.87841 c 0,-0.0556 0.04233,-0.10319 0.0979,-0.11113 0.01323,0 1.2382497,-0.0688 2.7728327,-0.0688 0.849313,0 1.576917,0.0212 2.069042,0.0423 l -0.153458,-0.32543 c -0.08996,-0.19315 -0.206375,-0.42069 -0.214313,-0.42863 -0.0079,-0.0212 -0.01323,-0.0556 -0.0079,-0.0767 0.01323,-0.0265 0.02646,-0.0556 0.05556,-0.0635 l 0.277813,-0.13758 c 0.04233,-0.0212 0.0979,-0.008 0.124354,0.0344 0.0079,0.008 0.132291,0.17991 0.248708,0.40745 0.116417,0.22225 0.193146,0.43657 0.193146,0.44186 0.01323,0.0476 -0.0079,0.10319 -0.04762,0.12435 l -0.06879,0.0344 c 0.145521,0.008 0.235479,0.0132 0.235479,0.0132 0.02646,0 0.05556,0.0132 0.06879,0.0344 z m 0.399521,-0.40746 -0.296334,0.15346 c -0.02646,0.008 -0.05556,0.0132 -0.08202,0 -0.02646,-0.008 -0.04763,-0.0265 -0.05556,-0.0556 l -0.187857,-0.40742 c -0.08996,-0.19315 -0.214313,-0.42069 -0.214313,-0.42069 -0.01323,-0.0265 -0.01323,-0.0556 -0.0079,-0.082 0.0079,-0.0291 0.02646,-0.0476 0.05556,-0.0635 l 0.269875,-0.13229 c 0.04762,-0.0212 0.103188,-0.008 0.132292,0.0265 0.0079,0.0132 0.132292,0.18785 0.248708,0.40745 0.111125,0.22755 0.187855,0.43657 0.187855,0.44186 0.02117,0.0476 0,0.10319 -0.04762,0.13229 z"
         id="path2112-5"
         style="fill:#65b7ec;stroke-width:0.264583" />
      <path
         class="cls-30"
         d="m 21.175504,8.9290532 c -0.02646,1.5848498 -0.600604,2.0822698 -1.529292,2.3785998 -0.179916,0.0609 -0.373062,0.0979 -0.560916,0.12436 -0.04762,0.17198 -0.07673,0.27781 -0.08202,0.2831 -0.01323,0.0423 -0.05556,0.0688 -0.0979,0.0688 l -1.563688,-0.0344 c -0.02646,-0.008 -0.05556,-0.0132 -0.07673,-0.0344 -0.02117,-0.0212 -0.02646,-0.0476 -0.02646,-0.082 0,0 0.01323,-0.13758 0.02646,-0.35983 -0.15875,-0.0423 -0.248708,-0.0767 -0.261937,-0.082 -0.04762,-0.0132 -0.07673,-0.0635 -0.06879,-0.10319 l 0.0979,-1.1906198 c 0.0079,-0.0556 0.04762,-0.0979 0.103187,-0.0979 0.0635,0 0.132292,0.008 0.206375,0.008 0.0079,-0.31221 0.02117,-0.635 0.02646,-0.96044 0,-0.15346 0.0079,-0.30427 0.0079,-0.45773 -0.256646,0.0423 -0.484187,0.09 -0.637646,0.13229 -0.0079,0.09 -0.0079,0.17992 -0.0079,0.26988 -0.0079,0.90487 0.0344,2.3997698 0.0344,2.4129998 0.0079,0.0556 -0.04233,0.10318 -0.08996,0.10318 l -0.891645,0.0767 c -0.04762,0 -0.0979,-0.0344 -0.111125,-0.09 0,-0.0132 -0.193146,-1.17475 -0.187855,-2.4976698 0.0079,-1.32027 0.206375,-2.413 0.206375,-2.42094 0.01323,-0.0556 0.06085,-0.09 0.111125,-0.082 l 0.968375,0.0476 c 0.02646,0 0.05556,0.0132 0.06879,0.0344 0.02117,0.0212 0.02646,0.0556 0.02646,0.082 0,0 -0.02117,0.20638 -0.04233,0.50536 0.153458,-0.0688 0.338667,-0.15346 0.552979,-0.22225 -0.0079,-0.30427 -0.0079,-0.49213 -0.0079,-0.49213 0,-0.0556 0.04233,-0.10319 0.0979,-0.11112 l 1.508125,-0.0635 c 0.04762,-0.008 0.09789,0.0265 0.111125,0.0767 0,0 0.04233,0.15345 0.08996,0.41539 0.616479,0.0688 1.092729,0.27781 1.423458,0.61648 0.386292,0.39423 0.574146,0.9816 0.566209,1.7436 z m -1.743604,-0.0423 c 0.0079,0.18785 0,0.35983 -0.01323,0.53975 0.193145,-0.11642 0.3175,-0.25665 0.338666,-0.44186 0.01323,-0.18785 -0.01323,-0.3175 -0.0979,-0.41539 -0.05556,-0.0556 -0.132291,-0.10319 -0.235479,-0.14552 0.0079,0.15345 0.0079,0.30427 0.0079,0.46302 z"
         id="path2114-3"
         style="fill:#65b7ec;stroke-width:0.264583" />
      <path
         class="cls-30"
         d="m 26.557129,7.4368032 c 0.02117,0.082 0.0344,0.16669 0.04762,0.24871 0.351896,-0.008 0.574146,-0.0132 0.582083,-0.0132 0.05556,0 0.103188,0.0423 0.103188,0.0979 l 0.04233,0.67733 c 0,0.0265 -0.0079,0.0556 -0.02646,0.0688 -0.02117,0.0212 -0.04233,0.0344 -0.06879,0.0344 -0.0079,0 -0.201083,0.0132 -0.53975,0.0212 0.0344,0.50536 0.05556,0.99484 0.05556,1.02923 0,0.0291 -0.0079,0.0556 -0.02646,0.0767 -0.02117,0.0212 -0.04762,0.0344 -0.07673,0.0344 -0.0079,0 -0.595313,0.008 -1.203854,0.13758 -0.470959,0.10319 -0.767292,0.2619398 -0.780521,0.4286298 0,0.0423 0.0079,0.0767 0.0344,0.10318 0.132291,0.14552 0.560916,0.17198 0.912812,0.17992 0.600604,0.0132 1.113896,-0.0476 1.119188,-0.0476 0.02646,-0.008 0.05556,0.008 0.07673,0.0212 0.02117,0.0212 0.0344,0.0423 0.0344,0.0688 l 0.0979,0.83609 c 0,0.0476 -0.02646,0.09 -0.06879,0.11112 -0.0344,0.008 -0.844021,0.28311 -2.309813,0.25665 -1.693333,-0.0344 -2.690812,-0.56621 -2.733145,-1.4605 v -0.11113 c 0,-0.7619998 0.394229,-1.0239398 0.775229,-1.2091398 0.359833,-0.17198 0.891646,-0.25665 1.092729,-0.28311 0.0079,-0.0423 0.0079,-0.09 0.0079,-0.14552 -1.037166,-0.0132 -1.778,-0.0476 -1.783291,-0.0476 -0.02646,0 -0.05556,-0.008 -0.06879,-0.0265 -0.02117,-0.0212 -0.02646,-0.0476 -0.02646,-0.0767 l 0.02646,-0.67204 c 0,-0.0556 0.04762,-0.10319 0.103188,-0.10319 0.01323,0 0.809625,0.0212 1.76477,0.0265 v -0.26988 c -0.981604,0 -1.770062,0.0132 -1.783291,0.0132 -0.05556,0 -0.0979,-0.0423 -0.103188,-0.0979 l -0.02117,-0.65617 c -0.0079,-0.0635 0.04233,-0.11113 0.0979,-0.11113 0.0079,0 0.724959,-0.0264 1.778,-0.0423 -0.0079,-0.16669 -0.0079,-0.2831 -0.0079,-0.2831 v -0.008 c 0,-0.0265 0.0079,-0.0476 0.02646,-0.0688 0.01323,-0.0212 0.04233,-0.0344 0.06879,-0.0344 l 2.447396,-0.0556 c 0.04762,0 0.08996,0.0344 0.103187,0.09 0,0 0.02646,0.15346 0.06879,0.37306 0.53975,0.0132 0.865187,0.0265 0.870479,0.0265 0.05556,0 0.103188,0.0476 0.0979,0.10319 l -0.02117,0.6641 c -0.0079,0.0556 -0.05556,0.0979 -0.111125,0.0979 -0.0079,0 -0.261937,-0.008 -0.672041,-0.008 z"
         id="path2116-8"
         style="fill:#65b7ec;stroke-width:0.264583" />
    </g>
  </g>
</svg>
