<svg width="988" height="135" viewBox="0 0 988 135" fill="none" xmlns="http://www.w3.org/2000/svg">
<path d="M112.21 129.48C142.033 129.48 166.21 100.495 166.21 64.74C166.21 28.9851 142.033 0 112.21 0C82.3866 0 58.21 28.9851 58.21 64.74C58.21 100.495 82.3866 129.48 112.21 129.48Z" fill="white"/>
<path d="M48.6 134.989C75.441 134.989 97.2 108.901 97.2 76.7192C97.2 44.5376 75.441 18.4492 48.6 18.4492C21.759 18.4492 0 44.5376 0 76.7192C0 108.901 21.759 134.989 48.6 134.989Z" fill="white"/>
<path d="M175.82 123.009C202.661 123.009 224.42 96.9204 224.42 64.7387C224.42 32.5571 202.661 6.46875 175.82 6.46875C148.979 6.46875 127.22 32.5571 127.22 64.7387C127.22 96.9204 148.979 123.009 175.82 123.009Z" fill="white"/>
<path d="M239.43 129.48C269.253 129.48 293.43 100.495 293.43 64.74C293.43 28.9851 269.253 0 239.43 0C209.606 0 185.43 28.9851 185.43 64.74C185.43 100.495 209.606 129.48 239.43 129.48Z" fill="white"/>
<path d="M303.04 134.989C329.881 134.989 351.64 108.901 351.64 76.7192C351.64 44.5376 329.881 18.4492 303.04 18.4492C276.199 18.4492 254.44 44.5376 254.44 76.7192C254.44 108.901 276.199 134.989 303.04 134.989Z" fill="white"/>
<path d="M366.66 129.48C396.484 129.48 420.66 100.495 420.66 64.74C420.66 28.9851 396.484 0 366.66 0C336.837 0 312.66 28.9851 312.66 64.74C312.66 100.495 336.837 129.48 366.66 129.48Z" fill="white"/>
<path d="M430.27 123.009C457.111 123.009 478.87 96.9204 478.87 64.7387C478.87 32.5571 457.111 6.46875 430.27 6.46875C403.429 6.46875 381.67 32.5571 381.67 64.7387C381.67 96.9204 403.429 123.009 430.27 123.009Z" fill="white"/>
<path d="M493.88 129.48C523.703 129.48 547.88 100.495 547.88 64.74C547.88 28.9851 523.703 0 493.88 0C464.057 0 439.88 28.9851 439.88 64.74C439.88 100.495 464.057 129.48 493.88 129.48Z" fill="white"/>
<path d="M557.49 134.989C584.331 134.989 606.09 108.901 606.09 76.7192C606.09 44.5376 584.331 18.4492 557.49 18.4492C530.649 18.4492 508.89 44.5376 508.89 76.7192C508.89 108.901 530.649 134.989 557.49 134.989Z" fill="white"/>
<path d="M621.1 129.48C650.923 129.48 675.1 100.495 675.1 64.74C675.1 28.9851 650.923 0 621.1 0C591.276 0 567.1 28.9851 567.1 64.74C567.1 100.495 591.276 129.48 621.1 129.48Z" fill="white"/>
<path d="M684.71 123.009C711.551 123.009 733.31 96.9204 733.31 64.7387C733.31 32.5571 711.551 6.46875 684.71 6.46875C657.869 6.46875 636.11 32.5571 636.11 64.7387C636.11 96.9204 657.869 123.009 684.71 123.009Z" fill="white"/>
<path d="M748.32 129.48C778.144 129.48 802.32 100.495 802.32 64.74C802.32 28.9851 778.144 0 748.32 0C718.497 0 694.32 28.9851 694.32 64.74C694.32 100.495 718.497 129.48 748.32 129.48Z" fill="white"/>
<path d="M811.93 123.009C838.771 123.009 860.53 96.9204 860.53 64.7387C860.53 32.5571 838.771 6.46875 811.93 6.46875C785.089 6.46875 763.33 32.5571 763.33 64.7387C763.33 96.9204 785.089 123.009 811.93 123.009Z" fill="white"/>
<path d="M875.47 129.48C905.293 129.48 929.47 100.495 929.47 64.74C929.47 28.9851 905.293 0 875.47 0C845.646 0 821.47 28.9851 821.47 64.74C821.47 100.495 845.646 129.48 875.47 129.48Z" fill="white"/>
<path d="M939 123.009C965.841 123.009 987.6 96.9204 987.6 64.7387C987.6 32.5571 965.841 6.46875 939 6.46875C912.159 6.46875 890.4 32.5571 890.4 64.7387C890.4 96.9204 912.159 123.009 939 123.009Z" fill="white"/>
</svg>
