<?xml version="1.0" encoding="UTF-8" standalone="no"?>
<!-- Created with Inkscape (http://www.inkscape.org/) -->

<svg
   width="16.576145mm"
   height="24.290266mm"
   viewBox="0 0 16.576145 24.290266"
   version="1.1"
   id="svg5767"
   xmlns="http://www.w3.org/2000/svg"
   xmlns:svg="http://www.w3.org/2000/svg">
  <defs
     id="defs5764" />
  <g
     id="layer1"
     transform="translate(-5.3433641,-3.5516699)">
    <g
       id="g5812">
      <g
         id="g5804">
        <path
           class="cls-39"
           d="m 7.7986977,27.716722 c -0.018521,0.03175 -0.050271,0.03969 -0.084667,0.01852 L 7.1822186,27.465367 c -0.039687,-0.02117 -0.050271,-0.05027 -0.03175,-0.08467 0.1349375,-0.251354 0.1984375,-0.468313 0.1984375,-0.648229 -0.00529,-0.0979 -0.050271,-0.174625 -0.1349375,-0.230188 -0.071438,-0.04498 -0.1613959,-0.06615 -0.2645833,-0.06615 -0.039688,0 -0.0635,0.02646 -0.066146,0.07144 -0.018521,0.275166 -0.037042,0.4445 -0.050271,0.518583 -0.026458,0.193146 -0.097896,0.351896 -0.206375,0.468313 -0.1217083,0.134937 -0.2751667,0.203729 -0.4577292,0.206375 -0.238125,0.0053 -0.4418541,-0.0635 -0.5926666,-0.206375 -0.1561042,-0.142875 -0.2328334,-0.336021 -0.2328334,-0.576792 0.00529,-0.468313 0.2831042,-0.796396 0.8307917,-0.976313 0.037042,-0.01323 0.058208,-0.03704 0.0635,-0.08202 0,-0.08996 0.00794,-0.251354 0.021167,-0.481542 0,-0.03969 -0.018521,-0.0635 -0.0635,-0.0635 H 5.7270103 c -0.039688,0 -0.0635,-0.01852 -0.058208,-0.05821 l 0.018521,-0.365125 c 0,-0.04498 0.023813,-0.06879 0.0635,-0.06879 l 0.4683125,0.0079 c 0.039688,0 0.0635,-0.02117 0.0635,-0.06615 l 0.013229,-0.455084 c 0,-0.04498 0.021167,-0.06879 0.066146,-0.06879 l 0.5767916,0.0053 c 0.039688,0 0.0635,0.02117 0.0635,0.0635 -0.00529,0.134938 -0.00794,0.288396 -0.013229,0.449792 0,0.02117 0.00529,0.03704 0.013229,0.05027 0.00794,0.0079 0.026458,0.01323 0.044979,0.01323 l 0.6693958,-0.0053 c 0.018521,0 0.037042,0.0053 0.044979,0.01323 0.00529,0.01323 0.00794,0.02646 0.00794,0.05292 l -0.013229,0.365125 c -0.00529,0.03969 -0.026458,0.05821 -0.066146,0.05821 l -0.66675,0.0053 c -0.039688,0 -0.0635,0.02117 -0.0635,0.06615 l -0.018521,0.396875 c -0.00529,0.03969 0.018521,0.0635 0.0635,0.0635 0.2831041,0.0053 0.5265208,0.07673 0.7276041,0.216958 0.2328333,0.161396 0.3518958,0.373063 0.3545417,0.642938 0.00529,0.322791 -0.089958,0.661458 -0.2883959,1.016 z M 6.2085519,26.515513 c -0.1984375,0.0635 -0.3069166,0.171979 -0.3201458,0.333375 -0.00529,0.156104 0.044979,0.243417 0.1613958,0.248709 0.066146,-0.0053 0.1084792,-0.04498 0.127,-0.113771 0.026458,-0.103188 0.044979,-0.256646 0.058208,-0.449792 -0.00794,-0.0079 -0.018521,-0.01323 -0.026458,-0.01852 z M 8.7088644,25.61593 c 0,0.04498 -0.018521,0.0635 -0.0635,0.0635 h -0.508 c -0.039687,0 -0.0635,-0.01852 -0.058208,-0.0635 0.013229,-0.277812 0.021167,-0.552979 0.021167,-0.817562 0,-0.04498 0.021167,-0.06615 0.0635,-0.06615 h 0.5000625 c 0.039688,0 0.058208,0.02117 0.058208,0.0635 0,0.232833 -0.00529,0.508 -0.013229,0.822854 z"
           id="path1854"
           style="fill:#58778d;stroke-width:0.264583" />
        <path
           class="cls-39"
           d="m 11.420844,26.285326 c -0.0053,0.04498 -0.02646,0.06879 -0.06615,0.06879 h -0.4445 c -0.03704,0 -0.05821,0.01852 -0.0635,0.05292 -0.0079,0.03175 0,0.0635 0.02117,0.08996 0.142875,0.166688 0.320146,0.333375 0.531813,0.508 0.03175,0.02646 0.03175,0.05292 0.0053,0.08467 l -0.338667,0.41275 c -0.02646,0.03175 -0.05821,0.03704 -0.08996,0.0079 -0.08467,-0.07673 -0.206375,-0.187855 -0.354542,-0.341313 -0.02646,-0.02646 -0.05292,-0.02117 -0.07144,0.01323 -0.103187,0.185209 -0.216958,0.367771 -0.341312,0.545042 -0.02381,0.03704 -0.05027,0.03969 -0.08467,0.01323 L 9.6349061,27.39393 c -0.037042,-0.02646 -0.044979,-0.05292 -0.018521,-0.08996 0.2328333,-0.341313 0.3915839,-0.642938 0.4762499,-0.891646 0.01323,-0.04498 0,-0.0635 -0.04498,-0.0635 H 9.4893852 c -0.039687,0 -0.0635,-0.02117 -0.058208,-0.06879 l 0.018521,-0.301625 c 0,-0.03969 0.021167,-0.0635 0.066146,-0.0635 h 0.5847298 c 0.03969,0 0.0635,-0.02117 0.06615,-0.06879 l 0.02117,-0.52123 c 0,-0.03969 -0.02117,-0.0635 -0.06615,-0.0635 -0.03969,0 -0.06615,0.01852 -0.08467,0.05821 -0.02646,0.06615 -0.0635,0.15875 -0.1084799,0.275166 -0.018521,0.03704 -0.044979,0.05027 -0.084667,0.03704 L 9.3888436,25.446597 c -0.039687,-0.01852 -0.052917,-0.04498 -0.037042,-0.08467 0.1402292,-0.328083 0.2645833,-0.711729 0.3862916,-1.145646 0.013229,-0.03969 0.037042,-0.05292 0.082021,-0.05027 l 0.4762498,0.10848 c 0.03969,0.0079 0.05292,0.03704 0.04498,0.07673 -0.03969,0.142875 -0.08467,0.288396 -0.127,0.423333 -0.0079,0.03969 0.0053,0.05821 0.05027,0.05821 h 1.11125 c 0.04498,0 0.06615,0.02117 0.0635,0.06615 l -0.01852,0.301625 c -0.0053,0.03969 -0.02646,0.0635 -0.06615,0.0635 h -0.341313 c -0.04498,0 -0.06615,0.02117 -0.06615,0.0635 l -0.01852,0.521229 c -0.0053,0.04498 0.01852,0.06879 0.05821,0.06879 h 0.396875 c 0.03969,0 0.0635,0.02117 0.05821,0.0635 l -0.01852,0.301625 z m 1.979083,0.661458 c 0,0.03969 -0.01852,0.05821 -0.0635,0.05821 h -1.61925 c -0.03969,0 -0.05821,-0.01852 -0.05821,-0.05821 l 0.05821,-1.875896 c 0,-0.03969 0.02117,-0.0635 0.06615,-0.0635 l 1.611312,-0.0053 c 0.04498,0 0.0635,0.02117 0.0635,0.0635 z M 12.68026,25.45718 h -0.206375 c -0.03969,0 -0.0635,0.01852 -0.0635,0.0635 l -0.03704,0.976312 c -0.0053,0.04498 0.01852,0.06615 0.0635,0.06615 h 0.206375 c 0.04498,0 0.06615,-0.02117 0.06615,-0.06615 l 0.03175,-0.981604 c 0,-0.03969 -0.02117,-0.05821 -0.0635,-0.05821 z"
           id="path1856"
           style="fill:#58778d;stroke-width:0.264583" />
        <path
           class="cls-39"
           d="m 15.969031,27.825201 c -0.03175,0.02646 -0.0635,0.02117 -0.08996,-0.01323 l -0.346605,-0.45773 c -0.02646,-0.03175 -0.02117,-0.0635 0.0079,-0.08202 0.306917,-0.211667 0.457729,-0.381 0.457729,-0.515938 0,-0.174625 -0.0979,-0.256646 -0.296333,-0.251354 -0.0635,0.0053 -0.277813,0.05821 -0.656167,0.171979 -0.03969,0.01323 -0.0635,-0.0053 -0.06615,-0.05027 l -0.01852,-0.301625 c -0.0053,-0.03704 0,-0.07673 0.0053,-0.127 0.0079,-0.08467 0.03969,-0.457729 0.103188,-1.11125 0,-0.04498 0.02117,-0.06615 0.0635,-0.06615 l 0.62177,-0.0079 c 0.03704,0 0.05821,0.02117 0.05821,0.0635 l -0.08202,0.849313 c 0,0.03969 0.01852,0.05821 0.05821,0.05821 0.03175,-0.0053 0.05821,-0.0053 0.08202,-0.0079 0.261938,-0.0053 0.463021,0.06879 0.60325,0.206375 0.142875,0.142875 0.211667,0.346604 0.201083,0.605896 -0.01323,0.336021 -0.246062,0.682625 -0.706437,1.039813 z m 0.933979,-3.063875 -0.396875,0.354542 c -0.03175,0.03175 -0.0635,0.03175 -0.09525,-0.0053 L 15.942573,24.57611 c -0.07144,-0.07673 -0.14023,-0.153459 -0.206375,-0.224896 -0.03175,-0.03704 -0.02646,-0.0635 0.0053,-0.08996 l 0.383646,-0.322791 c 0.03175,-0.03175 0.0635,-0.02646 0.09525,0.0053 0.174625,0.174625 0.404813,0.418042 0.687917,0.732896 0.02646,0.03175 0.02646,0.05821 -0.0053,0.08467 z"
           id="path1858"
           style="fill:#58778d;stroke-width:0.264583" />
        <path
           class="cls-39"
           d="m 21.91951,25.848763 c 0,0.03969 -0.02117,0.05821 -0.0635,0.05821 l -0.513292,0.01852 c -0.04498,0.0053 -0.06615,0.02646 -0.07144,0.07144 l -0.02117,0.404812 c -0.0053,0.03969 -0.02646,0.0635 -0.07144,0.0635 h -0.518584 c -0.04498,0 -0.06614,-0.01852 -0.0635,-0.05821 l 0.02646,-0.391583 c 0.0053,-0.01852 0,-0.03704 -0.01323,-0.05027 -0.01323,-0.01323 -0.02646,-0.01852 -0.04498,-0.01852 l -0.386291,0.0079 c -0.03969,0 -0.0635,0.02117 -0.0635,0.07144 -0.01323,0.283104 -0.01852,0.481542 -0.01323,0.584729 0.0053,0.185209 0.0979,0.277813 0.277812,0.283104 0.201083,0.0053 0.423333,-0.0079 0.661458,-0.03175 0.03969,-0.0053 0.0635,0.01852 0.0635,0.05821 l 0.02117,0.534458 c 0.0053,0.04498 -0.01323,0.06879 -0.05821,0.07144 -0.288396,0.02117 -0.521229,0.03704 -0.695854,0.02646 -0.322792,-0.0079 -0.566209,-0.08467 -0.724959,-0.230188 -0.166687,-0.15875 -0.256646,-0.396875 -0.269875,-0.724958 0,-0.08996 0,-0.277812 0.0079,-0.566208 0.0053,-0.01323 0,-0.02646 -0.01323,-0.03704 -0.01323,-0.01323 -0.02646,-0.01852 -0.03969,-0.01852 l -0.531812,0.01323 c -0.01852,0 -0.03704,-0.0079 -0.05027,-0.01852 -0.01323,-0.01323 -0.01852,-0.02646 -0.01852,-0.04498 l 0.0053,-0.381 c 0,-0.04498 0.02117,-0.06615 0.06614,-0.06615 l 0.547688,-0.01323 c 0.03969,0 0.0635,-0.02117 0.0635,-0.0635 l 0.02117,-0.470959 c 0.0053,-0.03969 0.02646,-0.05821 0.06615,-0.05821 h 0.597959 c 0.03969,0 0.0635,0.01852 0.05821,0.05821 0,0.08202 -0.0079,0.230188 -0.02117,0.449792 0,0.01852 0.0079,0.03175 0.01852,0.04498 0.01323,0.0079 0.02646,0.01852 0.04498,0.01852 l 0.391584,-0.0079 c 0.03969,0 0.0635,-0.02117 0.06879,-0.06879 0.0079,-0.187854 0.02646,-0.481542 0.03969,-0.875771 0,-0.04498 0.02117,-0.06615 0.06615,-0.06615 l 0.521229,-0.0053 c 0.01852,0 0.03175,0.0079 0.04498,0.02117 0.01323,0.0079 0.01852,0.02646 0.01852,0.04498 -0.0079,0.251354 -0.02117,0.53975 -0.04498,0.859896 0,0.01852 0.0053,0.03704 0.01852,0.04498 0.01323,0.01323 0.02646,0.02381 0.04498,0.02381 l 0.486833,-0.01852 c 0.01852,0 0.03175,0.0053 0.04498,0.01852 0.01323,0.01323 0.01852,0.03175 0.01852,0.05027 l -0.0053,0.381 z"
           id="path1860"
           style="fill:#58778d;stroke-width:0.264583" />
      </g>
      <path
         class="cls-22"
         d="m 17.831698,4.2032011 c -0.07673,-0.026458 -0.15875,-0.026458 -0.23548,-0.00529 -0.04498,0.013229 -0.08731,0.034396 -0.124354,0.0635 -0.566208,0.4259792 -1.214437,0.7434792 -1.981729,0.968375 -0.976312,0.28575 -2.039937,0.3942292 -3.071812,0.5000625 -1.066271,0.1084775 -2.169584,0.2196025 -3.2146878,0.529165 -0.8625416,0.254 -1.5954375,0.6138333 -2.2410208,1.1006666 C 6.8329686,7.4575761 6.7826978,7.6269094 6.8276769,7.7803677 L 11.005448,21.969972 c 0.06879,0.235479 0.320146,0.373062 0.555625,0.304271 v 0 c 0.235479,-0.06879 0.373062,-0.320146 0.304271,-0.555625 l -1.69598,-5.767917 c 0.48948,-0.3175 1.039813,-0.563563 1.666875,-0.748771 0.976313,-0.28575 2.039938,-0.394229 3.071813,-0.500062 1.066271,-0.10848 2.169583,-0.219605 3.214687,-0.529167 0.862542,-0.254 1.595438,-0.613833 2.241021,-1.100667 0.129646,-0.0979 0.179917,-0.267229 0.134938,-0.420687 L 18.088343,4.4651386 c -0.03704,-0.1243542 -0.132291,-0.22225 -0.254,-0.2619375 z m -7.239,10.5304169 c 0.06085,0.206375 -0.05292,0.420687 -0.251354,0.478895 -0.198438,0.05821 -0.4101046,-0.06085 -0.4709588,-0.267229 L 7.7669477,7.7962427 c -0.060854,-0.206375 0.052917,-0.4206875 0.2513542,-0.4788958 0.1984375,-0.058208 0.4101042,0.060854 0.4709583,0.2672292 z"
         id="path1864"
         style="fill:#f6ed36;fill-rule:evenodd;stroke:#65b7ec;stroke-width:1.26206px;stroke-linecap:round;stroke-linejoin:round" />
    </g>
  </g>
</svg>
